<svg width="24" height="24" viewBox="0 0 24 24" fill="none" xmlns="http://www.w3.org/2000/svg">
<path fill-rule="evenodd" clip-rule="evenodd" d="M5.34333 7.57661C6.20445 6.66294 6.50939 6.41055 6.876 6.29177C7.13035 6.22587 7.39696 6.22313 7.65261 6.28377C7.98953 6.38314 8.07747 6.45737 9.183 7.56062C10.1538 8.53025 10.2497 8.63532 10.3434 8.8249C10.5215 9.15812 10.5494 9.55147 10.4199 9.90646C10.3239 10.176 10.1823 10.3553 9.59415 10.948L9.21041 11.3341C9.10926 11.4368 9.08533 11.5929 9.15102 11.7212C10.0019 13.1813 11.2115 14.3999 12.6652 15.2617C12.8324 15.3517 13.0388 15.3226 13.1746 15.1897L13.5435 14.8254C13.7714 14.5907 14.0127 14.3695 14.2664 14.163C14.6638 13.9161 15.1607 13.8923 15.5798 14.1002C15.7842 14.1973 15.8528 14.2589 16.8544 15.2605C17.8822 16.2884 17.9154 16.325 18.0307 16.5614C18.2445 16.9534 18.2424 17.4276 18.025 17.8177C17.9108 18.0381 17.8468 18.118 17.2667 18.7119C16.916 19.0717 16.5814 19.3971 16.5334 19.4485C16.055 19.846 15.4404 20.0411 14.8203 19.9922C13.6863 19.889 12.5889 19.5381 11.6054 18.9643C9.42324 17.8033 7.5671 16.1136 6.20674 14.0499C5.90865 13.6171 5.6437 13.1624 5.41413 12.6897C4.80179 11.6344 4.4861 10.4332 4.50047 9.21321C4.54682 8.57566 4.85122 7.9846 5.34333 7.57661Z" stroke="#949494" stroke-width="1.5" stroke-linecap="round" stroke-linejoin="round"/>
<path d="M17.7956 4C17.7956 3.58579 17.4599 3.25 17.0456 3.25C16.6314 3.25 16.2956 3.58579 16.2956 4H17.7956ZM16.2956 6.29216C16.2956 6.70637 16.6314 7.04216 17.0456 7.04216C17.4599 7.04216 17.7956 6.70637 17.7956 6.29216H16.2956ZM17.7956 6.29297C17.7956 5.87876 17.4599 5.54297 17.0456 5.54297C16.6314 5.54297 16.2956 5.87876 16.2956 6.29297H17.7956ZM16.2956 8.58398C16.2956 8.9982 16.6314 9.33398 17.0456 9.33398C17.4599 9.33398 17.7956 8.9982 17.7956 8.58398H16.2956ZM17.0459 7.04174C17.4601 7.04174 17.7959 6.70596 17.7959 6.29174C17.7959 5.87753 17.4601 5.54174 17.0459 5.54174V7.04174ZM14.7617 5.54174C14.3475 5.54174 14.0117 5.87753 14.0117 6.29174C14.0117 6.70596 14.3475 7.04174 14.7617 7.04174V5.54174ZM17.0449 5.54174C16.6307 5.54174 16.2949 5.87753 16.2949 6.29174C16.2949 6.70596 16.6307 7.04174 17.0449 7.04174V5.54174ZM19.3291 7.04174C19.7433 7.04174 20.0791 6.70596 20.0791 6.29174C20.0791 5.87753 19.7433 5.54174 19.3291 5.54174V7.04174ZM16.2956 4V6.29216H17.7956V4H16.2956ZM16.2956 6.29297V8.58398H17.7956V6.29297H16.2956ZM17.0459 5.54174H14.7617V7.04174H17.0459V5.54174ZM17.0449 7.04174H19.3291V5.54174H17.0449V7.04174Z" fill="#949494"/>
</svg>
