<svg width="46" height="46" viewBox="0 0 46 46" fill="none" xmlns="http://www.w3.org/2000/svg">
<rect width="46" height="46" rx="23" fill="#FECC3F"/>
<path d="M17.3085 23.5283L19.8634 20.4155C20.1241 20.0803 20.2544 19.9127 20.3227 19.7247C20.3832 19.5583 20.4082 19.3812 20.3962 19.2047C20.3826 19.0051 20.3037 18.808 20.146 18.4137L19.5444 16.9097C19.311 16.3262 19.1943 16.0344 18.993 15.8432C18.8156 15.6747 18.5933 15.561 18.3528 15.5159C18.0799 15.4647 17.775 15.5409 17.1654 15.6933L15.5 16.1097C15.5 24.5746 21.4253 30.5 29.8906 30.5L30.3067 28.8344C30.4591 28.2248 30.5353 27.9199 30.4841 27.647C30.439 27.4066 30.3253 27.1842 30.1568 27.0069C29.9655 26.8055 29.6738 26.6888 29.0903 26.4554L27.7481 25.9186C27.2983 25.7387 27.0734 25.6487 26.8491 25.6418C26.6509 25.6357 26.4541 25.6761 26.2743 25.7598C26.0709 25.8545 25.8996 26.0257 25.557 26.3683L22.9724 28.9537" stroke="#1A2E35" stroke-width="1.5" stroke-linecap="round" stroke-linejoin="round"/>
</svg>
