<svg width="286" height="74" viewBox="0 0 286 74" fill="none" xmlns="http://www.w3.org/2000/svg">
<path d="M152.334 12L144.334 4M152.334 12H148.6C147.107 12 146.36 12 145.79 11.7094C145.288 11.4537 144.88 11.0457 144.624 10.544C144.334 9.97354 144.334 9.22681 144.334 7.73333V4M152.334 12V14.6667M144.334 4H137.934C136.44 4 135.693 4 135.123 4.29065C134.621 4.54631 134.213 4.95426 133.958 5.45603C133.667 6.02646 133.667 6.77319 133.667 8.26667V23.7333C133.667 25.2268 133.667 25.9735 133.958 26.544C134.213 27.0457 134.621 27.4537 135.123 27.7094C135.693 28 136.44 28 137.934 28H147M152.337 28V20.0034M152.337 20.0034L155 22.667M152.337 20.0034L149.667 22.667" stroke="#353C42" stroke-width="2" stroke-linecap="round" stroke-linejoin="round"/>
<path d="M4.64402 58.27C5.68002 58.27 6.58535 58.4707 7.36002 58.872C8.14402 59.264 8.74602 59.8333 9.16602 60.58C9.59535 61.3173 9.81002 62.1807 9.81002 63.17C9.81002 64.1593 9.59535 65.018 9.16602 65.746C8.74602 66.474 8.14402 67.034 7.36002 67.426C6.58535 67.8087 5.68002 68 4.64402 68H1.46602V58.27H4.64402ZM4.64402 66.698C5.78268 66.698 6.65535 66.39 7.26202 65.774C7.86868 65.158 8.17202 64.29 8.17202 63.17C8.17202 62.0407 7.86868 61.1587 7.26202 60.524C6.65535 59.8893 5.78268 59.572 4.64402 59.572H3.06202V66.698H4.64402ZM12.9878 61.406C13.2211 61.014 13.5291 60.7107 13.9118 60.496C14.3038 60.272 14.7658 60.16 15.2978 60.16V61.812H14.8918C14.2665 61.812 13.7905 61.9707 13.4638 62.288C13.1465 62.6053 12.9878 63.156 12.9878 63.94V68H11.3918V60.286H12.9878V61.406ZM16.2328 64.108C16.2328 63.3333 16.3915 62.6473 16.7088 62.05C17.0355 61.4527 17.4742 60.9907 18.0248 60.664C18.5848 60.328 19.2008 60.16 19.8728 60.16C20.4795 60.16 21.0068 60.2813 21.4548 60.524C21.9122 60.7573 22.2762 61.0513 22.5468 61.406V60.286H24.1568V68H22.5468V66.852C22.2762 67.216 21.9075 67.5193 21.4408 67.762C20.9742 68.0047 20.4422 68.126 19.8448 68.126C19.1822 68.126 18.5755 67.958 18.0248 67.622C17.4742 67.2767 17.0355 66.8007 16.7088 66.194C16.3915 65.578 16.2328 64.8827 16.2328 64.108ZM22.5468 64.136C22.5468 63.604 22.4348 63.142 22.2108 62.75C21.9962 62.358 21.7115 62.0593 21.3568 61.854C21.0022 61.6487 20.6195 61.546 20.2088 61.546C19.7982 61.546 19.4155 61.6487 19.0608 61.854C18.7062 62.05 18.4168 62.344 18.1928 62.736C17.9782 63.1187 17.8708 63.576 17.8708 64.108C17.8708 64.64 17.9782 65.1067 18.1928 65.508C18.4168 65.9093 18.7062 66.2173 19.0608 66.432C19.4248 66.6373 19.8075 66.74 20.2088 66.74C20.6195 66.74 21.0022 66.6373 21.3568 66.432C21.7115 66.2267 21.9962 65.928 22.2108 65.536C22.4348 65.1347 22.5468 64.668 22.5468 64.136ZM29.3611 60.16C29.9585 60.16 30.4858 60.2813 30.9431 60.524C31.4098 60.7573 31.7738 61.0513 32.0351 61.406V60.286H33.6451V68.126C33.6451 68.8353 33.4958 69.4653 33.1971 70.016C32.8985 70.576 32.4645 71.0147 31.8951 71.332C31.3351 71.6493 30.6631 71.808 29.8791 71.808C28.8338 71.808 27.9658 71.5607 27.2751 71.066C26.5845 70.5807 26.1925 69.918 26.0991 69.078H27.6811C27.8025 69.4793 28.0591 69.8013 28.4511 70.044C28.8525 70.296 29.3285 70.422 29.8791 70.422C30.5231 70.422 31.0411 70.226 31.4331 69.834C31.8345 69.442 32.0351 68.8727 32.0351 68.126V66.838C31.7645 67.202 31.3958 67.51 30.9291 67.762C30.4718 68.0047 29.9491 68.126 29.3611 68.126C28.6891 68.126 28.0731 67.958 27.5131 67.622C26.9625 67.2767 26.5238 66.8007 26.1971 66.194C25.8798 65.578 25.7211 64.8827 25.7211 64.108C25.7211 63.3333 25.8798 62.6473 26.1971 62.05C26.5238 61.4527 26.9625 60.9907 27.5131 60.664C28.0731 60.328 28.6891 60.16 29.3611 60.16ZM32.0351 64.136C32.0351 63.604 31.9231 63.142 31.6991 62.75C31.4845 62.358 31.1998 62.0593 30.8451 61.854C30.4905 61.6487 30.1078 61.546 29.6971 61.546C29.2865 61.546 28.9038 61.6487 28.5491 61.854C28.1945 62.05 27.9051 62.344 27.6811 62.736C27.4665 63.1187 27.3591 63.576 27.3591 64.108C27.3591 64.64 27.4665 65.1067 27.6811 65.508C27.9051 65.9093 28.1945 66.2173 28.5491 66.432C28.9131 66.6373 29.2958 66.74 29.6971 66.74C30.1078 66.74 30.4905 66.6373 30.8451 66.432C31.1998 66.2267 31.4845 65.928 31.6991 65.536C31.9231 65.1347 32.0351 64.668 32.0351 64.136ZM46.8961 68L45.6921 66.796C45.2255 67.2627 44.7168 67.6127 44.1661 67.846C43.6155 68.07 42.9995 68.182 42.3181 68.182C41.6275 68.182 41.0161 68.0607 40.4841 67.818C39.9521 67.5753 39.5415 67.23 39.2521 66.782C38.9628 66.3247 38.8181 65.7973 38.8181 65.2C38.8181 64.528 39.0095 63.9307 39.3921 63.408C39.7748 62.876 40.3441 62.456 41.1001 62.148C40.8295 61.8213 40.6381 61.518 40.5261 61.238C40.4141 60.9487 40.3581 60.6313 40.3581 60.286C40.3581 59.8567 40.4655 59.474 40.6801 59.138C40.9041 58.802 41.2215 58.536 41.6321 58.34C42.0428 58.144 42.5188 58.046 43.0601 58.046C43.6108 58.046 44.0775 58.1533 44.4601 58.368C44.8521 58.5733 45.1415 58.858 45.3281 59.222C45.5241 59.586 45.6035 59.992 45.5661 60.44H43.9701C43.9795 60.0947 43.8955 59.8287 43.7181 59.642C43.5408 59.446 43.2981 59.348 42.9901 59.348C42.6821 59.348 42.4301 59.4413 42.2341 59.628C42.0475 59.8053 41.9541 60.0247 41.9541 60.286C41.9541 60.538 42.0241 60.79 42.1641 61.042C42.3135 61.2847 42.5701 61.602 42.9341 61.994L45.5101 64.556L46.5041 62.918H48.2261L46.9661 65.074L46.6161 65.648L48.9821 68H46.8961ZM42.3181 66.824C43.1955 66.824 43.9701 66.4647 44.6421 65.746L42.0661 63.156C40.9648 63.5947 40.4141 64.2573 40.4141 65.144C40.4141 65.62 40.5915 66.0213 40.9461 66.348C41.3008 66.6653 41.7581 66.824 42.3181 66.824ZM53.1332 64.108C53.1332 63.3333 53.2919 62.6473 53.6092 62.05C53.9359 61.4527 54.3746 60.9907 54.9252 60.664C55.4852 60.328 56.1059 60.16 56.7872 60.16C57.2912 60.16 57.7859 60.272 58.2712 60.496C58.7659 60.7107 59.1579 61 59.4472 61.364V57.64H61.0572V68H59.4472V66.838C59.1859 67.2113 58.8219 67.5193 58.3552 67.762C57.8979 68.0047 57.3706 68.126 56.7732 68.126C56.1012 68.126 55.4852 67.958 54.9252 67.622C54.3746 67.2767 53.9359 66.8007 53.6092 66.194C53.2919 65.578 53.1332 64.8827 53.1332 64.108ZM59.4472 64.136C59.4472 63.604 59.3352 63.142 59.1112 62.75C58.8966 62.358 58.6119 62.0593 58.2572 61.854C57.9026 61.6487 57.5199 61.546 57.1092 61.546C56.6986 61.546 56.3159 61.6487 55.9612 61.854C55.6066 62.05 55.3172 62.344 55.0932 62.736C54.8786 63.1187 54.7712 63.576 54.7712 64.108C54.7712 64.64 54.8786 65.1067 55.0932 65.508C55.3172 65.9093 55.6066 66.2173 55.9612 66.432C56.3252 66.6373 56.7079 66.74 57.1092 66.74C57.5199 66.74 57.9026 66.6373 58.2572 66.432C58.6119 66.2267 58.8966 65.928 59.1112 65.536C59.3352 65.1347 59.4472 64.668 59.4472 64.136ZM64.7495 61.406C64.9828 61.014 65.2908 60.7107 65.6735 60.496C66.0655 60.272 66.5275 60.16 67.0595 60.16V61.812H66.6535C66.0282 61.812 65.5522 61.9707 65.2255 62.288C64.9082 62.6053 64.7495 63.156 64.7495 63.94V68H63.1535V60.286H64.7495V61.406ZM71.8726 68.126C71.1446 68.126 70.4866 67.9627 69.8986 67.636C69.3106 67.3 68.8486 66.8333 68.5126 66.236C68.1766 65.6293 68.0086 64.9293 68.0086 64.136C68.0086 63.352 68.1812 62.6567 68.5266 62.05C68.8719 61.4433 69.3432 60.9767 69.9406 60.65C70.5379 60.3233 71.2052 60.16 71.9426 60.16C72.6799 60.16 73.3472 60.3233 73.9446 60.65C74.5419 60.9767 75.0132 61.4433 75.3586 62.05C75.7039 62.6567 75.8766 63.352 75.8766 64.136C75.8766 64.92 75.6992 65.6153 75.3446 66.222C74.9899 66.8287 74.5046 67.3 73.8886 67.636C73.2819 67.9627 72.6099 68.126 71.8726 68.126ZM71.8726 66.74C72.2832 66.74 72.6659 66.642 73.0206 66.446C73.3846 66.25 73.6786 65.956 73.9026 65.564C74.1266 65.172 74.2386 64.696 74.2386 64.136C74.2386 63.576 74.1312 63.1047 73.9166 62.722C73.7019 62.33 73.4172 62.036 73.0626 61.84C72.7079 61.644 72.3252 61.546 71.9146 61.546C71.5039 61.546 71.1212 61.644 70.7666 61.84C70.4212 62.036 70.1459 62.33 69.9406 62.722C69.7352 63.1047 69.6326 63.576 69.6326 64.136C69.6326 64.9667 69.8426 65.6107 70.2626 66.068C70.6919 66.516 71.2286 66.74 71.8726 66.74ZM79.0503 61.42C79.321 61.0653 79.6896 60.7667 80.1563 60.524C80.623 60.2813 81.1503 60.16 81.7383 60.16C82.4103 60.16 83.0216 60.328 83.5723 60.664C84.1323 60.9907 84.571 61.4527 84.8883 62.05C85.2056 62.6473 85.3643 63.3333 85.3643 64.108C85.3643 64.8827 85.2056 65.578 84.8883 66.194C84.571 66.8007 84.1323 67.2767 83.5723 67.622C83.0216 67.958 82.4103 68.126 81.7383 68.126C81.1503 68.126 80.6276 68.0093 80.1703 67.776C79.713 67.5333 79.3396 67.2347 79.0503 66.88V71.668H77.4543V60.286H79.0503V61.42ZM83.7403 64.108C83.7403 63.576 83.6283 63.1187 83.4043 62.736C83.1896 62.344 82.9003 62.05 82.5363 61.854C82.1816 61.6487 81.799 61.546 81.3883 61.546C80.987 61.546 80.6043 61.6487 80.2403 61.854C79.8856 62.0593 79.5963 62.358 79.3723 62.75C79.1576 63.142 79.0503 63.604 79.0503 64.136C79.0503 64.668 79.1576 65.1347 79.3723 65.536C79.5963 65.928 79.8856 66.2267 80.2403 66.432C80.6043 66.6373 80.987 66.74 81.3883 66.74C81.799 66.74 82.1816 66.6373 82.5363 66.432C82.9003 66.2173 83.1896 65.9093 83.4043 65.508C83.6283 65.1067 83.7403 64.64 83.7403 64.108ZM97.5233 60.286L92.7913 71.626H91.1393L92.7073 67.874L89.6693 60.286H91.4473L93.6173 66.166L95.8713 60.286H97.5233ZM102.074 68.126C101.346 68.126 100.688 67.9627 100.1 67.636C99.5117 67.3 99.0497 66.8333 98.7137 66.236C98.3777 65.6293 98.2097 64.9293 98.2097 64.136C98.2097 63.352 98.3824 62.6567 98.7277 62.05C99.0731 61.4433 99.5444 60.9767 100.142 60.65C100.739 60.3233 101.406 60.16 102.144 60.16C102.881 60.16 103.548 60.3233 104.146 60.65C104.743 60.9767 105.214 61.4433 105.56 62.05C105.905 62.6567 106.078 63.352 106.078 64.136C106.078 64.92 105.9 65.6153 105.546 66.222C105.191 66.8287 104.706 67.3 104.09 67.636C103.483 67.9627 102.811 68.126 102.074 68.126ZM102.074 66.74C102.484 66.74 102.867 66.642 103.222 66.446C103.586 66.25 103.88 65.956 104.104 65.564C104.328 65.172 104.44 64.696 104.44 64.136C104.44 63.576 104.332 63.1047 104.118 62.722C103.903 62.33 103.618 62.036 103.264 61.84C102.909 61.644 102.526 61.546 102.116 61.546C101.705 61.546 101.322 61.644 100.968 61.84C100.622 62.036 100.347 62.33 100.142 62.722C99.9364 63.1047 99.8337 63.576 99.8337 64.136C99.8337 64.9667 100.044 65.6107 100.464 66.068C100.893 66.516 101.43 66.74 102.074 66.74ZM114.641 60.286V68H113.045V67.09C112.793 67.4073 112.462 67.6593 112.051 67.846C111.65 68.0233 111.221 68.112 110.763 68.112C110.157 68.112 109.611 67.986 109.125 67.734C108.649 67.482 108.271 67.1087 107.991 66.614C107.721 66.1193 107.585 65.522 107.585 64.822V60.286H109.167V64.584C109.167 65.2747 109.34 65.8067 109.685 66.18C110.031 66.544 110.502 66.726 111.099 66.726C111.697 66.726 112.168 66.544 112.513 66.18C112.868 65.8067 113.045 65.2747 113.045 64.584V60.286H114.641ZM118.343 61.406C118.577 61.014 118.885 60.7107 119.267 60.496C119.659 60.272 120.121 60.16 120.653 60.16V61.812H120.247C119.622 61.812 119.146 61.9707 118.819 62.288C118.502 62.6053 118.343 63.156 118.343 63.94V68H116.747V60.286H118.343V61.406ZM128.991 61.588H127.563V68H125.953V61.588H125.043V60.286H125.953V59.74C125.953 58.8533 126.186 58.2093 126.653 57.808C127.129 57.3973 127.871 57.192 128.879 57.192V58.522C128.394 58.522 128.053 58.6153 127.857 58.802C127.661 58.9793 127.563 59.292 127.563 59.74V60.286H128.991V61.588ZM131.217 59.264C130.928 59.264 130.685 59.166 130.489 58.97C130.293 58.774 130.195 58.5313 130.195 58.242C130.195 57.9527 130.293 57.71 130.489 57.514C130.685 57.318 130.928 57.22 131.217 57.22C131.497 57.22 131.735 57.318 131.931 57.514C132.127 57.71 132.225 57.9527 132.225 58.242C132.225 58.5313 132.127 58.774 131.931 58.97C131.735 59.166 131.497 59.264 131.217 59.264ZM132.001 60.286V68H130.405V60.286H132.001ZM135.693 57.64V68H134.097V57.64H135.693ZM144.858 63.954C144.858 64.2433 144.84 64.5047 144.802 64.738H138.908C138.955 65.354 139.184 65.8487 139.594 66.222C140.005 66.5953 140.509 66.782 141.106 66.782C141.965 66.782 142.572 66.4227 142.926 65.704H144.648C144.415 66.4133 143.99 66.9967 143.374 67.454C142.768 67.902 142.012 68.126 141.106 68.126C140.369 68.126 139.706 67.9627 139.118 67.636C138.54 67.3 138.082 66.8333 137.746 66.236C137.42 65.6293 137.256 64.9293 137.256 64.136C137.256 63.3427 137.415 62.6473 137.732 62.05C138.059 61.4433 138.512 60.9767 139.09 60.65C139.678 60.3233 140.35 60.16 141.106 60.16C141.834 60.16 142.483 60.3187 143.052 60.636C143.622 60.9533 144.065 61.4013 144.382 61.98C144.7 62.5493 144.858 63.2073 144.858 63.954ZM143.192 63.45C143.183 62.862 142.973 62.3907 142.562 62.036C142.152 61.6813 141.643 61.504 141.036 61.504C140.486 61.504 140.014 61.6813 139.622 62.036C139.23 62.3813 138.997 62.8527 138.922 63.45H143.192ZM149.229 68.126C148.622 68.126 148.076 68.0187 147.591 67.804C147.115 67.58 146.737 67.2813 146.457 66.908C146.177 66.5253 146.028 66.1007 146.009 65.634H147.661C147.689 65.9607 147.843 66.236 148.123 66.46C148.412 66.6747 148.772 66.782 149.201 66.782C149.649 66.782 149.994 66.698 150.237 66.53C150.489 66.3527 150.615 66.1287 150.615 65.858C150.615 65.5687 150.475 65.354 150.195 65.214C149.924 65.074 149.49 64.92 148.893 64.752C148.314 64.5933 147.843 64.4393 147.479 64.29C147.115 64.1407 146.798 63.912 146.527 63.604C146.266 63.296 146.135 62.89 146.135 62.386C146.135 61.9753 146.256 61.602 146.499 61.266C146.742 60.9207 147.087 60.65 147.535 60.454C147.992 60.258 148.515 60.16 149.103 60.16C149.98 60.16 150.685 60.384 151.217 60.832C151.758 61.2707 152.048 61.8727 152.085 62.638H150.489C150.461 62.2927 150.321 62.0173 150.069 61.812C149.817 61.6067 149.476 61.504 149.047 61.504C148.627 61.504 148.305 61.5833 148.081 61.742C147.857 61.9007 147.745 62.1107 147.745 62.372C147.745 62.5773 147.82 62.75 147.969 62.89C148.118 63.03 148.3 63.142 148.515 63.226C148.73 63.3007 149.047 63.3987 149.467 63.52C150.027 63.6693 150.484 63.8233 150.839 63.982C151.203 64.1313 151.516 64.3553 151.777 64.654C152.038 64.9527 152.174 65.3493 152.183 65.844C152.183 66.2827 152.062 66.6747 151.819 67.02C151.576 67.3653 151.231 67.636 150.783 67.832C150.344 68.028 149.826 68.126 149.229 68.126ZM161.534 60.16C162.122 60.16 162.645 60.286 163.102 60.538C163.569 60.79 163.933 61.1633 164.194 61.658C164.465 62.1527 164.6 62.75 164.6 63.45V68H163.018V63.688C163.018 62.9973 162.845 62.47 162.5 62.106C162.155 61.7327 161.683 61.546 161.086 61.546C160.489 61.546 160.013 61.7327 159.658 62.106C159.313 62.47 159.14 62.9973 159.14 63.688V68H157.544V57.64H159.14V61.182C159.411 60.8553 159.751 60.6033 160.162 60.426C160.582 60.2487 161.039 60.16 161.534 60.16ZM173.706 63.954C173.706 64.2433 173.687 64.5047 173.65 64.738H167.756C167.803 65.354 168.031 65.8487 168.442 66.222C168.853 66.5953 169.357 66.782 169.954 66.782C170.813 66.782 171.419 66.4227 171.774 65.704H173.496C173.263 66.4133 172.838 66.9967 172.222 67.454C171.615 67.902 170.859 68.126 169.954 68.126C169.217 68.126 168.554 67.9627 167.966 67.636C167.387 67.3 166.93 66.8333 166.594 66.236C166.267 65.6293 166.104 64.9293 166.104 64.136C166.104 63.3427 166.263 62.6473 166.58 62.05C166.907 61.4433 167.359 60.9767 167.938 60.65C168.526 60.3233 169.198 60.16 169.954 60.16C170.682 60.16 171.331 60.3187 171.9 60.636C172.469 60.9533 172.913 61.4013 173.23 61.98C173.547 62.5493 173.706 63.2073 173.706 63.954ZM172.04 63.45C172.031 62.862 171.821 62.3907 171.41 62.036C170.999 61.6813 170.491 61.504 169.884 61.504C169.333 61.504 168.862 61.6813 168.47 62.036C168.078 62.3813 167.845 62.8527 167.77 63.45H172.04ZM176.873 61.406C177.106 61.014 177.414 60.7107 177.797 60.496C178.189 60.272 178.651 60.16 179.183 60.16V61.812H178.777C178.151 61.812 177.675 61.9707 177.349 62.288C177.031 62.6053 176.873 63.156 176.873 63.94V68H175.277V60.286H176.873V61.406ZM187.72 63.954C187.72 64.2433 187.701 64.5047 187.664 64.738H181.77C181.816 65.354 182.045 65.8487 182.456 66.222C182.866 66.5953 183.37 66.782 183.968 66.782C184.826 66.782 185.433 66.4227 185.788 65.704H187.51C187.276 66.4133 186.852 66.9967 186.236 67.454C185.629 67.902 184.873 68.126 183.968 68.126C183.23 68.126 182.568 67.9627 181.98 67.636C181.401 67.3 180.944 66.8333 180.608 66.236C180.281 65.6293 180.118 64.9293 180.118 64.136C180.118 63.3427 180.276 62.6473 180.594 62.05C180.92 61.4433 181.373 60.9767 181.952 60.65C182.54 60.3233 183.212 60.16 183.968 60.16C184.696 60.16 185.344 60.3187 185.914 60.636C186.483 60.9533 186.926 61.4013 187.244 61.98C187.561 62.5493 187.72 63.2073 187.72 63.954ZM186.054 63.45C186.044 62.862 185.834 62.3907 185.424 62.036C185.013 61.6813 184.504 61.504 183.898 61.504C183.347 61.504 182.876 61.6813 182.484 62.036C182.092 62.3813 181.858 62.8527 181.784 63.45H186.054ZM196.273 68.126C195.545 68.126 194.887 67.9627 194.299 67.636C193.711 67.3 193.249 66.8333 192.913 66.236C192.577 65.6293 192.409 64.9293 192.409 64.136C192.409 63.352 192.582 62.6567 192.927 62.05C193.272 61.4433 193.744 60.9767 194.341 60.65C194.938 60.3233 195.606 60.16 196.343 60.16C197.08 60.16 197.748 60.3233 198.345 60.65C198.942 60.9767 199.414 61.4433 199.759 62.05C200.104 62.6567 200.277 63.352 200.277 64.136C200.277 64.92 200.1 65.6153 199.745 66.222C199.39 66.8287 198.905 67.3 198.289 67.636C197.682 67.9627 197.01 68.126 196.273 68.126ZM196.273 66.74C196.684 66.74 197.066 66.642 197.421 66.446C197.785 66.25 198.079 65.956 198.303 65.564C198.527 65.172 198.639 64.696 198.639 64.136C198.639 63.576 198.532 63.1047 198.317 62.722C198.102 62.33 197.818 62.036 197.463 61.84C197.108 61.644 196.726 61.546 196.315 61.546C195.904 61.546 195.522 61.644 195.167 61.84C194.822 62.036 194.546 62.33 194.341 62.722C194.136 63.1047 194.033 63.576 194.033 64.136C194.033 64.9667 194.243 65.6107 194.663 66.068C195.092 66.516 195.629 66.74 196.273 66.74ZM203.451 61.406C203.684 61.014 203.992 60.7107 204.375 60.496C204.767 60.272 205.229 60.16 205.761 60.16V61.812H205.355C204.729 61.812 204.253 61.9707 203.927 62.288C203.609 62.6053 203.451 63.156 203.451 63.94V68H201.855V60.286H203.451V61.406Z" fill="#242424"/>
<path d="M210.332 64.136C210.332 63.3427 210.491 62.6473 210.808 62.05C211.135 61.4433 211.583 60.9767 212.152 60.65C212.722 60.3233 213.375 60.16 214.112 60.16C215.046 60.16 215.816 60.384 216.422 60.832C217.038 61.2707 217.454 61.9007 217.668 62.722H215.946C215.806 62.3393 215.582 62.0407 215.274 61.826C214.966 61.6113 214.579 61.504 214.112 61.504C213.459 61.504 212.936 61.7373 212.544 62.204C212.162 62.6613 211.97 63.3053 211.97 64.136C211.97 64.9667 212.162 65.6153 212.544 66.082C212.936 66.5487 213.459 66.782 214.112 66.782C215.036 66.782 215.648 66.376 215.946 65.564H217.668C217.444 66.348 217.024 66.9733 216.408 67.44C215.792 67.8973 215.027 68.126 214.112 68.126C213.375 68.126 212.722 67.9627 212.152 67.636C211.583 67.3 211.135 66.8333 210.808 66.236C210.491 65.6293 210.332 64.9293 210.332 64.136ZM223.249 60.16C223.837 60.16 224.36 60.286 224.817 60.538C225.284 60.79 225.648 61.1633 225.909 61.658C226.18 62.1527 226.315 62.75 226.315 63.45V68H224.733V63.688C224.733 62.9973 224.56 62.47 224.215 62.106C223.87 61.7327 223.398 61.546 222.801 61.546C222.204 61.546 221.728 61.7327 221.373 62.106C221.028 62.47 220.855 62.9973 220.855 63.688V68H219.259V57.64H220.855V61.182C221.126 60.8553 221.466 60.6033 221.877 60.426C222.297 60.2487 222.754 60.16 223.249 60.16ZM231.697 68.126C230.969 68.126 230.311 67.9627 229.723 67.636C229.135 67.3 228.673 66.8333 228.337 66.236C228.001 65.6293 227.833 64.9293 227.833 64.136C227.833 63.352 228.005 62.6567 228.351 62.05C228.696 61.4433 229.167 60.9767 229.765 60.65C230.362 60.3233 231.029 60.16 231.767 60.16C232.504 60.16 233.171 60.3233 233.769 60.65C234.366 60.9767 234.837 61.4433 235.183 62.05C235.528 62.6567 235.701 63.352 235.701 64.136C235.701 64.92 235.523 65.6153 235.169 66.222C234.814 66.8287 234.329 67.3 233.713 67.636C233.106 67.9627 232.434 68.126 231.697 68.126ZM231.697 66.74C232.107 66.74 232.49 66.642 232.845 66.446C233.209 66.25 233.503 65.956 233.727 65.564C233.951 65.172 234.063 64.696 234.063 64.136C234.063 63.576 233.955 63.1047 233.741 62.722C233.526 62.33 233.241 62.036 232.887 61.84C232.532 61.644 232.149 61.546 231.739 61.546C231.328 61.546 230.945 61.644 230.591 61.84C230.245 62.036 229.97 62.33 229.765 62.722C229.559 63.1047 229.457 63.576 229.457 64.136C229.457 64.9667 229.667 65.6107 230.087 66.068C230.516 66.516 231.053 66.74 231.697 66.74ZM240.625 68.126C239.897 68.126 239.239 67.9627 238.651 67.636C238.063 67.3 237.601 66.8333 237.265 66.236C236.929 65.6293 236.761 64.9293 236.761 64.136C236.761 63.352 236.933 62.6567 237.279 62.05C237.624 61.4433 238.095 60.9767 238.693 60.65C239.29 60.3233 239.957 60.16 240.695 60.16C241.432 60.16 242.099 60.3233 242.697 60.65C243.294 60.9767 243.765 61.4433 244.111 62.05C244.456 62.6567 244.629 63.352 244.629 64.136C244.629 64.92 244.451 65.6153 244.097 66.222C243.742 66.8287 243.257 67.3 242.641 67.636C242.034 67.9627 241.362 68.126 240.625 68.126ZM240.625 66.74C241.035 66.74 241.418 66.642 241.773 66.446C242.137 66.25 242.431 65.956 242.655 65.564C242.879 65.172 242.991 64.696 242.991 64.136C242.991 63.576 242.883 63.1047 242.669 62.722C242.454 62.33 242.169 62.036 241.815 61.84C241.46 61.644 241.077 61.546 240.667 61.546C240.256 61.546 239.873 61.644 239.519 61.84C239.173 62.036 238.898 62.33 238.693 62.722C238.487 63.1047 238.385 63.576 238.385 64.136C238.385 64.9667 238.595 65.6107 239.015 66.068C239.444 66.516 239.981 66.74 240.625 66.74ZM249.006 68.126C248.4 68.126 247.854 68.0187 247.368 67.804C246.892 67.58 246.514 67.2813 246.234 66.908C245.954 66.5253 245.805 66.1007 245.786 65.634H247.438C247.466 65.9607 247.62 66.236 247.9 66.46C248.19 66.6747 248.549 66.782 248.978 66.782C249.426 66.782 249.772 66.698 250.014 66.53C250.266 66.3527 250.392 66.1287 250.392 65.858C250.392 65.5687 250.252 65.354 249.972 65.214C249.702 65.074 249.268 64.92 248.67 64.752C248.092 64.5933 247.62 64.4393 247.256 64.29C246.892 64.1407 246.575 63.912 246.304 63.604C246.043 63.296 245.912 62.89 245.912 62.386C245.912 61.9753 246.034 61.602 246.276 61.266C246.519 60.9207 246.864 60.65 247.312 60.454C247.77 60.258 248.292 60.16 248.88 60.16C249.758 60.16 250.462 60.384 250.994 60.832C251.536 61.2707 251.825 61.8727 251.862 62.638H250.266C250.238 62.2927 250.098 62.0173 249.846 61.812C249.594 61.6067 249.254 61.504 248.824 61.504C248.404 61.504 248.082 61.5833 247.858 61.742C247.634 61.9007 247.522 62.1107 247.522 62.372C247.522 62.5773 247.597 62.75 247.746 62.89C247.896 63.03 248.078 63.142 248.292 63.226C248.507 63.3007 248.824 63.3987 249.244 63.52C249.804 63.6693 250.262 63.8233 250.616 63.982C250.98 64.1313 251.293 64.3553 251.554 64.654C251.816 64.9527 251.951 65.3493 251.96 65.844C251.96 66.2827 251.839 66.6747 251.596 67.02C251.354 67.3653 251.008 67.636 250.56 67.832C250.122 68.028 249.604 68.126 249.006 68.126ZM260.755 63.954C260.755 64.2433 260.736 64.5047 260.699 64.738H254.805C254.851 65.354 255.08 65.8487 255.491 66.222C255.901 66.5953 256.405 66.782 257.003 66.782C257.861 66.782 258.468 66.4227 258.823 65.704H260.545C260.311 66.4133 259.887 66.9967 259.271 67.454C258.664 67.902 257.908 68.126 257.003 68.126C256.265 68.126 255.603 67.9627 255.015 67.636C254.436 67.3 253.979 66.8333 253.643 66.236C253.316 65.6293 253.153 64.9293 253.153 64.136C253.153 63.3427 253.311 62.6473 253.629 62.05C253.955 61.4433 254.408 60.9767 254.987 60.65C255.575 60.3233 256.247 60.16 257.003 60.16C257.731 60.16 258.379 60.3187 258.949 60.636C259.518 60.9533 259.961 61.4013 260.279 61.98C260.596 62.5493 260.755 63.2073 260.755 63.954ZM259.089 63.45C259.079 62.862 258.869 62.3907 258.459 62.036C258.048 61.6813 257.539 61.504 256.933 61.504C256.382 61.504 255.911 61.6813 255.519 62.036C255.127 62.3813 254.893 62.8527 254.819 63.45H259.089ZM269.196 61.588H267.768V68H266.158V61.588H265.248V60.286H266.158V59.74C266.158 58.8533 266.391 58.2093 266.858 57.808C267.334 57.3973 268.076 57.192 269.084 57.192V58.522C268.599 58.522 268.258 58.6153 268.062 58.802C267.866 58.9793 267.768 59.292 267.768 59.74V60.286H269.196V61.588ZM271.423 59.264C271.133 59.264 270.891 59.166 270.695 58.97C270.499 58.774 270.401 58.5313 270.401 58.242C270.401 57.9527 270.499 57.71 270.695 57.514C270.891 57.318 271.133 57.22 271.423 57.22C271.703 57.22 271.941 57.318 272.137 57.514C272.333 57.71 272.431 57.9527 272.431 58.242C272.431 58.5313 272.333 58.774 272.137 58.97C271.941 59.166 271.703 59.264 271.423 59.264ZM272.207 60.286V68H270.611V60.286H272.207ZM275.898 57.64V68H274.302V57.64H275.898ZM285.063 63.954C285.063 64.2433 285.045 64.5047 285.007 64.738H279.113C279.16 65.354 279.389 65.8487 279.799 66.222C280.21 66.5953 280.714 66.782 281.311 66.782C282.17 66.782 282.777 66.4227 283.131 65.704H284.853C284.62 66.4133 284.195 66.9967 283.579 67.454C282.973 67.902 282.217 68.126 281.311 68.126C280.574 68.126 279.911 67.9627 279.323 67.636C278.745 67.3 278.287 66.8333 277.951 66.236C277.625 65.6293 277.461 64.9293 277.461 64.136C277.461 63.3427 277.62 62.6473 277.937 62.05C278.264 61.4433 278.717 60.9767 279.295 60.65C279.883 60.3233 280.555 60.16 281.311 60.16C282.039 60.16 282.688 60.3187 283.257 60.636C283.827 60.9533 284.27 61.4013 284.587 61.98C284.905 62.5493 285.063 63.2073 285.063 63.954ZM283.397 63.45C283.388 62.862 283.178 62.3907 282.767 62.036C282.357 61.6813 281.848 61.504 281.241 61.504C280.691 61.504 280.219 61.6813 279.827 62.036C279.435 62.3813 279.202 62.8527 279.127 63.45H283.397Z" fill="#0370F2"/>
<path d="M209.814 69.4H285.581V70.1H209.814V69.4Z" fill="#0370F2"/>
</svg>
