<svg width="374" height="100" viewBox="0 0 374 100" fill="none" xmlns="http://www.w3.org/2000/svg">
<rect width="374" height="100" rx="8" fill="white"/>
<path d="M189.265 43.9372L187.547 42.2342C186.758 41.4514 186.363 41.0601 185.909 40.9133C185.509 40.7841 185.079 40.7841 184.679 40.9133C184.225 41.0601 183.83 41.4514 183.041 42.2342L179.042 46.2618M189.265 43.9372L189.606 43.5987C190.412 42.7995 190.815 42.3999 191.277 42.2541C191.684 42.1258 192.121 42.1308 192.524 42.2684C192.983 42.4248 193.377 42.8336 194.164 43.6511L195 44.4997M189.265 43.9372L193.22 47.9624M182.201 32H191.801C192.921 32 193.481 32 193.909 32.218C194.285 32.4097 194.591 32.7157 194.783 33.092C195.001 33.5198 195.001 34.0799 195.001 35.2V44.8C195.001 45.9201 195.001 46.4802 194.783 46.908C194.591 47.2843 194.285 47.5903 193.909 47.782C193.481 48 192.921 48 191.801 48H182.201C181.081 48 180.521 48 180.093 47.782C179.717 47.5903 179.411 47.2843 179.219 46.908C179.001 46.4802 179.001 45.9201 179.001 44.8V35.2C179.001 34.0799 179.001 33.5198 179.219 33.092C179.411 32.7157 179.717 32.4097 180.093 32.218C180.521 32 181.081 32 182.201 32ZM192.001 37C192.001 38.1046 191.106 39 190.001 39C188.896 39 188.001 38.1046 188.001 37C188.001 35.8954 188.896 35 190.001 35C191.106 35 192.001 35.8954 192.001 37Z" stroke="#0370F2" stroke-width="1.5" stroke-linecap="round" stroke-linejoin="round"/>
<path d="M164.757 66.2701V72.4721C164.757 73.2094 164.948 73.7647 165.331 74.1381C165.723 74.5114 166.264 74.6981 166.955 74.6981C167.655 74.6981 168.196 74.5114 168.579 74.1381C168.971 73.7647 169.167 73.2094 169.167 72.4721V66.2701H170.763V72.4441C170.763 73.2374 170.59 73.9094 170.245 74.4601C169.9 75.0107 169.438 75.4214 168.859 75.6921C168.28 75.9627 167.641 76.0981 166.941 76.0981C166.241 76.0981 165.602 75.9627 165.023 75.6921C164.454 75.4214 164.001 75.0107 163.665 74.4601C163.329 73.9094 163.161 73.2374 163.161 72.4441V66.2701H164.757ZM174.437 69.4201C174.708 69.0654 175.076 68.7667 175.543 68.5241C176.01 68.2814 176.537 68.1601 177.125 68.1601C177.797 68.1601 178.408 68.3281 178.959 68.6641C179.519 68.9907 179.958 69.4527 180.275 70.0501C180.592 70.6474 180.751 71.3334 180.751 72.1081C180.751 72.8827 180.592 73.5781 180.275 74.1941C179.958 74.8007 179.519 75.2767 178.959 75.6221C178.408 75.9581 177.797 76.1261 177.125 76.1261C176.537 76.1261 176.014 76.0094 175.557 75.7761C175.1 75.5334 174.726 75.2347 174.437 74.8801V79.6681H172.841V68.2861H174.437V69.4201ZM179.127 72.1081C179.127 71.5761 179.015 71.1187 178.791 70.7361C178.576 70.3441 178.287 70.0501 177.923 69.8541C177.568 69.6487 177.186 69.5461 176.775 69.5461C176.374 69.5461 175.991 69.6487 175.627 69.8541C175.272 70.0594 174.983 70.3581 174.759 70.7501C174.544 71.1421 174.437 71.6041 174.437 72.1361C174.437 72.6681 174.544 73.1347 174.759 73.5361C174.983 73.9281 175.272 74.2267 175.627 74.4321C175.991 74.6374 176.374 74.7401 176.775 74.7401C177.186 74.7401 177.568 74.6374 177.923 74.4321C178.287 74.2174 178.576 73.9094 178.791 73.5081C179.015 73.1067 179.127 72.6401 179.127 72.1081ZM183.925 65.6401V76.0001H182.329V65.6401H183.925ZM189.367 76.1261C188.639 76.1261 187.981 75.9627 187.393 75.6361C186.805 75.3001 186.343 74.8334 186.007 74.2361C185.671 73.6294 185.503 72.9294 185.503 72.1361C185.503 71.3521 185.675 70.6567 186.021 70.0501C186.366 69.4434 186.837 68.9767 187.435 68.6501C188.032 68.3234 188.699 68.1601 189.437 68.1601C190.174 68.1601 190.841 68.3234 191.439 68.6501C192.036 68.9767 192.507 69.4434 192.853 70.0501C193.198 70.6567 193.371 71.3521 193.371 72.1361C193.371 72.9201 193.193 73.6154 192.839 74.2221C192.484 74.8287 191.999 75.3001 191.383 75.6361C190.776 75.9627 190.104 76.1261 189.367 76.1261ZM189.367 74.7401C189.777 74.7401 190.16 74.6421 190.515 74.4461C190.879 74.2501 191.173 73.9561 191.397 73.5641C191.621 73.1721 191.733 72.6961 191.733 72.1361C191.733 71.5761 191.625 71.1047 191.411 70.7221C191.196 70.3301 190.911 70.0361 190.557 69.8401C190.202 69.6441 189.819 69.5461 189.409 69.5461C188.998 69.5461 188.615 69.6441 188.261 69.8401C187.915 70.0361 187.64 70.3301 187.435 70.7221C187.229 71.1047 187.127 71.5761 187.127 72.1361C187.127 72.9667 187.337 73.6107 187.757 74.0681C188.186 74.5161 188.723 74.7401 189.367 74.7401ZM194.416 72.1081C194.416 71.3334 194.575 70.6474 194.892 70.0501C195.219 69.4527 195.658 68.9907 196.208 68.6641C196.768 68.3281 197.384 68.1601 198.056 68.1601C198.663 68.1601 199.19 68.2814 199.638 68.5241C200.096 68.7574 200.46 69.0514 200.73 69.4061V68.2861H202.34V76.0001H200.73V74.8521C200.46 75.2161 200.091 75.5194 199.624 75.7621C199.158 76.0047 198.626 76.1261 198.028 76.1261C197.366 76.1261 196.759 75.9581 196.208 75.6221C195.658 75.2767 195.219 74.8007 194.892 74.1941C194.575 73.5781 194.416 72.8827 194.416 72.1081ZM200.73 72.1361C200.73 71.6041 200.618 71.1421 200.394 70.7501C200.18 70.3581 199.895 70.0594 199.54 69.8541C199.186 69.6487 198.803 69.5461 198.392 69.5461C197.982 69.5461 197.599 69.6487 197.244 69.8541C196.89 70.0501 196.6 70.3441 196.376 70.7361C196.162 71.1187 196.054 71.5761 196.054 72.1081C196.054 72.6401 196.162 73.1067 196.376 73.5081C196.6 73.9094 196.89 74.2174 197.244 74.4321C197.608 74.6374 197.991 74.7401 198.392 74.7401C198.803 74.7401 199.186 74.6374 199.54 74.4321C199.895 74.2267 200.18 73.9281 200.394 73.5361C200.618 73.1347 200.73 72.6681 200.73 72.1361ZM203.905 72.1081C203.905 71.3334 204.063 70.6474 204.381 70.0501C204.707 69.4527 205.146 68.9907 205.697 68.6641C206.257 68.3281 206.877 68.1601 207.559 68.1601C208.063 68.1601 208.557 68.2721 209.043 68.4961C209.537 68.7107 209.929 69.0001 210.219 69.3641V65.6401H211.829V76.0001H210.219V74.8381C209.957 75.2114 209.593 75.5194 209.127 75.7621C208.669 76.0047 208.142 76.1261 207.545 76.1261C206.873 76.1261 206.257 75.9581 205.697 75.6221C205.146 75.2767 204.707 74.8007 204.381 74.1941C204.063 73.5781 203.905 72.8827 203.905 72.1081ZM210.219 72.1361C210.219 71.6041 210.107 71.1421 209.883 70.7501C209.668 70.3581 209.383 70.0594 209.029 69.8541C208.674 69.6487 208.291 69.5461 207.881 69.5461C207.47 69.5461 207.087 69.6487 206.733 69.8541C206.378 70.0501 206.089 70.3441 205.865 70.7361C205.65 71.1187 205.543 71.5761 205.543 72.1081C205.543 72.6401 205.65 73.1067 205.865 73.5081C206.089 73.9094 206.378 74.2174 206.733 74.4321C207.097 74.6374 207.479 74.7401 207.881 74.7401C208.291 74.7401 208.674 74.6374 209.029 74.4321C209.383 74.2267 209.668 73.9281 209.883 73.5361C210.107 73.1347 210.219 72.6681 210.219 72.1361Z" fill="#0370F2"/>
<path d="M162.125 77.4001H212.879V78.1001H162.125V77.4001Z" fill="#0370F2"/>
</svg>
