<svg width="22" height="22" viewBox="0 0 22 22" fill="none" xmlns="http://www.w3.org/2000/svg">
<path d="M11 6.27441V9.10491" stroke="#949494" stroke-width="1.5" stroke-miterlimit="10" stroke-linecap="round"/>
<path d="M11.0173 2.50098C7.88926 2.50098 5.35625 5.03398 5.35625 8.16198V9.94698C5.35625 10.525 5.11825 11.392 4.82075 11.885L3.74125 13.687C3.07825 14.8005 3.53725 16.0415 4.76125 16.4495C8.82425 17.801 13.2188 17.801 17.2818 16.4495C18.4293 16.067 18.9223 14.724 18.3018 13.687L17.2223 11.885C16.9248 11.392 16.6868 10.5165 16.6868 9.94698V8.16198C16.6783 5.05098 14.1283 2.50098 11.0173 2.50098Z" stroke="#949494" stroke-width="1.5" stroke-miterlimit="10" stroke-linecap="round"/>
<path d="M13.8309 16.7979C13.8309 18.3534 12.5559 19.6284 11.0004 19.6284C10.2269 19.6284 9.51292 19.3054 9.00292 18.7954C8.49292 18.2854 8.16992 17.5714 8.16992 16.7979" stroke="#949494" stroke-width="1.5" stroke-miterlimit="10"/>
</svg>
