<svg width="16" height="23" viewBox="0 0 16 23" fill="none" xmlns="http://www.w3.org/2000/svg">
<ellipse cx="8" cy="22" rx="4" ry="1" fill="black" fill-opacity="0.24"/>
<path d="M16 8C16 12.4183 10 22 8 22C6 22 0 12.4183 0 8C0 3.58172 3.58172 0 8 0C12.4183 0 16 3.58172 16 8Z" fill="#0370F2"/>
<path d="M12.6563 6.05723C12.5247 5.83043 12.2811 5.69043 12.0179 5.69043H10.1363C9.7303 5.69043 9.3999 6.02083 9.3999 6.42683V8.21323C9.3999 8.39523 9.2515 8.54643 9.0667 8.54643H5.2307C5.0347 8.54643 4.8471 8.60243 4.6819 8.70323L2.3243 9.97163L2.3075 9.98003C2.1507 10.0808 2.0583 10.2516 2.0611 10.4392L2.0695 11.1448C2.0723 11.436 2.3131 11.674 2.6043 11.674H3.3155C3.4079 12.4524 4.0715 13.0572 4.8751 13.0572C5.6619 13.0572 6.3143 12.4748 6.4291 11.7216H9.1535C9.2683 12.4776 9.9207 13.0572 10.7075 13.0572C11.5391 13.0572 12.2223 12.4076 12.2755 11.59H13.3703C13.8071 11.59 14.1627 11.2344 14.1627 10.7976V8.87123C14.1627 8.73123 14.1263 8.59403 14.0563 8.47363L12.6563 6.05723ZM4.8751 12.5868C4.2675 12.5868 3.7719 12.0912 3.7719 11.4836C3.7719 10.876 4.2675 10.3804 4.8751 10.3804C5.4827 10.3804 5.9783 10.876 5.9783 11.4836C5.9783 12.0912 5.4827 12.5868 4.8751 12.5868ZM10.7075 12.5868C10.0999 12.5868 9.6043 12.0912 9.6043 11.4836C9.6043 10.876 10.0999 10.3804 10.7075 10.3804C11.3151 10.3804 11.8107 10.876 11.8107 11.4836C11.8107 12.0912 11.3151 12.5868 10.7075 12.5868ZM13.6951 10.7948C13.6951 10.974 13.5495 11.1168 13.3731 11.1168H12.2363C12.0711 10.4252 11.4495 9.91283 10.7075 9.91283C9.9207 9.91283 9.2683 10.4952 9.1535 11.2484H6.4291C6.3143 10.4924 5.6619 9.91283 4.8751 9.91283C4.1051 9.91283 3.4611 10.47 3.3295 11.2036H2.6043C2.5679 11.2036 2.5371 11.1728 2.5371 11.1364L2.5287 10.4308C2.5287 10.4084 2.5371 10.3888 2.5539 10.3776L4.9087 9.11203L4.9227 9.10363C5.0151 9.04483 5.1187 9.01403 5.2279 9.01403H9.0639C9.5063 9.01403 9.8647 8.65563 9.8647 8.21323V6.42683C9.8647 6.27843 9.9851 6.15803 10.1335 6.15803H12.0151C12.1103 6.15803 12.1999 6.20843 12.2475 6.29243L13.6475 8.70603C13.6755 8.75643 13.6923 8.81243 13.6923 8.86843V10.7948H13.6951Z" fill="white"/>
<path d="M12.0376 6.634L12.0264 6.6172C11.9396 6.4828 11.794 6.4044 11.6428 6.4044H11.64L10.6964 6.3988C10.4668 6.4016 10.282 6.5976 10.2792 6.8356L10.2568 8.4848C10.2568 8.7284 10.4444 8.9244 10.6768 8.9244H12.4352C12.6648 8.9244 12.8524 8.7284 12.8524 8.4848V8.272C12.8524 8.1852 12.83 8.104 12.7852 8.0312L12.0376 6.634ZM10.73 8.454L10.7496 6.8636L11.6316 6.8692L12.382 8.2664L12.3848 8.4512H10.73V8.454ZM2.56241 4.9568C2.45041 4.926 2.33281 4.9512 2.23761 5.0212C2.14241 5.094 2.08921 5.2032 2.08921 5.3208V5.738C2.08921 5.8892 2.17881 6.0264 2.31881 6.0852L8.31921 8.2888C8.36401 8.3084 8.41161 8.3168 8.46201 8.3168H8.86521C9.07241 8.3168 9.24321 8.146 9.24321 7.9388V6.8244C9.24321 6.6536 9.12841 6.5052 8.96601 6.4604L2.56241 4.9568ZM8.77281 7.8464H8.47601L2.55681 5.6736V5.4356L8.77281 6.8944V7.8464ZM2.83121 9.1484C2.94601 9.126 3.01321 9.0588 2.99361 8.8824C2.97401 8.7088 2.79761 8.7228 2.79761 8.7228C2.71641 8.7284 2.46441 8.7648 2.33841 8.6472C2.30481 8.6136 2.25721 8.5548 2.26001 8.426C2.26841 8.0564 2.54561 8.0256 2.63241 8.0256C2.63241 8.0256 2.63241 8.0256 2.63521 8.0256L2.73601 8.0284C2.80041 8.0312 2.85361 7.978 2.85361 7.9164V6.62C2.85361 6.5584 2.80321 6.508 2.74161 6.508H2.54281C2.48121 6.508 2.43081 6.5584 2.43081 6.62V7.5412C2.43081 7.5888 2.40281 7.6336 2.35521 7.6504C2.26561 7.6812 2.16481 7.7344 2.07801 7.8184C1.92401 7.964 1.84281 8.1656 1.83721 8.4148C1.83161 8.6332 1.90441 8.8208 2.04721 8.9552C2.27401 9.168 2.60161 9.1484 2.75561 9.1484C2.79481 9.1512 2.82001 9.1484 2.83121 9.1484Z" fill="white"/>
</svg>
