<svg width="44" height="44" viewBox="0 0 44 44" fill="none" xmlns="http://www.w3.org/2000/svg">
<rect width="44" height="44" rx="4" fill="#F5F7F9"/>
<path fill-rule="evenodd" clip-rule="evenodd" d="M15.9205 27.0419L14.4941 25.6154C14.4247 25.5462 14.3371 25.4979 14.2415 25.4761C14.1459 25.4543 14.0461 25.4599 13.9536 25.4923C13.6341 25.6037 13.2897 25.6227 12.9599 25.5473C12.6301 25.4719 12.3282 25.3051 12.0889 25.066C11.7715 24.7494 11.5844 24.3253 11.5645 23.8775L11.708 24.0205C11.8305 24.1475 11.9771 24.2488 12.1392 24.3185C12.3013 24.3883 12.4756 24.425 12.6521 24.4266C12.8286 24.4282 13.0036 24.3946 13.1669 24.3278C13.3302 24.261 13.4786 24.1624 13.6034 24.0376C13.7282 23.9128 13.8268 23.7644 13.8936 23.6011C13.9604 23.4377 13.994 23.2627 13.9924 23.0863C13.9908 22.9098 13.9541 22.7355 13.8843 22.5734C13.8146 22.4113 13.7133 22.2647 13.5863 22.1422L13.4433 21.9992C13.8911 22.0188 14.3153 22.2057 14.6318 22.5231C14.8709 22.7624 15.0378 23.0643 15.1132 23.3941C15.1885 23.7239 15.1695 24.0683 15.0581 24.3878C15.0259 24.4803 15.0205 24.58 15.0423 24.6755C15.0642 24.771 15.1125 24.8584 15.1817 24.9278L16.9332 26.6787C17.0316 26.7738 17.1634 26.8263 17.3002 26.8252C17.437 26.824 17.5679 26.7691 17.6646 26.6724C17.7614 26.5756 17.8162 26.4448 17.8174 26.308C17.8186 26.1712 17.766 26.0394 17.671 25.941L16.135 24.405C16.2376 23.9393 16.2212 23.4552 16.0875 22.9975C15.9537 22.5397 15.7068 22.123 15.3696 21.7858C14.9593 21.3758 14.4334 21.1011 13.8624 20.9985C13.2915 20.8959 12.7029 20.9704 12.1755 21.2119C12.0988 21.2468 12.0318 21.2997 11.9801 21.3662C11.9284 21.4326 11.8936 21.5107 11.8788 21.5935C11.8639 21.6764 11.8693 21.7617 11.8947 21.8419C11.92 21.9222 11.9644 21.9952 12.0242 22.0545L12.8485 22.8794C12.9009 22.9331 12.9299 23.0053 12.9295 23.0803C12.929 23.1553 12.899 23.2271 12.846 23.2802C12.793 23.3333 12.7212 23.3633 12.6462 23.3639C12.5712 23.3645 12.499 23.3355 12.4452 23.2832L11.6209 22.4578C11.5614 22.3983 11.4884 22.3541 11.4081 22.3289C11.3278 22.3037 11.2426 22.2984 11.1598 22.3132C11.0769 22.3281 10.9989 22.3628 10.9324 22.4143C10.8659 22.4658 10.8128 22.5327 10.7777 22.6091C10.5361 23.1366 10.4615 23.7253 10.5641 24.2964C10.6667 24.8674 10.9415 25.3934 11.3516 25.8038C11.6888 26.141 12.1055 26.3879 12.5633 26.5216C13.021 26.6554 13.5051 26.6718 13.9708 26.5692L15.1817 27.7796C15.2805 27.8724 15.4115 27.923 15.547 27.9209C15.6825 27.9188 15.8119 27.8641 15.9077 27.7683C16.0036 27.6725 16.0584 27.5432 16.0606 27.4077C16.0628 27.2722 16.0132 27.1407 15.9205 27.0419ZM28.8138 27.7796L30.0248 26.5692C30.4907 26.6719 30.975 26.6555 31.4329 26.5217C31.8909 26.3878 32.3077 26.1407 32.6449 25.8032C33.055 25.3929 33.3297 24.867 33.4323 24.2961C33.5349 23.7252 33.4604 23.1365 33.2189 22.6091C33.184 22.5324 33.1311 22.4653 33.0646 22.4135C32.9981 22.3618 32.92 22.3269 32.837 22.312C32.7541 22.2972 32.6687 22.3027 32.5884 22.3281C32.508 22.3534 32.435 22.398 32.3757 22.4578L31.5503 23.2822C31.496 23.3311 31.425 23.3573 31.352 23.3555C31.2789 23.3536 31.2093 23.3237 31.1576 23.2721C31.1059 23.2204 31.076 23.1509 31.074 23.0779C31.072 23.0048 31.0982 22.9338 31.147 22.8794L31.9719 22.054C32.0313 21.9945 32.0754 21.9215 32.1005 21.8413C32.1256 21.7611 32.131 21.676 32.1161 21.5932C32.1013 21.5105 32.0667 21.4325 32.0152 21.3661C31.9637 21.2996 31.897 21.2465 31.8206 21.2114C31.2932 20.9698 30.7046 20.8954 30.1336 20.9979C29.5627 21.1005 29.0368 21.3753 28.6265 21.7853C28.2893 22.1225 28.0424 22.5392 27.9086 22.9969C27.7748 23.4547 27.7585 23.9387 27.8611 24.4045L26.3251 25.9405C26.2301 26.0389 26.1775 26.1707 26.1787 26.3075C26.1798 26.4443 26.2347 26.5751 26.3314 26.6718C26.4282 26.7686 26.559 26.8235 26.6958 26.8246C26.8326 26.8258 26.9644 26.7732 27.0628 26.6782L28.8138 24.9272C28.8831 24.858 28.9315 24.7706 28.9535 24.6751C28.9755 24.5796 28.9701 24.4798 28.938 24.3872C28.8266 24.0678 28.8075 23.7234 28.8829 23.3936C28.9583 23.0638 29.1251 22.7619 29.3642 22.5225C29.6808 22.2051 30.1049 22.018 30.5528 21.9982L30.4093 22.1417C30.2845 22.2647 30.1854 22.4112 30.1175 22.5728C30.0496 22.7343 30.0144 22.9077 30.0138 23.0829C30.0132 23.2581 30.0473 23.4317 30.1141 23.5937C30.1809 23.7557 30.279 23.9029 30.403 24.0268C30.5269 24.1507 30.6741 24.2488 30.8361 24.3155C30.9981 24.3823 31.1717 24.4163 31.3469 24.4157C31.5222 24.4151 31.6955 24.3798 31.857 24.3118C32.0186 24.2439 32.1651 24.1447 32.2881 24.0199L32.431 23.8775C32.4113 24.3251 32.2244 24.7491 31.9072 25.0655C31.6679 25.3046 31.366 25.4714 31.0361 25.5468C30.7063 25.6222 30.362 25.6031 30.0425 25.4918C29.9499 25.4597 29.8501 25.4543 29.7546 25.4762C29.6591 25.4982 29.5718 25.5466 29.5025 25.6159L28.0771 27.0419C27.9843 27.1406 27.9336 27.2716 27.9357 27.4071C27.9379 27.5426 27.9926 27.672 28.0884 27.7678C28.1842 27.8637 28.3135 27.9185 28.449 27.9207C28.5844 27.9229 28.7149 27.8723 28.8138 27.7796Z" fill="#C8553D"/>
<path d="M28.2613 20.4721L28.2612 20.4721L28.2569 20.4722C28.2533 20.4723 28.2484 20.4723 28.2422 20.4721C28.23 20.4718 28.2128 20.4706 28.1908 20.4677L28.1846 20.4673L28.1756 20.4667L28.1758 20.4659L28.1721 20.465L28.1673 20.4643L28.1662 20.4641L28.1662 20.4641C24.0829 19.7836 19.9152 19.7836 15.8319 20.4641C15.8018 20.4691 15.7784 20.4712 15.7621 20.4719C15.7539 20.4723 15.7475 20.4723 15.7429 20.4723L15.7374 20.4721L15.7357 20.472L15.735 20.472L15.7348 20.472L15.7347 20.472L15.7346 20.472L15.7346 20.472L15.7382 20.4221V20.4721C15.5376 20.4721 15.3506 20.367 15.2476 20.1942C15.1967 20.1096 15.1687 20.0132 15.1662 19.9145C15.1637 19.8158 15.1868 19.7182 15.2333 19.6311L28.2613 20.4721ZM28.2613 20.4721C28.4609 20.4716 28.6472 20.3666 28.75 20.1942L28.2613 20.4721ZM27.2967 17.0029L27.3319 16.9448L27.3733 17.0224L28.7642 19.631L28.7642 19.6311L28.7201 19.6546C28.7626 19.7341 28.7837 19.8232 28.7814 19.9133L27.2967 17.0029ZM27.2967 17.0029C27.2919 16.9758 27.2838 16.9493 27.2718 16.924C27.2271 16.8299 27.134 16.7638 26.988 16.7325L26.988 16.7325C23.6992 16.0277 20.2984 16.0277 17.0096 16.7325L17.0305 16.8303C17.079 16.8199 17.1166 16.8136 17.145 16.8104M27.2967 17.0029L17.145 16.8104M17.145 16.8104C17.1176 16.8306 17.0816 16.8534 17.0408 16.8767C16.9512 16.9277 16.8441 16.978 16.7659 17.0053C16.725 17.0196 16.6986 17.0251 16.6873 17.025C16.687 17.025 16.6867 17.025 16.6865 17.025M17.145 16.8104L16.6848 17.0249C16.6849 17.0248 16.6855 17.0248 16.6865 17.025M16.6865 17.025C16.6903 17.0257 16.6998 17.0287 16.7073 17.0398C16.7164 17.053 16.7143 17.0648 16.7129 17.0694M16.6865 17.025L16.7129 17.0694M16.7129 17.0694L16.6249 17.0223C16.6248 17.0224 16.6248 17.0225 16.6247 17.0226M16.7129 17.0694L16.7129 17.0694L16.6689 17.0459L16.6248 17.0224L16.6247 17.0226M16.6247 17.0226L15.2334 19.631L16.6247 17.0226ZM16.7122 17.0713C16.7121 17.0713 16.7123 17.071 16.7127 17.0702L16.7122 17.0713ZM17.5081 17.7972C20.4719 17.198 23.5257 17.198 26.4895 17.7972L27.2191 19.1649C23.755 18.6922 20.2426 18.6922 16.7785 19.1649L17.5081 17.7972Z" fill="#1A2E35" stroke="#1A2E35" stroke-width="0.1"/>
<path d="M17.2425 17.852L17.2424 17.8517L17.1777 17.8585V17.864H17.1277C16.976 17.864 16.8306 17.8038 16.7234 17.6965C16.6162 17.5893 16.5559 17.4439 16.5559 17.2922V14.1717V14.1717C16.5562 13.1899 16.9463 12.2484 17.6406 11.5542C18.3348 10.86 19.2763 10.4698 20.2581 10.4695L20.2581 10.4695L23.7366 10.4695C24.7184 10.4695 25.6601 10.8596 26.3544 11.5539C27.0487 12.2482 27.4387 13.1898 27.4387 14.1717V17.2917C27.4387 17.4434 27.3785 17.5888 27.2713 17.696C27.1646 17.8027 27.02 17.8629 26.8692 17.8635M17.2425 17.852L26.867 17.8135M17.2425 17.852L17.2476 17.8509C20.3788 17.1856 23.6148 17.1856 26.746 17.8509L26.7466 17.851L26.7518 17.8521L26.7518 17.8521L26.7527 17.8522L26.7634 17.8542L17.2425 17.852ZM26.8692 17.8635C26.8684 17.8635 26.8677 17.8635 26.867 17.8635V17.8135M26.8692 17.8635L26.8692 17.8635L26.8713 17.8633L26.872 17.8632L26.8723 17.8632L26.8724 17.8632L26.8725 17.8632L26.8725 17.8632L26.867 17.8135M26.8692 17.8635L26.8628 17.8638C26.8576 17.864 26.8503 17.8641 26.8411 17.8638C26.8227 17.8631 26.7968 17.8607 26.7638 17.8543L26.7641 17.8543L26.7731 17.8051C26.8341 17.8171 26.867 17.8135 26.867 17.8135M18.4132 12.3268L18.4486 12.3622C18.9287 11.8826 19.5795 11.6131 20.2581 11.613C20.2581 11.613 20.2581 11.613 20.2581 11.613H23.7366C24.4152 11.613 25.066 11.8826 25.5458 12.3624C26.0257 12.8423 26.2953 13.4931 26.2953 14.1717V16.5958C23.4532 16.08 20.5415 16.08 17.6994 16.5958V14.1717C17.6994 13.4932 17.9691 12.8422 18.4486 12.3622L18.4132 12.3268ZM18.4132 12.3268C17.9244 12.8162 17.6494 13.4799 17.6494 14.1717V16.6049L20.2581 11.563C19.5662 11.5631 18.9027 11.8378 18.4132 12.3268ZM26.1215 19.7836V19.9119C26.1217 20.4534 26.0151 20.9897 25.808 21.49C25.6008 21.9903 25.2972 22.445 24.9143 22.8279C24.5315 23.2109 24.0769 23.5146 23.5766 23.7219C23.0764 23.9292 22.5401 24.0358 21.9986 24.0358H21.9976C20.9038 24.0356 19.8548 23.6008 19.0815 22.8273C18.3081 22.0537 17.8737 21.0047 17.8737 19.9109V19.783C17.8737 19.7125 17.8547 19.6519 17.8198 19.602C17.7852 19.5525 17.7368 19.5163 17.6817 19.4906C17.5727 19.44 17.4323 19.4285 17.2972 19.4414C17.1614 19.4544 17.0244 19.4927 16.9199 19.5478C16.8677 19.5754 16.8214 19.6083 16.7877 19.6462C16.7538 19.6842 16.7302 19.7301 16.7302 19.782V19.9109C16.7302 21.3079 17.2851 22.6477 18.273 23.6355C19.2608 24.6233 20.6006 25.1783 21.9976 25.1783H21.9986C24.9068 25.1783 27.265 22.8206 27.265 19.9114V19.783C27.265 19.7125 27.246 19.6519 27.2111 19.602C27.1765 19.5525 27.1281 19.5163 27.073 19.4906C26.9641 19.44 26.8236 19.4285 26.6885 19.4414C26.5527 19.4544 26.4158 19.4927 26.3112 19.5478C26.259 19.5754 26.2128 19.6083 26.179 19.6462C26.1452 19.6842 26.1215 19.7301 26.1215 19.782V19.783V19.7836Z" fill="#1A2E35" stroke="#1A2E35" stroke-width="0.1"/>
<path d="M19.8627 25.6513V24.346C19.8627 24.1942 19.9235 24.0488 20.0306 23.9417C20.1379 23.8345 20.2833 23.7742 20.4349 23.7742C20.5866 23.7742 20.732 23.8345 20.8392 23.9417C20.9464 24.0489 21.0067 24.1943 21.0067 24.346V25.6513C21.0071 25.9143 21.1117 26.1664 21.2976 26.3525C21.4836 26.5385 21.7357 26.6433 21.9987 26.6438H22.0001C22.2636 26.6438 22.5163 26.5391 22.7026 26.3528C22.889 26.1665 22.9936 25.9138 22.9936 25.6503V24.346C22.9936 24.1943 23.0539 24.0489 23.1611 23.9417C23.2683 23.8345 23.4137 23.7742 23.5654 23.7742C23.717 23.7742 23.8624 23.8345 23.9696 23.9417C24.0769 24.0489 24.1371 24.1943 24.1371 24.346V25.6503C24.1371 26.2171 23.912 26.7606 23.5112 27.1614C23.1104 27.5621 22.5669 27.7873 22.0001 27.7873H21.9986H21.9986V27.7373L19.8627 25.6513ZM19.8627 25.6513C19.8627 25.6513 19.8627 25.6514 19.8627 25.6514V25.6513Z" fill="#1A2E35" stroke="#1A2E35" stroke-width="0.1"/>
<path d="M29.2675 33.0814L29.3162 33.0702L29.2675 33.0814C29.2844 33.1546 29.3156 33.2238 29.3592 33.285C29.4028 33.3461 29.458 33.3981 29.5217 33.4379C29.5854 33.4777 29.6564 33.5046 29.7305 33.517C29.8046 33.5294 29.8804 33.5271 29.9536 33.5102C30.0268 33.4933 30.0959 33.4622 30.1571 33.4186C30.2183 33.3749 30.2702 33.3197 30.31 33.256C30.3499 33.1923 30.3767 33.1214 30.3891 33.0473C30.4015 32.9732 30.3992 32.8974 30.3823 32.8242L29.377 28.4682C29.1888 27.6524 28.7297 26.9246 28.0746 26.4034C27.4195 25.8822 26.6071 25.5984 25.77 25.5984H23.564C23.4124 25.5984 23.267 25.6587 23.1598 25.7659C23.0525 25.8731 22.9923 26.0185 22.9923 26.1702C22.9923 26.3218 23.0525 26.4672 23.1598 26.5745C23.267 26.6817 23.4124 26.7419 23.564 26.7419H25.7694C26.3481 26.7419 26.9096 26.938 27.3624 27.2983C27.8152 27.6585 28.1326 28.1616 28.2626 28.7254L29.2675 33.0814ZM13.6158 32.8242L13.6645 32.8354L13.6158 32.8242C13.5817 32.972 13.6077 33.1273 13.6881 33.256C13.7685 33.3847 13.8968 33.4761 14.0446 33.5102C14.1924 33.5443 14.3478 33.5183 14.4764 33.4379C14.6051 33.3575 14.6965 33.2293 14.7306 33.0814L14.7306 33.0814L15.735 28.7254C15.8651 28.1616 16.1824 27.6585 16.6352 27.2983C17.088 26.938 17.6496 26.7419 18.2282 26.7419H20.4336C20.5852 26.7419 20.7307 26.6817 20.8379 26.5745C20.9451 26.4672 21.0053 26.3218 21.0053 26.1702C21.0053 26.0185 20.9451 25.8731 20.8379 25.7659C20.7307 25.6587 20.5852 25.5984 20.4336 25.5984H18.2282C17.3911 25.5984 16.5786 25.8822 15.9235 26.4034C15.2684 26.9246 14.8094 27.6524 14.6212 28.4682C14.6212 28.4682 14.6212 28.4682 14.6212 28.4682L13.6158 32.8242Z" fill="#1A2E35" stroke="#1A2E35" stroke-width="0.1"/>
<path d="M21.4269 27.2131V32.9523C21.4269 33.1039 21.4872 33.2494 21.5944 33.3566C21.7016 33.4638 21.8471 33.524 21.9987 33.524C22.1503 33.524 22.2957 33.4638 22.403 33.3566C22.5102 33.2494 22.5704 33.1039 22.5704 32.9523V27.2131C22.5704 27.0615 22.5102 26.9161 22.403 26.8089C22.2957 26.7016 22.1503 26.6414 21.9987 26.6414C21.8471 26.6414 21.7016 26.7016 21.5944 26.8089C21.4872 26.9161 21.4269 27.0615 21.4269 27.2131Z" fill="#1A2E35" stroke="#1A2E35" stroke-width="0.1"/>
</svg>
