<svg width="44" height="44" viewBox="0 0 44 44" fill="none" xmlns="http://www.w3.org/2000/svg">
<rect width="44" height="44" rx="4" fill="#F5F7F9"/>
<path d="M12 32L32 32C32.6904 32 33.25 31.4404 33.25 30.75L33.25 15.75C33.25 15.0596 32.6904 14.5 32 14.5L10.75 14.5L10.75 30.75C10.75 31.4404 11.3096 32 12 32Z" stroke="#1A2E35" stroke-width="1.5" stroke-linecap="round" stroke-linejoin="round"/>
<path d="M22 14.5L19.8661 12.3661C19.6317 12.1317 19.3138 12 18.9822 12H12C11.3096 12 10.75 12.5596 10.75 13.25V14.5" stroke="#1A2E35" stroke-width="1.5" stroke-linecap="round" stroke-linejoin="round"/>
<path d="M25.75 20.75H28.25" stroke="#C8553D" stroke-width="1.5" stroke-linecap="round" stroke-linejoin="round"/>
<path d="M25.75 25.75H28.25" stroke="#C8553D" stroke-width="1.5" stroke-linecap="round" stroke-linejoin="round"/>
<rect x="15.75" y="20.75" width="5" height="5" stroke="#C8553D" stroke-width="1.5" stroke-linejoin="round"/>
</svg>
