<svg width="24" height="24" viewBox="0 0 24 24" fill="none" xmlns="http://www.w3.org/2000/svg">
<path d="M10.8489 19.8234C11.2535 20.2366 11.4558 20.4432 11.687 20.5194C11.8912 20.5867 12.1088 20.5867 12.313 20.5194C12.5442 20.4432 12.7465 20.2366 13.1511 19.8234C16.2281 16.6812 19 13.7387 19 10.2C19 6.22355 15.866 3 12 3C8.13401 3 5 6.22355 5 10.2C5 13.7387 7.77189 16.6812 10.8489 19.8234Z" fill="#1A2E35"/>
<path d="M12 12C13.3807 12 14.5 10.8807 14.5 9.5C14.5 8.11929 13.3807 7 12 7C10.6193 7 9.5 8.11929 9.5 9.5C9.5 10.8807 10.6193 12 12 12Z" fill="white"/>
</svg>
