<svg width="94" height="94" viewBox="0 0 94 94" fill="none" xmlns="http://www.w3.org/2000/svg">
<ellipse cx="46.9998" cy="80.4102" rx="11" ry="3" fill="black" fill-opacity="0.24"/>
<circle cx="47" cy="75.1172" r="6" fill="#4DB86B"/>
<circle cx="47" cy="33" r="22" fill="#4DB86B"/>
<path d="M47 42H38C38 38.134 41.134 35 45 35C45.3395 35 45.6734 35.0242 46 35.0709M49 28C49 30.2091 47.2091 32 45 32C42.7909 32 41 30.2091 41 28C41 25.7909 42.7909 24 45 24C47.2091 24 49 25.7909 49 28Z" stroke="white" stroke-width="1.5" stroke-linecap="round" stroke-linejoin="round"/>
<path d="M55.8726 36.2038C55.8044 36.2079 55.7357 36.21 55.6667 36.21C54.6422 36.21 53.7077 35.7524 53 35C52.2923 35.7524 51.3578 36.2099 50.3333 36.2099C50.2643 36.2099 50.1956 36.2078 50.1274 36.2037C50.0442 36.5853 50 36.9855 50 37.3979C50 39.6121 51.2748 41.4725 53 42C54.7252 41.4725 56 39.6121 56 37.3979C56 36.9855 55.9558 36.5853 55.8726 36.2038Z" stroke="white" stroke-width="1.5" stroke-linecap="round" stroke-linejoin="round"/>
<path d="M47 75L47 55" stroke="#4DB86B"/>
</svg>
