<svg width="34" height="34" viewBox="0 0 34 34" fill="none" xmlns="http://www.w3.org/2000/svg">
<ellipse cx="17" cy="29" rx="4" ry="1" fill="black" fill-opacity="0.24"/>
<circle cx="17" cy="27" r="2" fill="#1A2E35"/>
<circle cx="17" cy="12" r="8" fill="#1A2E35"/>
<path d="M17 27V10.5" stroke="#1A2E35"/>
<path d="M17.2586 14.0232C17.4842 14.0764 17.7151 14.1036 17.9469 14.1043C18.3477 14.1043 18.7446 14.0253 19.1149 13.8719C19.4852 13.7185 19.8217 13.4937 20.1051 13.2103C20.3885 12.9269 20.6133 12.5904 20.7667 12.2201C20.9201 11.8498 20.999 11.4529 20.999 11.0521C20.999 10.7066 20.6501 10.2515 20.2696 10.632L19.128 11.7736C19.128 11.7736 18.367 12.1541 17.606 11.3931C16.8449 10.632 17.2255 9.871 17.2255 9.871L18.367 8.72945C18.7475 8.34893 18.2901 8 17.9469 8C17.5461 7.99995 17.1492 8.07886 16.7789 8.23223C16.4085 8.38559 16.0721 8.61041 15.7886 8.89384C15.5052 9.17726 15.2804 9.51375 15.127 9.88407C14.9736 10.2544 14.8947 10.6513 14.8948 11.0521C14.8955 11.2838 14.9226 11.5146 14.9755 11.7401L13.3536 13.362C13.1583 13.5573 13.1583 13.8739 13.3536 14.0691L14.9296 15.6451C15.1248 15.8404 15.4414 15.8404 15.6367 15.6451L17.2586 14.0232Z" stroke="white"/>
</svg>

