<svg width="94" height="94" viewBox="0 0 94 94" fill="none" xmlns="http://www.w3.org/2000/svg">
<ellipse cx="46.9998" cy="80.4102" rx="11" ry="3" fill="black" fill-opacity="0.24"/>
<circle cx="47" cy="75.1172" r="6" fill="#4DB86B"/>
<circle cx="47" cy="33" r="22" fill="#4DB86B"/>
<path d="M47 75L47 55" stroke="#4DB86B"/>
<g transform="translate(35, 21)">
<path d="M19.44 9.03L15.41 5H11v2h3.59l2 2H5c-2.8 0-5 2.2-5 5s2.2 5 5 5c2.46 0 4.45-1.69 4.9-4h1.65l2.77-2.77c-.21.54-.32 1.14-.32 1.77 0 2.8 2.2 5 5 5s5-2.2 5-5c0-2.65-1.97-4.81-4.56-4.97zM7.82 15C7.4 16.15 6.28 17 5 17c-1.63 0-3-1.37-3-3s1.37-3 3-3c1.28 0 2.4.85 2.82 2H5v2h2.82zM19 17c-1.66 0-3-1.34-3-3s1.34-3 3-3 3 1.34 3 3-1.34 3-3 3z" fill="white"/>
</g>
</svg>
