<svg width="94" height="94" viewBox="0 0 94 94" fill="none" xmlns="http://www.w3.org/2000/svg">
<ellipse cx="46.9998" cy="80.4102" rx="11" ry="3" fill="black" fill-opacity="0.24"/>
<circle cx="47" cy="75.1172" r="6" fill="#EA4335"/>
<circle cx="47" cy="33" r="22" fill="#EA4335"/>
<path d="M47 75L47 55" stroke="#EA4335"/>
<g transform="translate(35, 21)">
<path d="M19 13c-1.66 0-3 1.34-3 3s1.34 3 3 3 3-1.34 3-3-1.34-3-3-3zM7 13c-1.66 0-3 1.34-3 3s1.34 3 3 3 3-1.34 3-3-1.34-3-3-3zm12 4c-.55 0-1-.45-1-1s.45-1 1-1 1 .45 1 1-.45 1-1 1zM8 17c-.55 0-1-.45-1-1s.45-1 1-1 1 .45 1 1-.45 1-1 1zm-2-6h2l1.2-3.6c.2-.6.8-1 1.4-1h3.8c.6 0 1.2.4 1.4 1L17 11h2v2h-2l-1-3h-4l-1 3H6v-2z" fill="white"/>
</g>
</svg>
