<svg width="94" height="94" viewBox="0 0 94 94" fill="none" xmlns="http://www.w3.org/2000/svg">
<ellipse cx="46.9998" cy="80.4102" rx="11" ry="3" fill="black" fill-opacity="0.24"/>
<circle cx="47" cy="75.1172" r="6" fill="#EA4335"/>
<circle cx="47" cy="33" r="22" fill="#EA4335"/>
<path d="M47 75L47 55" stroke="#EA4335"/>
<g transform="translate(35, 21)">
<path d="M20 8h-3V4H3c-1.1 0-2 .9-2 2v11h2c0 1.66 1.34 3 3 3s3-1.34 3-3h6c0 1.66 1.34 3 3 3s3-1.34 3-3h2v-5l-3-4zM6 18.5c-.83 0-1.5-.67-1.5-1.5s.67-1.5 1.5-1.5 1.5.67 1.5 1.5-.67 1.5-1.5 1.5zm13.5-9l1.96 2.5H17V9.5h2.5zm-1.5 9c-.83 0-1.5-.67-1.5-1.5s.67-1.5 1.5-1.5 1.5.67 1.5 1.5-.67 1.5-1.5 1.5z" fill="white"/>
</g>
</svg>
