<svg width="34" height="34" viewBox="0 0 34 34" fill="none" xmlns="http://www.w3.org/2000/svg">
<ellipse cx="17" cy="29" rx="4" ry="1" fill="black" fill-opacity="0.24"/>
<circle cx="17" cy="27" r="2" fill="#0370F2"/>
<circle cx="17" cy="12" r="8" fill="#0370F2"/>
<path d="M19.2575 9.26402L19.2576 9.26425L20.2542 11.0933L22.2713 11.7735C22.2714 11.7735 22.2715 11.7735 22.2716 11.7736L22.2718 11.7736L22.2318 11.8921C22.3398 11.9281 22.3998 12.0121 22.3998 12.1201V14.2681C22.3998 14.4001 22.2918 14.5081 22.1598 14.5081L19.2575 9.26402ZM19.2575 9.26402C18.9597 8.72027 18.3898 8.38306 17.7798 8.38306H14.0598C13.4373 8.38306 12.8797 8.72075 12.5822 9.26402L12.5821 9.26415L11.5141 11.2202L11.4988 11.2482V11.2588C11.4866 11.2894 11.4868 11.316 11.4868 11.3264C11.4868 11.327 11.4868 11.3276 11.4868 11.3281V14.2681C11.4868 14.4691 11.6508 14.6331 11.8518 14.6331H12.7371C12.8938 15.1921 13.412 15.5931 14.0118 15.5931C14.6116 15.5931 15.1298 15.1921 15.2865 14.6331H18.7371C18.8938 15.1921 19.412 15.5931 20.0118 15.5931C20.6116 15.5931 21.1298 15.1921 21.2865 14.6331L19.2575 9.26402ZM15.6848 9.12506H17.7798C18.1293 9.12506 18.4477 9.31538 18.6181 9.62401C18.6182 9.62415 18.6183 9.6243 18.6184 9.62444L19.382 11.0351H15.6848V9.12506ZM14.0598 9.12506H14.9548V11.0351H12.4576L13.2215 9.62402C13.392 9.31538 13.7104 9.12506 14.0598 9.12506ZM12.8149 13.6851C12.778 13.758 12.7481 13.8344 12.7254 13.9151H12.2048V13.6851H12.8149ZM13.9998 14.8751C13.6729 14.8751 13.4048 14.607 13.4048 14.2801C13.4048 13.9531 13.6729 13.6851 13.9998 13.6851C14.3268 13.6851 14.5948 13.9531 14.5948 14.2801C14.5948 14.607 14.3268 14.8751 13.9998 14.8751ZM19.9998 14.8751C19.6729 14.8751 19.4048 14.607 19.4048 14.2801C19.4048 13.9531 19.6729 13.6851 19.9998 13.6851C20.3268 13.6851 20.5948 13.9531 20.5948 14.2801C20.5948 14.607 20.3268 14.8751 19.9998 14.8751ZM21.7948 13.9151H21.2745C21.1178 13.356 20.5996 12.9551 19.9998 12.9551C19.4 12.9551 18.8818 13.356 18.7251 13.9151H15.2745C15.1178 13.356 14.5996 12.9551 13.9998 12.9551H12.2048V11.7651H19.9436L21.7948 12.3783V13.9151Z" fill="white" stroke="white" stroke-width="0.25"/>
<path d="M17 27L17 20" stroke="#0370F2"/>
</svg>
