<svg width="20" height="20" viewBox="0 0 20 20" fill="none" xmlns="http://www.w3.org/2000/svg">
<path d="M3.02666 6.45415C4.41837 11.5601 8.43985 15.5816 13.5458 16.9733C15.6772 17.5543 17.5 15.7091 17.5 13.5V12.875C17.5 12.3227 17.051 11.8806 16.5018 11.8225C15.6537 11.7327 14.8393 11.5299 14.074 11.2293L12.6497 12.6536C10.3331 11.545 8.45501 9.66691 7.34639 7.35031L8.77072 5.92599C8.47013 5.1607 8.26728 4.34631 8.17751 3.49817C8.11938 2.94895 7.67729 2.5 7.125 2.5H6.5C4.29086 2.5 2.44572 4.32277 3.02666 6.45415Z" stroke="#949494" stroke-width="1.5" stroke-linecap="round" stroke-linejoin="round"/>
<path d="M11.8335 5.42969C12.1925 5.42969 12.548 5.50039 12.8796 5.63777C13.2113 5.77515 13.5126 5.97651 13.7665 6.23035C14.0203 6.48419 14.2217 6.78555 14.359 7.11721C14.4964 7.44887 14.5671 7.80434 14.5671 8.16332" stroke="#949494" stroke-width="1.5" stroke-linecap="round" stroke-linejoin="round"/>
<path d="M12.5 2.66406C13.1346 2.66406 13.763 2.78906 14.3493 3.03191C14.9356 3.27476 15.4683 3.63071 15.917 4.07945C16.3658 4.52818 16.7217 5.0609 16.9646 5.6472C17.2074 6.2335 17.3324 6.86189 17.3324 7.49649" stroke="#949494" stroke-width="1.5" stroke-linecap="round" stroke-linejoin="round"/>
</svg>
