<svg width="24" height="24" viewBox="0 0 24 24" fill="none" xmlns="http://www.w3.org/2000/svg">
<path d="M14.7349 8.74351L12.4157 3.76358C12.252 3.41214 11.7477 3.41214 11.5841 3.76358L9.26488 8.74351C9.19818 8.88674 9.06113 8.98537 8.90298 9.00394L3.40444 9.64965C3.0164 9.69522 2.86056 10.1703 3.14745 10.433L7.21266 14.1565C7.32958 14.2636 7.38193 14.4232 7.35089 14.5779L6.27178 19.9569C6.19563 20.3365 6.60362 20.6301 6.9446 20.4411L11.7762 17.7624C11.9152 17.6853 12.0846 17.6853 12.2235 17.7624L17.0552 20.4411C17.3961 20.6301 17.8041 20.3365 17.728 19.9569L16.6489 14.5779C16.6178 14.4232 16.6702 14.2636 16.7871 14.1565L20.8523 10.433C21.1392 10.1703 20.9834 9.69522 20.5953 9.64965L15.0968 9.00394C14.9386 8.98537 14.8016 8.88674 14.7349 8.74351Z" fill="#FECC3F" stroke="#FECC3F" stroke-width="2" stroke-linecap="round" stroke-linejoin="round"/>
</svg>
