<svg width="100" height="100" viewBox="0 0 100 100" fill="none" xmlns="http://www.w3.org/2000/svg">
<rect x="8" y="8" width="84" height="84" rx="7" fill="#8F8F8F" stroke="white" stroke-width="2"/>
<g clip-path="url(#clip0_6595_10830)">
<path d="M19.082 98.3496C39.6934 100.553 60.3047 100.553 80.916 98.3496C89.3164 97.375 97.3711 89.3184 98.3477 80.918C100.551 60.3066 100.551 39.6953 98.3477 19.084C97.373 10.6836 89.3164 2.62891 80.916 1.65234C60.3047 -0.550781 39.6934 -0.550781 19.082 1.65234C10.6816 2.62891 2.62695 10.6836 1.65234 19.084C-0.550781 39.6953 -0.550781 60.3066 1.65234 80.918C2.62695 89.3184 10.6836 97.3731 19.084 98.3496H19.082ZM50 14.6563C58.7441 14.6563 65.832 21.7441 65.832 30.4883C65.832 39.2324 58.7441 46.3203 50 46.3203C41.2559 46.3203 34.168 39.2324 34.168 30.4883C34.168 21.7441 41.2559 14.6563 50 14.6563ZM22.3613 68.8945C26.9961 59.2598 37.6582 50.7969 50 50.7148C62.3418 50.7969 73.0039 59.2578 77.6387 68.8945C80.1191 73.9942 75.9844 81.584 69.7715 83.1524C56.6738 86.0742 43.3281 86.0742 30.2324 83.1524C24.0195 81.584 19.8828 73.9922 22.3652 68.8945H22.3613Z" fill="#F3F3F3"/>
</g>
<defs>
<clipPath id="clip0_6595_10830">
<rect width="100" height="100" fill="white"/>
</clipPath>
</defs>
</svg>
