<svg width="24" height="24" viewBox="0 0 24 24" fill="none" xmlns="http://www.w3.org/2000/svg">
<circle cx="12" cy="12" r="12" fill="#DFEBEC"/>
<path d="M17.2498 18.4363L15.3134 16.5087M6.74977 18.4363L8.68615 16.5087M11.9998 10.1863V12.4363L13.0812 13.5M8.05675 5.9982C7.77545 5.71689 7.39392 5.55886 6.99609 5.55886C6.59827 5.55886 6.21674 5.71689 5.93543 5.9982C5.65413 6.2795 5.49609 6.66103 5.49609 7.05886C5.49609 7.45668 5.65413 7.83821 5.93543 8.11952M18.0643 8.11828C18.3456 7.83697 18.5037 7.45544 18.5037 7.05762C18.5037 6.65979 18.3456 6.27826 18.0643 5.99696C17.783 5.71565 17.4015 5.55762 17.0037 5.55762C16.6059 5.55762 16.2243 5.71565 15.943 5.99696M17.2498 12.4363C17.2498 15.3358 14.8993 17.6863 11.9998 17.6863C9.10028 17.6863 6.74977 15.3358 6.74977 12.4363C6.74977 9.5368 9.10028 7.1863 11.9998 7.1863C14.8993 7.1863 17.2498 9.5368 17.2498 12.4363Z" stroke="#317077" stroke-width="1.5" stroke-linecap="round" stroke-linejoin="round"/>
</svg>
