<svg width="24" height="24" viewBox="0 0 24 24" fill="none" xmlns="http://www.w3.org/2000/svg">
<g id="api 1">
<path id="Vector" d="M10.6206 11.785C10.5407 11.785 10.4867 11.7625 10.4593 11.7175C10.4316 11.6725 10.4181 11.5975 10.4181 11.4925V9.4975C10.4181 9.29275 10.3731 9.11875 10.2831 8.97625C10.1932 8.83375 10.0712 8.71431 9.92681 8.6275C9.77269 8.53496 9.60408 8.46904 9.42806 8.4325C9.24324 8.39248 9.05467 8.37237 8.86556 8.3725C8.65031 8.3725 8.44031 8.39275 8.23556 8.4325C8.04063 8.4686 7.85385 8.53975 7.68431 8.6425C7.52194 8.74262 7.38806 8.875 7.28306 9.04C7.17806 9.205 7.11806 9.41237 7.10306 9.6625H7.95806C7.97794 9.4525 8.06569 9.29762 8.22056 9.1975C8.37544 9.09737 8.57306 9.0475 8.81306 9.0475C8.89819 9.0475 8.98781 9.05387 9.08306 9.06625C9.17794 9.079 9.26419 9.10375 9.34219 9.14125C9.41981 9.17875 9.48469 9.23237 9.53719 9.3025C9.58969 9.37262 9.61594 9.46262 9.61594 9.5725C9.61594 9.69737 9.58481 9.79112 9.52219 9.85375C9.45956 9.91637 9.37481 9.9625 9.26719 9.9925C9.15956 10.0225 9.03581 10.0439 8.89594 10.0562C8.75606 10.0686 8.60831 10.09 8.45344 10.12C8.27344 10.1399 8.09456 10.1687 7.91719 10.2062C7.73981 10.2437 7.57969 10.3049 7.43719 10.39C7.29469 10.4751 7.17956 10.5925 7.09219 10.7425C7.00444 10.8925 6.96094 11.0875 6.96094 11.3275C6.96094 11.5176 6.99694 11.6837 7.06969 11.8262C7.14206 11.9687 7.23956 12.0861 7.36219 12.1788C7.48481 12.2714 7.62581 12.3415 7.78594 12.3888C7.94606 12.4364 8.11331 12.46 8.28844 12.46C8.51831 12.46 8.75719 12.4225 9.00469 12.3475C9.23947 12.2799 9.45436 12.1564 9.63094 11.9875C9.66581 12.1626 9.74081 12.2849 9.85594 12.355C9.97106 12.4251 10.1158 12.46 10.2909 12.46C10.3842 12.4588 10.4771 12.4487 10.5684 12.43C10.657 12.4118 10.7446 12.3893 10.8309 12.3625V11.77C10.7859 11.7801 10.7458 11.785 10.7109 11.785H10.6206ZM9.56306 11.05C9.56306 11.185 9.53044 11.299 9.46556 11.3912C9.40069 11.4839 9.31931 11.56 9.22181 11.62C9.12577 11.6793 9.02061 11.7224 8.91056 11.7475C8.80069 11.7726 8.69794 11.785 8.60306 11.785C8.52806 11.785 8.44444 11.7775 8.35181 11.7625C8.26343 11.7488 8.17751 11.7223 8.09681 11.6838C8.02039 11.6472 7.95264 11.5948 7.89806 11.53C7.84213 11.4628 7.81277 11.3774 7.81556 11.29C7.81556 11.1801 7.83431 11.0864 7.87181 11.0087C7.90931 10.9311 7.96069 10.8689 8.02556 10.8212C8.09044 10.7736 8.16544 10.7361 8.25056 10.7087C8.33569 10.6814 8.42306 10.66 8.51306 10.645C8.7018 10.6103 8.89199 10.584 9.08306 10.5663C9.27319 10.549 9.43294 10.4976 9.56306 10.4125V11.05ZM14.7531 8.97662C14.601 8.78736 14.4072 8.6359 14.1868 8.53412C13.9592 8.4265 13.6929 8.37287 13.3881 8.37287C13.1379 8.37287 12.9054 8.42162 12.6906 8.51912C12.4757 8.61662 12.3081 8.77787 12.1881 9.00287H12.1731V8.47787H11.3631V13.7879H12.2181V11.8529H12.2331C12.2979 11.9579 12.3793 12.049 12.4768 12.1266C12.5743 12.2039 12.6804 12.268 12.7956 12.3179C12.9107 12.3677 13.0307 12.4041 13.1556 12.4266C13.2804 12.4491 13.4057 12.4604 13.5306 12.4604C13.8156 12.4604 14.0631 12.4041 14.2731 12.2916C14.4831 12.1791 14.6567 12.0291 14.7943 11.8416C14.9316 11.6541 15.0343 11.4377 15.1018 11.1929C15.1696 10.9461 15.2036 10.6913 15.2031 10.4354C15.2031 10.1504 15.1656 9.883 15.0906 9.63287C15.0156 9.38238 14.9031 9.16412 14.7531 8.97662ZM14.2918 10.9187C14.2543 11.0815 14.1917 11.2262 14.1043 11.3537C14.0169 11.4812 13.9056 11.5851 13.7706 11.665C13.6356 11.7449 13.4706 11.785 13.2756 11.785C13.1004 11.785 12.9467 11.7501 12.8143 11.68C12.6818 11.6101 12.5655 11.5129 12.4731 11.395C12.3739 11.2669 12.3012 11.1203 12.2593 10.9637C12.2105 10.7867 12.1865 10.6037 12.1881 10.42C12.1881 10.0049 12.2792 9.67262 12.4618 9.4225C12.6444 9.17237 12.9156 9.0475 13.2756 9.0475C13.4507 9.0475 13.6056 9.08612 13.7406 9.16375C13.8756 9.241 13.9881 9.34375 14.0781 9.47125C14.1681 9.59875 14.2356 9.745 14.2806 9.91C14.3256 10.075 14.3481 10.2452 14.3481 10.42C14.3481 10.5902 14.3293 10.7564 14.2918 10.9187ZM15.9452 7H16.8002V7.81H15.9452V7ZM15.9452 8.4775H16.8002V12.355H15.9452V8.4775Z" fill="#C8553D"/>
<path id="Vector_2" d="M4.25 2.25C3.14543 2.25 2.25 3.14543 2.25 4.25V19.75C2.25 20.8546 3.14543 21.75 4.25 21.75H19.75C20.8546 21.75 21.75 20.8546 21.75 19.75V4.25C21.75 3.14543 20.8546 2.25 19.75 2.25H4.25ZM3 5C3 3.89543 3.89543 3 5 3H19C20.1046 3 21 3.89543 21 5V16C21 17.1046 20.1046 18 19 18H5C3.89543 18 3 17.1046 3 16V5Z" fill="#1A2E35"/>
</g>
</svg>
