<svg width="31" height="36" viewBox="0 0 31 36" fill="none" xmlns="http://www.w3.org/2000/svg">
<path d="M16.3932 0H0V8.35213C0 9.5515 1.11211 10.4414 2.28225 10.1786L26.7469 4.68322C26.8506 4.65993 26.894 4.53624 26.8259 4.45462C24.2831 1.4049 20.0479 0 16.3932 0Z" fill="white"/>
<path d="M22.0952 22.3328C22.0952 22.3328 29.294 18.1039 29.1039 10.6913C29.0496 8.57727 28.4467 6.79945 27.4828 5.33798C27.4412 5.27504 27.3578 5.25602 27.2926 5.29367L2.45088 19.6134C0.934415 20.4875 0 22.1048 0 23.8551V35.994C0 35.994 5.47645 36.126 7.48381 35.1624C8.22627 34.806 9.02821 33.8557 9.14701 32.6677C9.25587 31.5779 9.26581 28.1536 9.26581 28.1536C9.26581 25.3027 11.0477 24.5899 12.2355 24.5899C14.0181 24.5899 14.9057 26.8416 17.106 30.5295C19.296 34.2 20.376 35.994 23.9397 35.994H30.7439L22.0952 22.3328Z" fill="white"/>
<path d="M13.7776 11.4628L20.6297 7.92253C20.7114 7.8802 20.7332 7.7732 20.6741 7.70236L20.2561 7.20081C20.2191 7.15631 20.1591 7.13831 20.1038 7.15516L12.5379 9.44778C12.4463 9.47557 12.4067 9.58343 12.4587 9.66392L13.5907 11.4131C13.6308 11.4753 13.7118 11.4968 13.7776 11.4628Z" fill="white"/>
<path d="M0.206639 17.8375L10.4293 12.8985C10.5059 12.8615 10.534 12.7664 10.4895 12.6937L9.32269 10.7843C9.28899 10.7291 9.22275 10.7032 9.16069 10.7208L0.104976 13.2749C0.0429125 13.2925 0 13.3491 0 13.4136V17.7079C0 17.8141 0.111023 17.8838 0.206639 17.8375Z" fill="white"/>
</svg>
