<svg width="24" height="24" viewBox="0 0 24 24" fill="none" xmlns="http://www.w3.org/2000/svg">
<g id="sort">
<g id="Icon">
<path d="M15.0748 12.8824H8.92522C8.46738 12.8824 8.23847 12.8824 8.13246 12.9676C8.04049 13.0414 7.99168 13.1523 8.00117 13.2657C8.0121 13.3964 8.17397 13.5486 8.49771 13.8531L11.5725 16.7451C11.7221 16.8859 11.797 16.9562 11.8832 16.9826C11.9591 17.0058 12.0409 17.0058 12.1168 16.9826C12.203 16.9562 12.2779 16.8859 12.4275 16.7451L15.5023 13.8531C15.826 13.5486 15.9879 13.3964 15.9988 13.2657C16.0083 13.1523 15.9595 13.0414 15.8675 12.9676C15.7615 12.8824 15.5326 12.8824 15.0748 12.8824Z" fill="#D6D6D6"/>
<path d="M8.92522 11.1176H15.0748C15.5326 11.1176 15.7615 11.1176 15.8675 11.0324C15.9595 10.9586 16.0083 10.8477 15.9988 10.7343C15.9879 10.6036 15.826 10.4514 15.5023 10.1469L12.4275 7.25488C12.2779 7.11413 12.203 7.04376 12.1168 7.01739C12.0409 6.9942 11.9591 6.9942 11.8832 7.01739C11.797 7.04376 11.7221 7.11413 11.5725 7.25488L8.49771 10.1469C8.17398 10.4514 8.0121 10.6036 8.00117 10.7343C7.99168 10.8477 8.04049 10.9586 8.13246 11.0324C8.23847 11.1176 8.46738 11.1176 8.92522 11.1176Z" fill="#242424"/>
</g>
</g>
</svg>
