<svg width="25" height="25" viewBox="0 0 25 25" fill="none" xmlns="http://www.w3.org/2000/svg">
<g clip-path="url(#clip0_99_5203)">
<path d="M9.52 22H3C1.346 22 0 20.654 0 19V3C0 1.346 1.346 0 3 0H15C16.654 0 18 1.346 18 3V9.06H16V3C16 2.448 15.551 2 15 2H3C2.449 2 2 2.448 2 3V19C2 19.552 2.449 20 3 20H9.52V22Z" fill="#203036"/>
<path d="M4 8H14V10H4V8ZM4 12H10V14H4V12ZM4 4H9V6H4V4Z" fill="#203036"/>
<path d="M18 25C14.14 25 11 21.859 11 18C11 14.141 14.14 11 18 11C21.86 11 25 14.141 25 18C25 21.859 21.86 25 18 25ZM18 13C15.243 13 13 15.243 13 18C13 20.757 15.243 23 18 23C20.757 23 23 20.757 23 18C23 15.243 20.757 13 18 13Z" fill="#BA5D45"/>
<path d="M15.1719 19.4139L19.4129 15.1719L20.8279 16.5859L16.5859 20.8279L15.1719 19.4139Z" fill="#BA5D45"/>
<path d="M15.1719 16.5859L16.5859 15.1719L20.8279 19.4129L19.4139 20.8279L15.1719 16.5859Z" fill="#BA5D45"/>
</g>
<defs>
<clipPath id="clip0_99_5203">
<rect width="25" height="25" fill="white"/>
</clipPath>
</defs>
</svg>
