<svg width="36" height="36" viewBox="0 0 36 36" fill="none" xmlns="http://www.w3.org/2000/svg">
<rect x="0.5" y="0.5" width="35" height="35" rx="17.5" fill="white" stroke="#D5D5D5"/>
<path d="M18 25.5H10.5C10.5 22.2783 13.1117 19.6667 16.3333 19.6667C16.6163 19.6667 16.8945 19.6868 17.1667 19.7257M19.6667 13.8333C19.6667 15.6743 18.1743 17.1667 16.3333 17.1667C14.4924 17.1667 13 15.6743 13 13.8333C13 11.9924 14.4924 10.5 16.3333 10.5C18.1743 10.5 19.6667 11.9924 19.6667 13.8333Z" stroke="#949494" stroke-width="1.5" stroke-linecap="round" stroke-linejoin="round"/>
<path d="M25.3939 20.6701C25.337 20.6736 25.2798 20.6753 25.2222 20.6753C24.3685 20.6753 23.5897 20.294 23 19.667C22.4103 20.294 21.6315 20.6753 20.7778 20.6753C20.7202 20.6753 20.663 20.6735 20.6061 20.6701C20.5369 20.9881 20.5 21.3216 20.5 21.6653C20.5 23.5104 21.5623 25.0607 23 25.5003C24.4377 25.0607 25.5 23.5104 25.5 21.6653C25.5 21.3216 25.4631 20.9881 25.3939 20.6701Z" stroke="#949494" stroke-width="1.5" stroke-linecap="round" stroke-linejoin="round"/>
</svg>
