<svg width="20" height="20" viewBox="0 0 20 20" fill="none" xmlns="http://www.w3.org/2000/svg">
<g id="Basic / Bin">
<path id="Vector" d="M7.15197 5.83333V4C7.15197 3.60218 7.30248 3.22064 7.57039 2.93934C7.8383 2.65804 8.20166 2.5 8.58054 2.5H11.4377C11.8166 2.5 12.1799 2.65804 12.4478 2.93934C12.7157 3.22064 12.8663 3.60218 12.8663 4V5.83333M15.8424 5.83333L15.0091 16C15.0091 16.3978 14.8586 16.7794 14.5907 17.0607C14.3228 17.342 13.9594 17.5 13.5805 17.5H6.43769C6.05881 17.5 5.69544 17.342 5.42753 17.0607C5.15962 16.7794 5.00911 16.3978 5.00911 16L4.17578 5.83333H15.8424Z" stroke="#EA4335" stroke-width="1.5" stroke-linecap="round" stroke-linejoin="round"/>
<path id="Vector_2" d="M3.33789 5.83398H4.81937H16.6712" stroke="#EA4335" stroke-width="1.5" stroke-linecap="round" stroke-linejoin="round"/>
<path id="Vector_3" d="M8.32227 9.16504V13.3317" stroke="#EA4335" stroke-width="1.5" stroke-linecap="round" stroke-linejoin="round"/>
<path id="Vector_4" d="M11.667 9.16504V13.3317" stroke="#EA4335" stroke-width="1.5" stroke-linecap="round" stroke-linejoin="round"/>
</g>
</svg>
