<svg width="20" height="20" viewBox="0 0 20 20" fill="none" xmlns="http://www.w3.org/2000/svg">
<path d="M10.8333 4.16536C10.8333 3.70513 10.4602 3.33203 9.99998 3.33203C9.53974 3.33203 9.16665 3.70513 9.16665 4.16536V9.16536H4.16665C3.70641 9.16536 3.33331 9.53846 3.33331 9.9987C3.33331 10.4589 3.70641 10.832 4.16665 10.832H9.16665V15.832C9.16665 16.2923 9.53974 16.6654 9.99998 16.6654C10.4602 16.6654 10.8333 16.2923 10.8333 15.832V10.832H15.8333C16.2936 10.832 16.6666 10.4589 16.6666 9.9987C16.6666 9.53846 16.2936 9.16536 15.8333 9.16536H10.8333V4.16536Z" fill="#0370F2"/>
</svg>
