<svg width="24" height="24" viewBox="0 0 24 24" fill="none" xmlns="http://www.w3.org/2000/svg">
<path d="M9.00017 17.2503C12.314 17.2503 15.0003 14.564 15.0003 11.2502C15.0003 7.93637 12.314 5.25 9.00017 5.25C5.68637 5.25 3 7.93637 3 11.2502C3 14.564 5.68637 17.2503 9.00017 17.2503Z" stroke="#1A2E35" stroke-width="1.5" stroke-miterlimit="10" stroke-linecap="round" stroke-linejoin="round"/>
<path d="M9.00391 11.252V8.25195" stroke="#1A2E35" stroke-width="1.5" stroke-linecap="round" stroke-linejoin="round"/>
<path d="M7.5 3L10.5001 3" stroke="#1A2E35" stroke-width="1.5" stroke-linecap="round" stroke-linejoin="round"/>
<path d="M19.841 15.1061V14.7693C19.841 14.2976 19.841 14.0618 19.7492 13.8817C19.6685 13.7232 19.5397 13.5944 19.3812 13.5137C19.2011 13.4219 18.9653 13.4219 18.4936 13.4219H17.8199C17.3483 13.4219 17.1125 13.4219 16.9323 13.5137C16.7739 13.5944 16.645 13.7232 16.5643 13.8817C16.4725 14.0618 16.4725 14.2976 16.4725 14.7693V15.1061M16.8936 18.4747V17.2115M19.42 18.4747V17.2115M14.3786 16.3804C14.5305 16.5259 16.1718 18.0536 18.1568 18.0536C20.1418 18.0536 21.7831 16.5259 21.9349 16.3804M14.3786 16.3804C14.3672 16.5769 14.3672 16.8184 14.3672 17.1272V18.9799C14.3672 19.6874 14.3672 20.0411 14.5049 20.3113C14.626 20.549 14.8192 20.7423 15.0569 20.8634C15.3271 21.001 15.6808 21.001 16.3883 21.001H19.9252C20.6327 21.001 20.9864 21.001 21.2566 20.8634C21.4943 20.7423 21.6876 20.549 21.8087 20.3113C21.9464 20.0411 21.9464 19.6874 21.9464 18.9799V17.1272C21.9464 16.8184 21.9464 16.5769 21.9349 16.3804M14.3786 16.3804C14.3934 16.1268 14.4273 15.9481 14.5049 15.7959C14.626 15.5582 14.8192 15.3649 15.0569 15.2438C15.3271 15.1061 15.6808 15.1061 16.3883 15.1061H19.9252C20.6327 15.1061 20.9864 15.1061 21.2566 15.2438C21.4943 15.3649 21.6876 15.5582 21.8087 15.7959C21.8862 15.9481 21.9201 16.1268 21.9349 16.3804" stroke="#C8553D" stroke-width="1.2" stroke-linecap="round" stroke-linejoin="round"/>
</svg>
