<svg width="24" height="24" viewBox="0 0 24 24" fill="none" xmlns="http://www.w3.org/2000/svg">
<circle cx="12" cy="12" r="10" fill="#9CA3AE"/>
<path d="M17.9168 14.6667C17.9168 16.1624 16.7043 17.375 15.2085 17.375C13.7127 17.375 12.5002 16.1624 12.5002 14.6667C12.5002 13.1709 13.7127 11.9583 15.2085 11.9583C16.7043 11.9583 17.9168 13.1709 17.9168 14.6667Z" fill="white"/>
<path d="M13.4752 8.70833H8.81683C8.21011 8.70833 7.90674 8.70833 7.67501 8.82641C7.47116 8.93027 7.30544 9.096 7.20157 9.29984C7.0835 9.53158 7.0835 9.83494 7.0835 10.4417V10.875H15.2085V10.4417C15.2085 9.83494 15.2085 9.53158 15.0904 9.29984C14.9866 9.096 14.8208 8.93027 14.617 8.82641C14.3852 8.70833 14.0819 8.70833 13.4752 8.70833Z" fill="white"/>
<path d="M15.2085 11.9583C13.7127 11.9583 12.5002 13.1709 12.5002 14.6667C12.5002 16.1624 13.7127 17.375 15.2085 17.375C16.7043 17.375 17.9168 16.1624 17.9168 14.6667C17.9168 13.1709 16.7043 11.9583 15.2085 11.9583ZM15.2085 11.9583V10.875M7.0835 10.875V14.5583C7.0835 15.1651 7.0835 15.4684 7.20157 15.7002C7.30544 15.904 7.47116 16.0697 7.67501 16.1736C7.90674 16.2917 8.21011 16.2917 8.81683 16.2917H13.0418M7.0835 10.875V10.4417C7.0835 9.83494 7.0835 9.53158 7.20157 9.29984C7.30544 9.096 7.47116 8.93027 7.67501 8.82641C7.90674 8.70833 8.21011 8.70833 8.81683 8.70833H13.4752C14.0819 8.70833 14.3852 8.70833 14.617 8.82641C14.8208 8.93027 14.9866 9.096 15.0904 9.29984C15.2085 9.53158 15.2085 9.83494 15.2085 10.4417V10.875M7.0835 10.875H15.2085M8.7085 7.625V8.70833M13.5835 7.625V8.70833" stroke="white" stroke-linecap="round" stroke-linejoin="round"/>
<path d="M16.7292 14.6667H15.2085V13.2666" stroke="#9CA3AE" stroke-linecap="round" stroke-linejoin="round"/>
</svg>
