<svg width="24" height="24" viewBox="0 0 24 24" fill="none" xmlns="http://www.w3.org/2000/svg">
<g id="phone-call-01">
<path id="Vector" d="M18.6108 18.1677C18.6108 18.1677 17.6452 19.116 17.4086 19.394C17.0232 19.8054 16.569 19.9996 15.9737 19.9996C15.9164 19.9996 15.8553 19.9996 15.7981 19.9958C14.6646 19.9234 13.6113 19.4816 12.8213 19.1046C10.6612 18.061 8.76445 16.5795 7.18827 14.7018C5.88687 13.1365 5.01673 11.6892 4.44045 10.1353C4.08552 9.18694 3.95576 8.44807 4.01301 7.75109C4.05117 7.30548 4.22291 6.93605 4.53967 6.61993L5.84107 5.32119C6.02808 5.146 6.22653 5.05078 6.42117 5.05078C6.6616 5.05078 6.85624 5.19551 6.97836 5.31738C6.98218 5.32119 6.986 5.325 6.98981 5.32881C7.22261 5.5459 7.44397 5.77061 7.67677 6.01055C7.79508 6.13243 7.9172 6.2543 8.03933 6.37999L9.08121 7.41974C9.48575 7.82346 9.48575 8.1967 9.08121 8.60041C8.97053 8.71086 8.86367 8.82131 8.753 8.92795C8.43242 9.25549 8.68425 9.00418 8.35222 9.30125C8.34459 9.30886 8.33696 9.31267 8.33314 9.32029C8.00493 9.64783 8.06599 9.96776 8.13469 10.1848C8.1385 10.1963 8.14232 10.2077 8.14614 10.2191C8.4171 10.8742 8.79874 11.4912 9.37884 12.2263L9.38266 12.2301C10.436 13.525 11.5466 14.5343 12.7716 15.3074C12.9281 15.4065 13.0884 15.4864 13.241 15.5626C13.3784 15.6312 13.5082 15.6959 13.6189 15.7645C13.6341 15.7721 13.6494 15.7835 13.6647 15.7911C13.7944 15.8559 13.9166 15.8863 14.0425 15.8863C14.3593 15.8863 14.5577 15.6883 14.6226 15.6236L15.3707 14.877C15.5004 14.7475 15.7065 14.5914 15.9469 14.5914C16.1836 14.5914 16.3782 14.7399 16.4965 14.8694C16.5003 14.8732 16.5003 14.8732 16.5041 14.877L18.607 16.9756C19.0001 17.364 18.6108 18.1677 18.6108 18.1677Z" stroke="#1A2E35" stroke-width="1.5" stroke-linecap="round" stroke-linejoin="round"/>
<path id="Vector_2" d="M12.7266 7.27161C13.7265 7.43919 14.6348 7.91146 15.3599 8.6351C16.085 9.35873 16.5544 10.2652 16.7262 11.263M12.8792 4C14.6577 4.30088 16.2797 5.14259 17.5696 6.42609C18.8596 7.7134 19.6992 9.33207 20.0007 11.1069" stroke="#C8553D" stroke-width="1.5" stroke-linecap="round" stroke-linejoin="round"/>
</g>
</svg>
