<svg width="24" height="24" viewBox="0 0 24 24" fill="none" xmlns="http://www.w3.org/2000/svg">
<rect width="24" height="24" rx="12" fill="#EA9035" fill-opacity="0.24"/>
<path d="M7.42893 12.5178L9.43637 10.0578C9.6417 9.79376 9.74437 9.66176 9.79817 9.51372C9.84578 9.38272 9.86547 9.24322 9.856 9.10417C9.84529 8.94702 9.78318 8.79175 9.65897 8.48123L9.18518 7.29673C9.00136 6.83719 8.90945 6.60742 8.7509 6.45681C8.61119 6.3241 8.43611 6.23458 8.24673 6.19902C8.0318 6.15867 7.79172 6.21869 7.31156 6.33873L6 6.66667C6 13.3333 10.6665 18 17.3333 18L17.6611 16.6883C17.7811 16.2081 17.8411 15.968 17.8008 15.7531C17.7652 15.5637 17.6757 15.3886 17.543 15.2489C17.3924 15.0904 17.1626 14.9985 16.7031 14.8146L15.6461 14.3918C15.2918 14.2501 15.1147 14.1793 14.9381 14.1738C14.782 14.169 14.6269 14.2009 14.4853 14.2668C14.3252 14.3413 14.1903 14.4762 13.9205 14.746L11.8686 16.7741M13.9998 7.33333L13.9998 10M13.9998 10L16.6665 10M13.9998 10L17.9998 6" stroke="#EA9035" stroke-width="1.2" stroke-linecap="round" stroke-linejoin="round"/>
</svg>
