<svg width="44" height="44" viewBox="0 0 44 44" fill="none" xmlns="http://www.w3.org/2000/svg">
<path d="M27.3625 29.7C27.4312 29.425 27.2938 29.2187 27.1562 29.0812L25.7125 27.7062C25.4375 27.4312 25.025 27.4312 24.75 27.7062C24.475 27.9812 24.475 28.3938 24.75 28.6688L25.9188 29.7687L25.4375 32.9313L22.275 29.9062C22 29.6313 21.5875 29.6313 21.3125 29.9062L18.15 32.9313L17.6688 29.7687L18.8375 28.6688C19.1125 28.3938 19.1125 27.9812 18.8375 27.7062C18.5625 27.4312 18.15 27.4312 17.875 27.7062L16.4312 29.0812C16.2937 29.2187 16.225 29.425 16.225 29.7V29.7687C14.85 30.3187 10.3125 32.3125 10.3125 35.0625C10.3125 40.2875 16.3625 42.625 22 42.625C27.6375 42.625 33.6875 40.2875 33.6875 35.0625C33.6875 32.175 28.7375 30.1813 27.3625 29.7ZM22 41.25C14.9187 41.25 11.6875 38.0187 11.6875 35.0625C11.6875 33.6187 14.5063 31.9688 16.6375 31.1437L17.1187 34.4437C17.1875 34.7187 17.325 34.925 17.6 34.9938C17.875 35.0625 18.0813 34.9937 18.2875 34.8563L21.9312 31.35L25.575 34.8563C25.7125 34.9937 25.85 35.0625 26.0563 35.0625C26.125 35.0625 26.1938 35.0625 26.2625 34.9938C26.5375 34.925 26.675 34.7187 26.7438 34.4437L27.225 31.075C29.3562 31.9 32.3125 33.55 32.3125 35.0625C32.3125 38.0187 29.0812 41.25 22 41.25ZM32.6562 23.375H30.0438C29.6313 23.375 29.3563 23.1 29.3563 22.6875C29.3563 22.275 29.6313 22 30.0438 22H32.6562C34.375 22 35.75 20.625 35.75 18.9062C35.75 17.1875 34.375 15.8125 32.6562 15.8125C32.2437 15.8125 31.9688 15.5375 31.9688 15.125C31.9688 14.7125 32.2437 14.4375 32.6562 14.4375C35.1313 14.4375 37.125 16.4313 37.125 18.9062C37.125 21.3812 35.1313 23.375 32.6562 23.375ZM13.9562 23.375H11.3438C8.86875 23.375 6.875 21.3812 6.875 18.9062C6.875 16.4313 8.86875 14.4375 11.3438 14.4375C11.7562 14.4375 12.0312 14.7125 12.0312 15.125C12.0312 15.5375 11.7562 15.8125 11.3438 15.8125C9.625 15.8125 8.25 17.1875 8.25 18.9062C8.25 20.625 9.625 22 11.3438 22H13.9562C14.3687 22 14.6437 22.275 14.6437 22.6875C14.6437 23.1 14.3 23.375 13.9562 23.375Z" fill="#D41F26"/>
<path d="M21.9316 29.5625C19.1129 29.5625 16.2941 27.6375 14.0941 24.1312C12.1691 21.1062 10.9316 17.3938 10.9316 14.4375C10.9316 14.025 11.2066 13.75 11.6191 13.75C12.0316 13.75 12.3066 14.025 12.3066 14.4375C12.3066 19.7312 16.7066 28.1875 21.9316 28.1875C27.1566 28.1875 31.5566 19.7312 31.5566 14.4375C31.5566 14.025 31.8316 13.75 32.2441 13.75C32.6566 13.75 32.9316 14.025 32.9316 14.4375C32.9316 17.4625 31.7629 21.175 29.7691 24.1312C27.5004 27.6375 24.7504 29.5625 21.9316 29.5625Z" fill="#D41F26"/>
<path d="M32.2441 15.125C31.8316 15.125 31.5566 14.85 31.5566 14.4375C31.5566 9.14375 27.2254 4.8125 21.9316 4.8125C16.6379 4.8125 12.3066 9.14375 12.3066 14.4375C12.3066 14.85 12.0316 15.125 11.6191 15.125C11.2066 15.125 10.9316 14.85 10.9316 14.4375C10.9316 8.3875 15.8816 3.4375 21.9316 3.4375C27.9816 3.4375 32.9316 8.3875 32.9316 14.4375C32.9316 14.85 32.5879 15.125 32.2441 15.125Z" fill="#D41F26"/>
<path d="M26.6066 16.5688C26.1941 16.5688 25.7129 16.5688 25.2316 16.5C21.7941 16.0188 19.6629 13.8875 18.6316 12.5125C18.0816 13.75 16.9816 15.6063 15.2629 16.225C14.0941 16.6375 12.8566 16.5 11.6191 15.675C11.2754 15.4688 11.2066 15.0563 11.4129 14.7125C11.6191 14.3688 12.0316 14.3 12.3754 14.5063C13.2691 15.0563 14.0254 15.1938 14.7816 14.9188C16.4316 14.3 17.5316 11.6875 17.8066 10.7937C17.8754 10.5187 18.1504 10.3125 18.4254 10.3125C18.7004 10.3125 18.9754 10.45 19.1129 10.6563C19.1129 10.725 21.1066 14.4375 25.4379 15.125C28.5316 15.5375 30.3879 14.1625 31.1441 13.2687C31.4191 12.9937 31.8316 12.9938 32.1066 13.2C32.3816 13.475 32.3816 13.8875 32.1754 14.1625C31.2816 15.125 29.4941 16.5688 26.6066 16.5688Z" fill="#D41F26"/>
<path d="M22.9629 26.8125H20.9004C19.9379 26.8125 19.1816 26.0563 19.1816 25.0938C19.1816 24.1313 19.9379 23.375 20.9004 23.375H22.9629C23.9254 23.375 24.6816 24.1313 24.6816 25.0938C24.6816 26.0563 23.8566 26.8125 22.9629 26.8125ZM20.9004 24.75C20.6941 24.75 20.5566 24.8875 20.5566 25.0938C20.5566 25.3 20.6941 25.4375 20.9004 25.4375H22.9629C23.1691 25.4375 23.3066 25.3 23.3066 25.0938C23.3066 24.8875 23.1004 24.75 22.9629 24.75H20.9004Z" fill="#D41F26"/>
<path d="M30.1816 26.125H23.9941C23.5816 26.125 23.3066 25.85 23.3066 25.4375C23.3066 25.025 23.5816 24.75 23.9941 24.75H30.1816C30.5254 24.75 31.5566 24.6125 31.5566 23.375V22.6875C31.5566 22.275 31.8316 22 32.2441 22C32.6566 22 32.9316 22.275 32.9316 22.6875V23.375C32.9316 25.3688 31.2816 26.125 30.1816 26.125Z" fill="#D41F26"/>
<path d="M21.9316 35.75C21.7254 35.75 21.5879 35.6813 21.4504 35.5438C21.3816 35.475 21.3129 35.4063 21.3129 35.3375C21.3129 35.2688 21.2441 35.2 21.2441 35.0625C21.2441 34.925 21.2441 34.8562 21.3129 34.7875C21.3816 34.7187 21.3816 34.65 21.4504 34.5812C21.5191 34.5812 21.5191 34.5125 21.5879 34.5125C21.6566 34.5125 21.6566 34.4437 21.7254 34.4437C21.7941 34.4437 21.7941 34.4438 21.8629 34.375C22.0004 34.375 22.1379 34.375 22.2754 34.4437C22.3441 34.4437 22.4129 34.5125 22.4816 34.5812C22.5504 34.65 22.6191 34.7187 22.6191 34.7875C22.6191 34.8562 22.6879 34.925 22.6879 35.0625C22.6879 35.2 22.6879 35.2688 22.6191 35.3375C22.5504 35.4063 22.5504 35.475 22.4816 35.5438C22.4129 35.6125 22.3441 35.6813 22.2754 35.6813C22.0691 35.75 22.0004 35.75 21.9316 35.75ZM21.9316 39.875C21.7254 39.875 21.5879 39.8063 21.4504 39.6688C21.3129 39.5313 21.2441 39.3938 21.2441 39.1875V39.05C21.2441 38.9812 21.2441 38.9812 21.3129 38.9125C21.3129 38.8437 21.3816 38.8438 21.3816 38.775L21.4504 38.7062C21.5191 38.7062 21.5191 38.6375 21.5879 38.6375C21.6566 38.6375 21.6566 38.5687 21.7254 38.5687C21.7941 38.5687 21.7941 38.5687 21.8629 38.5C22.0004 38.5 22.1379 38.5 22.2754 38.5687C22.3441 38.5687 22.4129 38.6375 22.4816 38.7062L22.5504 38.775C22.5504 38.8438 22.6191 38.8437 22.6191 38.9125C22.6191 38.9812 22.6191 38.9812 22.6879 39.05V39.1875C22.6879 39.3938 22.6191 39.5313 22.4816 39.6688C22.4129 39.7375 22.3441 39.8063 22.2754 39.8063C22.0691 39.875 22.0004 39.875 21.9316 39.875Z" fill="#D41F26"/>
<path d="M34.9938 16.5H34.925C34.5812 16.4312 34.3063 16.1562 34.3063 15.7437C34.375 15.3313 34.375 14.85 34.375 14.4375C34.375 7.63125 28.8062 2.0625 22 2.0625C15.1938 2.0625 9.625 7.63125 9.625 14.4375C9.625 14.85 9.625 15.3313 9.69375 15.7437C9.7625 16.0875 9.4875 16.4312 9.075 16.5C8.6625 16.5 8.3875 16.2937 8.31875 15.8813C8.25 15.4 8.25 14.9187 8.25 14.4375C8.25 6.875 14.4375 0.6875 22 0.6875C29.5625 0.6875 35.75 6.875 35.75 14.4375C35.75 14.9187 35.75 15.4 35.6813 15.8813C35.6125 16.225 35.3375 16.5 34.9938 16.5Z" fill="#D41F26"/>
</svg>
