<svg width="36" height="36" viewBox="0 0 36 36" fill="none" xmlns="http://www.w3.org/2000/svg">
<rect x="0.5" y="0.5" width="35" height="35" rx="17.5" fill="white" stroke="#D5D5D5"/>
<path d="M24.7616 23.2843C24.7616 23.2843 23.8573 24.1725 23.6357 24.4329C23.2747 24.8181 22.8494 25 22.2918 25C22.2382 25 22.181 25 22.1274 24.9964C21.0658 24.9287 20.0794 24.5149 19.3395 24.1618C17.3165 23.1845 15.5402 21.7969 14.064 20.0385C12.8452 18.5725 12.0303 17.2171 11.4906 15.7618C11.1582 14.8736 11.0367 14.1817 11.0903 13.5289C11.1261 13.1116 11.2869 12.7656 11.5835 12.4696L12.8023 11.2532C12.9775 11.0892 13.1633 11 13.3456 11C13.5708 11 13.7531 11.1355 13.8674 11.2497C13.871 11.2532 13.8746 11.2568 13.8782 11.2604C14.0962 11.4637 14.3035 11.6741 14.5215 11.8989C14.6323 12.013 14.7467 12.1271 14.8611 12.2448L15.8368 13.2186C16.2157 13.5967 16.2157 13.9462 15.8368 14.3243C15.7332 14.4278 15.6331 14.5312 15.5294 14.6311C15.2292 14.9378 15.4651 14.7025 15.1541 14.9807C15.147 14.9878 15.1398 14.9914 15.1362 14.9985C14.8289 15.3053 14.886 15.6049 14.9504 15.8082C14.954 15.8189 14.9575 15.8296 14.9611 15.8403C15.2149 16.4538 15.5723 17.0316 16.1156 17.72L16.1191 17.7236C17.1056 18.9364 18.1457 19.8816 19.293 20.6057C19.4395 20.6984 19.5897 20.7733 19.7326 20.8446C19.8613 20.9088 19.9828 20.9695 20.0865 21.0337C20.1008 21.0408 20.1151 21.0515 20.1294 21.0586C20.2509 21.1193 20.3653 21.1478 20.4832 21.1478C20.7799 21.1478 20.9657 20.9623 21.0265 20.9017L21.7271 20.2025C21.8486 20.0813 22.0416 19.935 22.2668 19.935C22.4884 19.935 22.6707 20.0741 22.7815 20.1954C22.785 20.199 22.785 20.199 22.7886 20.2025L24.758 22.1679C25.1261 22.5317 24.7616 23.2843 24.7616 23.2843Z" stroke="#949494" stroke-width="1.5" stroke-linecap="round" stroke-linejoin="round"/>
</svg>
