<svg width="46" height="46" viewBox="0 0 46 46" fill="none" xmlns="http://www.w3.org/2000/svg">
<rect width="46" height="46" rx="23" fill="#F5F7F9"/>
<mask id="path-2-outside-1_643_8849" maskUnits="userSpaceOnUse" x="10.2344" y="9.76465" width="26" height="26" fill="black">
<rect fill="white" x="10.2344" y="9.76465" width="26" height="26"/>
<path d="M10.837 14.5034C10.8526 14.4212 10.8903 14.3449 10.946 14.2825C11.0018 14.2202 11.0735 14.1743 11.1534 14.1496C11.2333 14.125 11.3185 14.1227 11.3996 14.1428C11.4808 14.163 11.5549 14.2049 11.6141 14.264L13.857 16.507L15.9467 15.9471L16.5067 13.8574L14.2637 11.6144C14.2046 11.5553 14.1627 11.4811 14.1425 11.4C14.1224 11.3188 14.1247 11.2337 14.1494 11.1538C14.174 11.0738 14.2199 11.0021 14.2822 10.9464C14.3446 10.8906 14.4209 10.8529 14.5031 10.8373C14.7566 10.7891 15.0205 10.7646 15.2875 10.7646C16.5398 10.7646 17.8253 11.3026 18.7264 12.2037C19.8989 13.3761 20.3067 15.0278 19.9504 16.5339L29.4633 26.0468C29.8142 25.9638 30.1737 25.922 30.5344 25.9222C31.7664 25.9222 32.9246 26.402 33.7958 27.2732C34.9031 28.3804 35.4395 30.0381 35.1623 31.4964C35.1467 31.5786 35.109 31.655 35.0533 31.7173C34.9975 31.7796 34.9258 31.8256 34.8459 31.8502C34.7659 31.8748 34.6808 31.8772 34.5996 31.8571C34.5185 31.8369 34.4443 31.795 34.3852 31.7359L32.1422 29.4929L30.0525 30.0528L29.4926 32.1425L31.7356 34.3855C31.7947 34.4446 31.8366 34.5188 31.8567 34.5999C31.8769 34.6811 31.8745 34.7662 31.8499 34.8461C31.8253 34.9261 31.7793 34.9977 31.717 35.0535C31.6547 35.1093 31.5784 35.147 31.4962 35.1626C31.2427 35.2108 30.9787 35.2352 30.7117 35.2352C29.4595 35.2352 28.174 34.6973 27.2729 33.7962C26.4017 32.925 25.9218 31.7667 25.9219 30.5347C25.9219 30.1693 25.9644 29.8105 26.0465 29.4636L16.536 19.953C16.185 20.036 15.8256 20.0778 15.4649 20.0777C14.233 20.0777 13.0745 19.5978 12.2034 18.7267C11.0962 17.6194 10.5598 15.9617 10.837 14.5034ZM27.9234 33.1456C28.5677 33.79 29.4521 34.2059 30.3457 34.2965L28.6543 32.6052C28.5972 32.5481 28.5562 32.477 28.5353 32.399C28.5144 32.321 28.5144 32.2389 28.5353 32.1609L29.2326 29.5582C29.2535 29.4802 29.2946 29.4091 29.3517 29.352C29.4088 29.2949 29.4799 29.2538 29.5579 29.2329L32.1606 28.5356C32.2386 28.5147 32.3207 28.5147 32.3987 28.5356C32.4766 28.5565 32.5477 28.5975 32.6048 28.6546L34.2974 30.3471C34.2087 29.4631 33.7993 28.5775 33.1453 27.9236C32.4479 27.2262 31.5206 26.8421 30.5343 26.8421C30.1693 26.8421 29.8124 26.895 29.4722 26.9966C29.4682 26.998 29.4644 26.9999 29.4603 27.0011C29.0378 27.1291 28.6398 27.3348 28.2884 27.6042C28.2709 27.6176 28.2534 27.6312 28.2361 27.645C28.2169 27.6603 28.1977 27.6755 28.1789 27.6911C28.1428 27.7211 28.1071 27.7518 28.0721 27.7833C28.0609 27.7933 28.0499 27.8035 28.0389 27.8135C27.9996 27.8494 27.9611 27.8861 27.9234 27.9236C27.8858 27.9614 27.849 28 27.8131 28.0394C27.8031 28.0502 27.7931 28.061 27.7833 28.072C27.7517 28.1073 27.7208 28.1431 27.6906 28.1794C27.6753 28.1979 27.6605 28.2167 27.6455 28.2354C27.6312 28.2534 27.6171 28.2715 27.603 28.2897C27.3341 28.6408 27.1287 29.0384 27.0009 29.4605C26.9996 29.4646 26.9978 29.4683 26.9964 29.4724C26.8936 29.8171 26.8415 30.1749 26.8418 30.5345C26.8418 31.5209 27.2259 32.4482 27.9234 33.1456ZM26.3898 28.5058C26.5848 28.1089 26.8359 27.7421 27.1355 27.4168L27.1494 27.4018C27.1898 27.3581 27.2309 27.3153 27.2729 27.2732C27.3151 27.2311 27.3581 27.1898 27.4019 27.1494C27.4067 27.145 27.4114 27.1405 27.4162 27.1361C27.7416 26.8364 28.1085 26.5852 28.5055 26.3901L19.6082 17.4927L19.6059 17.4972C19.5788 17.5522 19.5507 17.6067 19.5216 17.6606L19.5205 17.6625C19.3409 17.9943 19.121 18.3027 18.8659 18.5806C18.8599 18.5872 18.8539 18.5936 18.8479 18.6001C18.8082 18.6428 18.768 18.6851 18.7264 18.7267C18.6839 18.7691 18.6406 18.8106 18.5965 18.8512L18.5835 18.8634C18.258 19.1632 17.8909 19.4146 17.4937 19.6098L26.3898 28.5058ZM12.8539 18.0762C13.5513 18.7736 14.4786 19.1577 15.4649 19.1577C15.8245 19.158 16.1823 19.106 16.527 19.0032C16.531 19.0018 16.5349 19 16.539 18.9987C16.9616 18.8706 17.3599 18.6647 17.7114 18.3952C17.7285 18.382 17.7456 18.3687 17.7625 18.3552C17.7819 18.3398 17.8014 18.3243 17.8206 18.3085C17.8682 18.2688 17.9149 18.228 17.9605 18.186C17.9997 18.1502 18.0382 18.1136 18.0759 18.0761C18.1152 18.0366 18.1537 17.9961 18.1912 17.9548C18.1998 17.9454 18.2084 17.9361 18.2168 17.9267C18.2507 17.8888 18.2838 17.8502 18.3161 17.8109C18.3271 17.7975 18.3379 17.7841 18.3487 17.7705C18.3882 17.7211 18.4264 17.6708 18.4633 17.6194C18.4978 17.5715 18.5311 17.5228 18.5633 17.4733C18.5882 17.4351 18.6124 17.3963 18.6358 17.3572C18.6447 17.3424 18.6531 17.3274 18.6617 17.3125C18.6826 17.2764 18.7029 17.24 18.7225 17.2033C18.7275 17.1939 18.7327 17.1847 18.7376 17.1754C18.7631 17.1264 18.7875 17.0769 18.8108 17.0269L18.8168 17.014C19.4457 15.6493 19.1988 13.9771 18.0759 12.8541C17.4315 12.2097 16.5471 11.7938 15.6535 11.7032L17.3449 13.3945C17.402 13.4516 17.443 13.5227 17.4639 13.6007C17.4848 13.6787 17.4848 13.7608 17.4639 13.8388L16.7665 16.4416C16.7457 16.5196 16.7046 16.5907 16.6475 16.6478C16.5904 16.7049 16.5193 16.7459 16.4413 16.7668L13.8385 17.4642C13.7606 17.4851 13.6784 17.4851 13.6004 17.4642C13.5225 17.4433 13.4513 17.4023 13.3943 17.3452L11.7018 15.6527C11.7905 16.5368 12.1999 17.4222 12.8539 18.0762Z"/>
</mask>
<path d="M10.837 14.5034C10.8526 14.4212 10.8903 14.3449 10.946 14.2825C11.0018 14.2202 11.0735 14.1743 11.1534 14.1496C11.2333 14.125 11.3185 14.1227 11.3996 14.1428C11.4808 14.163 11.5549 14.2049 11.6141 14.264L13.857 16.507L15.9467 15.9471L16.5067 13.8574L14.2637 11.6144C14.2046 11.5553 14.1627 11.4811 14.1425 11.4C14.1224 11.3188 14.1247 11.2337 14.1494 11.1538C14.174 11.0738 14.2199 11.0021 14.2822 10.9464C14.3446 10.8906 14.4209 10.8529 14.5031 10.8373C14.7566 10.7891 15.0205 10.7646 15.2875 10.7646C16.5398 10.7646 17.8253 11.3026 18.7264 12.2037C19.8989 13.3761 20.3067 15.0278 19.9504 16.5339L29.4633 26.0468C29.8142 25.9638 30.1737 25.922 30.5344 25.9222C31.7664 25.9222 32.9246 26.402 33.7958 27.2732C34.9031 28.3804 35.4395 30.0381 35.1623 31.4964C35.1467 31.5786 35.109 31.655 35.0533 31.7173C34.9975 31.7796 34.9258 31.8256 34.8459 31.8502C34.7659 31.8748 34.6808 31.8772 34.5996 31.8571C34.5185 31.8369 34.4443 31.795 34.3852 31.7359L32.1422 29.4929L30.0525 30.0528L29.4926 32.1425L31.7356 34.3855C31.7947 34.4446 31.8366 34.5188 31.8567 34.5999C31.8769 34.6811 31.8745 34.7662 31.8499 34.8461C31.8253 34.9261 31.7793 34.9977 31.717 35.0535C31.6547 35.1093 31.5784 35.147 31.4962 35.1626C31.2427 35.2108 30.9787 35.2352 30.7117 35.2352C29.4595 35.2352 28.174 34.6973 27.2729 33.7962C26.4017 32.925 25.9218 31.7667 25.9219 30.5347C25.9219 30.1693 25.9644 29.8105 26.0465 29.4636L16.536 19.953C16.185 20.036 15.8256 20.0778 15.4649 20.0777C14.233 20.0777 13.0745 19.5978 12.2034 18.7267C11.0962 17.6194 10.5598 15.9617 10.837 14.5034ZM27.9234 33.1456C28.5677 33.79 29.4521 34.2059 30.3457 34.2965L28.6543 32.6052C28.5972 32.5481 28.5562 32.477 28.5353 32.399C28.5144 32.321 28.5144 32.2389 28.5353 32.1609L29.2326 29.5582C29.2535 29.4802 29.2946 29.4091 29.3517 29.352C29.4088 29.2949 29.4799 29.2538 29.5579 29.2329L32.1606 28.5356C32.2386 28.5147 32.3207 28.5147 32.3987 28.5356C32.4766 28.5565 32.5477 28.5975 32.6048 28.6546L34.2974 30.3471C34.2087 29.4631 33.7993 28.5775 33.1453 27.9236C32.4479 27.2262 31.5206 26.8421 30.5343 26.8421C30.1693 26.8421 29.8124 26.895 29.4722 26.9966C29.4682 26.998 29.4644 26.9999 29.4603 27.0011C29.0378 27.1291 28.6398 27.3348 28.2884 27.6042C28.2709 27.6176 28.2534 27.6312 28.2361 27.645C28.2169 27.6603 28.1977 27.6755 28.1789 27.6911C28.1428 27.7211 28.1071 27.7518 28.0721 27.7833C28.0609 27.7933 28.0499 27.8035 28.0389 27.8135C27.9996 27.8494 27.9611 27.8861 27.9234 27.9236C27.8858 27.9614 27.849 28 27.8131 28.0394C27.8031 28.0502 27.7931 28.061 27.7833 28.072C27.7517 28.1073 27.7208 28.1431 27.6906 28.1794C27.6753 28.1979 27.6605 28.2167 27.6455 28.2354C27.6312 28.2534 27.6171 28.2715 27.603 28.2897C27.3341 28.6408 27.1287 29.0384 27.0009 29.4605C26.9996 29.4646 26.9978 29.4683 26.9964 29.4724C26.8936 29.8171 26.8415 30.1749 26.8418 30.5345C26.8418 31.5209 27.2259 32.4482 27.9234 33.1456ZM26.3898 28.5058C26.5848 28.1089 26.8359 27.7421 27.1355 27.4168L27.1494 27.4018C27.1898 27.3581 27.2309 27.3153 27.2729 27.2732C27.3151 27.2311 27.3581 27.1898 27.4019 27.1494C27.4067 27.145 27.4114 27.1405 27.4162 27.1361C27.7416 26.8364 28.1085 26.5852 28.5055 26.3901L19.6082 17.4927L19.6059 17.4972C19.5788 17.5522 19.5507 17.6067 19.5216 17.6606L19.5205 17.6625C19.3409 17.9943 19.121 18.3027 18.8659 18.5806C18.8599 18.5872 18.8539 18.5936 18.8479 18.6001C18.8082 18.6428 18.768 18.6851 18.7264 18.7267C18.6839 18.7691 18.6406 18.8106 18.5965 18.8512L18.5835 18.8634C18.258 19.1632 17.8909 19.4146 17.4937 19.6098L26.3898 28.5058ZM12.8539 18.0762C13.5513 18.7736 14.4786 19.1577 15.4649 19.1577C15.8245 19.158 16.1823 19.106 16.527 19.0032C16.531 19.0018 16.5349 19 16.539 18.9987C16.9616 18.8706 17.3599 18.6647 17.7114 18.3952C17.7285 18.382 17.7456 18.3687 17.7625 18.3552C17.7819 18.3398 17.8014 18.3243 17.8206 18.3085C17.8682 18.2688 17.9149 18.228 17.9605 18.186C17.9997 18.1502 18.0382 18.1136 18.0759 18.0761C18.1152 18.0366 18.1537 17.9961 18.1912 17.9548C18.1998 17.9454 18.2084 17.9361 18.2168 17.9267C18.2507 17.8888 18.2838 17.8502 18.3161 17.8109C18.3271 17.7975 18.3379 17.7841 18.3487 17.7705C18.3882 17.7211 18.4264 17.6708 18.4633 17.6194C18.4978 17.5715 18.5311 17.5228 18.5633 17.4733C18.5882 17.4351 18.6124 17.3963 18.6358 17.3572C18.6447 17.3424 18.6531 17.3274 18.6617 17.3125C18.6826 17.2764 18.7029 17.24 18.7225 17.2033C18.7275 17.1939 18.7327 17.1847 18.7376 17.1754C18.7631 17.1264 18.7875 17.0769 18.8108 17.0269L18.8168 17.014C19.4457 15.6493 19.1988 13.9771 18.0759 12.8541C17.4315 12.2097 16.5471 11.7938 15.6535 11.7032L17.3449 13.3945C17.402 13.4516 17.443 13.5227 17.4639 13.6007C17.4848 13.6787 17.4848 13.7608 17.4639 13.8388L16.7665 16.4416C16.7457 16.5196 16.7046 16.5907 16.6475 16.6478C16.5904 16.7049 16.5193 16.7459 16.4413 16.7668L13.8385 17.4642C13.7606 17.4851 13.6784 17.4851 13.6004 17.4642C13.5225 17.4433 13.4513 17.4023 13.3943 17.3452L11.7018 15.6527C11.7905 16.5368 12.1999 17.4222 12.8539 18.0762Z" fill="#242424"/>
<path d="M10.837 14.5034C10.8526 14.4212 10.8903 14.3449 10.946 14.2825C11.0018 14.2202 11.0735 14.1743 11.1534 14.1496C11.2333 14.125 11.3185 14.1227 11.3996 14.1428C11.4808 14.163 11.5549 14.2049 11.6141 14.264L13.857 16.507L15.9467 15.9471L16.5067 13.8574L14.2637 11.6144C14.2046 11.5553 14.1627 11.4811 14.1425 11.4C14.1224 11.3188 14.1247 11.2337 14.1494 11.1538C14.174 11.0738 14.2199 11.0021 14.2822 10.9464C14.3446 10.8906 14.4209 10.8529 14.5031 10.8373C14.7566 10.7891 15.0205 10.7646 15.2875 10.7646C16.5398 10.7646 17.8253 11.3026 18.7264 12.2037C19.8989 13.3761 20.3067 15.0278 19.9504 16.5339L29.4633 26.0468C29.8142 25.9638 30.1737 25.922 30.5344 25.9222C31.7664 25.9222 32.9246 26.402 33.7958 27.2732C34.9031 28.3804 35.4395 30.0381 35.1623 31.4964C35.1467 31.5786 35.109 31.655 35.0533 31.7173C34.9975 31.7796 34.9258 31.8256 34.8459 31.8502C34.7659 31.8748 34.6808 31.8772 34.5996 31.8571C34.5185 31.8369 34.4443 31.795 34.3852 31.7359L32.1422 29.4929L30.0525 30.0528L29.4926 32.1425L31.7356 34.3855C31.7947 34.4446 31.8366 34.5188 31.8567 34.5999C31.8769 34.6811 31.8745 34.7662 31.8499 34.8461C31.8253 34.9261 31.7793 34.9977 31.717 35.0535C31.6547 35.1093 31.5784 35.147 31.4962 35.1626C31.2427 35.2108 30.9787 35.2352 30.7117 35.2352C29.4595 35.2352 28.174 34.6973 27.2729 33.7962C26.4017 32.925 25.9218 31.7667 25.9219 30.5347C25.9219 30.1693 25.9644 29.8105 26.0465 29.4636L16.536 19.953C16.185 20.036 15.8256 20.0778 15.4649 20.0777C14.233 20.0777 13.0745 19.5978 12.2034 18.7267C11.0962 17.6194 10.5598 15.9617 10.837 14.5034ZM27.9234 33.1456C28.5677 33.79 29.4521 34.2059 30.3457 34.2965L28.6543 32.6052C28.5972 32.5481 28.5562 32.477 28.5353 32.399C28.5144 32.321 28.5144 32.2389 28.5353 32.1609L29.2326 29.5582C29.2535 29.4802 29.2946 29.4091 29.3517 29.352C29.4088 29.2949 29.4799 29.2538 29.5579 29.2329L32.1606 28.5356C32.2386 28.5147 32.3207 28.5147 32.3987 28.5356C32.4766 28.5565 32.5477 28.5975 32.6048 28.6546L34.2974 30.3471C34.2087 29.4631 33.7993 28.5775 33.1453 27.9236C32.4479 27.2262 31.5206 26.8421 30.5343 26.8421C30.1693 26.8421 29.8124 26.895 29.4722 26.9966C29.4682 26.998 29.4644 26.9999 29.4603 27.0011C29.0378 27.1291 28.6398 27.3348 28.2884 27.6042C28.2709 27.6176 28.2534 27.6312 28.2361 27.645C28.2169 27.6603 28.1977 27.6755 28.1789 27.6911C28.1428 27.7211 28.1071 27.7518 28.0721 27.7833C28.0609 27.7933 28.0499 27.8035 28.0389 27.8135C27.9996 27.8494 27.9611 27.8861 27.9234 27.9236C27.8858 27.9614 27.849 28 27.8131 28.0394C27.8031 28.0502 27.7931 28.061 27.7833 28.072C27.7517 28.1073 27.7208 28.1431 27.6906 28.1794C27.6753 28.1979 27.6605 28.2167 27.6455 28.2354C27.6312 28.2534 27.6171 28.2715 27.603 28.2897C27.3341 28.6408 27.1287 29.0384 27.0009 29.4605C26.9996 29.4646 26.9978 29.4683 26.9964 29.4724C26.8936 29.8171 26.8415 30.1749 26.8418 30.5345C26.8418 31.5209 27.2259 32.4482 27.9234 33.1456ZM26.3898 28.5058C26.5848 28.1089 26.8359 27.7421 27.1355 27.4168L27.1494 27.4018C27.1898 27.3581 27.2309 27.3153 27.2729 27.2732C27.3151 27.2311 27.3581 27.1898 27.4019 27.1494C27.4067 27.145 27.4114 27.1405 27.4162 27.1361C27.7416 26.8364 28.1085 26.5852 28.5055 26.3901L19.6082 17.4927L19.6059 17.4972C19.5788 17.5522 19.5507 17.6067 19.5216 17.6606L19.5205 17.6625C19.3409 17.9943 19.121 18.3027 18.8659 18.5806C18.8599 18.5872 18.8539 18.5936 18.8479 18.6001C18.8082 18.6428 18.768 18.6851 18.7264 18.7267C18.6839 18.7691 18.6406 18.8106 18.5965 18.8512L18.5835 18.8634C18.258 19.1632 17.8909 19.4146 17.4937 19.6098L26.3898 28.5058ZM12.8539 18.0762C13.5513 18.7736 14.4786 19.1577 15.4649 19.1577C15.8245 19.158 16.1823 19.106 16.527 19.0032C16.531 19.0018 16.5349 19 16.539 18.9987C16.9616 18.8706 17.3599 18.6647 17.7114 18.3952C17.7285 18.382 17.7456 18.3687 17.7625 18.3552C17.7819 18.3398 17.8014 18.3243 17.8206 18.3085C17.8682 18.2688 17.9149 18.228 17.9605 18.186C17.9997 18.1502 18.0382 18.1136 18.0759 18.0761C18.1152 18.0366 18.1537 17.9961 18.1912 17.9548C18.1998 17.9454 18.2084 17.9361 18.2168 17.9267C18.2507 17.8888 18.2838 17.8502 18.3161 17.8109C18.3271 17.7975 18.3379 17.7841 18.3487 17.7705C18.3882 17.7211 18.4264 17.6708 18.4633 17.6194C18.4978 17.5715 18.5311 17.5228 18.5633 17.4733C18.5882 17.4351 18.6124 17.3963 18.6358 17.3572C18.6447 17.3424 18.6531 17.3274 18.6617 17.3125C18.6826 17.2764 18.7029 17.24 18.7225 17.2033C18.7275 17.1939 18.7327 17.1847 18.7376 17.1754C18.7631 17.1264 18.7875 17.0769 18.8108 17.0269L18.8168 17.014C19.4457 15.6493 19.1988 13.9771 18.0759 12.8541C17.4315 12.2097 16.5471 11.7938 15.6535 11.7032L17.3449 13.3945C17.402 13.4516 17.443 13.5227 17.4639 13.6007C17.4848 13.6787 17.4848 13.7608 17.4639 13.8388L16.7665 16.4416C16.7457 16.5196 16.7046 16.5907 16.6475 16.6478C16.5904 16.7049 16.5193 16.7459 16.4413 16.7668L13.8385 17.4642C13.7606 17.4851 13.6784 17.4851 13.6004 17.4642C13.5225 17.4433 13.4513 17.4023 13.3943 17.3452L11.7018 15.6527C11.7905 16.5368 12.1999 17.4222 12.8539 18.0762Z" stroke="#242424" stroke-width="0.4" mask="url(#path-2-outside-1_643_8849)"/>
<path d="M20.2588 19.4682L20.2588 19.4683L26.5297 25.7393C26.7484 25.9579 26.7484 26.3125 26.5298 26.5312L26.5297 26.5312C26.4204 26.6405 26.277 26.6952 26.1338 26.6952C25.9906 26.6952 25.8471 26.6405 25.7378 26.5312L19.4668 20.2602C19.2482 20.0416 19.2482 19.687 19.4668 19.4683L19.4668 19.4683C19.6855 19.2496 20.0401 19.2497 20.2588 19.4682Z" fill="#C8553D" stroke="#C8553D" stroke-width="0.2"/>
</svg>
