<svg width="24" height="24" viewBox="0 0 24 24" fill="none" xmlns="http://www.w3.org/2000/svg">
<rect width="24" height="24" rx="12" fill="#0370F2" fill-opacity="0.24"/>
<path d="M11.6659 6.6665H7.99933C7.26296 6.6665 6.66602 7.26345 6.66602 7.99982V13.3333C6.66602 14.0697 7.26297 14.6666 7.99934 14.6666L12.8106 14.6666L15.3327 17.3332V14.6666L15.9994 14.6666C16.7357 14.6666 17.3327 14.0696 17.3327 13.3333V12.0001M17.3327 8.33331C17.3327 9.25377 16.5865 9.99995 15.666 9.99995C14.7456 9.99995 13.9994 9.25377 13.9994 8.33331C13.9994 7.41285 14.7456 6.66667 15.666 6.66667C16.5865 6.66667 17.3327 7.41285 17.3327 8.33331Z" stroke="#0370F2" stroke-width="1.5" stroke-linecap="round" stroke-linejoin="round"/>
</svg>
