<svg width="16" height="16" viewBox="0 0 16 16" fill="none" xmlns="http://www.w3.org/2000/svg">
<path d="M14.7616 13.2843C14.7616 13.2843 13.8573 14.1725 13.6357 14.4329C13.2747 14.8181 12.8494 15 12.2918 15C12.2382 15 12.181 15 12.1274 14.9964C11.0658 14.9287 10.0794 14.5149 9.33952 14.1618C7.31653 13.1845 5.54016 11.7969 4.06403 10.0385C2.84523 8.57248 2.03032 7.21707 1.49062 5.76178C1.15822 4.87363 1.0367 4.18166 1.09031 3.52892C1.12605 3.11159 1.28689 2.76561 1.58355 2.46955L2.80234 1.25325C2.97748 1.08917 3.16333 1 3.34562 1C3.57079 1 3.75307 1.13554 3.86745 1.24968C3.87102 1.25325 3.8746 1.25682 3.87817 1.26038C4.0962 1.46369 4.3035 1.67414 4.52152 1.89885C4.63232 2.01299 4.7467 2.12713 4.86107 2.24484L5.83682 3.2186C6.21568 3.59669 6.21568 3.94624 5.83682 4.32433C5.73317 4.42777 5.63309 4.53121 5.52944 4.63108C5.22921 4.93783 5.46506 4.70247 5.15411 4.98068C5.14696 4.98782 5.13981 4.99138 5.13623 4.99852C4.82886 5.30527 4.88604 5.60489 4.95038 5.8082C4.95395 5.8189 4.95753 5.8296 4.9611 5.8403C5.21487 6.4538 5.57228 7.03164 6.11556 7.72004L6.11913 7.72361C7.10561 8.93635 8.1457 9.88157 9.29301 10.6057C9.43955 10.6984 9.58966 10.7733 9.73263 10.8446C9.8613 10.9088 9.98282 10.9695 10.0865 11.0337C10.1008 11.0408 10.1151 11.0515 10.1294 11.0586C10.2509 11.1193 10.3653 11.1478 10.4832 11.1478C10.7799 11.1478 10.9657 10.9623 11.0265 10.9017L11.7271 10.2025C11.8486 10.0813 12.0416 9.93503 12.2668 9.93503C12.4884 9.93503 12.6707 10.0741 12.7815 10.1954C12.785 10.199 12.785 10.199 12.7886 10.2025L14.758 12.1679C15.1261 12.5317 14.7616 13.2843 14.7616 13.2843Z" stroke="#0370F2" stroke-width="1.5" stroke-linecap="round" stroke-linejoin="round"/>
</svg>
