<svg width="32" height="32" viewBox="0 0 32 32" fill="none" xmlns="http://www.w3.org/2000/svg">
<g id="credit-card 1">
<path id="Vector" d="M29.5 5.5H2.5C1.673 5.5 1 6.173 1 7V25C1 25.827 1.673 26.5 2.5 26.5H29.5C30.327 26.5 31 25.827 31 25V7C31 6.173 30.327 5.5 29.5 5.5Z" fill="#4D4D4D"/>
<path id="Vector_2" d="M8.5 25.5C5.88 25.5 3.3605 25.1585 1 24.536V25C1 25.827 1.673 26.5 2.5 26.5H29.5C30.327 26.5 31 25.827 31 25V12.9575C27.6045 20.2815 18.813 25.5 8.5 25.5Z" fill="#3E3E3E"/>
<path id="Vector_3" d="M1 10.5H31V15.5H1V10.5Z" fill="#3EBBDD"/>
<path id="Vector_4" d="M3 7.5H4V8.5H3V7.5ZM5 7.5H6V8.5H5V7.5ZM7 7.5H8V8.5H7V7.5ZM9 7.5H10V8.5H9V7.5ZM28.5 21.5H24.5C24.3674 21.5 24.2402 21.5527 24.1464 21.6464C24.0527 21.7402 24 21.8674 24 22V24C24 24.1326 24.0527 24.2598 24.1464 24.3536C24.2402 24.4473 24.3674 24.5 24.5 24.5H28.5C28.6326 24.5 28.7598 24.4473 28.8536 24.3536C28.9473 24.2598 29 24.1326 29 24V22C29 21.8674 28.9473 21.7402 28.8536 21.6464C28.7598 21.5527 28.6326 21.5 28.5 21.5ZM22.5 21.5H18.5C18.3674 21.5 18.2402 21.5527 18.1464 21.6464C18.0527 21.7402 18 21.8674 18 22V24C18 24.1326 18.0527 24.2598 18.1464 24.3536C18.2402 24.4473 18.3674 24.5 18.5 24.5H22.5C22.6326 24.5 22.7598 24.4473 22.8536 24.3536C22.9473 24.2598 23 24.1326 23 24V22C23 21.8674 22.9473 21.7402 22.8536 21.6464C22.7598 21.5527 22.6326 21.5 22.5 21.5ZM3.5 22.5H11V23.5H3.5V22.5Z" fill="white"/>
</g>
</svg>
