<svg width="32" height="32" viewBox="0 0 32 32" fill="none" xmlns="http://www.w3.org/2000/svg">
<path d="M15.9999 0.195926C19.1257 0.195926 22.1813 1.12282 24.7802 2.85939C27.3792 4.59597 29.4048 7.06423 30.601 9.95205C31.7972 12.8399 32.1102 16.0175 31.5004 19.0832C30.8906 22.1489 29.3854 24.9649 27.1751 27.1752C24.9649 29.3854 22.1489 30.8906 19.0832 31.5004C16.0175 32.1102 12.8398 31.7972 9.95199 30.6011C7.06417 29.4049 4.59591 27.3792 2.85933 24.7803C1.12276 22.1813 0.195865 19.1258 0.195865 16C0.189939 13.9229 0.594678 11.8652 1.38681 9.94504C2.17894 8.02493 3.34283 6.28035 4.81156 4.81162C6.28028 3.34289 8.02487 2.179 9.94498 1.38687C11.8651 0.594739 13.9229 0.19 15.9999 0.195926Z" fill="#EA4335"/>
<path d="M9.98956 22.5104L22.0104 10.4896" stroke="white" stroke-width="2" stroke-linecap="round"/>
<path d="M9.98956 10.4896L22.0104 22.5104" stroke="white" stroke-width="2" stroke-linecap="round"/>
</svg>
