<svg width="24" height="24" viewBox="0 0 24 24" fill="none" xmlns="http://www.w3.org/2000/svg">
<g id="users-profiles-right">
<path id="Icon" d="M4 20L4.00034 16.9997C4.00052 15.3429 5.34361 14 7.00034 14H12M16.5 4C17.7135 4.68023 18.5 5.77073 18.5 7C18.5 8.22927 17.7135 9.31977 16.5 10M14 7C14 8.65685 12.6569 10 11 10C9.34314 10 8 8.65685 8 7C8 5.34315 9.34314 4 11 4C12.6569 4 14 5.34315 14 7Z" stroke="#1A2E35" stroke-width="1.5" stroke-linecap="round" stroke-linejoin="round"/>
<path id="Icon_2" d="M17.8571 13.25L20 15.25M20 15.25L17.8571 17.25M20 15.25H14.5" stroke="#C8553D" stroke-width="1.5" stroke-linecap="round" stroke-linejoin="round"/>
</g>
</svg>
