<svg width="36" height="36" viewBox="0 0 36 36" fill="none" xmlns="http://www.w3.org/2000/svg">
<rect width="36" height="36" rx="18" fill="#0370F2" fill-opacity="0.1"/>
<path d="M23.8307 15.5V22.8333C23.8307 23.7668 23.8307 24.2335 23.6491 24.59C23.4893 24.9036 23.2343 25.1586 22.9207 25.3183C22.5642 25.5 22.0975 25.5 21.1641 25.5H14.8307C13.8973 25.5 13.4306 25.5 13.0741 25.3183C12.7605 25.1586 12.5055 24.9036 12.3457 24.59C12.1641 24.2335 12.1641 23.7668 12.1641 22.8333V13.1667C12.1641 12.2332 12.1641 11.7665 12.3457 11.41C12.5055 11.0964 12.7605 10.8414 13.0741 10.6817C13.4306 10.5 13.8973 10.5 14.8307 10.5H18.8307M23.8307 15.5L18.8307 10.5M23.8307 15.5H21.4974C20.564 15.5 20.0973 15.5 19.7407 15.3183C19.4271 15.1586 19.1722 14.9036 19.0124 14.59C18.8307 14.2335 18.8307 13.7668 18.8307 12.8333V10.5" stroke="#0370F2" stroke-width="1.5" stroke-linecap="round" stroke-linejoin="round"/>
<path d="M15.5 17.375H18" stroke="#0370F2" stroke-width="1.5" stroke-linecap="round"/>
<path d="M15.5 19.875H20.5" stroke="#0370F2" stroke-width="1.5" stroke-linecap="round"/>
<path d="M15.5 22.375H20.5" stroke="#0370F2" stroke-width="1.5" stroke-linecap="round"/>
</svg>
