<svg width="34" height="34" viewBox="0 0 34 34" fill="none" xmlns="http://www.w3.org/2000/svg">
<path d="M17.8503 21.6747L16.0087 20.1163C15.867 19.833 15.7253 19.833 15.5837 19.833C15.442 19.833 15.1587 19.9747 15.1587 20.1163L11.617 24.3663C11.3337 24.508 11.3337 24.6497 11.3337 24.7913C11.3337 25.2163 11.617 25.4997 12.042 25.4997C12.1837 25.4997 12.467 25.358 12.6087 25.2163L15.7253 21.533L17.567 23.233C17.7087 23.3747 17.8503 23.3747 18.1337 23.3747C18.2753 23.3747 18.5587 23.233 18.5587 23.0913L22.5253 18.133C22.8087 17.8497 22.667 17.4247 22.3837 17.1413C22.1003 16.858 21.6753 16.9997 21.392 17.283L17.8503 21.6747ZM28.3337 11.758C28.3337 11.6163 28.192 11.6163 28.192 11.4747L19.692 2.97467C19.692 2.97467 19.5503 2.83301 19.4087 2.83301C19.267 2.83301 19.267 2.83301 19.1253 2.83301H9.91699C7.50866 2.83301 5.66699 4.67467 5.66699 7.08301V26.9163C5.66699 29.3247 7.50866 31.1663 9.91699 31.1663H24.0837C26.492 31.1663 28.3337 29.3247 28.3337 26.9163V12.0413C28.3337 11.8997 28.3337 11.8997 28.3337 11.758ZM19.8337 5.24134L25.9253 11.333H21.6753C20.6837 11.333 19.8337 10.483 19.8337 9.49134V5.24134ZM26.917 26.9163C26.917 28.4747 25.642 29.7497 24.0837 29.7497H9.91699C8.35866 29.7497 7.08366 28.4747 7.08366 26.9163V7.08301C7.08366 5.52467 8.35866 4.24967 9.91699 4.24967H18.417V9.49134C18.417 11.333 19.8337 12.7497 21.6753 12.7497H26.917V26.9163ZM12.042 12.7497H14.8753C15.3003 12.7497 15.5837 12.4663 15.5837 12.0413C15.5837 11.6163 15.3003 11.333 14.8753 11.333H12.042C11.617 11.333 11.3337 11.6163 11.3337 12.0413C11.3337 12.4663 11.617 12.7497 12.042 12.7497Z" fill="#949494"/>
</svg>
