<svg width="252" height="127" viewBox="0 0 252 127" fill="none" xmlns="http://www.w3.org/2000/svg">
<path d="M172.262 36.4765H134.397V121.322H172.262V36.4765Z" fill="#E3EFFF"/>
<path d="M143.356 41.6799H137.453V51.4065H143.356V41.6799Z" fill="#BFDAFF"/>
<path d="M160.59 41.6799H154.687V51.4065H160.59V41.6799Z" fill="#BFDAFF"/>
<path d="M169.429 51.6293H163.081V41.4571H169.429V51.6293ZM163.527 51.1838H168.983V41.9026H163.527V51.1838ZM143.579 64.7944H137.231V54.6223H143.579V64.7944ZM137.676 64.3489H143.133V55.0678H137.676V64.3489ZM152.196 64.7944H145.847V54.6223H152.196V64.7944ZM146.293 64.3489H151.75V55.0678H146.293V64.3489Z" fill="#BFDAFF"/>
<path d="M169.207 54.845H163.304V64.5717H169.207V54.845Z" fill="#BFDAFF"/>
<path d="M45.1206 66.7695H18.7725V121.322H45.1206V66.7695Z" fill="#E3EFFF"/>
<path d="M82.3098 38.2005H38.9312V121.322H82.3098V38.2005Z" fill="#E3EFFF"/>
<path d="M25.9591 77.1503H21.5479V70.1708H25.9591V77.1503ZM21.9934 76.7048H25.5136V70.6163H21.9934V76.7048Z" fill="#BFDAFF"/>
<path d="M31.5255 70.3928H27.5599V76.9275H31.5255V70.3928Z" fill="#BFDAFF"/>
<path d="M43.1032 70.3928H39.1376V76.9275H43.1032V70.3928Z" fill="#BFDAFF"/>
<path d="M25.7363 80.686H21.7706V87.2207H25.7363V80.686Z" fill="#BFDAFF"/>
<path d="M37.3148 80.686H33.3491V87.2207H37.3148V80.686Z" fill="#BFDAFF"/>
<path d="M37.5368 97.7366H33.1263V90.7572H37.5368V97.7366ZM33.5718 97.2911H37.0913V91.2027H33.5718V97.2911Z" fill="#BFDAFF"/>
<path d="M25.7363 101.272H21.7706V107.807H25.7363V101.272Z" fill="#BFDAFF"/>
<path d="M31.7483 108.033H27.3371V101.053H31.7483V108.033ZM27.7826 107.587H31.3028V101.499H27.7826V107.587Z" fill="#BFDAFF"/>
<path d="M43.1032 101.272H39.1376V107.807H43.1032V101.272Z" fill="#BFDAFF"/>
<path d="M31.5255 111.566H27.5599V118.1H31.5255V111.566Z" fill="#BFDAFF"/>
<path d="M139.977 69.3222H113.629V121.322H139.977V69.3222Z" fill="#E3EFFF"/>
<path d="M151.973 68.0102H146.07V77.7368H151.973V68.0102Z" fill="#BFDAFF"/>
<path d="M160.59 68.0102H154.687V77.7368H160.59V68.0102Z" fill="#BFDAFF"/>
<path d="M169.207 68.0102H163.304V77.7368H169.207V68.0102Z" fill="#BFDAFF"/>
<path d="M228.623 74.7164H199.72V121.322H228.623V74.7164Z" fill="#E3EFFF"/>
<path d="M197.012 51.8453H170.664V121.322H197.012V51.8453Z" fill="#E3EFFF"/>
<path d="M222.219 79.057L226.963 78.4066C227.089 77.7517 227.206 77.081 227.314 76.3944L222.043 73.6472L227.749 73.0391C228.124 69.3145 228.151 65.563 227.829 61.8334L225.504 61.1956L227.696 60.4739C227.394 57.718 226.904 54.986 226.23 52.2968C226.23 52.2968 223.195 55.638 220.169 61.0649L223.193 62.6902L219.104 63.0741C217.159 66.9239 215.37 71.5979 214.585 76.7456L219.91 77.8965L214.227 80.1239C213.983 83.9913 214.425 87.8713 215.531 91.5851L221.299 94.4808C221.299 94.4808 224.391 89.4318 226.391 81.0699L222.219 79.057Z" fill="#008B86"/>
<path d="M214.311 85.337C214.51 87.4542 214.918 89.5466 215.529 91.5836L221.297 94.4793C221.297 94.4793 222.276 92.8807 223.487 89.9939L214.311 85.337Z" fill="#006360"/>
<path d="M226.13 52.2705L217.241 92.4647L217.407 92.5014L226.296 52.3072L226.13 52.2705Z" fill="black"/>
<path d="M216.734 68.5773L216.655 68.7279L221.97 71.5145L222.049 71.3639L216.734 68.5773Z" fill="black"/>
<path d="M228.006 65.455L222.908 67.1254L222.961 67.287L228.059 65.6166L228.006 65.455Z" fill="black"/>
<path d="M219.18 84.1029L219.151 84.2705L225.21 85.3104L225.239 85.1428L219.18 84.1029Z" fill="black"/>
<path d="M58.3993 74.3496L56.1325 69.2197C55.3559 69.2895 54.5639 69.3746 53.7565 69.4751L52.3725 76.2994L49.8421 70.0728C45.5269 70.8553 41.2941 72.039 37.1989 73.6086L37.2331 76.43L35.7139 74.1988C32.7095 75.4306 29.7926 76.8659 26.9837 78.4949C26.9837 78.4949 31.729 80.8301 38.8161 82.4806L39.6647 78.5513L41.42 83.0308C46.3828 83.9753 52.2225 84.4757 58.2746 83.6931L57.8402 77.3262L62.1853 83.0033C66.3863 82.0604 70.6186 80.4261 74.6651 77.8267L76.0595 70.3951C76.0595 70.3951 69.3719 68.55 59.3156 69.0036L58.3993 74.3496Z" fill="#005955"/>
<path d="M68.028 81.2184C70.3468 80.3089 72.5702 79.1729 74.6659 77.8267L76.0603 70.3951C76.0603 70.3951 73.9442 69.8115 70.3023 69.3808L68.028 81.2184Z" fill="#00403D"/>
<path d="M75.0966 75.408L26.9736 78.4019L26.9849 78.5834L75.1079 75.5895L75.0966 75.408Z" fill="black"/>
<path d="M41.3624 72.1334L41.2119 72.2356L44.7425 77.4346L44.893 77.3324L41.3624 72.1334Z" fill="black"/>
<path d="M64.4704 68.9423L64.2896 68.9622L65.0797 76.1187L65.2605 76.0987L64.4704 68.9423Z" fill="black"/>
<path d="M129.342 62.0294L133.543 65.747C134.22 65.3585 134.905 64.9506 135.598 64.5234L134.01 57.743L138.906 62.3464C142.502 59.8368 145.855 56.9965 148.922 53.8627L147.714 51.3108L150.028 52.7066C152.246 50.3345 154.299 47.8139 156.173 45.1622C156.173 45.1622 150.887 45.0174 143.756 46.4719L144.624 50.3975L141.16 47.0563C136.255 48.2673 130.738 50.249 125.568 53.4796L128.612 59.0884L122.295 55.739C118.87 58.3474 115.704 61.5973 113.11 65.6476L114.938 72.9871C114.938 72.9871 121.786 71.8734 130.738 67.2699L129.342 62.0294Z" fill="#005955"/>
<path d="M117.729 59.7997C116 61.5928 114.453 63.5524 113.109 65.6498L114.938 72.9871C114.938 72.9871 117.105 72.6352 120.594 71.5081L117.729 59.7997Z" fill="#00403D"/>
<path d="M156.132 45.0791L113.639 67.8636L113.725 68.0239L156.218 45.2394L156.132 45.0791Z" fill="black"/>
<path d="M140.469 53.5288L140.375 53.6844L145.751 56.938L145.846 56.7824L140.469 53.5288Z" fill="black"/>
<path d="M122.538 63.206L122.382 63.2995L126.082 69.4756L126.238 69.3821L122.538 63.206Z" fill="black"/>
<path d="M235.009 90.6629L238.468 92.6929C238.89 92.3276 239.314 91.9472 239.741 91.5517L237.694 87.0121L241.764 89.5692C243.941 87.3128 245.903 84.8578 247.623 82.2363L246.424 80.6118L248.241 81.2726C249.47 79.3024 250.563 77.2508 251.513 75.1322C251.513 75.1322 247.783 75.7588 242.98 77.7613L244.13 80.3964L241.236 78.5298C237.961 80.0549 234.363 82.2044 231.178 85.1855L234.087 88.702L229.194 87.2214C227.029 89.6402 225.309 92.4223 224.113 95.4394L226.408 100.335C226.408 100.335 231.064 98.6128 236.707 94.1482L235.009 90.6629Z" fill="#005955"/>
<path d="M224.116 95.4394L226.411 100.335C226.411 100.335 228.374 99.6085 231.297 97.8755L226.441 90.8708C225.523 92.3167 224.745 93.8464 224.116 95.4394Z" fill="#00403D"/>
<path d="M251.463 75.0754L224.785 96.919L224.893 97.0505L251.571 75.207L251.463 75.0754Z" fill="black"/>
<path d="M237.921 80.2753L237.755 80.3095L238.816 85.4725L238.983 85.4382L237.921 80.2753Z" fill="black"/>
<path d="M242.474 82.5051L242.415 82.6645L246.369 84.1348L246.428 83.9755L242.474 82.5051Z" fill="black"/>
<path d="M231.715 91.4134L231.606 91.5442L235.697 94.9429L235.806 94.8121L231.715 91.4134Z" fill="black"/>
<path d="M60.3566 95.3302L57.9524 91.294C57.3133 91.4316 56.6627 91.5826 56.0003 91.7469L55.5385 97.5636L52.8047 92.6424C49.2966 93.7294 45.8978 95.1419 42.6525 96.8612L42.9666 99.2045L41.4757 97.502C39.1019 98.8299 36.8216 100.318 34.6507 101.957C34.6507 101.957 38.8324 103.419 44.8919 104.074L45.2 100.721L47.1127 104.268C51.3353 104.551 56.2409 104.377 61.1919 103.115L60.1932 97.8606L64.3801 102.142C67.9667 100.88 71.3022 98.995 74.233 96.5731L74.6406 90.253C74.6406 90.253 68.8937 89.3947 60.5778 90.7899L60.3566 95.3302Z" fill="#00A6A0"/>
<path d="M74.233 96.5761L74.6406 90.256C74.6406 90.256 72.2149 89.8937 68.2366 90.0229L69.2672 99.9522C71.0255 98.9865 72.6883 97.856 74.233 96.5761Z" fill="#008B86"/>
<path d="M74.3466 94.5029L34.6372 101.863L34.6704 102.041L74.3798 94.6818L74.3466 94.5029Z" fill="black"/>
<path d="M53.34 98.4427L51.5174 104.341L51.6912 104.395L53.5138 98.4964L53.34 98.4427Z" fill="black"/>
<path d="M45.0193 95.642L44.8816 95.7608L48.1103 99.5014L48.248 99.3825L45.0193 95.642Z" fill="black"/>
<path d="M62.0586 90.5429L61.8893 90.6095L64.1694 96.4067L64.3387 96.3401L62.0586 90.5429Z" fill="black"/>
<path d="M125.758 44.6491L129.952 46.7645C130.418 46.3056 130.886 45.8292 131.356 45.3352L128.624 40.1815L133.575 42.8671C135.951 40.0668 138.06 37.0505 139.875 33.8577L138.352 32.0482L140.524 32.6853C141.814 30.2896 142.939 27.8089 143.891 25.2604C143.891 25.2604 139.578 26.2709 134.114 28.9728L135.654 31.9688L132.136 30.0019C128.423 32.0297 124.375 34.8096 120.875 38.5317L124.537 42.4253L118.706 41.0599C116.356 44.0487 114.553 47.4289 113.379 51.0449L116.423 56.5966C116.423 56.5966 121.733 54.2362 128.001 48.5969L125.758 44.6491Z" fill="#00A6A0"/>
<path d="M113.379 51.0449L116.423 56.5966C116.423 56.5966 118.664 55.6001 121.952 53.3563L115.755 45.5312C114.79 47.2897 113.994 49.136 113.379 51.0449Z" fill="#008B86"/>
<path d="M143.836 25.2081L114.276 52.7253L114.4 52.8585L143.96 25.3413L143.836 25.2081Z" fill="black"/>
<path d="M128.378 32.3086L128.202 32.3566L129.829 38.3122L130.005 38.2642L128.378 32.3086Z" fill="black"/>
<path d="M133.859 34.5555L133.807 34.7297L138.539 36.1538L138.591 35.9796L133.859 34.5555Z" fill="black"/>
<path d="M121.959 45.7809L121.852 45.9279L126.887 49.5957L126.994 49.4486L121.959 45.7809Z" fill="black"/>
<path d="M202.313 75.6103L206.284 75.0438C206.386 74.4949 206.481 73.9328 206.569 73.3576L202.14 71.0819L206.917 70.5465C207.214 67.4252 207.22 64.283 206.933 61.1607L204.983 60.6372L206.816 60.0224C206.55 57.7155 206.129 55.4293 205.553 53.1796C205.553 53.1796 203.029 55.9937 200.516 60.5518L203.056 61.898L199.632 62.2373C198.02 65.4708 196.543 69.3934 195.909 73.7088L200.374 74.6481L195.622 76.5384C195.436 79.7787 195.823 83.0265 196.766 86.1322L201.611 88.5327C201.611 88.5327 204.177 84.2879 205.815 77.2772L202.313 75.6103Z" fill="#00A6A0"/>
<path d="M196.766 86.1292L201.611 88.5297C201.611 88.5297 202.694 86.7381 203.902 83.5617L195.74 81.1063C195.922 82.8093 196.266 84.4911 196.766 86.1292Z" fill="#008B86"/>
<path d="M205.483 53.1695L198.208 86.8733L198.375 86.9091L205.649 53.2054L205.483 53.1695Z" fill="black"/>
<path d="M198.121 65.6695L198.012 65.8001L202.059 69.1776L202.168 69.047L198.121 65.6695Z" fill="black"/>
<path d="M207.06 63.2708L203.051 64.5833L203.104 64.7449L207.113 63.4324L207.06 63.2708Z" fill="black"/>
<path d="M200.226 78.2581L200.222 78.4281L205.54 78.5395L205.543 78.3695L200.226 78.2581Z" fill="black"/>
<path d="M64.1871 41.6004L65.9186 37.1945C65.4152 36.7698 64.8937 36.3446 64.3541 35.9189L59.4374 39.1398L61.6715 33.9253C58.6418 31.8004 55.4202 29.9632 52.0488 28.4375L50.3752 30.1333L50.8118 27.8947C48.2892 26.8229 45.6963 25.9246 43.0513 25.2062C43.0513 25.2062 44.4672 29.4384 47.6837 34.6715L50.5453 32.8486L48.8991 36.5611C51.2788 40.0998 54.4448 43.9007 58.5048 47.0659L62.0688 43.0297L61.2416 49.0068C64.4593 51.086 68.0187 52.5808 71.7561 53.4224L77.0434 49.8473C77.0434 49.8473 74.1803 44.7419 67.9382 38.9809L64.1871 41.6004Z" fill="#008B86"/>
<path d="M70.3884 41.3725L67.4637 52.1438C68.8628 52.6704 70.2971 53.0984 71.756 53.4246L77.0433 49.8495C77.0433 49.8495 74.9332 46.0851 70.3884 41.3725Z" fill="#006360"/>
<path d="M43.1098 25.14L42.9887 25.2758L73.355 52.3692L73.4761 52.2335L43.1098 25.14Z" fill="black"/>
<path d="M56.8346 30.898L55.4932 36.3678L55.6698 36.4111L57.0113 30.9414L56.8346 30.898Z" fill="black"/>
<path d="M60.0966 40.3662L53.9045 42.8191L53.9715 42.9882L60.1636 40.5353L60.0966 40.3662Z" fill="black"/>
<path d="M67.1124 46.7051L64.7359 50.9644L64.8948 51.0531L67.2713 46.7938L67.1124 46.7051Z" fill="black"/>
<path d="M111.142 28.1115H77.1614C73.8312 28.1115 71.1316 30.8112 71.1316 34.1413V115.292C71.1316 118.622 73.8312 121.322 77.1614 121.322H111.142C114.472 121.322 117.171 118.622 117.171 115.292V34.1413C117.171 30.8112 114.472 28.1115 111.142 28.1115Z" fill="#231F20"/>
<path d="M111.142 29.7057H77.1614C74.7121 29.7057 72.7265 31.6913 72.7265 34.1406V115.292C72.7265 117.741 74.7121 119.727 77.1614 119.727H111.142C113.592 119.727 115.577 117.741 115.577 115.292V34.1406C115.577 31.6913 113.592 29.7057 111.142 29.7057Z" fill="#FFE9D1"/>
<path d="M115.577 41.201H72.7265V108.708H115.577V41.201Z" fill="white"/>
<path d="M246.563 121.064H12.4308V121.579H246.563V121.064Z" fill="#231F20"/>
<path d="M217.958 37.4974H213.763V37.7016H217.958V37.4974Z" fill="black"/>
<path d="M215.962 35.5023H215.758V39.6974H215.962V35.5023Z" fill="black"/>
<path d="M71.8466 14.065H67.6516V14.2692H71.8466V14.065Z" fill="black"/>
<path d="M69.8508 12.07H69.6466V16.2651H69.8508V12.07Z" fill="black"/>
<path d="M22.9675 40.97H18.7725V41.1742H22.9675V40.97Z" fill="black"/>
<path d="M20.9717 38.9742H20.7675V43.1693H20.9717V38.9742Z" fill="black"/>
<path d="M226.075 25.9947H223.758V26.1989H226.075V25.9947Z" fill="black"/>
<path d="M225.019 24.9381H224.814V27.2554H225.019V24.9381Z" fill="black"/>
<path d="M237.129 63.4015H234.812V63.6057H237.129V63.4015Z" fill="black"/>
<path d="M236.073 62.3457H235.869V64.663H236.073V62.3457Z" fill="black"/>
<path d="M28.6165 50.0507H26.2991V50.2549H28.6165V50.0507Z" fill="black"/>
<path d="M27.5598 48.9942H27.3557V51.3115H27.5598V48.9942Z" fill="black"/>
<path d="M141.136 16.2651H138.819V16.4692H141.136V16.2651Z" fill="black"/>
<path d="M140.08 15.2085H139.875V17.5258H140.08V15.2085Z" fill="black"/>
<mask id="mask0_198_570" style="mask-type:luminance" maskUnits="userSpaceOnUse" x="72" y="41" width="44" height="68">
<path d="M115.577 41.201H72.7265V108.708H115.577V41.201Z" fill="white"/>
</mask>
<g mask="url(#mask0_198_570)">
<path d="M66.6108 73.1893L59.8215 81.9261L76.2675 94.7059L83.0567 85.9691L66.6108 73.1893Z" fill="#FFD3A3"/>
<path d="M107.831 97.9418L101.042 106.679L117.488 119.458L124.277 110.722L107.831 97.9418Z" fill="white"/>
<path d="M68.9963 72.0152L85.199 81.9045L97.8733 64.1039L80.3594 53.4492L68.9963 72.0152Z" fill="#FFD3A3"/>
<path d="M82.3099 94.9738L92.4323 82.2156L108.109 96.2584L95.1038 108.334L82.3099 94.9738Z" fill="#FFD3A3"/>
<path d="M95.6606 74.7164L104.908 61.8015L119.923 70.5985L108.935 83.2699L95.6606 74.7164Z" fill="#FFD3A3"/>
<path d="M100.893 86.6126L103.248 83.5825L119.281 89.6353L112.062 97.5028L100.893 86.6126Z" fill="#FFD3A3"/>
<path d="M84.1899 51.8454L98.9618 61.2802L110.087 49.1887L99.7815 41.201L84.1899 51.8454Z" fill="#FFD3A3"/>
<path d="M63.1885 43.7336L68.4966 56.2187L92.6053 43.3735L89.9049 28.4761L63.1885 43.7336Z" fill="#FFD3A3"/>
<path d="M108.109 58.265L117.675 44.4977L131.681 55.3819L121.825 68.0637L108.109 58.265Z" fill="#FFD3A3"/>
<path d="M112.161 84.1743L132.396 58.138L142.415 64.3868L125.382 89.9293L112.161 84.1743Z" fill="#FFD3A3"/>
<path d="M100.418 36.7208L111.695 46.9761L123.454 32.914L115.59 24.4823L100.418 36.7208Z" fill="#FFD3A3"/>
<path d="M71.439 109.692C72.1771 108.955 79.9413 97.8978 79.9413 97.8978L91.7982 112.933L84.9376 121.762L71.439 109.692Z" fill="#FFD3A3"/>
<path d="M69.0163 106.338L74.8419 97.1894L61.0538 86.4738L56.8446 99.5877L69.0163 106.338Z" fill="#FFD3A3"/>
</g>
<path d="M229.166 112.081H104.989L101.73 109.853V101.876L105.245 100.16V89.8692C105.245 89.8692 111.334 77.3485 119.139 69.458C119.139 69.458 143.779 64.4662 170.767 68.0859C170.767 68.0859 182.001 73.0606 195.466 84.2091C195.466 84.2091 217.163 88.497 227.969 95.1008C227.969 95.1008 230.197 98.8741 232.342 103.505L229.166 112.081Z" fill="#FF4202"/>
<path d="M105.242 91.842H114.247L116.991 97.0446H105.242V91.842Z" fill="#FF0602"/>
<path d="M176.994 76.5095L181.625 79.6747L176.006 84.0376H128.338L132.496 73.7288C132.496 73.7288 134.167 70.825 136.225 70.848C138.283 70.871 153.981 70.848 153.981 70.848H169.614L173.96 75.6742L176.994 76.5095Z" fill="#E3EFFF"/>
<path d="M124.967 84.0376C124.967 84.0376 129.083 75.6326 133.802 69.5442C133.802 69.5442 151.469 68.172 169.993 69.7157C169.993 69.7157 182.514 76.7478 191.433 84.0376H176.006L177.194 80.0066L168.146 73.3175C153.266 73.6605 134.228 75.7187 134.228 75.7187L137.375 84.0347L124.967 84.0376Z" fill="#414042"/>
<path d="M133.797 69.5442C133.797 69.5442 151.464 68.172 169.988 69.7157C169.988 69.7157 182.509 76.7478 191.428 84.0376H183.307C176.402 74.7075 168.39 70.848 168.39 70.848H134.1L129.68 84.0376H124.967C124.967 84.0376 129.083 75.6326 133.797 69.5442Z" fill="#58595B"/>
<path d="M231.13 100.991C228.903 100.874 225.601 100.649 222.648 100.248C217.617 99.5624 217.159 96.7038 217.102 94.8171C217.045 92.9305 218.817 92.1872 224.135 94.4169C226.486 95.403 228.041 96.3096 229.046 97.0157C229.61 98.0388 230.345 99.4199 231.13 100.991Z" fill="#FFB964"/>
<path d="M117.821 70.848L121.58 73.146L114.804 84.0376H108.419C110.688 80.167 114.006 75.0468 117.821 70.848Z" fill="#414042"/>
<path d="M171.763 87.4108H165.017V87.9253H171.763V87.4108Z" fill="#231F20"/>
<path d="M137.473 87.4108H130.727V87.9253H137.473V87.4108Z" fill="#231F20"/>
<path d="M155.639 68.991L163.401 84.0376H158.555L152.508 68.991C154.244 68.9917 153.76 68.9516 155.639 68.991Z" fill="#231F20"/>
<path d="M154.472 68.8689L154.005 69.0844L160.953 84.1481L161.42 83.9326L154.472 68.8689Z" fill="black"/>
<path d="M192.153 84.2945H124.555L124.736 83.9233C124.777 83.8394 128.918 75.4254 133.597 69.386L133.667 69.2954L133.78 69.2865C133.854 69.2813 141.143 68.7237 151.103 68.7237C157.802 68.7237 164.165 68.9709 170.012 69.458L170.068 69.4632L170.117 69.4907C170.243 69.5649 182.76 76.6186 191.594 83.8379L192.153 84.2945ZM125.383 83.78H190.705C182.23 76.978 170.759 70.4455 169.915 69.9696C164.096 69.4862 157.769 69.2412 151.104 69.2412C141.843 69.2412 134.897 69.7238 133.935 69.7944C129.874 75.0601 126.231 82.1005 125.383 83.78Z" fill="#C73302"/>
<path d="M189.346 82.768C188.851 84.5863 185.462 84.965 182.755 84.7296C180.048 84.4943 178.82 82.1123 179.989 79.374C180.97 77.0775 184.221 77.6136 186.953 79.374C189.267 80.8649 189.499 82.2051 189.346 82.768ZM232.339 103.504L229.166 112.079H104.989L101.73 109.852V101.876H231.565C231.822 102.403 232.08 102.946 232.339 103.504Z" fill="#FF622B"/>
<path d="M229.133 112.081H105.02C104.049 112.081 103.262 112.868 103.262 113.838C103.262 114.809 104.049 115.596 105.02 115.596H229.133C230.104 115.596 230.891 114.809 230.891 113.838C230.891 112.868 230.104 112.081 229.133 112.081Z" fill="#FF2402"/>
<path d="M228.88 108.451H102.984V108.965H228.88V108.451Z" fill="#C73302"/>
<path d="M191.594 84.1299L186.659 112.034L187.166 112.124L192.101 84.2195L191.594 84.1299Z" fill="#C73302"/>
<path d="M125.001 84.0628L124.549 84.3096L139.803 112.218L140.255 111.971L125.001 84.0628Z" fill="#C73302"/>
<path d="M180.854 104.106H145.178V104.62H180.854V104.106Z" fill="#C73302"/>
<path d="M113.16 99.9032H105.242V100.418H113.16V99.9032Z" fill="#C73302"/>
<path d="M161.444 84.0376H160.93V112.082H161.444V84.0376Z" fill="#C73302"/>
<path d="M133.937 115.596C134.95 113.849 135.484 111.866 135.487 109.847C135.49 107.828 134.96 105.844 133.952 104.095C132.944 102.345 131.493 100.892 129.745 99.8818C127.997 98.8715 126.014 98.3396 123.995 98.3396C121.976 98.3396 119.992 98.8715 118.244 99.8818C116.496 100.892 115.045 102.345 114.037 104.095C113.029 105.844 112.5 107.828 112.502 109.847C112.505 111.866 113.04 113.849 114.052 115.596H133.937ZM220.061 115.596C221.074 113.849 221.608 111.866 221.611 109.847C221.614 107.828 221.085 105.844 220.077 104.094C219.069 102.345 217.618 100.892 215.87 99.8813C214.122 98.8709 212.138 98.339 210.119 98.339C208.1 98.339 206.116 98.8709 204.368 99.8813C202.62 100.892 201.169 102.345 200.161 104.094C199.153 105.844 198.624 107.828 198.627 109.847C198.629 111.866 199.164 113.849 200.177 115.596H220.061ZM120.18 91.1077C119.649 91.1078 119.129 90.9504 118.687 90.6552C118.245 90.3601 117.901 89.9406 117.698 89.4497C117.494 88.9588 117.441 88.4186 117.545 87.8974C117.648 87.3762 117.904 86.8975 118.28 86.5218C118.655 86.146 119.134 85.8902 119.655 85.7865C120.177 85.6829 120.717 85.7362 121.208 85.9396C121.699 86.143 122.118 86.4874 122.413 86.9293C122.708 87.3712 122.866 87.8907 122.866 88.4221C122.865 89.1341 122.582 89.8169 122.078 90.3204C121.575 90.8239 120.892 91.1071 120.18 91.1077ZM120.18 86.251C119.751 86.251 119.331 86.3783 118.974 86.6169C118.617 86.8554 118.339 87.1945 118.174 87.5912C118.01 87.9879 117.967 88.4245 118.051 88.8456C118.134 89.2667 118.341 89.6536 118.645 89.9572C118.948 90.2608 119.335 90.4676 119.756 90.5514C120.178 90.6352 120.614 90.5922 121.011 90.4278C121.408 90.2635 121.747 89.9852 121.985 89.6282C122.224 89.2712 122.351 88.8514 122.351 88.4221C122.35 87.8464 122.122 87.2946 121.715 86.8875C121.308 86.4805 120.756 86.2516 120.18 86.251Z" fill="#C73302"/>
<path d="M221.27 93.396C222.046 95.7542 224.302 98.7011 230.561 99.8646C230.746 100.227 230.936 100.602 231.13 100.991C228.903 100.874 225.601 100.649 222.648 100.248C217.617 99.5624 217.159 96.7038 217.102 94.8172C217.057 93.3195 218.163 92.5436 221.27 93.396Z" fill="#FFA02B"/>
<path d="M216.838 117.956C221.326 113.468 221.326 106.192 216.838 101.704C212.35 97.2164 205.074 97.2164 200.586 101.704C196.099 106.192 196.099 113.468 200.586 117.956C205.074 122.443 212.35 122.443 216.838 117.956Z" fill="#231F20"/>
<path d="M214.17 115.287C217.184 112.273 217.184 107.386 214.17 104.372C211.155 101.358 206.269 101.358 203.254 104.372C200.24 107.386 200.24 112.273 203.254 115.287C206.269 118.302 211.155 118.302 214.17 115.287Z" fill="black"/>
<path d="M212.684 113.802C214.877 111.608 214.877 108.052 212.684 105.858C210.49 103.665 206.934 103.665 204.74 105.858C202.547 108.052 202.547 111.608 204.74 113.802C206.934 115.995 210.49 115.995 212.684 113.802Z" fill="#BCBEC0"/>
<path d="M205.256 106.774C205.025 107.613 204.991 108.494 205.157 109.348C205.323 110.202 205.684 111.006 206.211 111.698C206.739 112.389 207.419 112.95 208.198 113.336C208.978 113.721 209.836 113.922 210.706 113.922C210.881 113.922 211.054 113.913 211.226 113.897C210.265 114.456 209.138 114.657 208.043 114.465C206.948 114.273 205.956 113.701 205.242 112.849C204.528 111.997 204.138 110.921 204.141 109.809C204.143 108.698 204.538 107.623 205.256 106.774H205.256Z" fill="#D9DCDE"/>
<path d="M114.948 84.2945H108.418V83.78H114.662L121.224 73.2299L117.687 71.067L117.955 70.6282L121.935 73.0613L114.948 84.2945Z" fill="#C73302"/>
<g style="mix-blend-mode:screen">
<path d="M200.32 98.0596C200.32 98.0596 155.349 93.0656 126.294 92.3803L129.312 98.0596H200.32Z" fill="#273A57"/>
</g>
<path d="M112.243 91.842H114.247L116.995 97.0446H109.05C111.505 95.4661 112.143 93.3485 112.243 91.842Z" fill="#FF2002"/>
<path d="M185.909 82.7501C187.472 82.0292 187.633 80.7833 187.344 79.6391C189.293 81.0224 189.49 82.2378 189.349 82.768C188.854 84.5863 185.465 84.965 182.758 84.7296C181.592 84.6279 180.7 84.1275 180.159 83.3716C182.046 83.5394 184.276 83.5023 185.909 82.7501Z" fill="#FF2402"/>
<path d="M122.609 121.321C128.955 121.321 134.1 116.176 134.1 109.83C134.1 103.483 128.955 98.3381 122.609 98.3381C116.262 98.3381 111.117 103.483 111.117 109.83C111.117 116.176 116.262 121.321 122.609 121.321Z" fill="#231F20"/>
<path d="M128.066 115.287C131.08 112.273 131.08 107.386 128.066 104.372C125.052 101.358 120.165 101.358 117.151 104.372C114.137 107.386 114.137 112.273 117.151 115.287C120.165 118.301 125.052 118.301 128.066 115.287Z" fill="black"/>
<path d="M128.063 109.85C128.559 106.778 126.472 103.886 123.401 103.39C120.33 102.894 117.438 104.981 116.942 108.052C116.445 111.123 118.532 114.015 121.604 114.512C124.675 115.008 127.567 112.921 128.063 109.85Z" fill="#BCBEC0"/>
<path d="M119.152 106.774C118.922 107.613 118.888 108.494 119.054 109.347C119.22 110.201 119.581 111.005 120.108 111.697C120.636 112.388 121.316 112.949 122.095 113.335C122.875 113.721 123.733 113.921 124.602 113.922C124.777 113.922 124.95 113.913 125.122 113.897C124.161 114.455 123.034 114.656 121.939 114.464C120.845 114.272 119.853 113.699 119.14 112.848C118.426 111.996 118.036 110.92 118.038 109.809C118.04 108.698 118.434 107.623 119.152 106.774Z" fill="#D9DCDE"/>
<g style="mix-blend-mode:multiply">
<path d="M95.6369 89.1942C96.144 88.0011 95.2716 86.8925 93.771 86.5213C92.2704 86.15 90.2813 86.5606 89.1527 87.6008C88.5661 88.1392 88.2943 88.7599 88.356 89.3539L88.8312 93.2631L93.9729 90.7609L94.062 90.7171H94.068C94.8201 90.331 95.3807 89.7979 95.6369 89.1942Z" fill="#D1D3D4"/>
</g>
<path d="M93.1696 86.6022C93.1699 85.9017 93.001 85.2114 92.6774 84.5901C92.3538 83.9688 91.885 83.4348 91.3108 83.0335C90.7366 82.6322 90.074 82.3754 89.3794 82.285C88.6847 82.1946 87.9784 82.2732 87.3207 82.5143C86.6629 82.7553 86.073 83.1515 85.6012 83.6693C85.1294 84.1871 84.7895 84.8112 84.6105 85.4884C84.4315 86.1657 84.4187 86.8762 84.5731 87.5595C84.7275 88.2428 85.0446 88.8788 85.4974 89.4133L88.8245 93.2646L92.11 89.4474C92.1338 89.42 92.1583 89.3932 92.1843 89.365L92.1887 89.3598C92.8256 88.5822 93.1723 87.6073 93.1696 86.6022ZM88.8186 88.8497C88.3649 88.8499 87.9214 88.7155 87.5441 88.4636C87.1668 88.2116 86.8728 87.8535 86.6991 87.4344C86.5253 87.0153 86.4798 86.5541 86.5682 86.1092C86.6567 85.6642 86.875 85.2555 87.1958 84.9346C87.5165 84.6138 87.9252 84.3953 88.3701 84.3067C88.815 84.2182 89.2762 84.2635 89.6954 84.4371C90.1145 84.6107 90.4727 84.9047 90.7248 85.2819C90.9768 85.659 91.1114 86.1025 91.1114 86.5562C91.1114 87.1643 90.8698 87.7476 90.4399 88.1777C90.0099 88.6078 89.4267 88.8495 88.8186 88.8497Z" fill="#FF4202"/>
<path d="M111.985 34.4665H106.045V34.9811H111.985V34.4665Z" fill="white"/>
<path d="M111.985 35.9693H106.045V36.4839H111.985V35.9693Z" fill="white"/>
<path d="M111.985 37.4729H106.045V37.9874H111.985V37.4729Z" fill="white"/>
<path d="M185.531 64.7944H179.183V54.6223H185.531V64.7944ZM179.628 64.3489H185.086V55.0678H179.628V64.3489Z" fill="#BFDAFF"/>
<path d="M193.925 54.845H188.022V64.5717H193.925V54.845Z" fill="#BFDAFF"/>
<path d="M197.536 39.0745C197.536 30.437 190.533 23.4346 181.895 23.4346C173.257 23.4346 166.255 30.437 166.255 39.0745C166.249 42.7748 167.562 46.356 169.957 49.1768L181.911 63.0199L193.725 49.3016C193.81 49.2028 193.897 49.1055 193.979 49.0046L193.995 48.9867C196.29 46.1938 197.542 42.6894 197.536 39.0745ZM181.895 47.1483C180.265 47.1483 178.672 46.665 177.316 45.7594C175.961 44.8538 174.905 43.5666 174.281 42.0606C173.657 40.5546 173.494 38.8975 173.812 37.2988C174.13 35.7001 174.915 34.2315 176.068 33.0789C177.22 31.9263 178.689 31.1413 180.287 30.8233C181.886 30.5053 183.543 30.6685 185.049 31.2923C186.555 31.9161 187.842 32.9725 188.748 34.3278C189.654 35.6832 190.137 37.2766 190.137 38.9067C190.137 41.0925 189.269 43.1888 187.723 44.7344C186.177 46.28 184.081 47.1483 181.895 47.1483Z" fill="#6FABFF"/>
<path d="M181.719 63.1862L169.401 48.9303H169.424C167.206 46.1243 165.999 42.653 165.998 39.0767H166.512C166.514 42.7153 167.805 46.2356 170.156 49.0127L170.378 49.2771L182.11 62.8535L181.719 63.1862ZM193.919 49.4664L193.659 49.2436H193.451L193.538 49.1382L193.53 49.1323L193.604 49.0469C193.653 48.9919 193.701 48.937 193.748 48.8806L193.794 48.8234C196.046 46.0731 197.278 42.6289 197.28 39.0745C197.28 30.5907 190.375 23.6915 181.895 23.6915V23.1769C190.661 23.1769 197.793 30.3086 197.793 39.0745C197.79 42.5628 196.642 45.9538 194.526 48.7269H194.555L194.175 49.1724C194.117 49.2422 194.054 49.3142 193.992 49.3862L193.919 49.4664ZM181.895 47.4082C179.641 47.4082 177.478 46.5125 175.884 44.9182C174.289 43.3238 173.394 41.1614 173.394 38.9066C173.394 36.6519 174.289 34.4895 175.884 32.8951C177.478 31.3008 179.641 30.4051 181.895 30.4051V30.9196C180.316 30.9196 178.772 31.388 177.459 32.2653C176.146 33.1427 175.122 34.3898 174.518 35.8489C173.913 37.308 173.755 38.9135 174.063 40.4625C174.371 42.0115 175.131 43.4344 176.248 44.5513C177.365 45.6681 178.788 46.4288 180.336 46.7371C181.885 47.0453 183.491 46.8874 184.95 46.2832C186.409 45.6791 187.657 44.6558 188.534 43.3428C189.412 42.0297 189.881 40.486 189.881 38.9066H190.395C190.393 41.1604 189.497 43.3212 187.903 44.915C186.31 46.5088 184.149 47.4054 181.895 47.4082Z" fill="#231F20"/>
</svg>
