<svg width="24" height="24" viewBox="0 0 24 24" fill="none" xmlns="http://www.w3.org/2000/svg">
<path d="M2.92188 2.40366V21.5962C2.92287 22.1657 3.14957 22.7117 3.55232 23.1145C3.95508 23.5172 4.50105 23.7439 5.07063 23.7449H18.9456C19.5152 23.7439 20.0612 23.5172 20.4639 23.1145C20.8667 22.7117 21.0934 22.1657 21.0944 21.5962V2.40366C21.0939 2.12036 21.0375 1.83994 20.9284 1.57848C20.8193 1.31703 20.6596 1.07968 20.4586 0.880051C20.2576 0.680422 20.0191 0.522441 19.7569 0.415165C19.4947 0.30789 19.2139 0.253431 18.9306 0.254912H5.05563C4.48865 0.25985 3.94652 0.488295 3.547 0.890624C3.14748 1.29295 2.92284 1.83667 2.92188 2.40366ZM19.4706 18.1912L15.5556 22.1249H5.05563C4.91241 22.1249 4.77506 22.068 4.67379 21.9668C4.57252 21.8655 4.51563 21.7281 4.51563 21.5849V2.40366C4.51708 2.33242 4.53262 2.26217 4.56136 2.19696C4.59009 2.13176 4.63144 2.07288 4.68303 2.02373C4.73462 1.97458 4.79543 1.93612 4.86196 1.91058C4.92848 1.88504 4.9994 1.87292 5.07063 1.87491H18.9456C19.0888 1.87491 19.2262 1.9318 19.3275 2.03307C19.4287 2.13434 19.4856 2.2717 19.4856 2.41491L19.4706 18.1912Z" fill="#203036"/>
<path d="M17.3354 5.03604H6.66287C6.57327 5.04284 6.48324 5.03107 6.39841 5.00146C6.31357 4.97185 6.23577 4.92504 6.16987 4.86395C6.10397 4.80287 6.0514 4.72884 6.01545 4.64649C5.9795 4.56415 5.96094 4.47526 5.96094 4.38541C5.96094 4.29556 5.9795 4.20667 6.01545 4.12433C6.0514 4.04198 6.10397 3.96795 6.16987 3.90687C6.23577 3.84578 6.31357 3.79897 6.39841 3.76936C6.48324 3.73975 6.57327 3.72798 6.66287 3.73479H17.3354C17.425 3.72798 17.515 3.73975 17.5998 3.76936C17.6847 3.79897 17.7625 3.84578 17.8284 3.90687C17.8943 3.96795 17.9468 4.04198 17.9828 4.12433C18.0187 4.20667 18.0373 4.29556 18.0373 4.38541C18.0373 4.47526 18.0187 4.56415 17.9828 4.64649C17.9468 4.72884 17.8943 4.80287 17.8284 4.86395C17.7625 4.92504 17.6847 4.97185 17.5998 5.00146C17.515 5.03107 17.425 5.04284 17.3354 5.03604ZM17.3354 7.96479H6.66287C6.57327 7.97159 6.48324 7.95982 6.39841 7.93021C6.31357 7.9006 6.23577 7.85379 6.16987 7.7927C6.10397 7.73162 6.0514 7.65759 6.01545 7.57524C5.9795 7.4929 5.96094 7.40401 5.96094 7.31416C5.96094 7.22431 5.9795 7.13542 6.01545 7.05308C6.0514 6.97073 6.10397 6.8967 6.16987 6.83562C6.23577 6.77453 6.31357 6.72772 6.39841 6.69811C6.48324 6.6685 6.57327 6.65673 6.66287 6.66354H17.3354C17.425 6.65673 17.515 6.6685 17.5998 6.69811C17.6847 6.72772 17.7625 6.77453 17.8284 6.83562C17.8943 6.8967 17.9468 6.97073 17.9828 7.05308C18.0187 7.13542 18.0373 7.22431 18.0373 7.31416C18.0373 7.40401 18.0187 7.4929 17.9828 7.57524C17.9468 7.65759 17.8943 7.73162 17.8284 7.7927C17.7625 7.85379 17.6847 7.9006 17.5998 7.93021C17.515 7.95982 17.425 7.97159 17.3354 7.96479ZM14.5341 13.3648L13.0341 12.8885C12.3654 12.6774 11.6478 12.6774 10.9791 12.8885L10.3154 13.0985V11.0398C10.3154 10.9165 10.3644 10.7982 10.4516 10.711C10.5388 10.6238 10.657 10.5748 10.7804 10.5748H13.2329C13.3562 10.5748 13.4745 10.6238 13.5617 10.711C13.6489 10.7982 13.6979 10.9165 13.6979 11.0398V12.251L14.6804 12.5623V11.0398C14.6804 10.6559 14.5279 10.2877 14.2564 10.0162C13.9849 9.74479 13.6168 9.59229 13.2329 9.59229H10.7729C10.389 9.59229 10.0208 9.74479 9.74933 10.0162C9.47787 10.2877 9.32537 10.6559 9.32537 11.0398V13.4173C9.10555 13.513 8.91793 13.67 8.78494 13.8695C8.65194 14.069 8.57919 14.3026 8.57537 14.5423V16.6235C8.57527 17.2169 8.73025 17.8 9.02493 18.3151C9.31961 18.8301 9.74377 19.2592 10.2554 19.5598C10.4204 19.6573 11.0316 19.9348 11.4816 20.141C11.6415 20.2123 11.8147 20.2491 11.9897 20.2491C12.1648 20.2491 12.3379 20.2123 12.4979 20.141C12.8729 19.9685 13.4016 19.7323 13.7054 19.556C14.2147 19.2529 14.637 18.8232 14.9314 18.3088C15.2258 17.7943 15.3821 17.2125 15.3854 16.6198V14.5535C15.3864 14.2911 15.3047 14.0349 15.1519 13.8216C14.9991 13.6082 14.7829 13.4483 14.5341 13.3648ZM12.6329 17.2498C12.647 17.3412 12.6411 17.4345 12.6158 17.5235C12.5904 17.6124 12.5461 17.6948 12.4859 17.765C12.4257 17.8352 12.351 17.8916 12.267 17.9302C12.183 17.9688 12.0916 17.9888 11.9991 17.9888C11.9066 17.9888 11.8153 17.9688 11.7312 17.9302C11.6472 17.8916 11.5725 17.8352 11.5123 17.765C11.4521 17.6948 11.4078 17.6124 11.3825 17.5235C11.3571 17.4345 11.3513 17.3412 11.3654 17.2498L11.4741 16.4998C11.3872 16.4212 11.3191 16.3241 11.2748 16.2156C11.2306 16.1072 11.2113 15.9901 11.2185 15.8732C11.2257 15.7562 11.2592 15.6424 11.3164 15.5402C11.3736 15.4379 11.4531 15.3499 11.549 15.2826C11.6449 15.2153 11.7547 15.1705 11.8703 15.1514C11.9859 15.1324 12.1043 15.1396 12.2167 15.1726C12.3291 15.2056 12.4327 15.2635 12.5197 15.342C12.6066 15.4205 12.6748 15.5176 12.7191 15.626C12.7567 15.7203 12.7758 15.8208 12.7754 15.9223C12.7764 16.0308 12.7546 16.1383 12.7113 16.2378C12.668 16.3373 12.6042 16.4266 12.5241 16.4998L12.6329 17.2498Z" fill="#BA5D45"/>
</svg>
