<svg width="24" height="24" viewBox="0 0 24 24" fill="none" xmlns="http://www.w3.org/2000/svg">
<path fill-rule="evenodd" clip-rule="evenodd" d="M23.4385 20.0156C23.251 20.0156 23.0635 19.9218 22.9697 19.7812L22.126 18.6093C21.9854 18.375 22.0322 18.0468 22.2666 17.8593C22.501 17.6718 22.876 17.7187 23.0166 17.9531L23.8604 19.125C24.0479 19.3593 24.001 19.7343 23.7666 19.9218C23.6729 19.9687 23.5322 20.0156 23.4385 20.0156Z" fill="#203036"/>
<path fill-rule="evenodd" clip-rule="evenodd" d="M22.5947 21.1406C22.4541 21.1406 22.3603 21.0938 22.2666 21.0469C21.9853 20.8594 21.9385 20.5312 22.126 20.25L22.9697 19.125C23.1572 18.8438 23.4853 18.7969 23.7666 18.9844C24.001 19.1719 24.0947 19.5469 23.8603 19.7812L23.0166 20.9531C22.9228 21.0938 22.7822 21.1406 22.5947 21.1406ZM0.563477 6.60938C0.375977 6.60938 0.188477 6.51562 0.0947266 6.375C-0.0458984 6.09375 0.000976564 5.76562 0.235352 5.57812L1.36035 4.73438C1.59473 4.59375 1.96973 4.64062 2.15723 4.875C2.29785 5.10938 2.25098 5.48438 2.0166 5.625L0.891601 6.46875C0.797852 6.5625 0.657227 6.60938 0.563477 6.60938Z" fill="#203036"/>
<path fill-rule="evenodd" clip-rule="evenodd" d="M2.85938 6.60935C2.71875 6.60935 2.625 6.56247 2.53125 6.5156L1.35938 5.67185C1.125 5.48435 1.03125 5.15622 1.26562 4.87497C1.40625 4.6406 1.78125 4.59372 2.01562 4.78122L3.1875 5.5781C3.42188 5.7656 3.46875 6.09372 3.28125 6.37497C3.1875 6.5156 3 6.60935 2.85938 6.60935ZM3.5625 9.37497H1.6875C1.35938 9.37497 1.125 9.1406 1.125 8.81247C1.125 8.48435 1.35938 8.24997 1.6875 8.24997H3.5625C3.89062 8.24997 4.125 8.48435 4.125 8.81247C4.125 9.1406 3.89062 9.37497 3.5625 9.37497ZM3.5625 12.9375H1.6875C1.35938 12.9375 1.125 12.6562 1.125 12.375C1.125 12.0468 1.35938 11.8125 1.6875 11.8125H3.5625C3.89062 11.8125 4.125 12.0468 4.125 12.375C4.125 12.6562 3.89062 12.9375 3.5625 12.9375ZM3.5625 16.5H1.6875C1.35938 16.5 1.125 16.2187 1.125 15.9375C1.125 15.6093 1.35938 15.3281 1.6875 15.3281H3.5625C3.89062 15.3281 4.125 15.6093 4.125 15.9375C4.125 16.2187 3.89062 16.5 3.5625 16.5Z" fill="#203036"/>
<path fill-rule="evenodd" clip-rule="evenodd" d="M14.4375 20.0156C14.1094 20.0156 13.875 19.7812 13.875 19.4531V11.2969H11.25V19.4531C11.25 19.7812 11.0156 20.0156 10.6875 20.0156C10.3594 20.0156 10.125 19.7812 10.125 19.4531V10.7344C10.125 10.4062 10.3594 10.1719 10.6875 10.1719H14.3906C14.7188 10.1719 14.9531 10.4062 14.9531 10.7344V19.4531C15 19.7812 14.7188 20.0156 14.4375 20.0156ZM19.7344 20.0156C19.4062 20.0156 19.1719 19.7812 19.1719 19.4531V8.95312H16.5938V19.4531C16.5938 19.7812 16.3125 20.0156 15.9844 20.0156C15.7031 20.0156 15.4219 19.7812 15.4219 19.4531V8.39062C15.4219 8.0625 15.7031 7.82812 15.9844 7.82812H19.7344C20.0156 7.82812 20.2969 8.0625 20.2969 8.39062V19.4531C20.2969 19.7812 20.0625 20.0156 19.7344 20.0156ZM9.09375 20.0156C8.8125 20.0156 8.53125 19.7812 8.53125 19.4531V13.4062H5.95312V19.4531C5.95312 19.7812 5.67188 20.0156 5.39062 20.0156C5.0625 20.0156 4.82812 19.7812 4.82812 19.4531V12.8438C4.82812 12.5156 5.0625 12.2812 5.39062 12.2812H9.09375C9.42188 12.2812 9.65625 12.5156 9.65625 12.8438V19.4531C9.65625 19.7812 9.42188 20.0156 9.09375 20.0156Z" fill="#BA5D45"/>
<path fill-rule="evenodd" clip-rule="evenodd" d="M19.7337 4.54687C19.6399 4.54687 19.593 4.54687 19.4993 4.49999L18.2337 3.93749C17.9055 3.79687 17.8118 3.46874 17.9055 3.18749C18.0462 2.90624 18.3743 2.76562 18.6555 2.90624L19.968 3.46874C20.2493 3.56249 20.343 3.93749 20.2493 4.21874C20.1555 4.40624 19.968 4.54687 19.7337 4.54687Z" fill="#203036"/>
<path fill-rule="evenodd" clip-rule="evenodd" d="M19.5939 5.95312C19.547 5.95312 19.547 5.95312 19.5001 5.95312C19.2189 5.90625 18.9845 5.625 19.0314 5.34375L19.172 3.9375C19.2189 3.60938 19.5001 3.42188 19.7814 3.42188C20.1095 3.46875 20.3439 3.75 20.297 4.03125L20.1564 5.4375C20.1095 5.71875 19.8751 5.95312 19.5939 5.95312Z" fill="#203036"/>
<path fill-rule="evenodd" clip-rule="evenodd" d="M5.39111 11.8125C5.20361 11.8125 4.96923 11.7187 4.87548 11.4843C4.73486 11.25 4.87548 10.875 5.15673 10.7343L19.5005 3.46872C19.7349 3.3281 20.1099 3.42185 20.2505 3.7031C20.3911 3.98435 20.2974 4.35935 19.9692 4.4531L5.67236 11.7656C5.57861 11.8125 5.48486 11.8125 5.39111 11.8125Z" fill="#203036"/>
<path fill-rule="evenodd" clip-rule="evenodd" d="M23.4375 20.0156H1.6875C1.35938 20.0156 1.125 19.7812 1.125 19.4531V5.20312C1.125 4.92188 1.35938 4.64062 1.6875 4.64062C2.01562 4.64062 2.25 4.92188 2.25 5.20312V18.8906H23.4375C23.7188 18.8906 24 19.1719 24 19.4531C24 19.7812 23.7188 20.0156 23.4375 20.0156Z" fill="#203036"/>
</svg>
