<svg width="24" height="24" viewBox="0 0 24 24" fill="none" xmlns="http://www.w3.org/2000/svg">
<g id="file-pencil-alt">
<path id="Icon" d="M9 17H11.5M9 13H14M9 9H10M13 3H8.2C7.0799 3 6.51984 3 6.09202 3.21799C5.71569 3.40973 5.40973 3.71569 5.21799 4.09202C5 4.51984 5 5.0799 5 6.2V17.8C5 18.9201 5 19.4802 5.21799 19.908C5.40973 20.2843 5.71569 20.5903 6.09202 20.782C6.51984 21 7.0799 21 8.2 21H10M13 3L19 9M13 3V5.8C13 6.9201 13 7.48016 13.218 7.90798C13.4097 8.28431 13.7157 8.59027 14.092 8.78201C14.5198 9 15.0799 9 16.2 9H19M19 9V11" stroke="#242424" stroke-width="1.5" stroke-linecap="round" stroke-linejoin="round"/>
<path id="Icon_2" d="M14.405 18.9752C14.4403 18.7986 14.458 18.7103 14.4903 18.628C14.5189 18.5549 14.5561 18.4855 14.601 18.4211C14.6516 18.3486 14.7152 18.2849 14.8426 18.1576L19 14.0002C19.5523 13.4479 20.4477 13.4479 21 14.0002C21.5523 14.5524 21.5523 15.4479 21 16.0002L16.8426 20.1576C16.7152 20.2849 16.6516 20.3486 16.579 20.3992C16.5147 20.4441 16.4452 20.4812 16.3721 20.5099C16.2898 20.5422 16.2015 20.5598 16.025 20.5952L14 21.0002L14.405 18.9752Z" stroke="#C8553D" stroke-width="1.5" stroke-linecap="round" stroke-linejoin="round"/>
</g>
</svg>
