<svg width="32" height="32" viewBox="0 0 32 32" fill="none" xmlns="http://www.w3.org/2000/svg">
<g id="file-code">
<path id="Icon" d="M25.3307 12V23.7333C25.3307 25.2268 25.3307 25.9735 25.0401 26.544C24.7844 27.0457 24.3765 27.4537 23.8747 27.7094C23.3043 28 22.5575 28 21.0641 28H10.9307C9.43726 28 8.69052 28 8.12009 27.7094C7.61832 27.4537 7.21037 27.0457 6.95471 26.544C6.66406 25.9735 6.66406 25.2268 6.66406 23.7333V8.26667C6.66406 6.77319 6.66406 6.02646 6.95471 5.45603C7.21037 4.95426 7.61832 4.54631 8.12009 4.29065C8.69052 4 9.43726 4 10.9307 4H17.3307M25.3307 12L17.3307 4M25.3307 12H21.5974C20.1039 12 19.3572 12 18.7868 11.7094C18.285 11.4537 17.877 11.0457 17.6214 10.544C17.3307 9.97354 17.3307 9.22681 17.3307 7.73333V4" stroke="#0370F2" stroke-width="1.5" stroke-linecap="round" stroke-linejoin="round"/>
<path id="Line 172" d="M12 15H16" stroke="#0370F2" stroke-width="1.5" stroke-linecap="round"/>
<path id="Line 173" d="M12 19H20" stroke="#0370F2" stroke-width="1.5" stroke-linecap="round"/>
<path id="Line 174" d="M12 23H20" stroke="#0370F2" stroke-width="1.5" stroke-linecap="round"/>
</g>
</svg>
