<svg width="24" height="24" viewBox="0 0 24 24" fill="none" xmlns="http://www.w3.org/2000/svg">
<path d="M7.43407 10.94L7.43407 3" stroke="#949494" stroke-width="1.5" stroke-linecap="round" stroke-linejoin="round"/>
<path fill-rule="evenodd" clip-rule="evenodd" d="M7.49465 17.1994C8.66245 17.1994 9.60937 16.2463 9.60937 15.0701C9.60937 13.8932 8.66245 12.9395 7.49465 12.9395C6.32685 12.9395 5.37992 13.8932 5.37992 15.0701C5.37992 16.2463 6.32685 17.1994 7.49465 17.1994Z" stroke="#949494" stroke-width="1.5" stroke-linecap="round" stroke-linejoin="round"/>
<path d="M7.35598 20.9992L7.35598 19.1992" stroke="#949494" stroke-width="1.5" stroke-linecap="round" stroke-linejoin="round"/>
<path d="M16.4477 13.06L16.4477 21" stroke="#949494" stroke-width="1.5" stroke-linecap="round" stroke-linejoin="round"/>
<path fill-rule="evenodd" clip-rule="evenodd" d="M16.5064 6.80065C17.6742 6.80065 18.6211 7.75366 18.6211 8.92986C18.6211 10.1068 17.6742 11.0605 16.5064 11.0605C15.3386 11.0605 14.3916 10.1068 14.3916 8.92986C14.3916 7.75366 15.3386 6.80065 16.5064 6.80065Z" stroke="#949494" stroke-width="1.5" stroke-linecap="round" stroke-linejoin="round"/>
<path d="M16.3697 3.00009L16.3697 4.80273" stroke="#949494" stroke-width="1.5" stroke-linecap="round" stroke-linejoin="round"/>
</svg>
