<svg width="20" height="20" viewBox="0 0 20 20" fill="none" xmlns="http://www.w3.org/2000/svg">
<path d="M3 4.6C3 4.03995 3 3.75992 3.10899 3.54601C3.20487 3.35785 3.35785 3.20487 3.54601 3.10899C3.75992 3 4.03995 3 4.6 3H15.4C15.9601 3 16.2401 3 16.454 3.10899C16.6422 3.20487 16.7951 3.35785 16.891 3.54601C17 3.75992 17 4.03995 17 4.6V5.44837C17 5.69296 17 5.81526 16.9724 5.93034C16.9479 6.03238 16.9075 6.12992 16.8526 6.2194C16.7908 6.32031 16.7043 6.40679 16.5314 6.57974L12.0242 11.0869C11.8512 11.2599 11.7648 11.3464 11.7029 11.4473C11.6481 11.5367 11.6077 11.6343 11.5832 11.7363C11.5556 11.8514 11.5556 11.9737 11.5556 12.2183V13.8889L8.44444 17V12.2183C8.44444 11.9737 8.44444 11.8514 8.41681 11.7363C8.39232 11.6343 8.35191 11.5367 8.29708 11.4473C8.23524 11.3464 8.14877 11.2599 7.97582 11.0869L3.46863 6.57974C3.29568 6.40679 3.2092 6.32031 3.14736 6.2194C3.09253 6.12992 3.05213 6.03238 3.02763 5.93034C3 5.81526 3 5.69296 3 5.44837V4.6Z" stroke="#1A2E35" stroke-width="1.5" stroke-linecap="round" stroke-linejoin="round"/>
</svg>
