<svg width="24" height="24" viewBox="0 0 24 24" fill="none" xmlns="http://www.w3.org/2000/svg">
<path d="M19.5793 10.4841V7.44195C19.5793 6.88967 19.1316 6.44195 18.5793 6.44195H11.9093C11.6441 6.44195 11.3898 6.33659 11.2022 6.14906L9.76697 4.71379C9.57943 4.52626 9.32508 4.4209 9.05986 4.4209H3.40039C2.84811 4.4209 2.40039 4.86861 2.40039 5.4209V18.5788C2.40039 19.1311 2.84811 19.5788 3.40039 19.5788H4.57656C5.04899 19.5788 5.43197 19.1958 5.43197 18.7234V18.7234C5.43197 18.6208 5.45042 18.5191 5.48643 18.423L8.22022 11.1329C8.36658 10.7426 8.7397 10.4841 9.15655 10.4841H20.213C20.8955 10.4841 21.3775 11.1528 21.1616 11.8003L18.7967 18.895C18.6606 19.3034 18.2785 19.5788 17.8481 19.5788H4.42144" stroke="#949494" stroke-width="1.5" stroke-linecap="round" stroke-linejoin="round"/>
</svg>
