<svg width="24" height="24" viewBox="0 0 24 24" fill="none" xmlns="http://www.w3.org/2000/svg">
<path d="M18.2222 4C19.2041 4 20 4.78503 20 5.75342L20 8.7466C20 9.71499 19.2041 10.5 18.2222 10.5H15.5556C14.5737 10.5 13.7778 9.71499 13.7778 8.7466L13.7778 5.75342C13.7778 4.78503 14.5737 4 15.5556 4L18.2222 4Z" stroke="#949494" stroke-width="1.5" stroke-linecap="round" stroke-linejoin="round"/>
<path d="M5.77778 4C4.79594 4 4 4.78503 4 5.75342L4.00001 8.7466C4.00001 9.71499 4.79595 10.5 5.77778 10.5H8.44445C9.42629 10.5 10.2222 9.71499 10.2222 8.7466L10.2222 5.75342C10.2222 4.78503 9.42628 4 8.44444 4L5.77778 4Z" stroke="#949494" stroke-width="1.5" stroke-linecap="round" stroke-linejoin="round"/>
<path d="M18.2222 13.5C19.2041 13.5 20 14.285 20 15.2534V18.2466C20 19.215 19.2041 20 18.2222 20H15.5556C14.5737 20 13.7778 19.215 13.7778 18.2466L13.7778 15.2534C13.7778 14.285 14.5737 13.5 15.5556 13.5H18.2222Z" stroke="#949494" stroke-width="1.5" stroke-linecap="round" stroke-linejoin="round"/>
<path d="M5.77778 13.5C4.79594 13.5 4.00001 14.285 4.00001 15.2534L4.00001 18.2466C4.00001 19.215 4.79595 20 5.77779 20H8.44445C9.42629 20 10.2222 19.215 10.2222 18.2466L10.2222 15.2534C10.2222 14.285 9.42629 13.5 8.44445 13.5H5.77778Z" stroke="#949494" stroke-width="1.5" stroke-linecap="round" stroke-linejoin="round"/>
</svg>
