<svg width="32" height="32" viewBox="0 0 32 32" fill="none" xmlns="http://www.w3.org/2000/svg">
<rect width="32" height="32" rx="16" fill="#0370F2" fill-opacity="0.1"/>
<path d="M17.8873 19.281L16.4562 17.8619C15.7984 17.2095 15.4695 16.8834 15.0908 16.7611C14.7577 16.6534 14.3992 16.6534 14.0661 16.7611C13.6874 16.8834 13.3585 17.2095 12.7007 17.8619L9.36833 21.2182M17.8873 19.281L18.1718 18.9989C18.8434 18.3329 19.1791 17.9999 19.5644 17.8784C19.9033 17.7715 20.2674 17.7757 20.6037 17.8903C20.9861 18.0207 21.3141 18.3613 21.9702 19.0426L22.6667 19.7498M17.8873 19.281L21.1834 22.6353M12.0008 9.33334H20.0008C20.9342 9.33334 21.4009 9.33334 21.7575 9.515C22.0711 9.67479 22.326 9.92976 22.4858 10.2434C22.6675 10.5999 22.6675 11.0666 22.6675 12V20C22.6675 20.9334 22.6675 21.4001 22.4858 21.7567C22.326 22.0703 22.0711 22.3252 21.7575 22.485C21.4009 22.6667 20.9342 22.6667 20.0008 22.6667H12.0008C11.0674 22.6667 10.6007 22.6667 10.2442 22.485C9.93056 22.3252 9.6756 22.0703 9.51581 21.7567C9.33415 21.4001 9.33415 20.9334 9.33415 20V12C9.33415 11.0666 9.33415 10.5999 9.51581 10.2434C9.6756 9.92976 9.93056 9.67479 10.2442 9.515C10.6007 9.33334 11.0674 9.33334 12.0008 9.33334ZM20.1675 13.5C20.1675 14.4205 19.4213 15.1667 18.5008 15.1667C17.5803 15.1667 16.8342 14.4205 16.8342 13.5C16.8342 12.5795 17.5803 11.8333 18.5008 11.8333C19.4213 11.8333 20.1675 12.5795 20.1675 13.5Z" stroke="#0370F2" stroke-width="1.5" stroke-linecap="round" stroke-linejoin="round"/>
</svg>
