<svg width="32" height="32" viewBox="0 0 32 32" fill="none" xmlns="http://www.w3.org/2000/svg">
<g id="image-square">
<path id="Icon" d="M19.019 21.2498L16.7292 18.9791C15.6767 17.9354 15.1505 17.4136 14.5447 17.2178C14.0117 17.0457 13.438 17.0457 12.9051 17.2178C12.2992 17.4136 11.773 17.9354 10.7205 18.9791L5.38867 24.3492M19.019 21.2498L19.4742 20.7984C20.5487 19.7328 21.086 19.2 21.7024 19.0056C22.2446 18.8345 22.8272 18.8412 23.3653 19.0247C23.9771 19.2333 24.502 19.7783 25.5517 20.8683L26.666 21.9998M19.019 21.2498L24.2928 26.6167M9.60065 5.3335H22.4007C23.8941 5.3335 24.6409 5.3335 25.2113 5.62415C25.7131 5.87981 26.121 6.28776 26.3767 6.78952C26.6673 7.35995 26.6673 8.10669 26.6673 9.60016V22.4002C26.6673 23.8936 26.6673 24.6404 26.3767 25.2108C26.121 25.7126 25.7131 26.1205 25.2113 26.3762C24.6409 26.6668 23.8941 26.6668 22.4007 26.6668H9.60065C8.10718 26.6668 7.36044 26.6668 6.79001 26.3762C6.28824 26.1205 5.8803 25.7126 5.62463 25.2108C5.33398 24.6404 5.33398 23.8936 5.33398 22.4002V9.60016C5.33398 8.10669 5.33398 7.35995 5.62463 6.78952C5.8803 6.28776 6.28824 5.87981 6.79001 5.62415C7.36044 5.3335 8.10718 5.3335 9.60065 5.3335ZM22.6673 12.0002C22.6673 13.4729 21.4734 14.6668 20.0007 14.6668C18.5279 14.6668 17.334 13.4729 17.334 12.0002C17.334 10.5274 18.5279 9.3335 20.0007 9.3335C21.4734 9.3335 22.6673 10.5274 22.6673 12.0002Z" stroke="#0370F2" stroke-width="1.5" stroke-linecap="round" stroke-linejoin="round"/>
</g>
</svg>
