<svg width="24" height="24" viewBox="0 0 24 24" fill="none" xmlns="http://www.w3.org/2000/svg">
<path d="M14.2647 15.9372L12.5474 14.2342C11.758 13.4514 11.3634 13.0601 10.909 12.9133C10.5093 12.7841 10.079 12.7841 9.67929 12.9133C9.22491 13.0601 8.83023 13.4514 8.04088 14.2342L4.04199 18.2618M14.2647 15.9372L14.6061 15.5987C15.412 14.7995 15.815 14.3999 16.2773 14.2541C16.6839 14.1258 17.1209 14.1308 17.5244 14.2684C17.9833 14.4248 18.377 14.8336 19.1643 15.6511L20 16.4997M14.2647 15.9372L18.2201 19.9624M7.20098 4H16.801C17.9211 4 18.4811 4 18.909 4.21799C19.2853 4.40973 19.5912 4.71569 19.783 5.09202C20.001 5.51984 20.001 6.07989 20.001 7.2V16.8C20.001 17.9201 20.001 18.4802 19.783 18.908C19.5912 19.2843 19.2853 19.5903 18.909 19.782C18.4811 20 17.9211 20 16.801 20H7.20098C6.08087 20 5.52082 20 5.093 19.782C4.71667 19.5903 4.41071 19.2843 4.21896 18.908C4.00098 18.4802 4.00098 17.9201 4.00098 16.8V7.2C4.00098 6.0799 4.00098 5.51984 4.21896 5.09202C4.41071 4.71569 4.71667 4.40973 5.093 4.21799C5.52082 4 6.08087 4 7.20098 4ZM17.001 9C17.001 10.1046 16.1055 11 15.001 11C13.8964 11 13.001 10.1046 13.001 9C13.001 7.89543 13.8964 7 15.001 7C16.1055 7 17.001 7.89543 17.001 9Z" stroke="#0370F2" stroke-width="1.5" stroke-linecap="round" stroke-linejoin="round"/>
</svg>
