<svg width="36" height="36" viewBox="0 0 36 36" fill="none" xmlns="http://www.w3.org/2000/svg">
<path d="M21.3976 23.9063L18.8216 21.3518C17.6376 20.1777 17.0455 19.5906 16.364 19.3704C15.7644 19.1767 15.119 19.1767 14.5194 19.3704C13.8378 19.5906 13.2458 20.1777 12.0618 21.3518L6.06348 27.3932M21.3976 23.9063L21.9097 23.3985C23.1185 22.1997 23.7229 21.6004 24.4165 21.3816C25.0264 21.1892 25.6818 21.1967 26.2871 21.4031C26.9754 21.6378 27.5659 22.2509 28.7469 23.4772L30.0005 24.7501M21.3976 23.9063L27.3306 29.9441M10.802 6.00049H25.202C26.8821 6.00049 27.7222 6.00049 28.3639 6.32747C28.9284 6.61509 29.3874 7.07403 29.675 7.63852C30.002 8.28025 30.002 9.12033 30.002 10.8005V25.2005C30.002 26.8806 30.002 27.7207 29.675 28.3625C29.3874 28.9269 28.9284 29.3859 28.3639 29.6735C27.7222 30.0005 26.8821 30.0005 25.202 30.0005H10.802C9.1218 30.0005 8.28172 30.0005 7.63998 29.6735C7.0755 29.3859 6.61655 28.9269 6.32893 28.3625C6.00195 27.7207 6.00195 26.8806 6.00195 25.2005V10.8005C6.00195 9.12033 6.00195 8.28025 6.32893 7.63852C6.61655 7.07403 7.0755 6.61509 7.63998 6.32747C8.28172 6.00049 9.1218 6.00049 10.802 6.00049ZM25.502 13.5005C25.502 15.1573 24.1588 16.5005 22.502 16.5005C20.8451 16.5005 19.502 15.1573 19.502 13.5005C19.502 11.8436 20.8451 10.5005 22.502 10.5005C24.1588 10.5005 25.502 11.8436 25.502 13.5005Z" stroke="#949494" stroke-width="1.5" stroke-linecap="round" stroke-linejoin="round"/>
</svg>
