<svg width="24" height="24" viewBox="0 0 24 24" fill="none" xmlns="http://www.w3.org/2000/svg">
<rect width="24" height="24" fill="#D8D8D8"/>
<g id="Master - vehicle model " clip-path="url(#clip0_643_8539)">
<rect width="1976" height="970" transform="translate(-1321 -162)" fill="#F5F7F9"/>
<path id="Rectangle 4140" d="M-981 -66C-981 -70.4183 -977.418 -74 -973 -74H623C627.418 -74 631 -70.4183 631 -66V704C631 708.418 627.418 712 623 712H-973C-977.418 712 -981 708.418 -981 704V-66Z" fill="white"/>
<g id="Group 6089">
<path id="Rectangle 4142" d="M-957 10C-957 5.58172 -953.418 2 -949 2H599C603.418 2 607 5.58172 607 10V48C607 52.4183 603.418 56 599 56H-949C-953.418 56 -957 52.4183 -957 48V10Z" fill="#F5F7F9"/>
<g id="Group 7931">
<g id="Frame 41246">
<path id="Updated By" d="M11.898 23.728V29.776C11.898 30.4387 12.0707 30.9473 12.416 31.302C12.7613 31.6473 13.2467 31.82 13.872 31.82C14.5067 31.82 14.9967 31.6473 15.342 31.302C15.6873 30.9473 15.86 30.4387 15.86 29.776V23.728H17.834V29.762C17.834 30.5927 17.652 31.2973 17.288 31.876C16.9333 32.4453 16.4527 32.8747 15.846 33.164C15.2487 33.4533 14.5813 33.598 13.844 33.598C13.116 33.598 12.4533 33.4533 11.856 33.164C11.268 32.8747 10.8013 32.4453 10.456 31.876C10.1107 31.2973 9.938 30.5927 9.938 29.762V23.728H11.898ZM26.8537 26.752C26.8537 27.2747 26.7277 27.7647 26.4757 28.222C26.2331 28.6793 25.8457 29.048 25.3137 29.328C24.7911 29.608 24.1284 29.748 23.3257 29.748H21.6877V33.5H19.7277V23.728H23.3257C24.0817 23.728 24.7257 23.8587 25.2577 24.12C25.7897 24.3813 26.1864 24.7407 26.4477 25.198C26.7184 25.6553 26.8537 26.1733 26.8537 26.752ZM23.2417 28.166C23.7831 28.166 24.1844 28.0447 24.4457 27.802C24.7071 27.55 24.8377 27.2 24.8377 26.752C24.8377 25.8 24.3057 25.324 23.2417 25.324H21.6877V28.166H23.2417ZM31.6613 23.728C32.688 23.728 33.5886 23.9287 34.3633 24.33C35.1473 24.7313 35.7493 25.3053 36.1693 26.052C36.5986 26.7893 36.8133 27.648 36.8133 28.628C36.8133 29.608 36.5986 30.4667 36.1693 31.204C35.7493 31.932 35.1473 32.4967 34.3633 32.898C33.5886 33.2993 32.688 33.5 31.6613 33.5H28.2453V23.728H31.6613ZM31.5913 31.834C32.618 31.834 33.4113 31.554 33.9713 30.994C34.5313 30.434 34.8113 29.6453 34.8113 28.628C34.8113 27.6107 34.5313 26.8173 33.9713 26.248C33.4113 25.6693 32.618 25.38 31.5913 25.38H30.2053V31.834H31.5913ZM44.2725 31.638H40.3805L39.7365 33.5H37.6785L41.1925 23.714H43.4745L46.9885 33.5H44.9165L44.2725 31.638ZM43.7405 30.07L42.3265 25.982L40.9125 30.07H43.7405ZM54.9519 23.728V25.31H52.3479V33.5H50.3879V25.31H47.7839V23.728H54.9519ZM58.342 25.31V27.76H61.632V29.314H58.342V31.904H62.052V33.5H56.382V23.714H62.052V25.31H58.342ZM67.2492 23.728C68.2759 23.728 69.1765 23.9287 69.9512 24.33C70.7352 24.7313 71.3372 25.3053 71.7572 26.052C72.1865 26.7893 72.4012 27.648 72.4012 28.628C72.4012 29.608 72.1865 30.4667 71.7572 31.204C71.3372 31.932 70.7352 32.4967 69.9512 32.898C69.1765 33.2993 68.2759 33.5 67.2492 33.5H63.8332V23.728H67.2492ZM67.1792 31.834C68.2059 31.834 68.9992 31.554 69.5592 30.994C70.1192 30.434 70.3992 29.6453 70.3992 28.628C70.3992 27.6107 70.1192 26.8173 69.5592 26.248C68.9992 25.6693 68.2059 25.38 67.1792 25.38H65.7932V31.834H67.1792ZM82.7483 28.488C83.2989 28.5907 83.7516 28.866 84.1063 29.314C84.4609 29.762 84.6383 30.2753 84.6383 30.854C84.6383 31.3767 84.5076 31.8387 84.2463 32.24C83.9943 32.632 83.6256 32.94 83.1403 33.164C82.6549 33.388 82.0809 33.5 81.4183 33.5H77.2043V23.728H81.2363C81.8989 23.728 82.4683 23.8353 82.9443 24.05C83.4296 24.2647 83.7936 24.5633 84.0363 24.946C84.2883 25.3287 84.4143 25.7627 84.4143 26.248C84.4143 26.8173 84.2603 27.2933 83.9523 27.676C83.6536 28.0587 83.2523 28.3293 82.7483 28.488ZM79.1643 27.76H80.9563C81.4229 27.76 81.7823 27.6573 82.0343 27.452C82.2863 27.2373 82.4123 26.934 82.4123 26.542C82.4123 26.15 82.2863 25.8467 82.0343 25.632C81.7823 25.4173 81.4229 25.31 80.9563 25.31H79.1643V27.76ZM81.1383 31.904C81.6143 31.904 81.9829 31.792 82.2443 31.568C82.5149 31.344 82.6503 31.0267 82.6503 30.616C82.6503 30.196 82.5103 29.8693 82.2303 29.636C81.9503 29.3933 81.5723 29.272 81.0963 29.272H79.1643V31.904H81.1383ZM93.9704 23.728L90.6664 30.098V33.5H88.7064V30.098L85.3884 23.728H87.6004L89.7004 28.194L91.7864 23.728H93.9704Z" fill="#949494"/>
</g>
</g>
</g>
<g id="Group 6481">
<g id="Rectangle 4218" filter="url(#filter0_d_643_8539)">
<rect x="-16" y="-12" width="136" height="82" rx="8" fill="white"/>
</g>
<g id="Group 6331">
<rect id="Rectangle 4220" x="-8" y="-4" width="120" height="32" rx="4" fill="white"/>
<g id="Basic / Download">
<g id="Group 7942">
<path id="Vector" d="M20 14.666V18.2216C20 18.6931 19.8127 19.1453 19.4793 19.4786C19.1459 19.812 18.6937 19.9993 18.2222 19.9993H5.77778C5.30628 19.9993 4.8541 19.812 4.5207 19.4786C4.1873 19.1453 4 18.6931 4 18.2216V14.666" stroke="#949494" stroke-width="1.5" stroke-linecap="round" stroke-linejoin="round"/>
<g id="Group 8086">
<path id="Vector_2" d="M7.55566 10.2217L12.0001 14.6661L16.4446 10.2217" stroke="#949494" stroke-width="1.5" stroke-linecap="round" stroke-linejoin="round"/>
<path id="Vector_3" d="M12 14.6657V3.99902" stroke="#949494" stroke-width="1.5" stroke-linecap="round" stroke-linejoin="round"/>
</g>
</g>
</g>
</g>
</g>
</g>
<defs>
<filter id="filter0_d_643_8539" x="-24" y="-20" width="152" height="98" filterUnits="userSpaceOnUse" color-interpolation-filters="sRGB">
<feFlood flood-opacity="0" result="BackgroundImageFix"/>
<feColorMatrix in="SourceAlpha" type="matrix" values="0 0 0 0 0 0 0 0 0 0 0 0 0 0 0 0 0 0 127 0" result="hardAlpha"/>
<feOffset/>
<feGaussianBlur stdDeviation="4"/>
<feComposite in2="hardAlpha" operator="out"/>
<feColorMatrix type="matrix" values="0 0 0 0 0 0 0 0 0 0 0 0 0 0 0 0 0 0 0.04 0"/>
<feBlend mode="normal" in2="BackgroundImageFix" result="effect1_dropShadow_643_8539"/>
<feBlend mode="normal" in="SourceGraphic" in2="effect1_dropShadow_643_8539" result="shape"/>
</filter>
<clipPath id="clip0_643_8539">
<rect width="1976" height="970" fill="white" transform="translate(-1321 -162)"/>
</clipPath>
</defs>
</svg>
