<svg width="36" height="36" viewBox="0 0 36 36" fill="none" xmlns="http://www.w3.org/2000/svg">
<rect width="36" height="36" rx="18" fill="#D1C8F9" fill-opacity="0.24"/>
<path d="M14.3526 21.7031L10.666 23.4998V13.5998C10.666 12.5731 10.666 12.0597 10.8658 11.6675C11.0416 11.3226 11.3221 11.0421 11.667 10.8663C12.0592 10.6665 12.5726 10.6665 13.5993 10.6665H20.566C21.5928 10.6665 22.1062 10.6665 22.4983 10.8663C22.8433 11.0421 23.1238 11.3226 23.2995 11.6675C23.4993 12.0597 23.4993 12.5731 23.4993 13.5998V15.2498M25.3327 25.3332L23.3217 23.9925C23.047 23.8094 22.9097 23.7178 22.7611 23.653C22.6292 23.5954 22.491 23.5535 22.3493 23.5283C22.1897 23.4998 22.0247 23.4998 21.6945 23.4998H17.266C16.2393 23.4998 15.7259 23.4998 15.3337 23.3C14.9887 23.1242 14.7083 22.8438 14.5325 22.4988C14.3327 22.1066 14.3327 21.5933 14.3327 20.5665V18.1832C14.3327 17.1564 14.3327 16.643 14.5325 16.2509C14.7083 15.9059 14.9887 15.6254 15.3337 15.4497C15.7259 15.2498 16.2393 15.2498 17.266 15.2498H22.3993C23.4261 15.2498 23.9395 15.2498 24.3317 15.4497C24.6766 15.6254 24.9571 15.9059 25.1329 16.2509C25.3327 16.643 25.3327 17.1564 25.3327 18.1832V25.3332Z" stroke="#685C99" stroke-width="1.5" stroke-linecap="round" stroke-linejoin="round"/>
</svg>
