<svg width="24" height="24" viewBox="0 0 24 24" fill="none" xmlns="http://www.w3.org/2000/svg">
<rect width="24" height="24" rx="12" fill="#0370F2" fill-opacity="0.24"/>
<path d="M9.34719 14.6932L6.66602 15.9998V8.79984C6.66602 8.0531 6.66602 7.67973 6.81134 7.39452C6.93917 7.14363 7.14315 6.93966 7.39403 6.81183C7.67924 6.6665 8.05261 6.6665 8.79935 6.6665H13.866C14.6128 6.6665 14.9861 6.6665 15.2713 6.81183C15.5222 6.93966 15.7262 7.14363 15.854 7.39452C15.9993 7.67973 15.9993 8.0531 15.9993 8.79984V9.99984M17.3327 17.3332L15.8701 16.3581C15.6704 16.225 15.5705 16.1584 15.4624 16.1112C15.3665 16.0693 15.266 16.0389 15.163 16.0205C15.0469 15.9998 14.9268 15.9998 14.6868 15.9998H11.466C10.7193 15.9998 10.3459 15.9998 10.0607 15.8545C9.80981 15.7267 9.60584 15.5227 9.47801 15.2718C9.33268 14.9866 9.33268 14.6132 9.33268 13.8665V12.1332C9.33268 11.3864 9.33268 11.0131 9.47801 10.7279C9.60584 10.477 9.80981 10.273 10.0607 10.1452C10.3459 9.99984 10.7193 9.99984 11.466 9.99984H15.1993C15.9461 9.99984 16.3195 9.99984 16.6047 10.1452C16.8556 10.273 17.0595 10.477 17.1874 10.7279C17.3327 11.0131 17.3327 11.3864 17.3327 12.1332V17.3332Z" stroke="#0370F2" stroke-width="1.5" stroke-linecap="round" stroke-linejoin="round"/>
</svg>
