<svg width="24" height="24" viewBox="0 0 24 24" fill="none" xmlns="http://www.w3.org/2000/svg">
<g id="Group 11">
<g id="Group 13">
<g id="Group 12">
<path id="Rectangle 7" d="M6 10C6 6.68629 8.68629 4 12 4C15.3137 4 18 6.68629 18 10V18H6V10Z" fill="#9CA3AE" stroke="#9CA3AE" stroke-width="1.5"/>
<line id="Line 166" x1="4.75" y1="19.25" x2="19.25" y2="19.25" stroke="#9CA3AE" stroke-width="1.5" stroke-linecap="round"/>
<g id="KM">
<path d="M7.56445 14.0004V9.63672H8.48704V11.5607H8.54457L10.1149 9.63672H11.2207L9.60139 11.5906L11.2399 14.0004H10.1362L8.94087 12.2063L8.48704 12.7603V14.0004H7.56445Z" fill="white"/>
<path d="M11.7012 9.63672H12.839L14.0407 12.5685H14.0918L15.2935 9.63672H16.4313V14.0004H15.5364V11.1602H15.5002L14.3709 13.979H13.7615L12.6323 11.1495H12.5961V14.0004H11.7012V9.63672Z" fill="white"/>
</g>
</g>
</g>
</g>
</svg>
