<svg width="24" height="24" viewBox="0 0 24 24" fill="none" xmlns="http://www.w3.org/2000/svg">
<g id="globe-alt">
<path id="Icon" d="M12 14C8.13401 14 5 13.1046 5 12C5 10.8954 8.13401 10 12 10C15.866 10 19 10.8954 19 12C19 13.1046 15.866 14 12 14Z" stroke="#C8553D" stroke-width="1.5" stroke-linecap="round" stroke-linejoin="round"/>
<path id="Icon_2" d="M10 12C10 15.866 10.8954 19 12 19C13.1046 19 14 15.866 14 12C14 8.13401 13.1046 5 12 5C10.8954 5 10 8.13401 10 12Z" stroke="#C8553D" stroke-width="1.5" stroke-linecap="round" stroke-linejoin="round"/>
<path id="Icon_3" d="M20 12C20 16.4183 16.4183 20 12 20C7.58172 20 4 16.4183 4 12C4 7.58172 7.58172 4 12 4C16.4183 4 20 7.58172 20 12Z" stroke="#131A29" stroke-width="1.5" stroke-linecap="round" stroke-linejoin="round"/>
</g>
</svg>
