<svg width="52" height="52" viewBox="0 0 52 52" fill="none" xmlns="http://www.w3.org/2000/svg">
<rect width="52" height="52" rx="4" fill="#4DB86B" fill-opacity="0.14"/>
<path d="M41.6959 25.6754L35.5039 23.5874L32.4439 17.9714C31.6159 16.4594 30.0319 15.5234 28.3399 15.5234H17.1799C15.4519 15.5234 13.9039 16.4594 13.0759 17.9714L9.87194 23.8394V23.8754C9.83594 23.9114 9.83594 23.9474 9.83594 23.9834V32.8034C9.83594 33.1994 10.1599 33.5234 10.5559 33.5234H13.5079C13.8319 35.1794 15.3079 36.4034 17.0359 36.4034C18.7639 36.4034 20.2399 35.1794 20.5639 33.5234H31.5079C31.8319 35.1794 33.3079 36.4034 35.0359 36.4034C36.7639 36.4034 38.2399 35.1794 38.5639 33.5234H41.4799C41.8759 33.5234 42.1999 33.1994 42.1999 32.8034V26.3594C42.1999 26.0354 42.0199 25.7834 41.6959 25.6754ZM21.6799 16.9994H28.3399C29.5279 16.9994 30.6079 17.6474 31.1839 18.6914L33.7759 23.4794H21.6799V16.9994ZM14.3359 18.6914C14.9119 17.6474 15.9919 16.9994 17.1799 16.9994H20.2399V23.4794H11.7439L14.3359 18.6914ZM13.4719 32.1194H11.2399V30.6794H14.1199C13.7959 31.1114 13.5799 31.5794 13.4719 32.1194ZM16.9999 34.9994C15.8119 34.9994 14.8399 34.0274 14.8399 32.8394C14.8399 31.6514 15.8119 30.6794 16.9999 30.6794C18.1879 30.6794 19.1599 31.6514 19.1599 32.8394C19.1599 34.0274 18.1879 34.9994 16.9999 34.9994ZM34.9999 34.9994C33.8119 34.9994 32.8399 34.0274 32.8399 32.8394C32.8399 31.6514 33.8119 30.6794 34.9999 30.6794C36.1879 30.6794 37.1599 31.6514 37.1599 32.8394C37.1599 34.0274 36.1879 34.9994 34.9999 34.9994ZM40.7599 32.1194H38.5279C38.2039 30.4634 36.7279 29.2394 34.9999 29.2394C33.2719 29.2394 31.7959 30.4634 31.4719 32.1194H20.5279C20.2039 30.4634 18.7279 29.2394 16.9999 29.2394H11.2399V24.9194H34.8919L40.7599 26.8634V32.1194Z" fill="#4DB86B"/>
</svg>
