<svg width="72" height="72" viewBox="0 0 72 72" fill="none" xmlns="http://www.w3.org/2000/svg">
<g clip-path="url(#clip0_1881_2098)">
<path d="M68 0H4C1.79086 0 0 1.79086 0 4V68C0 70.2091 1.79086 72 4 72H68C70.2091 72 72 70.2091 72 68V4C72 1.79086 70.2091 0 68 0Z" fill="#051912"/>
<path d="M49.6403 65.5813C49.3778 65.5813 49.1363 65.5196 48.9158 65.3963C48.6978 65.2729 48.5246 65.1022 48.3961 64.8844C48.2674 64.6665 48.2031 64.421 48.2031 64.1481C48.2031 63.8751 48.2674 63.6296 48.3961 63.4118C48.5246 63.1939 48.6978 63.0246 48.9158 62.9038C49.1363 62.7805 49.3778 62.7188 49.6403 62.7188C49.9027 62.7188 50.1429 62.7805 50.3609 62.9038C50.5787 63.0246 50.7507 63.1939 50.8767 63.4118C51.0052 63.6296 51.0696 63.8751 51.0696 64.1481C51.0696 64.421 51.0052 64.6665 50.8767 64.8844C50.7507 65.1022 50.5774 65.2729 50.3569 65.3963C50.139 65.5196 49.9002 65.5813 49.6403 65.5813ZM49.6403 64.7662C49.8136 64.7662 49.9474 64.7111 50.0419 64.6009C50.1364 64.488 50.1837 64.3371 50.1837 64.1481C50.1837 63.9564 50.1364 63.8055 50.0419 63.6953C49.9474 63.5823 49.8136 63.5259 49.6403 63.5259C49.4644 63.5259 49.3292 63.5823 49.2347 63.6953C49.1402 63.8055 49.093 63.9564 49.093 64.1481C49.093 64.3371 49.1402 64.488 49.2347 64.6009C49.3292 64.7111 49.4644 64.7662 49.6403 64.7662Z" fill="#FFAE1F"/>
<path d="M47.0463 65.5539L46.5226 64.5537H46.5187V65.5539H45.6445V62.7661H46.9439C47.1696 62.7661 47.3625 62.8068 47.5227 62.8882C47.6829 62.9669 47.8023 63.0759 47.881 63.215C47.9625 63.3515 48.0031 63.5064 48.0031 63.6796C48.0031 63.8659 47.9506 64.0313 47.8456 64.1757C47.7432 64.3202 47.5949 64.4238 47.4007 64.4868L48.007 65.5539H47.0463ZM46.5187 63.971H46.8652C46.9491 63.971 47.0121 63.9526 47.0542 63.9159C47.0962 63.8765 47.1172 63.8162 47.1172 63.7347C47.1172 63.6612 47.0948 63.6035 47.0502 63.5615C47.0082 63.5194 46.9466 63.4985 46.8652 63.4985H46.5187V63.971Z" fill="#FFAE1F"/>
<path d="M45.3677 63.7229C45.3677 63.8988 45.3271 64.0589 45.2456 64.2033C45.1644 64.3451 45.0436 64.458 44.8834 64.5419C44.7259 64.6259 44.5344 64.6679 44.3085 64.6679H43.962V65.5539H43.0879V62.7661H44.3085C44.6498 62.7661 44.911 62.8527 45.0921 63.026C45.2759 63.1992 45.3677 63.4316 45.3677 63.7229ZM44.2101 63.9789C44.3912 63.9789 44.4818 63.8935 44.4818 63.7229C44.4818 63.5523 44.3912 63.467 44.2101 63.467H43.962V63.9789H44.2101Z" fill="#FFAE1F"/>
<path d="M47.2027 45.125C47.9727 45.125 48.6456 45.2811 49.2215 45.5933C49.8042 45.9055 50.2517 46.339 50.5639 46.8941C50.8761 47.4491 51.0322 48.0804 51.0322 48.788C51.0322 49.4887 50.8761 50.12 50.5639 50.6819C50.2517 51.2439 49.8042 51.6878 49.2215 52.0139C48.6456 52.333 47.9727 52.4926 47.2027 52.4926H44.1328V45.125H47.2027ZM46.9945 50.4322C47.5148 50.4322 47.9276 50.29 48.2329 50.0055C48.5382 49.721 48.6908 49.3152 48.6908 48.788C48.6908 48.2608 48.5382 47.855 48.2329 47.5705C47.9276 47.286 47.5148 47.1438 46.9945 47.1438H46.443V50.4322H46.9945Z" fill="#FFAE1F"/>
<path d="M40.526 51.3792H38.0701L37.7059 52.4926H35.2812L37.9765 45.125H40.6405L43.3253 52.4926H40.8902L40.526 51.3792ZM39.9641 49.6413L39.2981 47.5913L38.6321 49.6413H39.9641Z" fill="#FFAE1F"/>
<path d="M31.4721 52.5653C30.7784 52.5653 30.1401 52.4024 29.5574 52.0763C28.9816 51.7501 28.5238 51.2993 28.1837 50.7234C27.8438 50.1476 27.6738 49.499 27.6738 48.7775C27.6738 48.0559 27.8438 47.4074 28.1837 46.8315C28.5238 46.2556 28.9816 45.8082 29.5574 45.4891C30.1401 45.163 30.7784 45 31.4721 45C32.166 45 32.8007 45.163 33.3765 45.4891C33.9523 45.8082 34.4067 46.2556 34.7397 46.8315C35.0797 47.4074 35.2496 48.0559 35.2496 48.7775C35.2496 49.499 35.0797 50.1476 34.7397 50.7234C34.4067 51.2993 33.9488 51.7501 33.366 52.0763C32.7903 52.4024 32.1589 52.5653 31.4721 52.5653ZM31.4721 50.4113C31.93 50.4113 32.2838 50.2656 32.5335 49.9742C32.7833 49.6759 32.9082 49.277 32.9082 48.7775C32.9082 48.2711 32.7833 47.8721 32.5335 47.5807C32.2838 47.2825 31.93 47.1333 31.4721 47.1333C31.0073 47.1333 30.65 47.2825 30.4003 47.5807C30.1505 47.8721 30.0256 48.2711 30.0256 48.7775C30.0256 49.277 30.1505 49.6759 30.4003 49.9742C30.65 50.2656 31.0073 50.4113 31.4721 50.4113Z" fill="#FFAE1F"/>
<path d="M24.6148 52.4926L23.2307 49.8494H23.2203V52.4926H20.9102V45.125H24.3442C24.9409 45.125 25.4508 45.2326 25.8739 45.4476C26.2972 45.6557 26.6128 45.9436 26.8209 46.3113C27.0361 46.672 27.1435 47.0814 27.1435 47.5392C27.1435 48.0319 27.0048 48.4689 26.7272 48.8504C26.4567 49.232 26.0648 49.506 25.5513 49.6725L27.1539 52.4926H24.6148ZM23.2203 48.3093H24.1361C24.3581 48.3093 24.5246 48.2608 24.6356 48.1636C24.7467 48.0596 24.8021 47.9 24.8021 47.6849C24.8021 47.4907 24.7432 47.338 24.6252 47.2271C24.5142 47.1161 24.3513 47.0606 24.1361 47.0606H23.2203V48.3093Z" fill="#FFAE1F"/>
<path d="M48.4352 55.9147V56.82H50.7246V58.5578H48.4352V59.5985H51.0368V61.4404H46.125V54.0728H51.0368V55.9147H48.4352Z" fill="#0A7F47"/>
<path d="M42.0464 61.4404L40.6624 58.7972H40.652V61.4404H38.3418V54.0728H41.7759C42.3725 54.0728 42.8824 54.1803 43.3056 54.3953C43.7289 54.6035 44.0444 54.8913 44.2525 55.2591C44.4677 55.6198 44.5751 56.0291 44.5751 56.487C44.5751 56.9796 44.4365 57.4167 44.1589 57.7982C43.8883 58.1797 43.4964 58.4538 42.983 58.6203L44.5855 61.4404H42.0464ZM40.652 57.2571H41.5677C41.7898 57.2571 41.9563 57.2086 42.0672 57.1114C42.1783 57.0073 42.2337 56.8477 42.2337 56.6327C42.2337 56.4385 42.1748 56.2858 42.0568 56.1748C41.9459 56.0639 41.7829 56.0083 41.5677 56.0083H40.652V57.2571Z" fill="#0A7F47"/>
<path d="M34.2135 60.3821H31.7576L31.3934 61.4956H28.9688L31.664 54.1279H34.328L37.0128 61.4956H34.5777L34.2135 60.3821ZM33.6516 58.6442L32.9856 56.5942L32.3196 58.6442H33.6516Z" fill="#0A7F47"/>
<path d="M20.9844 57.7463C20.9844 57.0178 21.1301 56.3691 21.4214 55.8003C21.7198 55.2315 22.143 54.7909 22.691 54.4787C23.2392 54.1596 23.8843 54 24.6266 54C25.2649 54 25.8337 54.1214 26.3332 54.3642C26.8397 54.6 27.2489 54.9366 27.5611 55.3736C27.8803 55.8107 28.0918 56.3206 28.1959 56.9033H25.7608C25.6499 56.6605 25.4903 56.4732 25.2822 56.3414C25.0811 56.2026 24.8486 56.1333 24.5849 56.1333C24.1965 56.1333 23.8877 56.279 23.6588 56.5703C23.4369 56.8617 23.3258 57.2536 23.3258 57.7463C23.3258 58.2389 23.4369 58.6308 23.6588 58.9222C23.8877 59.2135 24.1965 59.3592 24.5849 59.3592C24.8486 59.3592 25.0811 59.2933 25.2822 59.1615C25.4903 59.0227 25.6499 58.832 25.7608 58.5892H28.1959C28.0918 59.1719 27.8803 59.6818 27.5611 60.1189C27.2489 60.5559 26.8397 60.8958 26.3332 61.1387C25.8337 61.3745 25.2649 61.4925 24.6266 61.4925C23.8843 61.4925 23.2392 61.3364 22.691 61.0242C22.143 60.7051 21.7198 60.261 21.4214 59.6922C21.1301 59.1234 20.9844 58.4747 20.9844 57.7463Z" fill="#0A7F47"/>
<path d="M36.9622 7.59375H20.9531V15.7501C20.9531 16.9214 22.0392 17.7905 23.1819 17.5338L47.0732 12.1672C47.1745 12.1445 47.2168 12.0237 47.1503 11.944C44.6671 8.96573 40.5312 7.59375 36.9622 7.59375Z" fill="white"/>
<path d="M42.5305 29.4033C42.5305 29.4033 49.5606 25.2734 49.375 18.0346C49.322 15.9701 48.7332 14.2339 47.7918 12.8067C47.7512 12.7452 47.6698 12.7267 47.6061 12.7634L23.3466 26.7476C21.8656 27.6012 20.9531 29.1805 20.9531 30.8898V42.7442C20.9531 42.7442 26.3012 42.8732 28.2615 41.9321C28.9866 41.5841 29.7697 40.6561 29.8858 39.4959C29.9921 38.4317 30.0018 35.0876 30.0018 35.0876C30.0018 32.3035 31.7419 31.6074 32.9019 31.6074C34.6427 31.6074 35.5095 33.8064 37.6582 37.4078C39.7969 40.9923 40.8516 42.7442 44.3317 42.7442H50.9766L42.5305 29.4033Z" fill="white"/>
<path d="M34.4082 18.7879L41.0997 15.3307C41.1796 15.2893 41.2008 15.1848 41.1432 15.1157L40.7349 14.6259C40.6988 14.5824 40.6402 14.5648 40.5862 14.5813L33.1976 16.8202C33.1082 16.8473 33.0695 16.9526 33.1202 17.0313L34.2257 18.7394C34.2649 18.8002 34.344 18.8211 34.4082 18.7879Z" fill="white"/>
<path d="M21.1549 25.0134L31.138 20.1901C31.2128 20.154 31.2403 20.0611 31.1968 19.9901L30.0573 18.1254C30.0244 18.0716 29.9597 18.0463 29.8991 18.0634L21.0556 20.5577C20.995 20.5748 20.9531 20.6301 20.9531 20.6931V24.8868C20.9531 24.9905 21.0615 25.0585 21.1549 25.0134Z" fill="white"/>
</g>
<defs>
<clipPath id="clip0_1881_2098">
<rect width="72" height="72" fill="white"/>
</clipPath>
</defs>
</svg>
