<svg width="24" height="24" viewBox="0 0 24 24" fill="none" xmlns="http://www.w3.org/2000/svg">
<g clip-path="url(#clip0_95_5183)">
<path fill-rule="evenodd" clip-rule="evenodd" d="M17.4735 15.0342L18 14.5L18.5265 15.0342C18.2345 15.3219 17.7655 15.3219 17.4735 15.0342ZM18 13.4228C18.0713 13.3472 18.1485 13.2647 18.2306 13.1759C18.6903 12.6789 19.3012 11.9888 19.9102 11.2136C20.5214 10.4357 21.1184 9.58751 21.5592 8.77327C22.0102 7.9401 22.25 7.22812 22.25 6.7C22.25 4.18609 20.5693 2.25 18 2.25C15.4307 2.25 13.75 4.18609 13.75 6.7C13.75 7.22812 13.9898 7.9401 14.4408 8.77327C14.8816 9.58751 15.4786 10.4357 16.0898 11.2136C16.6988 11.9888 17.3097 12.6789 17.7694 13.1759C17.8515 13.2647 17.9287 13.3472 18 13.4228ZM18.5265 15.0342C18.5264 15.0343 18.5265 15.0342 18 14.5C17.4735 15.0342 17.4736 15.0343 17.4735 15.0342L17.4687 15.0294L17.4567 15.0175L17.4123 14.973C17.3738 14.9344 17.3182 14.8782 17.2479 14.8059C17.1072 14.6615 16.9074 14.4531 16.6681 14.1943C16.1903 13.6776 15.5512 12.9561 14.9102 12.1403C14.2714 11.3272 13.6184 10.4049 13.1217 9.48738C12.6352 8.58881 12.25 7.60783 12.25 6.7C12.25 3.47015 14.4941 0.75 18 0.75C21.5059 0.749999 23.75 3.47015 23.75 6.7C23.75 7.60783 23.3648 8.58881 22.8783 9.48738C22.3816 10.4049 21.7286 11.3272 21.0898 12.1403C20.4488 12.9561 19.8097 13.6776 19.3319 14.1943C19.0926 14.4531 18.8927 14.6615 18.7521 14.8059C18.6818 14.8782 18.6262 14.9344 18.5877 14.973L18.5433 15.0175L18.5313 15.0294L18.5265 15.0342Z" fill="#BA5D45"/>
<path fill-rule="evenodd" clip-rule="evenodd" d="M18 5.25C17.3096 5.25 16.75 5.80964 16.75 6.5C16.75 7.19036 17.3096 7.75 18 7.75C18.6904 7.75 19.25 7.19036 19.25 6.5C19.25 5.80964 18.6904 5.25 18 5.25ZM15.25 6.5C15.25 4.98122 16.4812 3.75 18 3.75C19.5188 3.75 20.75 4.98122 20.75 6.5C20.75 8.01878 19.5188 9.25 18 9.25C16.4812 9.25 15.25 8.01878 15.25 6.5ZM3.88103 3.74155C4.30325 3.70637 4.79306 3.62474 5.28749 3.47081C5.93189 3.27019 6.54666 2.95911 7.03529 2.50161C6.72541 2.34068 6.37355 2.25 6 2.25C5.0235 2.25 4.19228 2.87207 3.88103 3.74155ZM8.06132 3.59619C7.36347 4.24981 6.52431 4.65677 5.73337 4.90301C5.07957 5.10655 4.4331 5.20873 3.87664 5.24606C4.1844 6.12201 5.01887 6.75 6 6.75C7.24264 6.75 8.25 5.74264 8.25 4.5C8.25 4.17832 8.18276 3.87274 8.06132 3.59619ZM2.25 4.5C2.25 2.42893 3.92893 0.75 6 0.75C7.03642 0.75 7.97582 1.17144 8.65378 1.85048C9.33033 2.52811 9.75 3.46576 9.75 4.5C9.75 6.57107 8.07107 8.25 6 8.25C3.92893 8.25 2.25 6.57107 2.25 4.5ZM3 10.75C2.30964 10.75 1.75 11.3096 1.75 12V15.8824C1.75 16.0204 1.86193 16.1324 2 16.1324H3.5C3.91421 16.1324 4.25 16.4681 4.25 16.8824V22C4.25 22.1381 4.36193 22.25 4.5 22.25H7.5C7.63807 22.25 7.75 22.1381 7.75 22V16.8824C7.75 16.4681 8.08579 16.1324 8.5 16.1324H10C10.1381 16.1324 10.25 16.0204 10.25 15.8824V12C10.25 11.3096 9.69036 10.75 9 10.75H3ZM0.25 12C0.25 10.4812 1.48122 9.25 3 9.25H9C10.5188 9.25 11.75 10.4812 11.75 12V15.8824C11.75 16.8489 10.9665 17.6324 10 17.6324H9.25V22C9.25 22.9665 8.4665 23.75 7.5 23.75H4.5C3.5335 23.75 2.75 22.9665 2.75 22V17.6324H2C1.0335 17.6324 0.25 16.8489 0.25 15.8824V12Z" fill="#203036"/>
<path fill-rule="evenodd" clip-rule="evenodd" d="M6.00002 9.25C6.34417 9.25 6.64415 9.48422 6.72762 9.8181L7.72762 13.8181C7.79152 14.0737 7.71663 14.344 7.53035 14.5303L6.53035 15.5303C6.23745 15.8232 5.76258 15.8232 5.46969 15.5303L4.46969 14.5303C4.2834 14.344 4.20851 14.0737 4.27241 13.8181L5.27241 9.8181C5.35588 9.48422 5.65587 9.25 6.00002 9.25ZM5.83061 13.7699L6.00002 13.9393L6.16942 13.7699L6.00002 13.0923L5.83061 13.7699Z" fill="#203036"/>
<path d="M6.00144 13.9393L5.83203 13.7699L6.00144 13.0923L6.17084 13.7699L6.00144 13.9393Z" fill="#203036"/>
</g>
<defs>
<clipPath id="clip0_95_5183">
<rect width="24" height="24" fill="white"/>
</clipPath>
</defs>
</svg>
