<svg width="44" height="44" viewBox="0 0 44 44" fill="none" xmlns="http://www.w3.org/2000/svg">
<path fill-rule="evenodd" clip-rule="evenodd" d="M37.1222 12.375H5.5C4.4055 12.375 3.35637 12.8095 2.58362 13.5836C1.8095 14.3564 1.375 15.4055 1.375 16.5C1.375 21.769 1.375 33.231 1.375 38.5C1.375 39.5945 1.8095 40.6436 2.58362 41.4164C3.35637 42.1905 4.4055 42.625 5.5 42.625C12.5868 42.625 31.4132 42.625 38.5 42.625C39.5945 42.625 40.6436 42.1905 41.4164 41.4164C42.1905 40.6436 42.625 39.5945 42.625 38.5V16.5C42.625 15.4055 42.1905 14.3564 41.4164 13.5836C40.6436 12.8095 39.5945 12.375 38.5 12.375H37.1222Z" fill="#FAAF40"/>
<path fill-rule="evenodd" clip-rule="evenodd" d="M15.1195 29.6528L7.469 34.5712C6.831 34.9809 6.64537 35.8334 7.05512 36.4714C7.46625 37.1094 8.31737 37.2951 8.95537 36.8839L17.2989 31.5214L19.316 33.2498C20.8601 34.5739 23.1399 34.5739 24.684 33.2498L26.7011 31.5214L34.859 36.7657C35.497 37.1754 36.3481 36.9912 36.7592 36.3518C37.169 35.7138 36.9847 34.8627 36.3454 34.4516L28.8805 29.6528L36.5915 23.0432C37.1676 22.5496 37.2336 21.6806 36.74 21.1044C36.2464 20.5283 35.3774 20.4623 34.8012 20.9559L22.8951 31.1612C22.3795 31.6026 21.6205 31.6026 21.1049 31.1612L9.23862 20.9903C8.6625 20.4953 7.7935 20.5627 7.29987 21.1388C6.80625 21.7149 6.87225 22.5839 7.44837 23.0776L15.1195 29.6528Z" fill="#F7FFF7"/>
<path d="M22 23.375C28.0751 23.375 33 18.4501 33 12.375C33 6.29987 28.0751 1.375 22 1.375C15.9249 1.375 11 6.29987 11 12.375C11 18.4501 15.9249 23.375 22 23.375Z" fill="#25CC53"/>
<path fill-rule="evenodd" clip-rule="evenodd" d="M16.9029 13.456L19.5443 16.0974C20.0819 16.635 20.9523 16.635 21.4885 16.0974L26.9885 10.5974C27.5262 10.0612 27.5262 9.18941 26.9885 8.65316C26.4523 8.11691 25.5805 8.11691 25.0443 8.65316L20.5164 13.181L18.8472 11.5118C18.3109 10.9742 17.4392 10.9742 16.9029 11.5118C16.3667 12.048 16.3667 12.9198 16.9029 13.456Z" fill="#F7FFF7"/>
</svg>
