<svg width="20" height="20" viewBox="0 0 20 20" fill="none" xmlns="http://www.w3.org/2000/svg">
<path d="M7.01632 13.03L4 14.5V6.4C4 5.55992 4 5.13988 4.16349 4.81901C4.3073 4.53677 4.53677 4.3073 4.81901 4.16349C5.13988 4 5.55992 4 6.4 4H12.1C12.9401 4 13.3601 4 13.681 4.16349C13.9632 4.3073 14.1927 4.53677 14.3365 4.81901C14.5 5.13988 14.5 5.55992 14.5 6.4V7.75M16 16L14.3546 14.9031C14.1299 14.7533 14.0175 14.6783 13.896 14.6253C13.7881 14.5782 13.675 14.5439 13.5591 14.5233C13.4285 14.5 13.2934 14.5 13.0233 14.5H9.4C8.55992 14.5 8.13988 14.5 7.81901 14.3365C7.53677 14.1927 7.3073 13.9632 7.16349 13.681C7 13.3601 7 12.9401 7 12.1V10.15C7 9.30992 7 8.88988 7.16349 8.56901C7.3073 8.28677 7.53677 8.0573 7.81901 7.91349C8.13988 7.75 8.55992 7.75 9.4 7.75H13.6C14.4401 7.75 14.8601 7.75 15.181 7.91349C15.4632 8.0573 15.6927 8.28677 15.8365 8.56901C16 8.88988 16 9.30992 16 10.15V16Z" stroke="#0370F2" stroke-linecap="round" stroke-linejoin="round"/>
</svg>
