<svg width="20" height="20" viewBox="0 0 20 20" fill="none" xmlns="http://www.w3.org/2000/svg">
<path d="M6.68545 13.3663L3.33398 14.9997V5.99967C3.33398 5.06625 3.33398 4.59954 3.51564 4.24302C3.67543 3.92942 3.9304 3.67445 4.244 3.51466C4.60052 3.33301 5.06723 3.33301 6.00065 3.33301H12.334C13.2674 3.33301 13.7341 3.33301 14.0906 3.51466C14.4042 3.67445 14.6592 3.92942 14.819 4.24302C15.0007 4.59954 15.0007 5.06625 15.0007 5.99967V7.49967M16.6673 16.6663L14.8391 15.4475C14.5894 15.2811 14.4646 15.1978 14.3295 15.1389C14.2096 15.0865 14.084 15.0485 13.9552 15.0255C13.8101 14.9997 13.66 14.9997 13.3599 14.9997H9.33398C8.40056 14.9997 7.93385 14.9997 7.57733 14.818C7.26373 14.6582 7.00876 14.4033 6.84897 14.0897C6.66732 13.7331 6.66732 13.2664 6.66732 12.333V10.1663C6.66732 9.23292 6.66732 8.76621 6.84897 8.40969C7.00876 8.09609 7.26373 7.84112 7.57733 7.68133C7.93385 7.49967 8.40056 7.49967 9.33398 7.49967H14.0007C14.9341 7.49967 15.4008 7.49967 15.7573 7.68133C16.0709 7.84112 16.3259 8.09609 16.4857 8.40969C16.6673 8.76621 16.6673 9.23292 16.6673 10.1663V16.6663Z" stroke="#949494" stroke-width="1.5" stroke-linecap="round" stroke-linejoin="round"/>
</svg>

