<svg width="24" height="24" viewBox="0 0 24 24" fill="none" xmlns="http://www.w3.org/2000/svg">
<g id="mobile">
<path id="Icon" d="M6 6.2C6 5.07989 6 4.51984 6.21799 4.09202C6.40973 3.71569 6.71569 3.40973 7.09202 3.21799C7.51984 3 8.0799 3 9.2 3H14.8C15.9201 3 16.4802 3 16.908 3.21799C17.2843 3.40973 17.5903 3.71569 17.782 4.09202C18 4.51984 18 5.0799 18 6.2V17.8C18 18.9201 18 19.4802 17.782 19.908C17.5903 20.2843 17.2843 20.5903 16.908 20.782C16.4802 21 15.9201 21 14.8 21H9.2C8.07989 21 7.51984 21 7.09202 20.782C6.71569 20.5903 6.40973 20.2843 6.21799 19.908C6 19.4802 6 18.9201 6 17.8V6.2Z" stroke="#131A29" stroke-width="1.5" stroke-linecap="round" stroke-linejoin="round"/>
<path id="Icon_2" d="M9 9H10.5M9 14L11.25 11.8571L12.75 13.2857L15 11.1429" stroke="#C8553D" stroke-width="1.5" stroke-linecap="round" stroke-linejoin="round"/>
<path id="Icon_3" d="M12 18H12.01" stroke="#131A29" stroke-width="1.5" stroke-linecap="round" stroke-linejoin="round"/>
</g>
</svg>
