<svg width="20" height="20" viewBox="0 0 20 20" fill="none" xmlns="http://www.w3.org/2000/svg">
<g id="money-bill">
<path id="Icon" d="M15.1476 5C14.8016 5.30539 14.5833 5.75221 14.5833 6.25C14.5833 7.17047 15.3295 7.91667 16.25 7.91667C16.3939 7.91667 17.0833 7.91667 17.5 7.5M5 15C5.65087 14.3491 5.65087 13.1509 5 12.5C4.34913 11.8491 3.15087 11.8491 2.5 12.5M5 5C5.65087 5.65087 5.65087 6.84913 5 7.5C4.34913 8.15087 3.15087 8.15087 2.5 7.5M15 15C14.3491 14.3491 14.3491 13.1509 15 12.5C15.6509 11.8491 16.8491 11.8491 17.5 12.5M5.16667 15H14.8333C15.7668 15 16.2335 15 16.59 14.8183C16.9036 14.6586 17.1586 14.4036 17.3183 14.09C17.5 13.7335 17.5 13.2668 17.5 12.3333V7.66667C17.5 6.73325 17.5 6.26654 17.3183 5.91002C17.1586 5.59641 16.9036 5.34144 16.59 5.18166C16.2335 5 15.7668 5 14.8333 5H5.16667C4.23325 5 3.76654 5 3.41002 5.18166C3.09641 5.34144 2.84144 5.59641 2.68166 5.91002C2.5 6.26654 2.5 6.73325 2.5 7.66667V12.3333C2.5 13.2668 2.5 13.7335 2.68166 14.09C2.84144 14.4036 3.09641 14.6586 3.41002 14.8183C3.76654 15 4.23325 15 5.16667 15ZM11.6667 10C11.6667 10.9205 10.9205 11.6667 10 11.6667C9.07953 11.6667 8.33333 10.9205 8.33333 10C8.33333 9.07953 9.07953 8.33333 10 8.33333C10.9205 8.33333 11.6667 9.07953 11.6667 10Z" stroke="#A889E6" stroke-width="1.5" stroke-linecap="round" stroke-linejoin="round"/>
</g>
</svg>
