<svg width="32" height="32" viewBox="0 0 32 32" fill="none" xmlns="http://www.w3.org/2000/svg">
<path d="M28.1817 2.0625H8.21681C6.48412 2.0625 5.0745 3.45906 5.0745 5.16981L4.94575 22.75H1.0495C0.773375 22.75 0.5625 22.9942 0.5625 23.2704V25.6897C0.5625 27.9546 2.375 29.8068 4.5625 29.9084V29.9375H21.375V29.9049C21.5 29.91 21.5758 29.9375 21.6617 29.9375H21.6735C22.7939 29.931 23.8659 29.4798 24.6538 28.6831C25.4417 27.8865 25.8809 26.8096 25.875 25.6891V10.3125H30.9504C31.2266 10.3125 31.4375 10.0625 31.4375 9.78656V5.34737C31.439 4.48073 31.0974 3.64872 30.4873 3.03319C29.8773 2.41767 29.0483 2.06868 28.1817 2.0625ZM4.78125 28.9375H4.77781C2.99937 28.9375 1.5625 27.4675 1.5625 25.6891V23.75H17.4375V25.6809C17.4356 26.2381 17.5437 26.7902 17.7557 27.3056C17.9677 27.8209 18.2793 28.2893 18.6728 28.6839C18.7574 28.7689 18.8457 28.8125 18.9361 28.9375H4.78125ZM24.875 25.6887C24.875 27.4676 23.4521 28.9375 21.6729 28.9375H21.6625C20.8037 28.9313 19.9823 28.5852 19.3779 27.975C18.7736 27.3648 18.4355 26.5401 18.4375 25.6812V23.2704C18.4382 23.1356 18.3864 23.0059 18.293 22.9088C18.1997 22.8116 18.0722 22.7547 17.9375 22.75H5.94581L6.0745 5.17344C6.0745 4.01044 7.0355 3.0625 8.21681 3.0625H25.8211C25.2513 3.6875 24.875 4.47831 24.875 5.36075V25.6887ZM30.4375 5.35625V9.3125H25.875V5.35994C25.875 4.10838 26.9161 3.0625 28.1669 3.0625H28.1809C28.7833 3.06846 29.3589 3.31269 29.7817 3.7418C30.2046 4.17091 30.4404 4.74999 30.4375 5.35244V5.35625Z" fill="#949494" stroke="#949494" stroke-width="0.5"/>
<path d="M12.3038 14.3699L14.8816 16.1324C14.9638 16.189 15.0612 16.2193 15.161 16.2193C15.2608 16.2193 15.3583 16.189 15.4405 16.1324L18.0105 14.3702C18.9033 13.7612 19.5627 12.4877 19.5627 11.408V7.84194C19.5653 7.74956 19.5416 7.65836 19.4944 7.57891C19.4472 7.49946 19.3784 7.43504 19.2961 7.39312L15.3711 5.46225C15.3032 5.42863 15.2284 5.41113 15.1526 5.41113C15.0768 5.41113 15.002 5.42863 14.934 5.46225L11.0164 7.38769C10.934 7.4296 10.8653 7.49406 10.8182 7.57356C10.771 7.65306 10.7475 7.74431 10.7502 7.83669V11.408C10.7502 12.4877 11.4112 13.7612 12.3038 14.3699ZM11.7502 8.14856L15.1565 6.46787L18.5627 8.15337V11.408C18.5627 12.1611 18.069 13.1191 17.4463 13.5437L15.1507 15.1138L12.864 13.5439C12.2413 13.1189 11.7502 12.1611 11.7502 11.408V8.14856Z" fill="#949494" stroke="#949494" stroke-width="0.5"/>
<path d="M14.3105 12.1623C14.3567 12.2094 14.4118 12.2469 14.4725 12.2727C14.5333 12.2984 14.5986 12.3119 14.6646 12.3123H14.6657C14.7986 12.3117 14.9257 12.2584 15.0194 12.1643L17.0084 10.1744C17.1022 10.0807 17.155 9.95344 17.155 9.82077C17.1551 9.68809 17.1024 9.56083 17.0087 9.46697C16.9149 9.37312 16.7877 9.32037 16.655 9.32031C16.5223 9.32026 16.395 9.37291 16.3012 9.46669L14.6675 11.1004L14.0144 10.4408C13.921 10.3466 13.794 10.2933 13.6613 10.2928C13.5286 10.2922 13.4011 10.3443 13.3069 10.4377C13.2127 10.5311 13.1594 10.6581 13.1588 10.7908C13.1583 10.9235 13.2104 11.051 13.3038 11.1452L14.3105 12.1623ZM21.375 17.5623H9.375C9.24239 17.5623 9.11521 17.6149 9.02145 17.7087C8.92768 17.8025 8.875 17.9296 8.875 18.0623C8.875 18.1949 8.92768 18.322 9.02145 18.4158C9.11521 18.5096 9.24239 18.5623 9.375 18.5623H21.375C21.5076 18.5623 21.6348 18.5096 21.7286 18.4158C21.8223 18.322 21.875 18.1949 21.875 18.0623C21.875 17.9296 21.8223 17.8025 21.7286 17.7087C21.6348 17.6149 21.5076 17.5623 21.375 17.5623ZM21.375 19.8748H9.375C9.24239 19.8748 9.11521 19.9274 9.02145 20.0212C8.92768 20.115 8.875 20.2421 8.875 20.3748C8.875 20.5074 8.92768 20.6345 9.02145 20.7283C9.11521 20.8221 9.24239 20.8748 9.375 20.8748H21.375C21.5076 20.8748 21.6348 20.8221 21.7286 20.7283C21.8223 20.6345 21.875 20.5074 21.875 20.3748C21.875 20.2421 21.8223 20.115 21.7286 20.0212C21.6348 19.9274 21.5076 19.8748 21.375 19.8748Z" fill="#949494" stroke="#949494" stroke-width="0.5"/>
</svg>
