<svg width="36" height="36" viewBox="0 0 36 36" fill="none" xmlns="http://www.w3.org/2000/svg">
<rect x="0.5" y="0.5" width="35" height="35" rx="17.5" fill="white" stroke="#D5D5D5"/>
<path d="M17.5819 11.3359H12.9987C12.0782 11.3359 11.332 12.0821 11.332 13.0026V19.6694C11.332 20.5899 12.0782 21.3361 12.9987 21.3361L19.0127 21.336L22.1654 24.6693V21.3361L22.9987 21.336C23.9192 21.336 24.6653 20.5898 24.6653 19.6694V18.0029M24.6653 13.4194C24.6653 14.57 23.7326 15.5027 22.582 15.5027C21.4315 15.5027 20.4987 14.57 20.4987 13.4194C20.4987 12.2689 21.4315 11.3361 22.582 11.3361C23.7326 11.3361 24.6653 12.2689 24.6653 13.4194Z" stroke="#949494" stroke-width="1.5" stroke-linecap="round" stroke-linejoin="round"/>
</svg>
