<svg width="24" height="24" viewBox="0 0 24 24" fill="none" xmlns="http://www.w3.org/2000/svg">
<g clip-path="url(#clip0_3345_15774)">
<path d="M12 24C18.6274 24 24 18.6274 24 12C24 5.37258 18.6274 0 12 0C5.37258 0 0 5.37258 0 12C0 18.6274 5.37258 24 12 24Z" fill="#FFE8CD"/>
<path d="M7.5 12.5V12.6C7.5 13.4401 7.5 13.8601 7.66349 14.181C7.8073 14.4632 8.03677 14.6927 8.31901 14.8365C8.63988 15 9.05992 15 9.9 15H14.1223C14.2632 15 14.3336 15 14.4026 15.0097C14.4638 15.0182 14.5242 15.0325 14.5828 15.0522C14.6488 15.0744 14.7118 15.1059 14.8378 15.1689L16.5 16V10.4C16.5 9.55992 16.5 9.13988 16.3365 8.81901C16.1927 8.53677 15.9632 8.3073 15.681 8.16349C15.3601 8 14.9401 8 14.1 8H12.5M10.0607 7.93934C10.6464 8.52513 10.6464 9.47487 10.0607 10.0607C9.47487 10.6464 8.52513 10.6464 7.93934 10.0607C7.35355 9.47487 7.35355 8.52513 7.93934 7.93934C8.52513 7.35355 9.47487 7.35355 10.0607 7.93934Z" stroke="#E67E00" stroke-linecap="round" stroke-linejoin="round"/>
</g>
<defs>
<clipPath id="clip0_3345_15774">
<rect width="24" height="24" fill="white"/>
</clipPath>
</defs>
</svg>
