<svg width="20" height="20" viewBox="0 0 20 20" fill="none" xmlns="http://www.w3.org/2000/svg">
<g id="noun-women-3219131 1">
<g id="Group">
<path id="Vector" d="M14.1069 13.7552C12.8438 13.6007 12.3835 13.019 12.2048 12.6213C13.2214 12.8001 14.2605 12.4511 14.9438 11.7009C15.0482 11.5857 15.0678 11.4201 14.9933 11.2848C14.5266 10.248 14.3031 9.12393 14.3389 7.99349C14.3389 6.35515 14.3389 2 9.98319 2C5.62711 2 5.64243 6.3554 5.64243 7.99349C5.67823 9.12384 5.45481 10.2479 4.98812 11.2848C4.91756 11.423 4.94342 11.5889 5.05271 11.7009C5.73633 12.4529 6.77772 12.8024 7.79558 12.6213C7.62821 13.0373 7.16788 13.6006 5.8935 13.7552C3.61095 14.0387 2.5 15.3052 2.5 17.6319C2.5 17.7296 2.54 17.8231 2.61145 17.8921C2.68278 17.9613 2.77946 18 2.88034 18H17.1195C17.2205 18 17.3172 17.9613 17.3885 17.8921C17.4599 17.8231 17.5 17.7296 17.5 17.6319C17.5 15.3052 16.3892 14.0497 14.1065 13.7552H14.1069ZM9.99827 17.2637H3.26866C3.36763 15.5443 4.19684 14.7087 5.98493 14.4878C8.70501 14.1528 8.64794 12.1353 8.64794 12.1169L8.64782 12.1168C8.63763 12.0042 8.57445 11.9024 8.47663 11.8406C8.37511 11.7763 8.24799 11.7626 8.13424 11.8039C8.13424 11.8039 6.77988 12.2826 5.79463 11.399V11.3989C6.2277 10.3184 6.43965 9.16688 6.41852 8.00814C6.41852 5.40894 6.84457 2.75085 10.0135 2.75085C13.1825 2.75085 13.6085 5.40897 13.6085 8.00814C13.5875 9.16685 13.7995 10.3184 14.2326 11.3989C13.2587 12.2751 11.95 11.826 11.8929 11.8038V11.8039C11.7792 11.7626 11.6521 11.7763 11.5506 11.8406C11.4485 11.9055 11.385 12.0136 11.3794 12.1316C11.3794 12.1499 11.3072 14.1674 14.0424 14.5025C15.8303 14.7234 16.6597 15.5591 16.7587 17.2783L9.99827 17.2637Z" fill="#EA4335" stroke="#EA4335" stroke-width="0.6"/>
</g>
</g>
</svg>
