<svg width="24" height="24" viewBox="0 0 24 24" fill="none" xmlns="http://www.w3.org/2000/svg">
<path d="M7.74275 9.57125C7.52491 9.70196 7.43971 9.97525 7.54468 10.2066C8.79652 12.9655 11.0331 15.2052 13.7937 16.4555C14.025 16.5602 14.2981 16.475 14.4287 16.2572L15.2499 14.8886C15.3746 14.6809 15.4543 14.5486 15.5229 14.4514C15.5879 14.3595 15.6228 14.3288 15.6441 14.3137L15.3549 13.9058L15.6441 14.3137C15.7196 14.2602 15.8084 14.2287 15.9008 14.2227C15.9268 14.221 15.9733 14.2228 16.0816 14.2533C16.1961 14.2855 16.3414 14.338 16.5691 14.4208L19.7759 15.5869C20.1943 15.739 20.2749 15.7769 20.328 15.823C20.3898 15.8767 20.4374 15.9448 20.4668 16.0212C20.492 16.0868 20.5 16.1755 20.5 16.6207V19.438C20.5 19.9673 20.4883 20.0683 20.4504 20.1468C20.4119 20.2267 20.3263 20.3187 20.2495 20.363C20.1723 20.4074 20.0885 20.4245 19.6118 20.4594C19.2448 20.4863 18.874 20.5 18.5 20.5C10.2157 20.5 3.5 13.7843 3.5 5.5C3.5 5.12598 3.51368 4.75523 3.54055 4.38824C3.57547 3.91147 3.59256 3.82772 3.63701 3.75052C3.68125 3.67368 3.77329 3.58814 3.85315 3.54963C3.93172 3.51174 4.03265 3.5 4.56201 3.5H7.37932C7.82446 3.5 7.91316 3.50802 7.9788 3.53323C8.05523 3.56257 8.12329 3.61024 8.17699 3.67205C8.22311 3.72512 8.26096 3.80574 8.41309 4.22408L9.57921 7.43092C9.66201 7.65861 9.71449 7.80388 9.74671 7.91835C9.77722 8.02675 9.77904 8.07318 9.77734 8.09923C9.77134 8.19157 9.73982 8.28043 9.68631 8.35592C9.67122 8.37722 9.64055 8.41213 9.54856 8.47708C9.45142 8.54568 9.31913 8.62543 9.11138 8.75007L7.74275 9.57125Z" fill="#795726" stroke="#795726" stroke-linecap="round" stroke-linejoin="round"/>
</svg>
