<svg width="16" height="16" viewBox="0 0 16 16" fill="none" xmlns="http://www.w3.org/2000/svg">
<g id="phone-call-alt-1">
<path id="Icon" d="M4.20565 8.35223L5.9089 6.27697C6.08271 6.05351 6.16962 5.94177 6.21516 5.81645C6.25546 5.70557 6.27214 5.58748 6.26411 5.46977C6.25505 5.33674 6.20248 5.20532 6.09733 4.94246L5.69626 3.9398C5.54066 3.5508 5.46286 3.3563 5.32864 3.22881C5.21038 3.11647 5.06218 3.0407 4.90186 3.0106C4.71993 2.97644 4.5167 3.02724 4.11024 3.12886L3 3.40645C3 9.04972 6.95018 13 12.5937 13L12.8711 11.8896C12.9728 11.4832 13.0236 11.2799 12.9894 11.098C12.9593 10.9377 12.8835 10.7895 12.7712 10.6712C12.6437 10.537 12.4492 10.4592 12.0602 10.3036L11.1654 9.94572C10.8655 9.82577 10.7156 9.76579 10.5661 9.7612C10.434 9.75714 10.3027 9.78407 10.1829 9.83985C10.0473 9.90297 9.93308 10.0172 9.70469 10.2455L7.9816 11.9692" stroke="#1A2E35" stroke-linecap="round" stroke-linejoin="round"/>
</g>
</svg>
