<svg width="36" height="36" viewBox="0 0 36 36" fill="none" xmlns="http://www.w3.org/2000/svg">
<rect width="36" height="36" rx="18" fill="#0370F2" fill-opacity="0.1"/>
<path d="M25.6136 9.28906H13.1355C12.0526 9.28906 11.1716 10.1619 11.1716 11.2311L11.0911 22.2188H8.65594C8.48336 22.2188 8.35156 22.3714 8.35156 22.544V24.0561C8.35156 25.4716 9.48438 26.6293 10.8516 26.6928V26.7109H21.3594V26.6905C21.4375 26.6938 21.4848 26.7109 21.5386 26.7109H21.5459C22.2462 26.7069 22.9162 26.4249 23.4086 25.927C23.901 25.4291 24.1756 24.756 24.1719 24.0557V14.4453H27.344C27.5166 14.4453 27.6484 14.2891 27.6484 14.1166V11.3421C27.6494 10.8005 27.4359 10.2805 27.0546 9.89575C26.6733 9.51104 26.1552 9.29292 25.6136 9.28906ZM10.9883 26.0859H10.9861C9.87461 26.0859 8.97656 25.1672 8.97656 24.0557V22.8438H18.8984V24.0505C18.8972 24.3988 18.9648 24.7439 19.0973 25.066C19.2298 25.3881 19.4246 25.6808 19.6705 25.9275C19.7234 25.9805 19.7786 26.0078 19.8351 26.0859H10.9883ZM23.5469 24.0554C23.5469 25.1673 22.6575 26.0859 21.5456 26.0859H21.5391C21.0023 26.082 20.4889 25.8657 20.1112 25.4844C19.7335 25.103 19.5222 24.5876 19.5234 24.0508V22.544C19.5239 22.4598 19.4915 22.3787 19.4332 22.318C19.3748 22.2573 19.2951 22.2217 19.2109 22.2188H11.7161L11.7966 11.2334C11.7966 10.5065 12.3972 9.91406 13.1355 9.91406H24.1382C23.7821 10.3047 23.5469 10.7989 23.5469 11.3505V24.0554ZM27.0234 11.3477V13.8203H24.1719V11.35C24.1719 10.5677 24.8226 9.91406 25.6043 9.91406H25.613C25.9896 9.91779 26.3493 10.0704 26.6136 10.3386C26.8779 10.6068 27.0252 10.9687 27.0234 11.3453V11.3477Z" fill="#0370F2" stroke="#0370F2" stroke-width="0.5"/>
<path d="M15.6899 16.981L17.301 18.0826C17.3524 18.118 17.4133 18.1369 17.4756 18.1369C17.538 18.1369 17.5989 18.118 17.6503 18.0826L19.2566 16.9812C19.8145 16.6007 20.2267 15.8047 20.2267 15.1299V12.9011C20.2283 12.8434 20.2135 12.7864 20.184 12.7367C20.1545 12.687 20.1115 12.6468 20.0601 12.6206L17.6069 11.4138C17.5645 11.3928 17.5177 11.3818 17.4704 11.3818C17.423 11.3818 17.3762 11.3928 17.3338 11.4138L14.8853 12.6172C14.8338 12.6434 14.7908 12.6837 14.7613 12.7334C14.7319 12.783 14.7172 12.8401 14.7189 12.8978V15.1299C14.7189 15.8047 15.132 16.6007 15.6899 16.981ZM15.3439 13.0927L17.4728 12.0423L19.6017 13.0957V15.1299C19.6017 15.6005 19.2931 16.1993 18.904 16.4647L17.4692 17.446L16.04 16.4648C15.6508 16.1992 15.3439 15.6005 15.3439 15.1299V13.0927Z" fill="#0370F2" stroke="#0370F2" stroke-width="0.5"/>
<path d="M16.9441 15.6014C16.9729 15.6309 17.0074 15.6543 17.0453 15.6704C17.0833 15.6865 17.1241 15.6949 17.1654 15.6952H17.1661C17.2491 15.6948 17.3286 15.6615 17.3871 15.6027L18.6302 14.359C18.6889 14.3004 18.7219 14.2209 18.7219 14.138C18.7219 14.0551 18.689 13.9755 18.6304 13.9169C18.5718 13.8582 18.4923 13.8252 18.4094 13.8252C18.3264 13.8252 18.2469 13.8581 18.1882 13.9167L17.1672 14.9377L16.759 14.5255C16.7006 14.4666 16.6212 14.4333 16.5383 14.433C16.4554 14.4326 16.3757 14.4652 16.3168 14.5236C16.2579 14.582 16.2246 14.6613 16.2243 14.7443C16.2239 14.8272 16.2565 14.9069 16.3149 14.9657L16.9441 15.6014ZM21.3594 18.9764H13.8594C13.7765 18.9764 13.697 19.0093 13.6384 19.0679C13.5798 19.1265 13.5469 19.206 13.5469 19.2889C13.5469 19.3718 13.5798 19.4513 13.6384 19.5099C13.697 19.5685 13.7765 19.6014 13.8594 19.6014H21.3594C21.4423 19.6014 21.5217 19.5685 21.5803 19.5099C21.639 19.4513 21.6719 19.3718 21.6719 19.2889C21.6719 19.206 21.639 19.1265 21.5803 19.0679C21.5217 19.0093 21.4423 18.9764 21.3594 18.9764ZM21.3594 20.4217H13.8594C13.7765 20.4217 13.697 20.4546 13.6384 20.5133C13.5798 20.5719 13.5469 20.6513 13.5469 20.7342C13.5469 20.8171 13.5798 20.8966 13.6384 20.9552C13.697 21.0138 13.7765 21.0467 13.8594 21.0467H21.3594C21.4423 21.0467 21.5217 21.0138 21.5803 20.9552C21.639 20.8966 21.6719 20.8171 21.6719 20.7342C21.6719 20.6513 21.639 20.5719 21.5803 20.5133C21.5217 20.4546 21.4423 20.4217 21.3594 20.4217Z" fill="#0370F2" stroke="#0370F2" stroke-width="0.5"/>
</svg>
