<svg width="24" height="24" viewBox="0 0 24 24" fill="none" xmlns="http://www.w3.org/2000/svg">
<g clip-path="url(#clip0_95_5190)">
<path d="M20.2405 0.808105H3.75621C2.82869 0.809113 1.93945 1.17801 1.28359 1.83387C0.627732 2.48972 0.258827 3.37896 0.257814 4.30648V7.13749C0.257486 7.31404 0.327028 7.48355 0.451256 7.60901C0.575484 7.73446 0.744304 7.80567 0.920853 7.80707L5.91979 7.84633V13.2313C6.45928 13.4622 7.02573 13.6241 7.60573 13.7133C7.63528 13.7175 7.66446 13.7241 7.69297 13.733V4.30649C7.69182 3.70842 7.55458 3.11846 7.29166 2.58129H20.2405C20.6979 2.58192 21.1363 2.76388 21.4597 3.08728C21.7831 3.41068 21.9651 3.84913 21.9657 4.30649V21.419H9.20226C8.87542 22.0823 8.43387 22.6826 7.898 23.1921H23.0715C23.4401 23.1921 23.7389 22.0209 23.7389 21.6501V4.30649C23.7379 3.37897 23.369 2.48973 22.7131 1.83387C22.0573 1.17802 21.168 0.809113 20.2405 0.808105Z" fill="#203036"/>
<path d="M8.93098 17.2016C8.94617 17.1211 8.94515 17.0384 8.92798 16.9584C8.91081 16.8783 8.87784 16.8025 8.831 16.7354C8.78416 16.6682 8.72439 16.6111 8.65519 16.5674C8.58599 16.5236 8.50876 16.4941 8.42801 16.4806C8.3428 16.467 8.26117 16.4365 8.18794 16.3908C8.11472 16.3452 8.05138 16.2853 8.00167 16.2148C7.9521 16.1437 7.91707 16.0635 7.89858 15.9788C7.88008 15.8942 7.8785 15.8067 7.8939 15.7214C7.92217 15.559 7.88515 15.392 7.7909 15.2567C7.69486 15.123 7.55054 15.032 7.38851 15.0028C6.58882 14.8854 5.81278 14.6421 5.0892 14.2819C4.93876 14.2005 4.77042 14.1579 4.59939 14.1579C4.42836 14.1579 4.26002 14.2005 4.10958 14.2819C3.38616 14.6425 2.61005 14.8858 1.81027 15.0028C1.73 15.0169 1.65328 15.0466 1.58453 15.0903C1.51577 15.1341 1.45633 15.1909 1.4096 15.2577C1.36287 15.3244 1.32978 15.3998 1.31222 15.4793C1.29466 15.5589 1.29299 15.6412 1.30729 15.7214C1.32253 15.8068 1.32064 15.8944 1.30173 15.9791C1.28281 16.0638 1.24725 16.1439 1.19711 16.2148C1.14813 16.2849 1.0856 16.3446 1.0132 16.3903C0.940804 16.4359 0.860005 16.4667 0.77556 16.4806C0.694585 16.494 0.617081 16.5233 0.547563 16.567C0.478045 16.6106 0.417905 16.6676 0.370646 16.7347C0.323387 16.8018 0.289955 16.8776 0.272297 16.9578C0.25464 17.0379 0.25311 17.1208 0.267797 17.2015L0.607892 19.065C0.823455 20.4925 1.93958 23.1918 4.60059 23.1918C7.25679 23.1918 8.37054 20.5069 8.59089 19.0769L8.93098 17.2016ZM6.75225 18.0534L4.52507 20.2806C4.39455 20.4111 4.21753 20.4844 4.03296 20.4844C3.84838 20.4844 3.67136 20.4111 3.54084 20.2806L2.44779 19.1875C2.31728 19.057 2.24395 18.88 2.24395 18.6954C2.24395 18.5108 2.31728 18.3338 2.44779 18.2033C2.57831 18.0728 2.75533 17.9995 2.93991 17.9995C3.12448 17.9995 3.3015 18.0728 3.43202 18.2033L4.03296 18.8043L5.76803 17.0692C5.83261 17.0044 5.90934 16.9529 5.99383 16.9178C6.07833 16.8826 6.16892 16.8645 6.26043 16.8644C6.35194 16.8643 6.44257 16.8822 6.52713 16.9172C6.6117 16.9522 6.68853 17.0035 6.75324 17.0682C6.81795 17.1329 6.86926 17.2097 6.90424 17.2943C6.93921 17.3789 6.95717 17.4695 6.95708 17.561C6.95699 17.6525 6.93885 17.7431 6.9037 17.8276C6.86856 17.9121 6.81709 17.9888 6.75225 18.0534ZM14.3255 4.67041H10.1543C9.94699 4.67041 9.7482 4.75275 9.60163 4.89932C9.45506 5.04589 9.37272 5.24467 9.37272 5.45195C9.37272 5.65923 9.45506 5.85802 9.60163 6.00458C9.7482 6.15115 9.94699 6.23349 10.1543 6.23349H14.3255C14.5328 6.23349 14.7316 6.15115 14.8781 6.00458C15.0247 5.85802 15.107 5.65923 15.107 5.45195C15.107 5.24467 15.0247 5.04589 14.8781 4.89932C14.7316 4.75275 14.5328 4.67041 14.3255 4.67041ZM14.6796 17.5749H19.5051C19.7124 17.5749 19.9112 17.6572 20.0578 17.8038C20.2043 17.9504 20.2867 18.1492 20.2867 18.3564C20.2867 18.5637 20.2043 18.7625 20.0578 18.9091C19.9112 19.0556 19.7124 19.138 19.5051 19.138H14.6795C14.4723 19.138 14.2735 19.0556 14.1269 18.9091C13.9804 18.7625 13.898 18.5637 13.898 18.3564C13.898 18.2538 13.9182 18.1522 13.9575 18.0574C13.9968 17.9625 14.0544 17.8764 14.1269 17.8038C14.1995 17.7312 14.2857 17.6737 14.3805 17.6344C14.4753 17.5951 14.5769 17.5749 14.6796 17.5749ZM10.1543 9.45961H11.7855C11.9926 9.45929 12.191 9.37681 12.3374 9.23027C12.4837 9.08374 12.5658 8.88514 12.5658 8.67807C12.5658 8.471 12.4837 8.27239 12.3374 8.12586C12.191 7.97933 11.9926 7.89685 11.7855 7.89653H10.1543C9.9472 7.89685 9.74872 7.97933 9.60241 8.12586C9.45611 8.27239 9.37393 8.471 9.37393 8.67807C9.37393 8.88514 9.45611 9.08374 9.60241 9.23027C9.74872 9.37681 9.9472 9.45929 10.1543 9.45961ZM19.5051 7.89654H14.9613C14.8585 7.89638 14.7568 7.91647 14.6618 7.95568C14.5669 7.99488 14.4806 8.05243 14.4079 8.12502C14.3352 8.1976 14.2775 8.28381 14.2381 8.37871C14.1988 8.47361 14.1785 8.57534 14.1785 8.67808C14.1785 8.78081 14.1988 8.88254 14.2381 8.97744C14.2775 9.07234 14.3352 9.15855 14.4079 9.23114C14.4806 9.30373 14.5669 9.36127 14.6618 9.40048C14.7568 9.43968 14.8585 9.45978 14.9613 9.45962H19.5051C19.6078 9.45978 19.7096 9.43968 19.8046 9.40048C19.8995 9.36127 19.9858 9.30373 20.0585 9.23114C20.1312 9.15855 20.1889 9.07234 20.2283 8.97744C20.2676 8.88254 20.2879 8.78081 20.2879 8.67808C20.2879 8.57534 20.2676 8.47361 20.2283 8.37871C20.1889 8.28381 20.1312 8.1976 20.0585 8.12502C19.9858 8.05243 19.8995 7.99488 19.8046 7.95568C19.7096 7.91647 19.6078 7.89638 19.5051 7.89654ZM10.1543 12.6857H14.839C15.046 12.6854 15.2445 12.6029 15.3908 12.4564C15.5371 12.3099 15.6193 12.1113 15.6193 11.9042C15.6193 11.6971 15.5371 11.4985 15.3908 11.352C15.2445 11.2055 15.046 11.123 14.839 11.1227H10.1543C9.9472 11.123 9.74872 11.2055 9.60242 11.352C9.45611 11.4985 9.37394 11.6971 9.37394 11.9042C9.37394 12.1113 9.45611 12.3099 9.60242 12.4564C9.74872 12.6029 9.9472 12.6854 10.1543 12.6857ZM19.5051 11.1227H18.0147C17.912 11.1225 17.8102 11.1426 17.7153 11.1818C17.6203 11.221 17.534 11.2786 17.4613 11.3511C17.3886 11.4237 17.3309 11.5099 17.2916 11.6048C17.2522 11.6997 17.232 11.8015 17.232 11.9042C17.232 12.0069 17.2522 12.1087 17.2916 12.2036C17.3309 12.2985 17.3886 12.3847 17.4613 12.4573C17.534 12.5298 17.6203 12.5874 17.7153 12.6266C17.8102 12.6658 17.912 12.6859 18.0147 12.6857H19.5051C19.6078 12.6859 19.7096 12.6658 19.8046 12.6266C19.8995 12.5874 19.9858 12.5298 20.0585 12.4573C20.1312 12.3847 20.1889 12.2985 20.2282 12.2036C20.2676 12.1087 20.2879 12.0069 20.2879 11.9042C20.2879 11.8015 20.2676 11.6997 20.2282 11.6048C20.1889 11.5099 20.1312 11.4237 20.0585 11.3511C19.9858 11.2786 19.8995 11.221 19.8046 11.1818C19.7096 11.1426 19.6078 11.1225 19.5051 11.1227ZM10.1543 15.9118H19.5051C19.6078 15.912 19.7096 15.8919 19.8046 15.8527C19.8995 15.8135 19.9858 15.756 20.0585 15.6834C20.1312 15.6108 20.1889 15.5246 20.2282 15.4297C20.2676 15.3348 20.2879 15.233 20.2879 15.1303C20.2879 15.0276 20.2676 14.9259 20.2282 14.831C20.1889 14.7361 20.1312 14.6498 20.0585 14.5773C19.9858 14.5047 19.8995 14.4471 19.8046 14.4079C19.7096 14.3687 19.6078 14.3486 19.5051 14.3488H10.1543C9.9472 14.3491 9.74872 14.4316 9.60242 14.5781C9.45611 14.7246 9.37394 14.9232 9.37394 15.1303C9.37394 15.3374 9.45611 15.536 9.60242 15.6825C9.74872 15.829 9.9472 15.9115 10.1543 15.9118Z" fill="#BA5D45"/>
</g>
<defs>
<clipPath id="clip0_95_5190">
<rect width="24" height="24" fill="white"/>
</clipPath>
</defs>
</svg>
