<svg width="54" height="54" viewBox="0 0 54 54" fill="none" xmlns="http://www.w3.org/2000/svg">
<g clip-path="url(#clip0_1936_2227)">
<path d="M50 0H4C1.79086 0 0 1.79086 0 4V50C0 52.2091 1.79086 54 4 54H50C52.2091 54 54 52.2091 54 50V4C54 1.79086 52.2091 0 50 0Z" fill="#051912"/>
<path d="M37.2302 49.186C37.0333 49.186 36.8522 49.1397 36.6869 49.0472C36.5234 48.9547 36.3934 48.8267 36.297 48.6633C36.2005 48.4999 36.1523 48.3158 36.1523 48.111C36.1523 47.9063 36.2005 47.7222 36.297 47.5588C36.3934 47.3954 36.5234 47.2685 36.6869 47.1779C36.8522 47.0854 37.0333 47.0391 37.2302 47.0391C37.427 47.0391 37.6072 47.0854 37.7707 47.1779C37.934 47.2685 38.063 47.3954 38.1575 47.5588C38.2539 47.7222 38.3022 47.9063 38.3022 48.111C38.3022 48.3158 38.2539 48.4999 38.1575 48.6633C38.063 48.8267 37.9331 48.9547 37.7677 49.0472C37.6042 49.1397 37.4251 49.186 37.2302 49.186ZM37.2302 48.5747C37.3602 48.5747 37.4606 48.5333 37.5315 48.4507C37.6023 48.366 37.6378 48.2528 37.6378 48.111C37.6378 47.9673 37.6023 47.8541 37.5315 47.7714C37.4606 47.6867 37.3602 47.6445 37.2302 47.6445C37.0983 47.6445 36.9969 47.6867 36.9261 47.7714C36.8552 47.8541 36.8197 47.9673 36.8197 48.111C36.8197 48.2528 36.8552 48.366 36.9261 48.4507C36.9969 48.5333 37.0983 48.5747 37.2302 48.5747Z" fill="#FFAE1F"/>
<path d="M35.2857 49.1653L34.8929 48.4152H34.89V49.1653H34.2344V47.0745H35.2089C35.3782 47.0745 35.5229 47.1049 35.643 47.166C35.7631 47.2251 35.8527 47.3068 35.9117 47.4111C35.9728 47.5135 36.0033 47.6297 36.0033 47.7596C36.0033 47.8993 35.964 48.0234 35.8852 48.1317C35.8084 48.24 35.6971 48.3177 35.5515 48.365L36.0062 49.1653H35.2857ZM34.89 47.9781H35.1498C35.2128 47.9781 35.2601 47.9643 35.2916 47.9368C35.3231 47.9072 35.3388 47.862 35.3388 47.8009C35.3388 47.7458 35.3221 47.7025 35.2886 47.671C35.2571 47.6395 35.2109 47.6237 35.1498 47.6237H34.89V47.9781Z" fill="#FFAE1F"/>
<path d="M34.0263 47.7921C34.0263 47.924 33.9958 48.044 33.9347 48.1524C33.8738 48.2587 33.7832 48.3434 33.663 48.4063C33.5449 48.4693 33.4013 48.5008 33.2319 48.5008H32.972V49.1653H32.3164V47.0745H33.2319C33.4878 47.0745 33.6837 47.1394 33.8195 47.2694C33.9574 47.3993 34.0263 47.5735 34.0263 47.7921ZM33.158 47.984C33.2939 47.984 33.3618 47.92 33.3618 47.7921C33.3618 47.6641 33.2939 47.6001 33.158 47.6001H32.972V47.984H33.158Z" fill="#FFAE1F"/>
<path d="M35.4 33.8438C35.9776 33.8438 36.4823 33.9608 36.9141 34.195C37.3512 34.4291 37.6868 34.7543 37.921 35.1705C38.1551 35.5868 38.2722 36.0603 38.2722 36.591C38.2722 37.1166 38.1551 37.59 37.921 38.0115C37.6868 38.4329 37.3512 38.7659 36.9141 39.0105C36.4823 39.2498 35.9776 39.3695 35.4 39.3695H33.0977V33.8438H35.4ZM35.2439 37.8241C35.6342 37.8241 35.9437 37.7175 36.1727 37.5041C36.4017 37.2908 36.5161 36.9864 36.5161 36.591C36.5161 36.1956 36.4017 35.8912 36.1727 35.6779C35.9437 35.4645 35.6342 35.3579 35.2439 35.3579H34.8303V37.8241H35.2439Z" fill="#FFAE1F"/>
<path d="M30.3945 38.5344H28.5526L28.2794 39.3695H26.4609L28.4824 33.8438H30.4804L32.494 39.3695H30.6677L30.3945 38.5344ZM29.973 37.231L29.4735 35.6935L28.974 37.231H29.973Z" fill="#FFAE1F"/>
<path d="M23.6026 39.424C23.0823 39.424 22.6036 39.3018 22.1666 39.0572C21.7348 38.8126 21.3914 38.4745 21.1363 38.0426C20.8814 37.6107 20.7539 37.1243 20.7539 36.5831C20.7539 36.0419 20.8814 35.5555 21.1363 35.1236C21.3914 34.6917 21.7348 34.3561 22.1666 34.1168C22.6036 33.8722 23.0823 33.75 23.6026 33.75C24.123 33.75 24.5991 33.8722 25.0309 34.1168C25.4628 34.3561 25.8035 34.6917 26.0533 35.1236C26.3083 35.5555 26.4357 36.0419 26.4357 36.5831C26.4357 37.1243 26.3083 37.6107 26.0533 38.0426C25.8035 38.4745 25.4601 38.8126 25.0231 39.0572C24.5913 39.3018 24.1177 39.424 23.6026 39.424ZM23.6026 37.8084C23.946 37.8084 24.2114 37.6992 24.3987 37.4806C24.586 37.2569 24.6797 36.9577 24.6797 36.5831C24.6797 36.2033 24.586 35.9041 24.3987 35.6856C24.2114 35.4619 23.946 35.35 23.6026 35.35C23.254 35.35 22.986 35.4619 22.7987 35.6856C22.6114 35.9041 22.5178 36.2033 22.5178 36.5831C22.5178 36.9577 22.6114 37.2569 22.7987 37.4806C22.986 37.6992 23.254 37.8084 23.6026 37.8084Z" fill="#FFAE1F"/>
<path d="M18.4621 39.3695L17.424 37.3871H17.4162V39.3695H15.6836V33.8438H18.2591C18.7066 33.8438 19.0891 33.9244 19.4064 34.0857C19.7239 34.2418 19.9606 34.4577 20.1167 34.7335C20.278 35.004 20.3586 35.311 20.3586 35.6544C20.3586 36.0239 20.2546 36.3517 20.0464 36.6378C19.8435 36.924 19.5496 37.1295 19.1645 37.2544L20.3664 39.3695H18.4621ZM17.4162 36.232H18.103C18.2696 36.232 18.3945 36.1956 18.4777 36.1227C18.561 36.0447 18.6025 35.925 18.6025 35.7637C18.6025 35.6181 18.5584 35.5035 18.4699 35.4203C18.3867 35.3371 18.2644 35.2954 18.103 35.2954H17.4162V36.232Z" fill="#FFAE1F"/>
<path d="M36.3264 41.9361V42.6151H38.0434V43.9185H36.3264V44.699H38.2776V46.0804H34.5938V40.5547H38.2776V41.9361H36.3264Z" fill="#0A7F47"/>
<path d="M31.5363 46.0804L30.4983 44.098H30.4905V46.0804H28.7578V40.5547H31.3334C31.7809 40.5547 32.1633 40.6354 32.4806 40.7966C32.7981 40.9527 33.0348 41.1686 33.1909 41.4444C33.3522 41.7149 33.4328 42.022 33.4328 42.3654C33.4328 42.7348 33.3288 43.0626 33.1206 43.3488C32.9177 43.6349 32.6238 43.8405 32.2387 43.9653L33.4406 46.0804H31.5363ZM30.4905 42.9429H31.1773C31.3438 42.9429 31.4687 42.9065 31.5519 42.8337C31.6352 42.7556 31.6768 42.6359 31.6768 42.4746C31.6768 42.329 31.6326 42.2144 31.5441 42.1312C31.4609 42.048 31.3386 42.0064 31.1773 42.0064H30.4905V42.9429Z" fill="#0A7F47"/>
<path d="M25.6601 45.2866H23.8182L23.5451 46.1217H21.7266L23.748 40.5959H25.746L27.7596 46.1217H25.9333L25.6601 45.2866ZM25.2387 43.9832L24.7392 42.4457L24.2397 43.9832H25.2387Z" fill="#0A7F47"/>
<path d="M15.7383 43.3097C15.7383 42.7634 15.8475 42.2768 16.0661 41.8502C16.2899 41.4236 16.6072 41.0932 17.0183 40.859C17.4294 40.6197 17.9133 40.5 18.4699 40.5C18.9486 40.5 19.3753 40.591 19.7499 40.7732C20.1298 40.95 20.4367 41.2024 20.6708 41.5302C20.9103 41.858 21.0689 42.2404 21.1469 42.6775H19.3206C19.2374 42.4954 19.1177 42.3549 18.9616 42.2561C18.8108 42.152 18.6365 42.1 18.4387 42.1C18.1474 42.1 17.9158 42.2092 17.7441 42.4278C17.5777 42.6463 17.4943 42.9402 17.4943 43.3097C17.4943 43.6791 17.5777 43.9731 17.7441 44.1916C17.9158 44.4102 18.1474 44.5194 18.4387 44.5194C18.6365 44.5194 18.8108 44.47 18.9616 44.3711C19.1177 44.267 19.2374 44.124 19.3206 43.9419H21.1469C21.0689 44.3789 20.9103 44.7614 20.6708 45.0892C20.4367 45.417 20.1298 45.6719 19.7499 45.854C19.3753 46.0309 18.9486 46.1194 18.4699 46.1194C17.9133 46.1194 17.4294 46.0023 17.0183 45.7682C16.6072 45.5289 16.2899 45.1958 16.0661 44.7692C15.8475 44.3425 15.7383 43.856 15.7383 43.3097Z" fill="#0A7F47"/>
<path d="M27.7216 5.69531H15.7148V11.8126C15.7148 12.6911 16.5294 13.3429 17.3864 13.1504L35.3049 9.12541C35.3809 9.10836 35.4126 9.01776 35.3627 8.95798C33.5004 6.7243 30.3984 5.69531 27.7216 5.69531Z" fill="white"/>
<path d="M31.8979 22.0523C31.8979 22.0523 37.1705 18.9549 37.0312 13.5258C36.9915 11.9774 36.5499 10.6753 35.8439 9.60491C35.8134 9.55881 35.7523 9.54488 35.7045 9.57246L17.5099 20.0606C16.3992 20.7008 15.7148 21.8853 15.7148 23.1673V32.0581C15.7148 32.0581 19.7259 32.1548 21.1962 31.449C21.74 31.1879 22.3273 30.492 22.4143 29.6218C22.4941 28.8236 22.5013 26.3156 22.5013 26.3156C22.5013 24.2275 23.8064 23.7055 24.6764 23.7055C25.982 23.7055 26.6321 25.3547 28.2437 28.0557C29.8477 30.7441 30.6387 32.0581 33.2488 32.0581H38.2324L31.8979 22.0523Z" fill="white"/>
<path d="M25.8071 14.091L30.8258 11.498C30.8857 11.467 30.9016 11.3886 30.8584 11.3367L30.5522 10.9694C30.5251 10.9368 30.4811 10.9236 30.4406 10.936L24.8992 12.6151C24.8321 12.6355 24.8031 12.7145 24.8412 12.7734L25.6703 14.0546C25.6997 14.1001 25.7589 14.1158 25.8071 14.091Z" fill="white"/>
<path d="M15.8662 18.7599L23.3535 15.1425C23.4096 15.1153 23.4302 15.0457 23.3976 14.9925L22.543 13.594C22.5183 13.5536 22.4698 13.5346 22.4243 13.5474L15.7917 15.4181C15.7463 15.431 15.7148 15.4725 15.7148 15.5197V18.665C15.7148 18.7427 15.7962 18.7938 15.8662 18.7599Z" fill="white"/>
</g>
<defs>
<clipPath id="clip0_1936_2227">
<rect width="54" height="54" fill="white"/>
</clipPath>
</defs>
</svg>
