<svg width="24" height="24" viewBox="0 0 24 24" fill="none" xmlns="http://www.w3.org/2000/svg">
<path d="M18 9.33333V17.1556C18 18.1512 18 18.649 17.8132 19.0293C17.6488 19.3638 17.3865 19.6358 17.064 19.8062C16.6973 20 16.2172 20 15.2571 20H8.74286C7.78277 20 7.30272 20 6.93602 19.8062C6.61345 19.6358 6.3512 19.3638 6.18685 19.0293C6 18.649 6 18.1512 6 17.1556V6.84444C6 5.8488 6 5.35097 6.18685 4.97068C6.3512 4.63617 6.61345 4.36421 6.93602 4.19377C7.30272 4 7.78277 4 8.74286 4H12.8571M18 9.33333L12.8571 4M18 9.33333H15.6C14.6399 9.33333 14.1599 9.33333 13.7932 9.13957C13.4706 8.96913 13.2083 8.69716 13.044 8.36265C12.8571 7.98236 12.8571 7.48454 12.8571 6.48889V4" stroke="#1A2E35" stroke-width="1.5" stroke-linecap="round" stroke-linejoin="round"/>
<path d="M8.57227 11.1113H10.2866M8.57227 17.3335L11.1437 14.6669L12.858 16.4447L15.4294 13.778" stroke="#C8553D" stroke-width="1.5" stroke-linecap="round" stroke-linejoin="round"/>
</svg>
