<svg width="24" height="24" viewBox="0 0 24 24" fill="none" xmlns="http://www.w3.org/2000/svg">
<path d="M12.6 15.3L11.3 14.2C11.2 14 11.1 14 11 14C10.9 14 10.7 14.1 10.7 14.2L8.2 17.2C8 17.3 8 17.4 8 17.5C8 17.8 8.2 18 8.5 18C8.6 18 8.8 17.9 8.9 17.8L11.1 15.2L12.4 16.4C12.5 16.5 12.6 16.5 12.8 16.5C12.9 16.5 13.1 16.4 13.1 16.3L15.9 12.8C16.1 12.6 16 12.3 15.8 12.1C15.6 11.9 15.3 12 15.1 12.2L12.6 15.3ZM20 8.3C20 8.2 19.9 8.2 19.9 8.1L13.9 2.1C13.9 2.1 13.8 2 13.7 2C13.6 2 13.6 2 13.5 2H7C5.3 2 4 3.3 4 5V19C4 20.7 5.3 22 7 22H17C18.7 22 20 20.7 20 19V8.5C20 8.4 20 8.4 20 8.3ZM14 3.7L18.3 8H15.3C14.6 8 14 7.4 14 6.7V3.7ZM19 19C19 20.1 18.1 21 17 21H7C5.9 21 5 20.1 5 19V5C5 3.9 5.9 3 7 3H13V6.7C13 8 14 9 15.3 9H19V19ZM8.5 9H10.5C10.8 9 11 8.8 11 8.5C11 8.2 10.8 8 10.5 8H8.5C8.2 8 8 8.2 8 8.5C8 8.8 8.2 9 8.5 9Z" fill="#949494" stroke="#949494" stroke-width="0.5"/>
</svg>
