<svg width="182" height="19" viewBox="0 0 182 19" fill="none" xmlns="http://www.w3.org/2000/svg">
<path d="M9.08 18L5.576 11.64H4.592V18H0.488V1.152H7.376C8.704 1.152 9.832 1.384 10.76 1.848C11.704 2.312 12.408 2.952 12.872 3.768C13.336 4.568 13.568 5.464 13.568 6.456C13.568 7.576 13.248 8.576 12.608 9.456C11.984 10.336 11.056 10.96 9.824 11.328L13.712 18H9.08ZM4.592 8.736H7.136C7.888 8.736 8.448 8.552 8.816 8.184C9.2 7.816 9.392 7.296 9.392 6.624C9.392 5.984 9.2 5.48 8.816 5.112C8.448 4.744 7.888 4.56 7.136 4.56H4.592V8.736ZM24.1123 18.168C22.5283 18.168 21.0723 17.8 19.7443 17.064C18.4323 16.328 17.3843 15.304 16.6003 13.992C15.8322 12.664 15.4482 11.176 15.4482 9.528C15.4482 7.88 15.8322 6.4 16.6003 5.088C17.3843 3.776 18.4323 2.752 19.7443 2.016C21.0723 1.28 22.5283 0.912 24.1123 0.912C25.6963 0.912 27.1443 1.28 28.4563 2.016C29.7843 2.752 30.8243 3.776 31.5763 5.088C32.3443 6.4 32.7283 7.88 32.7283 9.528C32.7283 11.176 32.3443 12.664 31.5763 13.992C30.8083 15.304 29.7683 16.328 28.4563 17.064C27.1443 17.8 25.6963 18.168 24.1123 18.168ZM24.1123 14.424C25.4563 14.424 26.5283 13.976 27.3282 13.08C28.1443 12.184 28.5523 11 28.5523 9.528C28.5523 8.04 28.1443 6.856 27.3282 5.976C26.5283 5.08 25.4563 4.632 24.1123 4.632C22.7523 4.632 21.6643 5.072 20.8483 5.952C20.0483 6.832 19.6483 8.024 19.6483 9.528C19.6483 11.016 20.0483 12.208 20.8483 13.104C21.6643 13.984 22.7523 14.424 24.1123 14.424ZM45.4994 15.024H39.2114L38.2034 18H33.9074L40.0034 1.152H44.7554L50.8514 18H46.5074L45.4994 15.024ZM44.4434 11.856L42.3554 5.688L40.2914 11.856H44.4434ZM59.0188 1.152C60.7948 1.152 62.3468 1.504 63.6748 2.208C65.0028 2.912 66.0268 3.904 66.7468 5.184C67.4828 6.448 67.8508 7.912 67.8508 9.576C67.8508 11.224 67.4828 12.688 66.7468 13.968C66.0268 15.248 64.9948 16.24 63.6508 16.944C62.3228 17.648 60.7788 18 59.0188 18H52.7068V1.152H59.0188ZM58.7548 14.448C60.3068 14.448 61.5148 14.024 62.3788 13.176C63.2428 12.328 63.6748 11.128 63.6748 9.576C63.6748 8.024 63.2428 6.816 62.3788 5.952C61.5148 5.088 60.3068 4.656 58.7548 4.656H56.8108V14.448H58.7548ZM147.601 6.576C147.601 7.552 147.377 8.448 146.929 9.264C146.481 10.064 145.793 10.712 144.865 11.208C143.937 11.704 142.785 11.952 141.409 11.952H138.865V18H134.761V1.152H141.409C142.753 1.152 143.889 1.384 144.817 1.848C145.745 2.312 146.441 2.952 146.905 3.768C147.369 4.584 147.601 5.52 147.601 6.576ZM141.097 8.688C141.881 8.688 142.465 8.504 142.849 8.136C143.233 7.768 143.425 7.248 143.425 6.576C143.425 5.904 143.233 5.384 142.849 5.016C142.465 4.648 141.881 4.464 141.097 4.464H138.865V8.688H141.097ZM158.33 18L154.826 11.64H153.842V18H149.738V1.152H156.626C157.954 1.152 159.082 1.384 160.01 1.848C160.954 2.312 161.658 2.952 162.122 3.768C162.586 4.568 162.818 5.464 162.818 6.456C162.818 7.576 162.498 8.576 161.858 9.456C161.234 10.336 160.306 10.96 159.074 11.328L162.962 18H158.33ZM153.842 8.736H156.386C157.138 8.736 157.698 8.552 158.066 8.184C158.45 7.816 158.642 7.296 158.642 6.624C158.642 5.984 158.45 5.48 158.066 5.112C157.698 4.744 157.138 4.56 156.386 4.56H153.842V8.736ZM173.362 18.168C171.778 18.168 170.322 17.8 168.994 17.064C167.682 16.328 166.634 15.304 165.85 13.992C165.082 12.664 164.698 11.176 164.698 9.528C164.698 7.88 165.082 6.4 165.85 5.088C166.634 3.776 167.682 2.752 168.994 2.016C170.322 1.28 171.778 0.912 173.362 0.912C174.946 0.912 176.394 1.28 177.706 2.016C179.034 2.752 180.074 3.776 180.826 5.088C181.594 6.4 181.978 7.88 181.978 9.528C181.978 11.176 181.594 12.664 180.826 13.992C180.058 15.304 179.018 16.328 177.706 17.064C176.394 17.8 174.946 18.168 173.362 18.168ZM173.362 14.424C174.706 14.424 175.778 13.976 176.578 13.08C177.394 12.184 177.802 11 177.802 9.528C177.802 8.04 177.394 6.856 176.578 5.976C175.778 5.08 174.706 4.632 173.362 4.632C172.002 4.632 170.914 5.072 170.098 5.952C169.298 6.832 168.898 8.024 168.898 9.528C168.898 11.016 169.298 12.208 170.098 13.104C170.914 13.984 172.002 14.424 173.362 14.424Z" fill="#FFAE1F"/>
<path d="M69.4482 9.552C69.4482 7.888 69.8083 6.408 70.5283 5.112C71.2483 3.8 72.2483 2.784 73.5283 2.064C74.8243 1.328 76.2883 0.959999 77.9203 0.959999C79.9203 0.959999 81.6323 1.488 83.0563 2.544C84.4803 3.6 85.4323 5.04 85.9123 6.864H81.4003C81.0643 6.16 80.5843 5.624 79.9603 5.256C79.3523 4.888 78.6563 4.704 77.8723 4.704C76.6083 4.704 75.5843 5.144 74.8003 6.024C74.0163 6.904 73.6243 8.08 73.6243 9.552C73.6243 11.024 74.0163 12.2 74.8003 13.08C75.5843 13.96 76.6083 14.4 77.8723 14.4C78.6563 14.4 79.3523 14.216 79.9603 13.848C80.5843 13.48 81.0643 12.944 81.4003 12.24H85.9123C85.4323 14.064 84.4803 15.504 83.0563 16.56C81.6323 17.6 79.9203 18.12 77.9203 18.12C76.2883 18.12 74.8243 17.76 73.5283 17.04C72.2483 16.304 71.2483 15.288 70.5283 13.992C69.8083 12.696 69.4482 11.216 69.4482 9.552ZM98.9135 15.024H92.6255L91.6175 18H87.3215L93.4175 1.152H98.1695L104.266 18H99.9215L98.9135 15.024ZM97.8575 11.856L95.7695 5.688L93.7055 11.856H97.8575ZM114.713 18L111.209 11.64H110.225V18H106.121V1.152H113.009C114.337 1.152 115.465 1.384 116.393 1.848C117.337 2.312 118.041 2.952 118.505 3.768C118.969 4.568 119.201 5.464 119.201 6.456C119.201 7.576 118.881 8.576 118.241 9.456C117.617 10.336 116.689 10.96 115.457 11.328L119.345 18H114.713ZM110.225 8.736H112.769C113.521 8.736 114.081 8.552 114.449 8.184C114.833 7.816 115.025 7.296 115.025 6.624C115.025 5.984 114.833 5.48 114.449 5.112C114.081 4.744 113.521 4.56 112.769 4.56H110.225V8.736ZM125.881 4.44V7.848H131.377V11.016H125.881V14.712H132.097V18H121.777V1.152H132.097V4.44H125.881Z" fill="#0A7F47"/>
</svg>
