<svg width="24" height="24" viewBox="0 0 24 24" fill="none" xmlns="http://www.w3.org/2000/svg">
<path d="M9.0625 10.9566L10.9431 12.8319L14.7477 9.02734" stroke="#1A2E35" stroke-width="1.5" stroke-linecap="round" stroke-linejoin="round"/>
<path d="M6.72528 16.834L5.17429 19.7414C5.15437 19.78 5.14568 19.8235 5.1492 19.8668C5.15272 19.9101 5.16831 19.9515 5.19419 19.9864C5.22008 20.0213 5.25523 20.0482 5.29565 20.0641C5.33608 20.0801 5.38015 20.0843 5.42288 20.0765L7.62237 19.6225C7.66914 19.6118 7.71814 19.6165 7.762 19.636C7.80586 19.6555 7.8422 19.6887 7.86556 19.7306L8.55729 20.8763C8.57824 20.9122 8.60822 20.9419 8.64425 20.9626C8.68028 20.9833 8.7211 20.9942 8.76265 20.9942C8.8042 20.9942 8.84502 20.9833 8.88105 20.9626C8.91708 20.9419 8.94706 20.9122 8.96801 20.8763L10.4433 17.9418M16.8959 16.915L18.4037 19.7468C18.4236 19.7854 18.4323 19.8289 18.4288 19.8722C18.4252 19.9155 18.4096 19.9569 18.3838 19.9918C18.3579 20.0267 18.3227 20.0536 18.2823 20.0696C18.2419 20.0855 18.1978 20.0897 18.1551 20.0819L15.9556 19.6279C15.9088 19.6172 15.8598 19.6219 15.816 19.6414C15.7721 19.6609 15.7358 19.6941 15.7124 19.736L15.0207 20.8817C14.9997 20.9176 14.9697 20.9473 14.9337 20.968C14.8977 20.9887 14.8569 20.9996 14.8153 20.9996C14.7738 20.9996 14.7329 20.9887 14.6969 20.968C14.6609 20.9473 14.6309 20.9176 14.6099 20.8817L13.2427 18.1796" stroke="#C8553D" stroke-width="1.5" stroke-miterlimit="10"/>
<path d="M19.8465 10.9292C19.8461 10.6324 19.7643 10.3414 19.6099 10.0879C19.4555 9.83445 19.2345 9.62821 18.971 9.49169C18.5528 9.27607 18.2238 8.92026 18.0415 8.48652C18.0415 8.43788 18.0037 8.38924 17.9821 8.3406C17.7995 7.8988 17.7803 7.40639 17.928 6.95174C18.0153 6.66949 18.0238 6.36876 17.9526 6.08203C17.8814 5.79531 17.7332 5.53349 17.524 5.32486C17.3148 5.11624 17.0526 4.96873 16.7657 4.89829C16.4788 4.82785 16.1781 4.83715 15.896 4.92518C15.4407 5.07068 14.9484 5.04961 14.5072 4.86573L14.3613 4.80629C13.9259 4.62864 13.5703 4.2981 13.3615 3.87677C13.2249 3.6126 13.0184 3.39107 12.7643 3.23643C12.5103 3.08179 12.2187 3 11.9213 3C11.6239 3 11.3323 3.08179 11.0782 3.23643C10.8242 3.39107 10.6176 3.6126 10.4811 3.87677C10.2722 4.2981 9.91671 4.62864 9.48131 4.80629L9.3354 4.86573C8.89414 5.04961 8.40189 5.07068 7.94653 4.92518C7.66485 4.83844 7.36484 4.83014 7.07879 4.90115C6.79273 4.97217 6.53145 5.11983 6.32304 5.32824C6.11462 5.53665 5.96697 5.79794 5.89595 6.08399C5.82493 6.37005 5.83324 6.67005 5.91997 6.95174C6.06595 7.40703 6.04487 7.89945 5.86053 8.3406L5.80108 8.48652C5.62038 8.92128 5.29089 9.27758 4.87157 9.49169C4.60877 9.62874 4.38857 9.83521 4.23491 10.0887C4.08125 10.3421 4 10.6328 4 10.9292C4 11.2256 4.08125 11.5163 4.23491 11.7697C4.38857 12.0232 4.60877 12.2297 4.87157 12.3667C5.28967 12.5782 5.61769 12.9331 5.79568 13.3665C5.79568 13.4151 5.83351 13.4691 5.85512 13.5178C6.03909 13.9571 6.06017 14.4477 5.91457 14.9013C5.82487 15.1849 5.81497 15.4879 5.88596 15.7768C5.95695 16.0658 6.10609 16.3296 6.31704 16.5394C6.52799 16.7493 6.79262 16.897 7.08194 16.9665C7.37126 17.0359 7.67412 17.0244 7.95734 16.9332C8.41206 16.786 8.9043 16.8052 9.34621 16.9873L9.49212 17.0521C9.92607 17.2293 10.2812 17.5575 10.4919 17.9762C10.6284 18.2404 10.835 18.4619 11.0891 18.6166C11.3431 18.7712 11.6347 18.853 11.9321 18.853C12.2295 18.853 12.5211 18.7712 12.7751 18.6166C13.0292 18.4619 13.2357 18.2404 13.3723 17.9762C13.583 17.5575 13.9381 17.2293 14.3721 17.0521L14.518 16.9873C14.9599 16.8052 15.4521 16.786 15.9069 16.9332C16.1894 17.0218 16.4909 17.0313 16.7785 16.9607C17.066 16.89 17.3288 16.742 17.5382 16.5326C17.7476 16.3232 17.8956 16.0604 17.9663 15.7729C18.0369 15.4853 18.0274 15.1838 17.9388 14.9013C17.7915 14.4484 17.8107 13.9578 17.9929 13.5178C17.9929 13.4691 18.0361 13.4151 18.0523 13.3665C18.2333 12.9332 18.5629 12.5787 18.9818 12.3667C19.2433 12.2287 19.4621 12.0218 19.6145 11.7685C19.7669 11.5151 19.8471 11.2249 19.8465 10.9292Z" stroke="#1A2E35" stroke-width="1.5" stroke-miterlimit="10"/>
</svg>
