<svg width="36" height="36" viewBox="0 0 36 36" fill="none" xmlns="http://www.w3.org/2000/svg">
<rect width="36" height="36" rx="18" fill="#0370F2" fill-opacity="0.24"/>
<path d="M17.4999 10H12C10.8954 10 10 10.8954 10 12V20.0002C10 21.1047 10.8954 22.0001 12 22.0001L19.2169 22.0001L23 26V22.0002L24.0001 22.0001C25.1046 22.0001 26 21.1047 26 20.0002V18.0004M26 12.5002C26 13.8809 24.8807 15.0002 23.5 15.0002C22.1193 15.0002 21 13.8809 21 12.5002C21 11.1195 22.1193 10.0003 23.5 10.0003C24.8807 10.0003 26 11.1195 26 12.5002Z" stroke="#0370F2" stroke-width="1.5" stroke-linecap="round" stroke-linejoin="round"/>
</svg>
