<svg width="24" height="24" viewBox="0 0 24 24" fill="none" xmlns="http://www.w3.org/2000/svg">
<path d="M6.52928 9.30234H6.66931M12.0004 9.30234H12.1404M17.3299 9.30234H17.4699M11.4004 14.7023H4.53372C3.35552 14.7023 2.40039 13.7472 2.40039 12.569V6.03568C2.40039 4.85747 3.35552 3.90234 4.53372 3.90234H19.4671C20.6453 3.90234 21.6004 4.85747 21.6004 6.03568V9.30234" stroke="#1A2E35" stroke-width="1.5" stroke-linecap="round" stroke-linejoin="round"/>
<path d="M20.8726 14.2038C20.8044 14.2079 20.7357 14.21 20.6667 14.21C19.6422 14.21 18.7077 13.7524 18 13C17.2923 13.7524 16.3578 14.2099 15.3333 14.2099C15.2643 14.2099 15.1956 14.2078 15.1274 14.2037C15.0442 14.5853 15 14.9855 15 15.3979C15 17.6121 16.2748 19.4725 18 20C19.7252 19.4725 21 17.6121 21 15.3979C21 14.9855 20.9558 14.5853 20.8726 14.2038Z" stroke="#C8553D" stroke-width="1.5" stroke-linecap="round" stroke-linejoin="round"/>
</svg>
