<svg width="24" height="24" viewBox="0 0 24 24" fill="none" xmlns="http://www.w3.org/2000/svg">
<rect width="24" height="24" fill="#D8D8D8"/>
<g id="Admin" clip-path="url(#clip0_643_8539)">
<rect width="1440" height="970" transform="translate(-1052 -176)" fill="#F5F7F9"/>
<path id="Rectangle 4140" d="M-768 -80C-768 -84.4183 -764.418 -88 -760 -88H356C360.418 -88 364 -84.4183 364 -80V730C364 734.418 360.418 738 356 738H-760C-764.418 738 -768 734.418 -768 730V-80Z" fill="white"/>
<rect id="Rectangle 4400" x="-10" y="-10" width="350" height="90" rx="8" fill="white"/>
<g id="receipt-alt">
<path id="Icon" d="M16 21.0006H18.5M17 21.0006H7.8C6.11984 21.0006 5.27976 21.0006 4.63803 20.6736C4.07354 20.386 3.6146 19.9271 3.32698 19.3626C3 18.7208 3 17.8807 3 16.2006V5.75768C3 4.85229 3 4.39959 3.1902 4.13707C3.35611 3.90807 3.61123 3.76002 3.89237 3.72958C4.21467 3.69469 4.60772 3.91929 5.39382 4.36849L5.70618 4.54698C5.99552 4.71232 6.14019 4.79499 6.29383 4.82736C6.42978 4.856 6.57022 4.856 6.70617 4.82736C6.85981 4.79499 7.00448 4.71232 7.29382 4.54698L9.20618 3.45421C9.49552 3.28887 9.64019 3.2062 9.79383 3.17383C9.92978 3.14518 10.0702 3.14518 10.2062 3.17383C10.3598 3.2062 10.5045 3.28887 10.7938 3.45421L12.7062 4.54698C12.9955 4.71231 13.1402 4.79499 13.2938 4.82736C13.4298 4.856 13.5702 4.856 13.7062 4.82736C13.8598 4.79499 14.0045 4.71231 14.2938 4.54698L14.6062 4.36849C15.3923 3.91929 15.7853 3.69469 16.1076 3.72958C16.3888 3.76002 16.6439 3.90807 16.8098 4.13707C17 4.39959 17 4.85229 17 5.75768V14.0006M17 13.0006H21V19.0006C21 20.1052 20.1046 21.0006 19 21.0006C17.8954 21.0006 17 20.1052 17 19.0006V13.0006Z" stroke="#1A2E35" stroke-width="1.5" stroke-linecap="round" stroke-linejoin="round"/>
<path id="Icon_2" d="M7 13H9M7 9H13M7 17H9M13 17H13.01M13 13H13.01" stroke="#C8553D" stroke-width="1.5" stroke-linecap="round" stroke-linejoin="round"/>
</g>
</g>
<defs>
<clipPath id="clip0_643_8539">
<rect width="1440" height="970" fill="white" transform="translate(-1052 -176)"/>
</clipPath>
</defs>
</svg>
