<svg width="24" height="24" viewBox="0 0 24 24" fill="none" xmlns="http://www.w3.org/2000/svg">
<g id="building-flag">
<path id="Icon" d="M13.5 21V18C13.5 16.8954 12.6046 16 11.5 16C10.3954 16 9.5 16.8954 9.5 18V21M17 21V4.6C17 4.03995 17 3.75992 16.891 3.54601C16.7951 3.35785 16.6422 3.20487 16.454 3.10899C16.2401 3 15.9601 3 15.4 3H7.6C7.03995 3 6.75992 3 6.54601 3.10899C6.35785 3.20487 6.20487 3.35785 6.10899 3.54601C6 3.75992 6 4.03995 6 4.6V21H17Z" stroke="#1A2E35" stroke-width="1.5" stroke-linejoin="round"/>
<path id="Icon_2" d="M9 7H10M9 10H10M13 10H14M13 13H14M9 13H10M13 7H14" stroke="#C8553D" stroke-width="1.5" stroke-linecap="round" stroke-linejoin="round"/>
</g>
</svg>
