<svg width="24" height="24" viewBox="0 0 24 24" fill="none" xmlns="http://www.w3.org/2000/svg">
<g id="Basic / Settings_6">
<g id="Group 2609100">
<circle id="Vector" cx="12" cy="12" r="2.5" stroke="#C8553D" stroke-width="1.5"/>
<path id="Vector_2" d="M5.85991 6.5602C4.99515 7.4508 4.36722 8.50771 4.00159 9.64003L5.62596 10.5362C6.8053 11.1868 6.8053 12.8133 5.62597 13.4639L4 14.3609C4.18157 14.9208 4.4308 15.4703 4.75048 15.9993C5.07015 16.5284 5.44353 17.0093 5.86022 17.4396L7.48622 16.5425C8.66556 15.8919 10.1397 16.7052 10.1397 18.0064V19.7987C11.3488 20.0623 12.6207 20.0711 13.8603 19.8008L13.8603 18.0065C13.8603 16.7053 15.3344 15.892 16.5138 16.5426L18.1401 17.4398C19.0049 16.5492 19.6328 15.4923 19.9984 14.36L18.374 13.4638C17.1947 12.8132 17.1947 11.1867 18.374 10.5361L20 9.63909C19.8184 9.07917 19.5692 8.52972 19.2495 8.00067C18.9299 7.47159 18.5565 6.99062 18.1398 6.5604L16.5138 7.4574C15.3344 8.10801 13.8603 7.29475 13.8603 5.99355V4.2013C12.6512 3.9377 11.3793 3.92887 10.1397 4.19916L10.1397 5.99353C10.1397 7.29473 8.66556 8.10799 7.48622 7.45738L5.85991 6.5602Z" stroke="#1A2E35" stroke-width="1.5" stroke-linejoin="round"/>
</g>
</g>
</svg>
