<svg width="24" height="24" viewBox="0 0 24 24" fill="none" xmlns="http://www.w3.org/2000/svg">
<g id="spanner 1" clip-path="url(#clip0_643_15733)">
<g id="Clip path group">
<mask id="mask0_643_15733" style="mask-type:luminance" maskUnits="userSpaceOnUse" x="0" y="0" width="24" height="24">
<g id="a">
<path id="Vector" d="M0 9.53674e-07H24V24H0V9.53674e-07Z" fill="white"/>
</g>
</mask>
<g mask="url(#mask0_643_15733)">
<g id="Group">
<path id="Vector_2" d="M16.4393 12.8785C16.1688 12.8793 15.8994 12.9111 15.6362 12.9731L11.0269 8.3638C11.0864 8.10543 11.1215 7.8373 11.1215 7.56073C11.1215 6.61637 10.7463 5.71068 10.0786 5.04291C9.41079 4.37515 8.5051 4 7.56073 4C7.15987 4 6.62671 4.40708 7.07064 4.85101L8.40242 6.18279C8.40242 6.18279 8.84635 7.07064 7.95849 7.95849C7.07064 8.84635 6.18279 8.40242 6.18279 8.40242L4.85101 7.07064C4.40708 6.62671 4 7.15765 4 7.56073C3.99994 8.02835 4.092 8.4914 4.27093 8.92344C4.44985 9.35547 4.71213 9.74803 5.04279 10.0787C5.37344 10.4093 5.766 10.6716 6.19803 10.8505C6.63007 11.0295 7.09312 11.1215 7.56073 11.1215C7.8373 11.1215 8.10499 11.0868 8.36335 11.0274L12.9726 15.6366C12.911 15.8998 12.8794 16.169 12.8785 16.4393C12.8785 16.9069 12.9705 17.3699 13.1495 17.802C13.3284 18.234 13.5907 18.6266 13.9213 18.9572C14.252 19.2879 14.6445 19.5502 15.0766 19.7291C15.5086 19.908 15.9716 20.0001 16.4393 20C16.8397 20 17.3733 19.5929 16.9294 19.149L15.5976 17.8172C15.5976 17.8172 15.1537 16.9294 16.0415 16.0415C16.9294 15.1537 17.8172 15.5976 17.8172 15.5976L19.149 16.9294C19.5929 17.3733 20 16.8424 20 16.4393C20 15.9717 19.9079 15.5086 19.729 15.0766C19.55 14.6446 19.2877 14.2521 18.9571 13.9214C18.6264 13.5908 18.2339 13.3285 17.8019 13.1496C17.3699 12.9706 16.9069 12.8785 16.4393 12.8785Z" fill="#9CA3AE"/>
</g>
</g>
</g>
</g>
<defs>
<clipPath id="clip0_643_15733">
<rect width="24" height="24" fill="white"/>
</clipPath>
</defs>
</svg>
