<svg width="24" height="24" viewBox="0 0 24 24" fill="none" xmlns="http://www.w3.org/2000/svg">
<path d="M11.4956 2.71235C11.7021 2.2938 12.299 2.2938 12.5055 2.71235L15.1795 8.13047C15.2616 8.29668 15.4201 8.41188 15.6036 8.43853L21.5828 9.30736C22.0447 9.37448 22.2291 9.9421 21.8949 10.2679L17.5683 14.4853C17.4355 14.6147 17.375 14.8011 17.4063 14.9838L18.4277 20.9389C18.5066 21.3989 18.0237 21.7497 17.6106 21.5325L12.2626 18.7209C12.0986 18.6346 11.9026 18.6346 11.7385 18.7209L6.3905 21.5325C5.97738 21.7497 5.49453 21.3989 5.57343 20.9389L6.59481 14.9838C6.62614 14.8011 6.56557 14.6147 6.43285 14.4853L2.10622 10.2679C1.77199 9.9421 1.95642 9.37448 2.41832 9.30736L8.39757 8.43853C8.58099 8.41188 8.73955 8.29668 8.82158 8.13047L11.4956 2.71235Z" fill="#FECC3F"/>
</svg>
