<svg width="32" height="32" viewBox="0 0 32 32" fill="none" xmlns="http://www.w3.org/2000/svg">
<path d="M16 0.195926C19.1258 0.195926 22.1813 1.12282 24.7803 2.85939C27.3792 4.59597 29.4049 7.06423 30.6011 9.95205C31.7972 12.8399 32.1102 16.0175 31.5004 19.0832C30.8906 22.1489 29.3854 24.9649 27.1752 27.1752C24.9649 29.3854 22.1489 30.8906 19.0832 31.5004C16.0175 32.1102 12.8399 31.7972 9.95205 30.6011C7.06423 29.4049 4.59597 27.3792 2.85939 24.7803C1.12282 22.1813 0.195926 19.1258 0.195926 16C0.19 13.9229 0.594739 11.8652 1.38687 9.94504C2.179 8.02493 3.34289 6.28035 4.81162 4.81162C6.28035 3.34289 8.02493 2.179 9.94504 1.38687C11.8652 0.594739 13.9229 0.19 16 0.195926Z" fill="#4DB86B"/>
<path d="M11 17.0104L13.6459 19.6563C13.8414 19.8518 14.1584 19.8516 14.3536 19.6558L21 12.9896" stroke="white" stroke-width="2" stroke-linecap="round"/>
</svg>
