<svg width="24" height="24" viewBox="0 0 24 24" fill="none" xmlns="http://www.w3.org/2000/svg">
<g clip-path="url(#clip0_42_3681)">
<path d="M11.5412 10.3953L11.6645 10.4217C11.7065 10.5447 11.7564 10.6648 11.8138 10.7814L11.745 10.8876C11.6605 11.019 11.6233 11.1752 11.6395 11.3305C11.6558 11.4859 11.7244 11.631 11.8342 11.7421L12.2578 12.1657C12.3692 12.275 12.5143 12.3433 12.6695 12.3595C12.8247 12.3757 12.9808 12.3388 13.1123 12.2548L13.2185 12.1861C13.3351 12.2435 13.4552 12.2934 13.5782 12.3354L13.6046 12.4588C13.6378 12.6114 13.7219 12.7482 13.8432 12.8466C13.9645 12.9449 14.1157 12.999 14.2719 12.9999H14.8709C15.0271 12.999 15.1783 12.9449 15.2996 12.8466C15.4209 12.7482 15.5051 12.6114 15.5382 12.4588L15.5647 12.3354C15.6876 12.2934 15.8077 12.2435 15.9243 12.1861L16.0305 12.2549C16.162 12.3389 16.3182 12.3759 16.4734 12.3597C16.6286 12.3435 16.7738 12.2751 16.885 12.1656L17.3086 11.7421C17.4184 11.631 17.4871 11.4858 17.5033 11.3305C17.5195 11.1752 17.4823 11.0189 17.3978 10.8876L17.329 10.7814C17.3864 10.6648 17.4363 10.5447 17.4784 10.4217L17.6017 10.3953C17.7544 10.3622 17.8911 10.278 17.9895 10.1567C18.0879 10.0354 18.142 9.88418 18.1428 9.72801V9.12896C18.142 8.97278 18.0879 8.82157 17.9895 8.70027C17.8911 8.57896 17.7544 8.49481 17.6017 8.46169L17.4784 8.43525C17.4363 8.31231 17.3864 8.19219 17.329 8.07561L17.3978 7.96935C17.4823 7.838 17.5195 7.68178 17.5033 7.52644C17.4871 7.37111 17.4184 7.22594 17.3086 7.11488L16.885 6.6913C16.7737 6.58195 16.6286 6.51358 16.4734 6.49738C16.3182 6.48118 16.162 6.5181 16.0305 6.60211L15.9243 6.67086C15.8077 6.61346 15.6876 6.56359 15.5647 6.52153L15.5382 6.39817C15.5051 6.24554 15.4209 6.10877 15.2996 6.0104C15.1783 5.91203 15.0271 5.85794 14.871 5.85706H14.2719C14.1157 5.85794 13.9645 5.91203 13.8432 6.01039C13.7219 6.10876 13.6378 6.24553 13.6046 6.39815L13.5782 6.52153C13.4553 6.56358 13.3351 6.61346 13.2186 6.67086L13.1123 6.6021C12.9808 6.51812 12.8247 6.48122 12.6695 6.49743C12.5143 6.51363 12.3692 6.58199 12.2578 6.69133L11.8343 7.1149C11.7244 7.22596 11.6558 7.37113 11.6396 7.52646C11.6233 7.6818 11.6606 7.83802 11.7451 7.96937L11.8138 8.07562C11.7564 8.19219 11.7065 8.31232 11.6645 8.43526L11.5411 8.46169C11.3885 8.49482 11.2517 8.57897 11.1533 8.70028C11.055 8.82158 11.0009 8.97279 11 9.12896V9.72801C11.0009 9.88419 11.055 10.0354 11.1534 10.1567C11.2517 10.278 11.3885 10.3622 11.5412 10.3953ZM11.5714 9.12896C11.5716 9.10336 11.5806 9.07862 11.5969 9.05887C11.6132 9.03912 11.6358 9.02555 11.6608 9.02043L12.0542 8.93614C12.0747 8.93163 12.0934 8.92137 12.1083 8.90657C12.1232 8.89177 12.1335 8.87304 12.1382 8.85257C12.1998 8.59207 12.3031 8.34323 12.4441 8.11568C12.4553 8.09794 12.4612 8.07737 12.4611 8.05638C12.4611 8.0354 12.455 8.01487 12.4437 7.9972L12.2248 7.65891C12.2107 7.63756 12.2043 7.61201 12.2068 7.58654C12.2092 7.56106 12.2204 7.5372 12.2383 7.51894L12.6619 7.09535C12.6803 7.07772 12.7042 7.0668 12.7295 7.06435C12.7549 7.0619 12.7804 7.06806 12.8019 7.08184L13.1402 7.30073C13.1579 7.3117 13.1784 7.31754 13.1993 7.31761C13.2202 7.31768 13.2408 7.31198 13.2586 7.30112C13.4862 7.16012 13.735 7.05681 13.9955 6.99522C14.016 6.99059 14.0347 6.98024 14.0495 6.96536C14.0643 6.95049 14.0746 6.93171 14.0791 6.91122L14.1634 6.51788C14.1685 6.4928 14.1821 6.47023 14.2018 6.45396C14.2216 6.43768 14.2463 6.42868 14.2719 6.42846H14.8709C14.8965 6.42868 14.9213 6.43768 14.941 6.45396C14.9608 6.47024 14.9744 6.4928 14.9795 6.51788L15.0638 6.91122C15.0683 6.93171 15.0785 6.95049 15.0933 6.96536C15.1081 6.98024 15.1269 6.99059 15.1473 6.99522C15.4078 7.05681 15.6567 7.16011 15.8842 7.30112C15.9021 7.31202 15.9226 7.31775 15.9435 7.31769C15.9644 7.31762 15.9849 7.31175 16.0027 7.30073L16.341 7.08184C16.3625 7.06815 16.3879 7.06205 16.4133 7.0645C16.4387 7.06694 16.4625 7.0778 16.481 7.09535L16.9046 7.51894C16.9225 7.5372 16.9336 7.56106 16.9361 7.58653C16.9385 7.61201 16.9322 7.63756 16.9181 7.65891L16.6992 7.9972C16.6878 8.01487 16.6818 8.0354 16.6817 8.05638C16.6817 8.07736 16.6876 8.09793 16.6988 8.11568C16.8398 8.34322 16.9431 8.59206 17.0047 8.85257C17.0093 8.87304 17.0197 8.89176 17.0345 8.90656C17.0494 8.92136 17.0682 8.93162 17.0887 8.93614L17.482 9.02043C17.5071 9.02554 17.5297 9.03911 17.5459 9.05886C17.5622 9.07862 17.5712 9.10336 17.5714 9.12896V9.72801C17.5712 9.7536 17.5622 9.77835 17.5459 9.7981C17.5297 9.81785 17.5071 9.83142 17.482 9.83653L17.0887 9.92082C17.0682 9.92533 17.0494 9.93559 17.0345 9.95039C17.0197 9.96519 17.0093 9.98392 17.0047 10.0044C16.9431 10.2649 16.8398 10.5137 16.6988 10.7413C16.6876 10.759 16.6817 10.7796 16.6817 10.8006C16.6818 10.8216 16.6878 10.8421 16.6992 10.8598L16.9181 11.198C16.9322 11.2194 16.9385 11.2449 16.9361 11.2704C16.9336 11.2959 16.9225 11.3198 16.9045 11.338L16.4809 11.7616C16.4626 11.7794 16.4388 11.7904 16.4133 11.7929C16.3879 11.7953 16.3624 11.7891 16.341 11.7751L16.0027 11.5562C15.985 11.545 15.9645 11.539 15.9435 11.5389C15.9226 11.5389 15.902 11.5447 15.8842 11.5558C15.6567 11.6968 15.4078 11.8001 15.1473 11.8617C15.1269 11.8664 15.1081 11.8767 15.0933 11.8916C15.0785 11.9065 15.0683 11.9252 15.0638 11.9457L14.9795 12.3391C14.9743 12.3642 14.9608 12.3867 14.941 12.403C14.9213 12.4193 14.8965 12.4283 14.8709 12.4285H14.2719C14.2463 12.4283 14.2216 12.4193 14.2018 12.403C14.182 12.3867 14.1685 12.3642 14.1634 12.3391L14.0791 11.9457C14.0746 11.9252 14.0643 11.9065 14.0495 11.8916C14.0347 11.8767 14.016 11.8664 13.9955 11.8617C13.735 11.8001 13.4862 11.6968 13.2586 11.5558C13.2408 11.5447 13.2203 11.5389 13.1993 11.539C13.1784 11.539 13.1578 11.545 13.1401 11.5562L12.8019 11.7751C12.7803 11.7887 12.7549 11.7947 12.7296 11.7923C12.7042 11.7898 12.6804 11.779 12.6619 11.7616L12.2383 11.338C12.2204 11.3198 12.2092 11.2959 12.2068 11.2704C12.2043 11.2449 12.2107 11.2194 12.2248 11.198L12.4437 10.8598C12.455 10.8421 12.4611 10.8216 12.4611 10.8006C12.4612 10.7796 12.4553 10.759 12.4441 10.7413C12.3031 10.5137 12.1998 10.2649 12.1382 10.0044C12.1335 9.98393 12.1232 9.9652 12.1083 9.9504C12.0935 9.9356 12.0747 9.92534 12.0542 9.92082L11.6608 9.83654C11.6358 9.83142 11.6132 9.81786 11.5969 9.7981C11.5806 9.77835 11.5716 9.75361 11.5714 9.72802L11.5714 9.12896Z" fill="#28363C"/>
<path d="M14.5714 10.9999C14.8822 10.9999 15.186 10.9078 15.4445 10.7351C15.7029 10.5624 15.9043 10.317 16.0232 10.0298C16.1422 9.7427 16.1733 9.42674 16.1127 9.12191C16.052 8.81709 15.9024 8.53709 15.6826 8.31732C15.4628 8.09755 15.1828 7.94788 14.878 7.88725C14.5732 7.82662 14.2572 7.85774 13.9701 7.97667C13.6829 8.09561 13.4375 8.29703 13.2648 8.55545C13.0922 8.81387 13 9.11769 13 9.42849C13 9.84525 13.1656 10.245 13.4603 10.5397C13.755 10.8344 14.1547 10.9999 14.5714 10.9999ZM14.5714 8.42849C14.7692 8.42849 14.9625 8.48713 15.127 8.59702C15.2914 8.7069 15.4196 8.86308 15.4953 9.0458C15.571 9.22853 15.5908 9.42959 15.5522 9.62358C15.5136 9.81756 15.4184 9.99574 15.2785 10.1356C15.1387 10.2754 14.9605 10.3707 14.7665 10.4093C14.5725 10.4479 14.3715 10.4281 14.1887 10.3524C14.006 10.2767 13.8498 10.1485 13.74 9.98406C13.6301 9.81961 13.5714 9.62627 13.5714 9.42849C13.5717 9.16336 13.6772 8.90918 13.8647 8.72171C14.0521 8.53424 14.3063 8.42879 14.5714 8.42849Z" fill="#BA5D45"/>
<path d="M9.94277 11.9999H9.48636C9.33628 12.0007 9.19096 12.0526 9.07435 12.1471C8.95775 12.2416 8.87683 12.373 8.84493 12.5196L8.84062 12.5398C8.79119 12.5585 8.74236 12.5787 8.69414 12.6006L8.67676 12.5894C8.55071 12.5076 8.40043 12.4715 8.25101 12.4872C8.10158 12.5028 7.96203 12.5692 7.85565 12.6753L7.53289 12.9981C7.42734 13.1048 7.3613 13.2443 7.34567 13.3935C7.33004 13.5428 7.36574 13.693 7.4469 13.8192L7.45815 13.8366C7.4363 13.8848 7.41602 13.9336 7.39734 13.9831L7.37725 13.9874C7.23058 14.0193 7.09916 14.1002 7.00466 14.2168C6.91016 14.3334 6.85823 14.4787 6.85742 14.6288V15.0852C6.85823 15.2353 6.91016 15.3807 7.00467 15.4973C7.09917 15.6139 7.2306 15.6948 7.37727 15.7267L7.39734 15.731C7.41602 15.7804 7.43629 15.8292 7.45816 15.8774L7.44691 15.8948C7.36575 16.0211 7.33004 16.1712 7.34566 16.3205C7.36128 16.4697 7.4273 16.6092 7.53283 16.7159L7.85563 17.0387C7.96269 17.1436 8.10212 17.2093 8.25121 17.2249C8.40031 17.2405 8.5503 17.2052 8.67678 17.1247L8.69414 17.1134C8.74233 17.1353 8.79115 17.1556 8.84062 17.1743L8.84493 17.1943C8.87681 17.341 8.95773 17.4724 9.07434 17.5669C9.19094 17.6614 9.33628 17.7134 9.48636 17.7142H9.94278C10.0929 17.7134 10.2382 17.6614 10.3548 17.5669C10.4714 17.4725 10.5523 17.3411 10.5842 17.1944L10.5885 17.1743C10.6379 17.1556 10.6868 17.1353 10.735 17.1134L10.7524 17.1247C10.8788 17.2054 11.0288 17.2408 11.178 17.2252C11.3271 17.2096 11.4666 17.1438 11.5735 17.0387L11.8962 16.716C12.0018 16.6093 12.0678 16.4698 12.0835 16.3205C12.0991 16.1712 12.0634 16.0211 11.9822 15.8948L11.971 15.8774C11.9928 15.8292 12.0131 15.7804 12.0318 15.731L12.0519 15.7267C12.1986 15.6948 12.33 15.6139 12.4245 15.4973C12.519 15.3807 12.5709 15.2353 12.5717 15.0852V14.6288C12.5709 14.4787 12.519 14.3334 12.4245 14.2168C12.33 14.1002 12.1986 14.0193 12.0519 13.9874L12.0318 13.9831C12.0131 13.9336 11.9929 13.8848 11.971 13.8366L11.9822 13.8192C12.0634 13.693 12.0991 13.5428 12.0835 13.3936C12.0679 13.2443 12.0018 13.1048 11.8963 12.9981L11.5735 12.6753C11.4665 12.5704 11.327 12.5048 11.178 12.4891C11.0289 12.4735 10.8789 12.5088 10.7524 12.5893L10.735 12.6006C10.6868 12.5788 10.638 12.5585 10.5885 12.5398L10.5842 12.5197C10.5523 12.373 10.4714 12.2416 10.3548 12.1471C10.2382 12.0526 10.0929 12.0007 9.94277 11.9999ZM10.7148 13.2362C10.7284 13.2446 10.744 13.249 10.76 13.2489C10.7759 13.2489 10.7915 13.2444 10.8051 13.2359L11.0628 13.0691C11.0792 13.0587 11.0986 13.054 11.1179 13.0559C11.1372 13.0577 11.1554 13.066 11.1694 13.0794L11.4922 13.4021C11.5058 13.4161 11.5143 13.4342 11.5162 13.4536C11.5181 13.4731 11.5132 13.4925 11.5025 13.5088L11.3357 13.7665C11.3271 13.78 11.3225 13.7956 11.3224 13.8116C11.3224 13.8276 11.3269 13.8433 11.3354 13.8568C11.4428 14.0302 11.5215 14.2198 11.5685 14.4182C11.572 14.4338 11.5799 14.4481 11.5912 14.4594C11.6026 14.4706 11.6169 14.4785 11.6325 14.4819L11.9322 14.5461C11.9513 14.55 11.9685 14.5604 11.9809 14.5754C11.9933 14.5905 12.0001 14.6093 12.0003 14.6288V15.0852C12.0001 15.1047 11.9933 15.1236 11.9809 15.1386C11.9685 15.1537 11.9513 15.164 11.9322 15.1679L11.6325 15.2321C11.6169 15.2356 11.6025 15.2434 11.5912 15.2547C11.5799 15.2659 11.572 15.2802 11.5685 15.2958C11.5215 15.4943 11.4428 15.6839 11.3354 15.8572C11.3269 15.8708 11.3224 15.8864 11.3224 15.9024C11.3225 15.9184 11.3271 15.934 11.3357 15.9475L11.5025 16.2053C11.5132 16.2215 11.5181 16.241 11.5162 16.2604C11.5143 16.2798 11.5058 16.298 11.4922 16.3119L11.1694 16.6346C11.1554 16.6481 11.1373 16.6565 11.1179 16.6584C11.0986 16.6602 11.0791 16.6555 11.0628 16.6449L10.8051 16.4782C10.7915 16.4699 10.7759 16.4655 10.76 16.4654C10.7441 16.4654 10.7284 16.4697 10.7148 16.4779C10.5414 16.5853 10.3518 16.664 10.1533 16.7109C10.1377 16.7145 10.1235 16.7223 10.1122 16.7337C10.1009 16.745 10.0931 16.7593 10.0897 16.7749L10.0255 17.0746C10.0216 17.0937 10.0112 17.1109 9.99617 17.1233C9.98112 17.1357 9.96227 17.1426 9.94277 17.1427H9.48636C9.46686 17.1426 9.44801 17.1357 9.43296 17.1233C9.41791 17.1109 9.40757 17.0937 9.40367 17.0746L9.33945 16.7749C9.33601 16.7593 9.32819 16.745 9.31692 16.7337C9.30564 16.7223 9.29138 16.7144 9.27578 16.7109C9.0773 16.664 8.88771 16.5853 8.71434 16.4778C8.70079 16.4694 8.68513 16.4649 8.66916 16.465C8.65319 16.465 8.63756 16.4696 8.62408 16.4781L8.36633 16.6449C8.35003 16.6556 8.33058 16.6603 8.3112 16.6585C8.29182 16.6566 8.27366 16.6482 8.25969 16.6346L7.93695 16.3119C7.92328 16.298 7.91481 16.2798 7.91293 16.2604C7.91106 16.241 7.91591 16.2215 7.92666 16.2052L8.09344 15.9475C8.10206 15.934 8.10667 15.9184 8.10673 15.9024C8.10678 15.8864 8.10227 15.8708 8.09374 15.8572C7.98631 15.6839 7.9076 15.4943 7.86066 15.2958C7.85714 15.2802 7.84925 15.2659 7.83792 15.2547C7.82659 15.2434 7.81228 15.2356 7.79667 15.2321L7.49699 15.1679C7.47788 15.164 7.46069 15.1537 7.44828 15.1386C7.43588 15.1236 7.42902 15.1047 7.42885 15.0852V14.6288C7.42902 14.6093 7.43588 14.5905 7.44828 14.5754C7.46069 14.5604 7.47788 14.55 7.49699 14.5461L7.79667 14.4819C7.81228 14.4785 7.82659 14.4706 7.83792 14.4594C7.84925 14.4481 7.85714 14.4338 7.86066 14.4182C7.90759 14.2197 7.9863 14.0302 8.09374 13.8568C8.10227 13.8433 8.10678 13.8276 8.10673 13.8116C8.10667 13.7956 8.10206 13.78 8.09344 13.7665L7.92666 13.5088C7.91591 13.4925 7.91106 13.4731 7.91293 13.4536C7.9148 13.4342 7.92328 13.416 7.93695 13.4021L8.25969 13.0794C8.27377 13.066 8.29191 13.0578 8.31124 13.0559C8.33056 13.054 8.34995 13.0587 8.36633 13.0691L8.62407 13.2359C8.63763 13.2443 8.65323 13.2487 8.66916 13.2488C8.6851 13.2488 8.70073 13.2445 8.71434 13.2362C8.88771 13.1287 9.0773 13.05 9.27578 13.0031C9.29138 12.9996 9.30564 12.9917 9.31692 12.9804C9.32819 12.969 9.33601 12.9547 9.33945 12.9391L9.40367 12.6394C9.40757 12.6203 9.41791 12.6031 9.43296 12.5907C9.44801 12.5783 9.46686 12.5715 9.48636 12.5713H9.94277C9.96227 12.5715 9.98112 12.5783 9.99617 12.5907C10.0112 12.6031 10.0216 12.6203 10.0255 12.6394L10.0897 12.9391C10.0931 12.9547 10.1009 12.969 10.1122 12.9804C10.1235 12.9917 10.1378 12.9996 10.1533 13.0031C10.3518 13.05 10.5414 13.1287 10.7148 13.2362Z" fill="#28363C"/>
<path d="M8.57143 14.857C8.57143 15.0831 8.63846 15.304 8.76404 15.492C8.88961 15.6799 9.0681 15.8264 9.27693 15.9129C9.48576 15.9994 9.71555 16.022 9.93725 15.9779C10.1589 15.9338 10.3626 15.825 10.5224 15.6651C10.6822 15.5053 10.7911 15.3017 10.8352 15.08C10.8793 14.8583 10.8566 14.6285 10.7701 14.4197C10.6836 14.2108 10.5372 14.0323 10.3492 13.9068C10.1613 13.7812 9.94032 13.7142 9.71429 13.7142C9.41118 13.7142 9.12049 13.8346 8.90616 14.0489C8.69184 14.2632 8.57143 14.5539 8.57143 14.857ZM10.2857 14.857C10.2857 14.97 10.2522 15.0805 10.1894 15.1745C10.1266 15.2685 10.0374 15.3417 9.93296 15.385C9.82855 15.4282 9.71365 15.4395 9.60281 15.4175C9.49196 15.3954 9.39014 15.341 9.31023 15.2611C9.23031 15.1812 9.17589 15.0793 9.15384 14.9685C9.13179 14.8577 9.14311 14.7428 9.18636 14.6383C9.22961 14.5339 9.30285 14.4447 9.39682 14.3819C9.49079 14.3191 9.60127 14.2856 9.71429 14.2856C9.86579 14.2858 10.011 14.346 10.1182 14.4531C10.2253 14.5603 10.2855 14.7055 10.2857 14.857ZM14.7143 14.2856C14.5165 14.2856 14.3232 14.3442 14.1587 14.4541C13.9943 14.564 13.8661 14.7202 13.7904 14.9029C13.7147 15.0856 13.6949 15.2867 13.7335 15.4807C13.7721 15.6747 13.8673 15.8528 14.0072 15.9927C14.147 16.1326 14.3252 16.2278 14.5192 16.2664C14.7132 16.305 14.9142 16.2852 15.097 16.2095C15.2797 16.1338 15.4359 16.0056 15.5458 15.8412C15.6556 15.6767 15.7143 15.4834 15.7143 15.2856C15.714 15.0205 15.6085 14.7663 15.4211 14.5788C15.2336 14.3913 14.9794 14.2859 14.7143 14.2856ZM14.7143 15.7142C14.6295 15.7142 14.5467 15.689 14.4762 15.6419C14.4057 15.5948 14.3508 15.5279 14.3183 15.4496C14.2859 15.3713 14.2774 15.2851 14.294 15.202C14.3105 15.1188 14.3513 15.0425 14.4112 14.9825C14.4712 14.9226 14.5475 14.8818 14.6307 14.8653C14.7138 14.8487 14.8 14.8572 14.8783 14.8896C14.9566 14.9221 15.0235 14.977 15.0706 15.0475C15.1177 15.118 15.1429 15.2008 15.1429 15.2856C15.1427 15.3992 15.0975 15.5082 15.0172 15.5885C14.9369 15.6688 14.8279 15.714 14.7143 15.7142ZM8 10.9999C8 10.8021 7.94135 10.6088 7.83147 10.4443C7.72159 10.2799 7.56541 10.1517 7.38268 10.076C7.19996 10.0003 6.99889 9.98051 6.80491 10.0191C6.61093 10.0577 6.43275 10.1529 6.29289 10.2928C6.15304 10.4326 6.0578 10.6108 6.01922 10.8048C5.98063 10.9988 6.00043 11.1998 6.07612 11.3826C6.15181 11.5653 6.27998 11.7215 6.44443 11.8313C6.60888 11.9412 6.80222 11.9999 7 11.9999C7.26513 11.9996 7.51931 11.8941 7.70678 11.7067C7.89425 11.5192 7.9997 11.265 8 10.9999ZM6.57143 10.9999C6.57143 10.9151 6.59656 10.8323 6.64366 10.7618C6.69075 10.6913 6.75768 10.6364 6.83599 10.6039C6.9143 10.5715 7.00048 10.563 7.08361 10.5795C7.16675 10.5961 7.24311 10.6369 7.30305 10.6968C7.36298 10.7568 7.4038 10.8331 7.42034 10.9163C7.43687 10.9994 7.42839 11.0856 7.39595 11.1639C7.36351 11.2422 7.30858 11.3091 7.2381 11.3562C7.16762 11.4033 7.08476 11.4285 7 11.4285C6.88637 11.4283 6.77744 11.3831 6.69709 11.3028C6.61675 11.2224 6.57155 11.1135 6.57143 10.9999Z" fill="#BA5D45"/>
<path d="M4.67741 9.47123C4.6783 9.39656 4.70877 9.32528 4.76213 9.27304C4.8155 9.2208 4.88741 9.19186 4.96208 9.19256H10.8203V9.17875C10.8211 8.98484 10.8675 8.79384 10.9557 8.62113H4.96208C4.7359 8.6206 4.51875 8.7098 4.35826 8.86917C4.19777 9.02853 4.10704 9.24506 4.10598 9.47123V18.4783H4.67741L4.67741 9.47123ZM19.106 9.19256H19.8213C19.896 9.19186 19.9679 9.2208 20.0213 9.27304C20.0746 9.32528 20.1051 9.39655 20.106 9.47123V18.4783H20.6774V9.47123C20.6764 9.24506 20.5856 9.02853 20.4251 8.86917C20.2646 8.7098 20.0475 8.6206 19.8213 8.62113H18.9706C19.0588 8.79384 19.1051 8.98484 19.106 9.17875L19.106 9.19256ZM17.6774 2.19267C17.645 2.27098 17.7479 2.14557 17.6774 2.19267C17.694 2.2758 17.7099 2.11436 17.6774 2.19267C17.7374 2.2526 17.6609 2.10953 17.6774 2.19267C17.7606 2.2092 17.6175 2.13273 17.6774 2.19267C17.6774 2.1079 17.6303 2.26315 17.6774 2.19267C17.5971 2.11232 17.6776 2.30629 17.6774 2.19267ZM17.6774 2.19267C17.6422 2.16912 17.7198 2.19267 17.6774 2.19267C17.6612 2.15351 17.7127 2.21621 17.6774 2.19267C17.6857 2.1511 17.6936 2.23182 17.6774 2.19267C17.7074 2.1627 17.6692 2.23423 17.6774 2.19267C17.719 2.1844 17.6475 2.22264 17.6774 2.19267C17.7166 2.20889 17.6359 2.20094 17.6774 2.19267C17.701 2.22791 17.6383 2.17645 17.6774 2.19267C17.6206 2.19272 17.7176 2.15249 17.6774 2.19267ZM6.93527 6.48113C6.87876 6.48113 6.90911 6.48883 6.86213 6.52022C6.81514 6.55162 6.84465 6.54116 6.82303 6.59337C6.8014 6.64558 6.82013 6.62048 6.83116 6.67591C6.84218 6.73133 6.84382 6.70006 6.88377 6.74002C6.92373 6.77998 6.90772 6.75307 6.96314 6.76409C7.01856 6.77512 6.97983 6.76795 7.03204 6.74633C7.08425 6.7247 7.03272 6.7692 7.06412 6.72221C7.09551 6.67523 7.106 6.67775 7.106 6.62124C7.10591 6.54549 7.10527 6.60682 7.08192 6.54187C7.02836 6.48831 7.01102 6.48121 6.93527 6.48113ZM6.96314 6.76409C6.93489 6.76409 6.90727 6.75572 6.88377 6.74002C6.86028 6.72432 6.84197 6.70201 6.83116 6.67591C6.82035 6.6498 6.81752 6.62108 6.82303 6.59337C6.82854 6.56566 6.84215 6.5402 6.86213 6.52022C6.88211 6.50024 6.90756 6.48664 6.93527 6.48113C6.96298 6.47561 6.99171 6.47844 7.01781 6.48926C7.04391 6.50007 7.06623 6.51838 7.08192 6.54187C7.09762 6.56536 7.106 6.59298 7.106 6.62124C7.10596 6.65911 7.0909 6.69543 7.06412 6.72221C7.03733 6.74899 7.00102 6.76406 6.96314 6.76409ZM7.44638 1.91783C7.38987 1.91783 7.48881 1.88165 7.44182 1.91305C7.44638 1.91783 7.44638 1.91783 7.44638 1.91783C7.28701 1.94879 7.24058 1.96652 7.2516 2.02194C7.26263 2.07736 7.21977 2.06452 7.25973 2.10448C7.29969 2.14444 7.24979 2.15757 7.30522 2.16859C7.36064 2.17962 7.33951 2.21429 7.39171 2.19267C7.44392 2.17104 7.46129 2.19777 7.49269 2.15078C7.52408 2.1038 7.53457 2.10632 7.53457 2.04981C7.53448 1.97406 7.49995 1.97139 7.44638 1.91783C7.52213 1.91792 7.39282 1.86427 7.44638 1.91783ZM7.39171 2.19267C7.36346 2.19267 7.33584 2.18429 7.31235 2.16859C7.28885 2.15289 7.27054 2.13058 7.25973 2.10448C7.24892 2.07838 7.24609 2.04965 7.2516 2.02194C7.25711 1.99423 7.27072 1.96877 7.2907 1.94879C7.26299 1.95431 7.31068 1.92882 7.2907 1.94879C7.31841 1.94328 7.42028 1.90702 7.44638 1.91783C7.47249 1.92864 7.4948 1.94695 7.5105 1.97044C7.52619 1.99394 7.53457 2.02156 7.53457 2.04981C7.53453 2.08769 7.51947 2.124 7.49269 2.15078C7.4659 2.17757 7.42959 2.19263 7.39171 2.19267ZM23.106 6.76409C23.0495 6.76409 22.9942 6.78085 22.9473 6.81225C22.9003 6.84364 22.8637 6.88827 22.842 6.94047C22.8204 6.99268 22.8147 7.05013 22.8258 7.10555C22.8368 7.16097 22.864 7.21188 22.904 7.25184C22.9439 7.2918 23.032 7.29332 23.0874 7.30435C23.1428 7.31537 23.1631 7.3354 23.2153 7.31378C23.2675 7.29215 23.3122 7.25553 23.3436 7.20855C23.375 7.16156 23.3917 7.10632 23.3917 7.04981C23.3916 6.97406 23.3615 6.90144 23.3079 6.84787C23.2544 6.79431 23.1817 6.76418 23.106 6.76409ZM23.2153 7.31378C23.1871 7.31378 22.9275 7.27657 22.904 7.26087C22.8805 7.24517 22.8322 7.13166 22.8214 7.10555C22.8106 7.07945 22.8389 6.96267 22.8444 6.93496C22.8499 6.90724 22.9273 6.83222 22.9473 6.81225C22.9672 6.79227 23.0816 6.76963 23.1093 6.76412C23.137 6.75861 23.2818 6.83706 23.3079 6.84787C23.334 6.85869 23.3711 7.02632 23.3868 7.04981C23.4025 7.0733 23.3436 7.18029 23.3436 7.20855C23.3435 7.24642 23.3316 7.23409 23.3048 7.26087C23.278 7.28765 23.2532 7.31374 23.2153 7.31378ZM1.81754 2.87908C1.81754 2.82257 1.80984 2.85292 1.77844 2.80594C1.74705 2.75895 1.75751 2.78847 1.7053 2.76684C1.65309 2.74522 1.67818 2.76395 1.62276 2.77497C1.56734 2.78599 1.62441 2.75853 1.58445 2.79848C1.5445 2.83844 1.56966 2.77216 1.55864 2.82758C1.56567 2.95652 1.5586 2.9825 1.54883 2.96902C1.57885 3.01027 1.56214 3.00096 1.60913 3.03236C1.65612 3.06375 1.61687 3.04975 1.67337 3.04975C1.7568 3.03598 1.65261 3.04348 1.7568 3.02573C1.81036 2.97217 1.81745 2.95483 1.81754 2.87908ZM1.55864 2.82758C1.54294 2.85107 1.55864 2.79933 1.55864 2.82758C1.57433 2.80409 1.59666 2.78578 1.62276 2.77497C1.64886 2.76416 1.67759 2.76133 1.7053 2.76684C1.73301 2.77235 1.75846 2.78596 1.77844 2.80594C1.79842 2.82592 1.81203 2.85137 1.81754 2.87908C1.82305 2.90679 1.82022 2.93552 1.80941 2.96162C1.7986 2.98773 1.78029 3.01004 1.7568 3.02573C1.7333 3.04143 1.70568 3.04981 1.67743 3.04981C1.63955 3.04977 1.60324 3.03471 1.57645 3.00793C1.54967 2.98114 1.55868 2.86546 1.55864 2.82758Z" fill="#28363C"/>
<path d="M0.285714 20.7143C0.44351 20.7143 0.571429 20.5864 0.571429 20.4286C0.571429 20.2708 0.44351 20.1429 0.285714 20.1429C0.127919 20.1429 0 20.2708 0 20.4286C0 20.5864 0.127919 20.7143 0.285714 20.7143Z" fill="#28363C"/>
<path d="M1.57171 20.1429H1.14314C1.06736 20.1429 0.994687 20.173 0.941106 20.2266C0.887524 20.2801 0.857422 20.3528 0.857422 20.4286C0.857422 20.5044 0.887524 20.577 0.941106 20.6306C0.994687 20.6842 1.06736 20.7143 1.14314 20.7143H1.57171C1.64748 20.7143 1.72016 20.6842 1.77374 20.6306C1.82732 20.577 1.85742 20.5044 1.85742 20.4286C1.85742 20.3528 1.82732 20.2801 1.77374 20.2266C1.72016 20.173 1.64748 20.1429 1.57171 20.1429ZM22.8574 20.1429H22.4289C22.3531 20.1429 22.2804 20.173 22.2268 20.2266C22.1732 20.2801 22.1431 20.3528 22.1431 20.4286C22.1431 20.5044 22.1732 20.577 22.2268 20.6306C22.2804 20.6842 22.3531 20.7143 22.4289 20.7143H22.8574C22.9332 20.7143 23.0059 20.6842 23.0595 20.6306C23.113 20.577 23.1431 20.5044 23.1431 20.4286C23.1431 20.3528 23.113 20.2801 23.0595 20.2266C23.0059 20.173 22.9332 20.1429 22.8574 20.1429Z" fill="#28363C"/>
<path d="M23.7144 20.7143C23.8722 20.7143 24.0001 20.5864 24.0001 20.4286C24.0001 20.2708 23.8722 20.1429 23.7144 20.1429C23.5566 20.1429 23.4287 20.2708 23.4287 20.4286C23.4287 20.5864 23.5566 20.7143 23.7144 20.7143Z" fill="#28363C"/>
<path d="M16.8794 21.2857H15.6926C15.6208 21.2915 15.5537 21.3241 15.5049 21.377C15.456 21.43 15.4288 21.4994 15.4288 21.5714C15.4288 21.6435 15.456 21.7129 15.5049 21.7658C15.5537 21.8188 15.6208 21.8514 15.6926 21.8571H16.8794C16.9512 21.8514 17.0183 21.8188 17.0671 21.7658C17.116 21.7129 17.1431 21.6435 17.1431 21.5714C17.1431 21.4994 17.116 21.43 17.0671 21.377C17.0183 21.3241 16.9512 21.2915 16.8794 21.2857ZM8.30798 21.2857H7.12116C7.04933 21.2915 6.98231 21.3241 6.93344 21.377C6.88456 21.43 6.85742 21.4994 6.85742 21.5714C6.85742 21.6435 6.88456 21.7129 6.93344 21.7658C6.98231 21.8188 7.04933 21.8514 7.12116 21.8571H8.30798C8.3798 21.8514 8.44683 21.8188 8.4957 21.7658C8.54458 21.7129 8.57172 21.6435 8.57172 21.5714C8.57172 21.4994 8.54458 21.43 8.4957 21.377C8.44683 21.3241 8.3798 21.2915 8.30798 21.2857ZM14.8574 21.2857H9.14314C9.06736 21.2857 8.99469 21.3158 8.94111 21.3694C8.88753 21.423 8.85743 21.4956 8.85743 21.5714C8.85743 21.6472 8.88753 21.7199 8.94111 21.7735C8.99469 21.827 9.06736 21.8571 9.14314 21.8571H11.4203V22.1428H10.286C10.2102 22.1428 10.1375 22.173 10.084 22.2265C10.0304 22.2801 10.0003 22.3528 10.0003 22.4286C10.0003 22.5043 10.0304 22.577 10.084 22.6306C10.1375 22.6842 10.2102 22.7143 10.286 22.7143H13.8574C13.9332 22.7143 14.0059 22.6842 14.0595 22.6306C14.113 22.577 14.1431 22.5043 14.1431 22.4286C14.1431 22.3528 14.113 22.2801 14.0595 22.2265C14.0059 22.173 13.9332 22.1428 13.8574 22.1428H12.5803V21.8571H14.8574C14.9332 21.8571 15.0059 21.827 15.0595 21.7735C15.113 21.7199 15.1431 21.6472 15.1431 21.5714C15.1431 21.4956 15.113 21.423 15.0595 21.3694C15.0059 21.3158 14.9332 21.2857 14.8574 21.2857Z" fill="#BA5D45"/>
<path d="M21.5313 20.1428H21.0925C21.1254 20.0511 21.1423 19.9545 21.1425 19.857V19.2856C21.1425 19.2098 21.1124 19.1371 21.0588 19.0836C21.0052 19.03 20.9326 18.9999 20.8568 18.9999H3.14251C3.06673 18.9999 2.99406 19.03 2.94048 19.0836C2.8869 19.1371 2.8568 19.2098 2.85679 19.2856V19.857C2.857 19.9545 2.87392 20.0511 2.90683 20.1428H2.46805C2.42741 20.1375 2.38609 20.141 2.34688 20.1529C2.30766 20.1648 2.27144 20.185 2.24063 20.212C2.20982 20.2391 2.18514 20.2724 2.16823 20.3097C2.15132 20.347 2.14258 20.3876 2.14258 20.4286C2.14258 20.4695 2.15132 20.5101 2.16823 20.5474C2.18514 20.5848 2.20982 20.6181 2.24063 20.6451C2.27144 20.6721 2.30766 20.6923 2.34688 20.7042C2.38609 20.7162 2.42741 20.7196 2.46805 20.7143H21.5313C21.5719 20.7196 21.6132 20.7162 21.6525 20.7042C21.6917 20.6923 21.7279 20.6721 21.7587 20.6451C21.7895 20.6181 21.8142 20.5848 21.8311 20.5474C21.848 20.5101 21.8568 20.4695 21.8568 20.4286C21.8568 20.3876 21.848 20.347 21.8311 20.3097C21.8142 20.2724 21.7895 20.2391 21.7587 20.212C21.7279 20.185 21.6917 20.1648 21.6525 20.1529C21.6132 20.141 21.5719 20.1375 21.5313 20.1428ZM3.42822 19.5713H20.5711V19.857C20.571 19.9328 20.5409 20.0054 20.4873 20.059C20.4337 20.1125 20.3611 20.1427 20.2854 20.1427H3.71394C3.63818 20.1427 3.56556 20.1125 3.51199 20.059C3.45842 20.0054 3.4283 19.9328 3.42822 19.857V19.5713Z" fill="#28363C"/>
</g>
<defs>
<clipPath id="clip0_42_3681">
<rect width="24" height="24" fill="white"/>
</clipPath>
</defs>
</svg>
