<svg width="120" height="120" viewBox="0 0 120 120" fill="none" xmlns="http://www.w3.org/2000/svg">
<path d="M59.8477 90.4155C87.9302 90.4155 110.695 86.1618 110.695 80.9145C110.695 75.6672 87.9302 71.4135 59.8477 71.4135C31.7653 71.4135 9 75.6672 9 80.9145C9 86.1618 31.7653 90.4155 59.8477 90.4155Z" fill="#F5F5F7" fill-opacity="0.8"/>
<path fill-rule="evenodd" clip-rule="evenodd" d="M100.523 53.0025L82.5797 30.9187C81.7187 29.8792 80.4602 29.25 79.135 29.25H40.555C39.2305 29.25 37.972 29.8792 37.111 30.9187L19.168 53.0025V64.5397H100.524V53.0025H100.523Z" fill="#AEB8C2"/>
<path fill-rule="evenodd" clip-rule="evenodd" d="M100.358 79.521C99.7772 81.8242 97.7357 83.541 95.3072 83.541H24.385C21.9565 83.541 19.915 81.8235 19.3345 79.521C19.2238 79.0821 19.1678 78.6312 19.168 78.1785V53.0033H38.9065C41.0867 53.0033 42.844 54.8392 42.844 57.0682V57.0982C42.844 59.3265 44.6215 61.1257 46.8017 61.1257H72.8905C75.0707 61.1257 76.8482 59.31 76.8482 57.081V57.072C76.8482 54.843 78.6055 53.0025 80.7857 53.0025H100.524V78.1792C100.524 78.642 100.466 79.0912 100.358 79.521Z" fill="#DCE0E6"/>
</svg>
