<svg width="20" height="20" viewBox="0 0 20 20" fill="none" xmlns="http://www.w3.org/2000/svg">
<path d="M9.41667 13.5C9.41667 14.0436 9.41667 14.3154 9.50547 14.5298C9.62388 14.8157 9.851 15.0428 10.1369 15.1612C10.3513 15.25 10.6231 15.25 11.1667 15.25H13.5C14.0436 15.25 14.3154 15.25 14.5298 15.1612C14.8157 15.0428 15.0428 14.8157 15.1612 14.5298C15.25 14.3154 15.25 14.0436 15.25 13.5C15.25 12.9564 15.25 12.6846 15.1612 12.4702C15.0428 12.1843 14.8157 11.9572 14.5298 11.8388C14.3154 11.75 14.0436 11.75 13.5 11.75H11.1667C10.6231 11.75 10.3513 11.75 10.1369 11.8388C9.851 11.9572 9.62388 12.1843 9.50547 12.4702C9.41667 12.6846 9.41667 12.9564 9.41667 13.5ZM9.41667 13.5H8.36667C7.71327 13.5 7.38657 13.5 7.13701 13.3728C6.91749 13.261 6.73901 13.0825 6.62716 12.863C6.5 12.6134 6.5 12.2867 6.5 11.6333V8.25M6.5 8.25H13.5C14.0436 8.25 14.3154 8.25 14.5298 8.16119C14.8157 8.04278 15.0428 7.81566 15.1612 7.5298C15.25 7.3154 15.25 7.0436 15.25 6.5C15.25 5.9564 15.25 5.6846 15.1612 5.4702C15.0428 5.18434 14.8157 4.95722 14.5298 4.83881C14.3154 4.75 14.0436 4.75 13.5 4.75H6.5C5.9564 4.75 5.6846 4.75 5.4702 4.83881C5.18434 4.95722 4.95722 5.18434 4.83881 5.4702C4.75 5.6846 4.75 5.9564 4.75 6.5C4.75 7.0436 4.75 7.3154 4.83881 7.5298C4.95722 7.81566 5.18434 8.04278 5.4702 8.16119C5.6846 8.25 5.9564 8.25 6.5 8.25Z" stroke="#0370F2" stroke-linecap="round" stroke-linejoin="round"/>
</svg>
