<svg width="84" height="17" viewBox="0 0 84 17" fill="none" xmlns="http://www.w3.org/2000/svg">
<path d="M5.84375 13H3.42188V3.59375H0.320312V1.57812H8.94531V3.59375H5.84375V13ZM14.1332 4.10156C14.9405 4.10156 15.6358 4.25781 16.2191 4.57031C16.8025 4.8776 17.253 5.32552 17.5707 5.91406C17.8884 6.5026 18.0472 7.22135 18.0472 8.07031V9.22656H12.4144C12.4405 9.89844 12.641 10.4271 13.016 10.8125C13.3962 11.1927 13.9222 11.3828 14.5941 11.3828C15.1514 11.3828 15.6618 11.3255 16.1254 11.2109C16.5889 11.0964 17.0655 10.9245 17.5551 10.6953V12.5391C17.1228 12.7526 16.6696 12.9089 16.1957 13.0078C15.7269 13.1068 15.1566 13.1562 14.4847 13.1562C13.6097 13.1562 12.8337 12.9948 12.1566 12.6719C11.4847 12.349 10.9561 11.8568 10.5707 11.1953C10.1905 10.5339 10.0004 9.70052 10.0004 8.69531C10.0004 7.67448 10.1722 6.82552 10.516 6.14844C10.865 5.46615 11.3493 4.95573 11.9691 4.61719C12.5889 4.27344 13.3103 4.10156 14.1332 4.10156ZM14.1488 5.79688C13.6853 5.79688 13.2999 5.94531 12.9926 6.24219C12.6905 6.53906 12.516 7.00521 12.4691 7.64062H15.8129C15.8077 7.28646 15.7426 6.97135 15.6176 6.69531C15.4978 6.41927 15.3155 6.20052 15.0707 6.03906C14.8311 5.8776 14.5238 5.79688 14.1488 5.79688ZM30.2586 4.10156C31.2481 4.10156 31.9955 4.35677 32.5007 4.86719C33.0112 5.3724 33.2664 6.1849 33.2664 7.30469V13H30.8757V7.89844C30.8757 7.27344 30.769 6.80208 30.5554 6.48438C30.3419 6.16667 30.0112 6.00781 29.5632 6.00781C28.933 6.00781 28.4851 6.23438 28.2195 6.6875C27.9539 7.13542 27.8211 7.77865 27.8211 8.61719V13H25.4382V7.89844C25.4382 7.48177 25.3914 7.13281 25.2976 6.85156C25.2039 6.57031 25.0606 6.35938 24.8679 6.21875C24.6752 6.07812 24.4278 6.00781 24.1257 6.00781C23.683 6.00781 23.3341 6.11979 23.0789 6.34375C22.8289 6.5625 22.6492 6.88802 22.5398 7.32031C22.4356 7.7474 22.3836 8.27083 22.3836 8.89062V13H20.0007V4.26562H21.8211L22.1414 5.38281H22.2742C22.4513 5.08073 22.6726 4.83594 22.9382 4.64844C23.2091 4.46094 23.506 4.32292 23.8289 4.23438C24.1518 4.14583 24.4799 4.10156 24.8132 4.10156C25.4539 4.10156 25.9955 4.20573 26.4382 4.41406C26.8862 4.6224 27.2299 4.94531 27.4695 5.38281H27.6804C27.9409 4.9349 28.308 4.60938 28.782 4.40625C29.2612 4.20312 29.7534 4.10156 30.2586 4.10156ZM40.5949 4.10156C41.5793 4.10156 42.3735 4.48438 42.9777 5.25C43.5871 6.01562 43.8918 7.13802 43.8918 8.61719C43.8918 9.60677 43.7485 10.4401 43.4621 11.1172C43.1756 11.7891 42.7798 12.2969 42.2746 12.6406C41.7694 12.9844 41.1886 13.1562 40.5324 13.1562C40.1105 13.1562 39.7485 13.1042 39.4464 13C39.1444 12.8906 38.8865 12.7526 38.673 12.5859C38.4595 12.4141 38.2746 12.2318 38.1183 12.0391H37.9933C38.035 12.2474 38.0662 12.4609 38.0871 12.6797C38.1079 12.8984 38.1183 13.112 38.1183 13.3203V16.8438H35.7355V4.26562H37.673L38.0089 5.39844H38.1183C38.2746 5.16406 38.4647 4.94792 38.6886 4.75C38.9126 4.55208 39.1808 4.39583 39.4933 4.28125C39.811 4.16146 40.1782 4.10156 40.5949 4.10156ZM39.8293 6.00781C39.4126 6.00781 39.0819 6.09375 38.8371 6.26562C38.5923 6.4375 38.4126 6.69531 38.298 7.03906C38.1886 7.38281 38.1287 7.81771 38.1183 8.34375V8.60156C38.1183 9.16406 38.1704 9.64062 38.2746 10.0312C38.3839 10.4219 38.5636 10.7188 38.8136 10.9219C39.0688 11.125 39.4178 11.2266 39.8605 11.2266C40.2251 11.2266 40.5246 11.125 40.7589 10.9219C40.9933 10.7188 41.1678 10.4219 41.2824 10.0312C41.4022 9.63542 41.4621 9.15365 41.4621 8.58594C41.4621 7.73177 41.3293 7.08854 41.0636 6.65625C40.798 6.22396 40.3865 6.00781 39.8293 6.00781ZM48.2593 13H45.8765V0.84375H48.2593V13ZM54.3613 4.08594C55.5331 4.08594 56.4316 4.34115 57.0566 4.85156C57.6816 5.36198 57.9941 6.13802 57.9941 7.17969V13H56.33L55.8691 11.8125H55.8066C55.5566 12.125 55.3014 12.3802 55.0409 12.5781C54.7805 12.776 54.481 12.9219 54.1425 13.0156C53.804 13.1094 53.3925 13.1562 52.9081 13.1562C52.3925 13.1562 51.929 13.0573 51.5175 12.8594C51.1113 12.6615 50.7909 12.3594 50.5566 11.9531C50.3222 11.5417 50.205 11.0208 50.205 10.3906C50.205 9.46354 50.5305 8.78125 51.1816 8.34375C51.8326 7.90104 52.8092 7.65625 54.1113 7.60938L55.6269 7.5625V7.17969C55.6269 6.72135 55.5071 6.38542 55.2675 6.17188C55.0279 5.95833 54.6946 5.85156 54.2675 5.85156C53.8456 5.85156 53.4316 5.91146 53.0253 6.03125C52.6191 6.15104 52.2128 6.30208 51.8066 6.48438L51.0175 4.875C51.481 4.63021 51.9993 4.4375 52.5722 4.29688C53.1503 4.15625 53.7467 4.08594 54.3613 4.08594ZM55.6269 8.95312L54.705 8.98438C53.9342 9.00521 53.3977 9.14323 53.0956 9.39844C52.7988 9.65365 52.6503 9.98958 52.6503 10.4062C52.6503 10.7708 52.7571 11.0312 52.9706 11.1875C53.1842 11.3385 53.4628 11.4141 53.8066 11.4141C54.317 11.4141 54.7467 11.263 55.0956 10.9609C55.4498 10.6589 55.6269 10.2292 55.6269 9.67188V8.95312ZM64.1507 11.2578C64.4111 11.2578 64.6637 11.2318 64.9085 11.1797C65.1585 11.1276 65.4059 11.0625 65.6507 10.9844V12.7578C65.3955 12.8724 65.0778 12.9661 64.6976 13.0391C64.3226 13.1172 63.9111 13.1562 63.4632 13.1562C62.9424 13.1562 62.4736 13.0729 62.0569 12.9062C61.6455 12.7344 61.32 12.4401 61.0804 12.0234C60.846 11.6016 60.7288 11.0156 60.7288 10.2656V6.05469H59.5882V5.04688L60.9007 4.25L61.5882 2.40625H63.1116V4.26562H65.5569V6.05469H63.1116V10.2656C63.1116 10.599 63.2054 10.849 63.3929 11.0156C63.5856 11.1771 63.8382 11.2578 64.1507 11.2578ZM71.0417 4.10156C71.849 4.10156 72.5443 4.25781 73.1276 4.57031C73.711 4.8776 74.1615 5.32552 74.4792 5.91406C74.7969 6.5026 74.9557 7.22135 74.9557 8.07031V9.22656H69.3229C69.349 9.89844 69.5495 10.4271 69.9245 10.8125C70.3047 11.1927 70.8307 11.3828 71.5026 11.3828C72.0599 11.3828 72.5703 11.3255 73.0339 11.2109C73.4974 11.0964 73.974 10.9245 74.4636 10.6953V12.5391C74.0313 12.7526 73.5781 12.9089 73.1042 13.0078C72.6354 13.1068 72.0651 13.1562 71.3932 13.1562C70.5182 13.1562 69.7422 12.9948 69.0651 12.6719C68.3932 12.349 67.8646 11.8568 67.4792 11.1953C67.099 10.5339 66.9089 9.70052 66.9089 8.69531C66.9089 7.67448 67.0807 6.82552 67.4245 6.14844C67.7735 5.46615 68.2578 4.95573 68.8776 4.61719C69.4974 4.27344 70.2188 4.10156 71.0417 4.10156ZM71.0573 5.79688C70.5938 5.79688 70.2084 5.94531 69.9011 6.24219C69.599 6.53906 69.4245 7.00521 69.3776 7.64062H72.7214C72.7162 7.28646 72.6511 6.97135 72.5261 6.69531C72.4063 6.41927 72.224 6.20052 71.9792 6.03906C71.7396 5.8776 71.4323 5.79688 71.0573 5.79688ZM83.003 10.4062C83.003 11 82.8624 11.5026 82.5811 11.9141C82.3051 12.3203 81.891 12.6302 81.3389 12.8438C80.7869 13.0521 80.0994 13.1562 79.2764 13.1562C78.6671 13.1562 78.1436 13.1172 77.7061 13.0391C77.2738 12.9609 76.8363 12.8307 76.3936 12.6484V10.6797C76.8676 10.8932 77.3754 11.0703 77.9171 11.2109C78.4639 11.3464 78.9431 11.4141 79.3546 11.4141C79.8181 11.4141 80.1488 11.3464 80.3467 11.2109C80.5499 11.0703 80.6514 10.888 80.6514 10.6641C80.6514 10.5182 80.6098 10.388 80.5264 10.2734C80.4483 10.1536 80.2764 10.0208 80.0108 9.875C79.7452 9.72396 79.3285 9.52865 78.7608 9.28906C78.2139 9.0599 77.7634 8.82812 77.4092 8.59375C77.0603 8.35938 76.7999 8.08333 76.628 7.76562C76.4613 7.44271 76.378 7.03385 76.378 6.53906C76.378 5.73177 76.6905 5.125 77.3155 4.71875C77.9457 4.30729 78.7869 4.10156 79.8389 4.10156C80.3806 4.10156 80.8962 4.15625 81.3858 4.26562C81.8806 4.375 82.3884 4.54948 82.9092 4.78906L82.1905 6.50781C81.7582 6.32031 81.3494 6.16667 80.9639 6.04688C80.5837 5.92708 80.1957 5.86719 79.7999 5.86719C79.4509 5.86719 79.1879 5.91406 79.0108 6.00781C78.8337 6.10156 78.7452 6.24479 78.7452 6.4375C78.7452 6.57812 78.7895 6.70312 78.878 6.8125C78.9717 6.92188 79.1488 7.04427 79.4092 7.17969C79.6749 7.3099 80.0629 7.47917 80.5733 7.6875C81.0681 7.89062 81.4978 8.10417 81.8624 8.32812C82.227 8.54688 82.5082 8.82031 82.7061 9.14844C82.904 9.47135 83.003 9.89062 83.003 10.4062Z" fill="#1A2E35"/>
</svg>
