<svg width="24" height="24" viewBox="0 0 24 24" fill="none" xmlns="http://www.w3.org/2000/svg">
  <!-- Tow truck representing towing service -->
  <path d="M5 12H19C19.5523 12 20 12.4477 20 13V17C20 17.5523 19.5523 18 19 18H5C4.44772 18 4 17.5523 4 17V13C4 12.4477 4.44772 12 5 12Z" stroke="#203036" stroke-width="1.5" stroke-linecap="round" stroke-linejoin="round"/>
  <path d="M8 18V20C8 20.5523 7.55228 21 7 21C6.44772 21 6 20.5523 6 20V18" stroke="#203036" stroke-width="1.5" stroke-linecap="round" stroke-linejoin="round"/>
  <path d="M18 18V20C18 20.5523 17.5523 21 17 21C16.4477 21 16 20.5523 16 20V18" stroke="#203036" stroke-width="1.5" stroke-linecap="round" stroke-linejoin="round"/>
  <path d="M12 8L15 12H9L12 8Z" stroke="#203036" stroke-width="1.5" stroke-linecap="round" stroke-linejoin="round"/>
  <circle cx="7" cy="18" r="1.5" stroke="#203036" stroke-width="1.5"/>
  <circle cx="17" cy="18" r="1.5" stroke="#203036" stroke-width="1.5"/>
  
  <!-- Circle representing service point -->
  <circle cx="12" cy="5" r="1.5" stroke="#203036" stroke-width="1.5"/>
  
  <!-- Checkmark indicating success/completion -->
  <path d="M2 6L5 9L10 4" stroke="#4CAF50" stroke-width="1.5" stroke-linecap="round" stroke-linejoin="round"/>
</svg>
