<svg width="32" height="32" viewBox="0 0 32 32" fill="none" xmlns="http://www.w3.org/2000/svg">
<rect width="32" height="32" rx="16" fill="white"/>
<path d="M8 12L9.71624 13.373C10.8322 14.2657 11.3901 14.7121 11.9526 14.7814C12.4453 14.8421 12.943 14.7173 13.3489 14.4314C13.8121 14.1051 14.0936 13.4483 14.6565 12.1348L16 9L17.3435 12.1348C17.9064 13.4483 18.1879 14.1051 18.6511 14.4314C19.057 14.7173 19.5547 14.8421 20.0474 14.7814C20.6099 14.7121 21.1678 14.2657 22.2838 13.373L24 12L22 24H10L8 12Z" fill="#FECC3F"/>
<path d="M17 8C17 8.55228 16.5523 9 16 9C15.4477 9 15 8.55228 15 8C15 7.44772 15.4477 7 16 7C16.5523 7 17 7.44772 17 8Z" fill="#FECC3F"/>
<path d="M9 11C9 11.5523 8.55228 12 8 12C7.44772 12 7 11.5523 7 11C7 10.4477 7.44772 10 8 10C8.55228 10 9 10.4477 9 11Z" fill="#FECC3F"/>
<path d="M25 11C25 11.5523 24.5523 12 24 12C23.4477 12 23 11.5523 23 11C23 10.4477 23.4477 10 24 10C24.5523 10 25 10.4477 25 11Z" fill="#FECC3F"/>
<path d="M8 12L10 24H22L24 12M8 12L9.71624 13.373C10.8322 14.2657 11.3901 14.7121 11.9526 14.7814C12.4453 14.8421 12.943 14.7173 13.3489 14.4314C13.8121 14.1051 14.0936 13.4483 14.6565 12.1348L16 9M8 12C8.55228 12 9 11.5523 9 11C9 10.4477 8.55228 10 8 10C7.44772 10 7 10.4477 7 11C7 11.5523 7.44772 12 8 12ZM24 12L22.2838 13.373C21.1678 14.2657 20.6099 14.7121 20.0474 14.7814C19.5547 14.8421 19.057 14.7173 18.6511 14.4314C18.1879 14.1051 17.9064 13.4483 17.3435 12.1348L16 9M24 12C24.5523 12 25 11.5523 25 11C25 10.4477 24.5523 10 24 10C23.4477 10 23 10.4477 23 11C23 11.5523 23.4477 12 24 12ZM16 9C16.5523 9 17 8.55228 17 8C17 7.44772 16.5523 7 16 7C15.4477 7 15 7.44772 15 8C15 8.55228 15.4477 9 16 9ZM16 8H16.01M24 11H24.01M8 11H8.01" stroke="#FECC3F" stroke-linecap="round" stroke-linejoin="round"/>
</svg>
