<svg width="20" height="20" viewBox="0 0 20 20" fill="none" xmlns="http://www.w3.org/2000/svg">
<g id="user-shield">
<path id="Icon" d="M10 17.5H2.5C2.5 14.2783 5.11167 11.6667 8.33333 11.6667C8.61627 11.6667 8.8945 11.6868 9.16667 11.7257M11.6667 5.83333C11.6667 7.67428 10.1743 9.16667 8.33333 9.16667C6.49238 9.16667 5 7.67428 5 5.83333C5 3.99238 6.49238 2.5 8.33333 2.5C10.1743 2.5 11.6667 3.99238 11.6667 5.83333Z" stroke="#FECC3F" stroke-width="1.5" stroke-linecap="round" stroke-linejoin="round"/>
<path id="Icon_2" d="M17.3939 12.6701C17.337 12.6736 17.2798 12.6753 17.2222 12.6753C16.3685 12.6753 15.5897 12.294 15 11.667C14.4103 12.294 13.6315 12.6753 12.7778 12.6753C12.7202 12.6753 12.663 12.6735 12.6061 12.6701C12.5369 12.9881 12.5 13.3216 12.5 13.6653C12.5 15.5104 13.5623 17.0607 15 17.5003C16.4377 17.0607 17.5 15.5104 17.5 13.6653C17.5 13.3216 17.4631 12.9881 17.3939 12.6701Z" stroke="#FECC3F" stroke-width="1.5" stroke-linecap="round" stroke-linejoin="round"/>
</g>
</svg>
