<svg width="40" height="40" viewBox="0 0 40 40" fill="none" xmlns="http://www.w3.org/2000/svg">
<rect width="40" height="40" rx="4" fill="#4DB86B" fill-opacity="0.14"/>
<path d="M30.4646 19.7836L26.3366 18.3916L24.2966 14.6476C23.7446 13.6396 22.6886 13.0156 21.5606 13.0156H14.1206C12.9686 13.0156 11.9366 13.6396 11.3846 14.6476L9.24861 18.5596V18.5836C9.22461 18.6076 9.22461 18.6316 9.22461 18.6556V24.5356C9.22461 24.7996 9.44061 25.0156 9.70461 25.0156H11.6726C11.8886 26.1196 12.8726 26.9356 14.0246 26.9356C15.1766 26.9356 16.1606 26.1196 16.3766 25.0156H23.6726C23.8886 26.1196 24.8726 26.9356 26.0246 26.9356C27.1766 26.9356 28.1606 26.1196 28.3766 25.0156H30.3206C30.5846 25.0156 30.8006 24.7996 30.8006 24.5356V20.2396C30.8006 20.0236 30.6806 19.8556 30.4646 19.7836ZM17.1206 13.9996H21.5606C22.3526 13.9996 23.0726 14.4316 23.4566 15.1276L25.1846 18.3196H17.1206V13.9996ZM12.2246 15.1276C12.6086 14.4316 13.3286 13.9996 14.1206 13.9996H16.1606V18.3196H10.4966L12.2246 15.1276ZM11.6486 24.0796H10.1606V23.1196H12.0806C11.8646 23.4076 11.7206 23.7196 11.6486 24.0796ZM14.0006 25.9996C13.2086 25.9996 12.5606 25.3516 12.5606 24.5596C12.5606 23.7676 13.2086 23.1196 14.0006 23.1196C14.7926 23.1196 15.4406 23.7676 15.4406 24.5596C15.4406 25.3516 14.7926 25.9996 14.0006 25.9996ZM26.0006 25.9996C25.2086 25.9996 24.5606 25.3516 24.5606 24.5596C24.5606 23.7676 25.2086 23.1196 26.0006 23.1196C26.7926 23.1196 27.4406 23.7676 27.4406 24.5596C27.4406 25.3516 26.7926 25.9996 26.0006 25.9996ZM29.8406 24.0796H28.3526C28.1366 22.9756 27.1526 22.1596 26.0006 22.1596C24.8486 22.1596 23.8646 22.9756 23.6486 24.0796H16.3526C16.1366 22.9756 15.1526 22.1596 14.0006 22.1596H10.1606V19.2796H25.9286L29.8406 20.5756V24.0796Z" fill="#4DB86B"/>
</svg>
