<svg width="24" height="24" viewBox="0 0 24 24" fill="none" xmlns="http://www.w3.org/2000/svg">
<g clip-path="url(#clip0_106_5257)">
<path d="M16.3447 5.46978C16.0518 5.76265 16.0518 6.23755 16.3447 6.53043L17.4697 7.65543C17.6313 7.81705 17.8578 7.89614 18.0849 7.8703C18.312 7.84443 18.5149 7.7164 18.636 7.5226L20.511 4.5226C20.7305 4.17134 20.6238 3.70863 20.2725 3.4891C19.9212 3.26957 19.4585 3.37635 19.239 3.7276L17.8637 5.9281L17.4053 5.46978C17.1125 5.17686 16.6376 5.17686 16.3447 5.46978Z" fill="#BA5D45"/>
<path fill-rule="evenodd" clip-rule="evenodd" d="M18.375 0.75C15.6826 0.75 13.5 2.93261 13.5 5.625C13.5 8.31739 15.6826 10.5 18.375 10.5C21.0674 10.5 23.25 8.31739 23.25 5.625C23.25 2.93261 21.0674 0.75 18.375 0.75ZM15 5.625C15 3.76102 16.511 2.25 18.375 2.25C20.239 2.25 21.75 3.76102 21.75 5.625C21.75 7.48898 20.239 9 18.375 9C16.511 9 15 7.48898 15 5.625Z" fill="#BA5D45"/>
<path d="M6 2.25C3.1005 2.25 0.75 4.6005 0.75 7.5V12.375C0.75 12.7892 1.08579 13.125 1.5 13.125C1.91421 13.125 2.25 12.7892 2.25 12.375V7.5C2.25 5.42895 3.92895 3.75 6 3.75H12C12.4142 3.75 12.75 3.41421 12.75 3C12.75 2.58579 12.4142 2.25 12 2.25H6ZM21.75 12C21.75 11.5858 21.4142 11.25 21 11.25C20.5858 11.25 20.25 11.5858 20.25 12V18C20.25 20.071 18.5711 21.75 16.5 21.75H15.375C14.9608 21.75 14.625 22.0858 14.625 22.5C14.625 22.9142 14.9608 23.25 15.375 23.25H16.5C19.3995 23.25 21.75 20.8995 21.75 18V12ZM3.70982 18.6136C3.29561 18.6136 2.95982 18.9494 2.95982 19.3636C2.95982 19.7778 3.29561 20.1136 3.70982 20.1136H4.51339C4.92761 20.1136 5.26339 19.7778 5.26339 19.3636C5.26339 18.9494 4.92761 18.6136 4.51339 18.6136H3.70982ZM9.53573 18.6136C9.1215 18.6136 8.78573 18.9494 8.78573 19.3636C8.78573 19.7778 9.1215 20.1136 9.53573 20.1136H10.3393C10.7535 20.1136 11.0893 19.7778 11.0893 19.3636C11.0893 18.9494 10.7535 18.6136 10.3393 18.6136H9.53573Z" fill="#203036"/>
<path fill-rule="evenodd" clip-rule="evenodd" d="M4.5786 13.125C3.74874 13.125 2.99624 13.6438 2.72536 14.4368L2.26178 15.7938C1.90937 15.6273 1.48302 15.7593 1.28872 16.1042C1.08541 16.465 1.21316 16.9224 1.57404 17.1258L1.63593 17.1606C1.09845 17.5826 0.75 18.2321 0.75 18.9716V21.3239C0.75 22.4049 1.6429 23.25 2.70536 23.25C3.57777 23.25 4.33586 22.6802 4.57916 21.8778H9.67084C9.91414 22.6802 10.6722 23.25 11.5446 23.25C12.6071 23.25 13.5 22.4049 13.5 21.3239V18.9716C13.5 18.2244 13.1442 17.5689 12.5971 17.1474L12.6356 17.1258C12.9965 16.9224 13.1242 16.465 12.9209 16.1042C12.733 15.7707 12.3281 15.6363 11.9829 15.7783L11.5247 14.4368C11.2538 13.6438 10.5013 13.125 9.6714 13.125H4.5786ZM4.14484 14.9217L3.55323 16.6534H10.6968L10.1052 14.9217C10.0479 14.7541 9.87919 14.625 9.6714 14.625H4.5786C4.37081 14.625 4.20206 14.7541 4.14484 14.9217ZM2.25 18.9716C2.25 18.537 2.6163 18.1534 3.10714 18.1534H11.1429C11.6337 18.1534 12 18.537 12 18.9716V21.3239C12 21.542 11.8136 21.75 11.5446 21.75C11.2757 21.75 11.0893 21.542 11.0893 21.3239V21.1278C11.0893 20.7136 10.7535 20.3778 10.3393 20.3778H3.91073C3.4965 20.3778 3.16071 20.7136 3.16071 21.1278V21.3239C3.16071 21.542 2.9743 21.75 2.70536 21.75C2.43641 21.75 2.25 21.542 2.25 21.3239V18.9716Z" fill="#203036"/>
</g>
<defs>
<clipPath id="clip0_106_5257">
<rect width="24" height="24" fill="white"/>
</clipPath>
</defs>
</svg>
