<svg width="24" height="24" viewBox="0 0 24 24" fill="none" xmlns="http://www.w3.org/2000/svg">
<path d="M16.9563 5.94054L17.6151 5.58203V5.58203L16.9563 5.94054ZM19.5315 10.6725L20.1903 10.314V10.314L19.5315 10.6725ZM17.3333 17.1333H18.0833C18.0833 16.7191 17.7475 16.3833 17.3333 16.3833V17.1333ZM6.66667 17.1333V16.3833C6.25245 16.3833 5.91667 16.7191 5.91667 17.1333H6.66667ZM4.46847 10.6725L5.12723 11.031L4.46847 10.6725ZM7.0437 5.94054L6.38493 5.58203L7.0437 5.94054ZM4.49388 7.70223C4.18215 7.42947 3.70833 7.46106 3.43557 7.77279C3.16281 8.08452 3.19439 8.55834 3.50612 8.8311L4.49388 7.70223ZM6.41944 10.3837L5.92556 10.9481H5.92556L6.41944 10.3837ZM17.5806 10.3837L18.0744 10.9481V10.9481L17.5806 10.3837ZM20.4939 8.8311C20.8056 8.55834 20.8372 8.08452 20.5644 7.77279C20.2917 7.46106 19.8178 7.42947 19.5061 7.70223L20.4939 8.8311ZM8.58724 5.75H15.4128V4.25H8.58724V5.75ZM16.2975 6.29905L18.8728 11.031L20.1903 10.314L17.6151 5.58203L16.2975 6.29905ZM19.25 12.5248V18.0667H20.75V12.5248H19.25ZM19.1111 18.25H18.2222V19.75H19.1111V18.25ZM18.0833 18.0667V17.1333H16.5833V18.0667H18.0833ZM17.3333 16.3833H6.66667V17.8833H17.3333V16.3833ZM5.91667 17.1333V18.0667H7.41667V17.1333H5.91667ZM5.77778 18.25H4.88889V19.75H5.77778V18.25ZM4.75 18.0667V12.5248H3.25V18.0667H4.75ZM5.12723 11.031L7.70246 6.29905L6.38493 5.58203L3.8097 10.314L5.12723 11.031ZM4.75 12.5248C4.75 11.9988 4.88083 11.4838 5.12723 11.031L3.8097 10.314C3.44212 10.9895 3.25 11.7514 3.25 12.5248H4.75ZM4.88889 18.25C4.86267 18.25 4.8327 18.2401 4.80345 18.2094C4.7736 18.178 4.75 18.1292 4.75 18.0667H3.25C3.25 18.9614 3.94969 19.75 4.88889 19.75V18.25ZM5.91667 18.0667C5.91667 18.1292 5.89307 18.178 5.86321 18.2094C5.83397 18.2401 5.80399 18.25 5.77778 18.25V19.75C6.71697 19.75 7.41667 18.9614 7.41667 18.0667H5.91667ZM18.2222 18.25C18.196 18.25 18.166 18.2401 18.1368 18.2094C18.1069 18.178 18.0833 18.1292 18.0833 18.0667H16.5833C16.5833 18.9614 17.283 19.75 18.2222 19.75V18.25ZM19.25 18.0667C19.25 18.1292 19.2264 18.178 19.1965 18.2094C19.1673 18.2401 19.1373 18.25 19.1111 18.25V19.75C20.0503 19.75 20.75 18.9614 20.75 18.0667H19.25ZM18.8728 11.031C19.1192 11.4838 19.25 11.9988 19.25 12.5248H20.75C20.75 11.7514 20.5579 10.9895 20.1903 10.314L18.8728 11.031ZM15.4128 5.75C15.7633 5.75 16.1061 5.94734 16.2975 6.29905L17.6151 5.58203C17.1734 4.77053 16.3382 4.25 15.4128 4.25V5.75ZM8.58724 4.25C7.66182 4.25 6.82657 4.77053 6.38493 5.58203L7.70246 6.29905C7.89387 5.94734 8.23673 5.75 8.58724 5.75V4.25ZM3.50612 8.8311L5.92556 10.9481L6.91331 9.81924L4.49388 7.70223L3.50612 8.8311ZM6.98849 11.35H17.0115V9.85H6.98849V11.35ZM18.0744 10.9481L20.4939 8.8311L19.5061 7.70223L17.0867 9.81924L18.0744 10.9481ZM17.0115 11.35C17.4052 11.35 17.7811 11.2048 18.0744 10.9481L17.0867 9.81924C17.0605 9.84212 17.0337 9.85 17.0115 9.85V11.35ZM5.92556 10.9481C6.2189 11.2048 6.59477 11.35 6.98849 11.35V9.85C6.96632 9.85 6.93947 9.84212 6.91331 9.81924L5.92556 10.9481Z" fill="#1A2E35"/>
<path d="M7.11095 13.1171C6.69673 13.1171 6.36095 13.4528 6.36095 13.8671C6.36095 14.2813 6.69673 14.6171 7.11095 14.6171V13.1171ZM7.11984 14.6171C7.53405 14.6171 7.86984 14.2813 7.86984 13.8671C7.86984 13.4528 7.53405 13.1171 7.11984 13.1171V14.6171ZM16.8887 13.1171C16.4745 13.1171 16.1387 13.4528 16.1387 13.8671C16.1387 14.2813 16.4745 14.6171 16.8887 14.6171V13.1171ZM16.8976 14.6171C17.3118 14.6171 17.6476 14.2813 17.6476 13.8671C17.6476 13.4528 17.3118 13.1171 16.8976 13.1171V14.6171ZM7.11095 14.6171H7.11984V13.1171H7.11095V14.6171ZM6.80539 13.8671C6.80539 13.7455 6.90813 13.5837 7.11095 13.5837V15.0837C7.80468 15.0837 8.30539 14.5041 8.30539 13.8671H6.80539ZM7.11095 13.5837C7.31376 13.5837 7.4165 13.7455 7.4165 13.8671H5.9165C5.9165 14.5041 6.41721 15.0837 7.11095 15.0837V13.5837ZM7.4165 13.8671C7.4165 13.9886 7.31377 14.1504 7.11095 14.1504V12.6504C6.41721 12.6504 5.9165 13.23 5.9165 13.8671H7.4165ZM7.11095 14.1504C6.90813 14.1504 6.80539 13.9886 6.80539 13.8671H8.30539C8.30539 13.23 7.80468 12.6504 7.11095 12.6504V14.1504ZM16.8887 14.6171H16.8976V13.1171H16.8887V14.6171ZM16.5832 13.8671C16.5832 13.7455 16.6859 13.5837 16.8887 13.5837V15.0837C17.5825 15.0837 18.0832 14.5041 18.0832 13.8671H16.5832ZM16.8887 13.5837C17.0915 13.5837 17.1943 13.7455 17.1943 13.8671H15.6943C15.6943 14.5041 16.195 15.0837 16.8887 15.0837V13.5837ZM17.1943 13.8671C17.1943 13.9886 17.0915 14.1504 16.8887 14.1504V12.6504C16.195 12.6504 15.6943 13.23 15.6943 13.8671H17.1943ZM16.8887 14.1504C16.6859 14.1504 16.5832 13.9886 16.5832 13.8671H18.0832C18.0832 13.23 17.5825 12.6504 16.8887 12.6504V14.1504Z" fill="#C8553D"/>
</svg>
