<svg width="24" height="24" viewBox="0 0 24 24" fill="none" xmlns="http://www.w3.org/2000/svg">
<g clip-path="url(#clip0_643_53491)">
<path d="M16 15C18.3304 15.5822 20 17.1533 20 19" stroke="#1A2E35" stroke-width="1.5" stroke-linecap="round" stroke-linejoin="round"/>
<path d="M4 19C4 16.7909 6.46243 15 9.5 15C12.5376 15 15 16.7909 15 19" stroke="#C8553D" stroke-width="1.5" stroke-linecap="round" stroke-linejoin="round"/>
<path d="M15 12C16.6569 12 18 10.433 18 8.5C18 6.567 16.6569 5 15 5" stroke="#1A2E35" stroke-width="1.5" stroke-linecap="round" stroke-linejoin="round"/>
<path d="M9.5 12C11.433 12 13 10.433 13 8.5C13 6.567 11.433 5 9.5 5C7.567 5 6 6.567 6 8.5C6 10.433 7.567 12 9.5 12Z" stroke="#C8553D" stroke-width="1.5" stroke-linecap="round" stroke-linejoin="round"/>
</g>
<defs>
<clipPath id="clip0_643_53491">
<rect width="24" height="24" fill="white"/>
</clipPath>
</defs>
</svg>
