<svg width="24" height="24" viewBox="0 0 24 24" fill="none" xmlns="http://www.w3.org/2000/svg">
<circle cx="12" cy="12" r="9.5" fill="#9CA3AE" stroke="#9CA3AE"/>
<path d="M9.6665 14.9167H14.3332M10.8332 7.91675V11.4167M7.33317 11.4167L7.52656 10.2564C7.66509 9.42521 7.73436 9.0096 7.94176 8.69771C8.12459 8.42279 8.38145 8.20519 8.68269 8.07005C9.02443 7.91675 9.44577 7.91675 10.2885 7.91675H12.2513C12.7992 7.91675 13.0731 7.91675 13.3218 7.99226C13.5419 8.05911 13.7467 8.16871 13.9244 8.31479C14.1252 8.4798 14.2772 8.70773 14.5811 9.16359L16.0832 11.4167M7.09984 14.9167C6.77314 14.9167 6.60979 14.9167 6.48501 14.8532C6.37525 14.7972 6.28601 14.708 6.23008 14.5982C6.1665 14.4735 6.1665 14.3101 6.1665 13.9834V13.2834C6.1665 12.63 6.1665 12.3033 6.29366 12.0538C6.40552 11.8342 6.58399 11.6558 6.80351 11.5439C7.05308 11.4167 7.37978 11.4167 8.03317 11.4167H15.0332C15.4667 11.4167 15.6835 11.4167 15.8649 11.4455C16.8633 11.6036 17.6463 12.3867 17.8044 13.3851C17.8332 13.5664 17.8332 13.7832 17.8332 14.2167C17.8332 14.3251 17.8332 14.3793 17.826 14.4247C17.7865 14.6743 17.5907 14.87 17.3411 14.9096C17.2957 14.9167 17.2416 14.9167 17.1332 14.9167" stroke="white" stroke-linecap="round" stroke-linejoin="round"/>
<path d="M9.66732 14.9167C9.66732 15.561 9.14498 16.0833 8.50065 16.0833C7.85632 16.0833 7.33398 15.561 7.33398 14.9167C7.33398 14.2723 7.85632 13.75 8.50065 13.75C9.14498 13.75 9.66732 14.2723 9.66732 14.9167Z" stroke="white" stroke-linecap="round" stroke-linejoin="round"/>
<path d="M16.8333 14.9167C16.8333 15.561 16.311 16.0833 15.6667 16.0833C15.0223 16.0833 14.5 15.561 14.5 14.9167C14.5 14.2723 15.0223 13.75 15.6667 13.75C16.311 13.75 16.8333 14.2723 16.8333 14.9167Z" stroke="white" stroke-linecap="round" stroke-linejoin="round"/>
</svg>
