<svg width="24" height="24" viewBox="0 0 24 24" fill="none" xmlns="http://www.w3.org/2000/svg">
<g id="towing-vehicle 1">
<g id="Group 7897">
<path id="Vector" d="M7.43565 14.6753C6.95312 14.6753 6.56055 15.0679 6.56055 15.5504C6.56055 16.0329 6.95312 16.4255 7.43565 16.4255C7.91818 16.4255 8.31075 16.0329 8.31075 15.5504C8.31075 15.0679 7.91818 14.6753 7.43565 14.6753ZM7.43565 15.7426C7.32933 15.7426 7.24754 15.6567 7.24754 15.5545C7.24754 15.4482 7.33342 15.3664 7.43565 15.3664C7.54197 15.3664 7.62375 15.4523 7.62375 15.5545C7.62375 15.6567 7.54197 15.7426 7.43565 15.7426ZM15.9536 14.6426C15.4547 14.6426 15.0458 15.0515 15.0458 15.5504C15.0458 16.0534 15.4547 16.4582 15.9536 16.4582C16.4566 16.4582 16.8614 16.0493 16.8614 15.5504C16.8614 15.0515 16.4566 14.6426 15.9536 14.6426ZM15.9536 15.7753C15.8309 15.7753 15.7287 15.6772 15.7287 15.5504C15.7287 15.4277 15.8268 15.3255 15.9536 15.3255C16.0763 15.3255 16.1785 15.4236 16.1785 15.5504C16.1785 15.6731 16.0763 15.7753 15.9536 15.7753Z" fill="#14181F"/>
<g id="Group 7896">
<path id="Vector_2" d="M18.8 7.62554C18.6078 7.29431 18.2521 7.08984 17.8677 7.08984H15.1197C14.5267 7.08984 14.0442 7.57238 14.0442 8.16532V10.7743C14.0442 11.0401 13.8275 11.2609 13.5576 11.2609H7.9553C7.66906 11.2609 7.39508 11.3427 7.15381 11.4899L3.71065 13.3423L3.68612 13.3546C3.45712 13.5018 3.32217 13.7512 3.32626 14.0252L3.33853 15.0557C3.34262 15.481 3.6943 15.8286 4.11958 15.8286H5.15825C5.2932 16.9654 6.26235 17.8487 7.43597 17.8487C8.58505 17.8487 9.53785 16.9981 9.70551 15.8981H13.6844C13.852 17.0022 14.8048 17.8487 15.9539 17.8487C17.1684 17.8487 18.1662 16.9 18.2439 15.7059H19.8428C20.4807 15.7059 21 15.1866 21 14.5487V11.7352C21 11.5308 20.9469 11.3304 20.8446 11.1546L18.8 7.62554ZM7.43597 17.1617C6.5486 17.1617 5.8248 16.4379 5.8248 15.5505C5.8248 14.6632 6.5486 13.9394 7.43597 13.9394C8.32334 13.9394 9.04714 14.6632 9.04714 15.5505C9.04714 16.4379 8.32334 17.1617 7.43597 17.1617ZM15.9539 17.1617C15.0665 17.1617 14.3427 16.4379 14.3427 15.5505C14.3427 14.6632 15.0665 13.9394 15.9539 13.9394C16.8413 13.9394 17.5651 14.6632 17.5651 15.5505C17.5651 16.4379 16.8413 17.1617 15.9539 17.1617ZM20.3171 14.5446C20.3171 14.8063 20.1045 15.0148 19.8469 15.0148H18.1866C17.9454 14.0048 17.0375 13.2564 15.9539 13.2564C14.8048 13.2564 13.852 14.107 13.6844 15.207H9.70551C9.53785 14.1029 8.58505 13.2564 7.43597 13.2564C6.31142 13.2564 5.37089 14.0702 5.1787 15.1416H4.11958C4.06642 15.1416 4.02144 15.0966 4.02144 15.0435L4.00917 14.013C4.00917 13.9802 4.02144 13.9516 4.04597 13.9353L7.48504 12.0869L7.50549 12.0747C7.64043 11.9888 7.79173 11.9438 7.95121 11.9438H13.5535C14.1996 11.9438 14.723 11.4204 14.723 10.7743V8.16532C14.723 7.94859 14.8989 7.77275 15.1156 7.77275H17.8636C18.0026 7.77275 18.1335 7.84636 18.203 7.96903L20.2476 11.494C20.2885 11.5676 20.313 11.6494 20.313 11.7312V14.5446H20.3171Z" fill="#14181F"/>
<path id="Subtract" fill-rule="evenodd" clip-rule="evenodd" d="M4.05956 6.01891C3.89599 5.97393 3.72424 6.01073 3.5852 6.11296C3.44617 6.21928 3.36847 6.37876 3.36847 6.55051V7.15981C3.36847 7.38063 3.49933 7.58101 3.70379 7.66688L12.4671 10.8851C12.5325 10.9138 12.602 10.926 12.6756 10.926H13.2645C13.5671 10.926 13.8165 10.6766 13.8165 10.374V8.74645C13.8165 8.497 13.6489 8.28027 13.4117 8.21484L4.05956 6.01891ZM4.45213 12.1405C4.61979 12.1078 4.71793 12.0097 4.6893 11.7521C4.66068 11.4985 4.40305 11.519 4.40305 11.519C4.39129 11.5198 4.37707 11.521 4.36082 11.5225C4.21326 11.5355 3.89818 11.5633 3.73242 11.4086C3.68335 11.3595 3.61383 11.2736 3.61792 11.0855C3.63018 10.5457 4.03502 10.5007 4.16179 10.5007H4.16588L4.31309 10.5048C4.40714 10.5089 4.48484 10.4312 4.48484 10.3413V8.44793C4.48484 8.35797 4.41123 8.28436 4.32127 8.28436H4.03093C3.94097 8.28436 3.86736 8.35797 3.86736 8.44793V9.7933C3.86736 9.86281 3.82647 9.92824 3.75695 9.95278C3.6261 9.99776 3.47888 10.0755 3.35212 10.1981C3.12721 10.4108 3.00862 10.7052 3.00044 11.0691C2.99226 11.3881 3.09858 11.6621 3.30713 11.8584C3.61433 12.1466 4.04814 12.1429 4.2889 12.1408L4.34172 12.1405C4.38447 12.1436 4.41582 12.1421 4.43577 12.1411H4.43578H4.43579C4.44254 12.1408 4.44799 12.1405 4.45213 12.1405ZM13.1299 10.2396H12.6965L4.05176 7.06634V6.71875L13.1299 8.84925V10.2396Z" fill="#C8553D"/>
<path id="Vector_3" d="M17.8976 8.4685L17.8813 8.44396C17.7545 8.24768 17.5419 8.13318 17.3211 8.13318H17.317L15.9389 8.125C15.6036 8.12909 15.3337 8.41534 15.3296 8.76292L15.2969 11.1715C15.2969 11.5273 15.5709 11.8135 15.9103 11.8135H18.4783C18.8136 11.8135 19.0876 11.5273 19.0876 11.1715V10.8607C19.0876 10.7339 19.0549 10.6154 18.9895 10.509L17.8976 8.4685ZM15.988 11.1265L16.0166 8.80382L17.3047 8.812L18.4006 10.8525L18.4047 11.1224H15.988V11.1265Z" fill="#14181F"/>
</g>
</g>
</g>
</svg>
