<svg width="32" height="32" viewBox="0 0 32 32" fill="none" xmlns="http://www.w3.org/2000/svg">
<g id="wallet 1">
<path id="Vector" fill-rule="evenodd" clip-rule="evenodd" d="M22 7C22 5.343 20.657 4 19 4H4C2.343 4 1 5.343 1 7C1 8 1 9 1 9C1 9.552 1.448 10 2 10H21C21.552 10 22 9.552 22 9V7Z" fill="#493323"/>
<path id="Vector_2" fill-rule="evenodd" clip-rule="evenodd" d="M31 12C31 9.791 29.209 8 27 8H1C1 8 1 18.88 1 24C1 26.209 2.791 28 5 28H27C29.209 28 31 26.209 31 24V12Z" fill="#91684A"/>
<path id="Vector_3" fill-rule="evenodd" clip-rule="evenodd" d="M31.0001 14C28.1771 14.002 26.0071 15.879 26.0071 17.996C26.0071 20.114 28.1771 21.991 31.0001 21.993V14Z" fill="#493323"/>
<path id="Vector_4" fill-rule="evenodd" clip-rule="evenodd" d="M5.00806 25H7.00006C7.55206 25 8.00006 24.552 8.00006 24C8.00006 23.448 7.55206 23 7.00006 23H5.00806C4.45606 23 4.00806 23.448 4.00806 24C4.00806 24.552 4.45606 25 5.00806 25ZM5.00806 22H9.00006C9.55206 22 10.0001 21.552 10.0001 21C10.0001 20.448 9.55206 20 9.00006 20H5.00806C4.45606 20 4.00806 20.448 4.00806 21C4.00806 21.552 4.45606 22 5.00806 22Z" fill="#FFC93C"/>
</g>
</svg>
