<svg width="24" height="24" viewBox="0 0 24 24" fill="none" xmlns="http://www.w3.org/2000/svg">
<path d="M19 9L13 3M19 9H16.2C15.0799 9 14.5198 9 14.092 8.78201C13.7157 8.59027 13.4097 8.28431 13.218 7.90798C13 7.48016 13 6.9201 13 5.8V3M19 9V14M13 3H8.2C7.0799 3 6.51984 3 6.09202 3.21799C5.71569 3.40973 5.40973 3.71569 5.21799 4.09202C5 4.51984 5 5.07989 5 6.2V17.8C5 18.9201 5 19.4802 5.21799 19.908C5.40973 20.2843 5.71569 20.5903 6.09202 20.782C6.51984 21 7.07989 21 8.2 21H13M9 17H13M9 13H15M9 9H10" stroke="#1A2E35" stroke-width="1.5" stroke-linecap="round" stroke-linejoin="round"/>
<path d="M17.5965 22L16 19.3613V18.7395H16.5322C16.745 18.7395 16.9313 18.7115 17.0909 18.6555C17.2565 18.5938 17.3925 18.507 17.4989 18.395C17.6112 18.2829 17.6881 18.1485 17.7295 17.9916H16V17.3697H17.7206C17.6851 17.2241 17.6231 17.0952 17.5344 16.9832C17.4516 16.8711 17.3392 16.7843 17.1973 16.7227C17.0613 16.6555 16.8958 16.6218 16.7007 16.6218H16V16H20V16.6218H18.6075C18.7081 16.7283 18.7908 16.8431 18.8559 16.9664C18.9268 17.0896 18.9741 17.2241 18.9978 17.3697H20V17.9916H19.0155C18.9564 18.4062 18.7879 18.7311 18.51 18.9664C18.2321 19.1961 17.8744 19.3529 17.4368 19.437L19.1752 22H17.5965Z" fill="#C8553D"/>
</svg>
