<svg width="20" height="20" viewBox="0 0 20 20" fill="none" xmlns="http://www.w3.org/2000/svg">
<g id="Basic / Star">
<path id="Vector" d="M12.2792 7.28628L10.3465 3.13634C10.2101 2.84347 9.78987 2.84347 9.65348 3.13634L7.72084 7.28628C7.66525 7.40564 7.55104 7.48783 7.41925 7.5033L2.83714 8.0414C2.51377 8.07937 2.3839 8.47524 2.62298 8.69422L6.01065 11.7971C6.10809 11.8864 6.15171 12.0193 6.12585 12.1483L5.22659 16.6308C5.16313 16.9471 5.50312 17.1918 5.78727 17.0342L9.81361 14.802C9.92942 14.7378 10.0706 14.7378 10.1864 14.802L14.2127 17.0342C14.4969 17.1918 14.8369 16.9471 14.7734 16.6308L13.8742 12.1483C13.8483 12.0193 13.8919 11.8864 13.9894 11.7971L17.377 8.69422C17.6161 8.47524 17.4862 8.07937 17.1629 8.0414L12.5808 7.5033C12.449 7.48783 12.3347 7.40564 12.2792 7.28628Z" fill="#FECC3F"/>
</g>
</svg>
