<svg width="24" height="24" viewBox="0 0 24 24" fill="none" xmlns="http://www.w3.org/2000/svg">
<path d="M16.6992 18.9804H7.29922C6.87922 18.9804 6.40922 18.6504 6.26922 18.2504L2.12922 6.67035C1.53922 5.01035 2.22922 4.50035 3.64922 5.52035L7.54922 8.31035C8.19922 8.76035 8.93922 8.53035 9.21922 7.80035L10.9792 3.11035C11.5392 1.61035 12.4692 1.61035 13.0292 3.11035L14.7892 7.80035C15.0692 8.53035 15.8092 8.76035 16.4492 8.31035L20.1092 5.70035C21.6692 4.58035 22.4192 5.15035 21.7792 6.96035L17.7392 18.2704C17.5892 18.6504 17.1192 18.9804 16.6992 18.9804Z" stroke="white" stroke-width="1.5" stroke-linecap="round" stroke-linejoin="round"/>
<path d="M6.5 22H17.5" stroke="white" stroke-width="1.5" stroke-linecap="round" stroke-linejoin="round"/>
<path d="M9.5 14H14.5" stroke="#FECC3F" stroke-width="1.5" stroke-linecap="round" stroke-linejoin="round"/>
</svg>
