<svg width="24" height="24" viewBox="0 0 24 24" fill="none" xmlns="http://www.w3.org/2000/svg">
<path d="M4 6.94879C4 14.1568 9.84323 20 17.0512 20C17.3764 20 17.6988 19.9881 18.0181 19.9647C18.3844 19.9379 18.5676 19.9245 18.7344 19.8285C18.8725 19.749 19.0035 19.608 19.0727 19.4645C19.1563 19.2912 19.1563 19.089 19.1563 18.6848V16.3126C19.1563 15.9726 19.1563 15.8026 19.1003 15.6569C19.0509 15.5282 18.9706 15.4135 18.8665 15.3231C18.7487 15.2207 18.5889 15.1626 18.2694 15.0464L15.5692 14.0646C15.1975 13.9294 15.0116 13.8618 14.8353 13.8733C14.6798 13.8834 14.5302 13.9365 14.403 14.0266C14.2589 14.1288 14.1571 14.2983 13.9536 14.6375L13.9536 14.6375L13.2622 15.7899C11.0309 14.7794 9.22208 12.9682 8.21007 10.7378L9.36248 10.0464C9.70166 9.8429 9.87125 9.74114 9.97344 9.59697C10.0636 9.46985 10.1166 9.32021 10.1267 9.16471C10.1382 8.98837 10.0706 8.8025 9.93545 8.43078L9.93545 8.43077L8.95356 5.73057C8.83738 5.41107 8.77928 5.25131 8.6769 5.13348C8.58646 5.0294 8.47185 4.94913 8.34313 4.8997C8.1974 4.84375 8.02742 4.84375 7.68745 4.84375H5.31524C4.91096 4.84375 4.70882 4.84375 4.5355 4.92732C4.39196 4.99654 4.25104 5.12752 4.17152 5.26563C4.07551 5.43237 4.0621 5.61556 4.03527 5.98192C4.01189 6.30116 4 6.62358 4 6.94879Z" stroke="white" stroke-width="1.5" stroke-linecap="round" stroke-linejoin="round"/>
<path d="M13.3047 7.36806C14.1271 7.52852 14.8829 7.93074 15.4755 8.52325C16.068 9.11575 16.4702 9.87159 16.6306 10.694M13.3047 4C15.0134 4.18982 16.6067 4.95499 17.8231 6.16988C19.0396 7.38476 19.8067 8.97715 19.9987 10.6856" stroke="#FECC3F" stroke-width="1.5" stroke-linecap="round" stroke-linejoin="round"/>
</svg>
