<svg width="24" height="24" viewBox="0 0 24 24" fill="none" xmlns="http://www.w3.org/2000/svg">
<path d="M3 12.131V14.6009C3 16.8411 3 17.9612 3.43597 18.8169C3.81947 19.5695 4.43139 20.1814 5.18404 20.5649C6.03969 21.0009 7.15979 21.0009 9.4 21.0009H14.6C16.8402 21.0009 17.9603 21.0009 18.816 20.5649C19.5686 20.1814 20.1805 19.5695 20.564 18.8169C21 17.9612 21 16.8411 21 14.6009V12.131C21 10.9823 21 10.408 20.8519 9.87905C20.7208 9.41051 20.5053 8.96983 20.2159 8.57866C19.8893 8.13706 19.436 7.78444 18.5292 7.0792L15.9292 5.05697C14.5239 3.96396 13.8213 3.41745 13.0454 3.20738C12.3608 3.02202 11.6392 3.02202 10.9546 3.20738C10.1787 3.41745 9.47608 3.96396 8.07078 5.05697L5.47078 7.0792C4.56404 7.78444 4.11067 8.13706 3.78405 8.57866C3.49473 8.96983 3.2792 9.41051 3.14805 9.87905C3 10.408 3 10.9823 3 12.131Z" stroke="white" stroke-width="1.5" stroke-linecap="round" stroke-linejoin="round"/>
<path d="M9 17H15" stroke="#FECC3F" stroke-width="1.5" stroke-linecap="round" stroke-linejoin="round"/>
</svg>
