<svg width="24" height="24" viewBox="0 0 24 24" fill="none" xmlns="http://www.w3.org/2000/svg">
<path d="M3.00195 18.7497V6.59992C3.00195 5.33983 3.00195 4.70979 3.24718 4.22849C3.46289 3.80514 3.80709 3.46094 4.23045 3.24523C4.71174 3 5.34178 3 6.60187 3H15.1517C16.4118 3 17.0418 3 17.5231 3.24523C17.9465 3.46094 18.2907 3.80514 18.5064 4.22849C18.7516 4.70979 18.7516 6.99004 18.7516 8.25013" stroke="white" stroke-width="1.5" stroke-linecap="round" stroke-linejoin="round"/>
<path d="M3.00195 18.7499L7.52634 16.5449" stroke="white" stroke-width="1.5" stroke-linecap="round" stroke-linejoin="round"/>
<path d="M7.50195 12.2249C7.50195 10.9648 7.50195 10.3348 7.74718 9.85349C7.96289 9.43014 8.30709 9.08594 8.73045 8.87023C9.21174 8.625 9.84178 8.625 11.1019 8.625H17.4017C18.6618 8.625 19.2919 8.625 19.7732 8.87023C20.1965 9.08594 20.5407 9.43014 20.7564 9.85349C21.0017 10.3348 21.0017 10.9648 21.0017 12.2249V20.9997L18.5336 19.3544C18.1965 19.1297 18.028 19.0173 17.8457 18.9377C17.6838 18.867 17.5142 18.8157 17.3403 18.7847C17.1445 18.7498 16.9419 18.7498 16.5368 18.7498H11.1019C9.84178 18.7498 9.21174 18.7498 8.73045 18.5046C8.30709 18.2888 7.96289 17.9446 7.74718 17.5213C7.50195 17.04 7.50195 16.4099 7.50195 15.1499V12.2249Z" stroke="#FECC3F" stroke-width="1.5" stroke-linecap="round" stroke-linejoin="round"/>
</svg>
