<svg width="24" height="24" viewBox="0 0 24 24" fill="none" xmlns="http://www.w3.org/2000/svg">
<path d="M18.6173 4.69467C16.684 4.10389 14.8143 3.3043 13.0381 2.30871C12.726 2.10687 12.3666 2 12.0001 2C11.6335 2 11.2741 2.10687 10.962 2.30871C9.18597 3.30417 7.31647 4.10376 5.38346 4.69467C4.97172 4.8312 4.61378 5.10532 4.36421 5.47525C4.11463 5.84519 3.98709 6.29064 4.00103 6.74374L4.21891 13.6479C4.70446 17.1165 8.16943 20.0092 10.1922 21.424C10.7272 21.7995 11.3564 22 12.0001 22C12.6437 22 13.2729 21.7995 13.8079 21.424C15.8307 20.0092 19.2956 17.1165 19.7877 13.5693L19.9989 6.74443C20.013 6.29133 19.8857 5.84582 19.6362 5.47577C19.3868 5.10572 19.029 4.83142 18.6173 4.69467ZM18.4748 13.4455C18.0635 16.3846 14.9157 18.9821 13.0756 20.2697C12.7574 20.4934 12.383 20.6129 12.0001 20.6129C11.6171 20.6129 11.2427 20.4934 10.9245 20.2697C9.0844 18.9821 5.93661 16.3841 5.53175 13.5245L5.32047 6.69965C5.31566 6.54928 5.3577 6.40137 5.4402 6.27835C5.5227 6.15533 5.64117 6.06391 5.77762 6.01797C7.81462 5.39377 9.7835 4.54657 11.6518 3.49032C11.7558 3.4206 11.8767 3.38356 12.0001 3.38356C12.1234 3.38356 12.2443 3.4206 12.3483 3.49032C14.2169 4.54652 16.1861 5.39354 18.2234 6.01741C18.3597 6.0635 18.478 6.15497 18.5604 6.27798C18.6428 6.40098 18.6847 6.54882 18.6799 6.6991L18.4748 13.4455Z" fill="white"/>
<path d="M13.2897 11.2338C13.4059 11.0192 13.4684 10.7797 13.4717 10.5356C13.4717 10.1284 13.3099 9.73777 13.0219 9.44978C12.7339 9.16179 12.3433 9 11.936 9C11.5288 9 11.1382 9.16179 10.8502 9.44978C10.5622 9.73777 10.4004 10.1284 10.4004 10.5356C10.4037 10.7797 10.4661 11.0192 10.5824 11.2338C10.6986 11.4484 10.8652 11.6315 11.0678 11.7676V14.1317C11.0678 14.362 11.1592 14.5829 11.3221 14.7457C11.4849 14.9085 11.7058 15 11.936 15C12.1663 15 12.3872 14.9085 12.55 14.7457C12.7128 14.5829 12.8043 14.362 12.8043 14.1317V11.7676C13.0069 11.6315 13.1735 11.4484 13.2897 11.2338Z" fill="#FECC3F"/>
</svg>
