<svg width="24" height="24" viewBox="0 0 24 24" fill="none" xmlns="http://www.w3.org/2000/svg">
<path d="M12.5682 14.517V14.0568C12.5682 13.6875 12.6477 13.3466 12.8068 13.0341C12.9688 12.7216 13.2031 12.4702 13.5099 12.2798C13.8168 12.0895 14.1903 11.9943 14.6307 11.9943C15.0824 11.9943 15.4616 12.0881 15.7685 12.2756C16.0781 12.4631 16.3125 12.7131 16.4716 13.0256C16.6307 13.3381 16.7102 13.6818 16.7102 14.0568V14.517C16.7102 14.8864 16.6293 15.2273 16.4673 15.5398C16.3082 15.8523 16.0739 16.1037 15.7642 16.294C15.4545 16.4844 15.0767 16.5795 14.6307 16.5795C14.1847 16.5795 13.8082 16.4844 13.5014 16.294C13.1946 16.1037 12.9616 15.8523 12.8026 15.5398C12.6463 15.2273 12.5682 14.8864 12.5682 14.517ZM14.0511 14.0568V14.517C14.0511 14.679 14.0909 14.8395 14.1705 14.9986C14.2528 15.1548 14.4062 15.233 14.6307 15.233C14.8665 15.233 15.0213 15.1563 15.0952 15.0028C15.1719 14.8494 15.2102 14.6875 15.2102 14.517V14.0568C15.2102 13.8864 15.1747 13.7216 15.1037 13.5625C15.0327 13.4034 14.875 13.3239 14.6307 13.3239C14.4062 13.3239 14.2528 13.4034 14.1705 13.5625C14.0909 13.7216 14.0511 13.8864 14.0511 14.0568ZM8 9.52273V9.0625C8 8.6875 8.08097 8.34375 8.2429 8.03125C8.40767 7.71875 8.64347 7.46875 8.95028 7.28125C9.2571 7.09375 9.62784 7 10.0625 7C10.5142 7 10.8935 7.09375 11.2003 7.28125C11.5099 7.46875 11.7443 7.71875 11.9034 8.03125C12.0625 8.34375 12.142 8.6875 12.142 9.0625V9.52273C12.142 9.89773 12.0611 10.2401 11.8991 10.5497C11.7401 10.8594 11.5057 11.1065 11.196 11.2912C10.8864 11.4759 10.5085 11.5682 10.0625 11.5682C9.61648 11.5682 9.24006 11.4744 8.93324 11.2869C8.62642 11.0994 8.39347 10.8509 8.23438 10.5412C8.07812 10.2315 8 9.89205 8 9.52273ZM9.5 9.0625V9.52273C9.5 9.69318 9.53977 9.85511 9.61932 10.0085C9.69886 10.1619 9.84659 10.2386 10.0625 10.2386C10.2983 10.2386 10.4531 10.1619 10.527 10.0085C10.6037 9.85511 10.642 9.69318 10.642 9.52273V9.0625C10.642 8.89205 10.6065 8.72727 10.5355 8.56818C10.4645 8.40909 10.3068 8.32955 10.0625 8.32955C9.83807 8.32955 9.6875 8.41193 9.6108 8.5767C9.53693 8.73864 9.5 8.90057 9.5 9.0625ZM8.72443 16.1534L14.7244 7.42614H15.9347L9.93466 16.1534H8.72443Z" fill="#FECC3F"/>
<rect x="4" y="4" width="16" height="16" rx="4" stroke="white" stroke-width="1.5"/>
</svg>
