<svg width="32" height="32" viewBox="0 0 32 32" fill="none" xmlns="http://www.w3.org/2000/svg">
<g clip-path="url(#clip0_1882_2169)">
<path d="M32 0H0V32H32V0Z" fill="#051912"/>
<path d="M16.5398 6.5H7.875V11.1357C7.875 11.6563 8.35769 12.0426 8.86556 11.9284L22.0335 8.97062C22.0785 8.9605 22.0974 8.90675 22.0679 8.87125C20.7255 7.24769 18.4782 6.5 16.5398 6.5Z" fill="white"/>
<path d="M19.5536 18.3041C19.5536 18.3041 23.3586 16.0688 23.2581 12.1508C23.2294 11.0283 22.9079 10.0852 22.3943 9.31077C22.3762 9.28346 22.34 9.27521 22.3117 9.29159L8.93875 17.0003C8.28056 17.3796 7.875 18.0816 7.875 18.8413V25.5248C7.875 25.5248 10.7696 25.5946 11.8307 25.0853C12.2231 24.8969 12.6469 24.3946 12.7097 23.7667C12.7673 23.1907 12.7725 21.3807 12.7725 21.3807C12.7725 19.8738 13.7143 19.4971 14.3422 19.4971C15.2844 19.4971 15.7535 20.6873 16.9165 22.6365C18.0741 24.5766 18.6449 25.5248 20.5286 25.5248H24.125L19.5536 18.3041Z" fill="white"/>
<path d="M15.146 12.5647L18.7937 10.68C18.8292 10.6617 18.8386 10.6152 18.813 10.5845L18.5755 10.2993C18.5594 10.28 18.5333 10.2723 18.5093 10.2795L14.4843 11.4992C14.4446 11.5113 14.4274 11.5581 14.45 11.593L15.0648 12.5431C15.0823 12.5701 15.1173 12.5794 15.146 12.5647Z" fill="white"/>
<path d="M7.96469 15.9379L13.4011 13.3113C13.4343 13.2953 13.4464 13.254 13.4272 13.2225L12.7972 12.1915C12.7826 12.1676 12.7539 12.1564 12.7269 12.164L7.92056 13.5196C7.89362 13.5272 7.875 13.5518 7.875 13.5798V15.8816C7.875 15.9277 7.92319 15.9579 7.96469 15.9379Z" fill="white"/>
</g>
<defs>
<clipPath id="clip0_1882_2169">
<rect width="32" height="32" fill="white"/>
</clipPath>
</defs>
</svg>
