<svg width="36" height="36" viewBox="0 0 36 36" fill="none" xmlns="http://www.w3.org/2000/svg">
<rect width="36" height="36" rx="18" fill="#F5F7F9"/>
<path d="M18.0002 23.2503C21.314 23.2503 24.0003 20.564 24.0003 17.2502C24.0003 13.9364 21.314 11.25 18.0002 11.25C14.6864 11.25 12 13.9364 12 17.2502C12 20.564 14.6864 23.2503 18.0002 23.2503Z" stroke="#1A2E35" stroke-width="1.5" stroke-miterlimit="10" stroke-linecap="round" stroke-linejoin="round"/>
<path d="M18.0039 17.252V14.252" stroke="#1A2E35" stroke-width="1.5" stroke-linecap="round" stroke-linejoin="round"/>
<path d="M16.5 9L19.5001 9" stroke="#1A2E35" stroke-width="1.5" stroke-linecap="round" stroke-linejoin="round"/>
<path d="M26.6731 21.9841V21.6472C26.6731 21.1756 26.6731 20.9398 26.5813 20.7596C26.5005 20.6012 26.3717 20.4723 26.2133 20.3916C26.0331 20.2998 25.7973 20.2998 25.3257 20.2998H24.6519C24.1803 20.2998 23.9445 20.2998 23.7644 20.3916C23.6059 20.4723 23.4771 20.6012 23.3963 20.7596C23.3045 20.9398 23.3045 21.1756 23.3045 21.6472V21.9841M23.7256 25.3526V24.0894M26.252 25.3526V24.0894M21.2107 23.2584C21.3625 23.4038 23.0038 24.9315 24.9888 24.9315C26.9738 24.9315 28.6151 23.4038 28.7669 23.2584M21.2107 23.2584C21.1992 23.4549 21.1992 23.6963 21.1992 24.0052V25.8579C21.1992 26.5653 21.1992 26.919 21.3369 27.1893C21.458 27.4269 21.6512 27.6202 21.8889 27.7413C22.1591 27.879 22.5129 27.879 23.2203 27.879H26.7573C27.4647 27.879 27.8185 27.879 28.0887 27.7413C28.3264 27.6202 28.5196 27.4269 28.6407 27.1893C28.7784 26.919 28.7784 26.5653 28.7784 25.8579V24.0052C28.7784 23.6963 28.7784 23.4549 28.7669 23.2584M21.2107 23.2584C21.2255 23.0048 21.2593 22.826 21.3369 22.6738C21.458 22.4361 21.6512 22.2429 21.8889 22.1217C22.1591 21.9841 22.5129 21.9841 23.2203 21.9841H26.7573C27.4647 21.9841 27.8185 21.9841 28.0887 22.1217C28.3264 22.2429 28.5196 22.4361 28.6407 22.6738C28.7183 22.826 28.7521 23.0048 28.7669 23.2584" stroke="#C8553D" stroke-width="1.2" stroke-linecap="round" stroke-linejoin="round"/>
</svg>
