<svg width="36" height="36" viewBox="0 0 36 36" fill="none" xmlns="http://www.w3.org/2000/svg">
<rect width="36" height="36" rx="18" fill="#F5F7F9"/>
<path d="M10 26L10.0003 22.9997C10.0005 21.3429 11.3436 20 13.0003 20H18M22.5 10C23.7135 10.6802 24.5 11.7707 24.5 13C24.5 14.2293 23.7135 15.3198 22.5 16M20 13C20 14.6569 18.6569 16 17 16C15.3431 16 14 14.6569 14 13C14 11.3431 15.3431 10 17 10C18.6569 10 20 11.3431 20 13Z" stroke="#1A2E35" stroke-width="1.5" stroke-linecap="round" stroke-linejoin="round"/>
<path d="M23.8571 19.25L26 21.25M26 21.25L23.8571 23.25M26 21.25H20.5" stroke="#C8553D" stroke-width="1.5" stroke-linecap="round" stroke-linejoin="round"/>
</svg>
