<svg width="32" height="32" viewBox="0 0 32 32" fill="none" xmlns="http://www.w3.org/2000/svg">
<g id="car-technician 1">
<g id="Group 8022">
<path id="Vector" fill-rule="evenodd" clip-rule="evenodd" d="M9.6448 21.2745L8.15352 19.7832C8.08094 19.7108 7.98943 19.6604 7.88948 19.6376C7.78954 19.6148 7.6852 19.6207 7.58843 19.6545C7.25444 19.7709 6.89441 19.7909 6.5496 19.712C6.2048 19.6332 5.88919 19.4588 5.63897 19.2088C5.30714 18.8779 5.11153 18.4345 5.09078 17.9663L5.24078 18.1157C5.36885 18.2485 5.5221 18.3545 5.69156 18.4274C5.86103 18.5003 6.04332 18.5387 6.2278 18.5403C6.41227 18.542 6.59523 18.5069 6.76599 18.4371C6.93675 18.3672 7.09188 18.2641 7.22233 18.1337C7.35278 18.0032 7.45593 17.8481 7.52575 17.6773C7.59558 17.5066 7.63069 17.3236 7.62902 17.1391C7.62735 16.9546 7.58895 16.7724 7.51605 16.6029C7.44315 16.4334 7.33721 16.2802 7.20442 16.1521L7.05497 16.0026C7.52313 16.0231 7.96656 16.2185 8.29752 16.5503C8.5475 16.8005 8.7219 17.1161 8.80072 17.4609C8.87954 17.8057 8.85959 18.1658 8.74316 18.4997C8.70953 18.5965 8.70381 18.7008 8.72668 18.8006C8.74954 18.9004 8.80005 18.9918 8.87243 19.0643L10.7035 20.8948C10.8064 20.9942 10.9442 21.0492 11.0872 21.0479C11.2302 21.0467 11.367 20.9893 11.4682 20.8882C11.5693 20.7871 11.6267 20.6503 11.6279 20.5072C11.6291 20.3642 11.5742 20.2264 11.4748 20.1236L9.86898 18.5177C9.97624 18.0309 9.95916 17.5248 9.81931 17.0462C9.67946 16.5677 9.42135 16.1321 9.06879 15.7796C8.63984 15.3509 8.09003 15.0636 7.49315 14.9564C6.89627 14.8492 6.28087 14.927 5.72951 15.1796C5.64938 15.216 5.57928 15.2713 5.52525 15.3408C5.47121 15.4103 5.43486 15.4919 5.4193 15.5785C5.40374 15.6652 5.40945 15.7543 5.43593 15.8382C5.46241 15.9222 5.50887 15.9984 5.57133 16.0605L6.43315 16.9228C6.48786 16.979 6.51825 17.0545 6.51776 17.1329C6.51726 17.2113 6.48592 17.2864 6.43051 17.3418C6.3751 17.3973 6.30007 17.4288 6.22166 17.4294C6.14325 17.4299 6.06776 17.3997 6.01151 17.345L5.14969 16.4821C5.08749 16.4199 5.01116 16.3737 4.92722 16.3473C4.84328 16.321 4.75422 16.3154 4.66764 16.3309C4.58105 16.3464 4.4995 16.3827 4.42996 16.4366C4.36041 16.4904 4.30492 16.5603 4.26823 16.6403C4.01557 17.1917 3.93764 17.8072 4.04489 18.4042C4.15214 19.0012 4.43944 19.5511 4.86824 19.9801C5.22075 20.3327 5.65638 20.5908 6.13493 20.7306C6.61348 20.8705 7.11954 20.8876 7.60643 20.7803L8.87243 22.0458C8.9757 22.1427 9.11264 22.1957 9.25429 22.1935C9.39594 22.1913 9.53117 22.1341 9.63138 22.034C9.73159 21.9338 9.78891 21.7986 9.79121 21.657C9.79351 21.5154 9.7417 21.3778 9.6448 21.2745ZM23.1241 22.0458L24.3901 20.7803C24.8772 20.8877 25.3835 20.8706 25.8623 20.7307C26.341 20.5907 26.7768 20.3324 27.1294 19.9796C27.5581 19.5506 27.8453 19.0008 27.9526 18.4039C28.0598 17.8071 27.9819 17.1916 27.7294 16.6403C27.693 16.5601 27.6376 16.4899 27.5681 16.4358C27.4986 16.3817 27.4169 16.3453 27.3302 16.3297C27.2435 16.3141 27.1543 16.3199 27.0703 16.3464C26.9863 16.373 26.91 16.4195 26.8479 16.4821L25.985 17.3439C25.9283 17.3951 25.854 17.4225 25.7776 17.4205C25.7013 17.4186 25.6285 17.3874 25.5745 17.3334C25.5204 17.2794 25.4891 17.2067 25.4871 17.1303C25.485 17.0539 25.5123 16.9797 25.5634 16.9228L26.4258 16.0599C26.4879 15.9977 26.534 15.9214 26.5602 15.8375C26.5865 15.7537 26.5921 15.6647 26.5766 15.5782C26.561 15.4917 26.5248 15.4102 26.471 15.3407C26.4172 15.2712 26.3474 15.2157 26.2676 15.179C25.7162 14.9265 25.1008 14.8486 24.5039 14.9559C23.9071 15.0631 23.3572 15.3503 22.9283 15.779C22.5757 16.1315 22.3176 16.5672 22.1778 17.0457C22.0379 17.5243 22.0208 18.0303 22.1281 18.5172L20.5223 20.123C20.4229 20.2259 20.3679 20.3637 20.3692 20.5067C20.3704 20.6497 20.4278 20.7865 20.5289 20.8877C20.6301 20.9888 20.7669 21.0462 20.9099 21.0474C21.0529 21.0486 21.1907 20.9937 21.2936 20.8943L23.1241 19.0638C23.1966 18.9913 23.2472 18.9 23.2702 18.8001C23.2931 18.7003 23.2875 18.596 23.2539 18.4992C23.1375 18.1652 23.1175 17.8052 23.1964 17.4604C23.2752 17.1156 23.4496 16.8 23.6996 16.5497C24.0305 16.2179 24.4739 16.0223 24.9421 16.0016L24.7921 16.1516C24.6617 16.2802 24.558 16.4334 24.4871 16.6023C24.4161 16.7711 24.3792 16.9524 24.3786 17.1356C24.378 17.3188 24.4137 17.5003 24.4835 17.6696C24.5533 17.839 24.656 17.9928 24.7855 18.1224C24.9151 18.2519 25.069 18.3545 25.2383 18.4243C25.4077 18.494 25.5892 18.5296 25.7724 18.529C25.9556 18.5283 26.1368 18.4914 26.3057 18.4204C26.4746 18.3494 26.6277 18.2457 26.7563 18.1152L26.9058 17.9663C26.8852 18.4343 26.6898 18.8775 26.3581 19.2083C26.1079 19.4583 25.7923 19.6327 25.4475 19.7115C25.1027 19.7903 24.7426 19.7704 24.4087 19.6539C24.3119 19.6204 24.2076 19.6147 24.1077 19.6377C24.0079 19.6607 23.9165 19.7113 23.8441 19.7838L22.3539 21.2745C22.257 21.3778 22.204 21.5147 22.2062 21.6563C22.2084 21.798 22.2656 21.9332 22.3657 22.0334C22.4658 22.1336 22.601 22.191 22.7427 22.1933C22.8843 22.1956 23.0208 22.1427 23.1241 22.0458Z" fill="#C8553D"/>
<path id="Vector_2" d="M22.5464 14.4018L22.5463 14.4018L22.5419 14.4019C22.5382 14.402 22.5331 14.402 22.5266 14.4018C22.5139 14.4014 22.496 14.4003 22.473 14.3972L22.4665 14.3968L22.4575 14.3962L22.4577 14.3954L22.4536 14.3944L22.4485 14.3936L22.4474 14.3935L22.4474 14.3935C18.1783 13.682 13.8209 13.682 9.5518 14.3935C9.52037 14.3987 9.49602 14.4008 9.47903 14.4016C9.47054 14.402 9.4639 14.402 9.45914 14.402L9.45343 14.4018L9.45164 14.4017L9.45101 14.4017L9.45076 14.4017L9.45066 14.4017L9.45061 14.4017L9.45059 14.4017L9.45413 14.3518V14.4018C9.24525 14.4018 9.05052 14.2923 8.94323 14.1124C8.89023 14.0243 8.861 13.9239 8.85839 13.8211C8.85579 13.7183 8.8799 13.6166 8.92838 13.5259L8.92837 13.5259L8.97249 13.5494L8.92839 13.5258L22.5464 14.4018ZM22.5464 14.4018C22.7543 14.4013 22.9483 14.2919 23.0554 14.1124M22.5464 14.4018L23.0262 13.5494L23.0703 13.5258C23.1188 13.6165 23.1429 13.7183 23.1403 13.8211C23.1377 13.9239 23.1084 14.0243 23.0554 14.1124M10.4709 10.8466L10.4688 10.8504C10.4309 10.8568 10.4126 10.8496 10.4271 10.8223L10.3935 10.8854C10.3897 10.8821 10.3861 10.8781 10.3829 10.8734C10.3626 10.8436 10.3759 10.8122 10.383 10.7988L10.3831 10.7986L10.4272 10.8221L10.4711 10.8456M10.4709 10.8466C10.4706 10.8473 10.4704 10.8478 10.4703 10.8478C10.4703 10.8478 10.4705 10.8472 10.4712 10.8458L10.4709 10.8466ZM10.4709 10.8466C10.4709 10.8463 10.471 10.846 10.4711 10.8456M10.4711 10.8456L10.4713 10.8457L10.4713 10.8457L10.4712 10.8456C10.4712 10.8456 10.4712 10.8456 10.4711 10.8456ZM10.9767 10.5583C10.9799 10.565 10.9845 10.5692 10.9876 10.5712C10.9891 10.5722 10.9901 10.5726 10.9901 10.5726C10.9901 10.5727 10.9862 10.5714 10.9757 10.571C10.9649 10.5705 10.9508 10.571 10.9329 10.5728C10.9335 10.5724 10.934 10.572 10.9345 10.5716C10.9373 10.5695 10.9399 10.5674 10.9424 10.5654M10.9767 10.5583C10.9919 10.5551 11.0072 10.552 11.0224 10.5488C11.0308 10.5168 10.9711 10.5078 10.7943 10.5456M10.9767 10.5583C10.9762 10.5573 10.9757 10.5562 10.9753 10.5551C10.9722 10.5466 10.9732 10.5395 10.9741 10.5362C10.9745 10.5347 10.9748 10.5339 10.9748 10.5339C10.9747 10.5339 10.9732 10.5368 10.9676 10.5427C10.9617 10.549 10.9534 10.5566 10.9424 10.5654M10.9767 10.5583C10.9653 10.5606 10.9539 10.563 10.9424 10.5654M10.7943 10.5456C10.8791 10.5274 10.964 10.5097 11.049 10.4924C11.047 10.4907 11.0449 10.4892 11.0428 10.4878C11.0238 10.4752 11 10.4719 10.9799 10.4711C10.9372 10.4693 10.8728 10.4777 10.7839 10.4967L10.7943 10.5456ZM10.7943 10.5456L10.8048 10.5945C10.8507 10.5846 10.8965 10.5749 10.9424 10.5654M21.5409 10.87C21.5408 10.8713 21.5407 10.8726 21.5406 10.8739L21.4683 10.9934C21.4816 10.9473 21.4899 10.902 21.4913 10.8589L21.5292 10.7962L21.5368 10.7837C21.5378 10.7899 21.5386 10.7961 21.5393 10.8023C21.5406 10.8143 21.5413 10.8263 21.5415 10.8384M21.5409 10.87L21.5419 10.8719L21.572 10.8221M21.5409 10.87C21.5414 10.8595 21.5416 10.8489 21.5415 10.8384M21.5409 10.87L21.5279 10.8457L21.5415 10.8384M21.572 10.8221L21.5994 10.8735L21.6148 10.848L21.572 10.8221ZM21.572 10.8221L21.5415 10.8384M23.0554 14.1124C23.0554 14.1124 23.0554 14.1124 23.0554 14.1125L23.0125 14.0867L23.0555 14.1123C23.0555 14.1123 23.0554 14.1124 23.0554 14.1124ZM11.303 11.6055C14.4025 10.9788 17.5961 10.9788 20.6957 11.6055L21.461 13.0403C17.8367 12.5454 14.1619 12.5454 10.5376 13.0403L11.303 11.6055Z" fill="#1A2E35" stroke="#1A2E35" stroke-width="0.1"/>
<path id="Vector_3" d="M12.2508 5.88946L12.2861 5.92483C12.7885 5.42297 13.4695 5.14102 14.1795 5.14091C14.1795 5.14091 14.1795 5.14091 14.1795 5.14091H17.8161C18.5261 5.14091 19.2071 5.42298 19.7092 5.92507C20.2113 6.42716 20.4934 7.10813 20.4934 7.81819V10.3551C17.5206 9.81532 14.475 9.81532 11.5022 10.3551V7.81819C11.5022 7.10818 11.7844 6.42707 12.2862 5.9248L12.2508 5.88946ZM12.2508 5.88946C11.7397 6.4011 11.4522 7.09492 11.4522 7.81819V10.3643L14.1795 5.09091C13.4562 5.09102 12.7625 5.37823 12.2508 5.88946ZM11.0265 11.6632L11.0266 11.6635L11.0317 11.6624C14.3055 10.9668 17.689 10.9668 20.9628 11.6624L20.9634 11.6625L20.9688 11.6636L20.9688 11.6636L20.9697 11.6638L20.981 11.6658C20.9811 11.6658 20.9812 11.6659 20.9813 11.6659C21.0157 11.6726 21.0427 11.6751 21.0618 11.6758C21.0714 11.6761 21.0789 11.6761 21.0844 11.6758L21.091 11.6755L21.091 11.6755C21.2481 11.6749 21.3987 11.6122 21.5099 11.5011C21.6215 11.3894 21.6843 11.2379 21.6843 11.08V7.81819C21.6843 6.79229 21.2767 5.80839 20.5513 5.08297C19.8259 4.35754 18.842 3.95 17.8161 3.95L14.1795 3.95L14.1795 3.95C13.1537 3.95029 12.17 4.35793 11.4446 5.08329C10.7193 5.80865 10.3116 6.79236 10.3113 7.81818V7.81819V11.0806C10.3113 11.2385 10.3741 11.3899 10.4857 11.5016C10.5974 11.6133 10.7489 11.676 10.9068 11.676H10.9568V11.6705L11.0265 11.6632ZM20.3117 13.6851V13.8193C20.3119 14.3857 20.2004 14.9466 19.9838 15.47C19.7671 15.9933 19.4495 16.4689 19.049 16.8695C18.6485 17.27 18.1731 17.5878 17.6498 17.8046C17.1265 18.0214 16.5656 18.133 15.9992 18.133H15.9981C14.8539 18.1327 13.7567 17.678 12.9478 16.8688C12.1389 16.0597 11.6844 14.9624 11.6844 13.8182V13.6846C11.6844 13.6112 11.6647 13.5484 11.6285 13.4966C11.5926 13.4453 11.5423 13.4076 11.4851 13.381C11.3716 13.3282 11.2253 13.3162 11.0842 13.3297C10.9425 13.3433 10.7996 13.3832 10.6906 13.4407C10.6362 13.4694 10.5881 13.5036 10.553 13.543C10.5179 13.5825 10.4935 13.63 10.4935 13.6835V13.8182C10.4935 15.2781 11.0735 16.6782 12.1058 17.7105C13.1381 18.7428 14.5382 19.3228 15.9981 19.3228H15.9992C19.0382 19.3228 21.5026 16.8589 21.5026 13.8188V13.6846C21.5026 13.6112 21.4829 13.5484 21.4467 13.4966C21.4108 13.4453 21.3605 13.4076 21.3033 13.381C21.1898 13.3282 21.0435 13.3162 20.9024 13.3297C20.7607 13.3433 20.6178 13.3832 20.5088 13.4407C20.4544 13.4694 20.4063 13.5036 20.3713 13.543C20.3361 13.5825 20.3117 13.63 20.3117 13.6835V13.6846V13.6851Z" fill="#1A2E35" stroke="#1A2E35" stroke-width="0.1"/>
<path id="Vector_4" d="M13.7684 18.4545V19.8192L15.9991 21.9999V22.0499H15.9991H16.0007C16.5926 22.0499 17.1603 21.8148 17.5789 21.3962C17.9974 20.9777 18.2326 20.41 18.2326 19.8181V18.4545C18.2326 18.2965 18.1698 18.1451 18.0582 18.0334C17.9465 17.9217 17.795 17.859 17.6371 17.859C17.4792 17.859 17.3277 17.9217 17.216 18.0334C17.1044 18.1451 17.0416 18.2965 17.0416 18.4545V19.8181C17.0416 20.0942 16.932 20.3589 16.7368 20.5541C16.5416 20.7493 16.2768 20.859 16.0007 20.859H15.9992C15.7236 20.8585 15.4595 20.7487 15.2647 20.5538C15.0699 20.3589 14.9602 20.0947 14.9598 19.8191V18.4545C14.9598 18.2965 14.8971 18.1451 14.7854 18.0334C14.6737 17.9217 14.5223 17.859 14.3644 17.859C14.2064 17.859 14.055 17.9217 13.9433 18.0334C13.8317 18.145 13.7684 18.2964 13.7684 18.4545Z" fill="#1A2E35" stroke="#1A2E35" stroke-width="0.1"/>
<path id="Vector_5" d="M23.5999 27.5883L23.6486 27.5771L23.5999 27.5884C23.6175 27.6646 23.6499 27.7366 23.6953 27.8003C23.7408 27.864 23.7983 27.9181 23.8647 27.9596C23.931 28.0011 24.0049 28.0291 24.082 28.042C24.1592 28.0549 24.2382 28.0525 24.3144 28.0349C24.3906 28.0173 24.4627 27.9849 24.5264 27.9395C24.5901 27.894 24.6442 27.8365 24.6857 27.7702C24.7271 27.7038 24.7551 27.6299 24.768 27.5528C24.781 27.4756 24.7786 27.3966 24.761 27.3204L23.7099 22.7664C23.5133 21.9141 23.0336 21.1536 22.3491 20.609C21.6647 20.0645 20.8158 19.768 19.9411 19.768H17.6349C17.477 19.768 17.3256 19.8307 17.2139 19.9424C17.1022 20.0541 17.0395 20.2055 17.0395 20.3634C17.0395 20.5214 17.1022 20.6728 17.2139 20.7845C17.3256 20.8962 17.477 20.9589 17.6349 20.9589H19.9406C20.546 20.9589 21.1336 21.1641 21.6074 21.5411C22.0812 21.918 22.4132 22.4444 22.5493 23.0343L23.5999 27.5883ZM7.23674 27.3204L7.28546 27.3317L7.23674 27.3204C7.20121 27.4744 7.2283 27.6362 7.31205 27.7702C7.3958 27.9041 7.52934 27.9994 7.68331 28.0349C7.83728 28.0705 7.99906 28.0434 8.13306 27.9596C8.26705 27.8759 8.36229 27.7423 8.39782 27.5884L8.39782 27.5883L9.44783 23.0343C9.58393 22.4444 9.91597 21.918 10.3898 21.5411C10.8636 21.1641 11.4511 20.9589 12.0566 20.9589H14.3622C14.5201 20.9589 14.6716 20.8962 14.7833 20.7845C14.8949 20.6728 14.9577 20.5214 14.9577 20.3634C14.9577 20.2055 14.8949 20.0541 14.7833 19.9424C14.6716 19.8307 14.5201 19.768 14.3622 19.768H12.0566C11.1819 19.768 10.333 20.0645 9.64857 20.609C8.96409 21.1536 8.48442 21.9141 8.28784 22.7664C8.28784 22.7664 8.28784 22.7664 8.28784 22.7664L7.23674 27.3204Z" fill="#1A2E35" stroke="#1A2E35" stroke-width="0.1"/>
<path id="Vector_6" d="M15.4031 21.4543V27.4544C15.4031 27.6123 15.4659 27.7637 15.5775 27.8754C15.6892 27.9871 15.8407 28.0498 15.9986 28.0498C16.1565 28.0498 16.308 27.9871 16.4196 27.8754C16.5313 27.7637 16.594 27.6123 16.594 27.4544V21.4543C16.594 21.2964 16.5313 21.1449 16.4196 21.0333C16.308 20.9216 16.1565 20.8589 15.9986 20.8589C15.8407 20.8589 15.6892 20.9216 15.5775 21.0333C15.4659 21.1449 15.4031 21.2964 15.4031 21.4543Z" fill="#1A2E35" stroke="#1A2E35" stroke-width="0.1"/>
</g>
</g>
</svg>
