<svg width="24" height="24" viewBox="0 0 24 24" fill="none" xmlns="http://www.w3.org/2000/svg">
<path d="M9 18C9 19.656 7.656 21 6 21C4.344 21 3 19.656 3 18C3 16.344 4.344 15 6 15C7.656 15 9 16.344 9 18ZM4.2 18C4.2 18.992 5.008 19.8 6 19.8C6.992 19.8 7.8 18.992 7.8 18C7.8 17.008 6.992 16.2 6 16.2C5.008 16.2 4.2 17.008 4.2 18Z" fill="#1A2E35"/>
<path d="M12 8V13L7.5 16.15" stroke="#1A2E35" stroke-width="1.5"/>
<path d="M11.9992 8V13L16.4355 16.1054" stroke="#1A2E35" stroke-width="1.5"/>
<path d="M21 18C21 19.656 19.656 21 18 21C16.344 21 15 19.656 15 18C15 16.344 16.344 15 18 15C19.656 15 21 16.344 21 18ZM16.2 18C16.2 18.992 17.008 19.8 18 19.8C18.992 19.8 19.8 18.992 19.8 18C19.8 17.008 18.992 16.2 18 16.2C17.008 16.2 16.2 17.008 16.2 18Z" fill="#1A2E35"/>
<path d="M15 6C15 7.656 13.656 9 12 9C10.344 9 9 7.656 9 6C9 4.344 10.344 3 12 3C13.656 3 15 4.344 15 6ZM10.2 6C10.2 6.992 11.008 7.8 12 7.8C12.992 7.8 13.8 6.992 13.8 6C13.8 5.008 12.992 4.2 12 4.2C11.008 4.2 10.2 5.008 10.2 6Z" fill="#C8553D"/>
</svg>
