<svg width="36" height="36" viewBox="0 0 36 36" fill="none" xmlns="http://www.w3.org/2000/svg">
<rect width="36" height="36" rx="18" fill="#F5F7F9"/>
<path d="M14 11.0001C13.0116 11.0008 12.4936 11.0134 12.092 11.218C11.7157 11.4097 11.4097 11.7157 11.218 12.092C11 12.5198 11 13.0799 11 14.2V23.8C11 24.9201 11 25.4802 11.218 25.908C11.4097 26.2843 11.7157 26.5903 12.092 26.782C12.5198 27 13.0799 27 14.2 27H21.8C22.9201 27 23.4802 27 23.908 26.782C24.2843 26.5903 24.5903 26.2843 24.782 25.908C25 25.4802 25 24.9201 25 23.8V14.2C25 13.0799 25 12.5198 24.782 12.092C24.5903 11.7157 24.2843 11.4097 23.908 11.218C23.5064 11.0134 22.9884 11.0008 22 11.0001M14 11.0001V13H22V11.0001M14 11.0001V10.7071C14 10.2544 14.1799 9.82014 14.5 9.5C14.8201 9.17986 15.2544 9 15.7071 9H20.2929C20.7456 9 21.1799 9.17986 21.5 9.5C21.8201 9.82014 22 10.2544 22 10.7071V11.0001" stroke="#1A2E35" stroke-width="1.5" stroke-linecap="round" stroke-linejoin="round"/>
<path d="M22 17H20M22 22H20M14 17L15 18L17 16M14 22L15 23L17 21" stroke="#C8553D" stroke-width="1.5" stroke-linecap="round" stroke-linejoin="round"/>
</svg>
