<svg width="32" height="32" viewBox="0 0 32 32" fill="none" xmlns="http://www.w3.org/2000/svg">
<g id="location 1">
<g id="Group">
<path id="Vector" opacity="0.97" d="M17.5376 14.3543C17.381 14.3617 17.232 14.4236 17.1163 14.5293C17.0006 14.635 16.9254 14.7778 16.9038 14.933C16.8823 15.0882 16.9156 15.2462 16.9982 15.3794C17.0807 15.5126 17.2072 15.6127 17.3557 15.6625C17.9036 15.8554 18.2648 16.1393 18.4306 16.38C18.5964 16.6208 18.6137 16.7779 18.5117 17.0113C18.309 17.4757 17.2587 18.0972 15.932 18.112C14.6066 18.1267 13.5034 17.5273 13.2627 17.0494C13.1423 16.8099 13.1521 16.6564 13.2995 16.4205C13.4445 16.1847 13.7786 15.8997 14.3105 15.6958C14.3966 15.6672 14.476 15.6213 14.5439 15.5611C14.6118 15.501 14.6669 15.4278 14.7057 15.3458C14.7445 15.2638 14.7664 15.1748 14.7699 15.0841C14.7734 14.9935 14.7585 14.9032 14.7262 14.8184C14.6938 14.7337 14.6446 14.6563 14.5815 14.5911C14.5185 14.5259 14.4429 14.4741 14.3593 14.4389C14.2757 14.4037 14.1858 14.3858 14.0951 14.3862C14.0043 14.3867 13.9147 14.4055 13.8314 14.4416C13.0944 14.7241 12.5072 15.1467 12.1559 15.7154C11.9772 16.004 11.8747 16.3333 11.8579 16.6723C11.8412 17.0113 11.9107 17.3491 12.06 17.6539C12.689 18.9044 14.2638 19.4743 15.9467 19.4559C17.6297 19.4374 19.1861 18.8294 19.745 17.5482C19.8758 17.2348 19.9252 16.8934 19.8887 16.5558C19.8522 16.2182 19.7309 15.8953 19.5362 15.6171C19.1554 15.0655 18.5522 14.6589 17.8017 14.396C17.7172 14.3649 17.6274 14.35 17.5376 14.3543Z" fill="#1A2E35"/>
<path id="Vector_2" d="M15.8787 4C12.9293 4 10.502 6.33399 10.502 9.22077C10.502 10.0586 10.8508 10.9036 11.3176 11.7758C11.7844 12.648 12.3863 13.5336 12.9883 14.3382C13.7401 15.3393 14.5404 16.3032 15.3861 17.2263C15.449 17.2939 15.5252 17.3478 15.6098 17.3847C15.6945 17.4215 15.7858 17.4406 15.8781 17.4406C15.9705 17.4406 16.0618 17.4215 16.1464 17.3847C16.2311 17.3478 16.3072 17.2939 16.3701 17.2263C16.3701 17.2263 17.5678 15.945 18.7692 14.3382C19.3711 13.5336 19.9755 12.648 20.4423 11.7758C20.9079 10.9036 21.2555 10.0586 21.2555 9.22077C21.2555 6.33399 18.8282 4 15.8787 4ZM15.8787 5.34253C18.1255 5.34253 19.9116 7.08455 19.9116 9.22077C19.9116 9.63843 19.6721 10.3632 19.2569 11.142C18.8404 11.9208 18.268 12.7647 17.6919 13.5337C16.7878 14.7449 16.2251 15.3358 15.8787 15.7178C15.5323 15.3358 14.9697 14.7449 14.0644 13.5337C13.4895 12.7647 12.9182 11.9208 12.503 11.142C12.0866 10.3632 11.8471 9.63843 11.8471 9.22077C11.8471 7.08333 13.632 5.34253 15.8787 5.34253Z" fill="#FECC3F"/>
<path id="Vector_3" d="M15.8779 7.03162C14.7723 7.03162 13.8633 7.94186 13.8633 9.04744C13.8633 10.153 14.7723 11.0621 15.8779 11.0621C16.9835 11.0621 17.8949 10.153 17.8949 9.04744C17.8949 7.94186 16.9835 7.03297 15.8779 7.03297V7.03162ZM15.8779 8.3755C16.2562 8.3755 16.5498 8.66786 16.5498 9.04744C16.5512 9.13604 16.5347 9.22413 16.5014 9.30626C16.4681 9.38838 16.4186 9.46298 16.356 9.52564C16.2933 9.5883 16.2187 9.63764 16.1366 9.67094C16.0545 9.70424 15.9665 9.72085 15.8779 9.71953C15.7893 9.72085 15.7013 9.70424 15.6192 9.67094C15.5371 9.63764 15.4625 9.5883 15.3998 9.52564C15.3371 9.46298 15.2877 9.38838 15.2544 9.30626C15.2211 9.22413 15.2046 9.13604 15.2059 9.04744C15.2059 8.66786 15.4983 8.3755 15.8779 8.3755Z" fill="#FECC3F"/>
<path id="Vector_4" fill-rule="evenodd" clip-rule="evenodd" d="M7.28125 10.4625L8.77379 12.6982L9.89163 11.9526L8.39911 9.7168L7.28125 10.4625ZM9.51943 13.8161L9.942 14.4535L10.0612 14.633L10.2651 14.709L12.0672 15.3835L12.5377 14.1256L10.9407 13.5262L10.6373 13.0704L9.51943 13.8161ZM19.4598 18.1572L20.741 18.6401L21.0113 19.3144L22.2593 18.8145L21.8785 17.8624L21.768 17.586L21.4891 17.4829L19.9315 16.8982L19.4598 18.1572ZM21.5112 20.5613L22.5087 23.0562L23.7568 22.5574L22.7581 20.0625L21.5112 20.5613ZM23.0074 24.3042L23.317 25.0819L23.4226 25.346L23.6843 25.4541L25.3918 26.1641L25.9077 24.9234L24.4619 24.3239L24.2555 23.8055L23.0074 24.3042Z" fill="#1A2E35"/>
<path id="Vector_5" d="M26.9951 23.9781C25.8895 23.9781 24.9805 24.8895 24.9805 25.9951C24.9805 27.1007 25.8895 28.0097 26.9951 28.0097C28.1006 28.0097 29.0134 27.1007 29.0134 25.9951C29.0134 24.8895 28.1006 23.9781 26.9951 23.9781ZM26.9951 25.3232C27.0838 25.3217 27.172 25.3379 27.2543 25.3712C27.3367 25.4044 27.4115 25.4538 27.4744 25.5165C27.5373 25.5791 27.5869 25.6538 27.6205 25.736C27.654 25.8182 27.6706 25.9063 27.6695 25.9951C27.6706 26.0839 27.654 26.172 27.6205 26.2542C27.5869 26.3364 27.5373 26.4111 27.4744 26.4738C27.4115 26.5364 27.3367 26.5857 27.2543 26.6189C27.172 26.6521 27.0838 26.6685 26.9951 26.667C26.9065 26.6684 26.8185 26.6519 26.7364 26.6186C26.6542 26.5853 26.5796 26.5358 26.517 26.4732C26.4543 26.4105 26.4049 26.3359 26.3716 26.2538C26.3383 26.1717 26.3218 26.0837 26.3231 25.9951C26.3231 25.6168 26.6155 25.3232 26.9951 25.3232Z" fill="#1A2E35"/>
<path id="Vector_6" d="M7.01828 7C5.9127 7 5 7.90905 5 9.01462C5 10.1202 5.9127 11.0304 7.01828 11.0304C8.12385 11.0304 9.03288 10.1215 9.03288 9.01597C9.03288 7.9104 8.12385 7.00135 7.01828 7.00135V7ZM7.01828 8.34403C7.39663 8.34403 7.69024 8.63639 7.69024 9.01597C7.69156 9.10458 7.67508 9.19252 7.64178 9.27464C7.60848 9.35676 7.55903 9.43136 7.49636 9.49402C7.4337 9.55668 7.35911 9.60603 7.27698 9.63933C7.19486 9.67263 7.10688 9.68924 7.01828 9.68791C6.92967 9.68924 6.84171 9.67263 6.75959 9.63933C6.67747 9.60603 6.60285 9.55668 6.54019 9.49402C6.47753 9.43136 6.42809 9.35676 6.39479 9.27464C6.36149 9.19252 6.34501 9.10458 6.34634 9.01597C6.34634 8.63639 6.6387 8.34403 7.01828 8.34403Z" fill="#FECC3F"/>
</g>
</g>
</svg>
