<svg width="24" height="24" viewBox="0 0 24 24" fill="none" xmlns="http://www.w3.org/2000/svg">
<g id="mail">
<g id="Icon">
<path d="M2 9.48572C2 7.56553 2 6.60544 2.36331 5.87203C2.68289 5.22691 3.19282 4.7024 3.82003 4.37369C4.53307 4 5.46649 4 7.33333 4H16.6667C18.5335 4 19.4669 4 20.18 4.37369C20.8072 4.7024 21.3171 5.22691 21.6367 5.87203C22 6.60544 22 7.56553 22 9.48571V14.5143C22 16.4345 22 17.3946 21.6367 18.128C21.3171 18.7731 20.8072 19.2976 20.18 19.6263C19.4669 20 18.5335 20 16.6667 20H7.33333C5.46649 20 4.53307 20 3.82003 19.6263C3.19282 19.2976 2.68289 18.7731 2.36331 18.128C2 17.3946 2 16.4345 2 14.5143V9.48572Z" fill="#9CA3AE"/>
<path d="M2.03198 7.42857L8.09284 11.5943C9.51579 12.5672 10.2273 13.0536 10.996 13.2426C11.6753 13.4097 12.3834 13.4097 13.0628 13.2426C13.8315 13.0536 14.5429 12.5672 15.9659 11.5943L21.9706 7.47435M7.33333 20H16.6667C18.5335 20 19.4669 20 20.18 19.6263C20.8072 19.2976 21.3171 18.7731 21.6367 18.128C22 17.3946 22 16.4345 22 14.5143V9.48571C22 7.56553 22 6.60544 21.6367 5.87203C21.3171 5.22691 20.8072 4.7024 20.18 4.37369C19.4669 4 18.5335 4 16.6667 4H7.33333C5.46649 4 4.53307 4 3.82003 4.37369C3.19282 4.7024 2.68289 5.22691 2.36331 5.87203C2 6.60544 2 7.56553 2 9.48572V14.5143C2 16.4345 2 17.3946 2.36331 18.128C2.68289 18.7731 3.19282 19.2976 3.82003 19.6263C4.53307 20 5.46649 20 7.33333 20Z" stroke="white" stroke-width="1.5" stroke-linecap="round" stroke-linejoin="round"/>
</g>
</g>
</svg>
