<svg width="24" height="24" viewBox="0 0 24 24" fill="none" xmlns="http://www.w3.org/2000/svg">
<g id="phone-call-alt-1">
<g id="Icon">
<path d="M5.13641 12.7655C3.75981 10.2652 3 7.29617 3 4.00149L4.96733 3.50959C5.68758 3.32953 6.0477 3.23949 6.37009 3.30003C6.65417 3.35337 6.91678 3.48764 7.12635 3.68671C7.36417 3.91262 7.50204 4.25728 7.77776 4.94659L8.48846 6.72333C8.67477 7.18912 8.76793 7.42202 8.784 7.65774C8.79821 7.86633 8.76867 8.07558 8.69726 8.27207C8.61655 8.49413 8.46255 8.69214 8.15456 9.08813L5.13641 12.7655C6.66848 15.5482 8.96452 17.7504 11.8274 19.1748L14.8807 16.1205L14.8807 16.1205C15.2854 15.7158 15.4877 15.5135 15.728 15.4016C15.9404 15.3028 16.1729 15.2551 16.4071 15.2623C16.672 15.2704 16.9377 15.3767 17.4691 15.5892L19.0546 16.2234C19.7439 16.4992 20.0886 16.637 20.3145 16.8749C20.5136 17.0844 20.6478 17.347 20.7012 17.6311C20.7617 17.9535 20.6717 18.3136 20.4916 19.0339L20 21.0015C16.9614 21.0015 14.1997 20.3552 11.8274 19.1748C8.96452 17.7504 6.66848 15.5482 5.13641 12.7655Z" fill="#9CA3AE"/>
<path d="M5.13641 12.7655L8.15456 9.08813C8.46255 8.69214 8.61655 8.49413 8.69726 8.27207C8.76867 8.07558 8.79821 7.86633 8.784 7.65774C8.76793 7.42202 8.67477 7.18912 8.48846 6.72333L7.77776 4.94659C7.50204 4.25728 7.36417 3.91262 7.12635 3.68671C6.91678 3.48764 6.65417 3.35337 6.37009 3.30003C6.0477 3.23949 5.68758 3.32953 4.96733 3.50959L3 4.00149C3 14.0015 9.99969 21.0015 20 21.0015L20.4916 19.0339C20.6717 18.3136 20.7617 17.9535 20.7012 17.6311C20.6478 17.347 20.5136 17.0844 20.3145 16.8749C20.0886 16.637 19.7439 16.4992 19.0546 16.2234L17.4691 15.5892C16.9377 15.3767 16.672 15.2704 16.4071 15.2623C16.1729 15.2551 15.9404 15.3028 15.728 15.4016C15.4877 15.5135 15.2854 15.7158 14.8807 16.1205L11.8274 19.1748" stroke="#9CA3AE" stroke-width="2" stroke-linecap="round" stroke-linejoin="round"/>
</g>
</g>
</svg>
