<svg width="36" height="36" viewBox="0 0 36 36" fill="none" xmlns="http://www.w3.org/2000/svg">
<rect width="36" height="36" rx="18" fill="#F5F7F9"/>
<path d="M22 26.9996H24.5M23 26.9996H13.8C12.1198 26.9996 11.2798 26.9996 10.638 26.6726C10.0735 26.385 9.6146 25.9261 9.32698 25.3616C9 24.7199 9 23.8798 9 22.1996V11.7567C9 10.8513 9 10.3986 9.1902 10.1361C9.35611 9.90709 9.61123 9.75904 9.89237 9.7286C10.2147 9.69371 10.6077 9.91831 11.3938 10.3675L11.7062 10.546C11.9955 10.7113 12.1402 10.794 12.2938 10.8264C12.4298 10.855 12.5702 10.855 12.7062 10.8264C12.8598 10.794 13.0045 10.7113 13.2938 10.546L15.2062 9.45323C15.4955 9.28789 15.6402 9.20522 15.7938 9.17285C15.9298 9.14421 16.0702 9.14421 16.2062 9.17285C16.3598 9.20522 16.5045 9.28789 16.7938 9.45323L18.7062 10.546C18.9955 10.7113 19.1402 10.794 19.2938 10.8264C19.4298 10.855 19.5702 10.855 19.7062 10.8264C19.8598 10.794 20.0045 10.7113 20.2938 10.546L20.6062 10.3675C21.3923 9.91831 21.7853 9.69371 22.1076 9.7286C22.3888 9.75904 22.6439 9.90709 22.8098 10.1361C23 10.3986 23 10.8513 23 11.7567V19.9996M23 18.9996H27V24.9996C27 26.1042 26.1046 26.9996 25 26.9996C23.8954 26.9996 23 26.1042 23 24.9996V18.9996Z" stroke="#1A2E35" stroke-width="1.5" stroke-linecap="round" stroke-linejoin="round"/>
<path d="M13 19H15M13 15H19M13 23H15M19 23H19.01M19 19H19.01" stroke="#C8553D" stroke-width="1.5" stroke-linecap="round" stroke-linejoin="round"/>
</svg>
