<?xml version="1.0" encoding="UTF-8"?>
<svg width="520px" height="520px" viewBox="0 0 520 520" version="1.1" xmlns="http://www.w3.org/2000/svg" xmlns:xlink="http://www.w3.org/1999/xlink">
    <title>Group 13 Copy</title>
    <g id="Error" stroke="none" stroke-width="1" fill="none" fill-rule="evenodd">
        <g id="Group-13-Copy">
            <rect id="Rectangle-Copy-3" fill-opacity="0" fill="#D8D8D8" x="0" y="0" width="520" height="520"></rect>
            <g id="400-Error-Bad-Request-cuate-Copy" transform="translate(6.000000, 35.000000)" fill-rule="nonzero">
                <g id="freepik--background-complete--inject-5" transform="translate(13.041116, 0.000000)">
                    <path d="M52.7918907,339.971884 C52.7918907,337.604203 52.6562423,335.261185 52.6315789,332.94283 L52.9768658,333.288117 C47.3782864,333.349776 41.7673753,333.485424 36.1687959,333.497756 L19.3607261,333.571746 L19.9896414,332.94283 L19.9896414,347.148917 L19.4223845,346.58166 C22.1846791,346.58166 24.9469738,346.58166 27.7339318,346.65565 L36.0208159,346.741972 L52.9768658,347.099591 L52.7918907,339.971884 Z M36.316776,347.494204 L27.8572486,347.642184 C25.0332955,347.642184 22.1970108,347.642184 19.3607261,347.716174 L18.7564741,347.716174 L18.7564741,347.148917 L18.7564741,332.94283 L18.7564741,332.301583 L19.3977211,332.301583 L36.205791,332.387905 C41.8043703,332.387905 47.4152814,332.523553 53.0138608,332.597544 L53.2851576,332.597544 L53.2851576,332.94283 C53.2851576,335.347507 53.1741725,337.752183 53.1248459,340.119864 L52.9398708,347.148917 L36.316776,347.494204 Z" id="Shape" fill="#EBEBEB"></path>
                    <path d="M34.0477482,357.840477 C33.9860899,355.472796 33.8997682,353.14211 33.8751048,350.811424 L34.2203917,351.156711 C28.6218123,351.230701 23.0232329,351.366349 17.4123218,351.366349 L0.604251961,351.452671 L1.24549894,350.811424 L1.1715089,365.017511 L0.604251961,364.450254 C3.37887831,364.450254 6.14117299,364.450254 8.91579934,364.524244 L17.2643417,364.672224 L34.2203917,365.017511 L34.0477482,357.840477 Z M17.5233069,365.412125 L9.06377941,365.547773 C6.23982637,365.609431 3.40354166,365.547773 0.567256943,365.621763 L0,365.621763 L0,365.042174 L0,350.836087 L0,350.207172 L0.641246979,350.207172 L17.4493168,350.281162 C23.0602279,350.281162 28.6588073,350.429142 34.2573867,350.490801 L34.6150052,350.490801 L34.6150052,350.823756 C34.6150052,353.29009 34.5040201,355.633108 34.4546934,358.000789 L34.2697183,365.029843 L17.5233069,365.412125 Z" id="Shape" fill="#EBEBEB"></path>
                    <path d="M71.5483648,357.840477 C71.5483648,355.472796 71.4003847,353.14211 71.3757214,350.811424 L71.7333399,351.156711 C66.1224288,351.230701 60.5238495,351.366349 54.9252701,351.366349 L38.1172002,351.452671 L38.7461155,350.811424 L38.6721255,365.017511 L38.1172002,364.450254 C40.8794949,364.450254 43.6417896,364.450254 46.4164159,364.524244 L54.77729,364.672224 L71.7333399,365.017511 L71.5483648,357.840477 Z M55.0609185,365.375129 L46.6137227,365.510778 C43.7897696,365.572436 40.9411533,365.510778 38.1172002,365.584768 L37.5499433,365.584768 L37.5499433,365.005179 L37.4759532,350.799092 L37.4759532,350.170177 L38.1172002,350.170177 L54.9252701,350.244167 C60.5238495,350.244167 66.1224288,350.392147 71.7333399,350.453806 L72.0786267,350.453806 L72.0786267,350.786761 C72.0786267,353.253095 71.9676417,355.596113 71.9059833,357.963794 L71.7333399,364.992848 L55.0609185,365.375129 Z" id="Shape" fill="#EBEBEB"></path>
                    <path d="M467.136092,357.840477 C467.074434,355.472796 466.988112,353.14211 466.963449,350.811424 L467.308736,351.156711 C461.710156,351.230701 456.111577,351.366349 450.500666,351.366349 L433.692596,351.452671 L434.333843,350.811424 L434.259853,365.017511 L433.692596,364.450254 C436.467222,364.450254 439.229517,364.450254 442.004143,364.524244 L450.365018,364.672224 L467.308736,365.017511 L467.136092,357.840477 Z M450.648646,365.375129 L442.20145,365.510778 C439.365165,365.572436 436.528881,365.510778 433.692596,365.584768 L433.100676,365.584768 L433.100676,365.005179 L433.100676,350.848419 L433.100676,350.219504 L433.729591,350.219504 L450.537661,350.293494 C456.148572,350.293494 461.747151,350.441474 467.345731,350.503132 L467.629359,350.503132 L467.629359,350.836087 C467.629359,353.302422 467.518374,355.64544 467.456716,358.013121 L467.271741,365.042174 L450.648646,365.375129 Z" id="Shape" fill="#EBEBEB"></path>
                    <path d="M467.136092,7.62097371 C467.074434,5.25329256 466.988112,2.92260642 466.963449,0.591920288 L467.308736,0.937207123 C461.710156,0.998865486 456.111577,1.13451389 450.500666,1.14684556 L433.692596,1.22083559 L434.333843,0.591920288 L434.259853,14.7980072 L433.692596,14.2307503 C436.467222,14.2307503 439.229517,14.2307503 442.004143,14.3047403 L450.365018,14.4403887 L467.308736,14.7980072 L467.136092,7.62097371 Z M450.648646,15.1556257 L442.20145,15.2912741 C439.365165,15.3529325 436.528881,15.2912741 433.692596,15.3652641 L433.100676,15.3652641 L433.100676,14.7980072 L433.100676,0.641246979 L433.100676,0 L433.729591,0 L450.537661,0.073990036 C456.148572,0.073990036 461.747151,0.221970108 467.345731,0.283628471 L467.629359,0.283628471 L467.629359,0.628915306 C467.629359,3.03359148 467.518374,5.43826765 467.456716,7.8059488 L467.271741,14.8350022 L450.648646,15.1556257 Z" id="Shape" fill="#EBEBEB"></path>
                    <path d="M485.892566,25.5758891 C485.830908,23.2205396 485.744586,20.8775218 485.719923,18.5591674 L486.06521,18.9044542 C480.46663,18.9044542 474.855719,19.101761 469.25714,19.101761 L452.44907,19.1880827 L453.077985,18.5591674 L453.016327,32.7529226 L452.44907,32.1979973 C455.223697,32.1979973 457.985991,32.1979973 460.760618,32.1979973 L469.10916,32.3459774 L486.06521,32.6912642 L485.892566,25.5758891 Z M469.40512,33.1105411 L460.945593,33.2585212 C458.12164,33.2585212 455.285355,33.2585212 452.44907,33.2585212 L451.881813,33.2585212 L451.881813,32.6789326 L451.820155,18.4851773 L451.820155,17.8439304 L452.461402,17.8439304 L469.269472,17.9302521 C474.868051,17.9302521 480.478962,18.0659005 486.077542,18.1275588 L486.43516,18.1275588 L486.43516,18.4728457 C486.43516,20.8775218 486.324175,23.2698663 486.274848,25.6498791 L486.126868,32.7529226 L469.40512,33.1105411 Z" id="Shape" fill="#EBEBEB"></path>
                    <path d="M34.0477482,7.68263207 C33.9860899,5.31495092 33.8997682,2.98426479 33.8751048,0.653578651 L34.2203917,0.998865486 C28.6218123,1.07285552 23.0232329,1.20850392 17.4123218,1.20850392 L0.604251961,1.29482563 L1.24549894,0.653578651 L1.1715089,14.8596656 L0.604251961,14.2924086 C3.37887831,14.2924086 6.14117299,14.2924086 8.91579934,14.3663987 L17.2643417,14.5020471 L34.2203917,14.8596656 L34.0477482,7.68263207 Z M17.5233069,15.2172841 L9.06377941,15.3529325 C6.23982637,15.3529325 3.40354166,15.3529325 0.567256943,15.4269225 L0,15.4269225 L0,14.8596656 L0,0.653578651 L0,0.0246633453 L0.641246979,0.0246633453 L17.4493168,0.0986533813 C23.0602279,0.0986533813 28.6588073,0.246633453 34.2573867,0.308291817 L34.6150052,0.308291817 L34.6150052,0.653578651 C34.6150052,3.11991319 34.5040201,5.46293099 34.4546934,7.83061214 L34.2697183,14.8596656 L17.5233069,15.2172841 Z" id="Shape" fill="#EBEBEB"></path>
                    <path d="M297.945543,250.209638 C298.007202,252.564988 298.093523,254.908006 298.118187,257.238692 L297.7729,256.881073 C303.371479,256.819415 308.98239,256.683767 314.58097,256.683767 L331.38904,256.597445 L330.747793,257.238692 L330.821783,243.032605 L331.38904,243.58753 C328.614413,243.58753 325.852119,243.58753 323.077492,243.58753 L314.72895,243.43955 L297.7729,243.094263 L297.945543,250.209638 Z M314.43299,242.674986 L322.892517,242.527006 C325.71647,242.527006 328.552755,242.527006 331.38904,242.465348 L331.98096,242.465348 L331.98096,243.044937 L331.98096,257.251024 L331.98096,257.879939 L331.339713,257.879939 L314.531643,257.793617 C308.933064,257.793617 303.322153,257.657969 297.723573,257.59631 L297.452276,257.59631 L297.452276,257.263355 C297.452276,254.797021 297.563261,252.454003 297.612588,250.07399 L297.797563,243.057268 L314.43299,242.674986 Z" id="Shape" fill="#EBEBEB"></path>
                    <path d="M316.702017,232.291718 C316.763676,234.659399 316.849998,236.990085 316.874661,239.320771 L316.529374,238.975485 C322.127953,238.913826 327.726533,238.778178 333.337444,238.765846 L350.145514,238.691856 L349.504267,239.320771 L349.578257,225.114685 L350.145514,225.681941 C347.370887,225.681941 344.608593,225.681941 341.833966,225.607951 L333.473092,225.472303 L316.529374,225.114685 L316.702017,232.291718 Z M333.214127,224.757066 L341.661323,224.621418 C344.485276,224.559759 347.333892,224.621418 350.170177,224.547428 L350.725102,224.547428 L350.725102,225.114685 L350.799092,239.320771 L350.799092,239.962018 L350.170177,239.962018 L333.362107,239.888028 C327.751196,239.888028 322.152617,239.740048 316.554037,239.67839 L316.196419,239.67839 L316.196419,239.333103 C316.196419,236.928427 316.307404,234.523751 316.369062,232.15607 L316.554037,225.127016 L333.214127,224.757066 Z" id="Shape" fill="#EBEBEB"></path>
                    <g id="Group-2" transform="translate(305.192917, 171.000000)">
                        <polygon id="Path" fill="#EBEBEB" points="65.7608207 0 0 77.738787 100 96"></polygon>
                        <polygon id="Path" fill="#FFFFFF" points="63.9552822 13 12 73.7370255 91 88"></polygon>
                        <polygon id="Path" fill="#EBEBEB" points="55.8853503 32 64 33.4692376 58.0106157 63 51 61.7406535"></polygon>
                        <polygon id="Rectangle" fill="#EBEBEB" transform="translate(53.621554, 69.151634) rotate(10.320000) translate(-53.621554, -69.151634) " points="50.1281826 65.6582634 57.1149245 65.6582634 57.1149245 72.6450053 50.1281826 72.6450053"></polygon>
                    </g>
                    <polygon id="Path" fill="#EBEBEB" points="111.502984 261.1355 77.344251 344.571598 166.674888 332.437232"></polygon>
                    <polygon id="Path" fill="#FFFFFF" points="113.01978 272.344991 86.2847137 337.653529 156.205298 328.158141"></polygon>
                    <polygon id="Path" fill="#EBEBEB" points="111.860603 290.349233 118.938983 289.387363 122.009569 315.555172 115.880728 316.393726"></polygon>
                    <polygon id="Rectangle" fill="#EBEBEB" transform="translate(119.782325, 322.322747) rotate(-7.730000) translate(-119.782325, -322.322747) " points="116.693241 319.233663 122.871409 319.233663 122.871409 325.411831 116.693241 325.411831"></polygon>
                </g>
                <g id="freepik--Shadow--inject-5" transform="translate(43.968952, 415.380062)" fill="#EBEBEB">
                    <ellipse id="Oval" cx="212.265082" cy="17.782272" rx="212.265082" ry="17.782272"></ellipse>
                </g>
                <g id="freepik--Plant--inject-5" transform="translate(405.743233, 255.906871)">
                    <path d="M45.5285355,106.274355 C45.5285355,106.274355 55.6158437,70.1055591 63.6560943,57.8232131 C71.6963449,45.5408672 86.7039905,32.0376856 86.7039905,32.0376856 C86.7039905,32.0376856 86.3587037,87.8138411 45.5285355,106.274355 Z" id="Path" fill="#216DF2"></path>
                    <path d="M46.2561042,105.633108 C49.6509328,99.972432 52.7183341,94.1217243 55.4432003,88.1098012 C56.5942868,81.6461757 58.2686827,75.2867705 60.4498594,69.094362 C60.4498594,68.9710452 60.6471662,69.0327036 60.6225028,69.1560203 C59.2906822,74.8655848 57.7368914,80.5258225 56.3187491,86.2230553 C60.3882011,77.4305727 64.2480146,68.5147733 69.094362,60.1908943 C70.2173505,56.1694728 71.7849228,52.2856988 73.7680659,48.6114537 C73.8297243,48.5128003 74.0023677,48.6114537 73.953041,48.673112 C72.7250501,51.481786 71.674788,54.3648587 70.8084645,57.3052829 C73.0882804,53.5926677 75.6483853,50.0596405 78.4664332,46.7370394 C78.6390766,46.527401 78.9966951,46.7370394 78.81172,46.9713412 C72.3375919,55.2458936 67.8611947,64.6549598 63.6067676,74.1750111 C68.1859669,69.2052783 72.4136197,63.9227726 76.2590638,58.3658067 C72.2462285,64.5951736 67.7080852,70.4700064 62.6942238,75.9261086 C59.5866423,82.9058353 56.5283875,89.9102254 52.8288857,96.5446653 C60.2278893,90.3048389 65.9004587,82.2152617 71.5237015,74.4216446 C71.5812958,74.3628147 71.6724172,74.352838 71.7413769,74.3978117 C71.8103365,74.4427853 71.8379452,74.5301947 71.8073299,74.6066196 C66.1717555,83.1648005 60.351206,91.2297144 52.2492971,97.5558625 C50.6089227,100.474754 48.8056498,103.299058 46.8480245,106.01539 C46.7180344,106.067538 46.5708223,106.053368 46.4531662,105.977382 C46.3355101,105.901395 46.2620409,105.773042 46.2561042,105.633108 L46.2561042,105.633108 Z" id="Path" fill="#263238"></path>
                    <path d="M42.4086223,109.542248 C42.4086223,109.542248 60.5238495,76.1850737 55.2582252,43.851428 C49.992601,11.5177823 44.3693583,0 44.3693583,0 C44.3693583,0 15.8955261,50.2885611 42.4086223,109.542248 Z" id="Path" fill="#216DF2"></path>
                    <path d="M34.9726237,57.1079761 C36.5051409,66.2699044 38.8449421,75.2783455 41.9646821,84.0280176 C41.9646821,72.1649485 42.2483106,60.3018793 42.5566024,48.4388102 C40.5290731,41.2343829 39.3902164,33.8090371 39.1653924,26.3281211 C39.1653924,26.106151 39.4860159,26.1308144 39.4983476,26.3281211 C40.0744513,32.7381975 41.1380527,39.0950708 42.6799191,45.3435604 C42.9512159,35.5522123 43.2677288,25.7649748 43.6294579,15.9818478 C43.6294579,15.821536 43.888423,15.821536 43.888423,15.9818478 C43.888423,31.2731219 43.888423,46.564396 43.7897696,61.8680018 C45.9978015,55.9557874 47.7499094,49.8831875 49.0307305,43.7034479 C49.0307305,43.7034479 49.1417156,43.7034479 49.1417156,43.7034479 C48.40733,50.8226989 46.6030425,57.790408 43.7897696,64.3713313 C43.7157796,74.1503478 43.6171262,83.9293642 43.3951561,93.6960489 C46.4657426,83.3004489 49.7336359,73.237804 50.6215163,62.2626153 C50.6381497,62.2120093 50.6853977,62.1778042 50.7386672,62.1778042 C50.7919367,62.1778042 50.8391847,62.2120093 50.8558181,62.2626153 C50.6091846,74.3723179 47.4892714,86.6669955 43.4568145,98.024466 C43.4117693,98.1318575 43.3445304,98.2285134 43.2595077,98.3080945 C43.1608543,101.871948 43.062201,105.448133 42.9388842,109.024318 C42.9388842,109.242257 42.7622097,109.418932 42.5442707,109.418932 C42.3263317,109.418932 42.1496572,109.242257 42.1496572,109.024318 C42.0016771,101.711636 41.9523504,94.3989543 41.9646821,87.0986041 C38.0208282,77.527015 35.6112136,67.3933165 34.8246436,57.0709811 C34.8123119,57.0339861 34.960292,57.0093227 34.9726237,57.1079761 Z" id="Path" fill="#263238"></path>
                    <path d="M36.2181226,51.9410053 C36.8374812,54.8471389 37.2495745,57.793606 37.4512899,60.7581512 C37.4512899,60.8568046 37.3033098,60.8691363 37.2786465,60.7581512 C36.5750995,57.8707828 36.0805516,54.9364656 35.7988458,51.9780003 C35.7865141,51.7683619 36.1687959,51.7190352 36.2181226,51.9410053 Z" id="Path" fill="#263238"></path>
                    <path d="M46.8110294,27.5612884 C46.8110294,27.462635 46.9713412,27.49963 46.9836729,27.5612884 C46.9585444,29.6199568 46.6515087,31.6654786 46.0711291,33.640803 C46.057912,33.6848599 46.022195,33.7185188 45.9774321,33.7291009 C45.9326692,33.7396831 45.8856612,33.7255806 45.8541154,33.6921059 C45.8225696,33.6586312 45.8112786,33.6108698 45.8244956,33.566813 C46.2191092,31.6430721 46.4657426,29.5713511 46.8110294,27.5612884 Z" id="Path" fill="#263238"></path>
                    <path d="M35.7988458,112.094905 C35.7988458,112.094905 36.5387461,77.2702609 26.5500913,59.9689242 C16.5614364,42.6675874 0,33.8504415 0,33.8504415 C0,33.8504415 6.68376659,95.2128447 35.7988458,112.094905 Z" id="Path" fill="#216DF2"></path>
                    <path d="M17.5972969,82.3139151 C21.6294828,88.3945643 26.1671675,94.1244226 31.1621368,99.4426084 C29.1767375,92.3272333 26.8583831,85.3351749 24.2564001,78.4787649 C18.6578207,73.5460958 13.0962364,68.4777783 9.66803137,61.7570167 C9.65261146,61.7283798 9.65364051,61.6936917 9.67073088,61.6660192 C9.68782125,61.6383467 9.71837651,61.6218939 9.75088678,61.6228584 C9.78339705,61.6238228 9.81292324,61.6420581 9.82834312,61.670695 C13.5278449,67.6145612 18.460514,72.3745869 23.6644799,76.9496374 C19.6528679,66.5825649 15.0073878,56.4720565 9.75435308,46.675381 C9.70615507,46.5713349 9.74514028,46.4477021 9.84430349,46.3901234 C9.94346669,46.3325448 10.0701654,46.3600901 10.1366349,46.4534109 C13.3309956,51.5886722 16.241524,56.8951378 18.8551275,62.348937 C17.9179204,58.6494352 17.1656884,54.814285 16.2161496,51.1271149 C16.2161496,51.0161298 16.3271346,50.9791348 16.3764613,51.1271149 C18.3347223,55.8760174 19.7094757,60.8450053 20.4705766,65.9251221 C23.9435955,73.5997229 26.8653785,81.5120268 29.2137326,89.6019336 C28.9547674,84.3733044 28.6341439,79.1816702 28.0915503,73.9777043 C28.0915503,73.879051 28.2518621,73.8543876 28.2641938,73.9777043 C29.3785124,79.7542253 29.886865,85.6312777 29.7809895,91.5133429 C31.2196846,96.7008665 32.4281886,101.945938 33.4065013,107.248557 C33.4065013,107.309853 33.3568116,107.359542 33.2955162,107.359542 C33.2342209,107.359542 33.1845311,107.309853 33.1845311,107.248557 C32.6419376,105.041188 32.0500173,102.833818 31.4457653,100.638781 C31.4457653,100.638781 31.3717753,100.638781 31.3347802,100.638781 C25.7753374,95.3190057 21.1188517,89.1297948 17.5479702,82.3139151 C17.5479702,82.3139151 17.5849652,82.27692 17.5972969,82.3139151 Z" id="Path" fill="#263238"></path>
                    <path d="M6.03018793,53.9880629 C7.14003847,55.2212302 8.16356731,56.4543975 9.23642283,57.6875647 C10.2797516,58.7338006 11.2403903,59.8593559 12.1097026,61.0541114 C12.1097026,61.0541114 12.1097026,61.1527648 12.0357125,61.1281014 C10.7849402,60.1918018 9.66876023,59.0880699 8.71849258,57.8478765 C7.66364826,56.6994983 6.71052863,55.4616806 5.86987619,54.1483747 C5.86987619,54.0127263 5.9561979,53.9017412 6.03018793,53.9880629 Z" id="Path" fill="#263238"></path>
                    <polygon id="Path" fill="#455A64" points="65.4811819 107.840477 64.2480146 118.938983 60.4498594 152.678439 27.3393183 152.678439 23.5411631 118.938983 22.3079959 107.840477 65.4688502 107.840477"></polygon>
                    <polygon id="Path" fill="#37474F" points="65.4811819 107.840477 64.2480146 118.938983 23.5534948 118.938983 22.3203275 107.840477"></polygon>
                    <rect id="Rectangle" fill="#455A64" transform="translate(43.869926, 106.070882) rotate(180.000000) translate(-43.869926, -106.070882) " x="19.3360627" y="99.7509002" width="49.0677255" height="12.6399645"></rect>
                </g>
                <g id="freepik--Table--inject-5" transform="translate(6.234033, 407.944064)" fill="#263238">
                    <polygon id="Path" points="500 0.616583633 437.503083 0.912543777 374.993834 1.02352883 250 1.23316727 125.006166 1.02352883 62.4969171 0.912543777 -8.76218043e-15 0.616583633 62.4969171 0.308291817 125.006166 0.209638435 250 0 374.993834 0.209638435 437.503083 0.320623489"></polygon>
                </g>
                <g id="freepik--400-error--inject-5" transform="translate(84.000000, 53.000000)" fill="#263238">
                    <path d="M52.8172099,154 L52.8172099,129.245036 L0,129.245036 L0,109.468543 L60.6258149,38 L77.0837027,38 L77.0837027,109.298823 L93,109.298823 L93,129.245036 L77.051369,129.245036 L77.051369,154 L52.8172099,154 Z M24.703125,109.05 L56.1875,109.05 L56.1875,71.8333333 L24.703125,109.05 Z" id="Shape"></path>
                    <path d="M221.221822,94.8126809 C221.310419,102.525419 219.966164,110.188161 217.256621,117.415762 C214.783908,124.012269 211.053622,130.072252 206.27047,135.263154 C201.593271,140.295407 195.908669,144.299059 189.582071,147.016756 C176.203355,152.603554 161.126106,152.603554 147.74739,147.016756 C141.458615,144.283622 135.809749,140.281146 131.15903,135.263154 C126.379264,130.073047 122.654825,124.012529 120.191068,117.415762 C114.88548,102.808602 114.88548,86.8167601 120.191068,72.2096001 C122.664604,65.6134914 126.394799,59.5536577 131.177219,54.3622076 C140.899852,44.0323543 154.493721,38.1698693 168.723844,38.1698693 C182.953968,38.1698693 196.547837,44.0323543 206.27047,54.3622076 C211.049791,59.5559765 214.779598,65.6151795 217.256621,72.2096001 C219.964348,79.4376903 221.308544,87.100093 221.221822,94.8126809 L221.221822,94.8126809 Z M193.638424,94.7874473 C193.68779,90.1880145 193.074303,85.6050779 191.816447,81.1767327 C190.748119,77.3446731 188.989042,73.7347463 186.623814,70.5205611 C184.521568,67.6790555 181.804576,65.3371868 178.670887,63.6656612 C175.559671,62.0497663 172.09124,61.2233322 168.577138,61.2605911 C164.997439,61.2085278 161.460532,62.0348703 158.282971,63.6656612 C155.153806,65.34003 152.440372,67.6815136 150.339154,70.5205611 C147.97105,73.7342844 146.208899,77.344186 145.137412,81.1767327 C143.879677,85.6051026 143.266192,90.1880219 143.315435,94.7874473 C143.262474,99.3545237 143.87612,103.905269 145.137412,108.299077 C146.223906,112.095482 147.985306,115.670292 150.339154,118.856163 C152.43788,121.697471 155.151879,124.039441 158.282971,125.711063 C161.460532,127.341854 164.997439,128.168196 168.577138,128.116133 C172.09124,128.153392 175.559671,127.326958 178.670887,125.711063 C181.806514,124.042305 184.524077,121.699945 186.623814,118.856163 C188.97461,115.669734 190.732921,112.094931 191.816447,108.299077 C193.077864,103.905295 193.691512,99.3545313 193.638424,94.7874473 L193.638424,94.7874473 Z" id="Shape"></path>
                    <path d="M345.144688,94.8185236 C345.233285,102.53109 343.889028,110.193661 341.179482,117.4211 C338.707143,124.019679 334.973385,130.08014 330.18422,135.268095 C325.51216,140.302035 319.830094,144.305988 313.504889,147.021435 C300.125533,152.60505 285.049501,152.60505 271.670145,147.021435 C265.384094,144.288201 259.738226,140.28575 255.090854,135.268095 C250.304943,130.079369 246.574305,124.018959 244.104687,117.4211 C238.811323,102.81214 238.811323,86.8249068 244.104687,72.2159467 C246.581361,65.6194667 250.314634,59.5597918 255.099949,54.368952 C264.81961,44.0373524 278.412528,38.1734205 292.642084,38.1734205 C306.871641,38.1734205 320.464559,44.0373524 330.18422,54.368952 C334.969534,59.5597918 338.702808,65.6194667 341.179482,72.2159467 C343.887213,79.4438757 345.231411,87.1061077 345.144688,94.8185236 L345.144688,94.8185236 Z M317.561628,94.7903672 C317.610871,90.1910065 316.997381,85.6081518 315.739637,81.1798443 C314.668142,77.3473515 312.905978,73.7375008 310.537855,70.5238227 C308.436621,67.6848152 305.723166,65.3433646 302.593978,63.6690194 C299.482737,62.0531473 296.01428,61.2267248 292.500152,61.2639832 C288.920301,61.2107919 285.383092,62.0371871 282.205907,63.6690194 C279.073943,65.3430162 276.357442,67.6844104 274.25292,70.5238227 C271.887674,73.7379627 270.128584,77.3478386 269.060248,81.1798443 C267.802382,85.6081271 267.18889,90.1909991 267.238257,94.7903672 C267.185169,99.3573868 267.798821,103.908086 269.060248,108.301806 C270.143782,112.097607 271.902106,115.672359 274.25292,118.858744 C276.354954,121.700416 279.072019,124.042296 282.205907,125.713547 C285.383092,127.345379 288.920301,128.171775 292.500152,128.118583 C296.01428,128.155842 299.482737,127.329419 302.593978,125.713547 C305.725094,124.041949 308.439113,121.700011 310.537855,118.858744 C312.888502,115.67226 314.646811,112.097538 315.730527,108.301806 C316.994907,103.908506 317.611627,99.3578159 317.561628,94.7903672 L317.561628,94.7903672 Z" id="Shape"></path>
                    <polygon id="Path" points="152 9.95121951 152 12 144 12 144 0 151.859649 0 151.859649 2.04292683 146.245614 2.04292683 146.245614 4.93463415 151.090526 4.93463415 151.090526 6.82536585 146.245614 6.82536585 146.245614 9.95121951"></polygon>
                    <path d="M154,11.988293 L154,0.000320848904 L159.467713,0.000320848904 C160.015463,-0.00700846846 160.557245,0.111326633 161.048884,0.345677468 C161.521189,0.567765567 161.943664,0.878076084 162.292094,1.25882378 C162.64223,1.63529404 162.920186,2.06942353 163.112855,2.54074073 C163.30691,2.99959197 163.407337,3.49060253 163.40857,3.98655573 C163.418782,4.73411269 163.209465,5.46905455 162.805069,6.10552346 C162.428294,6.72323407 161.857164,7.20743003 161.175619,7.48694994 L164,12 L161.302354,12 L158.767652,7.9610836 L156.395896,7.9610836 L156.395896,11.988293 L154,11.988293 Z M156.414001,5.9182114 L159.431503,5.9182114 C159.642532,5.91653319 159.849856,5.86425007 160.035003,5.76602034 C160.229814,5.66258609 160.400377,5.52107029 160.535908,5.3504217 C160.676967,5.17400229 160.787073,4.97623366 160.861798,4.7650715 C160.947096,4.51995261 160.989922,4.26281711 160.988574,4.00411623 C160.990146,3.73868725 160.943148,3.47508957 160.849728,3.22560046 C160.756431,3.01184171 160.628031,2.81416212 160.469523,2.64025026 C160.320541,2.47019988 160.137899,2.3308688 159.932408,2.23050512 C159.744135,2.14175602 159.538201,2.09381839 159.328908,2.09002107 L156.420036,2.09002107 L156.414001,5.9182114 Z" id="Shape"></path>
                    <path d="M165,12 L165,0.000321162224 L170.480944,0.000321162224 C171.030019,-0.00701531248 171.573112,0.111435348 172.065941,0.346015035 C172.52968,0.567444161 172.944681,0.873874155 173.287961,1.24833464 C173.638944,1.62517253 173.917573,2.05972596 174.110708,2.53150342 C174.305233,2.99080275 174.405903,3.4822928 174.407139,3.97873031 C174.417376,4.72701729 174.207552,5.46267685 173.802178,6.09976729 C173.42449,6.71808112 172.851979,7.20274991 172.168784,7.48254278 L175,12 L172.320024,12 L169.785239,7.96885789 L167.407743,7.96885789 L167.407743,12 L165,12 Z M167.419843,5.92399074 L170.444646,5.92399074 C170.656186,5.9223109 170.864012,5.86997672 171.049607,5.77165107 C171.244889,5.66811581 171.415865,5.52646181 171.551724,5.35564658 C171.693124,5.17905489 171.803497,4.98109313 171.878403,4.76972476 C171.963907,4.5243665 172.006836,4.2669799 172.005485,4.0080264 C172.007061,3.74233822 171.959949,3.47848312 171.866304,3.22875038 C171.774913,3.01503513 171.648233,2.81714312 171.491228,2.64282856 C171.339774,2.47233745 171.154659,2.33289011 170.946763,2.23268329 C170.758035,2.14384752 170.551603,2.09586308 170.341803,2.09206205 L167.425892,2.09206205 L167.419843,5.92399074 Z" id="Shape"></path>
                    <path d="M182,11.9993811 C181.152512,12.0117741 180.313254,11.8379068 179.546058,11.4910043 C178.828997,11.1630623 178.18505,10.7039259 177.650105,10.1391841 C176.593603,8.99859674 176.006764,7.52537538 176.000147,5.99706841 C175.994581,5.21923496 176.147461,4.44789751 176.450135,3.72670376 C176.752956,3.02208483 177.185948,2.37616783 177.728103,1.82029069 C178.270734,1.26225834 178.92075,0.811001131 179.642055,0.49157855 C180.395102,0.160843349 181.214342,-0.00677936049 182.041995,0.000532759283 C182.885614,-0.0111345095 183.720195,0.168979002 184.477933,0.526240606 C185.191013,0.862303463 185.828966,1.32937575 186.355886,1.90116882 C186.873933,2.47122898 187.280483,3.12690763 187.555856,3.83646694 C188.148048,5.27040508 188.148048,6.86815698 187.555856,8.30209513 C187.260514,9.00203252 186.837909,9.645652 186.307887,10.2027312 C185.766548,10.7566695 185.118548,11.204017 184.399935,11.5198893 C183.645954,11.8466495 182.826753,12.0103202 182,11.9993811 Z M178.430037,5.99706841 C178.427768,6.49920084 178.508787,6.99846495 178.67008,7.4759828 C178.8224,7.93698846 179.060238,8.36759515 179.372062,8.74692484 C179.681685,9.11237194 180.065507,9.41313575 180.500034,9.63080727 C180.970611,9.8585755 181.491367,9.97352419 182.017995,9.96587381 C182.549321,9.97502091 183.0748,9.85795505 183.547957,9.62503026 C183.986682,9.40089857 184.371113,9.0898127 184.675929,8.71226279 C184.983357,8.32983775 185.217052,7.89741772 185.365911,7.43554373 C185.520525,6.97054897 185.599458,6.48531293 185.599932,5.99706841 C185.601671,5.4921653 185.51652,4.99047098 185.347912,4.51237702 C185.192917,4.05130531 184.95311,3.62081314 184.639929,3.24143498 C184.330411,2.88635146 183.945888,2.59882362 183.511958,2.39799162 C183.048727,2.17412354 182.536242,2.06116477 182.017995,2.06870209 C181.482832,2.05954765 180.953465,2.17656187 180.476034,2.40954564 C180.038263,2.63002397 179.653864,2.93714705 179.348062,3.31075909 C179.04425,3.69239973 178.81271,4.12263449 178.66408,4.58170114 C178.512074,5.03935434 178.433175,5.51659061 178.430037,5.99706841 L178.430037,5.99706841 Z" id="Shape"></path>
                    <path d="M189,11.988293 L189,0.000320848904 L194.467713,0.000320848904 C195.015463,-0.00700846846 195.557245,0.111326633 196.048884,0.345677468 C196.520209,0.569313879 196.942393,0.879410894 197.292094,1.25882378 C197.64223,1.63529404 197.920186,2.06942353 198.112855,2.54074073 C198.596589,3.70944512 198.482474,5.03113292 197.805069,6.10552346 C197.428294,6.72323407 196.857164,7.20743003 196.175619,7.48694994 L199,12 L196.296319,12 L193.773687,7.97279061 L191.401931,7.97279061 L191.401931,12 L189,11.988293 Z M191.414001,5.9182114 L194.431503,5.9182114 C194.642434,5.91581692 194.849582,5.86357813 195.035003,5.76602034 C195.229107,5.66397092 195.397975,5.52215337 195.529873,5.3504217 C195.674932,5.1756175 195.787274,4.97750241 195.861798,4.7650715 C195.947096,4.51995261 195.989922,4.26281711 195.988533,4.00411623 C195.991212,3.73808117 195.942071,3.47394814 195.843693,3.22560046 C195.754662,3.01103654 195.628077,2.81300683 195.469523,2.64025026 C195.320541,2.47019988 195.137899,2.3308688 194.932408,2.23050512 C194.744135,2.14175602 194.538201,2.09381839 194.328908,2.09002107 L191.420036,2.09002107 L191.414001,5.9182114 Z" id="Shape"></path>
                </g>
                <g id="freepik--Character--inject-5" transform="translate(143.234033, 146.000000)">
                    <path d="M144.933966,6.67323638 C143.970807,5.80117446 142.912399,5.02147199 141.775301,4.3463282 L144.60757,4.00017657 C144.828677,4.00017657 144.754975,3.67325559 144.60757,3.66364027 C143.306187,3.57042572 141.997962,3.59296749 140.701355,3.73094753 C138.889296,2.78304616 136.934641,2.08327868 134.899942,1.65403775 C136.781419,1.10576285 138.697713,0.662637764 140.638182,0.32712317 C140.838231,0.32712317 140.796115,-0.00941313613 140.585538,0.000202186916 C138.259776,0.160102315 135.973797,0.639868684 133.804938,1.42327 C132.391473,1.18279474 130.957434,1.05730369 129.519683,1.0482724 C129.403866,1.0482724 129.414395,1.20211757 129.519683,1.21173289 C130.685657,1.30975734 131.84299,1.48002019 132.983685,1.72134501 C131.707194,2.21437757 130.468941,2.78620913 129.277519,3.43287251 C128.301958,3.37055289 127.322199,3.389864 126.35049,3.49056445 C126.245201,3.49056445 126.245201,3.64440962 126.35049,3.6347943 C127.155158,3.6022703 127.961383,3.62799156 128.761604,3.71171688 C127.459881,4.4475376 126.214587,5.26352583 125.03438,6.15400894 C124.950149,6.21170087 125.03438,6.31746943 125.139669,6.25977749 C126.460212,5.31767414 127.869575,4.48429183 129.351221,3.76940882 C131.102358,3.9967087 132.819225,4.4064274 134.468258,4.99055485 C133.078445,5.39439842 131.699162,5.8463186 130.351465,6.32708475 C130.256705,6.32708475 130.298821,6.49054524 130.351465,6.45208395 C131.934121,5.94088835 133.556635,5.53911684 135.205279,5.25016857 C136.689852,5.77901134 138.163895,6.37516137 139.669525,6.94246543 C139.890631,7.02900333 140.038036,6.69246703 139.827458,6.5963138 C138.709419,6.02082993 137.556394,5.50397051 136.373985,5.04824679 C137.774326,4.82709436 139.174668,4.65401854 140.585538,4.49055805 C141.980305,5.22502356 143.317214,6.04753129 144.586512,6.95208075 C144.839206,7.10592592 145.134014,6.85592752 144.933966,6.67323638 Z M135.457972,4.75017177 C133.69971,4.1231616 131.859017,3.70938158 129.982954,3.51941042 C131.284957,2.92877441 132.628611,2.41803076 134.004987,1.99057406 C135.886521,2.4510031 137.708062,3.09576754 139.43789,3.91363867 C138.095204,4.1036614 136.766186,4.36695159 135.457972,4.70209516 L135.457972,4.75017177 Z" id="Shape" fill="#000000" opacity="0.1"></path>
                    <path d="M63.906273,50.5723544 C64.1039705,50.4797813 63.9556974,50.2123477 63.7678848,50.2432055 C62.9409204,50.3957013 62.1388739,50.6692792 61.3856297,51.055792 C61.6663764,50.1187793 61.9963692,49.198519 62.3741173,48.2991693 C62.4072058,48.1979459 62.3676943,48.0864368 62.2793767,48.0317931 C62.1910591,47.9771495 62.0780387,47.9942845 62.0083769,48.0728793 C61.3823774,49.13977 60.9032385,50.2927305 60.5849548,51.498086 C59.4506508,52.1937719 58.4241603,53.0642328 57.5404131,54.0798483 C57.5954653,52.3157808 57.8374623,50.5634249 58.262009,48.8546082 C58.2750219,48.7536479 58.2150697,48.6579807 58.1210374,48.6296565 C58.027005,48.6013323 57.9272118,48.6488813 57.8863837,48.7414632 C57.1596049,50.6598152 56.8490695,52.7215494 56.9769751,54.7792899 C56.1888152,55.7715905 55.5245432,56.8637206 55,58.0296361 C55,58.1222093 55.079079,58.2044965 55.1285034,58.1119234 C55.6580593,57.1245086 56.2984742,56.2060553 57.0362844,55.3758724 C57.1211442,56.274099 57.2698241,57.1645514 57.4811038,58.039922 C57.1054785,58.3999287 56.7397381,58.7599354 56.4135372,59.1199421 C56.3146885,59.2125153 56.4629616,59.3668039 56.5618104,59.2742307 C56.8880113,58.9553676 57.2339819,58.6776482 57.5502979,58.3896428 C57.7832397,59.2692048 58.0806579,60.1288839 58.4399367,60.9611193 C58.4399367,61.0536924 58.6277494,60.9611193 58.5980948,60.8891179 C58.274387,59.9962649 58.0198628,59.077888 57.8369593,58.1427811 C58.5234612,57.5739966 59.2467658,57.0550467 60.0017471,56.5896093 L60.1401354,56.5278939 C60.1950882,57.4090928 60.3073741,58.2854029 60.4762211,59.1507999 C60.4762211,59.2536589 60.6541489,59.2022294 60.6343792,59.1507999 C60.5162033,58.2339694 60.4765078,57.3080295 60.5157606,56.3838912 C61.5042482,55.85931 62.4927358,55.427302 63.4812234,54.8718631 C63.669036,54.7587181 63.5306477,54.5015704 63.3428351,54.5324282 C62.3458913,54.7516464 61.3906472,55.1409045 60.5157606,55.6844496 C60.5982355,54.471792 60.7901892,53.2699004 61.0890834,52.0946685 C61.9886071,51.5289437 62.9177854,51.0352202 63.906273,50.5723544 Z M57.7677652,57.7724885 C57.6006189,56.8151366 57.5113388,55.8448249 57.5008736,54.8718631 C58.3592397,53.9911045 59.3109969,53.214682 60.3378329,52.5575343 C60.1346989,53.6724102 60.0550999,54.8078484 60.1005959,55.9415973 C59.2729364,56.4718625 58.4922494,57.0776899 57.7677652,57.7519167 L57.7677652,57.7724885 Z" id="Shape" fill="#000000" opacity="0.1"></path>
                    <path d="M85.6765957,24.0406322 C74.9677562,31.335558 69.6646239,40.8364037 70.290332,51.4350793 C70.91604,62.0337549 62.997243,70.4778111 62.0843247,82.0306753 C61.1714063,93.5835395 67.9721349,101.771093 67.9721349,107.044781 C67.9721349,112.318468 62.7613203,121.624372 62.7613203,121.624372 C62.7613203,121.624372 74.1266404,136.470726 105.391528,135.988502 C136.656416,135.506278 151.386199,124.897342 151.386199,124.897342 C151.386199,124.897342 146.862638,115.037393 146.40105,112.082486 C145.939462,109.12758 152.801736,98.3134422 152.996628,89.0485786 C153.191521,79.783715 144.872681,67.2869223 144.852166,62.6904008 C144.831651,58.0938794 145.816372,31.9614237 125.957834,22.347717 C113.121817,15.9988484 97.934927,16.6371137 85.6765957,24.0406322 L85.6765957,24.0406322 Z" id="Path" fill="#263238"></path>
                    <path d="M73.9556799,56.7443049 C74.1580592,56.2801375 73.6217541,55.7128219 73.2675904,56.1666744 C67.6755881,63.3199426 63.5031746,71.5144882 60.9831675,80.2930618 C58.6052108,88.6377593 60.8111451,96.6214377 64.7069464,103.914023 C64.818255,104.120319 65.101586,103.914023 65.0003964,103.728356 C60.7909071,95.1876764 59.9409141,86.8532937 63.4825517,77.8381323 C66.3866945,70.390825 70.6872544,63.9027969 73.9556799,56.7443049 Z" id="Path" fill="#263238"></path>
                    <path d="M155.632522,88.9289643 C154.186496,80.2672802 148.737705,71.6980696 144.724461,64.1666172 C144.614386,64.0123805 144.407747,63.957124 144.23306,64.0352133 C144.058373,64.1133027 143.965384,64.3024999 144.011927,64.485137 C146.495318,71.739169 150.697174,78.2842375 152.970997,85.5999185 C155.408975,93.5971071 154.679258,102.201907 150.9277,109.694401 C150.812437,109.930723 151.126791,110.125944 151.26301,109.899898 C155.227301,103.645769 156.777317,96.2066551 155.632522,88.9289643 Z" id="Path" fill="#263238"></path>
                    <path d="M153.752301,79.0906557 C149.766894,72.0172417 145.77132,64.3717134 144.256458,56.1020603 C144.256458,55.9148229 143.971786,56.0084416 144.002287,56.195679 C145.1145,62.8990298 147.248407,69.3821722 150.326071,75.4083196 C153.843803,82.2632899 159.100067,88.6293625 159.689744,96.8157989 C159.673838,96.8750497 159.69599,96.9381401 159.745113,96.9734886 C159.794236,97.0088371 159.859758,97.0088371 159.908881,96.9734886 C159.958003,96.9381401 159.980156,96.8750497 159.964249,96.8157989 C160.391257,89.9192203 156.914193,84.7077786 153.752301,79.0906557 Z" id="Path" fill="#263238"></path>
                    <path d="M71.2406259,131.195992 C36.8098796,171.261539 -4.31630367,253.381556 5.46539138,268.790593 C16.3544481,285.942501 66.0524313,228.878829 64.2683485,226.356791 C62.7508529,224.224336 78.3974636,175.249639 89.7479211,139.438751 C101.098379,103.627862 79.7611591,121.29238 71.2406259,131.195992 Z" id="Path" fill="#D3766A"></path>
                    <path d="M71.2406259,131.195992 C36.8098796,171.261539 -4.31630367,253.381556 5.46539138,268.790593 C16.3544481,285.942501 66.0524313,228.878829 64.2683485,226.356791 C62.7508529,224.224336 78.3974636,175.249639 89.7479211,139.438751 C101.098379,103.627862 79.7611591,121.29238 71.2406259,131.195992 Z" id="Path" fill="#455A64"></path>
                    <path d="M38.5153541,264.969233 L44.5425937,226.664037 C44.5425937,226.664037 30.3207851,201.988722 38.5772778,184.277056 C42.7055241,175.313538 71.3039506,131.480498 86.6816682,120.383785 C101.13053,109.974207 123.144404,120.209437 129.863125,129.265257 C149.193638,155.304586 159.204636,180.010668 170,265 L38.5153541,264.969233 Z" id="Path" fill="#455A64"></path>
                    <path d="M118.712715,120 C118.071945,120.987159 117.504704,122.020302 117.015606,123.091025 C116.248345,124.756678 115.718602,126.522093 115.441922,128.335465 C116.613229,126.926631 117.579382,125.358669 118.31158,123.67832 C118.778963,122.610524 119.174133,121.512449 119.494414,120.39153 L118.712715,120 Z M98.81025,191.011156 C98.0336978,192.670469 97.5002118,194.433344 97.2262813,196.245292 C98.4011356,194.839018 99.3676156,193.270526 100.095939,191.588148 C100.864611,189.923032 101.394416,188.157412 101.669622,186.343708 C100.499058,187.75488 99.5361686,189.326636 98.81025,191.011156 Z M81.520305,263.021744 C81.2425962,263.670859 80.9751729,264.330278 80.7386061,265 L82.1271502,265 C82.3740025,264.536346 82.6002837,264.072692 82.8162795,263.598735 C83.5863807,261.934163 84.1162469,260.168336 84.3899628,258.354295 C83.2206178,259.768306 82.2546871,261.339376 81.520305,263.021744 Z M154.208016,179.471328 C154.208016,179.522845 154.208016,179.564059 154.208016,179.615576 L154.208016,179.564059 C154.212833,179.533337 154.212833,179.50205 154.208016,179.471328 L154.208016,179.471328 Z M119.237276,253.491082 C118.468604,255.156198 117.9388,256.921817 117.663593,258.735522 C119.984279,255.881446 121.516447,252.467147 122.106934,248.833937 C120.935627,250.242772 119.969474,251.810733 119.237276,253.491082 L119.237276,253.491082 Z M45.5210144,219.191004 C44.7523614,220.852526 44.2225371,222.614743 43.9473311,224.42514 C46.2680174,221.571064 47.8001856,218.156766 48.3906721,214.523556 C47.2213271,215.937566 46.2553964,217.508636 45.5210144,219.191004 L45.5210144,219.191004 Z M69.7228232,165.819299 C68.944787,167.48165 68.4112567,169.248141 68.1388544,171.063739 C69.3175082,169.656435 70.2842976,168.083969 71.0085121,166.396291 C71.7817872,164.736533 72.311815,162.973638 72.5821954,161.162154 C71.4140584,162.571302 70.4513466,164.139299 69.7228232,165.819299 L69.7228232,165.819299 Z M135.025536,145.902793 C133.366903,145.132801 131.607747,144.602055 129.800497,144.32637 C131.204327,145.503269 132.770093,146.471432 134.449548,147.201023 C136.11177,147.971034 137.874321,148.50176 139.684873,148.777446 C138.270149,147.605247 136.698299,146.637604 135.015251,145.902793 L135.025536,145.902793 Z M150.340663,205.662616 C148.685573,204.883325 146.925047,204.352165 145.115623,204.086193 C146.519765,205.25993 148.08557,206.224646 149.764675,206.950544 C151.426411,207.723975 153.188962,208.25817 155,208.53727 C153.585302,207.375977 152.013045,206.42196 150.330378,205.70383 L150.340663,205.662616 Z M65.8040433,142.420237 L65.3411952,143.038442 C65.8798932,143.173109 66.4259449,143.276317 66.9765916,143.347545 C66.5925992,143.045311 66.1983212,142.749947 65.7937578,142.461451 L65.8040433,142.420237 Z M81.3865934,216.604846 C79.7266871,215.828736 77.9632456,215.297742 76.151268,215.028423 C77.5605626,216.200221 79.1294673,217.164713 80.8106047,217.892773 C82.4700659,218.672164 84.2334874,219.206623 86.0459301,219.4795 C84.6312064,218.3073 83.0593557,217.339658 81.3763079,216.604846 L81.3865934,216.604846 Z M99.1599574,155.052228 C98.530488,153.329055 97.6576232,151.705199 96.5680085,150.230228 C96.9499007,153.890137 98.2755635,157.3876 100.41479,160.379095 C100.251055,158.551758 99.8249587,156.757649 99.1496719,155.052228 L99.1599574,155.052228 Z M123.474907,216.780004 C122.853254,215.055353 121.983524,213.430882 120.893243,211.958005 C121.275136,215.617913 122.600798,219.115376 124.740025,222.106871 C124.576597,220.278427 124.146909,218.483786 123.464621,216.780004 L123.474907,216.780004 Z M42.7027842,176.503944 C42.4662174,176.91608 42.2193651,177.328217 41.9827984,177.719747 C42.3564409,178.444037 42.7935792,179.133642 43.2890583,179.780431 C43.210632,178.669673 43.0105778,177.570915 42.6924987,176.503944 L42.7027842,176.503944 Z M58.9127505,242.528246 C58.2832811,240.805073 57.4104162,239.181216 56.3208016,237.706246 C56.4913118,239.53247 56.9171825,241.325629 57.5859195,243.033113 C58.2153889,244.756285 59.0882537,246.380142 60.1778684,247.855113 C60.0095653,246.027471 59.580044,244.233527 58.902465,242.528246 L58.9127505,242.528246 Z M85.4287994,129.664606 C83.7108653,130.295671 82.0903662,131.166298 80.61518,132.250764 C82.4389279,132.084208 84.2295612,131.657455 85.9327895,130.983443 C87.6544432,130.360708 89.2760916,129.489464 90.7464089,128.397286 C88.9222707,128.561448 87.1313002,128.988281 85.4287994,129.664606 Z M146.329314,237.088041 C144.61138,237.719106 142.99088,238.589733 141.515694,239.674199 C143.352173,239.49863 145.153645,239.057889 146.86416,238.365665 C148.585814,237.742929 150.207462,236.871685 151.67778,235.779507 C149.84336,235.941874 148.041953,236.368717 146.329314,237.046827 L146.329314,237.088041 Z M62.3275403,194.576139 C60.6096062,195.207203 58.9891071,196.07783 57.5139209,197.162297 C59.3364717,196.994796 61.1264981,196.571656 62.8315304,195.90528 C64.551708,195.274714 66.1727428,194.40033 67.6451498,193.308818 C65.821196,193.474112 64.0303853,193.900908 62.3275403,194.576139 L62.3275403,194.576139 Z M96.2697287,238.242024 C94.5517946,238.873088 92.9312954,239.743715 91.4561092,240.828182 C95.1096573,240.445625 98.6010419,239.117654 101.587338,236.974703 C99.7788619,237.13396 98.0022211,237.550272 96.3108707,238.211113 L96.2697287,238.242024 Z M39.2571378,260.178 L39,261.77503 L39.0925696,261.77503 C40.8105037,261.143966 42.4310029,260.273339 43.906189,259.188872 C42.3348765,259.304179 40.7855765,259.626357 39.2982798,260.14709 L39.2571378,260.178 Z M126.941124,175.360264 C125.220947,175.99083 123.599912,176.865214 122.127505,177.956726 C125.781053,177.574169 129.272438,176.246198 132.258734,174.103247 C130.450741,174.259059 128.674097,174.671903 126.982266,175.329354 L126.941124,175.360264 Z" id="Shape" fill="#37474F"></path>
                    <path d="M60.8523193,148.040504 C57.9771227,152.009915 55.1664991,156.047765 52.4204485,160.154052 C53.1749327,158.562866 53.9294169,156.981945 54.6635096,155.390759 C54.6729836,155.345893 54.6517477,155.300144 54.611486,155.278683 C54.5712244,155.257221 54.5217084,155.265257 54.4901822,155.298367 C53.4706089,157.289917 52.5326015,159.312263 51.6149856,161.344876 C47.9377247,166.819926 44.3726168,172.377102 40.919662,178.016403 C39.4208829,180.376063 38.1507748,182.875275 37.1268495,185.479581 C36.1848847,188.037917 35.5582627,190.702965 35.2610304,193.414982 C34.9602778,196.118274 34.919305,198.84448 35.1386816,201.555697 C35.325571,204.349345 35.717477,207.125243 36.3111909,209.860664 C37.0077799,212.96718 37.9802874,216.004365 39.2169747,218.935559 C39.8287186,220.362494 40.4710498,221.779163 41.1745553,223.175301 C41.8780609,224.571439 43.1219403,227.024946 43.1015488,227.127603 C42.8364598,228.554538 42.5713707,229.560578 42.3980433,230.761668 L41.8474737,234.447061 C41.4804273,236.897146 41.1201781,239.354074 40.766726,241.817847 C40.0530248,246.694063 39.4412808,251.57028 38.8397326,256.456762 C38.4930777,259.269569 38.3095545,262.102908 37.9221166,264.895183 C37.9221166,265.008106 38.0750526,265.059435 38.0954441,264.895183 C38.4930777,262.462208 39.1150173,260.049764 39.5330424,257.627054 C39.9510674,255.204344 40.4200711,252.750838 40.8788791,250.317862 C41.796495,245.400583 42.5101963,240.442241 43.2748763,235.50443 C43.4889867,234.128823 43.703097,232.763483 43.9070117,231.398142 C44.2119759,229.896983 44.3859662,228.371847 44.4269941,226.840163 C44.4269941,226.840163 40.0836119,217.837127 38.3911203,211.533976 C37.6060638,208.872866 37.0265779,206.154612 36.6578458,203.403526 C36.3724177,200.716103 36.341692,198.007426 36.5660842,195.31414 C36.7763444,192.621809 37.292912,189.962686 38.1056398,187.389005 C38.9766307,184.772959 40.1072737,182.251961 41.4804273,179.864233 C44.314841,174.782702 47.3327779,169.803828 50.3914977,164.855752 C53.8682425,159.240403 57.3755745,153.655852 60.9644724,148.12263 C61.0664297,148.030238 60.9236895,147.948113 60.8523193,148.040504 Z" id="Path" fill="#263238"></path>
                    <path d="M88.7520368,221.000671 C82.5507551,221.303898 76.3802412,222.091414 70.2927748,223.356548 C67.2751954,224.015762 64.3096431,224.82627 61.3336854,225.701619 C59.8561121,226.144697 58.3785387,226.522934 56.8801544,226.901171 C55.3267254,227.347227 53.7258205,227.590453 52.1144599,227.625225 C52.0512454,227.625225 52,227.678447 52,227.7441 C52,227.809752 52.0512454,227.862974 52.1144599,227.862974 C53.629732,228.003486 55.1524947,228.035982 56.6720454,227.960235 C58.1414243,227.842817 59.6015019,227.622579 61.0423329,227.301022 C64.1015342,226.652615 67.1399245,225.852914 70.2095312,225.139666 C76.379961,223.767206 82.5503907,222.394745 88.8144694,221.486976 C89.0954165,221.486976 89.0433893,220.979057 88.7520368,221.000671 Z" id="Path" fill="#263238"></path>
                    <path d="M103.805759,227.539438 C98.7262126,226.715075 93.6081324,226.211718 88.4765454,226.031829 C85.9112485,225.95127 83.3563796,226.031829 80.7910827,226.181439 C79.5710025,226.261998 78.3509223,226.365574 77.130842,226.480659 C75.9107618,226.595744 74.4508367,226.929489 73.1056201,227.033066 C72.9700556,227.033066 72.9596275,227.286252 73.1056201,227.286252 C74.3778405,227.22871 75.6604889,227.401337 76.9327093,227.424353 L80.7702267,227.481896 C83.3250955,227.481896 85.8799644,227.608489 88.4452613,227.631506 C93.5654271,227.631506 98.6751648,227.769608 103.795331,227.999777 C104.06646,228.011285 104.06646,227.573964 103.805759,227.539438 Z" id="Path" fill="#263238"></path>
                    <path d="M6.01466005,270.515485 C16.4952568,280.641794 39.3732557,278.673639 97.4442122,279 C105.482428,279.050954 121.074506,223.024828 112.500409,222.535339 C101.690039,221.923477 59.6233763,221.852093 56.5523656,222.239606 C30.5930507,225.411088 -1.09606932,263.652437 6.01466005,270.515485 Z" id="Path" fill="#D3766A"></path>
                    <path d="M93.4177614,223.485889 C93.4177614,223.485889 115.764016,216.837859 128.566985,217.003027 C145.726449,217.230134 160.446275,224.528515 166.432612,227.966083 C178.928063,235.140587 204.216233,261.185586 198.045387,269.825961 C192.448572,277.650816 167.939446,249.716703 167.939446,249.716703 C167.939446,249.716703 197.594361,274.048079 189.137637,282.223917 C180.680912,290.399755 154.070417,256.333763 154.070417,256.333763 C154.070417,256.333763 183.981597,282.017457 173.946283,289.057761 C166.350607,294.384444 140.519156,264.901876 140.519156,264.901876 C140.519156,264.901876 166.073841,287.189293 158.508917,292.970189 C150.144447,299.391112 124.600012,273.686773 124.600012,273.686773 C102.889293,285.186626 87.6159356,280.799339 77.2321025,277.05208 C74.7207115,276.143654 93.4177614,223.485889 93.4177614,223.485889 Z" id="Path" fill="#D3766A"></path>
                    <path d="M158.123086,241.018044 C161.72273,243.723835 165.384083,246.450125 168.72661,249.473641 C172.069137,252.497158 175.319102,255.623167 178.363373,258.943911 C185.840349,267.081783 189.234299,273.34405 188.987466,272.985328 C183.012056,264.375992 171.215507,253.37859 167.862695,250.355073 C164.509884,247.331557 161.342196,244.205548 158.009954,241.130785 C157.958531,241.110286 158.123086,240.946299 158.123086,241.018044 Z" id="Path" fill="#263238"></path>
                    <path d="M147.133332,253.018863 C151.49046,256.638446 155.948448,260.116084 160.144201,263.88775 C164.339955,267.659416 167.960809,271.654137 171.874156,275.72997 C172.176734,276.044276 171.874156,276.105109 171.591749,275.800942 C167.557371,271.887332 163.462477,268.582055 159.347412,264.709 C155.232346,260.835945 151.278655,256.810807 147.032472,253.110113 C146.941699,253.059418 147.06273,252.95803 147.133332,253.018863 Z" id="Path" fill="#263238"></path>
                    <path d="M136.225913,261.028914 C143.176876,266.377185 149.16804,273.052078 154.896523,279.737417 C155.179411,280.071684 154.825801,280.103021 154.512603,279.737417 C148.450717,273.396791 143.682033,268.372341 136.044057,261.227385 C135.922819,261.175156 136.074366,260.91401 136.225913,261.028914 Z" id="Path" fill="#263238"></path>
                    <path d="M120,217 L79.8451626,281.476673 C79.8451626,281.476673 15.0273231,285.743587 5.33976203,269.909737 C-4.34779906,254.075886 41.1568855,222.901708 56.5660979,222.151142 C71.9753102,221.400577 120,217 120,217 Z" id="Path" fill="#455A64"></path>
                    <path d="M38.7516203,260.485891 C37.0246268,261.117684 35.3971691,261.99377 33.9189278,263.087405 C37.5869524,262.704104 41.092171,261.373549 44.0902999,259.226428 C42.2596088,259.388593 40.4616986,259.812743 38.7516203,260.485891 Z M96.6613204,238.269787 C94.9365793,238.902079 93.3096593,239.774401 91.8286279,240.860977 C95.4966525,240.477676 99.0018711,239.147121 102,237 C100.168819,237.165616 98.3709126,237.593241 96.6613204,238.269787 L96.6613204,238.269787 Z M59.1046908,242.59532 C58.4727272,240.868794 57.5964038,239.241777 56.5024717,237.763937 C56.6736576,239.593715 57.1012157,241.390363 57.7726024,243.10117 C58.404566,244.827696 59.2808894,246.454713 60.3748215,247.932553 C60.2091611,246.101868 59.7814193,244.304449 59.1046908,242.59532 Z M23.0763485,240.613214 C22.9730858,240.344804 22.8594969,240.086717 22.7459079,239.82863 C22.3638361,240.128011 21.9920905,240.437715 21.6203449,240.747419 L21.7442601,241.108741 C22.3761087,242.83852 23.252404,244.468961 24.3464792,245.950447 C24.1819532,244.119577 23.7541732,242.321998 23.0763485,240.613214 L23.0763485,240.613214 Z M58.6916401,279.130076 C57.0245226,278.351991 55.2545296,277.816617 53.4355707,277.540262 C54.8449632,278.719452 56.4169341,279.689498 58.103043,280.420509 C59.7723888,281.190601 61.541719,281.722299 63.3591124,282 C61.9494066,280.823979 60.3773974,279.857386 58.6916401,279.130076 L58.6916401,279.130076 Z M13.2560694,269.136958 C11.590033,268.356051 9.81962422,267.820551 8,267.547144 C9.41042498,268.730147 10.9863781,269.700504 12.6777985,270.427392 C14.341237,271.20352 16.1080408,271.735504 17.9235417,272.006882 C16.52717,270.838563 14.9733286,269.872454 13.3077008,269.136958 L13.2560694,269.136958 Z M81.7605185,263.128699 C80.9873659,264.796511 80.4554002,266.565774 80.1805998,268.383345 C82.507986,265.518238 84.0458002,262.094682 84.6415467,258.452168 C83.4857285,259.872068 82.5334408,261.446044 81.8121498,263.128699 L81.7605185,263.128699 Z" id="Shape" fill="#37474F"></path>
                    <path d="M33.0110203,232.8612 C36.3765702,229.789451 46.0992697,222.262095 56.9022691,222 C57.0165316,222 57.0476941,222.167741 56.9022691,222.188708 C48.228707,223.656438 36.6154826,230.292673 33.1148953,232.997489 C33.079144,233.005977 33.0417805,232.992551 33.0193876,232.963171 C32.9969947,232.93379 32.9937213,232.893898 33.0110203,232.8612 Z" id="Path" fill="#263238"></path>
                    <path d="M68.3907383,272.906399 C84.1460316,250.972826 97.3594846,225.530701 99.9733608,221.26299 C100.096851,221.057811 99.757253,220.88341 99.6440536,221.098847 C97.2977395,225.417853 79.0623511,252.850208 68.0305585,272.721738 C67.8967774,272.947435 68.2363755,273.111577 68.3907383,272.906399 Z" id="Path" fill="#263238"></path>
                    <path d="M115.851861,120.017167 C115.033765,122.415932 98.8456778,140.010307 88.1081598,136.551144 C80.5612185,134.111198 89.1307806,117.391909 89.1307806,117.391909 L86.492419,94.7426248 L115.862087,80 C115.862087,80 116.1791,119.008244 115.851861,120.017167 Z" id="Path" fill="#D3766A"></path>
                    <path d="M116,94.5066971 C110.269742,105.115567 100.308546,112.902217 88.5043478,116 L86,94.6913651 L115.97913,80 C115.97913,80 115.968696,86.5557139 116,94.5066971 Z" id="Path" fill="#263238"></path>
                    <path d="M65.258797,53.9579127 C52.4455513,89.0061262 71.9167605,100.706045 79.4467223,103.437744 C86.2790855,105.952968 109.884593,113.63265 126.226867,80.0688317 C142.569141,46.5050131 130.381682,29.4241632 115.044771,22.8577773 C99.7078594,16.2913914 78.0617838,18.8787742 65.258797,53.9579127 Z" id="Path" fill="#D3766A"></path>
                    <path d="M76.067153,49.5981342 C76.9217585,49.4099966 77.7855876,49.2712598 78.6547281,49.1825521 C79.5459484,48.9060824 80.4991805,48.9445112 81.3675084,49.2919158 C81.8835846,49.6301528 82.1188773,50.289319 81.9413658,50.8995621 C81.4175556,52.044111 80.3435124,52.8016063 79.1346815,52.8790449 C77.9427811,53.1561762 76.6950341,52.9531664 75.6393684,52.3103537 C75.1696512,51.9810253 74.9271557,51.3941368 75.0193304,50.8097353 C75.1115051,50.2253338 75.5213061,49.7514793 76.067153,49.5981342 Z" id="Path" fill="#263238"></path>
                    <path d="M103.143056,52.8840627 C102.41401,52.5180055 101.704744,52.1077826 101.018656,51.6553588 C100.219112,51.3290478 99.5407473,50.7292174 99.0873824,49.9476687 C98.8784812,49.3804778 99.0535131,48.7327492 99.5122625,48.3753443 C100.50764,47.8176163 101.70514,47.8853697 102.640925,48.5523609 C103.662998,49.0601488 104.474729,49.9577158 104.919828,51.0722451 C105.101219,51.6105248 104.968868,52.2135599 104.582973,52.607066 C104.197079,53.0005721 103.631332,53.1094048 103.143056,52.8840627 Z" id="Path" fill="#263238"></path>
                    <path d="M95.2644034,61.015515 C95.2644034,60.9356364 95.4382067,61.185257 95.3918592,61.2851052 C94.4417347,63.6115692 93.8044561,66.4073198 95.9712033,67.8651041 C96.0407246,67.9150282 95.9712033,68.0248613 95.901682,67.9949068 C93.0281349,66.7967279 93.920325,63.0923583 95.2644034,61.015515 Z" id="Path" fill="#263238"></path>
                    <path d="M97.8453845,59.0604679 C101.884965,59.9950616 99.6673601,67.7968871 95.9297073,66.9334038 C92.1920544,66.0699205 94.4617155,58.2376191 97.8453845,59.0604679 Z" id="Path" fill="#263238"></path>
                    <path d="M99.557156,60.0900614 C100.093176,60.73248 100.531737,61.716831 101.29191,62.0276788 C102.052084,62.3385265 103.08514,61.7582774 103.884296,61.136582 C103.972008,61.0744124 104.020737,61.136582 103.9915,61.2609211 C103.621159,62.7944364 102.656324,64.2036127 101.067757,63.9756577 C99.6156309,63.7684259 98.9626615,62.1209331 99.0016448,60.4838018 C99.0016448,60.1833157 99.3427482,59.8310216 99.557156,60.0900614 Z" id="Path" fill="#263238"></path>
                    <path d="M80,56.0337744 C80,55.9270962 79.7953599,56.0977813 79.7767563,56.2044595 C79.2465524,58.7647366 78.269861,61.602377 76.0560273,61.8264013 C75.9909145,61.8264013 75.9723109,61.965083 76.0560273,61.9757508 C78.5954248,62.3384567 79.8604727,58.5513802 80,56.0337744 Z" id="Path" fill="#263238"></path>
                    <path d="M78.4704937,53.1568496 C74.5964414,51.8038195 72.1648554,59.6144935 75.7504144,60.8650213 C79.3359734,62.1155492 81.7057395,54.294625 78.4704937,53.1568496 Z" id="Path" fill="#263238"></path>
                    <path d="M76.6687521,53.5883487 C75.8718348,53.8017145 74.9531662,54.3351291 74.1451806,54.160557 C73.337195,53.985985 72.8059168,52.9773465 72.4849362,52.055994 C72.4849362,51.9590095 72.3631849,52.0075018 72.3299801,52.055994 C71.7876336,53.4622688 71.7987018,55.0722111 73.2486486,55.7704992 C74.6985954,56.4687874 76.0378592,55.4698474 76.9233229,54.1702555 C77.078279,53.9665881 77.000801,53.5010626 76.6687521,53.5883487 Z" id="Path" fill="#263238"></path>
                    <path d="M87.7898139,80.2469517 C87.1003379,80.6544169 86.3720182,81.2608769 85.5077455,81.1471657 C84.6406711,80.9379935 83.8294695,80.550285 83.1285678,80.0100532 C83.0982801,79.9942723 83.0613289,79.9972584 83.0341142,80.0176862 C83.0068995,80.038114 82.9944635,80.0721987 83.0023258,80.1048126 C83.4665121,81.1685313 84.4927458,81.8968223 85.6728313,82 C86.7063918,81.9690973 87.6188664,81.3331017 87.9840325,80.3890907 C88.052009,80.2753795 87.8869232,80.1806201 87.7898139,80.2469517 Z" id="Path" fill="#263238"></path>
                    <path d="M80.1196364,68.8250984 C80.1196364,68.8250984 78.423283,72.7298407 77.9443126,74.4838425 C81.0992644,75.5868132 84.3323288,76.4281327 87.613527,77 C87.813098,77 87.9827333,76.2274039 87.8031195,76.1752015 C83.1431369,74.6613308 82.2450674,74.3481162 79.6207089,73.6068416 C79.6207089,73.0848172 82.4047242,67.6140019 82.1452819,67.509597 C80.8310581,67.2431617 79.4886123,67.1623976 78.1538622,67.2694658 C81.0975342,59.7731959 85.1388468,52.8407123 87.9827333,45.3444424 C88.0825188,45.0729897 87.7232911,44.8746204 87.5835914,45.0938707 C82.8338018,52.0576757 79.2614811,60.5979944 76.0384097,68.2508716 C75.5793964,69.1905155 79.3712452,68.9190628 80.1196364,68.8250984 Z" id="Path" fill="#263238"></path>
                    <path d="M125.655943,76.8994215 C116.903613,74.4541595 120.818589,46.4268981 121.331021,42.9869533 C120.900578,45.1317382 118.543393,56.4566168 117.580022,56.7467326 C116.638872,56.4969397 115.745319,56.0907717 114.935876,55.5448242 L114.935876,55.5448242 C115.25072,54.1814896 115.46313,52.796035 115.571291,51.4003124 C115.643031,50.757913 115.017865,52.7058336 114.105737,55.0578441 C113.6343,54.7988121 113.080874,54.498335 112.578691,54.2082191 C113.362351,51.3464647 113.762207,48.3912492 113.767532,45.421854 C113.767532,44.2924745 112.342972,49.0275793 110.34449,52.9752269 C104.646252,49.866843 96.3756073,45.5358281 88.217698,43.2770691 C86.0449885,42.6657536 84.1182461,42.2409412 82.4374708,41.9093802 C83.206118,38.5730482 84.425705,35.1123808 84.0055112,35.8169478 C82.8739003,37.6743842 81.9231589,39.6384078 81.1666407,41.6814321 C80.244264,41.5156516 79.3833791,41.3705937 78.6147319,41.2669809 C79.4961141,36.5007922 83.482831,29.5276511 82.4682167,30.5016113 C79.4246636,33.5088709 76.9698568,37.0698519 75.2326841,40.9975876 C73.8001052,41.0355758 72.3708466,40.8396478 71,40.4173559 C71.194724,38.8735253 74.0028485,29.6934315 85.4403193,20.9692341 C99.4706935,10.2660322 124.682323,13.778506 133.260426,32.9468733 C133.260426,32.9468733 141.879523,42.1476896 140.926401,53.389678 C139.973278,64.6316664 130.708517,78.3085556 125.655943,76.8994215 Z" id="Path" fill="#263238"></path>
                    <path d="M119.628431,78.1219494 C119.628431,78.1219494 130.604127,68.860903 134.963343,73.1199379 C139.322558,77.3789728 128.937064,92.311756 122.310228,92.9186947 C120.603329,93.1959358 118.858384,92.7575407 117.478632,91.7048175 C116.09888,90.6520943 115.203715,89.0761392 115,87.3411379 L119.628431,78.1219494 Z" id="Path" fill="#D3766A"></path>
                    <path d="M131.936181,78.1038029 C132.03154,78.1038029 132.010349,78.2515819 131.936181,78.2614338 C127.14705,78.8032901 123.777705,81.9559085 121.065277,85.4139368 C122.781735,84.2514087 124.76308,83.8770353 126.490134,85.8375699 C126.585492,85.9459411 126.426561,86.0838682 126.320607,86.0247566 C124.898226,85.1726653 123.053406,85.243646 121.711598,86.2020914 C120.626367,86.9982544 119.632216,87.8962345 118.744879,88.881817 C118.437612,89.1970789 117.791291,88.8227054 118.066772,88.448332 C118.081776,88.4182011 118.103437,88.3913464 118.130345,88.3695165 C119.486559,83.2169558 125.865004,77.1284616 131.936181,78.1038029 Z" id="Path" fill="#263238"></path>
                    <path d="M86,21.0187903 C95.7738452,17.4555601 106.554513,17.9084251 115.997335,22.2788925 C128.024857,27.8008037 140.99171,37.1235108 145.249331,60 C145.249331,60 150.660695,34.5111039 132.425419,21.684698 C109.483278,5.57997744 90.8498074,15.8349553 86,21.0187903 Z" id="Path" fill="#216DF2"></path>
                    <path d="M58,100.071434 C58,100.071434 63.0130228,90.7192594 69.8850415,95.2290858 C76.7570603,99.7389123 70.1148051,108 70.1148051,108 L58,100.071434 Z" id="Path" fill="#FF9CBD"></path>
                    <polygon id="Rectangle" fill="#216DF2" transform="translate(44.085470, 134.775310) rotate(33.340000) translate(-44.085470, -134.775310) " points="36.9475454 97.9748866 51.2233945 97.9748866 51.2233945 171.575734 36.9475454 171.575734"></polygon>
                    <polygon id="Rectangle" fill="#37474F" transform="translate(63.737890, 104.919835) rotate(33.340000) translate(-63.737890, -104.919835) " points="55.4017405 103.459338 72.0740397 103.459338 72.0740397 106.380333 55.4017405 106.380333"></polygon>
                    <polygon id="Rectangle" fill="#37474F" transform="translate(61.947497, 107.621083) rotate(33.340000) translate(-61.947497, -107.621083) " points="53.6113479 106.160586 70.2836471 106.160586 70.2836471 109.081581 53.6113479 109.081581"></polygon>
                    <path d="M30,169.774373 L20.1914894,174.443593 L17,176 L17.1595745,172.458914 L17.6808511,161.752089 L19.9680851,161 C19.9680851,161 20.1382979,163.308496 20.1489362,163.350279 L22.4468085,162.598189 C22.4468085,162.598189 22.6170213,164.89624 22.6276596,164.938022 L24.8829787,164.175487 C24.8829787,164.175487 25.0851064,166.494429 25.0957447,166.536212 L27.3617021,165.773677 C27.3617021,165.773677 27.5638298,168.176184 27.5638298,168.176184 L29.8297872,167.413649 C29.8297872,167.413649 29.9893617,169.732591 30,169.774373 Z" id="Path" fill="#EBEBEB"></path>
                    <polygon id="Path" fill="#37474F" points="20 173.681416 17 175 17.1485149 172"></polygon>
                    <g id="Group" opacity="0.1" transform="translate(23.000000, 110.000000)" fill="#000000">
                        <path d="M0,49.2593857 C2.6003626,45.0716724 5.26288526,40.9249147 7.94612795,36.7883959 L16.0580161,24.4300341 L24.3460243,12.1433447 C27.1328671,8.04778157 29.9300699,4.01365188 32.7894328,0 C30.1994302,4.18771331 27.5265475,8.33447099 24.8536649,12.4709898 L16.7314167,24.8293515 L8.44340844,37.116041 C5.65656566,41.1808874 2.86972287,45.2457338 0,49.2593857 Z" id="Path"></path>
                        <path d="M3.60528361,51.6348123 C6.20564621,47.4368601 8.86816887,43.3003413 11.5514116,39.1638225 L19.6632997,26.8054608 L27.951308,14.5187713 C30.7381507,10.4232082 33.5353535,6.3890785 36.3947164,2.37542662 C33.8047138,6.56313993 31.1318311,10.6996587 28.4589485,14.8361775 L20.3367003,27.1945392 L12.048692,39.4812287 C9.26184926,43.556314 6.4957265,47.6109215 3.60528361,51.6348123 Z" id="Path"></path>
                        <path d="M7.21056721,54 C9.81092981,49.8122867 12.4838125,45.665529 15.1566952,41.5290102 L23.2789433,29.1808874 L31.5669516,16.894198 C34.3434343,12.7986348 37.1406371,8.76450512 40,4.75085324 C37.4099974,8.94880546 34.7371147,13.0853242 32.0642321,17.221843 L23.9419839,29.5802048 L15.6539757,41.8668942 C12.8671329,45.9317406 10.0802901,50.0273038 7.21056721,54 Z" id="Path"></path>
                    </g>
                    <path d="M138.295712,147.53615 C150.447949,176.777463 168.902489,238.006905 155.084717,257.285877 C141.770717,275.867896 65.8038105,234.101914 50.3924703,225.512983 C44.0696055,222.007715 60.9202971,167.963047 68.0862104,170.853355 C83.8368263,177.218183 115.944642,199.141481 116.797972,198.741757 C117.651301,198.342033 116.489539,173.610422 116.30448,149.217039 C116.037172,113.764638 129.567074,126.514793 138.295712,147.53615 Z" id="Path" fill="#D3766A"></path>
                    <path d="M23.3702764,136.410184 C18.1158789,140.792575 22.7624147,146.116974 22.7624147,146.116974 C19.7825542,146.039654 16.868501,146.995364 14.5202226,148.820131 C10.5227593,152.250273 14.1802321,159.980891 14.1802321,159.980891 C11.0678965,160.542329 8.19668557,162.019021 5.93803995,164.219932 C2.44541102,167.875337 5.01079333,176.199831 5.01079333,176.199831 C2.42791553,178.287483 0.684191153,181.226639 0.0963862478,184.483368 C-1.10903436,193.248149 9.26582504,201.971972 15.9007897,207.470439 C25.7605121,215.661822 46.3865981,222.706413 50.7549599,225 L87,183.346813 C87,183.346813 64.3339715,150.581278 55.9784492,144.58109 C47.4683858,138.488748 28.542252,132.099469 23.3702764,136.410184 Z" id="Path" fill="#D3766A"></path>
                    <path d="M23.2938347,146.009218 C32.3384573,149.103191 39.9659501,154.60015 47.9268852,159.694892 C48.1040264,159.808338 47.9268852,160.086796 47.7393239,159.97335 C39.9034296,154.816728 31.0672085,151.258659 23.0958534,146.411435 C23.004909,146.34702 22.9741974,146.227057 23.0231767,146.127551 C23.072156,146.028045 23.1865302,145.97804 23.2938347,146.009218 L23.2938347,146.009218 Z" id="Path" fill="#263238"></path>
                    <path d="M15.4362491,160.017825 C17.3908962,160.882095 19.2218801,161.990094 20.8831847,163.313976 C22.7296035,164.61246 24.548668,165.944238 26.3403782,167.30931 C29.9511528,170.026138 33.4832837,172.822872 36.9367708,175.699512 C37.090639,175.829361 36.9367708,176.089057 36.7623868,175.969197 C33.16187,173.272347 29.581869,170.625438 25.8172262,168.078412 C23.9571301,166.806564 22.0936148,165.548034 20.2266802,164.302821 C18.381918,163.236206 16.6621059,161.976891 15.0977389,160.547207 C14.9884729,160.442254 14.9684829,160.277586 15.0496071,160.150719 C15.1307313,160.023852 15.2913105,159.968659 15.4362491,160.017825 L15.4362491,160.017825 Z" id="Path" fill="#263238"></path>
                    <path d="M5.16570064,177.00264 C6.94699846,177.584135 8.53037429,179.155191 9.97832982,180.297777 C11.6103181,181.596789 13.2561956,182.885599 14.9159623,184.164208 C18.2285513,186.714624 21.5307232,189.265039 24.9266477,191.703237 C25.1037358,191.825657 24.9266477,192.0909 24.7495596,191.96848 C21.2807165,189.509879 17.7910395,187.092085 14.3326134,184.602879 C12.6450681,183.37868 10.9575228,182.144278 9.29081137,180.909877 C7.86368973,179.889711 5.95738856,178.685914 5.00944645,177.165866 C4.96777866,177.084253 5.07194813,176.982236 5.16570064,177.00264 Z" id="Path" fill="#263238"></path>
                    <path d="M87.1107064,178.651559 L58,234.73034 C58,234.73034 123.332111,265.869228 146.369952,262.785152 C169.407793,259.701076 158.700643,215.732432 157.303165,205.822268 C156.275607,198.739174 144.232633,155.911638 134.820205,138.496889 C125.407778,121.08214 117.094837,120.784013 115.800114,144.500557 C114.505392,168.217102 116.4372,197.032652 115.481571,196.600881 C114.525943,196.16911 87.1107064,178.651559 87.1107064,178.651559 Z" id="Path" fill="#455A64"></path>
                    <path d="M126.965414,175.833091 C125.241036,176.46041 123.616044,177.330292 122.140042,178.416183 C125.80251,178.035596 129.302419,176.714463 132.296006,174.582547 C130.468088,174.743564 128.672902,175.16471 126.965414,175.833091 Z M96.2191334,238.360305 C94.4970049,238.98812 92.8725493,239.854264 91.3937614,240.933146 C95.0562296,240.552559 98.5561385,239.231426 101.549726,237.09951 C99.7197798,237.273806 97.9245478,237.708771 96.2191334,238.391056 L96.2191334,238.360305 Z M146.359697,237.202014 C144.637569,237.829829 143.013113,238.695973 141.534325,239.774855 C143.371683,239.623184 145.177439,239.208907 146.89585,238.544811 C148.621707,237.925283 150.247314,237.058525 151.721222,235.97197 C149.882323,236.133501 148.076518,236.558147 146.359697,237.232765 L146.359697,237.202014 Z M123.43918,217.03955 C122.81601,215.32378 121.944156,213.707673 120.851214,212.24238 C121.234038,215.883443 122.562938,219.362896 124.707387,222.338988 C124.543894,220.53091 124.116685,218.756095 123.43918,217.070301 L123.43918,217.03955 Z M81.2481075,216.865294 C79.5841486,216.09318 77.8164016,215.56492 76,215.296988 C77.4127354,216.462753 78.9854706,217.422278 80.6707126,218.146589 C82.3342254,218.921967 84.1019523,219.453674 85.9188202,219.725145 C84.5019363,218.570614 82.9298587,217.618389 81.2481075,216.896045 L81.2481075,216.865294 Z M150.329287,206.02041 C148.670156,205.245132 146.905332,204.716707 145.09149,204.452104 C146.499061,205.619797 148.068689,206.579546 149.751892,207.301705 C151.417686,208.071154 153.18454,208.602599 155,208.880261 C153.598362,207.725463 152.039845,206.773043 150.37053,206.051161 L150.329287,206.02041 Z M134.976768,146.568306 C133.314085,145.802279 131.550635,145.274266 129.738972,145 C131.146229,146.17084 132.715819,147.134017 134.399374,147.859851 C136.065654,148.625897 137.832508,149.15389 139.647481,149.428157 C138.245826,148.262442 136.687704,147.296464 135.018011,146.558055 L134.976768,146.568306 Z M119.201514,253.592344 C118.578491,254.960332 118.10159,256.389543 117.778648,257.856495 L118.273558,258 C119.148812,256.806758 119.89529,255.525235 120.500653,254.176615 C121.269786,252.519539 121.800822,250.763215 122.078178,248.95918 C120.904011,250.36076 119.9355,251.920648 119.201514,253.592344 Z M101.157922,187.313498 C100.186315,188.579564 99.3694856,189.955929 98.724615,191.413643 C97.9461668,193.064412 97.4113783,194.818209 97.1367789,196.620827 C98.3145017,195.221795 99.2833414,193.661378 100.013443,191.987663 C100.670344,190.550836 101.161508,189.044692 101.477552,187.498004 L101.477552,187.498004 L101.157922,187.313498 Z" id="Shape" fill="#37474F"></path>
                    <path d="M115.6367,195.092554 C118.450168,198.219757 120.963041,201.615689 123.140707,205.233577 C125.273043,208.690255 127.228757,212.257333 129,215.920493 C129,216.004477 128.835529,216.046469 128.784131,215.920493 C126.728239,212.414177 124.250889,208.991844 121.979128,205.538017 C119.707367,202.084191 117.065545,198.745842 115.019932,195.239525 C114.886299,195.050562 115.461949,194.893093 115.6367,195.092554 Z" id="Path" fill="#263238"></path>
                    <path d="M148.012863,172 C149.727296,179.050721 156.513165,203.415221 157.714295,210.55831 C159.037538,217.677017 159.871043,224.878041 160.208949,232.110732 C160.32739,235.688012 160.183278,239.269158 159.777774,242.825365 C159.449896,246.352688 158.598757,249.811593 157.252322,253.088424 C155.965581,256.260175 153.547641,258.841969 150.466453,260.334143 C147.250937,261.62432 143.771735,262.120701 140.32358,261.781234 C133.250261,261.380975 126.269336,259.338626 119.37054,257.244962 C112.471744,255.151298 105.655076,252.647112 98.8384089,250.183978 C92.0217414,247.720844 85.2461381,245.165343 78.4910669,242.517474 C71.7359958,239.869605 64.9706585,237.252525 58.2566516,234.522551 L58.307982,234.697023 L60.1148095,230.96127 L58.0615964,234.58413 L58,234.697023 L58.1231928,234.748338 C64.7140069,237.827256 71.3356192,240.772754 78.0085618,243.615621 C84.6815045,246.458488 91.4160435,249.208988 98.1813807,251.826067 C104.946718,254.443147 111.80445,256.906281 118.713512,259.143628 C125.622574,261.380975 132.695893,263.525954 140.159323,263.926213 C143.967751,264.227292 147.792568,263.604093 151.30827,262.109652 C153.077049,261.279477 154.659094,260.0994 155.958798,258.640738 C157.238886,257.197969 158.278748,255.558933 159.038618,253.786312 C160.42834,250.323784 161.300054,246.675414 161.625666,242.958785 C162.014956,239.32543 162.100804,235.665969 161.882318,232.018365 C160.188417,207.787284 152.22195,185.885918 148.012863,172 Z" id="Path" fill="#263238"></path>
                    <path d="M115.952915,158 C115.829008,161.004669 115.808357,163.999014 115.725752,167.003683 L115.643148,175.997041 C115.560543,181.996055 115.643148,188.005394 115.508915,193.963106 L115.457287,195.067916 L115.457287,195.594507 L115.457287,195.842315 L115.457287,195.924918 L115.457287,195.924918 L115.457287,195.924918 L115.519241,195.801014 C115.616627,195.654976 115.763181,195.548727 115.932264,195.501579 L116.045845,195.501579 C116.113849,195.486434 116.184353,195.486434 116.252357,195.501579 L116.345287,195.501579 C116.345287,195.501579 116.345287,195.501579 116.345287,195.501579 L116.293659,195.501579 L116.097473,195.398326 L115.622497,195.150518 L114.662218,194.603276 C113.381847,193.849527 112.101475,193.064803 110.831429,192.280078 L103.149201,187.602706 L95.4566468,182.945984 L87.6298601,178.309914 L87.5575811,178.309914 L87.5575811,178.382191 L87,179.62123 L87.6918136,178.454468 L87.5782323,178.454468 C90.0253938,180.209773 92.4725553,181.944428 94.9506935,183.617131 L102.405759,188.655889 C104.904549,190.328592 107.423989,191.939342 109.953755,193.570744 C111.234127,194.365794 112.504173,195.160844 113.805195,195.935243 L114.786125,196.513461 L115.312729,196.792245 C115.407325,196.850566 115.507666,196.899005 115.612171,196.936799 L115.68445,196.936799 L115.746404,196.936799 L115.901287,196.988426 C116.014344,197.003858 116.128974,197.003858 116.242031,196.988426 L116.427892,196.988426 C116.610778,196.91389 116.768453,196.78847 116.882217,196.62704 L116.964822,196.482485 L116.964822,196.482485 L116.964822,196.389557 C116.969239,196.344923 116.969239,196.299962 116.964822,196.255328 L116.964822,196.059147 L116.964822,195.749387 L116.964822,195.150518 L116.964822,194.004407 C117.057752,187.974418 116.964822,181.985729 116.706682,175.986716 L116.324636,166.983032 C116.334961,163.988688 116.159427,160.994344 115.952915,158 Z" id="Path" fill="#263238"></path>
                    <path d="M83.4945682,218.16376 C86.8059982,211.701004 90.0761643,205.207324 93.6454939,198.857949 C95.7086901,195.260657 97.6687266,191.64275 99.7319229,188.055765 C99.8144507,187.921769 100.051718,188.055765 99.9898224,188.179454 C96.895028,194.796823 93.8002336,201.424499 90.4372236,207.90787 C87.0742137,214.391242 83.7730997,220.833384 80.3275619,227.234296 C78.3675255,230.883126 76.3043292,234.449496 74.1379731,237.974636 C74.1379731,238.03648 73.9729174,237.974636 74.0038653,237.902484 C76.8304442,231.182041 80.1418742,224.678054 83.4945682,218.16376 Z" id="Path" fill="#263238"></path>
                    <path d="M114,165 C114.380635,168.405874 115.050765,171.756521 116,175 C115.82474,173.296391 115.564867,171.606743 115.221757,169.94 C114.892483,168.267215 114.484584,166.617933 114,165 Z" id="Path" fill="#263238"></path>
                    <path d="M82.0924494,121.896003 C82.0924494,121.896003 80.5280205,139.077836 90.2701461,139.959753 C100.012272,140.841671 114.965774,126.990375 121,121.896003 C114.925229,116.95109 107.252986,114.518068 99.5043402,115.079297 C88.0047717,115.732954 82.0924494,121.896003 82.0924494,121.896003 Z" id="Path" fill="#D3766A"></path>
                </g>
                <g id="freepik--Device--inject-5" transform="translate(45.374762, 352.439205)">
                    <rect id="Rectangle" fill="#A6A6A6" x="96.5323336" y="85.52015" width="138.583337" height="6.21516302"></rect>
                    <rect id="Rectangle" fill="#C7C7C7" x="165.355399" y="85.52015" width="69.7479406" height="6.21516302"></rect>
                    <polygon id="Path" fill="#C7C7C7" points="154.145908 91.7229813 19.0894293 91.7229813 1.75243609e-14 0 135.068811 0"></polygon>
                    <path d="M87.5425443,47.9085483 C87.8490582,50.2101855 87.1345163,52.5308428 85.5864552,54.2614471 C84.0383941,55.9920514 81.8113995,56.9597887 79.489962,56.9106694 C74.3982034,56.7958921 70.1613973,52.9633413 69.5383022,47.9085483 C69.2314174,45.6047325 69.947539,43.2819432 71.4983894,41.5508716 C73.0492398,39.8198001 75.2796499,38.8536473 77.6032161,38.9064273 C82.6944377,39.0167271 86.9301948,42.8530828 87.5425443,47.9085483 Z" id="Path" fill="#FFFFFF"></path>
                </g>
                <g id="freepik--speech-bubbles--inject-5" transform="translate(0.000000, 144.383233)">
                    <path d="M1.45925884,162.431052 C-1.85774362,172.122125 0.579727577,182.855423 7.75709202,190.163285 C14.9344565,197.471147 25.6220974,200.1016 35.3713587,196.959735 L46.8274826,204.358739 L45.5943153,190.892552 C53.8188689,183.187505 56.4087789,171.192711 52.096068,160.780624 C47.7833572,150.368537 37.4705419,143.718082 26.206606,144.085212 C14.9426701,144.452343 5.08480511,151.760229 1.45925884,162.431052 L1.45925884,162.431052 Z" id="Path" fill="#216DF2"></path>
                    <polygon id="Rectangle" fill="#FFFFFF" transform="translate(27.064175, 171.546360) rotate(-45.000000) translate(-27.064175, -171.546360) " points="25.2267556 159.183858 28.901594 159.183858 28.901594 183.908861 25.2267556 183.908861"></polygon>
                    <polygon id="Rectangle" fill="#FFFFFF" transform="translate(27.057610, 171.548521) rotate(45.000000) translate(-27.057610, -171.548521) " points="25.2201905 159.18602 28.8950289 159.18602 28.8950289 183.911023 25.2201905 183.911023"></polygon>
                    <path d="M153.762634,25.6546113 C153.948208,35.0037521 159.391444,43.4486048 167.8295,47.4785039 C176.267556,51.508403 186.257053,50.434011 193.645191,44.7019706 L205.824843,47.547041 L200.54728,36.3730486 C202.404531,32.7493528 203.329191,28.7198448 203.237634,24.648952 C203.202542,15.7103477 198.349676,7.48542221 190.542506,3.1324948 C182.735336,-1.2204326 173.187488,-1.0246984 165.565276,3.6445367 C157.943064,8.31377179 153.431361,16.7306742 153.762634,25.6632067 L153.762634,25.6546113 Z" id="Path" fill="#FFFFFF"></path>
                    <path d="M154.23747,25.6241587 C154.354258,30.1950525 155.733561,34.6444873 158.222702,38.4799404 C158.836997,39.4313823 159.512632,40.341786 160.245315,41.2053661 C160.998936,42.0533196 161.806213,42.8520204 162.662165,43.5965415 C163.507905,44.3494136 164.407314,45.0397355 165.353268,45.6620371 C165.816069,45.9877169 166.330292,46.236262 166.810234,46.5190892 L167.547288,46.9390448 C167.795829,47.0761731 168.061511,47.1790194 168.318623,47.2990066 C170.36349,48.2632773 172.532609,48.9382528 174.763557,49.3045086 C175.877786,49.4827048 177.003443,49.5800914 178.131721,49.5959063 C179.258698,49.6459854 180.387875,49.6058617 181.508455,49.475919 C186.002463,48.9607211 190.264111,47.2038035 193.815536,44.4021705 L193.926952,44.3164653 L194.072648,44.3164653 L206.234033,47.0847436 L205.805514,47.6075454 L200.517582,36.4658679 L200.431878,36.285887 L200.517582,36.105906 C202.179163,32.8138465 203.081197,29.1910132 203.157263,25.5041714 C203.225182,21.8105075 202.451442,18.1498416 200.89468,14.7995904 C199.318228,11.4602069 197.030814,8.50583009 194.192634,6.14336407 C191.327835,3.7923786 187.96191,2.12991504 184.353825,1.28387857 C180.733478,0.424324695 176.965577,0.395024864 173.332302,1.19817336 C169.697889,2.04163685 166.298154,3.68735614 163.382078,6.01480625 C157.482964,10.7990397 154.110953,18.0298529 154.23747,25.6241587 L154.23747,25.6241587 Z M153.240129,25.1835464 C153.070699,17.5186915 156.440907,10.2019682 162.379094,5.34285251 C168.301802,0.419247464 176.181513,-1.47151744 183.697587,0.227404054 C187.431042,1.0394099 190.927428,2.69818919 193.916298,5.07543446 C196.905309,7.47113301 199.312165,10.5118001 200.956238,13.9692411 C204.294033,20.9923763 204.172732,29.166033 200.627995,36.0873016 L200.627995,35.7249933 L205.897153,46.9392985 L206.234033,47.6466623 L205.465254,47.4655082 L193.242537,44.5411624 L193.501675,44.4807777 C189.805138,47.3069419 185.39312,49.0484741 180.76068,49.5099623 C179.612549,49.6234763 178.457252,49.6465513 177.305495,49.5789734 C176.146975,49.5467759 174.992272,49.4314603 173.850309,49.2339179 C171.585864,48.8222212 169.388635,48.102403 167.320009,47.0945735 C165.24735,46.0979791 163.327658,44.8111854 161.618953,43.2730833 C160.758865,42.5176665 159.948116,41.7080037 159.191686,40.8490681 C158.455809,39.9708439 157.777745,39.0458788 157.161764,38.0799974 C154.693687,34.2222931 153.336888,29.7604053 153.240129,25.1835464 L153.240129,25.1835464 Z" id="Shape" fill="#263238"></path>
                    <path d="M174.147491,29.6167668 C174.129996,28.5670773 174.312094,27.5241536 174.683299,26.5480569 C175.147414,25.5244845 175.92484,24.6904044 176.893509,24.176781 C177.228389,23.9675508 177.646989,23.7234488 178.132566,23.4619111 C178.639053,23.1828349 179.123373,22.8621621 179.580922,22.5029392 C180.041503,22.1357013 180.442828,21.6942497 180.769747,21.1952503 C181.095346,20.6776681 181.264483,20.0703383 181.255323,19.4516651 C181.262657,19.0058335 181.170972,18.5642656 180.987419,18.161412 C180.810596,17.8052068 180.572191,17.4860214 180.284171,17.219876 C179.981699,16.9625727 179.635116,16.7673294 179.262786,16.6444929 C178.87565,16.516463 178.47178,16.4517618 178.065589,16.4526985 C177.60688,16.4469366 177.151616,16.5358257 176.726069,16.7142363 C176.337002,16.8845444 175.971088,17.1073017 175.637708,17.3767987 C175.332204,17.6384966 175.051821,17.9304639 174.800507,18.2485913 C174.564994,18.5546606 174.346947,18.8748692 174.147491,19.2075632 L171.234033,17.1152609 C171.513374,16.4131331 171.903912,15.7648113 172.38937,15.1973172 C172.875065,14.6403783 173.439732,14.1640998 174.063771,13.7850132 C174.685799,13.3993697 175.356438,13.1059459 176.056308,12.9132206 C176.777393,12.7140135 177.520492,12.6143569 178.266518,12.6167668 C179.117306,12.6149529 179.963675,12.7442161 180.778119,13.0003998 C181.590729,13.249657 182.347696,13.6645219 183.005073,14.2209095 C183.685587,14.8042203 184.234392,15.5364298 184.612498,16.3655193 C185.045268,17.3429117 185.257201,18.410574 185.232026,19.4865368 C185.242249,20.1554672 185.157618,20.8223069 184.980866,21.465506 C184.818007,22.0178702 184.575219,22.5411471 184.260873,23.0172968 C183.946788,23.484262 183.575253,23.9063208 183.155769,24.2726782 C182.698886,24.6652796 182.217868,25.0263891 181.715784,25.353701 C181.263695,25.6326746 180.819979,25.9029304 180.376263,26.1557502 C179.94251,26.4041646 179.533125,26.6961515 179.15395,27.0275428 C178.791501,27.3296521 178.482654,27.6955182 178.241402,28.1085656 C177.996985,28.5601074 177.875417,29.0724965 177.889777,29.5906131 L174.147491,29.6167668 Z M174.234033,37.6167668 L174.234033,32.6167668 L178.234033,32.6167668 L178.234033,37.6167668 L174.234033,37.6167668 Z" id="Shape" fill="#216DF2"></path>
                </g>
            </g>
        </g>
    </g>
</svg>