<?xml version="1.0" encoding="UTF-8"?>
<svg width="520px" height="520px" viewBox="0 0 520 520" version="1.1" xmlns="http://www.w3.org/2000/svg" xmlns:xlink="http://www.w3.org/1999/xlink">
    <title>Group 21</title>
    <g id="Error" stroke="none" stroke-width="1" fill="none" fill-rule="evenodd">
        <g id="Group-21">
            <rect id="Rectangle-Copy-11" fill-opacity="0" fill="#D8D8D8" x="0" y="0" width="520" height="520"></rect>
            <g id="404-Error-amico-(1)-Copy" transform="translate(10.000000, 13.000000)" fill-rule="nonzero">
                <g id="freepik--Floor--inject-20" transform="translate(0.000000, 236.134441)" fill="#F5F5F5">
                    <ellipse id="freepik--floor--inject-20" cx="250" cy="129.374558" rx="250" ry="129.374558"></ellipse>
                </g>
                <g id="freepik--Shadows--inject-20" transform="translate(24.601036, 254.865175)" fill="#E0E0E0">
                    <ellipse id="freepik--Shadow--inject-20" cx="378.89861" cy="150.748272" rx="51.2775165" ry="29.6075902"></ellipse>
                    <path d="M47.4309226,179.586023 L1.9271982,153.307467 C-0.642399401,151.830208 -0.642399401,149.427062 1.9271982,147.949804 L256.556635,1.10822388 C259.477061,-0.369407961 262.926293,-0.369407961 265.846719,1.10822388 L311.360846,27.3867807 C313.920041,28.8640393 313.920041,31.2671852 311.360846,32.7444438 L56.7210062,179.586023 C53.8005799,181.063655 50.3513488,181.063655 47.4309226,179.586023 Z" id="freepik--shadow--inject-20"></path>
                </g>
                <g id="freepik--device--inject-20" transform="translate(48.333403, 0.000000)">
                    <path d="M177.208606,393.618524 L216.324747,370.991501 C220.3612,368.671581 222.379427,365.613031 222.379427,362.564885 C222.379427,359.516739 222.379427,357.123996 222.379427,357.123996 L181.806833,334.236892 C179.505147,332.736278 178.056249,330.228719 177.905622,327.485197 L177.905622,279.255826 L109.577213,318.788097 L109.577213,367.027871 C109.722091,369.767693 111.168129,372.273129 113.46802,373.769163 L148.027548,393.618524 C156.069244,398.268768 169.146103,398.268768 177.208606,393.618524 Z" id="Path" fill="#216DF2"></path>
                    <g id="Group" opacity="0.6" transform="translate(109.577213, 279.255826)" fill="#000000">
                        <path d="M67.6313928,114.362698 L106.747534,91.7356748 C110.783987,89.4157547 112.802214,86.3572053 112.802214,83.3090591 C112.802214,80.260913 112.802214,77.8681703 112.802214,77.8681703 L72.2296201,54.9810661 C69.9279344,53.4804515 68.4790366,50.9728924 68.3284091,48.2293704 L68.3284091,0 L-2.95677556e-14,39.5322708 L-2.95677556e-14,87.7720444 C0.144878326,90.5118672 1.59091655,93.0173024 3.89080771,94.5133369 L38.450335,114.362698 C46.4920311,119.012942 59.5688902,119.012942 67.6313928,114.362698 Z" id="Path"></path>
                    </g>
                    <path d="M125.983105,375.516906 L125.983105,380.989004 L113.49923,373.769163 C111.20561,372.267192 109.761578,369.765233 109.608422,367.027871 L109.608422,318.746484 L122.591652,311.287369 C122.851733,314.585192 123.153427,318.007855 123.423911,321.336888 L114.289876,326.621729 L114.289876,364.302225 C114.424652,367.045031 115.873155,369.554737 118.180683,371.043517 L125.983105,375.516906 Z" id="Path" fill="#000000" opacity="0.3"></path>
                    <path d="M114.289876,364.260612 C114.434754,367.000434 115.880792,369.50587 118.180683,371.001904 L148.027548,388.177636 C156.09005,392.827879 169.166909,392.838282 177.239815,388.177636 L216.376763,365.561015 C224.439266,360.910772 224.439266,353.358028 216.376763,348.697381 L186.519496,331.521649 C184.220518,330.019909 182.775305,327.512038 182.628688,324.769954 L182.628688,287.079055 L114.300279,326.611325 L114.289876,364.260612 Z" id="Path" fill="#216DF2"></path>
                    <path d="M114.289876,364.260612 C114.434754,367.000434 115.880792,369.50587 118.180683,371.001904 L148.027548,388.177636 C156.09005,392.827879 169.166909,392.838282 177.239815,388.177636 L216.376763,365.561015 C224.439266,360.910772 224.439266,353.358028 216.376763,348.697381 L186.519496,331.521649 C184.220518,330.019909 182.775305,327.512038 182.628688,324.769954 L182.628688,287.079055 L114.300279,326.611325 L114.289876,364.260612 Z" id="Path" fill="#455A64"></path>
                    <path d="M194.446756,336.09907 L194.446756,336.09907 L186.519496,331.521649 C184.220518,330.019909 182.775305,327.512038 182.628688,324.769954 L182.628688,287.079055 L114.300279,326.611325 L114.300279,364.302225 C114.445157,367.042047 115.891195,369.547483 118.191087,371.043517 L125.993508,375.548115 L194.446756,336.09907 Z" id="Path" fill="#000000" opacity="0.5"></path>
                    <path d="M222.38983,357.123996 L222.38983,362.564885 C222.38983,365.623435 220.309184,368.661178 216.33515,371.001904 L177.208606,393.608121 C172.921166,395.901445 168.130488,397.091964 163.268278,397.072634 L163.268278,391.652314 C168.130488,391.671882 172.921166,390.481362 177.208606,388.188039 L216.33515,365.561015 C220.3612,363.241095 222.38983,360.182546 222.38983,357.123996 Z" id="Path" fill="#216DF2"></path>
                    <path d="M222.38983,357.123996 L222.38983,362.564885 C222.38983,365.623435 220.309184,368.661178 216.33515,371.001904 L177.208606,393.608121 C172.921166,395.901445 168.130488,397.091964 163.268278,397.072634 L163.268278,391.652314 C168.130488,391.671882 172.921166,390.481362 177.208606,388.188039 L216.33515,365.561015 C220.3612,363.241095 222.38983,360.182546 222.38983,357.123996 Z" id="Path" fill="#000000" opacity="0.5"></path>
                    <path d="M4.5670176,411.158369 C7.55962096,412.611486 11.0666977,412.545753 14.0027465,410.981514 L278.244767,258.407755 C280.9288,256.857674 283.103075,253.081302 283.103075,254.142431 L283.103075,13.4637243 C283.103075,6.1814639 281.022429,2.49872077 278.536058,1.04226869 C275.546311,-0.407313998 272.043994,-0.341597236 269.110732,1.21912359 L4.87911448,153.792882 C2.0032146,155.662662 0.193925963,158.794123 0.0104032292,162.219498 L0.0104032292,402.835785 C0.102081965,406.181439 1.79781156,409.278662 4.5670176,411.158369 Z" id="Path" fill="#216DF2"></path>
                    <path d="M14.0027465,410.929498 L278.244767,258.355739 C280.9288,256.805658 283.113478,253.029285 283.113478,254.080012 L283.113478,13.4533211 C283.113478,6.17106067 280.9288,4.9330764 278.244767,6.48315754 L14.0027465,159.056916 C11.1268466,160.926696 9.31755794,164.058157 9.1340352,167.483532 L9.1340352,408.110223 C9.1340352,411.220788 11.3187133,412.479579 14.0027465,410.929498 Z" id="Path" fill="#216DF2"></path>
                    <path d="M14.0027465,410.929498 L278.244767,258.355739 C280.9288,256.805658 283.113478,253.029285 283.113478,254.080012 L283.113478,13.4533211 C283.113478,6.17106067 280.9288,4.9330764 278.244767,6.48315754 L14.0027465,159.056916 C11.1268466,160.926696 9.31755794,164.058157 9.1340352,167.483532 L9.1340352,408.110223 C9.1340352,411.220788 11.3187133,412.479579 14.0027465,410.929498 Z" id="Path" fill="#455A64"></path>
                    <path d="M13.2849236,416.484822 C10.4892777,417.689476 7.30835767,417.621151 4.5670176,416.297564 C1.81135616,414.43293 0.113832303,411.362693 0,408.0374 L0,392.723847 L9.1340352,398.008687 L9.1340352,413.311837 C9.1340352,416.141515 10.9337938,417.400306 13.2849236,416.484822 Z" id="Path" fill="#216DF2"></path>
                    <path d="M13.2849236,416.484822 C10.4892777,417.689476 7.30835767,417.621151 4.5670176,416.297564 C1.81135616,414.43293 0.113832303,411.362693 0,408.0374 L0,392.723847 L9.1340352,398.008687 L9.1340352,413.311837 C9.1340352,416.141515 10.9337938,417.400306 13.2849236,416.484822 Z" id="Path" fill="#222C31"></path>
                    <path d="M9.1340352,398.008687 L9.1340352,413.301434 C9.1340352,416.422403 11.3187133,417.67079 14.0027465,416.110306 L278.244767,263.54695 C281.119755,261.671464 282.928219,258.537567 283.113478,255.109931 L283.113478,239.775572 L9.1340352,398.008687 Z" id="Path" fill="#216DF2"></path>
                    <path d="M9.1340352,397.967074 L9.1340352,413.301434 C9.1340352,416.422403 11.3187133,417.67079 14.0027465,416.110306 L278.244767,263.54695 C281.119755,261.671464 282.928219,258.537567 283.113478,255.109931 L283.113478,239.775572 L9.1340352,397.967074 Z" id="Path" fill="#263238"></path>
                    <path d="M18.2680704,378.78352 L18.2680704,170.521275 C18.3817068,168.463795 19.4669548,166.582956 21.1913778,165.454902 L271.076942,21.1829203 C272.689443,20.257033 274.00025,21.0060655 274.00025,22.8682435 L274.00025,231.182504 C273.886677,233.237227 272.801013,235.114924 271.076942,236.238474 L21.1913778,380.479246 C19.5788773,381.405133 18.2680704,380.645698 18.2680704,378.78352 Z" id="Path" fill="#216DF2"></path>
                    <path d="M18.2680704,378.78352 L18.2680704,170.521275 C18.3817068,168.463795 19.4669548,166.582956 21.1913778,165.454902 L271.076942,21.1829203 C272.689443,20.257033 274.00025,21.0060655 274.00025,22.8682435 L274.00025,231.182504 C273.886677,233.237227 272.801013,235.114924 271.076942,236.238474 L21.1913778,380.479246 C19.5788773,381.405133 18.2680704,380.645698 18.2680704,378.78352 Z" id="Path" fill="#FFFFFF"></path>
                    <path d="M10.5696808,162.666837 C9.70464855,164.130932 9.21171471,165.784761 9.1340352,167.483532 L9.1340352,398.008687 L0,392.723847 L0,162.219498 C0.0627835334,160.522947 0.55302312,158.86973 1.4252424,157.413206 L10.5696808,162.666837 Z" id="Path" fill="#263238"></path>
                    <path d="M283.092672,8.49098077 C282.749365,5.98380254 280.720736,5.07872161 278.265574,6.48315754 L14.0235529,159.056916 C12.584596,159.94884 11.3988818,161.195452 10.5800841,162.67724 L1.44604885,157.402803 C2.27079297,155.925384 3.45522202,154.680123 4.88951771,153.782479 L269.141942,1.27113973 C272.07799,-0.293099386 275.585067,-0.358832908 278.577671,1.09428484 C281.076667,2.79552351 282.721825,5.4907026 283.092672,8.49098077 Z" id="Path" fill="#263238"></path>
                </g>
                <g id="freepik--window--inject-20" transform="translate(66.720004, 21.369559)">
                    <path d="M6.98446083,370.1059 C6.40540849,370.44763 5.75217304,370.643957 5.0806699,370.678078 C4.12319697,370.803291 3.15033147,370.632677 2.29260448,370.189126 C0.911953935,369.246978 0.0681684506,367.698747 0.0247005242,366.027834 L0.0247005242,177.105193 L4.59171813,179.73721 L4.59171813,368.701464 C4.59171813,369.804207 5.14308927,370.438804 5.93373469,370.438804 C6.30461054,370.408546 6.66382742,370.294735 6.98446083,370.1059 Z" id="Path" fill="#F0F0F0"></path>
                    <path d="M258.149622,222.29682 C258.047332,223.989847 257.147894,225.533947 255.72567,226.458112 L6.98446083,370.1059 C5.6528475,370.875739 4.57091167,370.251545 4.57091167,368.701464 L4.57091167,164.038737 L11.2393816,160.189542 C12.5709949,159.419703 14.7452698,147.705667 16.0872864,146.883812 L73.9292405,113.489447 C75.2712571,112.719608 78.4234355,121.406304 79.7550488,120.626062 L258.149622,17.634093 L258.149622,222.29682 Z" id="Path" fill="#FAFAFA"></path>
                    <path d="M257.026074,19.537884 L257.026074,222.29682 C256.932196,223.600337 256.245912,224.788875 255.163896,225.521821 L6.42268646,369.1384 C6.26877716,369.236077 6.09426136,369.296623 5.91292823,369.315255 C5.68405719,369.315255 5.68405719,368.732674 5.68405719,368.701464 L5.68405719,164.673334 L11.8011559,161.136236 C12.7686562,160.574462 13.3720435,158.691477 14.7348666,153.853976 C15.2212678,151.780921 15.8896671,149.754836 16.7322866,147.799296 L74.0540792,114.706624 C74.7338828,115.626406 75.3425049,116.596723 75.8746443,117.609125 C77.4351287,120.355578 78.309,121.770417 79.5781939,121.770417 C79.8388698,121.77043 80.0944821,121.698427 80.3168232,121.562352 L257.026074,19.537884 M258.149622,17.6028834 L79.7550488,120.594852 C79.7017312,120.627518 79.640707,120.645466 79.5781939,120.646868 C78.2257741,120.646868 75.4169023,113.364608 74.1060954,113.364608 C74.0481554,113.349163 73.9871805,113.349163 73.9292405,113.364608 L16.0872864,146.758973 C14.7452698,147.539216 12.5709949,159.242848 11.2393816,160.064704 L4.57091167,164.038737 L4.57091167,368.701464 C4.57091167,369.804207 5.11187958,370.438804 5.91292823,370.438804 C6.28316177,370.422465 6.64231263,370.307536 6.95325115,370.1059 L255.72567,226.458112 C257.147894,225.533947 258.047332,223.989847 258.149622,222.29682 L258.149622,17.6028834 L258.149622,17.6028834 Z" id="Shape" fill="#E0E0E0"></path>
                    <path d="M2.29260448,171.477046 C0.908001462,170.537192 0.0601366629,168.988581 0.014297295,167.315754 L0.014297295,148.433893 C0.11112173,146.747109 0.99793535,145.204825 2.40704,144.272602 L251.148249,0.708039193 C252.57483,-0.196113111 254.385628,-0.232744259 255.847607,0.612974568 C257.309586,1.45869339 258.180585,3.04667786 258.10801,4.73408888 L258.10801,23.5951433 C258.00901,25.2891639 257.108769,26.8346415 255.684057,27.756435 L6.98446083,171.39382 C5.52258103,172.165516 3.78093324,172.19641 2.29260448,171.477046 L2.29260448,171.477046 Z" id="Path" fill="#216DF2"></path>
                    <path d="M258.118413,4.25554034 C257.951961,2.99674961 256.932445,2.53900753 255.72567,3.21521742 L6.98446083,146.863006 C6.27453665,147.323391 5.68579327,147.947816 5.26792802,148.683571 L0.721716878,146.051554 C1.12911513,145.329342 1.70788829,144.718415 2.40704,144.272602 L251.148249,0.708039193 C252.511734,-0.16134424 254.236053,-0.235153042 255.668842,0.51453699 C257.101631,1.26422702 258.024082,2.72292761 258.087203,4.33876617 L258.118413,4.25554034 Z" id="Path" fill="#FFFFFF" opacity="0.4"></path>
                    <path d="M5.26792802,148.683571 C4.83539557,149.404885 4.59538836,150.225208 4.57091167,151.06591 L4.57091167,179.789226 L0.00389406587,177.157209 L0.00389406587,148.433893 C-0.00129802196,148.336866 -0.00129802196,148.23963 0.00389406587,148.142603 C0.0225292675,147.939723 0.0537996553,147.738203 0.0975231283,147.539216 C0.227737244,147.014143 0.430838489,146.509892 0.70091042,146.041151 L5.26792802,148.683571 Z" id="Path" fill="#000000" opacity="0.1"></path>
                    <path d="M258.139219,4.64045982 L258.139219,17.6028834 L79.7446456,120.594852 C78.4130323,121.375094 77.3310964,120.740497 77.3310964,119.200819 L77.3310964,114.290495 C77.3310964,112.750817 76.2907735,112.11622 74.8967408,112.896462 L16.0768831,146.852602 C14.6558957,147.777945 13.7568548,149.321363 13.6529307,151.013894 L13.6529307,155.913815 C13.5457638,157.605362 12.6475092,159.14743 11.2289783,160.075107 L4.57091167,164.038737 L4.57091167,151.06591 C4.67570944,149.376276 5.56989077,147.834585 6.98446083,146.904619 L255.72567,3.34005617 C257.057283,2.46618492 258.139219,3.1007819 258.139219,4.64045982 Z" id="Path" fill="#216DF2"></path>
                    <path d="M246.778893,12.7653818 C248.464216,11.7978815 249.827039,12.5885269 249.827039,14.5339307 C249.710205,16.6803308 248.578293,18.6428275 246.778893,19.8187712 C245.09357,20.7862715 243.720344,19.9956261 243.720344,18.0502222 C243.841184,15.9023863 244.976781,13.9401987 246.778893,12.7653818 L246.778893,12.7653818 Z" id="Path" fill="#FFFFFF"></path>
                    <path d="M235.793083,19.1009484 C237.478406,18.133448 238.841229,18.9136902 238.841229,20.8590941 C238.727715,23.0064788 237.594997,24.9703708 235.793083,26.1439345 C234.10776,27.121838 232.744937,26.3311926 232.744937,24.3857888 C232.861771,22.2393887 233.993683,20.276892 235.793083,19.1009484 L235.793083,19.1009484 Z" id="Path" fill="#FFFFFF"></path>
                    <path d="M224.807273,25.4365149 C226.492596,24.4586114 227.855419,25.2492568 227.855419,27.1946606 C227.738585,29.3410607 226.606673,31.3035574 224.807273,32.4795011 C223.12195,33.4470014 221.759127,32.6667592 221.759127,30.7213553 C221.872642,28.5739706 223.005359,26.6100786 224.807273,25.4365149 Z" id="Path" fill="#FFFFFF"></path>
                    <path d="M258.149622,17.6028834 L258.149622,33.3637755 L4.57091167,179.789226 L4.57091167,164.038737 L9.55405844,161.157043 C10.8856718,160.387204 11.3330106,159.211639 11.9676076,156.995751 L13.663334,151.12833 C14.1938986,149.047684 14.7036569,147.705667 16.0872864,146.967038 L73.9292405,113.572672 C75.2712571,112.802833 76.3219832,112.719608 77.3414997,114.404931 L79.4221455,118.1709 C80.1815812,119.481707 80.5665007,120.251545 81.898114,119.481707 L258.149622,17.6028834 Z" id="Path" fill="#E6E6E6"></path>
                    <polygon id="Path" fill="#E0E0E0" points="4.57091167 164.017931 4.57091167 179.789226 0.00389406587 177.157209 0.00389406587 161.40672"></polygon>
                    <path d="M15.6919636,165.162286 L11.8843818,167.357367 L13.3304306,164.569302 C13.4489461,164.355773 13.4489461,164.096217 13.3304306,163.882689 C13.2159951,163.747447 13.028737,163.882689 12.893495,164.090753 L10.8128492,168.054383 L10.8128492,168.054383 C10.8128492,168.054383 10.8128492,168.148013 10.760833,168.200029 C10.7088169,168.252045 10.760833,168.200029 10.760833,168.200029 C10.7557366,168.265817 10.7557366,168.331901 10.760833,168.39769 C10.753849,168.456435 10.753849,168.5158 10.760833,168.574545 C10.760833,168.574545 10.760833,168.574545 10.760833,168.574545 C10.7758,168.603701 10.7932004,168.631541 10.8128492,168.657771 L10.8128492,168.657771 L12.893495,170.239062 C12.9543053,170.287749 13.0407493,170.287749 13.1015596,170.239062 C13.2080408,170.170031 13.2885527,170.067561 13.3304306,169.947771 C13.4448661,169.68769 13.4240597,169.3964 13.3304306,169.302771 L11.8843818,168.179222 L15.6919636,165.984141 C15.8878123,165.828112 15.9994319,165.589477 15.9936573,165.339141 C15.9936573,165.193495 15.8584153,165.07906 15.6919636,165.162286 Z" id="Path" fill="#455A64" opacity="0.5"></path>
                    <path d="M18.8649485,163.320914 L22.6725304,161.125833 L21.2160783,160.012687 C21.0896773,159.812503 21.0896773,159.557468 21.2160783,159.357284 C21.3201106,159.097203 21.517772,158.972364 21.6426107,159.065994 L23.7232566,160.657688 L23.7232566,160.657688 C23.7515062,160.678977 23.7731479,160.707833 23.7856759,160.740913 C23.7856759,160.740913 23.7856759,160.740913 23.7856759,160.740913 C23.796426,160.799375 23.796426,160.859307 23.7856759,160.917768 C23.7957807,160.986755 23.7957807,161.056846 23.7856759,161.125833 C23.7856759,161.125833 23.7856759,161.125833 23.7856759,161.125833 L23.7232566,161.281881 L23.7232566,161.281881 L21.6426107,165.255915 C21.602564,165.351176 21.5333661,165.431299 21.4449494,165.484786 C21.3807606,165.545555 21.2802671,165.545555 21.2160783,165.484786 C21.0952851,165.275566 21.0952851,165.017796 21.2160783,164.808576 L22.6725304,162.020511 L18.8649485,164.215592 C18.6984969,164.309221 18.5632549,164.215592 18.5632549,163.924302 C18.5728346,163.689265 18.6826674,163.4696 18.8649485,163.320914 Z" id="Path" fill="#455A64" opacity="0.5"></path>
                    <path d="M31.3488235,152.366314 C31.3488235,152.137443 31.1303557,152.158249 31.0263234,152.366314 L30.506162,153.645911 C29.6114843,153.552282 28.5399517,154.41575 27.8117256,155.955428 C26.8650318,157.952848 26.8650318,160.314381 27.8117256,161.219462 C28.2819573,161.658665 28.9977444,161.70231 29.5178552,161.323494 C30.2793058,160.810651 30.8755908,160.087881 31.234388,159.242848 C31.3512179,159.036288 31.3512179,158.783602 31.234388,158.577042 C31.1095493,158.462606 30.9222911,158.577042 30.7974524,158.826719 C30.0900328,160.314381 28.9456776,160.980188 28.2486612,160.303978 C27.5516449,159.627768 27.5412417,157.859219 28.2486612,156.371557 C28.7480162,155.331234 29.4658391,154.686234 30.0900328,154.644621 L29.7051133,155.612121 C29.601081,155.861799 29.7051133,156.09067 29.8507585,155.986638 L31.4008397,154.946315 C31.5307129,154.849799 31.5983418,154.690672 31.5776946,154.530186 L31.3488235,152.366314 Z" id="Path" fill="#455A64" opacity="0.5"></path>
                    <path d="M72.2543206,120.667675 L73.6483533,117.733964 C73.8077149,117.449608 73.8077149,117.102836 73.6483533,116.81848 C73.4819016,116.662431 73.2114177,116.81848 73.0553692,117.161786 L71.6613365,120.095497 L70.2777071,118.763884 C70.1112554,118.607835 69.8511747,118.763884 69.684723,119.10719 C69.5144639,119.388603 69.5144639,119.741261 69.684723,120.022674 L71.0683525,121.385497 L69.684723,124.319208 C69.5144639,124.600621 69.5144639,124.953279 69.684723,125.234692 C69.7676536,125.308868 69.8930828,125.308868 69.9760134,125.234692 C70.1118204,125.14745 70.217227,125.020235 70.2777071,124.870579 L71.6613365,121.936869 L73.0553692,123.268482 C73.1382998,123.342657 73.2637291,123.342657 73.3466597,123.268482 C73.4824667,123.18124 73.5878732,123.054025 73.6483533,122.904369 C73.8077149,122.620013 73.8077149,122.273241 73.6483533,121.988885 L72.2543206,120.667675 Z" id="Path" fill="#455A64" opacity="0.5"></path>
                    <path d="M36.4047929,155.976234 L36.4047929,151.06591 C36.5070836,149.372884 37.4065217,147.828784 38.8287453,146.904619 L242.076633,29.5665969 C243.41865,28.7863547 244.500586,29.4209517 244.500586,30.9606296 L244.500586,35.8709538 C244.398295,37.5639801 243.498857,39.1080799 242.076633,40.0322454 L38.8183421,157.370267 C37.4867287,158.150509 36.4047929,157.515912 36.4047929,155.976234 Z" id="Path" fill="#FAFAFA"></path>
                    <path d="M238.77881,40.4483746 C238.706469,40.460216 238.632683,40.460216 238.560342,40.4483746 C238.280134,40.3186727 238.128458,40.0109862 238.196229,39.7097453 L238.435503,37.7227286 L237.499213,37.0465187 C237.334097,36.9166326 237.241251,36.7154672 237.249535,36.5055507 C237.241297,36.1780907 237.387769,35.865875 237.644858,35.6628892 L239.0701,34.5601469 C239.098244,34.5264877 239.119457,34.4875971 239.13252,34.4457114 L239.767117,32.3650655 C239.846821,32.0147785 240.130522,31.7475239 240.484939,31.6888556 C240.725609,31.6615452 240.955099,31.7975397 241.046714,32.021759 L241.046714,32.021759 L241.577278,33.1557109 L242.784053,32.6979689 C243.004392,32.5995352 243.263283,32.6589528 243.41865,32.8436141 C243.62102,33.1381726 243.62102,33.5269591 243.41865,33.8215176 L242.378327,35.7565182 C242.373647,35.7945199 242.373647,35.8329521 242.378327,35.8709538 L242.628005,37.6186963 C242.66684,37.9428196 242.551284,38.2663766 242.315908,38.4925675 C242.17739,38.6553497 241.966234,38.7374662 241.754133,38.7110353 L240.640988,38.5341804 L239.382197,40.1362777 C239.246138,40.3349202 239.019552,40.4521198 238.77881,40.4483746 L238.77881,40.4483746 Z M238.092197,36.3911152 L239.028487,37.0673251 C239.225313,37.2282676 239.320633,37.4824543 239.278165,37.7331318 L239.111713,39.0647451 L239.954375,38.0244222 C240.101139,37.8160878 240.344932,37.6981239 240.599375,37.7123253 L241.764537,37.8579705 C241.772305,37.8132245 241.772305,37.7674745 241.764537,37.7227286 L241.514859,35.9749861 C241.495429,35.7592374 241.538782,35.5424718 241.639698,35.3507923 L242.544779,33.6550659 L241.681311,33.9983725 C241.396829,34.1156955 241.070503,33.9870036 240.942681,33.7070821 L240.526552,32.8124044 L239.954375,34.6745824 C239.894915,34.8841021 239.771199,35.0696771 239.600665,35.2051471 L238.175423,36.24547 C238.13447,36.2851747 238.105613,36.3356754 238.092197,36.3911152 L238.092197,36.3911152 Z" id="Shape" fill="#E0E0E0"></path>
                    <g id="Group" opacity="0.5" transform="translate(246.504875, 23.321733)" fill="#455A64">
                        <path d="M0.856599062,5.64147664 C0.472595538,5.65267345 0.130823191,5.39957945 0.0295332129,5.02900636 C-0.0717567652,4.65843327 0.0937575752,4.2666809 0.430066667,4.08099227 L7.254585,0.138168414 C7.51574179,-0.0332249768 7.85028394,-0.0460866492 8.12382906,0.104749808 C8.39737417,0.255586265 8.56503415,0.545368944 8.55946159,0.857694918 C8.55388902,1.17002089 8.37599835,1.4536382 8.09724656,1.5946205 L1.27272823,5.52704112 C1.14800412,5.60462643 1.00345672,5.64437697 0.856599062,5.64147664 Z" id="Path"></path>
                        <path d="M0.856599062,9.63631664 C0.556596805,9.63900221 0.27836814,9.4800144 0.128373021,9.22018747 C-0.101895172,8.8172823 0.0321497589,8.30421377 0.430066667,8.06542904 L7.254585,4.13300841 C7.44764019,4.01953768 7.67792121,3.98757626 7.89458174,4.04418127 C8.11124227,4.10078627 8.29646173,4.24130187 8.40934343,4.43470206 C8.52148303,4.62743502 8.55159226,4.85710674 8.49292163,5.07223238 C8.434251,5.28735802 8.29170817,5.46994282 8.09724656,5.57905727 L1.27272823,9.52188112 C1.14800412,9.59946643 1.00345672,9.63921697 0.856599062,9.63631664 L0.856599062,9.63631664 Z" id="Path"></path>
                        <path d="M0.856599062,13.5271283 C0.47530249,13.5282789 0.14074378,13.2732491 0.0408300203,12.905274 C-0.0590837396,12.537299 0.100547852,12.148085 0.430066667,11.9562367 L7.254585,8.01341289 C7.66018346,7.7849408 8.17405746,7.92382566 8.40934343,8.32550976 C8.52148303,8.51824273 8.55159226,8.74791445 8.49292163,8.96304009 C8.434251,9.17816573 8.29170817,9.36075052 8.09724656,9.46986497 L1.27272823,13.4126888 C1.14594118,13.4854427 1.00275914,13.5248178 0.856599062,13.5271283 L0.856599062,13.5271283 Z" id="Path"></path>
                    </g>
                    <g id="freepik--Search--inject-20" transform="translate(11.194234, 48.520590)">
                        <g id="Group" opacity="0.5" transform="translate(0.000000, 130.085457)" fill="#455A64">
                            <path d="M0.856599062,5.59414754 C0.472595538,5.60534435 0.130823191,5.35225035 0.0295332129,4.98167726 C-0.0717567652,4.61110416 0.0937575752,4.2193518 0.430066667,4.03366316 L7.254585,0.0908393109 C7.65345139,-0.110892481 8.14043409,0.0339084504 8.36427777,0.42079877 C8.58812146,0.80768909 8.47093625,1.30204431 8.09724656,1.54729139 L1.27272823,5.47971202 C1.14731484,5.55570929 1.00323706,5.59533068 0.856599062,5.59414754 L0.856599062,5.59414754 Z" id="Path"></path>
                            <path d="M0.856599062,9.53700488 C0.556596805,9.53965696 0.27836814,9.38066915 0.128373021,9.12084222 C0.0149022926,8.92778703 -0.0170591288,8.69750601 0.0395458753,8.48084548 C0.0961508794,8.26418495 0.236666478,8.07896549 0.430066667,7.96608379 L7.254585,4.03366316 C7.44604886,3.92067346 7.67476037,3.88898352 7.88973266,3.94565804 C8.10470495,4.00233255 8.28806645,4.14265991 8.39894021,4.33535681 C8.51241093,4.528412 8.54437236,4.75869302 8.48776735,4.97535355 C8.43116235,5.19201408 8.29064675,5.37723354 8.09724656,5.49011525 L1.27272823,9.42253587 C1.14731484,9.49853314 1.00323706,9.53815453 0.856599062,9.53700488 L0.856599062,9.53700488 Z" id="Path"></path>
                            <path d="M0.856599062,13.5214121 C0.47530249,13.5225627 0.14074378,13.2675329 0.0408300203,12.8995578 C-0.0590837396,12.5315828 0.100547852,12.1423688 0.430066667,11.9505206 L7.254585,8.01809993 C7.44534168,7.90218869 7.67503968,7.86885274 7.89087673,7.92575523 C8.10671378,7.98265773 8.29012205,8.12490352 8.39894021,8.31979358 C8.51192991,8.51125744 8.54361984,8.73996895 8.48694533,8.95494124 C8.43027082,9.16991353 8.28994346,9.35327503 8.09724656,9.46414879 L1.27272823,13.4069726 C1.14543484,13.4785032 1.00256872,13.5177913 0.856599062,13.5214121 L0.856599062,13.5214121 Z" id="Path"></path>
                        </g>
                        <path d="M61.3825863,100.953626 L61.3825863,106.997902 C61.3825863,108.235886 62.2564576,108.735241 63.3279902,108.121451 L144.400355,61.2445004 L144.400355,50.695626 L63.3383934,97.5725766 C62.1835085,98.3221917 61.4566204,99.5787803 61.3825863,100.953626 Z" id="Path" fill="#E6E6E6"></path>
                        <path d="M154.616326,44.7761886 C155.656649,44.1519948 156.56173,44.6617531 156.56173,45.8997373 L156.56173,51.9440135 C156.485152,53.3126947 155.763136,54.5636741 154.616326,55.3146597 L144.400355,61.2132907 L144.400355,50.695626 L154.616326,44.7761886 Z" id="Path" fill="#216DF2"></path>
                        <path d="M153.85689,53.0987719 L152.722938,52.7346589 C152.838709,52.2542441 152.898061,51.7619677 152.899793,51.2678036 C153.007284,50.3295685 152.611837,49.404223 151.85947,48.833448 C151.334884,48.5542818 150.699272,48.5862623 150.205357,48.9166738 C148.734287,50.0453145 147.888311,51.8068001 147.92705,53.6605463 C147.819559,54.5987814 148.215006,55.5241269 148.967373,56.0949019 C149.186293,56.2186793 149.433709,56.2832226 149.685195,56.282173 C150.016074,56.2787616 150.339769,56.1852495 150.621486,56.0116761 C151.491086,55.4161078 152.138666,54.549009 152.462858,53.5461108 L153.607213,53.8998206 C153.648209,53.9099558 153.691056,53.9099558 153.732052,53.8998206 C153.952881,53.9224939 154.152626,53.7678329 154.185964,53.5483603 C154.219301,53.3288876 154.074492,53.1218892 153.85689,53.0779655 L153.85689,53.0987719 Z M150.205357,55.28345 C149.965933,55.4577906 149.649851,55.4857979 149.383502,55.3562726 C148.917948,54.9227358 148.68951,54.2916263 148.769711,53.6605463 C148.747075,52.1106545 149.42802,50.6339987 150.621486,49.6448998 C150.778972,49.5499255 150.957889,49.4962506 151.141648,49.4888514 C151.248293,49.4856278 151.353432,49.5146318 151.443341,49.5720772 C151.908895,50.0056141 152.137333,50.6367236 152.057132,51.2678036 C152.076606,52.8140685 151.395962,54.2862473 150.205357,55.2730468 L150.205357,55.28345 Z" id="Shape" fill="#FAFAFA"></path>
                        <path d="M27.6865271,118.150164 L15.9828943,124.881053 C14.8355283,125.621822 14.1122676,126.867223 14.0374904,128.230893 L14.0374904,134.254363 C14.0374904,135.492347 14.9113617,135.991702 15.9828943,135.377911 L27.6865271,128.605409 C28.8315338,127.85899 29.5506841,126.610143 29.6215277,125.245166 L29.6215277,119.263309 C29.6215277,118.035728 28.7580597,117.52597 27.6865271,118.150164 Z" id="Path" fill="#216DF2"></path>
                        <path d="M231.225706,0.624884026 C228.536736,2.38171684 226.844744,5.31372992 226.669091,8.52093496 C226.669091,11.4338391 228.749737,12.609404 231.225706,11.1633552 C233.920242,9.40551522 235.616302,6.46928389 235.792723,3.256901 C235.792723,0.343996839 233.743287,-0.831568057 231.225706,0.624884026 Z" id="Path" fill="#216DF2"></path>
                        <path d="M230.695141,5.24391777 C230.553006,5.24634511 230.412845,5.21040653 230.289415,5.13988548 C229.994778,4.93121812 229.829397,4.58470747 229.852479,4.22440132 C229.891743,3.37831063 230.337364,2.60331783 231.048851,2.14375548 L231.048851,2.14375548 C231.339993,1.91370937 231.742056,1.88467186 232.063233,2.07049556 C232.38441,2.25631925 232.55963,2.61935636 232.505303,2.98641705 C232.460311,3.83345677 232.011421,4.60740552 231.298528,5.06706288 C231.115239,5.17528175 230.907849,5.23606849 230.695141,5.24391777 Z" id="Path" fill="#FFFFFF"></path>
                        <path d="M233.025464,5.56641788 C232.509403,5.30873168 231.893282,5.35674109 231.423367,5.69125663 L230.75756,6.07617611 C229.531903,6.85336483 228.756989,8.17459244 228.676914,9.62367725 L228.676914,10.1022258 C229.50537,10.4604874 230.461051,10.3578109 231.194496,9.83174183 C232.244385,9.17891871 233.110789,8.26955246 233.712077,7.18932163 L233.712077,7.07488611 C233.769791,6.48539782 233.507905,5.91004299 233.025464,5.56641788 L233.025464,5.56641788 Z" id="Path" fill="#FFFFFF"></path>
                        <path d="M215.090297,14.7316628 L215.090297,13.1191622 C215.090297,11.2881939 213.977152,10.4455324 212.603925,11.2361778 L212.603925,11.2361778 C211.062931,12.3383877 210.136421,14.1064772 210.10715,16.0008567 L210.10715,17.4469056 C210.074092,18.4403457 209.783738,19.4081946 209.264489,20.2557775 L209.264489,20.2557775 C209.135582,20.4774092 209.064064,20.727724 209.056424,20.9840035 L209.056424,20.9840035 C209.056424,21.4521488 209.337311,21.6602134 209.680618,21.462552 L215.51683,18.102309 C215.90197,17.819632 216.132878,17.373209 216.141023,16.8955344 L216.141023,16.8955344 C216.154737,16.7127669 216.086056,16.5334339 215.953765,16.4065827 L215.953765,16.4065827 C215.35367,16.0743068 215.012863,15.4132238 215.090297,14.7316628 L215.090297,14.7316628 Z" id="Path" fill="#216DF2"></path>
                        <path d="M213.84191,19.600374 C213.826428,20.5092727 213.382994,21.3575811 212.645538,21.8890844 C211.979732,22.2636007 211.438764,21.8890844 211.438764,20.9840035 L213.84191,19.600374 Z" id="Path" fill="#216DF2"></path>
                        <path d="M193.576419,22.3884394 C193.894964,22.1997805 194.249219,22.079334 194.616742,22.0347296 C194.904778,22.0009394 195.196117,22.0592072 195.449001,22.2011813 C195.693714,22.3509363 195.886262,22.5725482 196.000372,22.8357783 C196.134614,23.1978208 196.187879,23.5848848 196.15642,23.9697303 C196.159994,24.3198321 196.121575,24.6690994 196.041985,25.0100532 C195.966906,25.3150036 195.869548,25.6140327 195.750694,25.9047309 C195.637023,26.1785359 195.508526,26.445948 195.365775,26.7057795 L194.949646,27.454812 C194.824807,27.6940863 194.699968,27.9437638 194.595936,28.1830381 C194.496211,28.413284 194.42292,28.6540971 194.377468,28.9008609 C194.36702,29.0188095 194.338967,29.1345284 194.294242,29.2441675 C194.25909,29.3275943 194.201466,29.399624 194.12779,29.452232 L192.952226,30.1284419 C192.879403,30.1284419 192.816984,30.1284419 192.775371,30.1284419 C192.71505,30.064036 192.684813,29.9771049 192.692145,29.8891677 C192.690389,29.5686669 192.735961,29.2496628 192.827387,28.9424738 C192.911177,28.6409575 193.015451,28.3455125 193.139484,28.0581993 C193.274726,27.7773121 193.409968,27.496425 193.566016,27.2363442 C193.722065,26.9762635 193.846903,26.7161828 193.982145,26.4873117 C194.117387,26.2584407 194.211016,26.0191664 194.304645,25.8006986 C194.38288,25.6052885 194.425172,25.3973531 194.429484,25.1869081 C194.429484,24.8956177 194.356661,24.7083595 194.22142,24.6355369 C194.086178,24.5627143 193.857306,24.6355369 193.566016,24.7603757 C193.316352,24.8915055 193.104894,25.0850438 192.952226,25.3221501 C192.837317,25.5090117 192.743131,25.7078487 192.671338,25.9151341 L192.525693,26.4352956 C192.493123,26.5762751 192.407412,26.6992511 192.286419,26.7786021 L191.110854,27.454812 C191.067336,27.4860662 191.008727,27.4860662 190.965209,27.454812 C190.917341,27.3966347 190.894851,27.3216667 190.902789,27.2467475 C190.917551,26.8419427 190.980412,26.4403309 191.090048,26.0503761 C191.222382,25.5881898 191.396486,25.139 191.610209,24.7083595 C191.837214,24.2543038 192.11653,23.8283473 192.442467,23.4391656 C192.753986,23.0233986 193.138157,22.6674234 193.576419,22.3884394 Z M194.408678,32.0010232 C194.408382,32.1125667 194.383519,32.2226757 194.335855,32.3235233 C194.296223,32.4131417 194.2311,32.4891191 194.148597,32.5419911 L192.941822,33.2390074 C192.918398,33.2625131 192.886579,33.2757253 192.853395,33.2757253 C192.82021,33.2757253 192.788392,33.2625131 192.764967,33.2390074 C192.704647,33.1746015 192.67441,33.0876704 192.681742,32.9997332 L192.681742,31.5120714 C192.684568,31.3996371 192.713034,31.289333 192.764967,31.1895713 C192.797633,31.0961713 192.859683,31.0158706 192.941822,30.9607003 L194.148597,30.2636839 C194.202745,30.2182399 194.281707,30.2182399 194.335855,30.2636839 C194.391915,30.3259508 194.418449,30.4093418 194.408678,30.492555 L194.408678,32.0010232 Z" id="Shape" fill="#216DF2"></path>
                    </g>
                </g>
                <g id="freepik--404--inject-20" transform="translate(118.372874, 131.519910)">
                    <g>
                        <polygon id="Path" fill="#FFFFFF" points="35.9864534 100.001947 35.9864534 122.01518 28.8706446 117.905905"></polygon>
                        <path d="M40.042506,70.8585491 C39.6581747,70.6849768 39.2105812,70.7285478 38.8669411,70.9729846 L27.1425018,77.7454868 C26.5330046,78.0854385 25.9930199,78.5371904 25.5508078,79.0771001 L17.1033857,74.1979856 C17.5416328,73.6582104 18.0781947,73.2063688 18.6846765,72.8663723 L30.419519,66.0938701 C30.7821207,65.8287216 31.2663159,65.8002395 31.6575033,66.0210475 L40.042506,70.8585491 Z" id="Path" fill="#FFFFFF" opacity="0.4"></path>
                        <path d="M28.692583,160.638417 C28.2437438,160.979081 27.6119896,160.934591 27.2153244,160.534384 C26.7533806,160.00902 26.5276822,159.316878 26.5911307,158.62019 L26.5911307,146.37559 L2.11233245,160.503175 C1.66491869,160.848589 1.02966202,160.803853 0.635073911,160.399142 C0.172036424,159.874402 -0.0538197356,159.181777 0.0108801614,158.484948 L0.0108801614,145.803412 C-0.00222184102,143.847964 0.350621905,141.907323 1.05120308,140.081636 L24.2608073,81.5738751 C24.5842925,80.699246 25.0140464,79.8676896 25.5404045,79.0979066 C25.9844347,78.5569931 26.5239284,78.1021258 27.1320986,77.75589 L38.8669411,70.9833878 C39.3157802,70.6427239 39.9475344,70.6872136 40.3441996,71.0874201 C40.8039852,71.6140127 41.0293745,72.3052064 40.9683934,73.0016143 L40.9683934,118.942274 L47.6472665,115.082676 C48.0987767,114.751112 48.7239399,114.795137 49.124525,115.186709 C49.5843106,115.713301 49.8096999,116.404495 49.7487188,117.100903 L49.7487188,129.782439 C49.7414481,130.695581 49.5280773,131.595294 49.124525,132.414456 C48.8303576,133.155628 48.3144183,133.787835 47.6472665,134.224618 L40.9683934,138.084216 L40.9683934,150.235188 C40.9611227,151.148329 40.7477519,152.048043 40.3441996,152.867205 C40.0442855,153.604985 39.5296176,154.235634 38.8669411,154.677366 L28.692583,160.638417 Z M26.9760502,127.04639 L26.9760502,104.991544 L15.6365304,133.590021 L26.9760502,127.04639 Z" id="Shape" fill="#263238"></path>
                        <path d="M95.4397013,43.5500725 C94.0400026,42.8266725 92.4989574,42.4183311 90.9246998,42.3537011 C88.1505054,42.2149914 84.8076011,43.2553143 80.8959869,45.4746699 C77.082165,47.6656468 73.6896218,50.5191878 70.8776772,53.9012855 C68.0795898,57.2677668 65.7393514,60.9897603 63.9179169,64.9703213 C63.6370297,65.5737086 63.376949,66.1874992 63.1168683,66.8116929 C62.8567875,67.4358867 62.6487229,67.997661 62.4198519,68.6010483 L62.4198519,68.6010483 L53.9828331,63.7115306 C54.1804944,63.1809659 54.388559,62.6712077 54.6070268,62.1302398 C54.887914,61.4436267 55.1688012,60.7674168 55.4808981,60.049594 C57.3048821,56.0695233 59.6411105,52.3448478 62.4302551,48.9701549 C65.2491915,45.5938033 68.6446955,42.744257 72.458968,40.5539425 C76.3393725,38.306845 79.7412285,37.2665221 82.487681,37.4329738 C84.1797839,37.4913434 85.8325287,37.9589667 87.3043761,38.7957968 C88.0326021,39.2639421 93.5879265,42.4577334 95.4397013,43.5500725 Z" id="Path" fill="#FFFFFF" opacity="0.4"></path>
                        <path d="M80.8751804,45.5058796 C84.7659881,43.2587821 88.1088925,42.2184592 90.9038934,42.3849108 C93.5281933,42.4509723 96.0224684,43.5412841 97.8532504,45.4226538 C99.9035906,47.6761704 101.336998,50.4211458 102.014542,53.3915273 C102.963381,57.1360885 103.49716,60.9737149 103.606236,64.8350794 C103.710268,68.2057256 103.762285,71.7670977 103.762285,75.5191957 C103.762285,79.2712937 103.710268,82.8083916 103.606236,86.1304895 C103.441544,90.6018844 102.909183,95.0521445 102.014542,99.4362196 C101.124981,103.824146 99.7285179,108.093833 97.8532504,112.159369 C96.0374223,116.120849 93.711681,119.828046 90.935103,123.186792 C88.1185227,126.565493 84.7225674,129.415418 80.9063901,131.603004 C77.0259857,133.850102 73.6761459,134.900828 70.8880804,134.723973 C68.2601492,134.66061 65.7616562,133.570087 63.9283201,131.68623 C61.876404,129.429778 60.4428981,126.681031 59.7670285,123.706953 C58.8166934,119.962685 58.2828913,116.124892 58.1753344,112.263401 C58.0713021,109.048803 58.019286,105.574125 58.019286,101.860172 C58.019286,98.1462191 58.0713021,94.4946857 58.1753344,91.0096039 C58.3400269,86.5382091 58.872388,82.0879489 59.7670285,77.7038738 C60.6565892,73.3159478 62.0530527,69.0462608 63.9283201,64.9807246 C65.7497029,60.9969307 68.0899088,57.2714909 70.8880804,53.9012855 C73.687725,50.5275507 77.0704373,47.6839581 80.8751804,45.5058796 L80.8751804,45.5058796 Z M89.1977638,93.828879 C89.4058284,86.9350059 89.4058284,80.2353263 89.1977638,73.7298403 C89.1218176,71.9847587 88.9271741,70.2468703 88.6151829,68.5282257 C88.4220514,67.2532293 87.9611362,66.033577 87.2627631,64.9495149 C86.7003541,64.1027825 85.7878038,63.5529614 84.7763914,63.4514499 C83.3896615,63.4244305 82.0292099,63.8318385 80.8855837,64.6166116 C79.3890925,65.4606396 78.071133,66.5877953 77.0051792,67.9352417 C75.9618147,69.2586657 75.1236316,70.7316235 74.5188074,72.3045979 C73.8718443,73.985172 73.4011741,75.7283951 73.1143715,77.5062125 C72.7980682,79.4296183 72.6173005,81.3728717 72.5734036,83.3216176 C72.3167906,90.090652 72.3167906,96.7903316 72.5734036,103.420656 C72.6044967,105.164866 72.7714537,106.904001 73.0727586,108.622271 C73.2608961,109.900507 73.7415147,111.118074 74.4771945,112.180175 C75.0669228,113.014624 75.9886972,113.553275 77.0051792,113.657434 C78.3884718,113.682972 79.7451675,113.275599 80.8855837,112.492272 C82.3808882,111.642312 83.7012071,110.516157 84.7763914,109.173642 C85.8191019,107.836761 86.6667519,106.358627 87.2939728,104.783479 C87.9600709,103.109212 88.4313151,101.363863 88.6984088,99.5818648 C88.984175,97.6764342 89.1509497,95.7550505 89.1977638,93.828879 L89.1977638,93.828879 Z" id="Shape" fill="#263238"></path>
                        <polygon id="Path" fill="#FFFFFF" points="141.078668 39.1287001 141.078668 61.141933 133.962859 57.0326575"></polygon>
                        <polygon id="Path" fill="#FFFFFF" points="141.078668 61.141933 129.728745 67.6855642 133.962859 57.0326575"></polygon>
                        <path d="M154.13472,4.985302 C153.750389,4.81172971 153.302795,4.85530076 152.959155,5.09973752 L141.21391,11.8722397 C140.604412,12.2121914 140.064428,12.6639433 139.622216,13.203853 L131.174793,8.32473856 C131.613041,7.78496332 132.149602,7.33312173 132.756084,6.99312523 L144.490927,0.220623041 C144.853528,-0.0445254535 145.337724,-0.0730075211 145.728911,0.147800437 L154.13472,4.985302 Z" id="Path" fill="#FFFFFF" opacity="0.4"></path>
                        <path d="M142.784797,94.7235568 C142.335958,95.0642207 141.704204,95.019731 141.307539,94.6195245 C140.851497,94.0912808 140.629923,93.4002705 140.693748,92.7053303 L140.693748,80.5335522 L116.24616,94.6299277 C115.798746,94.9753419 115.163489,94.9306055 114.768901,94.5258954 C114.305864,94.0011552 114.080007,93.3085297 114.144707,92.6117012 L114.144707,79.9301649 C114.13136,77.9746956 114.484212,76.0340099 115.18503,74.2083888 L138.415441,15.6902248 C138.734962,14.8118853 139.168686,13.9794152 139.705441,13.2142563 C140.117346,12.6741321 140.629514,12.2184794 141.21391,11.8722397 L152.948752,5.09973752 C153.398955,4.76368804 154.027348,4.80794103 154.426011,5.20376981 C154.879934,5.73319971 155.101213,6.42329087 155.039801,7.11796398 L155.039801,53.058624 L161.729077,49.1990259 C162.179281,48.8629765 162.807673,48.9072294 163.206336,49.3030582 C163.658177,49.8336491 163.879169,50.5228455 163.820127,51.2172524 L163.820127,63.8883855 C163.810199,64.8000213 163.600692,65.6984162 163.206336,66.5204025 C162.908679,67.2595188 162.393516,67.8907756 161.729077,68.3305644 L155.060608,72.2109688 L155.060608,84.4139567 C155.05068,85.3255924 154.841173,86.2239874 154.446817,87.0459736 C154.143078,87.7814781 153.629239,88.4111119 152.969559,88.8561355 L142.784797,94.7235568 Z M141.078668,61.1315298 L141.078668,39.1182969 L129.770358,67.6855642 L141.078668,61.1315298 Z" id="Shape" fill="#263238"></path>
                    </g>
                    <path d="M76.2975932,158.368016 C76.3940262,158.287694 76.5340635,158.287694 76.6304965,158.368016 C76.7359335,158.488088 76.788448,158.645632 76.7761417,158.804952 L76.7761417,161.676243 C76.7711914,161.885459 76.7215313,162.091193 76.6304965,162.27963 C76.565547,162.446861 76.4489208,162.588999 76.2975932,162.685356 L67.9750098,167.502051 C67.8785768,167.582373 67.7385395,167.582373 67.6421065,167.502051 C67.5404092,167.380352 67.4917008,167.222986 67.5068645,167.065116 L67.5068645,149.598094 C67.5066995,149.392768 67.5529314,149.190059 67.6421065,149.00511 C67.7100205,148.83963 67.8259784,148.698306 67.9750098,148.599384 L76.1831576,143.855511 C76.2779354,143.770739 76.4212832,143.770739 76.516061,143.855511 C76.6193998,143.972184 76.6685328,144.127142 76.6513029,144.282044 L76.6513029,147.163738 C76.651468,147.369064 76.6052361,147.571773 76.516061,147.756722 C76.4481469,147.922202 76.332189,148.063526 76.1831576,148.162448 L70.7630752,151.283417 L70.7630752,154.206724 L75.7878349,151.304223 C75.8889553,151.226154 76.0300211,151.226154 76.1311415,151.304223 C76.2328387,151.425923 76.2815472,151.583289 76.2663835,151.741159 L76.2663835,154.61245 C76.2665485,154.817776 76.2203166,155.020485 76.1311415,155.205434 C76.0594854,155.374504 75.9402063,155.519084 75.7878349,155.621563 L70.7630752,158.524064 L70.7630752,161.561807 L76.2975932,158.368016 Z" id="Path" fill="#263238"></path>
                    <path d="M84.4849345,139.01801 C85.1227069,138.619756 85.8278072,138.341242 86.5655803,138.196155 C87.097447,138.080633 87.653246,138.165855 88.1260647,138.435429 C88.6077359,138.757043 88.9583304,139.240494 89.1143715,139.798252 C89.3680888,140.626781 89.4840665,141.491342 89.457678,142.357446 C89.4717883,143.606599 89.2856381,144.849942 88.9063069,146.040189 C88.5710519,147.104819 88.0497645,148.101605 87.366629,148.984303 L89.5409039,154.185918 C89.5780089,154.267459 89.5958089,154.356459 89.59292,154.445999 C89.5952735,154.615882 89.5559838,154.783756 89.4784845,154.93495 C89.4227034,155.069913 89.3286865,155.185626 89.2080005,155.267854 L86.8152578,156.651483 C86.5863868,156.786725 86.4199351,156.797128 86.3159028,156.651483 C86.2178466,156.550953 86.1370077,156.434967 86.0766286,156.308177 L84.1104183,151.67874 L82.4979177,152.604627 L82.4979177,158.409629 C82.4941342,158.61567 82.4443743,158.818264 82.3522725,159.002613 C82.2793165,159.167874 82.1645844,159.311289 82.0193692,159.418742 L79.7098523,160.739952 C79.6170708,160.829799 79.4697305,160.829799 79.376949,160.739952 C79.2719341,160.620083 79.2227722,160.461252 79.241707,160.303017 L79.241707,142.773575 C79.241542,142.56825 79.2877739,142.365541 79.376949,142.180591 C79.4452663,142.012564 79.5609194,141.867997 79.7098523,141.764462 L84.4849345,139.01801 Z M82.4979177,148.380916 L84.4849345,147.236561 C84.9712199,146.951048 85.3871798,146.559975 85.7021123,146.092206 C86.048851,145.538701 86.2193556,144.89296 86.1910641,144.240431 C86.1910641,143.480995 86.0246124,143.054463 85.7021123,142.95043 C85.2764277,142.867539 84.835448,142.965535 84.4849345,143.220914 L82.4979177,144.396479 L82.4979177,148.380916 Z" id="Shape" fill="#263238"></path>
                    <path d="M97.1560676,131.694136 C97.7956743,131.299531 98.5000945,131.021286 99.2367135,130.872281 C99.7654809,130.767883 100.31412,130.852572 100.786795,131.111556 C101.285511,131.431373 101.654251,131.91811 101.827118,132.484782 C102.048485,133.315132 102.13282,134.17605 102.076795,135.033573 C102.088929,136.285216 101.906427,137.531139 101.535827,138.726719 C101.192506,139.786833 100.668051,140.779425 99.985746,141.66043 L102.160021,146.862045 C102.200212,146.946607 102.221512,147.038905 102.22244,147.132528 C102.219315,147.301773 102.180311,147.468427 102.108005,147.62148 C102.045589,147.755416 101.948639,147.870319 101.827118,147.954384 L99.4343748,149.338013 C99.2055038,149.473255 99.0390521,149.483658 98.9350198,149.338013 C98.8343361,149.235707 98.7532402,149.115826 98.6957455,148.984303 L96.7815514,144.396479 L95.1690509,145.33277 L95.1690509,151.137772 C95.1652673,151.343813 95.1155074,151.546407 95.0234056,151.730756 C94.9554916,151.896236 94.8395337,152.03756 94.6905023,152.136482 L92.3809854,153.468095 C92.2862076,153.552867 92.1428599,153.552867 92.0480821,153.468095 C91.9463849,153.346396 91.8976764,153.18903 91.9128401,153.031159 L91.9128401,135.460105 C91.9128798,135.251465 91.9590633,135.045415 92.0480821,134.856718 C92.1159962,134.691238 92.2319541,134.549914 92.3809854,134.450992 L97.1560676,131.694136 Z M95.1690509,141.057043 L97.1560676,139.902284 C97.6464117,139.626768 98.0637472,139.237968 98.3732454,138.768332 C98.7187762,138.214305 98.8891802,137.568945 98.8621972,136.916557 C98.8621972,136.157122 98.6957455,135.730589 98.3732454,135.626557 C97.9475785,135.544943 97.5071059,135.642826 97.1560676,135.897041 L95.1690509,137.041396 L95.1690509,141.057043 Z" id="Shape" fill="#263238"></path>
                    <path d="M104.157441,134.711073 C104.191291,133.658798 104.334234,132.612875 104.583973,131.590104 C104.824454,130.571002 105.173211,129.580533 105.624296,128.635587 C106.082833,127.719639 106.652356,126.863608 107.320023,126.086796 C107.97197,125.325478 108.749603,124.681556 109.619136,124.183005 C110.303436,123.739024 111.093106,123.484176 111.907847,123.444376 C112.526473,123.428732 113.129508,123.639609 113.603573,124.03736 C114.100122,124.500007 114.459996,125.090202 114.643896,125.743489 C114.911192,126.588784 115.054856,127.468287 115.070428,128.3547 C115.070428,129.114136 115.070428,129.925587 115.070428,130.768249 C115.070428,131.610911 115.070428,132.422362 115.070428,133.181798 C115.036578,134.234073 114.893635,135.279997 114.643896,136.302767 C114.406484,137.326113 114.057627,138.320356 113.603573,139.267687 C113.150011,140.186511 112.580088,141.043144 111.907847,141.816478 C111.255093,142.570031 110.481655,143.209875 109.619136,143.709866 C108.930333,144.155487 108.138734,144.416966 107.320023,144.469302 C106.701396,144.484946 106.098361,144.274069 105.624296,143.876318 C105.13558,143.399082 104.7774,142.804502 104.583973,142.149382 C104.316677,141.304087 104.173013,140.424584 104.157441,139.538171 C104.157441,138.809945 104.157441,138.0193 104.157441,137.176638 C104.157441,136.333977 104.157441,135.501718 104.157441,134.711073 Z M111.88704,134.939944 C111.88704,134.607041 111.88704,134.242928 111.88704,133.837202 C111.88704,133.431476 111.88704,133.02575 111.88704,132.609621 C111.88704,132.193491 111.88704,131.798169 111.88704,131.413249 C111.88704,131.02833 111.88704,130.695426 111.88704,130.372926 C111.865327,129.985919 111.802555,129.602314 111.699782,129.228571 C111.622783,128.947028 111.476091,128.689422 111.27325,128.479539 C111.0878,128.310846 110.847671,128.214794 110.59704,128.209055 C110.258977,128.225125 109.931686,128.333023 109.650346,128.521152 C109.286821,128.725667 108.962708,128.993413 108.693249,129.311797 C108.423559,129.627686 108.196237,129.977412 108.017039,130.35212 C107.833483,130.748325 107.693939,131.163469 107.60091,131.590104 C107.495662,132.033937 107.432959,132.486792 107.413652,132.942524 C107.413652,133.265024 107.413652,133.618734 107.413652,133.982847 C107.413652,134.34696 107.413652,134.783895 107.413652,135.200025 C107.413652,135.616154 107.413652,136.02188 107.413652,136.406799 C107.413652,136.791719 107.413652,137.155832 107.413652,137.447122 C107.392815,138.131818 107.605609,138.80322 108.017039,139.350913 C108.381152,139.735833 108.92212,139.725429 109.650346,139.298897 C110.373895,138.886456 110.940806,138.246395 111.262846,137.478332 C111.621449,136.675322 111.839615,135.816737 111.907847,134.939944 L111.88704,134.939944 Z" id="Shape" fill="#263238"></path>
                    <path d="M122.883253,116.827922 C123.52286,116.433317 124.22728,116.155071 124.963899,116.006067 C125.492667,115.901669 126.041305,115.986358 126.51398,116.245341 C127.012696,116.565158 127.381436,117.051895 127.554303,117.618567 C127.80726,118.443694 127.923233,119.304709 127.89761,120.167359 C127.909744,121.419001 127.727242,122.664924 127.356642,123.860505 C127.011164,124.922898 126.486948,125.918556 125.806561,126.804619 L127.980836,132.006233 C128.021027,132.090796 128.042327,132.183094 128.043255,132.276717 C128.04013,132.445962 128.001126,132.612616 127.928819,132.765669 C127.866404,132.899604 127.769454,133.014508 127.647932,133.098572 L125.25519,134.482202 C125.026319,134.617444 124.859867,134.627847 124.755835,134.482202 C124.655151,134.379895 124.574055,134.260015 124.51656,134.128492 L122.560753,129.457442 L120.948253,130.393733 L120.948253,136.198735 C120.944469,136.404776 120.894709,136.60737 120.802608,136.791719 C120.734693,136.957199 120.618736,137.098522 120.469704,137.197445 L118.160187,138.529058 C118.06541,138.61383 117.922062,138.61383 117.827284,138.529058 C117.725587,138.407359 117.676878,138.249993 117.692042,138.092122 L117.692042,120.593891 C117.693089,120.385363 117.739224,120.179529 117.827284,119.990504 C117.895198,119.825024 118.011156,119.6837 118.160187,119.584778 L122.883253,116.827922 Z M120.896237,126.190828 L122.883253,125.03607 C123.374603,124.758063 123.7948,124.369915 124.110834,123.902118 C124.452719,123.346935 124.619477,122.701656 124.589383,122.050343 C124.589383,121.290907 124.433334,120.864375 124.110834,120.760343 C123.681845,120.677001 123.237491,120.77491 122.883253,121.030827 L120.896237,122.175182 L120.896237,126.190828 Z" id="Shape" fill="#263238"></path>
                </g>
                <g id="freepik--speech-bubble--inject-20" transform="translate(342.899181, 37.015087)">
                    <g id="Path">
                        <path d="M64.756763,0.325337826 L12.5221494,30.4947024 C11.7240518,31.0099607 11.2211809,31.8764459 11.1697296,32.8250257 L11.1697296,99.613757 C11.2193852,100.560106 11.72311,101.424188 12.5221494,101.933677 L17.3492477,104.638517 C18.1967283,105.065152 19.1962035,105.065152 20.0436841,104.638517 L72.2887009,74.4691521 C73.0778541,73.946871 73.5750518,73.08352 73.6307175,72.1388287 L73.6307175,5.32929105 C73.5811914,4.38566271 73.077016,3.52468635 72.2782977,3.01977418 L67.4616026,0.314934597 C66.6088612,-0.10861045 65.6062212,-0.104754142 64.756763,0.325337826 Z" fill="#216DF2"></path>
                        <path d="M18.7016675,103.847871 L18.7016675,37.0383335 C18.7524345,36.0921838 19.2508108,35.2267862 20.0436841,34.7080102 L72.2887009,4.53864564 C73.0273302,4.11211324 73.6307175,4.4554198 73.6307175,5.3084846 L73.6307175,72.107619 C73.5750518,73.0523103 73.0778541,73.9156613 72.2887009,74.4379424 L20.0436841,104.607307 C19.2946516,105.054646 18.7016675,104.659323 18.7016675,103.847871 Z" fill="#216DF2"></path>
                        <path d="M20.0436841,104.659323 C19.1889084,105.070318 18.1936202,105.070318 17.3388445,104.659323 L12.5221494,101.954484 C11.7272606,101.44588 11.224349,100.587061 11.1697296,99.6449666 L11.1697296,32.8770419 C11.1893908,32.3898791 11.3364596,31.9163891 11.596262,31.5038156 L19.0969902,35.7795428 C18.8514979,36.1775975 18.7151523,36.6332787 18.7016675,37.1007529 L18.7016675,103.889484 C18.7016675,104.659323 19.2530387,105.085855 20.0436841,104.659323 Z" fill="#000000" opacity="0.2"></path>
                        <path d="M73.609911,5.09001678 C73.5058787,4.41380689 72.9545076,4.17453262 72.2887009,4.5594521 L20.0436841,34.7288167 C19.6437833,34.9882637 19.3176842,35.3466144 19.0969902,35.7691396 L11.596262,31.4934124 C11.8181235,31.1005691 12.1368744,30.7710738 12.5221494,30.5363153 L64.7671663,0.366950743 C65.6146469,-0.0596844396 66.614122,-0.0596844396 67.4616026,0.366950743 L72.2782977,3.0613871 C72.9902834,3.51763979 73.4744913,4.25530032 73.609911,5.09001678 Z" fill="#FFFFFF" opacity="0.4"></path>
                        <path d="M11.1697296,52.9552742 L0.350371278,63.9618906 C0.0947517788,64.21569 -0.0316643932,64.5719096 0.00678196971,64.9300678 C0.0452283326,65.288226 0.244369677,65.6094988 0.548032632,65.8032622 C0.776903674,65.9489074 8.03835763,70.1206023 8.03835763,70.1206023 L18.7016675,57.2934207 L11.1697296,52.9552742 Z" fill="#216DF2"></path>
                        <path d="M11.1697296,52.9552742 L0.350371278,63.9618906 C0.0947517788,64.21569 -0.0316643932,64.5719096 0.00678196971,64.9300678 C0.0452283326,65.288226 0.244369677,65.6094988 0.548032632,65.8032622 C0.776903674,65.9489074 8.03835763,70.1206023 8.03835763,70.1206023 L18.7016675,57.2934207 L11.1697296,52.9552742 Z" fill="#000000" opacity="0.1"></path>
                        <path d="M18.7016675,57.2934207 L7.87190596,68.3000372 C7.51172768,68.6685774 7.42800554,69.2263414 7.66411086,69.6843857 C7.90021618,70.1424301 8.4030919,70.397824 8.91222888,70.3182636 L18.722474,68.9034245 C19.7523937,68.9034245 19.7523937,57.2934207 18.7016675,57.2934207 Z" fill="#216DF2"></path>
                    </g>
                    <g id="freepik--dead-emoji--inject-20" transform="translate(28.220038, 26.071306)" fill="#FFFFFF">
                        <path d="M9.14502266,28.6525169 C8.87717119,28.6514502 8.6200523,28.5471121 8.42719984,28.3612265 L0.666390888,20.891708 C0.365481202,20.6434096 0.228782895,20.2476268 0.312313652,19.8665477 C0.395844409,19.4854686 0.685562322,19.1831542 1.06274371,19.0834903 C1.43992509,18.9838263 1.84116401,19.1035667 2.10203651,19.393643 L9.8732487,26.8631615 C10.070195,27.0584994 10.1809745,27.3244016 10.1809745,27.6017908 C10.1809745,27.8791799 10.070195,28.1450821 9.8732487,28.34042 C9.6811734,28.5364317 9.41942787,28.6486084 9.14502266,28.6525169 L9.14502266,28.6525169 Z" id="Path"></path>
                        <path d="M1.3842137,33.1675452 C1.23035211,33.1664231 1.07826086,33.1345901 0.936874847,33.0738893 C0.420951744,32.8257748 0.202443016,32.2074416 0.447923076,31.6902598 L8.20873203,15.2531577 C8.45299097,14.7332664 9.07238467,14.5097258 9.59236151,14.7538027 C10.1122529,14.9980617 10.3357935,15.6174554 10.0917165,16.1374322 L2.33090755,32.5745343 C2.15722548,32.9392242 1.78813923,33.1704101 1.3842137,33.1675452 L1.3842137,33.1675452 Z" id="Path"></path>
                        <path d="M34.5080954,14.0879961 C34.2366464,14.0896268 33.9753112,13.9850927 33.7798693,13.7967057 L26.0190604,6.32718713 C25.6157026,5.92142222 25.6157026,5.26609672 26.0190604,4.86033181 C26.2143983,4.66338553 26.4803005,4.55260604 26.7576896,4.55260604 C27.0350788,4.55260604 27.300981,4.66338553 27.4963189,4.86033181 L35.2571279,12.3298504 C35.5620575,12.623751 35.6583883,13.0731647 35.5007072,13.4662249 C35.343026,13.8592851 34.9628105,14.1175262 34.539305,14.1192058 L34.5080954,14.0879961 Z" id="Path"></path>
                        <path d="M26.7368832,18.5302018 C26.5861754,18.5309828 26.4370914,18.4990362 26.2999475,18.4365459 C26.0475982,18.3193043 25.8527337,18.105857 25.7588988,17.8439013 C25.6650639,17.5819456 25.6800804,17.293317 25.8005925,17.0425132 L33.5614015,0.615814316 C33.7149614,0.272260005 34.042083,0.0384154348 34.4168444,0.00429661354 C34.7916058,-0.0298222077 35.1555784,0.141104141 35.3686547,0.451279359 C35.5817311,0.761454578 35.6106907,1.16251965 35.444386,1.50008879 L27.683577,17.9371909 C27.5098949,18.3018808 27.1408087,18.5330667 26.7368832,18.5302018 Z" id="Path"></path>
                        <path d="M1.04090714,51.7893234 C0.667759164,51.79078 0.322398718,51.592297 0.135826201,51.2691371 C-0.146505271,50.7718844 0.0254100549,50.1399794 0.52074568,49.8542979 L34.3312405,30.3274368 C34.8311029,30.0401596 35.4692056,30.2124939 35.7564828,30.7123563 C36.04376,31.2122187 35.8714257,31.8503214 35.3715634,32.1375987 L1.5610686,51.6540566 C1.40252036,51.7439201 1.22314714,51.7905572 1.04090714,51.7893234 Z" id="Path"></path>
                        <path d="M24.6042212,52.3406908 C24.03528,52.3427156 23.4757323,52.195655 22.9813174,51.9141373 C21.706231,51.032758 20.9998904,49.5367445 21.1295427,47.9921199 L21.1295427,38.5563911 C21.1295427,37.9818366 21.5953111,37.5160682 22.1698656,37.5160682 C22.74442,37.5160682 23.2101885,37.9818366 23.2101885,38.5563911 L23.2101885,47.9921199 C23.1205693,48.7771035 23.424231,49.5557233 24.0216404,50.0727658 C24.6418839,50.3160718 25.3441905,50.2174333 25.8734151,49.812685 C28.0909426,48.2654545 29.4603488,45.7728275 29.5769647,43.0713925 L29.5769647,33.6356637 C29.5769647,33.0611092 30.0427332,32.5953408 30.6172876,32.5953408 C31.1918421,32.5953408 31.6576106,33.0611092 31.6576106,33.6356637 L31.6576106,43.0713925 C31.548596,46.5174948 29.7816856,49.6987086 26.9137381,51.6124437 C26.2215107,52.0544379 25.4247771,52.3056602 24.6042212,52.3406908 Z" id="Path"></path>
                        <path d="M26.3935766,46.2651839 C25.8190221,46.2651839 25.3532537,45.7994154 25.3532537,45.224861 L25.3532537,36.1116322 C25.3532537,35.5370777 25.8190221,35.0713093 26.3935766,35.0713093 C26.9681311,35.0713093 27.4338995,35.5370777 27.4338995,36.1116322 L27.4338995,45.224861 C27.4338995,45.7994154 26.9681311,46.2651839 26.3935766,46.2651839 Z" id="Path"></path>
                    </g>
                </g>
                <g id="freepik--character--inject-20" transform="translate(335.787696, 161.514179)">
                    <path d="M50.2137193,219.058696 C50.2137193,217.467001 49.7975901,208.655466 49.2982351,200.540948 C48.7780736,191.999896 48.7884769,184.187071 48.7884769,184.187071 L63.2281589,194.964817 C60.1071902,214.148371 59.7846901,218.382486 59.7326739,221.524261 L59.3789642,221.815551 C59.4476353,222.076717 59.4757058,222.346895 59.46219,222.6166 C59.46219,226.340956 55.3008983,228.359182 52.0030747,230.855957 C49.2312934,233.05242 46.2723983,235.00181 43.1603299,236.681766 C40.7779904,237.88854 35.9404888,238.013379 35.3371016,236.484104 C39.9353288,233.60241 45.4282338,229.950876 48.5908155,226.455391 C50.0992837,224.790875 50.109687,222.325309 50.2137193,219.058696 Z" id="Path" fill="#FFA8A7"></path>
                    <path d="M29.7089546,241.217574 C29.3952619,242.276587 29.7098092,243.421862 30.5204065,244.172091 C33.4869118,246.110191 37.1015397,246.791207 40.5699258,246.065478 C45.5114597,245.191607 48.1330734,243.662333 50.0472676,241.904187 C51.9614618,240.146041 54.6350917,237.659669 56.8613827,237.056282 C58.639417,236.633691 60.3133558,235.855115 61.7821101,234.767572 C62.4167071,234.091362 62.187836,231.230474 62.187836,231.230474 L29.7089546,241.217574 Z" id="Path" fill="#263238"></path>
                    <path d="M59.7742869,220.192648 C60.13417,220.262074 60.412489,220.548701 60.4713032,220.91047 C60.6585613,221.701116 60.9394485,224.031439 61.324368,225.269423 C61.9485943,227.530903 62.2257063,229.874078 62.1462231,232.21878 C61.9381585,233.706442 58.5883187,234.882007 56.4452535,235.818298 C53.9397243,237.061455 51.6356027,238.674691 49.610332,240.603783 C46.6665723,243.021812 43.0933104,244.548569 39.3111351,245.004349 C35.4827468,245.149994 31.1029873,244.120075 30.0314547,242.393139 C28.6998414,240.250073 29.6049223,238.928863 35.1602467,236.026362 C36.2005696,235.474991 39.8833127,233.061442 41.1317002,232.187571 C44.5127497,229.836441 47.8209766,226.621843 49.2462189,222.658213 C49.347055,222.175282 49.6162116,221.743894 50.0056547,221.441035 C50.3440243,221.274555 50.7265446,221.21991 51.0979937,221.284987 C52.054684,221.370345 52.9920109,221.605554 53.8756559,221.982003 C54.6558981,222.304503 55.7586404,222.679019 55.7898501,223.656923 C55.7913916,224.010448 55.7351673,224.36185 55.6233984,224.697246 C55.560979,224.90531 55.5193661,225.175794 55.696221,225.279827 C55.8730759,225.383859 56.0811405,225.279827 56.2267857,225.102972 C56.7601588,224.509074 57.243804,223.872333 57.6728346,223.199181 C57.9205043,222.849252 58.2066486,222.528212 58.5258994,222.242084 C58.8171898,221.982003 59.2125125,221.846761 59.4725932,221.565874 C59.7487345,221.16514 59.8570261,220.672226 59.7742869,220.192648 Z" id="Path" fill="#216DF2"></path>
                    <path d="M59.7742869,220.192648 C60.13417,220.262074 60.412489,220.548701 60.4713032,220.91047 C60.6585613,221.701116 60.9394485,224.031439 61.324368,225.269423 C61.9485943,227.530903 62.2257063,229.874078 62.1462231,232.21878 C61.9381585,233.706442 58.5883187,234.882007 56.4452535,235.818298 C53.9397243,237.061455 51.6356027,238.674691 49.610332,240.603783 C46.6665723,243.021812 43.0933104,244.548569 39.3111351,245.004349 C35.4827468,245.149994 31.1029873,244.120075 30.0314547,242.393139 C28.6998414,240.250073 29.6049223,238.928863 35.1602467,236.026362 C36.2005696,235.474991 39.8833127,233.061442 41.1317002,232.187571 C44.5127497,229.836441 47.8209766,226.621843 49.2462189,222.658213 C49.347055,222.175282 49.6162116,221.743894 50.0056547,221.441035 C50.3440243,221.274555 50.7265446,221.21991 51.0979937,221.284987 C52.054684,221.370345 52.9920109,221.605554 53.8756559,221.982003 C54.6558981,222.304503 55.7586404,222.679019 55.7898501,223.656923 C55.7913916,224.010448 55.7351673,224.36185 55.6233984,224.697246 C55.560979,224.90531 55.5193661,225.175794 55.696221,225.279827 C55.8730759,225.383859 56.0811405,225.279827 56.2267857,225.102972 C56.7601588,224.509074 57.243804,223.872333 57.6728346,223.199181 C57.9205043,222.849252 58.2066486,222.528212 58.5258994,222.242084 C58.8171898,221.982003 59.2125125,221.846761 59.4725932,221.565874 C59.7487345,221.16514 59.8570261,220.672226 59.7742869,220.192648 Z" id="Path" fill="#000000" opacity="0.3"></path>
                    <path d="M42.712991,236.380072 C39.2487157,237.961363 40.7883936,238.543944 41.7767004,238.647976 C42.7650072,238.752008 48.5596058,234.986039 52.0550908,231.937893 C55.5505758,228.889747 57.9225121,225.383859 59.2749319,224.218697 C59.7846901,223.781762 60.3152548,223.251197 60.8042065,222.762245 C60.6689646,221.992406 60.5649323,221.284987 60.4713032,220.91047 C60.412489,220.548701 60.13417,220.262074 59.7742869,220.192648 C59.845943,220.658707 59.7381244,221.134596 59.4725932,221.524261 C59.2125125,221.805148 58.8171898,221.94039 58.5258994,222.200471 C58.2066486,222.486599 57.9205043,222.807639 57.6728346,223.157568 C57.243804,223.83072 56.7601588,224.467461 56.2267857,225.061359 C53.3242848,229.129021 46.1772663,234.798781 42.712991,236.380072 Z" id="Path" fill="#000000" opacity="0.2"></path>
                    <path d="M42.0055715,238.107008 C42.0860607,238.106589 42.1636726,238.077023 42.2240393,238.023782 C42.3561536,237.883546 42.3561536,237.664664 42.2240393,237.524427 C40.4512064,235.861303 38.0478487,235.042493 35.628392,235.27733 C35.4500237,235.320087 35.3339331,235.492098 35.3610095,235.673509 C35.3880859,235.854921 35.5493446,235.985537 35.7324243,235.974346 C37.917543,235.782563 40.0831392,236.514489 41.7038778,237.992573 C41.7753932,238.083777 41.8915597,238.12784 42.0055715,238.107008 L42.0055715,238.107008 Z" id="Path" fill="#EBEBEB"></path>
                    <path d="M45.0017014,236.119991 C45.0818521,236.117813 45.1588845,236.088467 45.2201693,236.036766 C45.3577251,235.898733 45.3577251,235.675443 45.2201693,235.537411 C43.4494891,233.870706 41.0444596,233.051327 38.624522,233.290313 C38.4322148,233.322185 38.3019421,233.503636 38.3332316,233.696039 C38.3700713,233.885209 38.5479383,234.012909 38.7389575,233.987329 C40.9212009,233.793331 43.0844641,234.525745 44.7000078,236.005556 C44.7741306,236.093145 44.8881356,236.136388 45.0017014,236.119991 L45.0017014,236.119991 Z" id="Path" fill="#EBEBEB"></path>
                    <path d="M47.9978314,234.122571 C48.0779821,234.120393 48.1550145,234.091047 48.2162993,234.039346 C48.3538551,233.901313 48.3538551,233.678023 48.2162993,233.539991 C46.4459544,231.879724 44.0470211,231.061131 41.6310552,231.292893 C41.438748,231.324765 41.3084753,231.506216 41.3397648,231.698619 C41.3525595,231.790146 41.4017154,231.872649 41.4761162,231.927471 C41.550517,231.982292 41.6438783,232.004802 41.7350875,231.989909 C43.9173309,231.795911 46.0805941,232.528325 47.6961378,234.008136 C47.7702606,234.095725 47.8842656,234.138968 47.9978314,234.122571 Z" id="Path" fill="#EBEBEB"></path>
                    <path d="M50.7546872,231.9587 C50.8351764,231.958281 50.9127883,231.928714 50.973155,231.875474 C51.1052694,231.735237 51.1052694,231.516355 50.973155,231.376119 C49.2003222,229.712995 46.7969644,228.894185 44.3775077,229.129021 C44.2838235,229.141608 44.1994742,229.192266 44.144346,229.269052 C44.0892178,229.345838 44.0681889,229.441956 44.0862173,229.534747 C44.1181471,229.722398 44.2928535,229.851129 44.48154,229.826038 C46.6666588,229.634254 48.8322549,230.36618 50.4529935,231.844264 C50.5245089,231.935468 50.6406754,231.979532 50.7546872,231.9587 Z" id="Path" fill="#EBEBEB"></path>
                    <path d="M53.4595268,229.753215 C53.5364154,229.750351 53.6099382,229.720942 53.6675913,229.669989 C53.7330335,229.605472 53.7698773,229.517411 53.7698773,229.425513 C53.7698773,229.333616 53.7330335,229.245555 53.6675913,229.181038 C51.7450508,227.3576 49.0880574,226.52441 46.4685568,226.923537 C46.3459051,226.943979 46.243476,227.028302 46.1998534,227.144742 C46.1562308,227.261182 46.1780421,227.39205 46.2570711,227.488049 C46.3361002,227.584047 46.4603406,227.630592 46.5829923,227.61015 C48.961945,227.261617 51.370947,228.007261 53.1370267,229.63878 C53.2151933,229.733485 53.3391485,229.777469 53.4595268,229.753215 Z" id="Path" fill="#EBEBEB"></path>
                    <path d="M79.3427609,198.189818 L95.1348628,197.846511 C94.9372014,208.384982 93.3038944,220.099018 93.054217,229.992489 C93.0022008,231.854667 93.147846,244.452978 92.4612329,248.291769 C91.42091,254.055158 84.5963916,253.295723 84.2218754,249.852254 C83.8473591,246.408785 84.5859884,231.688216 84.565182,230.179748 C84.565182,223.833778 81.5898584,213.128855 79.9877611,201.747722 C79.9253417,201.196351 79.4155835,198.730786 79.3427609,198.189818 Z" id="Path" fill="#FFA8A7"></path>
                    <path d="M81.6730842,252.265803 C81.5482455,255.646853 81.8499391,257.92516 82.8590524,260.016209 C83.8987275,262.032529 86.1712322,263.089607 88.3831671,262.585806 C90.7238936,262.232097 93.7928462,260.962903 94.7291368,258.122821 C95.5697031,255.54139 95.8359956,252.807453 95.509379,250.112335 L81.6730842,252.265803 Z" id="Path" fill="#263238"></path>
                    <path d="M93.1062331,228.775312 C94.0425237,228.941763 93.8760721,233.487974 93.9801043,238.065395 C94.0945399,242.965316 95.3533306,245.108381 95.4781693,249.134431 C95.6342178,253.732658 95.1972822,255.740482 93.3455074,258.330886 C91.4937326,260.92129 85.5951016,263.074758 83.2023589,258.871854 C81.2465519,255.449191 81.4962294,251.880884 82.162036,247.365882 C82.7986534,243.552149 83.2396338,239.708328 83.4832461,235.849507 C83.6392946,232.426845 83.7225204,229.108215 84.5755852,228.816924 C84.5755852,229.316279 84.5755852,229.96128 84.5755852,230.450231 C84.5755852,230.939183 84.5027626,232.686926 85.0333273,232.749345 C85.1119488,232.327237 85.153719,231.899092 85.158166,231.469748 C85.1535739,231.09097 85.2824803,230.722666 85.522279,230.429425 C85.8370566,230.192398 86.2205799,230.064557 86.6146181,230.065312 C87.5537367,229.951477 88.4983667,229.888965 89.4442964,229.878054 C89.9134273,229.876375 90.382291,229.900686 90.8487324,229.950876 C91.2545847,229.97862 91.6524461,230.077205 92.0242973,230.242167 C92.248619,230.333681 92.4203164,230.52064 92.4924426,230.751925 C92.5236554,230.923908 92.5236554,231.100104 92.4924426,231.272087 C92.4508851,231.586283 92.4508851,231.904584 92.4924426,232.21878 C92.4924426,232.354022 92.5860716,232.520474 92.7213136,232.510071 C92.8565556,232.499668 92.8877653,232.354022 92.8981685,232.24999 C92.9605879,231.698619 92.8981685,231.292893 92.9605879,230.647893 C92.9605879,230.356602 92.9605879,229.950876 92.9605879,229.659586 C92.9605879,229.368296 93.0958299,229.077005 93.1062331,228.775312 Z" id="Path" fill="#216DF2"></path>
                    <path d="M93.1062331,228.775312 C94.0425237,228.941763 93.8760721,233.487974 93.9801043,238.065395 C94.0945399,242.965316 95.3533306,245.108381 95.4781693,249.134431 C95.6342178,253.732658 95.1972822,255.740482 93.3455074,258.330886 C91.4937326,260.92129 85.5951016,263.074758 83.2023589,258.871854 C81.2465519,255.449191 81.4962294,251.880884 82.162036,247.365882 C82.7986534,243.552149 83.2396338,239.708328 83.4832461,235.849507 C83.6392946,232.426845 83.7225204,229.108215 84.5755852,228.816924 C84.5755852,229.316279 84.5755852,229.96128 84.5755852,230.450231 C84.5755852,230.939183 84.5027626,232.686926 85.0333273,232.749345 C85.1119488,232.327237 85.153719,231.899092 85.158166,231.469748 C85.1535739,231.09097 85.2824803,230.722666 85.522279,230.429425 C85.8370566,230.192398 86.2205799,230.064557 86.6146181,230.065312 C87.5537367,229.951477 88.4983667,229.888965 89.4442964,229.878054 C89.9134273,229.876375 90.382291,229.900686 90.8487324,229.950876 C91.2545847,229.97862 91.6524461,230.077205 92.0242973,230.242167 C92.248619,230.333681 92.4203164,230.52064 92.4924426,230.751925 C92.5236554,230.923908 92.5236554,231.100104 92.4924426,231.272087 C92.4508851,231.586283 92.4508851,231.904584 92.4924426,232.21878 C92.4924426,232.354022 92.5860716,232.520474 92.7213136,232.510071 C92.8565556,232.499668 92.8877653,232.354022 92.8981685,232.24999 C92.9605879,231.698619 92.8981685,231.292893 92.9605879,230.647893 C92.9605879,230.356602 92.9605879,229.950876 92.9605879,229.659586 C92.9605879,229.368296 93.0958299,229.077005 93.1062331,228.775312 Z" id="Path" fill="#000000" opacity="0.3"></path>
                    <path d="M92.2011522,251.048625 C92.055507,252.692335 93.7304268,252.297013 94.0321205,250.008302 C94.3338141,247.719592 93.5847816,242.070638 93.9801043,238.086202 C93.8760721,233.508781 94.0425237,228.96257 93.1062331,228.796118 C93.1062331,228.858537 93.1062331,228.910554 93.1062331,228.972973 L93.012604,231.28249 C93.012604,231.615393 93.012604,231.917087 92.9605879,232.270797 C92.6692975,235.620636 92.513249,242.133058 92.5028458,245.222817 C92.5032451,247.168667 92.4025448,249.113225 92.2011522,251.048625 L92.2011522,251.048625 Z" id="Path" fill="#000000" opacity="0.2"></path>
                    <path d="M85.6159081,251.079835 C85.4035193,249.138064 85.292401,247.186549 85.2830048,245.23322 C85.2830048,242.164268 85.0541337,235.724669 84.7316336,232.354022 C84.6108457,231.727029 84.5619813,231.088302 84.5859884,230.450231 C84.5859884,229.992489 84.5859884,229.409909 84.5859884,228.920957 C84.5814057,228.886431 84.5814057,228.851451 84.5859884,228.816924 C83.9721979,229.045796 83.7537301,230.89757 83.6288913,233.134265 C83.6288913,234.465878 83.6288913,236.109588 83.7745365,238.107008 C84.2114722,242.081042 83.5040526,247.750802 83.7745365,250.060318 C84.0450205,252.369835 85.7719565,252.765158 85.6159081,251.079835 Z" id="Path" fill="#000000" opacity="0.2"></path>
                    <path d="M85.0021176,251.19427 L85.1373596,251.19427 C87.4892863,250.35524 90.0559477,250.336907 92.41962,251.142254 C92.6001576,251.199882 92.7947138,251.109391 92.8669588,250.93419 C92.9302059,250.753335 92.837958,250.555003 92.6588942,250.486851 C90.1283512,249.589483 87.3662089,249.589483 84.8356659,250.486851 C84.6592226,250.563188 84.5760587,250.766477 84.6484078,250.944593 C84.6956561,251.098685 84.8410998,251.201351 85.0021176,251.19427 Z" id="Path" fill="#EBEBEB"></path>
                    <path d="M84.565182,247.563543 C84.6025773,247.57424 84.6422221,247.57424 84.6796175,247.563543 C87.3415004,246.723882 90.194622,246.705755 92.8669588,247.511527 C92.9551454,247.544401 93.0529609,247.53963 93.1375293,247.498329 C93.2220976,247.457028 93.2860022,247.38282 93.3142977,247.293059 C93.3765009,247.109265 93.2790243,246.90967 93.0958299,246.845721 C90.2736561,245.970798 87.249605,245.992606 84.4403432,246.90814 C84.2612794,246.976292 84.1690316,247.174624 84.2322786,247.355479 C84.2887341,247.487697 84.4215949,247.570735 84.565182,247.563543 Z" id="Path" fill="#EBEBEB"></path>
                    <path d="M92.9709911,244.078462 C93.1070658,244.077092 93.229487,243.995478 93.283088,243.870397 C93.364995,243.695089 93.2908308,243.486502 93.1166363,243.402252 C90.3385766,242.328374 87.2600158,242.328374 84.4819561,243.402252 C84.3068827,243.474238 84.2231139,243.674352 84.294698,243.849591 C84.366905,244.024556 84.5640557,244.11167 84.7420368,244.047252 C84.7420368,244.047252 89.0281673,242.341122 92.8253459,244.047252 C92.8709139,244.068522 92.9207086,244.079192 92.9709911,244.078462 L92.9709911,244.078462 Z" id="Path" fill="#EBEBEB"></path>
                    <path d="M93.0334105,240.863864 C93.1938216,240.859268 93.3310378,240.747256 93.3676573,240.591013 C93.4042767,240.43477 93.3311221,240.273452 93.1894589,240.198057 C90.3962817,238.934937 87.199139,238.912262 84.3883271,240.135638 C84.2141325,240.219888 84.1399684,240.428475 84.2218754,240.603783 C84.3098766,240.774039 84.5174662,240.843235 84.6900207,240.759832 C87.315438,239.651143 90.2824582,239.6775 92.8877653,240.832654 C92.9333333,240.853924 92.983128,240.864595 93.0334105,240.863864 Z" id="Path" fill="#EBEBEB"></path>
                    <path d="M93.0958299,237.24354 C93.2264591,237.24354 93.3464542,237.171543 93.4079267,237.056282 C93.4508957,236.973782 93.4585484,236.877378 93.4291332,236.789132 C93.3997181,236.700887 93.3357532,236.628355 93.2518783,236.588137 C89.0905866,234.507491 84.565182,236.525717 84.3779238,236.588137 C84.2037293,236.672387 84.1295652,236.880973 84.2114722,237.056282 C84.2479312,237.141114 84.3170253,237.207683 84.4031552,237.240961 C84.489285,237.274238 84.5851887,237.271418 84.6692142,237.233137 C84.6692142,237.233137 89.059377,235.287733 92.9397814,237.233137 C92.9897638,237.251308 93.0438778,237.254915 93.0958299,237.24354 Z" id="Path" fill="#EBEBEB"></path>
                    <path d="M88.5080058,95.6763977 C94.1361528,111.073177 94.2401851,120.644148 93.3455074,136.831572 C92.5236523,151.656174 91.1816357,164.712226 91.1816357,164.712226 C91.4105067,167.344243 95.0932499,172.462632 95.6030081,184.093442 C95.7866588,192.273884 95.4391541,200.457621 94.5626852,208.593047 C94.5626852,208.593047 87.2804248,211.27708 81.1217131,208.645063 C81.1217131,208.645063 74.7029207,180.847635 72.9343718,167.250614 C71.3946938,155.38053 69.1371931,141.36738 69.1371931,141.36738 L65.1111434,167.250614 C65.6838099,171.165725 65.8927662,175.125448 65.7353372,179.079086 C65.2151757,185.404249 62.1358199,202.392722 62.1358199,202.392722 C62.1358199,202.392722 54.4894464,205.149578 49.2878319,200.572157 C49.2878319,200.572157 47.706541,175.105052 46.9471053,165.471662 C45.9067824,152.561255 46.1460567,117.169469 49.1733963,99.0366407 L88.5080058,95.6763977 Z" id="Path" fill="#263238"></path>
                    <path d="M69.1475963,141.33617 L66.3907406,119.895115 C66.3907406,119.895115 56.1539631,118.563502 51.5349294,114.235759 C54.2307668,118.422974 58.6491013,121.19444 63.592272,121.798906 L67.3582409,141.814719 L65.1215466,167.219405 L69.1475963,141.33617 Z" id="Path" fill="#21282B"></path>
                    <path d="M71.8628391,62.5109031 L72.0709037,62.417274 C85.2309886,56.1753365 90.515829,41.6108157 89.8708288,27.7745209 C89.7547353,23.3745217 88.8418248,19.0320286 87.1763925,14.9577426 C85.4813999,10.8686458 82.5776044,7.39498032 78.8538091,5.0018523 C75.9585474,3.29320471 72.6923702,2.31156674 69.3348545,2.14096428 C66.2867083,1.94330292 62.3438845,1.99531907 59.4725932,3.18128719 C58.5903229,3.61765384 57.5625962,3.65178498 56.6533181,3.27491626 C55.6302655,3.04203457 54.575908,2.97877312 53.5323494,3.08765813 C50.6903235,3.47425369 48.116973,4.97038771 46.3749277,7.2489498 C43.9509753,10.2346766 43.6596849,14.6976619 44.4919432,18.3179856 C44.8872659,19.9929055 47.2175893,22.4792773 47.1239602,24.0293584 C46.978315,26.3492785 45.2929919,28.1906501 43.4412171,30.1880701 C41.5894423,32.1854901 39.5400061,33.6835551 38.6453284,36.627669 C37.8754895,39.1556536 37.7402475,44.5133167 43.3996042,46.573156 C35.1602467,57.465337 43.2851686,63.3743711 47.7793636,64.9348555 C50.7796975,65.9936604 53.9759222,66.3807587 57.1422699,66.0688075 C62.1670296,65.5070331 67.2646119,64.6539683 71.8628391,62.5109031 Z" id="Path" fill="#37474F"></path>
                    <path d="M43.4100074,81.0078446 C48.2579122,76.0246978 57.0070279,64.7371941 57.0070279,64.7371941 L61.958965,47.5926725 C62.0838037,47.5926725 59.4413835,47.6446886 58.6403349,47.5926725 C53.2930751,47.9463823 51.7117843,48.4041244 48.3827509,52.0452546 C45.7403307,54.9373523 35.6596017,68.6904212 32.1537134,73.3406647 L22.8636298,61.5017899 C20.6373388,58.1311436 20.9910485,54.3547714 19.8362901,51.6083189 C18.6815317,48.8618664 16.8089504,47.6342854 15.3108854,45.1479136 C13.8128204,42.6615419 13.4591106,40.986622 12.1899167,42.3078321 C10.9207227,43.6290422 12.3771748,47.0100917 12.5644329,47.7903338 C12.751691,48.570576 14.6450788,50.9113026 11.52411,49.6941248 C8.40314126,48.476947 3.54483324,42.7551709 2.29644574,41.579606 C1.04805824,40.4040411 0.392654801,42.2246062 0.673541989,43.6602519 C0.954429176,45.0958975 -0.366780928,48.3313018 0.101364385,50.703238 C0.408380756,53.0787124 1.5874872,55.2552391 3.40959126,56.8099335 C5.67749522,59.0882407 11.2016099,61.8763061 13.3654816,64.8620329 C15.5293532,67.8477597 20.1379838,77.1274401 22.9676621,82.7243774 C26.5463729,89.8297829 29.6049223,92.1705094 33.630972,89.7777667 C37.6570217,87.385024 41.5894423,82.8492161 43.4100074,81.0078446 Z" id="Path" fill="#FFA8A7"></path>
                    <path d="M32.1537134,73.3510679 C33.9197365,75.0162269 35.1048464,77.204122 35.5347629,79.5930054 C35.5347629,79.5930054 36.5750858,76.1599398 32.9547621,72.310745 L32.1537134,73.3510679 Z" id="Path" fill="#F28F8F"></path>
                    <path d="M49.703961,77.8348597 C43.1291202,72.4251805 45.2929919,65.3509847 47.6961378,60.6175154 C52.5024297,51.1193672 57.4959797,47.3846079 59.5766255,47.4258772 L72.674291,47.5406563 C78.9162285,48.3937211 83.7745365,47.9671887 85.2830048,48.3313018 C89.1321996,49.2363827 89.2154254,52.4093676 89.3610706,56.5082399 C89.5275223,61.0024349 90.0060708,60.5238863 88.8305059,67.951792 C88.8305059,67.951792 87.0515537,73.7047777 86.3545374,76.2743753 C85.657521,78.8439729 84.3467141,82.8388129 85.4078435,87.0001046 C85.8135695,88.6022018 86.8955053,90.1210733 88.5288123,94.6048651 C89.9786626,98.248742 91.0963508,102.016152 91.8682488,105.861159 C91.8682488,105.861159 82.8902621,114.183742 64.2372722,111.499709 C50.5258161,109.543902 47.8313798,105.039304 47.8313798,105.039304 L50.4009774,89.0287342 C50.0576708,83.4005873 49.9640418,81.3719576 49.703961,77.8348597 Z" id="Path" fill="#216DF2"></path>
                    <path d="M58.2346089,76.4200205 C58.2346089,76.4200205 63.6130784,80.7477638 69.8758224,78.6463115 C73.4538603,77.5889529 76.2169101,74.7351171 77.1580828,71.1247769 C77.1580828,71.1247769 77.6886475,78.2509888 69.8029998,80.4876831 C65.4718321,81.8288955 60.7732341,80.1767806 58.2346089,76.4200205 Z" id="Path" fill="#000000" opacity="0.1"></path>
                    <path d="M105.205189,34.359765 C102.417123,30.8850865 94.8019594,22.1983901 93.3975235,20.4610508 C92.5346946,19.364894 91.4018864,18.511703 90.1101031,17.9850823 C88.961681,17.5658687 87.9180822,16.9020831 87.0515537,16.0396784 C86.5105858,15.5091138 85.3350209,13.251613 84.8564724,12.658629 C83.450034,10.8460393 81.7603336,9.27226427 79.8525191,7.9979823 C77.6470346,6.44790115 75.5559855,5.73007834 73.2880815,4.26322303 C71.9564682,3.39975501 70.3335645,2.53628699 71.7900165,1.0798349 C72.2424943,0.619313581 72.8220287,0.304191742 73.4545332,0.174753966 C76.575502,-0.407826867 79.8837288,0.570076674 83.7537301,1.5791899 C85.4133563,2.00043811 87.0490414,2.51093856 88.653651,3.10846459 C89.5796882,3.41360291 90.4533478,3.85920441 91.2440551,4.42967469 C92.1909414,5.3265275 92.9726914,6.3829464 93.5535719,7.55064344 C95.3637338,10.5051605 99.504219,12.4817741 102.08422,14.7392748 C105.101156,17.3920982 108.07648,19.607986 111.519949,22.5312934 C114.949179,25.3087247 118.086363,28.4284793 120.882855,31.8421835 C122.963501,34.6510554 122.370517,36.3363785 121.517452,37.584766 C117.220918,43.9203326 107.649947,51.1089639 104.248092,53.9178358 C100.617365,56.9139658 98.0685734,58.7865471 94.8227659,61.689048 C92.5419193,63.847559 90.3882961,66.1366521 88.3727638,68.544776 C87.9565965,69.086278 87.2147984,69.2564552 86.6042149,68.950502 C82.8486491,66.8698561 80.3622774,56.466627 83.2543751,50.0062217 C83.9930043,48.3521082 84.7628433,48.2896888 84.7628433,48.2896888 C90.6926839,44.1283972 105.205189,34.4013779 105.205189,34.4013779" id="Path" fill="#FFA8A7"></path>
                    <path d="M105.205189,34.359765 C106.954042,36.5863067 109.304307,38.2650674 111.977691,39.1972666 C111.977691,39.1972666 108.388577,40.0503313 103.571882,35.5665396 L105.205189,34.359765 Z" id="Path" fill="#F28F8F"></path>
                    <path d="M51.7117843,27.5872628 C51.7742036,37.9176694 55.0720273,40.5288799 56.7365439,41.2883156 C58.4010606,42.0477513 61.6572713,41.6628319 64.8094498,41.1946866 L64.7054175,47.4366241 C64.7054175,47.4366241 61.0018679,51.1713833 61.2307389,54.0114649 C61.45961,56.8515464 66.8796924,57.2780788 70.9993711,54.5732393 C73.2649258,53.0678786 75.3247533,51.2738352 77.1268731,49.2363827 C77.4693012,48.8397672 77.6608616,48.3350794 77.667841,47.8111403 L77.9175185,33.2466195 C77.9175185,33.2466195 79.6132449,35.1087975 82.7030039,33.0697646 C84.0503886,32.2470794 84.9894346,30.8954291 85.2902815,29.3456719 C85.5911284,27.7959146 85.226008,26.1910928 84.2842948,24.9240361 C83.4027469,24.0730219 82.1909447,23.6537788 80.9719694,23.7780822 C79.7529942,23.9023856 78.6507583,24.5575996 77.9591314,25.5690364 C77.0124376,27.3375853 77.0956634,28.5755696 75.8784856,28.367505 C74.6613078,28.1594404 74.5468723,26.7758109 74.4636464,25.7771009 C74.3804206,24.7783909 74.4116303,24.4662941 74.3388077,23.1658904 C71.2802583,22.510487 68.0968702,18.2555662 67.7743701,15.155404 C65.7081197,16.1734054 63.4298797,16.6868116 61.1267067,16.653469 C57.7144475,16.4141947 55.9250921,15.7379848 54.2709786,13.2620163 C53.8610416,13.8241088 53.5383688,14.4449033 53.3138815,15.1033878 C52.84371,16.4175738 52.4954675,17.7722372 52.2735586,19.150244 C51.8654355,21.9435104 51.6775984,24.7645455 51.7117843,27.5872628 L51.7117843,27.5872628 Z" id="Path" fill="#FFA8A7"></path>
                    <path d="M64.8094498,41.1946866 C68.1384831,40.8201703 75.0046144,38.9787987 76.1177599,36.2947656 C75.6657348,37.6527097 74.8089894,38.8398104 73.6625978,39.6966216 C71.581952,41.4131544 64.7782401,43.2649292 64.7782401,43.2649292 L64.8094498,41.1946866 Z" id="Path" fill="#F28F8F"></path>
                    <path d="M61.45961,35.628959 C61.4470328,36.180926 61.7687237,36.6859451 62.2742651,36.907877 C62.7798064,37.1298089 63.3692995,37.0247983 63.7671064,36.6419465 C64.1649133,36.2590948 64.2924245,35.6740561 64.0900177,35.1603857 C63.887611,34.6467153 63.3952832,34.3059181 62.8432395,34.2973456 C62.0945216,34.2857191 61.476668,34.8803452 61.45961,35.628959 Z" id="Path" fill="#B16668"></path>
                    <path d="M63.1969493,25.4650041 C63.1763173,26.2431823 63.7838867,26.8939602 64.5616473,26.9267554 C65.3394079,26.9595506 65.9996048,26.3622296 66.0445553,25.5850768 C66.0895058,24.8079239 65.5025791,24.1384693 64.7262239,24.0813746 C64.3398251,24.0615704 63.9614255,24.1963257 63.6745208,24.4559061 C63.3876162,24.7154865 63.2157874,25.0785569 63.1969493,25.4650041 L63.1969493,25.4650041 Z" id="Path" fill="#263238"></path>
                    <path d="M53.5531558,24.8512135 C53.5215137,25.2008167 53.6314174,25.5485038 53.8582515,25.8164028 C54.0850857,26.0843018 54.4098947,26.2500253 54.7599304,26.2764559 C55.1155757,26.3152489 55.4707736,26.199598 55.7354006,25.9588472 C56.0000276,25.7180963 56.1486506,25.3753837 56.1435599,25.0176652 C56.2046492,24.5375669 55.9940685,24.0632615 55.5969868,23.7865804 C55.199905,23.5098994 54.6820224,23.4766218 54.252795,23.7002067 C53.8235677,23.9237915 53.5540146,24.367245 53.5531558,24.8512135 L53.5531558,24.8512135 Z" id="Path" fill="#263238"></path>
                    <polygon id="Path" fill="#F28F8F" points="60.2216257 23.509197 59.191706 32.133474 54.7703336 30.3025056"></polygon>
                    <path d="M68.3673541,21.740648 L65.7977565,19.2958892 C65.1267286,20.0325094 65.15891,21.1680523 65.8705791,21.8654868 C66.2145046,22.1878624 66.6746643,22.3566447 67.1454685,22.3331045 C67.6162727,22.3095643 68.0573012,22.0957225 68.3673541,21.740648 Z" id="Path" fill="#263238"></path>
                    <path d="M55.5089629,18.5052437 L52.6584781,20.6587122 C52.9245797,21.0485867 53.3386724,21.3125448 53.8044381,21.3891898 C54.2702038,21.4658348 54.7470433,21.3484857 55.1240434,21.0644381 C55.9111282,20.4486709 56.0800912,19.3252951 55.5089629,18.5052437 L55.5089629,18.5052437 Z" id="Path" fill="#263238"></path>
                </g>
            </g>
        </g>
    </g>
</svg>