<?xml version="1.0" encoding="UTF-8"?>
<svg width="520px" height="520px" viewBox="0 0 520 520" version="1.1" xmlns="http://www.w3.org/2000/svg" xmlns:xlink="http://www.w3.org/1999/xlink">
    <title>Group 19</title>
    <g id="Error" stroke="none" stroke-width="1" fill="none" fill-rule="evenodd">
        <g id="Group-19">
            <rect id="Rectangle-Copy-9" fill-opacity="0" fill="#D8D8D8" x="0" y="0" width="520" height="520"></rect>
            <g id="Group-8-Copy" transform="translate(5.000000, 83.000000)">
                <g id="Group-48">
                    <path d="M487.994944,353.422127 C455.824632,353.422127 20.8926792,352.543059 20.8926792,352.494222 C20.7133643,352.09742 -34.3203154,288.873709 34.9779526,222.770643 C69.314371,190.01722 3.44637992,147.58184 34.9779526,111.149354 C70.0466097,70.6287953 104.875167,71.2331545 137.177903,71.8375138 C154.62659,72.1651294 171.340216,72.492745 186.955376,66.3351992 C194.822655,63.2381123 202.715985,58.2506223 210.617998,50.5974398 C215.066137,46.2957042 219.940854,42.5311768 225.159656,39.281474 C225.960712,38.7808936 226.76828,38.2925225 227.584532,37.8183955 C230.710603,36.001248 233.94956,34.361135 237.286207,32.8838123 C239.528729,31.8928259 241.812498,30.9750952 244.139684,30.1346899 L244.141855,30.1346899 C247.832355,28.7957391 251.624888,27.6419623 255.497742,26.667255 C260.996588,25.2815019 266.660422,24.2518528 272.43497,23.5538891 C274.953194,23.2466222 277.493127,23.0065064 280.050426,22.8254021 C329.798376,19.3193045 385.7811,39.0372884 414.673379,67.8572892 C420.489174,73.660766 446.939209,103.68745 426.090051,144.960915 C412.925818,171.018973 468.072753,195.906162 487.671482,225.662207 C537.493241,301.316998 488.446487,352.43521 487.994944,353.422127 Z" id="Fill-1" fill="#F5F5F5"></path>
                    <path d="M91.0030069,162.195075 C91.0030069,162.195075 90.3113937,155.328125 93.9047084,155.561736 C97.4949493,155.798422 98.4447647,157.445998 98.045166,158.764674 C97.6424934,160.083349 94.1506153,164.451271 94.1506153,164.451271 L91.0030069,162.195075 Z" id="Fill-2" fill="#FFB27D"></path>
                    <path d="M35.0499638,175.953567 C35.0499638,175.953567 39.027508,180.625798 47.5758469,186.014233 C48.3842659,186.527564 49.2326447,187.040894 50.1240572,187.560373 C53.4438005,189.493816 57.3383512,191.47644 61.8353737,193.323816 C62.3302614,193.526689 62.9112165,193.751079 63.5659436,193.984691 C68.686955,195.83514 78.1144111,198.457122 83.9547001,198.693808 C84.464957,198.712251 84.9444755,198.712251 85.3932556,198.696882 C94.2858641,198.337243 95.3678545,163.830356 95.3678545,163.830356 C95.3678545,163.830356 94.3780792,160.378438 89.8103584,161.248333 C89.8103584,161.248333 82.8757836,180.736456 80.38905,182.322555 C78.1789616,183.73652 65.4901652,164.497378 54.5657508,163.151038 C47.2100604,162.24733 35.0499638,175.953567 35.0499638,175.953567 Z" id="Fill-3" fill="#216DF2"></path>
                    <path d="M58.9367461,344.221516 C58.9367461,344.221516 58.2789451,351.816966 59.8834877,352.606942 L80.4320837,352.566982 C80.4320837,352.566982 80.4320837,350.19398 77.1338573,349.668354 C73.832557,349.139654 68.0353017,347.209285 67.051674,342.90284 C66.0711202,338.59947 58.9367461,344.221516 58.9367461,344.221516 Z" id="Fill-4" fill="#1F282C"></path>
                    <path d="M74.0200611,252.289219 C73.9186245,257.256538 73.6819391,262.377549 73.2147159,266.982156 C70.9954061,288.830985 70.2146516,315.229092 69.8949727,320.319365 C69.3416821,329.15357 67.5988169,343.268627 67.5988169,343.268627 C67.5988169,343.268627 64.1346033,346.554558 57.3875325,344.986901 C57.3875325,344.986901 51.7962242,324.656548 50.5482467,303.253425 C50.5298036,302.899934 50.5113606,302.549517 50.4929176,302.196026 C50.3484473,299.365022 50.1947555,296.128273 50.0410637,292.639468 C49.0113285,269.269091 47.8955259,234.550109 47.8955259,234.550109 L73.6819391,228.494651 C73.6819391,228.494651 74.2751895,239.907806 74.0200611,252.289219 Z" id="Fill-5" fill="#263238"></path>
                    <path d="M74.0200611,252.289219 C67.485085,263.56405 55.0299001,284.333963 50.0410637,292.639468 C49.0113285,269.269091 47.8955259,234.550109 47.8955259,234.550109 L73.6819391,228.494651 C73.6819391,228.494651 74.2751895,239.907806 74.0200611,252.289219 Z" id="Fill-6" fill="#1F282C"></path>
                    <path d="M63.5659436,193.984691 C68.686955,195.83514 78.1144111,198.457122 83.9547001,198.693808 C83.0632876,198.524747 76.5590499,197.236809 74.152236,194.332034 C71.5702135,191.21209 67.2176612,182.731376 63.7595953,186.192515 C62.130462,187.821649 62.6069067,191.039955 63.5659436,193.984691 Z" id="Fill-7" fill="#2A62C5"></path>
                    <path d="M20.2371464,248.615984 C20.2371464,248.615984 18.6356776,254.892758 18.9000276,256.285206 C19.1613036,257.680728 20.7228125,262.405214 21.6972186,263.576346 C22.6716248,264.750551 22.7115846,258.482999 23.3601641,257.499371 C24.0087436,256.51267 23.6583262,259.838561 24.1778046,260.109058 C24.6942091,260.38263 25.5610309,257.591586 25.9483343,256.601811 C26.3325639,255.615109 24.5620341,252.172413 24.3991208,249.704122 C24.2362075,247.235832 20.2371464,248.615984 20.2371464,248.615984 Z" id="Fill-8" fill="#FFB27D"></path>
                    <path d="M7.74814926,335.590184 C7.74814926,335.590184 4.090284,338.925296 4.80341404,341.298298 C5.51654407,343.6713 8.81784431,345.251251 9.26355059,348.149879 C9.70925686,351.048507 11.4920819,352.628459 13.0996984,352.628459 L20.7535509,352.628459 C20.7535509,352.628459 21.9369779,350.590505 19.0813839,349.975738 C16.2257899,349.360971 15.1499472,345.952086 15.3282297,342.792182 C15.5065122,339.629205 15.0608059,335.411901 15.0608059,335.411901 L8.99612682,334.007158 L7.74814926,335.590184 Z" id="Fill-9" fill="#1F282C"></path>
                    <path d="M69.6183274,235.078809 C69.6183274,235.078809 45.4794905,286.725407 32.6339284,309.385729 C19.7883663,332.04605 15.773936,338.372006 15.773936,338.372006 C15.773936,338.372006 8.41517175,335.473378 7.74814926,333.496901 C7.74814926,333.496901 12.6601398,289.746988 21.2607339,279.08385 C26.123543,273.056057 31.8316571,254.972678 32.0990809,248.649796 C32.3665046,242.323841 38.0069943,227.231305 38.0069943,227.231305 L69.6183274,235.078809 Z" id="Fill-10" fill="#263238"></path>
                    <path d="M74.11535,232.392276 C74.11535,232.392276 66.2555504,240.851473 52.8997315,243.405831 C47.0379255,244.527782 35.139105,245.609772 32.1882221,241.438576 C31.4966089,240.458022 31.4904613,239.007172 31.6441531,236.741754 C32.040678,230.855358 33.5222671,219.472942 26.836673,196.600525 C26.2126842,194.473431 25.7946425,192.432403 25.5518094,190.486665 C24.0917372,178.787644 24.2485028,169.953438 34.4013843,165.235099 C49.6138004,158.165276 55.856762,163.980974 55.856762,163.980974 C55.856762,163.980974 63.9470993,167.761793 67.6418506,178.778422 C75.034427,200.817829 74.11535,232.392276 74.11535,232.392276 Z" id="Fill-11" fill="#216DF2"></path>
                    <path d="M43.5337521,163.292435 C46.0942578,165.112146 50.6005019,166.184915 54.8946513,164.036303 C55.2266256,163.870316 55.1866657,161.598751 55.1036721,159.367146 C55.0206785,157.178574 54.8147315,155.029962 54.8147315,155.029962 L49.4017057,151.476608 L44.2376606,148.08924 C44.8555017,159.73908 42.3779896,162.465573 43.5337521,163.292435 Z" id="Fill-12" fill="#FFB27D"></path>
                    <path d="M45.1444423,152.89672 C45.1444423,152.89672 48.6578373,158.168349 55.1036721,159.367146 C55.0206785,157.178574 54.787067,154.765613 54.787067,154.765613 L49.4017057,151.476608 L45.1444423,152.89672 Z" id="Fill-13" fill="#ED985F"></path>
                    <path d="M59.6621714,153.659031 C59.6621714,153.659031 46.5676286,158.546431 43.6536317,150.477611 C40.7396348,142.40879 37.0879173,137.607458 45.3257987,134.146318 C53.5606063,130.685179 56.3055421,133.181134 57.9438969,135.637129 C59.5822517,138.093124 62.9911362,152.180516 59.6621714,153.659031 Z" id="Fill-14" fill="#FFB27D"></path>
                    <path d="M35.49567,135.0531 C35.345052,134.936294 35.0407422,134.877891 34.4013843,134.970106 C34.4013843,134.970106 34.8440167,134.555139 35.514113,134.404521 C35.4741532,133.500813 35.6339927,131.85631 37.0664004,131.18314 C37.0664004,131.18314 36.340975,131.773317 36.4208948,132.726206 C37.8133426,130.586816 41.2990731,128.539641 51.8331103,127.310106 C65.7114814,125.690194 62.9358072,135.329745 61.3742983,136.722193 C59.8097156,138.114641 54.7901408,136.13509 51.5472435,137.04802 C48.3012723,137.960949 48.6148036,142.848349 47.6250283,143.724392 C46.6383268,144.597362 46.8473477,143.355532 45.1997714,142.971302 C43.5521951,142.583999 43.9026125,145.119914 44.66185,146.666054 C45.4210876,148.20912 43.7673637,150.769625 43.7673637,150.769625 L41.2191533,148.92225 C38.670943,147.074874 34.7979092,137.881029 35.3481259,135.649424 C35.3973073,135.452699 35.4464886,135.252899 35.49567,135.0531 Z" id="Fill-15" fill="#2C3A64"></path>
                    <path d="M31.6441531,236.741754 C32.040678,230.855358 33.5222671,219.472942 26.836673,196.600525 C26.2126842,194.473431 25.7946425,192.432403 25.5518094,190.486665 C30.519129,188.84831 39.571577,192.49388 39.571577,192.49388 C39.571577,192.49388 41.6986718,222.728134 31.6441531,236.741754 Z" id="Fill-16" fill="#2A62C5"></path>
                    <path d="M31.6625961,166.76587 C31.6625961,166.76587 25.5518094,168.988253 21.6511111,185.168928 C19.0752362,195.862805 14.3353806,211.576256 13.800533,216.515911 C13.2656855,221.455566 19.2197065,250.368071 19.2197065,250.368071 C19.2197065,250.368071 20.0619377,250.979764 22.1183342,250.56787 C24.0886633,250.174419 25.0046666,248.843448 25.0046666,248.843448 C25.0046666,248.843448 26.4309266,229.570494 26.0620663,220.471938 C25.9083744,216.69112 43.5614166,192.785894 53.0903093,189.70591 C56.8311682,188.497893 31.6625961,166.76587 31.6625961,166.76587 Z" id="Fill-17" fill="#216DF2"></path>
                    <path d="M117.155207,145.817675 C117.155207,145.817675 99.4898691,145.313566 79.1011125,149.06672 L76.9740178,143.699802 L74.6379022,137.819553 C74.6379022,137.819553 95.1035046,129.009938 107.404998,116.739183 L117.155207,145.817675 Z" id="Fill-18" fill="#AEC3FF"></path>
                    <path d="M107.125279,116.453316 L117.268939,146.395556 C118.750528,145.955998 119.562328,144.36375 119.045616,142.903678 L110.119195,117.747401 C109.685784,116.530162 108.308706,115.933838 107.125279,116.453316 Z" id="Fill-19" fill="#1A386C"></path>
                    <path d="M97.4426941,168.099915 C95.472365,168.49644 93.5358481,167.205428 93.142397,165.232025 L89.6505189,147.757266 C89.253994,145.786937 90.5450053,143.85042 92.5184082,143.456969 C94.4918112,143.063518 96.4252542,144.354529 96.8217791,146.324858 L100.313657,163.799618 C100.707108,165.769947 99.416097,167.706464 97.4426941,168.099915 Z" id="Fill-20" fill="#1A386C"></path>
                    <path d="M117.155207,145.817675 C117.155207,145.817675 99.4898691,145.313566 79.1011125,149.06672 L76.9740178,143.699802 C96.1270921,139.789882 117.155207,145.817675 117.155207,145.817675 Z" id="Fill-21" fill="#739AF0"></path>
                    <path d="M84.7385284,147.987803 L79.2179183,148.959136 C79.3039857,148.96221 74.0907593,149.973502 72.3817063,145.353526 C72.2249406,145.03692 72.1265779,144.726463 72.0558796,144.357603 C70.7279823,138.600307 73.8878861,137.539834 73.8878861,137.539834 L80.9945957,134.770307 L83.2507916,142.759208 L83.2507916,142.786872 L84.7385284,147.987803 Z" id="Fill-22" fill="#1A386C"></path>
                    <path d="M84.7385284,147.987803 L79.2179183,148.959136 C79.3039857,148.96221 74.0907593,149.973502 72.3817063,145.353526 C75.504724,143.081961 83.2507916,142.759208 83.2507916,142.759208 L83.2507916,142.786872 L84.7385284,147.987803 Z" id="Fill-23" fill="#1A386C"></path>
                    <path d="M96.9723971,151.181519 C96.9723971,151.181519 94.2735688,152.257362 94.7684564,153.446937 C95.2633441,154.633438 98.6968193,156.268719 99.2378145,155.331198 C99.7788097,154.393678 98.6722286,150.176375 96.9723971,151.181519 Z" id="Fill-24" fill="#FFB27D"></path>
                    <path d="M90.9507517,161.113085 C90.9507517,161.113085 90.4404949,158.349706 90.4097565,157.080211 C90.3790181,155.810717 90.2284001,154.774834 90.5265623,154.737948 C90.8277982,154.704136 91.0429668,154.937747 91.1659202,155.346568 C91.2888737,155.752314 91.7560968,158.285155 91.7560968,158.285155 L91.5194114,160.725781 L90.9507517,161.113085 Z" id="Fill-25" fill="#FFB27D"></path>
                    <path d="M375.980273,259.173183 L150.47333,256.408159 C133.347963,256.198968 122.728859,237.697851 131.188014,222.806077 L246.442037,19.8682661 C255.185895,4.47245939 277.465788,4.74462096 285.828086,20.3512194 L396.080206,226.04987 C404.17301,241.14363 393.102438,259.38059 375.980273,259.173183 Z" id="Fill-26" fill="#E6EFFF"></path>
                    <path d="M265.695388,17.2994321 C260.54229,17.2729339 255.967083,19.9452382 253.453117,24.4542513 L139.790137,228.273386 C137.359525,232.632632 137.406662,237.810122 139.915835,242.12612 C142.425008,246.442119 146.89875,249.034601 151.880345,249.062098 L376.96504,250.299432 C381.950364,250.326971 386.451003,247.78361 389.004916,243.494575 C391.564155,239.20821 391.665353,234.030987 389.284542,229.643176 L277.857767,24.587733 C275.391736,20.0520236 270.845824,17.3289962 265.695388,17.2994321 Z M376.722527,267.299432 L150.934491,266.062478 C139.830446,266.001909 129.860688,260.245425 124.268594,250.662136 C118.676501,241.081781 118.573116,229.579753 123.992369,219.898806 L238.008786,16.1866681 C243.608093,6.17539138 253.810265,0.238533517 265.292049,0.299432105 C276.773834,0.363941301 286.906549,6.41286569 292.398998,16.4855122 L404.17409,221.434384 C409.484883,231.174566 409.25514,242.670725 403.556991,252.192644 C397.858841,261.711895 387.82764,267.359782 376.722527,267.299432 Z" id="Fill-27" fill="#216DF2"></path>
                    <path d="M270.925174,109.299432 L259.236638,109.170742 L258,67.2994321 L273,67.4644458 L270.925174,109.299432 Z M257.000457,122.739005 C257.011198,121.65762 257.21137,120.659366 257.600975,119.745135 C257.990579,118.831897 258.534463,118.042411 259.234579,117.377669 C259.935671,116.71402 260.774444,116.197264 261.752849,115.830777 C262.730277,115.465184 263.829762,115.286906 265.053256,115.300116 C266.273821,115.313126 267.378188,115.514446 268.364405,115.901889 C269.351598,116.289432 270.188417,116.823072 270.874863,117.501818 C271.561309,118.181656 272.089569,118.982763 272.460621,119.904442 C272.82972,120.826023 273.009387,121.828052 272.999623,122.909436 C272.987905,123.991814 272.787732,124.982123 272.399105,125.878377 C272.008524,126.776618 271.46464,127.558059 270.764524,128.221907 C270.064408,128.886649 269.216848,129.402412 268.221843,129.768303 C267.226838,130.134392 266.118565,130.311776 264.898,130.298765 C263.675482,130.285556 262.579903,130.08513 261.60931,129.698184 C260.638717,129.311336 259.810686,128.777497 259.125216,128.097758 C258.437794,127.418913 257.908557,126.626646 257.539458,125.720063 C257.168406,124.814373 256.989716,123.820389 257.000457,122.739005 Z" id="Fill-28" fill="#216DF2"></path>
                    <path d="M466.661158,130.58989 C462.118028,129.080636 458.97042,130.983341 458.97042,130.983341 C445.885099,131.521262 445.399432,144.935484 446.936351,149.927394 C449.094184,156.938815 441.458774,162.465573 449.92412,165.302724 C459.748101,168.594802 467.99213,164.69103 467.429618,166.384714 C498.496882,168.834562 476.99847,134.020291 466.661158,130.58989 Z" id="Fill-29" fill="#163560"></path>
                    <path d="M453.090171,195.828992 C453.090171,195.828992 451.845267,198.291135 449.592145,201.119065 C446.8718,204.524875 432.606126,196.44376 433.832586,195.828992 C435.062121,195.214225 442.233381,174.558045 443.93936,171.963727 C445.648413,169.366335 451.464112,168.019995 451.464112,168.019995 L453.090171,195.828992 Z" id="Fill-30" fill="#B2CAFF"></path>
                    <path d="M501.238744,335.135256 C501.238744,335.135256 505.176328,338.731644 504.407869,341.282929 C503.63941,343.837287 500.086055,345.540192 499.606537,348.660136 C499.123944,351.78008 497.202796,353.482985 495.4753,353.482985 L487.231271,353.482985 C487.231271,353.482985 485.958703,351.288266 489.032539,350.624317 C492.106376,349.963443 493.265212,346.296356 493.074634,342.890545 C492.880983,339.487808 493.360501,334.947752 493.360501,334.947752 L499.892403,333.435424 L501.238744,335.135256 Z" id="Fill-31" fill="#1C2529"></path>
                    <path d="M467.906062,336.662953 C467.906062,336.662953 469.323101,351.887664 467.595605,352.739117 L445.470131,352.693009 C445.470131,352.693009 445.470131,350.138651 449.023485,349.573065 C452.57684,349.004406 458.819802,346.923418 459.877202,342.288073 C460.934601,337.655802 467.906062,336.662953 467.906062,336.662953 Z" id="Fill-32" fill="#1C2529"></path>
                    <path d="M484.925894,185.559305 C484.925894,185.559305 485.257868,190.206946 484.925894,195.785959 C484.707652,199.483784 480.966793,204.435734 480.438093,205.659121 C479.104048,208.732957 477.604016,209.233993 477.604016,209.233993 L465.987988,212.080365 L461.90286,213.079362 L449.020412,209.233993 C449.020412,209.233993 443.155532,192.856593 445.510091,183.638157 C447.864649,174.419722 451.464112,168.019995 451.464112,168.019995 C451.464112,168.019995 460.218397,166.05274 475.661351,167.147025 L484.925894,185.559305 Z" id="Fill-33" fill="#B2CAFF"></path>
                    <path d="M486.032475,195.91506 C485.814233,199.612885 480.966793,204.435734 480.438093,205.659121 C479.104048,208.732957 477.604016,209.233993 477.604016,209.233993 L465.987988,212.080365 L463.888558,206.067941 C463.888558,206.067941 480.862282,201.610879 478.132716,185.900501 L486.032475,195.91506 Z" id="Fill-34" fill="#9FBDFF"></path>
                    <path d="M449.841126,211.717653 C449.841126,211.717653 443.462916,231.574635 443.051021,238.334001 C442.642201,245.093368 455.24493,334.366797 455.752113,337.480593 C456.231632,340.419181 459.877202,342.288073 459.877202,342.288073 C459.877202,342.288073 461.552442,343.277848 463.946961,342.601604 C467.266704,341.664084 468.317956,340.542134 468.317956,340.542134 C468.317956,340.542134 473.282202,276.873762 470.208366,254.130447 C467.137603,231.387131 467.100717,211.717653 467.100717,211.717653 L449.841126,211.717653 Z" id="Fill-35" fill="#1C2529"></path>
                    <path d="M476.866295,211.127476 C476.866295,211.127476 486.598061,224.182059 487.504843,233.007043 C488.411625,241.835101 488.928029,272.834741 490.861472,281.438409 C492.791841,290.042077 499.892403,306.597759 499.892403,333.435424 C499.892403,333.435424 499.154683,334.972343 496.87697,335.789983 C496.148471,336.054333 495.170991,336.306388 494.224249,336.52463 C492.343061,336.954967 490.415766,336.038964 489.558165,334.311468 C484.756833,324.644252 469.464497,293.472478 468.680669,287.002052 C468.127378,282.422036 463.298381,252.11401 452.767418,234.328793 C450.237651,230.059234 454.319706,213.079362 454.319706,213.079362 L476.866295,211.127476 Z" id="Fill-36" fill="#263238"></path>
                    <path d="M448.820612,208.653038 C448.820612,208.653038 451.381118,210.678696 456.468317,210.783206 C462.545292,210.903086 477.604016,209.233993 477.604016,209.233993 C477.604016,209.233993 478.271038,211.102885 478.246448,213.076288 C478.246448,213.076288 459.855685,217.714707 449.198694,213.752532 C449.198694,213.752532 447.824689,211.167436 448.820612,208.653038 Z" id="Fill-37" fill="#233862"></path>
                    <path d="M455.011319,210.660253 C453.990805,210.660253 453.157795,211.656176 453.157795,212.879563 C453.157795,214.10295 453.990805,215.098872 455.011319,215.098872 C456.034906,215.098872 456.864842,214.10295 456.864842,212.879563 C456.864842,211.656176 456.034906,210.660253 455.011319,210.660253 Z M455.011319,216.01795 C453.483622,216.01795 452.238718,214.610133 452.238718,212.879563 C452.238718,211.148993 453.483622,209.741176 455.011319,209.741176 C456.542089,209.741176 457.783919,211.148993 457.783919,212.879563 C457.783919,214.610133 456.542089,216.01795 455.011319,216.01795 Z" id="Fill-38" fill="#FFFFFF"></path>
                    <polygon id="Fill-39" fill="#B5453C" points="468.296439 221.726064 440.656503 221.984266 427.057851 190.022516 454.697787 189.764313"></polygon>
                    <path d="M464.681608,207.282107 L462.65595,204.792299 C462.65595,204.792299 461.285019,203.568912 460.289096,203.362965 C459.296247,203.153944 457.193742,201.942853 456.990869,202.284049 C456.787996,202.625245 458.604633,205.059723 458.604633,205.059723 L458.696848,205.075092 C456.609714,206.642749 451.341158,205.259522 450.692579,205.89888 C449.902603,206.673487 451.777643,208.351802 452.782787,209.295469 C453.787932,210.236063 456.661969,211.806794 458.902796,211.109033 C460.538076,210.598776 463.117025,210.079298 463.117025,210.079298 L464.681608,207.282107 Z" id="Fill-40" fill="#FFB27D"></path>
                    <path d="M429.135764,195.644562 C429.135764,195.644562 430.872482,193.671159 431.979063,194.617901 C433.08257,195.564642 431.690122,200.224578 430.635796,199.751208 C429.584544,199.277837 428.530218,196.222443 429.135764,195.644562 Z" id="Fill-41" fill="#FFB27D"></path>
                    <path d="M475.661351,167.147025 C475.661351,167.147025 483.573406,168.019995 489.253856,178.33579 C493.729361,186.472235 501.386288,201.469482 498.496882,205.708302 C497.227387,207.567973 485.073438,214.185943 461.629288,210.402051 C461.629288,210.402051 461.998149,207.441946 463.888558,206.067941 C463.888558,206.067941 483.619514,199.735838 483.585701,198.475565 C483.521151,196.090268 480.920685,194.030798 469.897908,183.008021 C466.900918,180.007957 475.661351,167.147025 475.661351,167.147025 Z" id="Fill-42" fill="#B2CAFF"></path>
                    <path d="M469.572081,167.565067 C469.845653,167.199281 469.495236,166.03737 469.058751,163.87339 C468.6653,161.912282 467.998277,158.878406 468.013646,155.466447 L467.429618,155.56481 L457.62408,157.21546 C457.62408,157.21546 457.845396,159.837443 457.851543,162.305733 L457.854617,162.36721 C457.863839,164.512748 457.273662,167.755645 457.999088,168.179834 C461.712282,170.356111 468.526977,168.96981 469.572081,167.565067 Z" id="Fill-43" fill="#FFB27D"></path>
                    <path d="M457.62408,157.21546 C457.62408,157.21546 457.817731,160.913285 457.823879,163.381576 C463.313751,163.249401 466.240043,157.922442 467.429618,155.56481 L457.62408,157.21546 Z" id="Fill-44" fill="#E8945B"></path>
                    <path d="M457.030829,161.623341 C457.030829,161.623341 469.885613,159.794409 468.622266,151.805508 C467.358919,143.816607 468.167338,138.200708 459.90794,139.030644 C451.645468,139.863654 450.535813,143.16188 450.308349,145.931407 C450.083959,148.700933 453.655757,161.893839 457.030829,161.623341 Z" id="Fill-45" fill="#FFB27D"></path>
                    <path d="M454.036913,139.765291 C454.036913,139.765291 459.038044,148.57798 464.647796,149.103606 C470.254473,149.632306 472.363125,147.815669 472.363125,147.815669 C472.363125,147.815669 467.706263,145.190612 465.935733,139.59623 C465.935733,139.59623 455.973429,134.884039 454.036913,139.765291 Z" id="Fill-46" fill="#163560"></path>
                    <path d="M455.026688,140.38928 C455.026688,140.38928 452.579914,141.77558 451.811455,143.844272 C451.058365,145.86993 450.55733,148.470396 451.245869,151.455091 C451.245869,151.455091 447.58493,145.507217 449.982522,141.43131 C452.527659,137.106423 455.026688,140.38928 455.026688,140.38928 Z" id="Fill-47" fill="#163560"></path>
                </g>
                <path d="M213.128342,232.299432 L213.128342,216.564584 L224,216.564584 L224,206.413068 L213.128342,206.413068 L213.128342,165.299432 L196.363636,165.299432 L167,209.153978 L167,216.564584 L200.427807,216.564584 L200.427807,232.299432 L213.128342,232.299432 Z M200.698492,206.299432 L181,206.299432 L194.768844,185.551045 C197.314908,181.559647 199.324958,177.80911 200.798995,174.299432 L200.798995,174.299432 L201,174.299432 L200.698492,185.447819 L200.698492,206.299432 Z M260,233.299432 C268.931818,233.299432 275.664773,230.390609 280.198864,224.572962 C284.732955,218.755314 287,210.164138 287,198.799432 C287,187.434726 284.732955,178.84355 280.198864,173.025903 C275.664773,167.208256 268.931818,164.299432 260,164.299432 C251.068182,164.299432 244.335227,167.208256 239.801136,173.025903 C235.267045,178.84355 233,187.434726 233,198.799432 C233,210.164138 235.267045,218.755314 239.801136,224.572962 C244.335227,230.390609 251.068182,233.299432 260,233.299432 Z M260,222.299432 C255.597884,222.299432 252.330688,220.383857 250.198413,216.552707 C248.066138,212.721557 247,206.803799 247,198.799432 C247,190.795065 248.066138,184.877307 250.198413,181.046157 C252.330688,177.215007 255.597884,175.299432 260,175.299432 C264.402116,175.299432 267.669312,177.215007 269.801587,181.046157 C271.933862,184.877307 273,190.795065 273,198.799432 C273,206.803799 271.933862,212.721557 269.801587,216.552707 C267.669312,220.383857 264.402116,222.299432 260,222.299432 Z M322.15213,233.299432 C329.589588,233.299432 335.590264,231.286497 340.154158,227.260626 C344.718053,223.234755 347,217.466596 347,209.956149 C347,203.731273 345.123732,198.707392 341.371197,194.884507 C337.618661,191.061621 332.496957,189.150178 326.006085,189.150178 C322.895876,189.150178 320.106829,189.589979 317.638945,190.469581 C315.171062,191.349183 313.193374,192.600925 311.705882,194.224805 L311.705882,194.224805 L311.604462,194.224805 L311.908722,192.296447 L313.8357,176.565104 L343.551724,176.565104 L343.551724,165.299432 L303.288032,165.299432 L299.129817,203.257641 L310.083164,204.475552 C312.652468,201.22779 316.74307,199.60391 322.35497,199.60391 C326.141312,199.60391 329.014875,200.568089 330.975659,202.496447 C332.936444,204.424805 333.950642,207.21585 334.018256,210.869581 C334.018256,214.455651 332.953347,217.22978 330.823529,219.191969 C328.693712,221.154158 325.769439,222.135253 322.05071,222.135253 C318.331981,222.135253 315.542934,221.306397 313.68357,219.648686 C311.824206,217.990974 310.455037,215.504407 309.576065,212.188984 L309.576065,212.188984 L297,219.191969 C299.569304,224.063611 302.899256,227.632765 306.989858,229.899432 C311.08046,232.166099 316.13455,233.299432 322.15213,233.299432 Z" id="405" stroke="#263238" stroke-width="4" fill="#263238" fill-rule="nonzero"></path>
            </g>
        </g>
    </g>
</svg>