<?xml version="1.0" encoding="UTF-8"?>
<svg width="520px" height="520px" viewBox="0 0 520 520" version="1.1" xmlns="http://www.w3.org/2000/svg" xmlns:xlink="http://www.w3.org/1999/xlink">
    <title>Group 15</title>
    <g id="Error" stroke="none" stroke-width="1" fill="none" fill-rule="evenodd">
        <g id="Group-15">
            <rect id="Rectangle-Copy-7" fill-opacity="0" fill="#D8D8D8" x="0" y="0" width="520" height="520"></rect>
            <g id="Deadline-rafiki-Copy" transform="translate(4.000000, 62.000000)" fill-rule="nonzero">
                <g id="freepik--background-complete--inject-145" transform="translate(2.118014, 0.000000)">
                    <rect id="Rectangle" fill="#EBEBEB" transform="translate(255.000000, 367.902266) scale(1, -1) translate(-255.000000, -367.902266) " x="0" y="367.402266" width="510" height="1"></rect>
                    <rect id="Rectangle" fill="#EBEBEB" x="465.320524" y="379.608019" width="43.6503753" height="1"></rect>
                    <rect id="Rectangle" fill="#EBEBEB" x="341.104103" y="383.192832" width="11.4529517" height="1"></rect>
                    <rect id="Rectangle" fill="#EBEBEB" x="438.711192" y="367.377479" width="25.2913859" height="1"></rect>
                    <rect id="Rectangle" fill="#EBEBEB" x="53.8313892" y="369.591628" width="8.34259889" height="1"></rect>
                    <rect id="Rectangle" fill="#EBEBEB" x="89.2973191" y="375.153361" width="123.465192" height="1"></rect>
                    <g id="Group-2" transform="translate(132.572845, 161.328688)">
                        <polygon id="Rectangle" fill="#EBEBEB" transform="translate(49.207517, 13.464819) rotate(-12.150000) translate(-49.207517, -13.464819) " points="44.7832737 9.04057621 53.63176 9.04057621 53.63176 17.8890626 44.7832737 17.8890626"></polygon>
                        <circle id="Oval" fill="#E0E0E0" transform="translate(59.717776, 62.268926) rotate(-86.940000) translate(-59.717776, -62.268926) " cx="59.7177756" cy="62.2689259" r="48.778479"></circle>
                        <circle id="Oval" fill="#F0F0F0" transform="translate(59.713444, 62.286556) rotate(-38.900000) translate(-59.713444, -62.286556) " cx="59.7134443" cy="62.2865557" r="42.4642162"></circle>
                        <polygon id="Rectangle" fill="#E0E0E0" transform="translate(47.711897, 6.554308) rotate(-12.150000) translate(-47.711897, -6.554308) " points="39.7418708 1.56572085 55.6819238 1.56572085 55.6819238 11.542895 39.7418708 11.542895"></polygon>
                        <path d="M63.7273707,61.7590941 C64.1788802,63.9188273 62.7962827,66.0362739 60.637483,66.491254 C58.4786833,66.9462341 56.3592561,65.5668604 55.9008968,63.4085708 C55.4425376,61.2502813 56.8184102,59.128458 58.9757556,58.6666297 C60.0161379,58.4439125 61.1023741,58.6449851 61.9941262,59.2253586 C62.8858783,59.8057322 63.5096298,60.7175603 63.7273707,61.7590941 Z" id="Path" fill="#E0E0E0"></path>
                        <path d="M49.8128191,27.5780208 C51.091807,30.3121411 52.1911023,33.0996622 53.3009678,35.8871832 L54.8864899,40.0844851 L56.3874508,44.3565481 C57.4444655,47.1761096 58.3217877,50.0170315 59.2202503,52.900674 C60.1187128,55.7843165 60.996035,58.603878 61.8099364,61.4447999 L58.6388922,60.569027 C60.5556122,58.7961208 62.4899492,57.044575 64.4419031,55.3143895 C66.3973803,53.584204 68.384568,51.886059 70.3823259,50.2199545 C72.3800837,48.5538499 74.4201221,46.8984255 76.4707307,45.2750416 C78.5213393,43.6516577 80.6247986,42.0709944 82.8128191,40.5971327 C81.1744463,42.7331641 79.4515123,44.6555925 77.7180081,46.6207414 C75.984504,48.5858904 74.2087192,50.5083187 72.4329344,52.3880264 C70.6571497,54.2677341 68.8073739,56.158122 66.9575981,57.995109 C65.1078223,59.8320961 63.2369063,61.658403 61.3342797,63.4419893 L59.0722682,65.5780208 L58.1526654,62.5662164 C57.2859133,59.7039342 56.472012,56.8309719 55.6792509,53.9473294 C54.8864899,51.0636869 54.1254393,48.1800444 53.4278095,45.2643614 L52.3707948,40.8961771 L51.4300517,36.5066324 C50.806413,33.5055081 50.2144847,30.5684649 49.8128191,27.5780208 Z" id="Path" fill="#E0E0E0"></path>
                    </g>
                    <path d="M25.5565279,101.907274 L25.5565279,110.658436 L30.0507242,111.080179 C30.6577365,113.971386 31.7973839,116.724416 33.4114867,119.198727 L30.5251848,122.691284 L36.706352,128.872452 L40.1989092,125.97297 C42.653097,127.597908 45.3953288,128.73864 48.2779189,129.333733 L48.6996616,133.827929 L57.4112855,133.827929 L57.8330282,129.333733 C60.7148541,128.736162 63.4566313,127.595619 65.9120379,125.97297 L69.4045951,128.872452 L75.5857623,122.691284 L72.7258193,119.198727 C74.336532,116.738469 75.4719853,113.998183 76.0734024,111.119717 L80.5807781,110.697975 L80.5807781,101.946812 L76.0734024,101.52507 C75.4719853,98.6466046 74.336532,95.9063179 72.7258193,93.4460601 L75.6121213,89.9535029 L69.430954,83.7723356 L65.9383968,86.671817 C63.4829902,85.0491682 60.7412131,83.9086247 57.8593871,83.3110545 L57.4376444,78.8036787 L48.6996616,78.8036787 L48.2779189,83.3110545 C45.3953288,83.9061467 42.653097,85.0468793 40.1989092,86.671817 L36.706352,83.7723356 L30.5251848,89.9535029 L33.4114867,93.4460601 C31.8018731,95.9083834 30.6623894,98.6476129 30.0507242,101.52507 L25.5565279,101.907274 Z M53.0620633,94.4476991 C59.6129971,94.4476991 64.9235783,99.7582803 64.9235783,106.309214 C64.9235783,112.860148 59.6129971,118.170729 53.0620633,118.170729 C46.5111294,118.170729 41.2005483,112.860148 41.2005483,106.309214 C41.2005483,99.7582803 46.5111294,94.4476991 53.0620633,94.4476991 L53.0620633,94.4476991 Z" id="Shape" fill="#EBEBEB"></path>
                    <path d="M62.3189621,329.842374 L64.6121884,331.740216 L68.6846419,327.667763 L66.77362,325.374536 C67.8394588,323.773669 68.5908778,321.984577 68.9877695,320.102752 L71.9531482,319.825983 L71.9531482,314.066559 L68.9877695,313.78979 C68.5958787,311.906407 67.8440726,310.116392 66.77362,308.518006 L68.6846419,306.2116 L64.6121884,302.139146 L62.3189621,303.971091 C60.7185544,302.904397 58.9292916,302.152907 57.0471777,301.756942 L56.770409,298.791563 L51.0241639,298.791563 L50.7342158,301.756942 C48.8523912,302.153834 47.0632982,302.905253 45.4624313,303.971091 L43.1692051,302.06007 L39.0967516,306.132523 L40.994594,308.438929 C39.9336837,310.040939 39.1867849,311.829918 38.793624,313.710713 L35.8282453,313.987482 L35.8282453,319.746906 L38.793624,320.023675 C39.1916276,321.902965 39.9381593,323.691065 40.994594,325.29546 L39.0967516,327.588686 L43.1692051,331.661139 L45.4624313,329.763297 C47.066826,330.819732 48.8549261,331.566263 50.7342158,331.964267 L51.0241639,334.929646 L56.770409,334.929646 L57.0471777,331.964267 C58.921251,331.591457 60.7091826,330.871814 62.3189621,329.842374 L62.3189621,329.842374 Z M46.0555071,316.900143 C46.0555071,313.749762 47.953251,310.909587 50.8638238,309.703988 C53.7743966,308.49839 57.1246109,309.164789 59.3522668,311.392445 C61.5799228,313.620101 62.2463219,316.970315 61.0407231,319.880888 C59.8351244,322.79146 56.9949499,324.689305 53.8445686,324.689305 C51.771939,324.699725 49.7805881,323.883742 48.3112932,322.421867 C46.8419982,320.959993 46.0159687,318.972799 46.0159687,316.900143 L46.0555071,316.900143 Z" id="Shape" fill="#E6E6E6"></path>
                    <path d="M227.062226,28.4808155 L228.380172,29.5878902 L230.739296,27.2287667 L229.645401,25.9108206 C230.274033,24.9744624 230.721107,23.9283102 230.963347,22.8268267 L232.676677,22.6686731 L232.676677,19.3342695 L230.963347,19.1761159 C230.721107,18.0746324 230.274033,17.0284803 229.645401,16.092122 L230.739296,14.7741759 L228.380172,12.3886935 L227.062226,13.4957682 C226.132463,12.8638602 225.08997,12.416438 223.991412,12.1778221 L223.820079,10.4513127 L220.472496,10.4513127 L220.314342,12.1646426 C219.212954,12.4071813 218.166856,12.8542318 217.230348,13.4825887 L215.912402,12.375514 L213.566458,14.7346375 L214.660353,16.0525837 C214.03172,16.9889419 213.584647,18.035094 213.342407,19.1365776 L211.629077,19.2947311 L211.629077,22.6291348 L213.342407,22.7872883 C213.584647,23.8887718 214.03172,24.934924 214.660353,25.8712822 L213.566458,27.1892283 L215.912402,29.5483518 L217.230348,28.4412771 C218.163603,29.0756046 219.210888,29.5231623 220.314342,29.7592232 L220.472496,31.4725532 L223.806899,31.4725532 L223.978232,29.7592232 C225.078549,29.5343073 226.12548,29.1003232 227.062226,28.4808155 L227.062226,28.4808155 Z M217.638912,20.9817021 C217.638912,18.4850684 219.662833,16.4611469 222.159467,16.4611469 C224.6561,16.4611469 226.680022,18.4850684 226.680022,20.9817021 C226.680022,23.4783358 224.6561,25.5022573 222.159467,25.5022573 C220.949164,25.5199021 219.782342,25.0514315 218.920267,24.201743 C218.058192,23.3520545 217.572886,22.1921332 217.573014,20.9817021 L217.638912,20.9817021 Z" id="Shape" fill="#F5F5F5"></path>
                    <path d="M429.077006,17.9899644 L430.394953,19.0970392 L432.754076,16.7379156 L431.647001,15.4199695 C432.281329,14.4867148 432.728886,13.4394298 432.964947,12.3359756 L434.691457,12.1778221 L434.691457,8.84341842 L432.964947,8.67208542 C432.726331,7.57352765 432.278909,6.53103388 431.647001,5.60127098 L432.754076,4.28332487 L430.394953,1.92420132 L429.077006,3.03127606 C428.140498,2.40291912 427.0944,1.95586862 425.993012,1.71332995 L425.834859,0 L422.500455,0 L422.342302,1.71332995 C421.240914,1.95586862 420.194816,2.40291912 419.258308,3.03127606 L417.940362,1.92420132 L415.52852,4.25696594 L416.635595,5.57491206 C416.003687,6.50467496 415.556265,7.54716873 415.317649,8.6457265 L413.59114,8.81705949 L413.59114,12.1514632 L415.317649,12.3096167 C415.55371,13.4130708 416.001268,14.4603558 416.635595,15.3936106 L415.52852,16.7115567 L417.887644,19.0706803 L419.20559,17.9636055 C420.138845,18.597933 421.18613,19.0454907 422.289584,19.2815516 L422.447737,20.9948816 L425.782141,20.9948816 L425.940295,19.2815516 C427.060198,19.0600581 428.125846,18.6212619 429.077006,17.9899644 L429.077006,17.9899644 Z M419.653672,10.4908511 C419.653672,7.99421738 421.677613,5.97029589 424.174247,5.97029589 C426.670881,5.97029589 428.694802,7.99421738 428.694802,10.4908511 C428.694802,12.9874847 426.670881,15.0114256 424.174247,15.0114256 C422.974247,15.0149202 421.822384,14.5397772 420.973852,13.6912458 C420.125321,12.8427143 419.650178,11.6908506 419.653672,10.4908511 L419.653672,10.4908511 Z" id="Shape" fill="#F0F0F0"></path>
                    <path d="M472.397895,228.887701 L474.691121,230.785544 L478.763575,226.72627 L476.865732,224.419864 C477.922167,222.815469 478.668699,221.027369 479.066702,219.14808 L482.032081,218.871311 L482.032081,213.111886 L479.066702,212.835118 C478.671103,210.95508 477.924389,209.166545 476.865732,207.563333 L478.763575,205.256928 L474.691121,201.184474 L472.397895,203.095496 C470.791438,202.040114 469.004383,201.289551 467.126111,200.881347 L466.836163,197.915968 L461.089917,197.915968 L460.813149,200.881347 C458.934604,201.288685 457.147395,202.039313 455.541364,203.095496 L453.248138,201.184474 L449.175685,205.256928 L451.086706,207.563333 C450.018577,209.16297 449.266967,210.952519 448.872557,212.835118 L445.907178,213.111886 L445.907178,218.871311 L448.872557,219.14808 C449.269449,221.029904 450.020868,222.818997 451.086706,224.419864 L449.175685,226.72627 L453.248138,230.785544 L455.541364,228.887701 C457.147395,229.943884 458.934604,230.694512 460.813149,231.101851 L461.089917,234.05405 L466.836163,234.05405 L467.126111,231.101851 C469.004383,230.693647 470.791438,229.943083 472.397895,228.887701 Z M456.13444,215.945471 C456.13444,211.643691 459.621722,208.156409 463.923502,208.156409 C468.225282,208.156409 471.712563,211.643691 471.712563,215.945471 C471.712563,220.24725 468.225282,223.734532 463.923502,223.734532 C459.624731,223.727277 456.141695,220.244242 456.13444,215.945471 L456.13444,215.945471 Z" id="Shape" fill="#EBEBEB"></path>
                    <path d="M314.336618,353.723557 L317.974149,356.728474 L324.405726,350.296897 L321.400809,346.659366 C323.0832,344.100994 324.268086,341.248324 324.893366,338.25087 L329.572075,337.815948 L329.572075,328.722119 L324.893366,328.274018 C324.265608,325.281428 323.080847,322.433529 321.400809,319.878701 L324.405726,316.24117 L318.000508,309.809593 L314.362977,312.81451 C311.808149,311.134472 308.96025,309.94971 305.96766,309.321953 L305.519558,304.643244 L296.42573,304.643244 L295.990808,309.321953 C292.993353,309.947232 290.140684,311.132119 287.582312,312.81451 L283.94478,309.809593 L277.513203,316.24117 L280.518121,319.878701 C278.838083,322.433529 277.653321,325.281428 277.025563,328.274018 L272.346855,328.722119 L272.346855,337.815948 L277.025563,338.25087 C277.650843,341.248324 278.835729,344.100994 280.518121,346.659366 L277.513203,350.296897 L283.94478,356.728474 L287.582312,353.723557 C290.140684,355.405948 292.993353,356.590835 295.990808,357.216114 L296.42573,361.894823 L305.519558,361.894823 L305.96766,357.216114 C308.951079,356.58522 311.789768,355.40057 314.336618,353.723557 Z M288.636662,333.269034 C288.631338,328.282533 291.631736,323.784318 296.237644,321.873604 C300.843551,319.96289 306.147,321.016338 309.67299,324.542328 C313.198981,328.068319 314.252429,333.371767 312.341715,337.977675 C310.431001,342.583583 305.932786,345.583981 300.946285,345.578657 C294.150883,345.571386 288.643933,340.064436 288.636662,333.269034 L288.636662,333.269034 Z" id="Shape" fill="#F0F0F0"></path>
                </g>
                <path d="M188.92932,155.906709 L188.92932,131.959739 L205.503679,131.959739 L205.503679,112.47186 L188.92932,112.47186 L188.92932,46.9067086 L155.944705,46.9067086 L109.503679,118.582466 L109.503679,131.959739 L163.98573,131.959739 L163.98573,155.906709 L188.92932,155.906709 Z M163.844588,112.906709 L135.503679,112.906709 L154.617315,83.779948 C159.011255,76.8292438 162.196861,70.8714973 164.174134,65.9067086 L164.174134,65.9067086 L164.503679,65.9067086 L163.844588,83.779948 L163.844588,112.906709 Z M263.503679,157.906709 C293.503679,157.906709 308.503679,139.240042 308.503679,101.906709 C308.503679,64.5733753 293.503679,45.9067086 263.503679,45.9067086 C233.503679,45.9067086 218.503679,64.5733753 218.503679,101.906709 C218.503679,139.240042 233.503679,157.906709 263.503679,157.906709 Z M263.503679,135.906709 C257.510089,135.906709 253.178359,133.265932 250.508487,127.984378 C247.838615,122.702825 246.503679,114.010268 246.503679,101.906709 C246.503679,89.8031487 247.838615,81.1105921 250.508487,75.8290387 C253.178359,70.5474853 257.510089,67.9067086 263.503679,67.9067086 C269.497269,67.9067086 273.829,70.5474853 276.498871,75.8290387 C279.168743,81.1105921 280.503679,89.8031487 280.503679,101.906709 C280.503679,114.010268 279.168743,122.702825 276.498871,127.984378 C273.829,133.265932 269.497269,135.906709 263.503679,135.906709 Z M368.421742,157.906709 C382.187106,157.906709 392.975436,155.181045 400.786733,149.729717 C408.59803,144.27839 412.503679,136.81723 412.503679,127.346237 C412.503679,120.738567 410.728384,115.177112 407.177795,110.661871 C403.627205,106.14663 398.519818,102.787731 391.855634,100.585175 L391.855634,100.585175 L391.855634,100.419983 C397.31808,98.3275542 401.551475,95.2164431 404.555821,91.0866496 C407.560166,86.9568561 409.062338,82.0836997 409.062338,76.4671806 C409.062338,66.9961874 405.429812,59.5350272 398.164759,54.0836997 C390.899706,48.6323723 380.985367,45.9067086 368.421742,45.9067086 C355.967366,45.9067086 346.107652,48.6323723 338.842599,54.0836997 C331.577546,59.5350272 327.94502,66.9961874 327.94502,76.4671806 C327.94502,82.0836997 329.447192,86.9568561 332.451538,91.0866496 C335.455883,95.2164431 339.689278,98.3275542 345.151724,100.419983 L345.151724,100.419983 L345.151724,100.585175 C338.48754,102.787731 333.380153,106.14663 329.829564,110.661871 C326.278974,115.177112 324.503679,120.738567 324.503679,127.346237 C324.503679,136.81723 328.43664,144.27839 336.302562,149.729717 C344.168484,155.181045 354.874877,157.906709 368.421742,157.906709 Z M367.920822,91.9067086 C363.501774,91.9067086 359.994155,90.7828051 357.397965,88.5349981 C354.801774,86.287191 353.503679,83.2444279 353.503679,79.4067086 C353.503679,75.4593402 354.774155,72.3891647 357.315108,70.1961823 C359.85606,68.0031998 363.391298,66.9067086 367.920822,66.9067086 C372.450346,66.9067086 376.013203,68.0031998 378.609393,70.1961823 C381.205584,72.3891647 382.503679,75.4593402 382.503679,79.4067086 C382.503679,83.2444279 381.205584,86.287191 378.609393,88.5349981 C376.013203,90.7828051 372.450346,91.9067086 367.920822,91.9067086 Z M367.922398,136.906709 C362.828802,136.906709 358.81895,135.699392 355.892842,133.284757 C352.966733,130.870123 351.503679,127.57744 351.503679,123.406709 C351.503679,119.126221 352.966733,115.806099 355.892842,113.446343 C358.81895,111.086587 362.828802,109.906709 367.922398,109.906709 C373.124369,109.906709 377.188408,111.086587 380.114517,113.446343 C383.040625,115.806099 384.503679,119.126221 384.503679,123.406709 C384.503679,127.57744 383.040625,130.870123 380.114517,133.284757 C377.188408,135.699392 373.124369,136.906709 367.922398,136.906709 Z" id="408" fill="#263238"></path>
                <g id="freepik--Shadow--inject-145" transform="translate(0.000000, 367.121312)" fill="#F5F5F5">
                    <ellipse id="freepik--path--inject-145" cx="255.536572" cy="14.91915" rx="255.536572" ry="14.91915"></ellipse>
                </g>
                <g id="freepik--Hourglass--inject-145" transform="translate(47.765779, 235.215856)">
                    <path d="M45.8333379,5.61670704 C20.0113191,10.085681 -0.157641702,18.1089737 0.768565526,23.5567894 L1.20771551,26.0761033 L1.20771551,26.0761033 C2.13392273,31.4918258 23.8279317,32.2540386 49.6419659,27.7609947 C75.4560001,23.2679509 95.6409301,15.2446582 94.7067383,9.82893568 L94.2755729,7.30962179 C93.3413811,1.88587597 71.6553567,1.13168646 45.8333379,5.61670704 Z" id="Path" fill="#407BFF"></path>
                    <ellipse id="Oval" fill="#FFFFFF" opacity="0.2" transform="translate(48.339953, 17.811149) rotate(-9.810000) translate(-48.339953, -17.811149) " cx="48.3399526" cy="17.8111492" rx="47.3474214" ry="9.88861494"></ellipse>
                    <path d="M47.876472,13.3117112 C24.8563129,17.3240697 6.93234074,24.5463149 7.76582926,29.361145 L8.48024799,33.558072 L8.48024799,33.558072 C9.27404658,38.4130257 28.6189182,39.0871019 51.5993874,35.0667188 C74.5798565,31.0463356 92.5435186,23.8321151 91.7100301,19.0172849 L91.7100301,19.0172849 L90.9956113,14.8283827 C90.1621228,9.97342898 70.8569411,9.29132804 47.876472,13.3117112 Z" id="Path" fill="#407BFF"></path>
                    <ellipse id="Oval" fill="#FFFFFF" opacity="0.2" transform="translate(49.801532, 26.282264) rotate(-9.810000) translate(-49.801532, -26.282264) " cx="49.8015322" cy="26.2822643" rx="42.3911616" ry="8.85274069"></ellipse>
                    <path d="M71.4901486,77.2750213 C69.4572552,76.203751 68.0355684,74.2421621 67.6435938,71.9676925 C67.2516191,69.6932229 67.9339767,67.364785 69.4897992,65.667807 C78.8380458,55.4313342 90.1547638,39.1347413 87.2857367,22.3812345 C86.6641142,18.7980683 69.4818297,18.7900522 48.9045297,22.3812345 C28.3272298,25.9724168 12.1411353,31.776024 12.7547883,35.3591902 C15.6317849,52.0886489 31.7302147,63.6157028 43.955458,70.1006727 C45.9883514,71.1719429 47.4100382,73.1335318 47.8020129,75.4080014 C48.1939875,77.682471 47.51163,80.0109089 45.9558074,81.7078869 C36.5995913,91.9363437 25.2828733,108.232937 28.1598699,124.994459 C28.7814925,128.585642 45.963777,128.593658 66.5410769,124.994459 C87.1183768,121.395261 103.304471,115.59967 102.722696,112.032536 C99.8138217,95.279029 83.7074224,83.7519751 71.4901486,77.2750213 Z" id="Path" fill="#407BFF"></path>
                    <path d="M71.4901486,77.2750213 C69.4572552,76.203751 68.0355684,74.2421621 67.6435938,71.9676925 C67.2516191,69.6932229 67.9339767,67.364785 69.4897992,65.667807 C78.8380458,55.4313342 90.1547638,39.1347413 87.2857367,22.3812345 C86.6641142,18.7980683 69.4818297,18.7900522 48.9045297,22.3812345 C28.3272298,25.9724168 12.1411353,31.776024 12.7547883,35.3591902 C15.6317849,52.0886489 31.7302147,63.6157028 43.955458,70.1006727 C45.9883514,71.1719429 47.4100382,73.1335318 47.8020129,75.4080014 C48.1939875,77.682471 47.51163,80.0109089 45.9558074,81.7078869 C36.5995913,91.9363437 25.2828733,108.232937 28.1598699,124.994459 C28.7814925,128.585642 45.963777,128.593658 66.5410769,124.994459 C87.1183768,121.395261 103.304471,115.59967 102.722696,112.032536 C99.8138217,95.279029 83.7074224,83.7519751 71.4901486,77.2750213 Z" id="Path" fill="#FFFFFF" opacity="0.8"></path>
                    <path d="M100.736389,112.176735 C101.102105,115.962314 34.9712261,129.03023 30.5746914,123.226751 C29.6722282,121.915191 29.4866278,120.228427 30.0817706,118.747015 C30.5317235,117.404485 31.1980017,116.147069 32.0534535,115.026009 C34.0966893,112.217093 38.6045287,110.990211 41.657457,109.860187 C43.7165935,109.093385 45.7916307,108.391156 47.8666679,107.664713 C50.0927614,106.857553 52.3824576,107.422565 54.3143888,105.703315 C55.4751376,104.678222 56.341724,103.15269 57.8284365,102.781397 C58.9335329,102.506962 60.1181327,102.9509 61.2073284,102.652251 C62.6224879,102.264814 63.6321803,100.715068 65.0950418,100.690853 C65.8206516,100.779428 66.5332649,100.955557 67.217781,101.215507 C68.4898344,101.489941 69.7936892,101.062146 71.097544,100.941072 C72.381398,100.881745 73.667661,100.97657 74.929605,101.223578 C78.8737958,101.988542 82.8542624,102.546225 86.8551061,102.894399 C89.80468,103.055831 93.0722673,102.983186 95.9502882,103.806489 C97.2079975,104.285179 98.2490143,105.215706 98.8760112,106.421687 L98.8760112,106.421687 C99.9015266,108.179608 100.53645,110.143735 100.736389,112.176735 Z" id="Path" fill="#263238"></path>
                    <path d="M79.309445,104.190853 C79.379445,104.190853 79.309445,104.190853 79.139445,104.190853 L79.309445,104.190853 Z" id="Path" fill="#FFFFFF" opacity="0.2"></path>
                    <path d="M98.7379005,106.33949 C96.9047019,104.665819 93.5172698,104.77847 92.5448775,104.850889 C91.5724852,104.923307 91.2297568,104.086472 90.4964774,103.812891 C89.763198,103.539311 85.4272848,104.102565 85.4272848,104.102565 C85.4272848,104.102565 87.0213705,104.416378 87.3561285,104.947447 C87.6908865,105.478515 89.5081442,104.866982 89.7472571,104.794563 C89.5001738,104.9394 87.2843947,106.114188 86.2402685,105.406097 C85.1961424,104.698005 84.7657393,106.01763 83.9368147,106.355583 C83.1078901,106.693535 80.4935896,106.355583 80.0711568,106.218792 C78.8234629,106.147212 77.5727494,106.147212 76.3250554,106.218792 C76.9712893,105.79824 77.6999688,105.52375 78.4611303,105.414143 C79.162528,105.494608 81.9601484,104.006007 81.3862776,104.110612 C80.8124067,104.215216 79.5052564,103.442753 78.4850416,103.120893 C77.2471453,103.030893 76.0028725,103.112109 74.7867627,103.362288 C76.0251982,103.343261 77.2591459,103.516956 78.4451894,103.877263 C77.6308796,104.07334 76.831738,104.328817 76.0540608,104.64168 C75.3424894,104.873381 74.6016516,105.000742 73.8542226,105.019865 C73.2526803,105.240979 72.7344432,105.646024 72.3717229,106.17856 C71.4605125,106.39671 70.5368479,106.557946 69.6059841,106.661349 C68.6877308,106.743655 67.7625272,106.634091 66.888068,106.33949 L69.4067234,105.53484 L68.5459171,105.285399 C67.9546101,105.086535 67.3462245,104.943763 66.7286594,104.858935 C65.716415,104.689959 65.2860119,105.663584 65.0389286,105.896933 C64.7918453,106.130281 62.5760662,105.896933 61.9543727,105.744049 C61.3326793,105.591166 56.733742,107.474045 56.733742,107.474045 L59.6110667,106.975162 C60.3572887,107.295602 61.1527535,107.483436 61.9623432,107.53037 C63.8832164,107.787858 64.1621814,107.144139 64.9671947,107.200464 C65.772208,107.256789 68.4423016,108.005113 68.4423016,108.005113 L67.4061459,108.28674 C66.491313,108.415488 65.5632105,108.415488 64.6483776,108.28674 C63.0542919,108.069485 62.1934856,108.914367 61.7152599,109.002878 C60.4849734,109.281851 59.2352362,109.464779 57.9771289,109.550039 C57.459051,109.437389 56.0961077,110.081108 55.3468875,110.853571 C54.4779667,111.727188 53.1984854,112.03769 52.0311892,111.65822 C50.5805712,111.280035 48.1336496,113.066356 48.1336496,113.066356 C48.1336496,113.066356 49.4168886,111.352453 50.0864046,111.231756 C51.1264541,110.820888 52.1269543,110.314518 53.0753153,109.719016 C52.7173376,109.714539 52.3597401,109.744174 52.0072779,109.807527 C51.285966,109.867376 50.5710231,109.632585 50.0226412,109.155761 C49.2255983,108.600553 48.4285555,109.035064 47.2569025,109.638551 C46.0852495,110.242038 44.8259218,110.958175 43.5905053,110.081108 C42.3550889,109.20404 38.5691354,112.446776 38.5691354,112.446776 C39.430973,112.236536 40.2715083,111.945602 41.0798203,111.577755 C41.4305192,111.288081 41.6776025,111.577755 42.7934625,111.811103 C43.9093225,112.044452 44.2759622,111.255895 44.8259218,110.958175 C45.3758813,110.660455 47.0257601,111.159338 47.0257601,111.159338 C46.6358612,111.345725 46.2045288,111.426158 45.7744028,111.392686 C45.1686502,111.296128 44.1803171,113.058309 43.8614999,112.865194 C43.5426828,112.672078 41.2232881,112.977844 40.2269845,113.500866 C39.2306809,114.023888 37.7641221,115.769977 36.2895928,115.230862 C35.0382355,114.772212 32.2167038,118.642574 29.7379005,118.690853 C30.1889907,117.352499 30.8569528,116.098994 31.7145668,114.981421 C33.7629669,112.181242 38.2821999,110.958175 41.3428445,109.831667 C43.4071855,109.06725 45.4874673,108.367205 47.5677492,107.643021 C49.7994692,106.838372 52.0949526,107.401626 54.0317668,105.687724 C55.1954493,104.665819 56.064226,103.145033 57.5546962,102.774894 C58.6625857,102.501313 59.8501796,102.94387 60.9421283,102.64615 C62.3608646,102.259919 63.373109,100.714992 64.8396679,100.690853 C65.5671116,100.779153 66.2815261,100.954733 66.9677723,101.213875 C68.2430409,101.487456 69.5501911,101.060992 70.8573414,100.940294 C72.1444404,100.881151 73.4339545,100.975682 74.699088,101.221921 C78.6532477,101.984506 82.643775,102.540454 86.6547308,102.887545 C89.6117598,103.048475 92.887606,102.976056 95.7729011,103.796798 C97.0350874,104.251364 98.0894391,105.155543 98.7379005,106.33949 L98.7379005,106.33949 Z" id="Path" fill="#FFFFFF" opacity="0.2"></path>
                    <path d="M64.8803398,111.339715 C41.8622169,115.3496 23.9398301,122.567392 24.7653076,127.379253 L25.4876004,131.573592 L25.4876004,131.573592 C26.2813288,136.385454 45.6165521,137.099213 68.6029259,133.081309 C91.5892998,129.063405 109.543436,121.853632 108.710021,117.041771 L108.710021,117.041771 L107.995665,112.855452 C107.162251,107.963393 87.8587764,107.281712 64.8803398,111.339715 Z" id="Path" fill="#407BFF"></path>
                    <path d="M65.8294371,118.617126 C40.0133562,123.102788 19.8348111,131.135252 20.7690769,136.559774 L21.2002766,139.071424 L21.2002766,139.071424 C22.1345424,144.495945 43.8222862,145.250242 69.6463523,140.76458 C95.4704183,136.278918 115.640978,128.246454 114.706712,122.821932 L114.275513,120.310282 C113.341247,114.885761 91.6535032,114.131463 65.8294371,118.617126 Z" id="Path" fill="#407BFF"></path>
                    <path d="M36.7379005,143.245853 L34.7379005,143.135853 L36.7379005,143.245853 Z" id="Path" fill="#FFFFFF" opacity="0.2"></path>
                    <path d="M79.3429005,138.190853 L79.1329005,138.190853 L79.3429005,138.190853 Z" id="Path" fill="#FFFFFF" opacity="0.2"></path>
                    <path d="M25.7379005,142.065853 C26.0579005,142.155853 26.3979005,142.235853 26.7379005,142.315853 C26.3979005,142.195853 26.0379005,142.115853 25.7379005,142.065853 Z" id="Path" fill="#FFFFFF" opacity="0.2"></path>
                    <path d="M65.8290761,118.559858 C40.0132019,122.957734 19.8348183,130.833001 20.7690767,136.151363 L21.2002729,138.613859 C21.446695,139.52982 22.0931733,140.2907 22.9649831,140.690853 C22.0931733,140.2907 21.446695,139.52982 21.2002729,138.613859 C20.2660145,133.271895 40.4443981,125.404495 66.3001978,121.030221 C92.1559976,116.655947 113.803642,117.37188 114.737901,122.682375 L114.737901,122.682375 L114.306704,120.219879 C113.340506,114.901517 91.6529354,114.161981 65.8290761,118.559858 Z" id="Path" fill="#FFFFFF" opacity="0.2"></path>
                    <path d="M61.150999,70.6933268 C60.6438833,74.6262674 59.1708329,80.5807393 58.5107775,84.5530093 C57.8507222,88.5252792 59.8308882,94.6842641 60.4184985,96.5484779 C61.0061088,98.4126917 64.9744903,98.1216541 64.8135012,99.6083056 C64.6525121,101.094957 70.7379005,101.346665 70.7379005,101.346665 C70.7379005,101.346665 42.226729,112.358899 39.3450239,111.658835 C36.4633188,110.958772 44.6898624,105.460521 46.2675556,105.098691 C47.8452489,104.73686 48.6823923,103.785088 49.7449204,101.582642 C50.8074486,99.3801951 51.9021745,99.7734891 53.0129994,97.5631765 C54.0032802,95.9130281 54.8955617,94.2085581 55.6854186,92.4582197 C56.9491832,89.3905261 58.0439091,79.9593347 56.7157489,79.1648807 C55.3875888,78.3704268 56.5950071,86.3936254 55.4519844,86.6610654 C54.3089617,86.9285053 56.9411337,78.7322573 53.4718184,74.5948038 C50.002503,70.4573504 61.150999,70.6933268 61.150999,70.6933268 Z" id="Path" fill="#263238"></path>
                    <path d="M70.7379005,101.344474 C70.7379005,101.344474 42.2291501,112.35904 39.3388249,111.658829 C36.7061332,111.021557 43.4368068,106.308896 45.7796609,105.278248 C45.9326308,106.898962 50.4009608,105.23891 52.1721907,104.279069 C53.9434206,103.319228 54.0802884,104.01944 54.732423,103.736208 C55.3845576,103.452977 60.3278993,99.8496398 59.8126324,99.9991232 C59.2973655,100.148607 55.618038,102.79997 54.732423,101.93454 C53.846808,101.06911 52.3815179,102.721295 51.2865757,103.224818 C50.3365524,103.673268 50.0950211,103.130407 49.3060187,102.438063 C49.4589885,102.162699 49.6039073,101.863732 49.7568772,101.54903 C50.795462,99.3461167 51.9065062,99.7394941 52.9772952,97.5287132 C53.9886586,95.9048004 54.9000437,94.2234071 55.7065994,92.4934828 C56.9786646,89.4251393 58.0736067,79.9919498 56.7532353,79.1973275 C55.4328639,78.4027052 56.6244186,86.4276037 55.4892212,86.6872327 C54.3540239,86.9468618 56.9625625,78.7646124 53.5006131,74.6262824 C50.0386637,70.4879524 61.1571569,70.6925086 61.1571569,70.6925086 C60.6499411,74.6262824 59.1765999,80.5820159 58.5164142,84.5551274 C58.0816577,87.1592856 58.7820986,90.699682 59.4825396,93.3589131 C59.2973655,94.004052 59.0397321,94.594118 58.7337924,94.6885286 C58.0011473,94.9009524 57.4858804,97.3477597 56.527806,97.4185676 C55.5697317,97.4893755 56.3748362,99.2123684 57.7032586,98.4964216 C58.5808225,98.0243687 59.9656023,97.7096668 60.9236766,97.3005544 C62.1635376,98.3784084 64.9491991,98.3626733 64.8042803,99.6136133 C64.6674126,101.10058 70.7379005,101.344474 70.7379005,101.344474 Z" id="Path" fill="#FFFFFF" opacity="0.2"></path>
                    <path d="M77.6808286,51.6036379 L77.3444211,52.1406228 C76.234305,54.0607147 75.0259988,55.9256317 73.7240352,57.7283781 C72.4588847,59.6452608 71.0020641,61.436112 69.3747662,63.0748793 C67.8369032,64.5146212 66.2670013,65.1916891 65.3699145,66.911597 C65.1415116,67.338507 64.9667159,67.7905295 64.8492838,68.2579503 C64.5128763,69.5576093 64.4087501,71.1218695 63.2473431,71.853414 C62.9681028,71.9912631 62.700307,72.1499826 62.4463728,72.3281398 C61.8616645,72.8184303 61.8937033,73.6744931 61.7415189,74.4060376 C61.5893345,75.1375822 60.8604515,75.9625154 60.1395782,75.6045255 C59.4187049,75.2465356 59.3866661,74.3515609 58.7378801,74.3826905 C58.575695,74.4166157 58.4173898,74.4661486 58.2653076,74.5305558 C57.608512,74.693986 56.9997745,74.1959131 56.4951632,73.752317 C55.9905519,73.3087208 55.2696786,72.9040366 54.6929799,73.2464617 C52.9468706,71.6891056 51.0289113,70.3240845 48.9740517,69.1762722 C47.3080334,68.1956912 45.5779375,67.3162813 43.7597348,66.3668298 C39.7548831,64.25002 35.1092552,62.1643398 32.305859,60.0164004 C31.3956859,59.3727235 30.6344266,58.5508848 30.0711518,57.6038598 C29.9065615,57.2892809 29.7982214,56.9498 29.7507636,56.5999317 C29.2862008,52.7554315 41.5330373,51.6114203 45.7701704,48.7475012 C50.0073035,45.883582 56.6233185,47.7202258 59.3866661,47.1209819 C62.1500138,46.5217379 65.2978272,47.3700183 68.2373883,47.1598938 C71.1769495,46.9497693 72.9871424,46.1248361 74.701219,47.3388888 C76.4152955,48.5529415 78.3135952,48.1871692 78.7060707,49.1132735 C78.8983035,49.7202998 78.1774302,50.8409638 77.6808286,51.6036379 Z" id="Path" fill="#263238"></path>
                    <path d="M73.361418,49.7541259 C70.8449829,49.2671737 75.9813773,49.1713799 75.5911706,48.8760155 C75.2009639,48.5806511 73.9427463,47.6227124 71.1396287,47.7185063 C68.3365112,47.8143001 65.9952709,47.6227124 65.3980157,47.7185063 C64.8007606,47.8143001 67.3490493,48.5886339 67.3490493,48.5886339 L60.7792424,48.5886339 C58.6450506,48.5886339 62.236545,47.7185063 62.236545,47.7185063 L51.1753793,47.7185063 C51.4700252,47.7185063 53.604217,48.9797921 52.3380361,48.9797921 C51.0718551,48.9797921 49.7180767,49.658332 47.9740916,50.3368719 C46.5901833,50.898553 45.1660089,51.3548665 43.7136714,51.7019344 C43.426989,51.7019344 47.6953726,48.5088057 47.9581648,48.3012523 C47.6953726,48.4130118 44.1357318,49.8978167 42.6465755,50.3368719 C41.1574193,50.7759271 37.072194,52.1888866 36.7218043,52.2846804 C37.466919,52.3333687 38.2144056,52.3333687 38.9595203,52.2846804 C38.9595203,52.2846804 35.9493543,53.8413307 34.4044542,54.0329184 C33.2417975,54.1766092 30.4227531,55.1345479 29.7379005,57.1621847 C30.2979193,58.1335999 31.054778,58.9766048 31.9596897,59.6368595 C34.7468805,61.8401183 39.349727,63.9795146 43.3473549,66.1508422 C45.1550472,67.1247464 46.8751421,68.0268053 48.5315298,69.0326409 C50.574511,70.2100147 52.4813833,71.6101915 54.217399,73.2076568 C54.790764,72.8564126 55.5154336,73.287485 56.0091645,73.7265402 C56.5028954,74.1655954 57.1160774,74.6844788 57.7690764,74.5248224 C57.9202794,74.4587563 58.0776695,74.4079478 58.2389171,74.3731488 C58.8839527,74.3731488 59.0352573,75.3310874 59.6325125,75.6264518 C60.2297677,75.9218162 61.0261079,75.1474825 61.225193,74.3970972 C61.424278,73.646712 61.344644,72.8005329 61.9259724,72.2656838 C62.1784386,72.0829382 62.4446865,71.920131 62.7223126,71.7787316 C63.8849693,71.0283464 63.9884935,69.4237992 64.314993,68.0906679 C64.4317463,67.6112087 64.6055316,67.1475446 64.8326142,66.7096397 C65.7484054,64.9454361 67.3092323,64.2509305 68.8143153,62.7741085 C70.4322063,61.0931352 71.8806057,59.2561612 73.1384427,57.2899098 C74.4328802,55.4407343 75.6342016,53.527787 76.7379005,51.5582436 C75.8619263,50.0335246 75.9017433,50.241078 73.361418,49.7541259 Z M37.3429497,60.059949 C36.498829,59.9641552 39.230276,59.1099932 39.230276,59.1099932 C38.8280849,59.7473962 38.1094429,60.1121917 37.3588765,60.059949 L37.3429497,60.059949 Z M37.8526074,56.7790092 C37.8526074,56.7790092 39.230276,55.6853626 39.8116043,55.757208 C40.3710357,55.7957921 40.9324509,55.7957921 41.4918822,55.757208 C41.4918822,55.757208 39.3258368,57.2180644 37.8685342,56.7790092 L37.8526074,56.7790092 Z M48.8341391,65.3126459 C47.8387138,65.1210581 49.8853082,64.5143637 50.3790391,64.6500716 C50.8727701,64.7857796 50.0127226,65.5281821 48.8500659,65.3126459 L48.8341391,65.3126459 Z M53.7475583,54.1366951 C53.7475583,54.1366951 49.5269551,55.3820154 50.3790391,55.3820154 L51.9717196,55.3820154 C51.6770737,55.3820154 47.3131293,56.3319712 47.0981174,56.2920571 C47.9268078,55.7400028 48.7944528,55.2490949 49.6941865,54.8232178 C49.6941865,54.8232178 49.3836138,54.4320595 49.3995406,54.2883687 C49.4154674,54.144678 50.3870025,53.8493135 50.3870025,53.8493135 C50.7294288,53.5539491 52.258402,53.1228767 52.8397304,53.4821037 C53.5128719,53.7401005 54.2295325,53.8648053 54.950032,53.8493135 L53.7475583,54.1366951 Z M55.523397,62.8140226 C54.3448134,61.7363416 57.840747,62.8140226 57.840747,62.8140226 C57.840747,62.8140226 56.335664,63.556425 55.5393238,62.8299882 L55.523397,62.8140226 Z M57.4346135,51.2389308 C59.0272939,50.1452842 59.4254641,51.2389308 59.4254641,51.2389308 C59.4254641,51.2389308 56.9169923,51.5901749 57.4346135,51.2389308 Z M62.9532512,55.4698264 L61.7268873,54.8391835 C62.2392351,54.5289584 62.8074641,54.3228121 63.3992018,54.232489 C64.1945638,54.1995486 64.9809501,54.4112486 65.6528446,54.8391835 C66.0828683,55.1026166 63.3753116,55.6853626 62.9452878,55.4538608 L62.9532512,55.4698264 Z M66.0908317,60.8342827 C66.0908317,60.8342827 64.1318348,60.7863858 63.9407131,60.8342827 C64.6393798,60.5327687 65.3577542,60.279391 66.0908317,60.0759147 L66.0908317,60.8342827 Z M69.1328514,52.9392718 C69.1328514,52.9392718 70.5264468,52.6359246 71.1794458,53.3623614 C72.05542,54.3362657 69.124888,52.9392718 69.124888,52.9392718 L69.1328514,52.9392718 Z" id="Shape" fill="#FFFFFF" opacity="0.2"></path>
                </g>
                <g id="freepik--sheets-2--inject-145" transform="translate(365.503679, 237.906709)">
                    <path d="M11.3668568,137.791913 L18.7037728,140 L58.820136,140 L59.7304233,123.952749 L51.9474665,120.636075 C51.9474665,120.636075 53.3948234,108.232622 55.7160562,94.9386642 L61.0412371,94.7751022 L72.3470059,50.2498864 L65.9203773,47.4784189 L70.5719456,32.730577 L77.5538495,32.730577 L85,12.0490686 C85,12.0490686 58.2102435,1.4084507 42.2984207,0 L28.0069094,2.38982281 L27.0146962,20.9631985 L15.3721211,22.4988642 L13.0872998,42.4897774 L21.3618118,43.9073149 L16.0366308,86.4334393 L4.08455802,89.7864607 L2,119.073149 L12.4045843,121.208542 L11.3668568,137.791913 Z" id="Path" fill="#407BFF"></path>
                    <path d="M70.5434616,32.7423751 L65.8853447,47.4873459 L72.3084512,50.2582738 L60.9997808,94.7748215 L55.6866162,94.9383517 C53.3575578,108.229721 51.9200921,120.630759 51.9200921,120.630759 L59.6805875,123.946788 L58.7707991,140 L18.6855201,140 L11.3526252,137.792343 L12.4079798,121.23037 L2,119.104478 L4.02882824,90.541207 L4.08341554,89.8234912 L16.0380357,86.4711226 L21.3512003,43.9532771 L13.0812233,42.4905905 L15.4193796,22.5035691 L27.0464759,20.9682025 L28.0472432,2.39844257 L42.321824,0 C58.2613175,1.41726152 85,12.0558079 85,12.0558079 L77.5579305,32.7423751 L70.5434616,32.7423751 Z" id="Path" fill="#FFFFFF" opacity="0.6"></path>
                    <polygon id="Path" fill="#FFFFFF" opacity="0.4" points="60 123.997947 20.5619707 125 13 121.542094 21.6655119 123.004107 52.2842571 121"></polygon>
                    <polygon id="Path" fill="#FFFFFF" opacity="0.4" points="56 94.9044586 27.1243396 95 4 90.2802548 4.05494893 89.5254777 16.0887636 86 28.8002818 93.9490446"></polygon>
                    <polygon id="Path" fill="#000000" opacity="0.2" points="66 48 30.4779462 44.4907895 21.3006547 44.3986842 13 42.9618421 29.9665748 41"></polygon>
                    <polygon id="Path" fill="#000000" opacity="0.2" points="77 33 70.0925793 33 42.4538905 20.1712418 27 21.1411765 43.3004323 19"></polygon>
                    <polygon id="Path" fill="#FFFFFF" opacity="0.2" points="41.841989 0 43 18.8708839 27 21 27.9635359 2.41117851"></polygon>
                    <polygon id="Path" fill="#FFFFFF" opacity="0.2" points="30.5470738 41.0244519 35 21 16.2442748 22.5674536 14 43"></polygon>
                    <polygon id="Path" fill="#FFFFFF" opacity="0.2" points="21.3965448 44 39 44.8889695 28.8260346 94 16 86.4528302"></polygon>
                    <polygon id="Path" fill="#FFFFFF" opacity="0.2" points="4.02874818 91 27 95.4579808 22.360262 123 2 119.37225"></polygon>
                    <polygon id="Path" fill="#FFFFFF" opacity="0.2" points="20 124.864407 18.6197479 140 11 137.764165 12.0966387 121"></polygon>
                    <polygon id="Path" fill="#407BFF" points="6 97 26.2004556 101.784211 50 100.694737 27.2574032 106"></polygon>
                    <polygon id="Path" fill="#407BFF" points="12.7021277 126 20.106383 130.337662 38 130.337662 16.2772215 132 9 127.255411"></polygon>
                    <polygon id="Path" fill="#407BFF" points="28 135 59.3802418 135 63 138"></polygon>
                    <polygon id="Path" fill="#407BFF" points="21 109 3.1851369 104 0 105.712454"></polygon>
                    <polygon id="Path" fill="#407BFF" points="27 116 53.2206471 114 56 114.996016"></polygon>
                    <polygon id="Path" fill="#407BFF" points="35 86.9785408 63.5171213 86 66 88"></polygon>
                    <polygon id="Path" fill="#407BFF" points="56 81 32.4525962 78.3541899 17.9173849 73 13 73 30.3373975 80.1865922"></polygon>
                    <polygon id="Path" fill="#407BFF" points="23 60 34.8971566 64.1181592 72 67 68.6525111 64.6057214 34.5443131 62.5422886"></polygon>
                    <polygon id="Path" fill="#407BFF" points="27 34 10 34.8806452 14.2151067 37"></polygon>
                    <polygon id="Path" fill="#407BFF" points="20 27.6358521 32.5789897 26 65 37 32.4069229 28.7676849"></polygon>
                    <polygon id="Path" fill="#407BFF" points="61 21 41.4175282 11 22 16.7538995 27.7272086 18.2097054 43.9466635 16"></polygon>
                    <polygon id="Path" fill="#407BFF" points="55 14 84 26 80.3828927 26"></polygon>
                    <path d="M46,5 L60.4774775,6.6308084 L83,19 C83,19 53.8918919,6.47040102 46,5 Z" id="Path" fill="#407BFF"></path>
                    <polygon id="Path" fill="#407BFF" points="20.9233512 49 28 51 18 50"></polygon>
                    <polygon id="Path" fill="#FFFFFF" opacity="0.7" points="6 97 26.2004556 101.784211 50 100.694737 27.2574032 106"></polygon>
                    <polygon id="Path" fill="#FFFFFF" opacity="0.7" points="12.7021277 126 20.106383 130.337662 38 130.337662 16.2772215 132 9 127.255411"></polygon>
                    <polygon id="Path" fill="#FFFFFF" opacity="0.7" points="28 135 59.3802418 135 63 138"></polygon>
                    <polygon id="Path" fill="#FFFFFF" opacity="0.7" points="21 109 3.1851369 104 0 105.712454"></polygon>
                    <polygon id="Path" fill="#FFFFFF" opacity="0.7" points="27 116 53.2206471 114 56 114.996016"></polygon>
                    <polygon id="Path" fill="#FFFFFF" opacity="0.7" points="35 86.9785408 63.5171213 86 66 88"></polygon>
                    <polygon id="Path" fill="#FFFFFF" opacity="0.7" points="56 81 32.4525962 78.3541899 17.9173849 73 13 73 30.3373975 80.1865922"></polygon>
                    <polygon id="Path" fill="#FFFFFF" opacity="0.7" points="23 60 34.8971566 64.1181592 72 67 68.6525111 64.6057214 34.5443131 62.5422886"></polygon>
                    <polygon id="Path" fill="#FFFFFF" opacity="0.7" points="27 34 10 34.8806452 14.2151067 37"></polygon>
                    <polygon id="Path" fill="#FFFFFF" opacity="0.7" points="20 27.6358521 32.5789897 26 65 37 32.4069229 28.7676849"></polygon>
                    <polygon id="Path" fill="#FFFFFF" opacity="0.7" points="61 21 41.4175282 11 22 16.7538995 27.7272086 18.2097054 43.9466635 16"></polygon>
                    <polygon id="Path" fill="#FFFFFF" opacity="0.7" points="55 14 84 26 80.3828927 26"></polygon>
                    <path d="M46,5 L60.4774775,6.6308084 L83,19 C83,19 53.8918919,6.47040102 46,5 Z" id="Path" fill="#FFFFFF" opacity="0.7"></path>
                    <polygon id="Path" fill="#FFFFFF" opacity="0.7" points="20.9233512 49 28 51 18 50"></polygon>
                    <polygon id="Path" fill="#000000" opacity="0.1" points="26 54 35.9729338 56.4204947 64 59 35.9729338 57.6837456"></polygon>
                    <polygon id="Path" fill="#000000" opacity="0.1" points="23 47 38.6600362 47.796875 68 53 37.7468354 49.746875"></polygon>
                    <polygon id="Path" fill="#000000" opacity="0.1" points="19 37.8748436 31.4497189 36 63 43 31.1840516 37.077597"></polygon>
                    <polygon id="Path" fill="#000000" opacity="0.1" points="22 32.2939866 32.3934355 32 64 40 32.0941481 33.2739421"></polygon>
                    <polygon id="Path" fill="#000000" opacity="0.1" points="15 25.8145897 31 24 15 27"></polygon>
                    <polygon id="Path" fill="#000000" opacity="0.1" points="15 30 21 30 15 31"></polygon>
                    <polygon id="Path" fill="#000000" opacity="0.1" points="28 7.51145038 42.9776844 5 63 12 43.1614597 6.62977099 28 8.5"></polygon>
                    <polygon id="Path" fill="#000000" opacity="0.1" points="79 29.1851852 56 22 78.3523733 31"></polygon>
                    <polygon id="Path" fill="#000000" opacity="0.1" points="40 8.77055599 43.280037 8 79 20 43.4332255 9.23101018"></polygon>
                    <polygon id="Path" fill="#000000" opacity="0.1" points="85 13.7886435 72 9 84.2960619 15"></polygon>
                    <polygon id="Path" fill="#000000" opacity="0.1" points="20 64 33.7744013 68.3808883 65 71 33.4846045 69.897712"></polygon>
                    <polygon id="Path" fill="#000000" opacity="0.1" points="17 78 30.8176895 83.2925373 62 84 30.6732852 84"></polygon>
                    <polygon id="Path" fill="#000000" opacity="0.1" points="57 92 30.1652299 88.8309179 19 84 29.6829502 90.589372"></polygon>
                    <path d="M66,75.6543779 C65.7409588,75.562212 44,75 44,75 L65.6576955,77 L66,75.6543779 Z" id="Path" fill="#000000" opacity="0.1"></path>
                    <polygon id="Path" fill="#000000" opacity="0.1" points="4 93 26.9449242 98.0151976 43 98.0151976 26.7719953 99 4.40046674 94.3860182"></polygon>
                    <path d="M54,105 C54,105.036496 32,107 32,107 L53.8115055,106 L54,105 Z" id="Path" fill="#000000" opacity="0.1"></path>
                    <path d="M9.00476231,103.005543 C8.7013176,102.85049 23,106 23,106 C23,106 14.0989553,105.689894 9.00476231,103.005543 Z" id="Path" fill="#000000" opacity="0.1"></path>
                    <polygon id="Path" fill="#000000" opacity="0.1" points="3 109 22 114 3 110.598837"></polygon>
                    <polygon id="Path" fill="#000000" opacity="0.1" points="7 116 23.4634254 119.736462 48 119.240072 23.4634254 121"></polygon>
                    <polygon id="Path" fill="#000000" opacity="0.1" points="29 111.115 46 111.115 32.0437072 111.885"></polygon>
                    <path d="M15,125 L20.3021554,127.615385 C20.3021554,127.615385 48.5016325,127.358974 47.9932067,127.615385 C47.4847808,127.871795 20.193207,129 20.193207,129 L15,125 Z" id="Path" fill="#000000" opacity="0.1"></path>
                    <path d="M56,132.135 C56,132.135 29.4502275,132.865 30.0086883,132.865 L51.9809138,132.865 L56,132.135 Z" id="Path" fill="#000000" opacity="0.1"></path>
                    <path d="M60,127.161209 C60,127.161209 55.6830335,126.798489 56.018596,127.161209 C56.3541586,127.523929 59.7823378,128 59.7823378,128 L60,127.161209 Z" id="Path" fill="#000000" opacity="0.1"></path>
                    <polygon id="Path" fill="#000000" opacity="0.1" points="15 135 19.5525903 136.033113 44 138 19.4433281 137.364238"></polygon>
                </g>
                <g id="freepik--Character--inject-145" transform="translate(182.503679, 171.906709)">
                    <path d="M100.954756,32.7654821 C106.153674,35.0667685 115.937972,34.7529567 119.691849,26.5536182 C123.445726,18.3542796 123.179322,11.3216771 114.68668,7.37891371 C106.194038,3.43615031 95.4894344,8.46518526 94.5772019,15.9242499 C93.6649695,23.3833145 92.752737,29.128484 100.954756,32.7654821 Z" id="Path" fill="#263238"></path>
                    <path d="M1.65983998,188.605995 C2.20468896,187.82117 2.60465056,186.941277 2.84003726,186.009628 L2.84003726,186.009628 C2.84003726,186.009628 5.33418753,183.099768 13.2493773,181.267038 L13.9496277,177.625693 C14.1809643,176.349012 13.6013309,175.061665 12.501919,174.410378 C12.3524751,174.321501 12.1906295,174.256445 12.0219722,174.217459 C11.1543996,174.08498 10.2790647,174.012471 9.40193418,174.000425 C6.46493708,173.990267 3.53003931,174.162065 0.613398382,174.514876 L0.652738291,175.157939 L6.16032563,175.061479 C8.04077331,175.061479 5.93215415,176.669137 3.94155473,177.191626 C1.95095531,177.714115 -0.141927882,178.799283 0.00756377452,182.971155 C0.251471214,187.906664 0.558322508,189.924274 1.65983998,188.605995 Z" id="Path" fill="#2E353A"></path>
                    <path d="M15.4769589,181.865345 C15.4769589,181.865345 5.43068652,184.678742 3.16794251,187 C3.16794251,187 1.78385855,183.005468 6.96250978,180.167464 C13.6652085,176.501025 12.2422458,175 12.2422458,175 C13.2311259,175.296115 14.191696,175.68879 15.1114985,176.172932 C16.8688186,177.272044 15.4769589,181.865345 15.4769589,181.865345 Z" id="Path" fill="#E4897B"></path>
                    <path d="M162.277577,214.442714 C161.294151,214.427317 160.316065,214.583016 159.391673,214.902113 L159.391673,214.902113 C159.391673,214.902113 155.480946,214.466073 149.266415,209 L145.798412,210.432703 C144.615419,210.952233 143.901109,212.119206 144.011119,213.352614 C144.017658,213.523149 144.053665,213.691503 144.117701,213.850945 C144.521159,214.631485 144.978546,215.38582 145.486865,216.10901 C147.207777,218.511539 149.080492,220.812758 151.094701,223 L151.61941,222.618465 L148.274386,218.149055 C147.151179,216.630701 149.741933,217.471635 151.373453,218.795328 C153.004972,220.119021 155.103811,221.263626 158.547218,218.83426 C162.515336,215.984427 164.032075,214.598443 162.277577,214.442714 Z" id="Path" fill="#2E353A"></path>
                    <path d="M148.466738,207 C148.466738,207 156.746819,213.762884 160,214.375577 C160,214.375577 157.547853,217.648441 152.136784,214.902958 C145.139992,211.350892 144.739475,213.351837 144.739475,213.351837 C144.396546,212.377863 144.150262,211.375621 144.003831,210.358175 C143.848528,208.302941 148.466738,207 148.466738,207 Z" id="Path" fill="#E4897B"></path>
                    <path d="M112.80538,45 C115.416139,46.8237379 119.712025,63.7318142 121.009494,64.8179514 C122.306962,65.9040886 131.903481,60.6274071 131.903481,60.6274071 L134,65.409653 C134,65.409653 119.506329,74.4959203 117.512658,72.7856595 C115.518987,71.0753987 109,52.7812815 109,52.7812815 L112.80538,45 Z" id="Path" fill="#263238"></path>
                    <path d="M112.80538,45 C115.416139,46.8237379 119.712025,63.7318142 121.009494,64.8179514 C122.306962,65.9040886 131.903481,60.6274071 131.903481,60.6274071 L134,65.409653 C134,65.409653 119.506329,74.4959203 117.512658,72.7856595 C115.518987,71.0753987 109,52.7812815 109,52.7812815 L112.80538,45 Z" id="Path" fill="#FFFFFF" opacity="0.2"></path>
                    <path d="M59,61.4330676 L68.9643749,71.5508579 C68.9643749,71.5508579 99.4088563,81.9815695 107,70.9009443 C107,70.9009443 103.691859,54.2599475 95.1578159,51.4115609 C86.6237723,48.5631743 59,61.4330676 59,61.4330676 Z" id="Path" fill="#263238"></path>
                    <path d="M59,61.4330676 L68.9643749,71.5508579 C68.9643749,71.5508579 99.4088563,81.9815695 107,70.9009443 C107,70.9009443 103.691859,54.2599475 95.1578159,51.4115609 C86.6237723,48.5631743 59,61.4330676 59,61.4330676 Z" id="Path" fill="#FFFFFF" opacity="0.1"></path>
                    <path d="M131,64.103148 L137.31745,60.7997321 L140.296274,54 C141.53695,54.4067895 142.752242,54.8817869 143.936129,55.422639 C144.354503,55.7361018 142.597332,61.3543202 142.153855,61.7079705 C141.710379,62.0616209 139.200134,62.3429337 139.200134,62.3429337 L133.183913,66 L131,64.103148 Z" id="Path" fill="#E4897B"></path>
                    <path d="M77.939267,37.0037568 C77.939267,37.0037568 97.6196859,36.5448254 112,45.7717608 C110.342888,57.1551341 107.386598,68.3056898 103.190366,79 L74.3342408,74.1691438 C74.3342408,74.1691438 77.4219895,65.8520197 74,49.2097201 L77.939267,37.0037568 Z" id="Path" fill="#407BFF"></path>
                    <path d="M77.939267,37.0037568 C77.939267,37.0037568 97.6196859,36.5448254 112,45.7717608 C110.342888,57.1551341 107.386598,68.3056898 103.190366,79 L74.3342408,74.1691438 C74.3342408,74.1691438 77.4219895,65.8520197 74,49.2097201 L77.939267,37.0037568 Z" id="Path" fill="#FFFFFF" opacity="0.6"></path>
                    <path d="M86.4236022,36 C90.4130596,52.7905138 72.859447,67.8181818 59.462849,68 L56,60.7193676 L70.2902364,54.8142292 L77.8941423,36.8932806 L86.4236022,36 Z" id="Path" fill="#263238"></path>
                    <path d="M106.180311,42 C106.180311,42 103.342984,65.6231487 106.46657,71 C106.46657,71 111.79603,61.7814043 113,46.080362 C110.942198,44.4227481 108.646144,43.0489715 106.180311,42 Z" id="Path" fill="#263238"></path>
                    <path d="M86.4236022,36 C90.4130596,52.7905138 72.859447,67.8181818 59.462849,68 L56,60.7193676 L70.2902364,54.8142292 L77.8941423,36.8932806 L86.4236022,36 Z" id="Path" fill="#FFFFFF" opacity="0.3"></path>
                    <path d="M106.180311,42 C106.180311,42 103.342984,65.6231487 106.46657,71 C106.46657,71 111.79603,61.7814043 113,46.080362 C110.942198,44.4227481 108.646144,43.0489715 106.180311,42 Z" id="Path" fill="#FFFFFF" opacity="0.3"></path>
                    <path d="M91,35.5002621 C91,35.5002621 87.2258065,33.5782904 80.9941935,37.2687991 L84.8270968,39.8852647 L81.983871,42.9781856 C81.9296208,48.5399441 80.5675815,54.0176168 78,59 C78,59 84.8103226,52.3054011 87.1083871,44.9889879 C89.4064516,37.6725746 88.3664516,36.0009438 91,35.5002621 Z" id="Path" fill="#263238"></path>
                    <path d="M103,39 C103,39 107.288,39.9427562 111,44.965371 L108.712,45.3961131 L110.936,49.3215548 L105.336,62 C105.336,62 104.744,52.2473498 105.024,46.3632509 C105.074374,43.760345 104.370537,41.1998077 103,39 Z" id="Path" fill="#263238"></path>
                    <path d="M91,35.5002621 C91,35.5002621 87.2258065,33.5782904 80.9941935,37.2687991 L84.8270968,39.8852647 L81.983871,42.9781856 C81.9296208,48.5399441 80.5675815,54.0176168 78,59 C78,59 84.8103226,52.3054011 87.1083871,44.9889879 C89.4064516,37.6725746 88.3664516,36.0009438 91,35.5002621 Z" id="Path" fill="#FFFFFF" opacity="0.2"></path>
                    <path d="M103,39 C103,39 107.288,39.9427562 111,44.965371 L108.712,45.3961131 L110.936,49.3215548 L105.336,62 C105.336,62 104.744,52.2473498 105.024,46.3632509 C105.074374,43.760345 104.370537,41.1998077 103,39 Z" id="Path" fill="#FFFFFF" opacity="0.2"></path>
                    <path d="M104.24736,117.537522 C99.3750758,137.583585 85.3139054,164.2688 82.5677089,169.437051 C80.4255145,173.504135 71.9292174,174.870546 61.6289672,176.060128 C41.7613226,178.358915 15,182 15,182 L15,175.746657 C15,175.746657 69.0380604,163.039029 69.9158769,160.137414 C71.1399879,156.030141 72.5815398,136.498493 73.8700777,120.061365 C74.0230916,118.228766 74.1680521,116.436355 74.3049593,114.708246 C74.5304534,111.862895 74.7398408,109.218487 74.9170148,106.935776 C75.3357896,101.703223 75.5934972,98.3113069 75.5934972,98.3113069 L104.424534,78 C104.424534,78 110.335702,92.4678878 104.24736,117.537522 Z" id="Path" fill="#263238"></path>
                    <path d="M104.24736,117.537522 C99.3750758,137.583585 85.3139054,164.2688 82.5677089,169.437051 C80.4255145,173.504135 71.9292174,174.870546 61.6289672,176.060128 C41.7613226,178.358915 15,182 15,182 L15,175.746657 C15,175.746657 69.0380604,163.039029 69.9158769,160.137414 C71.1399879,156.030141 72.5815398,136.498493 73.8700777,120.061365 C74.0230916,118.228766 74.1680521,116.436355 74.3049593,114.708246 C74.5304534,111.862895 74.7398408,109.218487 74.9170148,106.935776 C75.3357896,101.703223 75.5934972,98.3113069 75.5934972,98.3113069 L104.424534,78 C104.424534,78 110.335702,92.4678878 104.24736,117.537522 Z" id="Path" fill="#000000" opacity="0.2"></path>
                    <path d="M117.043129,142.081714 C114.330993,136.126088 90.9648947,99 90.9648947,99 L68,102.895302 C75.4062187,124.681627 101.77332,146.934745 106.242728,152.713312 C110.712136,158.491879 143.915747,210 143.915747,210 L148,207.102668 C148,207.102668 122.788365,154.685107 117.043129,142.081714 Z" id="Path" fill="#263238"></path>
                    <path d="M73.6379523,74 L104,75.9880985 L103.443712,79.4936435 C103.443712,79.4936435 100.218853,95.2117933 87.4081003,103.545577 L67.3252908,104 C67.3252908,104 64.9792058,91.1869083 72.8881726,76.33703 L73.6379523,74 Z" id="Path" fill="#263238"></path>
                    <polygon id="Path" fill="#000000" points="86 73.754522 75.7739521 73 75 75.9870801 85.7694611 77"></polygon>
                    <polygon id="Path" fill="#000000" points="86.2294037 74 86 76.6361746 103.83614 78 104 75.0644491"></polygon>
                    <path d="M98.9692351,79 L98.9155215,79 L95.846173,78.8251688 C95.6080412,78.8098668 95.3852061,78.7035828 95.2246299,78.5287158 C95.065885,78.3516798 94.9856911,78.1188345 95.0021021,77.8826003 L95.1325494,75.8378349 C95.1463766,75.6018077 95.2545045,75.3809482 95.433043,75.2240536 C95.6115816,75.067159 95.8458353,74.9871433 96.0840475,75.0016855 L99.153396,75.1841181 C99.3932779,75.1926158 99.618641,75.3001056 99.7749391,75.480571 C99.9352383,75.6567061 100.015664,75.8902243 99.9974669,76.1266865 L99.8823663,78.1410465 C99.8469335,78.6092804 99.4584611,78.9743724 98.9845819,78.9847973 L98.9692351,79 Z M96.0380072,75.7770238 C95.9688564,75.7769054 95.9116275,75.8302624 95.9075599,75.8986458 L95.784786,77.9206071 C95.7911197,77.9905999 95.8450543,78.0471712 95.9152333,78.0574316 L98.9845819,78.2398642 L98.9845819,78.2398642 C99.053544,78.2329825 99.1080823,78.178956 99.1150292,78.1106411 L99.2301297,76.0962811 C99.2442468,76.0648262 99.2442468,76.0289183 99.2301297,75.9974634 C99.2049786,75.9731342 99.1727878,75.9571899 99.1380493,75.9518553 L96.0687007,75.7770238 L96.0380072,75.7770238 Z" id="Shape" fill="#FFFFFF"></path>
                    <path d="M99.583555,77.9991364 L99.583555,77.9991364 L98.3764754,77.9167109 C98.2703998,77.9096388 98.1711478,77.8544681 98.1006489,77.7633887 C98.03015,77.6723094 97.9942072,77.5528183 98.0007619,77.4313168 C98.0069349,77.3097891 98.0550907,77.1960789 98.1345894,77.1153104 C98.2140882,77.0345419 98.3183861,76.9933633 98.4244389,77.0008729 L99.6235246,77.0832983 C99.7296002,77.0903705 99.8288522,77.1455412 99.8993511,77.2366206 C99.96985,77.3276999 100.005793,77.447191 99.9992381,77.5686925 C99.9951365,77.6894183 99.948719,77.8031495 99.8704844,77.8841623 C99.7922498,77.965175 99.6888077,78.0066248 99.583555,77.9991364 Z" id="Path" fill="#FFFFFF"></path>
                    <path d="M101,57.9703179 L109.232,53.42401 C109.802555,52.5124799 110.523863,51.7215397 111.36,51.0905829 C112.24,50.6514509 120,51.9516261 120,51.9516261 L117.096,58.5558273 C117.096,58.5558273 111.352,58.2027996 110.744,57.6947841 L103.216,62 L101,57.9703179 Z" id="Path" fill="#E4897B"></path>
                    <path d="M78.5033912,37 C71.0045218,39.0006784 82.2726223,67.2378948 87.2137992,68.8400641 C92.1549761,70.4422333 108,59.4791666 108,59.4791666 L105.276018,54.7783857 C105.276018,54.7783857 91.4264692,60.4713729 90.1595008,59.8451443 C88.8925323,59.2189157 83.7771473,45.0271119 82.8665137,42.4896662 C81.9558802,39.9522205 78.5033912,37 78.5033912,37 Z" id="Path" fill="#263238"></path>
                    <path d="M78.5033912,37 C71.0045218,39.0006784 82.2726223,67.2378948 87.2137992,68.8400641 C92.1549761,70.4422333 108,59.4791666 108,59.4791666 L105.276018,54.7783857 C105.276018,54.7783857 91.4264692,60.4713729 90.1595008,59.8451443 C88.8925323,59.2189157 83.7771473,45.0271119 82.8665137,42.4896662 C81.9558802,39.9522205 78.5033912,37 78.5033912,37 Z" id="Path" fill="#FFFFFF" opacity="0.2"></path>
                    <path d="M106.835776,58.5667524 C106.795724,58.7489831 106.619763,58.8677565 106.435776,58.8367524 C106.346766,58.819821 106.268195,58.7680616 106.217503,58.6929622 C106.166811,58.6178629 106.148191,58.5256364 106.165776,58.4367524 C106.180078,58.3463815 106.231258,58.2660047 106.307094,58.2148154 C106.38293,58.1636261 106.476615,58.1462196 106.565776,58.1667524 C106.748007,58.2068054 106.866781,58.382766 106.835776,58.5667524 Z" id="Path" fill="#FFFFFF" opacity="0.6"></path>
                    <path d="M104.834301,59.5649223 C104.81737,59.6539332 104.76561,59.732504 104.690511,59.7831961 C104.615412,59.8338882 104.523185,59.8525078 104.434301,59.8349223 C104.25207,59.7948694 104.133297,59.6189088 104.164301,59.4349223 C104.2002,59.249907 104.379286,59.1290239 104.564301,59.1649224 C104.749316,59.2008209 104.8702,59.379907 104.834301,59.5649223 L104.834301,59.5649223 Z" id="Path" fill="#FFFFFF" opacity="0.6"></path>
                    <path d="M146.924193,44.0337435 L136.845157,70.1700146 C136.576315,70.7820212 135.909788,71.115474 135.259156,70.9634655 L116.806035,66.369385 C116.50933,66.3011211 116.257488,66.1060645 116.117078,65.8357751 C115.976668,65.5654858 115.961826,65.2471729 116.076474,64.964977 L126.14758,38.8287059 C126.418839,38.2190067 127.083343,37.886566 127.733581,38.035255 L146.186703,42.63727 C146.484329,42.7015781 146.738319,42.8942434 146.880574,43.1636098 C147.022829,43.4329761 147.038795,43.7514863 146.924193,44.0337435 L146.924193,44.0337435 Z" id="Path" fill="#263238"></path>
                    <path d="M146.92099,43.865164 L136.898465,70.164826 C136.63113,70.7806585 135.96834,71.1161959 135.321356,70.9632371 L117.807565,66.5480236 C117.509438,66.484441 117.255156,66.2889083 117.114644,66.0151971 C116.974132,65.7414859 116.962188,65.4184177 117.082095,65.134836 L127.096735,38.835174 C127.364069,38.2193415 128.026859,37.8838041 128.673843,38.0367629 L146.19552,42.4519764 C146.492087,42.5181567 146.744409,42.7140668 146.884467,42.9868941 C147.024525,43.2597214 147.037901,43.5813819 146.92099,43.865164 L146.92099,43.865164 Z" id="Path" fill="#FFFFFF" opacity="0.3"></path>
                    <path d="M132.801311,53.0592501 C131.693891,52.8007319 130.56809,53.4078131 130.134461,54.4973324 C129.937853,54.9843306 129.957656,55.5365404 130.1886,56.0069967 C130.419545,56.4774531 130.838202,56.8184289 131.33315,56.9391769 C132.441091,57.2018982 133.569381,56.5934749 134,55.5010946 C133.503223,55.3833868 133.082318,55.0428378 132.850864,54.5713436 C132.61941,54.0998494 132.60126,53.546 132.801311,53.0592501 L132.801311,53.0592501 Z" id="Path" fill="#FFFFFF" opacity="0.3"></path>
                    <path d="M86,42.7445934 C86,42.7445934 87.1955446,37.4375569 89.3182461,36.3312562 C91.4409477,35.2249556 101.574611,36.9806066 105.096181,40.2433919 C107.270176,42.41022 108.644651,45.2327666 109,48.2600633 L104.469943,46.3681288 L97.5975955,54 L92.2135785,43.3217937 L86,42.7445934 Z" id="Path" fill="#407BFF"></path>
                    <path d="M86,42.7445934 C86,42.7445934 87.1955446,37.4375569 89.3182461,36.3312562 C91.4409477,35.2249556 101.574611,36.9806066 105.096181,40.2433919 C107.270176,42.41022 108.644651,45.2327666 109,48.2600633 L104.469943,46.3681288 L97.5975955,54 L92.2135785,43.3217937 L86,42.7445934 Z" id="Path" fill="#FFFFFF" opacity="0.5"></path>
                    <path d="M95.7444108,36.0244164 C101.59956,36.4635254 104.637071,40.431474 103.887872,43.6808805 L100.247745,44.1758761 L97.3160988,52 L96.1597273,43.3056419 L92.4870262,41.0142913 C92.4870262,41.0142913 90.1417093,35.5932912 95.7444108,36.0244164 Z" id="Path" fill="#E4897B"></path>
                    <path d="M96.8909071,45 C91.380356,40.5020785 92.0229858,36.9769053 92.0229858,36.9769053 C94.7300641,35.430485 96.5294278,32.0882217 97.1800905,29.4942263 C97.3925609,28.6770074 97.5376728,27.8426076 97.6138657,27 L104,32.8198614 C103.233556,33.7532254 102.532892,34.7423768 101.90342,35.7796767 C101.431408,36.5379497 101.051024,37.3532731 100.770785,38.2073903 C99.9674976,40.7016166 101.180461,41.5330254 101.180461,41.5330254 C101.019804,44.8170901 96.8909071,45 96.8909071,45 Z" id="Path" fill="#E4897B"></path>
                    <path d="M102.31467,35.3716059 C101.952926,36.2083804 101.689556,37.0914788 101.530795,38 C98.7245241,36.1481769 97.5095185,32.4871994 97,29.5601241 C97.1066498,28.7119816 97.1485998,27.8556807 97.1254199,27 L104,32.1202483 C103.367344,33.1586421 102.804114,34.2452316 102.31467,35.3716059 L102.31467,35.3716059 Z" id="Path" fill="#000000" opacity="0.2"></path>
                    <path d="M112.237092,13.8609608 C118.732843,17.0204371 119.145776,21.5396881 116.390243,28.5065334 C112.943842,37.2250883 108.218937,42.3042465 100.960848,36.5531997 C91.1060463,28.7464936 101.453191,8.61383049 112.237092,13.8609608 Z" id="Path" fill="#E4897B"></path>
                    <path d="M113.430769,26 C113.479131,27.2671166 113.67026,28.523328 114,29.7413111 C113.370462,30.116401 112.597715,30.0813768 112,29.6506626 L113.430769,26 Z" id="Path" fill="#DE5753"></path>
                    <path d="M108.911818,24.2938255 C108.755876,24.8227884 108.443993,25.1183853 108.217625,24.9550291 C107.991258,24.7916729 107.930894,24.2393734 108.086835,23.7104105 C108.242777,23.1814476 108.549631,22.8858506 108.781028,23.041428 C109.012426,23.1970053 109.06776,23.7337471 108.911818,24.2938255 Z" id="Path" fill="#263238"></path>
                    <path d="M110,22.2654796 L111,22.3554796 C111,22.3554796 110.252874,23.2654796 110,22.2654796 Z" id="Path" fill="#263238"></path>
                    <path d="M115.911818,26.2875103 C115.755876,26.8159076 115.443993,27.118959 115.217625,26.9557774 C114.991258,26.7925959 114.930894,26.240887 115.086835,25.7124897 C115.242777,25.1840924 115.549631,24.881041 115.781028,25.0442226 C116.012426,25.2074041 116.06776,25.759113 115.911818,26.2875103 Z" id="Path" fill="#263238"></path>
                    <path d="M116,25.2654796 L117,25.3554796 C117,25.3554796 116.252874,26.2654796 116,25.2654796 Z" id="Path" fill="#263238"></path>
                    <path d="M111.65977,21 C111.540997,20.9978541 111.432318,20.9287895 111.374637,20.8188006 C110.714356,19.6608397 109.590665,18.8859398 108.323711,18.7148748 C108.234609,18.7150382 108.149397,18.6762278 108.088217,18.6076174 C108.027037,18.5390069 107.995319,18.4466857 108.00056,18.3524761 C108.000523,18.2572612 108.036873,18.1660842 108.101329,18.0997119 C108.165785,18.0333397 108.252859,17.9974236 108.34272,18.000144 C110.585768,18.0605438 111.897381,20.3658023 111.954408,20.4564019 C112.048037,20.6288716 111.992887,20.8490392 111.83085,20.9496668 C111.778827,20.9816675 111.719923,20.9989976 111.65977,21 L111.65977,21 Z" id="Path" fill="#263238"></path>
                    <path d="M118.688948,22.9998863 L118.552279,22.9998863 C117.610108,22.5205282 116.481711,22.4561909 115.481788,22.8248174 C115.407066,22.8632228 115.318594,22.8724919 115.236318,22.850535 C115.154042,22.8285781 115.084889,22.7772435 115.044448,22.7081048 C114.999785,22.6402853 114.988162,22.5584638 115.012392,22.4824508 C115.036623,22.4064377 115.094498,22.3431633 115.172006,22.3079475 C116.349292,21.8475184 117.692218,21.9058841 118.816506,22.4663431 C118.974955,22.5375365 119.043408,22.7106994 118.971397,22.8581639 C118.912161,22.9486402 118.804172,23.0028249 118.688948,22.9998863 Z" id="Path" fill="#263238"></path>
                    <path d="M99.6397136,22.0282211 C99.6397136,22.0282211 105.363517,18.0748032 106.926027,13.6343112 C106.926027,13.6343112 122.640175,14.6165773 116.851604,28.2465333 C116.851604,28.2465333 123.846465,17.0113581 112.593159,11.1989409 C101.339853,5.38652365 93.3572926,22.1824612 96.8142433,30 C96.8142433,30 96.0775161,24.4635914 99.6397136,22.0282211 Z" id="Path" fill="#263238"></path>
                    <path d="M100.790941,23.7961755 C101.41419,22.3192081 100.597443,20.6672049 98.9588253,20.0904267 C96.813322,19.405512 93.8240815,22.7363602 98.4043694,25.8581292 C99.063288,26.2762876 99.8186338,25.822081 100.790941,23.7961755 Z" id="Path" fill="#E4897B"></path>
                    <path d="M108.033391,8.36964395 C108.033391,8.36964395 113.043902,7.28858486 116.251603,8.82400212 C119.459304,10.3594194 119.678565,12.6625453 119.678565,12.6625453 C121.184238,12.399177 122.728698,12.8578252 123.820154,13.8924458 C125.817862,15.6707097 126.995373,20.786156 124.875853,26.2619553 C122.756334,31.7377546 117.810789,30.9622122 117.810789,30.9622122 C117.810789,30.9622122 124.258675,22.8386015 117.38851,17.5586462 C117.38851,17.5586462 115.139058,14.9578374 112.516052,16.5324235 C109.893045,18.1070096 108.02527,24.6795355 102.251407,20.4023017 C96.4775447,16.1250679 103.055363,9.63087956 108.033391,8.36964395 Z" id="Path" fill="#263238"></path>
                    <path d="M110.645859,33 C110.468163,32.9968926 110.319187,32.8694932 110.294533,32.6995573 C110.133926,31.4687116 107.995857,30.073107 107.182788,29.6466723 C107.01251,29.5497116 106.950736,29.3409602 107.042258,29.1717791 C107.088532,29.0930581 107.165473,29.0354587 107.255962,29.0117964 C107.346451,28.9881342 107.442982,29.000372 107.524076,29.045787 C107.654569,29.1136289 110.756275,30.7902927 110.997185,32.6123321 C111.021279,32.7987593 110.888158,32.9701337 110.696048,33 L110.645859,33 Z" id="Path" fill="#263238"></path>
                    <path d="M108,9.04516278 C108,9.04516278 104.605838,-2.79175353 97.232042,0.616347375 C89.8582456,4.02444828 86.2742008,12.5779503 80.3087046,7.59048557 C74.3432084,2.60302083 71.6057261,9.07010011 68.7100078,11.0401487 C65.8142895,13.0101972 60.6874439,10.0509682 62.0561851,7.59048557 C62.0561851,7.59048557 58.2980807,10.6079017 64.9598152,13.7832543 C71.6215497,16.9586068 74.8891226,10.3252787 77.0094846,12.835636 C79.1298466,15.3459932 86.6381436,20.3417704 90.5940429,16.7341709 C92.8592546,14.6359823 96.0390814,14.0163603 98.8697843,15.1215573 L108,9.04516278 Z" id="Path" fill="#263238"></path>
                    <path d="M87.4484397,20 C86.9308893,19.9989236 86.4178352,19.9069978 85.9342067,19.7286895 C84.492349,19.1757636 83.0828341,18.5469339 81.7119802,17.8450192 C78.7315851,16.387694 75.9114262,15.0078861 74.3411105,16.2094042 C74.2632269,16.2832671 74.1385805,16.2832671 74.060697,16.2094042 C74.021969,16.1742372 74,16.1251375 74,16.0737489 C74,16.0223604 74.021969,15.9732607 74.060697,15.9380937 C75.8313081,14.5892927 78.7636323,16.0233627 81.8561929,17.53495 C83.2170101,18.2327585 84.615772,18.858976 86.0463721,19.4108685 C88.6582237,20.3488278 91.1418864,18.3256264 93.3371237,16.5349769 C94.9394866,15.2481897 96.397637,14.0389199 97.7916928,14.0001613 C97.8448257,13.9980638 97.8966399,14.0164954 97.9357146,14.0513935 C97.9747894,14.0862916 97.9979171,14.1347914 98,14.1862028 C98,14.2945547 97.9116091,14.3835804 97.7997046,14.3877478 C96.5498614,14.4265064 95.1157466,15.5892658 93.6015136,16.8295426 C91.7668079,18.279116 89.6917479,20 87.4484397,20 Z" id="Path" fill="#263238"></path>
                    <path d="M66.5130371,9 C65.99913,8.99941438 65.4994811,8.82847161 65.0901276,8.51318592 C65.0437991,8.48316856 65.0120942,8.43471586 65.0028069,8.379739 C64.9935195,8.32476213 65.0075111,8.26835996 65.0413421,8.2243979 C65.1056663,8.13560754 65.2274055,8.11380662 65.3177931,8.17489138 C67.07407,9.43730757 68.9441796,7.53955775 70.7655038,5.69956553 C72.0501879,4.39589391 73.2616937,3.16648207 74.4488068,3.01796252 C75.6359199,2.86944297 77.1157458,3.66154724 78.8720227,4.66817976 C81.5719805,6.45859937 84.6242302,7.62996532 87.8160254,8.10063161 C87.9282898,8.11202399 88.0101973,8.21361275 87.9989709,8.32753648 C87.9877444,8.4414602 87.8876353,8.52457828 87.7753708,8.51318592 C84.5183214,8.03540209 81.4026419,6.84447472 78.6443571,5.02297646 C76.9612584,4.02459504 75.6277889,3.24074185 74.4813304,3.37275923 C73.3348719,3.50477661 72.2697225,4.68468193 71.0338239,5.93884703 C69.6353071,7.42404254 68.0741721,9 66.5130371,9 Z" id="Path" fill="#263238"></path>
                    <path d="M105.612686,22.9994898 C104.727634,22.9658782 103.864807,22.7318607 103.099203,22.3177783 C103.051527,22.2909086 103.017604,22.2472259 103.005181,22.1967058 C102.992757,22.1461857 103.002893,22.0931425 103.033276,22.0496895 C103.061948,22.0071203 103.108109,21.9773078 103.161033,21.9671802 C103.213957,21.9570526 103.269035,21.9674918 103.313467,21.9960717 C103.437081,22.0650088 106.280201,23.6812014 107.862459,21.4598941 C111.933478,15.7074743 113.392122,14.2980932 115.872641,15.2938516 C115.924616,15.3122592 115.96585,15.3501571 115.986236,15.3982566 C116.006622,15.446356 116.004276,15.5002108 115.979773,15.546621 C115.931332,15.6410512 115.812541,15.6845471 115.707823,15.6461969 C113.614627,14.803632 112.353765,15.8147098 108.200337,21.6743652 C107.653785,22.5134126 106.667773,23.0183451 105.612686,22.9994898 L105.612686,22.9994898 Z" id="Path" fill="#263238"></path>
                </g>
                <g id="freepik--sheets-1--inject-145" transform="translate(118.503679, 233.906709)">
                    <path d="M194,6.54160654 L209.766592,0 C209.766592,0 227.640027,11.0798461 239,12.9114959 L219.351569,17 C219.351569,17 198.090208,12.5680616 194,6.54160654 Z" id="Path" fill="#407BFF"></path>
                    <path d="M97,57.7810781 L109.119203,47 C109.119203,47 129.835857,50.080308 146,57.7810781 L129.11745,68 C129.11745,68 113.203187,60.029703 97,57.7810781 Z" id="Path" fill="#407BFF"></path>
                    <path d="M0,71.3695283 L15.239271,66 C15.239271,66 28.4609053,80.4306074 39,80.4306074 L21.5291005,89 C21.5291005,89 2.90417402,81.7183577 0,71.3695283 Z" id="Path" fill="#407BFF"></path>
                    <path d="M60.1781895,18.202139 C60.1781895,18.202139 80.5372422,15.883703 95,26.9503712 L87.553285,36 C87.553285,36 69.6608098,28.5346358 54,32.9087519 L60.1781895,18.202139 Z" id="Path" fill="#407BFF"></path>
                    <path d="M243.32777,103 L263,106.403181 C263,106.403181 245.924065,117.916745 231.522864,120 L216,114.903181 C216,114.903181 234.715287,112.923293 243.32777,103 Z" id="Path" fill="#407BFF"></path>
                    <path d="M237,69.6565698 C237,69.6565698 255.766297,68.6779807 269.037361,74 L277,66.6530539 C277,66.6530539 256.163261,57.823169 242.752092,62.2343477 L237,69.6565698 Z" id="Path" fill="#407BFF"></path>
                    <path d="M109,140.877264 C109,140.877264 118.379762,130.663984 141.801921,128 L156,134.615694 C156,134.615694 134.819642,139.372233 125.175224,144 L109,140.877264 Z" id="Path" fill="#407BFF"></path>
                    <path d="M194,6.54160654 L209.766592,0 C209.766592,0 227.640027,11.0798461 239,12.9114959 L219.351569,17 C219.351569,17 198.090208,12.5680616 194,6.54160654 Z" id="Path" fill="#FFFFFF" opacity="0.6"></path>
                    <path d="M97,57.7810781 L109.119203,47 C109.119203,47 129.835857,50.080308 146,57.7810781 L129.11745,68 C129.11745,68 113.203187,60.029703 97,57.7810781 Z" id="Path" fill="#FFFFFF" opacity="0.6"></path>
                    <path d="M0,71.3695283 L15.239271,66 C15.239271,66 28.4609053,80.4306074 39,80.4306074 L21.5291005,89 C21.5291005,89 2.90417402,81.7183577 0,71.3695283 Z" id="Path" fill="#FFFFFF" opacity="0.6"></path>
                    <path d="M60.1781895,18.202139 C60.1781895,18.202139 80.5372422,15.883703 95,26.9503712 L87.553285,36 C87.553285,36 69.6608098,28.5346358 54,32.9087519 L60.1781895,18.202139 Z" id="Path" fill="#FFFFFF" opacity="0.4"></path>
                    <path d="M243.32777,103 L263,106.403181 C263,106.403181 245.924065,117.916745 231.522864,120 L216,114.903181 C216,114.903181 234.715287,112.923293 243.32777,103 Z" id="Path" fill="#FFFFFF" opacity="0.8"></path>
                    <path d="M237,69.6565698 C237,69.6565698 255.766297,68.6779807 269.037361,74 L277,66.6530539 C277,66.6530539 256.163261,57.823169 242.752092,62.2343477 L237,69.6565698 Z" id="Path" fill="#FFFFFF" opacity="0.4"></path>
                    <path d="M109,140.877264 C109,140.877264 118.379762,130.663984 141.801921,128 L156,134.615694 C156,134.615694 134.819642,139.372233 125.175224,144 L109,140.877264 Z" id="Path" fill="#FFFFFF" opacity="0.4"></path>
                </g>
            </g>
        </g>
    </g>
</svg>