<?xml version="1.0" encoding="UTF-8"?>
<svg width="520px" height="520px" viewBox="0 0 520 520" version="1.1" xmlns="http://www.w3.org/2000/svg" xmlns:xlink="http://www.w3.org/1999/xlink">
    <title>Group 20</title>
    <g id="Error" stroke="none" stroke-width="1" fill="none" fill-rule="evenodd">
        <g id="Group-20">
            <rect id="Rectangle-Copy-10" fill-opacity="0" fill="#D8D8D8" x="0" y="0" width="520" height="520"></rect>
            <g id="504-Error-Gateway-Timeout-pana-Copy" transform="translate(5.000000, 63.000000)" fill-rule="nonzero">
                <g id="freepik--background-complete--inject-47" transform="translate(0.000000, 51.434203)">
                    <path d="M116.734626,12.1186199 C119.338942,10.5463814 122.140651,9.32721372 125.066177,8.49313278 L126.782982,0.242372398 L140.729493,0 L142.749263,8.18006843 C145.705255,8.91154815 148.551059,10.0322108 151.2121,11.5126889 L158.281295,6.88741564 L168.319551,16.5823116 L163.946749,23.7827916 C165.524775,26.3877009 166.744262,29.1935416 167.572236,32.1244416 L175.822997,33.8412461 L176.075468,47.7877578 L167.885301,49.8075278 C167.16003,52.7622906 166.039025,55.605567 164.55268,58.2602652 L169.177954,65.3294601 L159.493157,75.3677169 L152.282578,70.9949149 C149.677668,72.5729401 146.871828,73.7924278 143.940928,74.6204021 L142.224123,82.8711624 L128.28771,83.1135348 L126.26794,74.9334664 C123.311402,74.2037013 120.465375,73.0829511 117.805104,71.6008459 L110.735909,76.2261192 L100.707751,66.5312233 L105.070454,59.3307433 C103.496545,56.7237073 102.277304,53.9184351 101.444967,50.9890932 L93.1942068,49.2722888 L92.9417356,35.2651839 L101.131903,33.2454139 C101.858177,30.2924883 102.975561,27.4497816 104.454424,24.7926766 L99.8392501,17.7234816 L109.524047,7.68522479 L116.734626,12.0580268 L116.734626,12.1186199 Z M124.187577,30.6904049 C119.983818,35.0406492 118.814615,41.4948714 121.225194,47.0433241 C123.635773,52.5917767 129.151382,56.1417178 135.199969,56.0377306 C141.248556,55.9337434 146.63888,52.1963079 148.857313,46.5682733 C151.075747,40.9402388 149.685379,34.5300206 145.334569,30.3268463 C139.392164,24.5938276 129.929405,24.7565111 124.187577,30.6904049 L124.187577,30.6904049 Z" id="Shape" fill="#EBEBEB"></path>
                    <path d="M391.348612,341.765279 L391.348612,341.765279 L388.99558,332.171372 C385.538191,331.321891 382.20979,330.014305 379.098707,328.283314 L370.837848,333.696298 L370.837848,333.696298 L359.072688,322.335092 L359.072688,322.335092 L364.172607,313.902552 C362.341221,310.853526 360.918563,307.576998 359.941189,304.157162 L350.266491,302.137392 L350.266491,302.137392 L349.983723,285.777255 L349.983723,285.777255 L359.557433,283.424223 C360.4088,279.970642 361.716312,276.645824 363.44549,273.537449 L358.032506,265.27659 L358.032506,265.27659 L369.403811,253.400342 L369.403811,253.400342 L377.836351,258.51036 C380.881165,256.670802 384.15881,255.247658 387.581741,254.278942 L389.601511,244.604244 L389.601511,244.604244 L405.951549,244.311377 L405.951549,244.311377 L408.294482,253.885087 C411.750843,254.742553 415.078644,256.053299 418.191355,257.783243 L426.452215,252.370259 L426.452215,252.370259 L438.217375,263.731466 L438.217375,263.731466 L433.107357,272.153906 C434.947916,275.203068 436.374288,278.483724 437.348874,281.909395 L447.023572,283.929165 L447.023572,283.929165 L447.30634,300.289302 L447.30634,300.289302 L437.73263,302.642334 C436.878531,306.095045 435.571157,309.41951 433.844573,312.529108 L439.257556,320.789968 L439.257556,320.789968 L427.977141,332.686413 L427.977141,332.686413 L419.544601,327.576395 C416.499787,329.415953 413.222142,330.839097 409.799211,331.807813 L407.779441,341.482511 L407.779441,341.482511 L391.348612,341.765279 Z M379.098707,328.212622 L379.098707,328.212622 C382.214945,329.94264 385.546091,331.253367 389.005679,332.110778 L389.005679,332.110778 L389.005679,332.110778 L391.358711,341.684488 L407.648156,341.391622 L409.667926,331.727022 L409.667926,331.727022 C413.096002,330.750237 416.379713,329.324013 419.433514,327.485505 L419.433514,327.485505 L427.855955,332.595523 L439.176766,320.86066 L433.773881,312.609899 L433.773881,312.609899 C435.504938,309.495285 436.812504,306.16354 437.661938,302.702927 L437.661938,302.702927 L447.235648,300.359994 L446.95288,284.060451 L437.288281,282.040681 L437.288281,282.040681 C436.324387,278.608005 434.897432,275.322613 433.046764,272.275093 L433.046764,272.275093 L433.046764,272.275093 L438.156782,263.852652 L426.432017,252.531841 L418.181257,257.944825 L418.181257,257.944825 C415.07332,256.204791 411.744133,254.893498 408.284384,254.046669 L408.284384,254.046669 L408.284384,254.046669 L405.931352,244.472959 L389.641907,244.765825 L387.622137,254.430425 L387.622137,254.430425 C384.194061,255.40721 380.91035,256.833434 377.856549,258.671942 L377.856549,258.671942 L369.403811,253.501331 L358.0931,265.226095 L363.495984,273.486955 L363.495984,273.486955 C361.764927,276.601569 360.457361,279.933314 359.607927,283.393926 L359.607927,283.393926 L350.034217,285.73686 L350.316985,302.036403 L359.981584,304.056173 L359.981584,304.056173 C360.955313,307.486991 362.385294,310.771532 364.2332,313.821761 L364.2332,313.821761 L364.2332,313.821761 L359.123182,322.244202 L370.847947,333.565013 L379.098707,328.212622 Z M399.18532,310.085187 C389.491728,310.168848 381.565698,302.37846 381.482036,292.684868 C381.398375,282.991276 389.188762,275.065246 398.882354,274.981584 L399.205518,274.981584 C408.899109,274.897923 416.825139,282.688311 416.908801,292.381903 C416.992463,302.075495 409.202075,310.001525 399.508483,310.085187 L399.18532,310.085187 Z M399.18532,275.02198 L398.872255,275.02198 C389.206551,275.102853 381.43651,283.004015 381.517382,292.66972 C381.598255,302.335425 389.499417,310.105466 399.165122,310.024594 L399.488285,310.024594 C405.7409,309.970474 411.489682,306.584735 414.56912,301.142752 C417.648559,295.700769 417.590814,289.029309 414.417638,283.641445 C411.244461,278.253582 405.437935,274.96786 399.18532,275.02198 L399.18532,275.02198 Z" id="Shape" fill="#E0E0E0"></path>
                    <path d="M386.571856,280.354173 C387.497698,279.225016 388.603163,278.256028 389.843884,277.486099 C393.226478,275.288681 397.267755,274.335482 401.275782,274.789706 C404.045626,275.083508 406.706721,276.028214 409.041797,277.546692 C411.733721,279.297718 413.906466,281.739004 415.333381,284.615887 C416.911885,287.811172 417.499195,291.405371 417.019889,294.936912 C416.004007,302.746298 409.994293,308.969327 402.225074,310.256867 C400.444794,310.584379 398.622593,310.61509 396.832288,310.347757 C395.109431,310.137527 393.429768,309.660544 391.853555,308.933918 C388.922018,307.607242 386.402956,305.513839 384.562185,302.874608 C380.57034,297.178202 380.28197,289.672695 383.824969,283.686793 C384.551099,282.423537 385.478979,281.287566 386.571856,280.323876 C386.672845,280.404667 385.561971,281.475145 384.16833,283.878671 C382.286512,287.296903 381.603874,291.246958 382.229351,295.098493 C382.65536,297.735465 383.692943,300.236041 385.259006,302.399962 C387.051203,304.872766 389.465733,306.827386 392.257509,308.065417 C393.753002,308.742115 395.343632,309.184902 396.973672,309.378267 C398.671767,309.618557 400.397641,309.581038 402.08369,309.26718 C409.402409,308.019168 415.062641,302.162628 416.060498,294.805627 C416.310232,293.109459 416.286365,291.384219 415.989806,289.695609 C415.742596,288.072182 415.241634,286.497729 414.505275,285.02994 C411.983302,279.793986 406.972945,276.198855 401.20509,275.486527 C397.346685,274.998295 393.435903,275.816004 390.096355,277.809262 C387.702927,279.253398 386.672845,280.445062 386.571856,280.354173 Z" id="Path" fill="#EBEBEB"></path>
                    <path d="M377.876747,258.591151 C377.687602,258.507912 377.505265,258.409991 377.331409,258.298284 L375.715593,257.36919 L369.353317,253.612418 L369.545195,253.612418 L358.295077,265.407875 L358.295077,265.084712 L363.748455,273.325373 L363.839345,273.466757 L363.758554,273.628339 C362.046059,276.724674 360.755428,280.036164 359.920991,283.474717 L359.870497,283.666595 L359.678619,283.666595 L350.09481,286.039825 L350.367479,285.686365 C350.468468,290.836779 350.576189,296.283425 350.690643,302.026305 L350.377578,301.642548 L360.042178,303.662318 L360.294649,303.712812 L360.365341,303.955185 C361.334026,307.346116 362.750229,310.592853 364.576561,313.609685 L364.717945,313.83186 L364.576561,314.064134 L359.476642,322.506772 L359.40595,321.951335 L371.17111,333.292344 L370.585377,333.231751 L378.836137,327.818767 L379.07851,327.657186 L379.330981,327.79857 C382.412619,329.506845 385.7064,330.800588 389.126865,331.646231 L389.409633,331.706824 L389.480325,331.999691 C390.22764,335.029346 391.025449,338.281176 391.843456,341.593599 L391.358711,341.209842 L407.688551,340.916976 L407.213906,341.32093 C407.850133,338.291275 408.536855,334.968753 409.233676,331.646231 L409.294269,331.353365 L409.587135,331.272574 C412.969422,330.306777 416.20899,328.897531 419.221438,327.081551 L419.221438,327.081551 L419.484008,326.930068 L419.746578,327.081551 C422.574256,328.805088 425.388469,330.511794 428.189217,332.201668 L427.563088,332.282459 L438.914195,320.537496 L438.853602,321.153526 L433.450718,312.892667 L433.289136,312.640196 L433.43052,312.377626 C435.150415,309.303909 436.448024,306.012329 437.288281,302.59184 L437.358973,302.309072 L437.64174,302.23838 L447.235648,299.895447 L446.872089,300.370093 C446.784566,294.788795 446.693676,289.342149 446.59942,284.030154 L446.973078,284.474503 L437.308478,282.454733 L437.035809,282.454733 L436.965117,282.192163 C436.00761,278.798986 434.601559,275.548765 432.784194,272.527564 L432.64281,272.29529 L432.784194,272.073116 L437.914409,263.640576 L437.975002,264.155617 L426.250238,252.784312 L426.724884,252.784312 L418.453925,258.166999 L418.272146,258.288186 L418.080268,258.187197 C414.996207,256.456954 411.695045,255.145999 408.264186,254.289041 L408.072308,254.238547 L408.072308,254.046669 L405.759671,244.452761 L406.052538,244.674936 L389.712599,244.887012 L389.924674,244.715331 L387.904904,254.369832 L387.904904,254.460721 L387.814015,254.460721 C385.235985,255.172544 382.733185,256.133078 380.340866,257.328795 L378.583666,258.24779 C378.396703,258.364043 378.200849,258.465346 377.997933,258.550756 C378.171355,258.414425 378.353525,258.289605 378.543271,258.177098 C378.916928,257.944825 379.482464,257.601464 380.260075,257.167213 C382.63607,255.901482 385.137192,254.886142 387.723125,254.137558 L387.612038,254.258744 C388.137178,251.622945 388.783504,248.441807 389.561116,244.584046 L389.561116,244.402267 L389.742895,244.402267 L406.082834,244.038708 L406.315108,244.038708 L406.375701,244.270982 L408.75903,253.85479 L408.516657,253.612418 C412.010418,254.463297 415.37579,255.774129 418.524617,257.510574 L418.15096,257.510574 L426.391622,252.077393 L426.654192,251.905712 L426.876366,252.117788 L438.560736,263.499192 L438.803108,263.731466 L438.631428,264.014233 L433.52141,272.466971 L433.52141,272.012523 C435.393495,275.097369 436.843801,278.419148 437.833618,281.889198 L437.490258,281.566035 L447.164956,283.585805 L447.518416,283.666595 L447.518416,284.030154 C447.619404,289.342149 447.720393,294.788795 447.821381,300.370093 L447.821381,300.753849 L447.447724,300.844739 L437.853816,303.197771 L438.217375,302.844311 C437.355846,306.351878 436.027791,309.728057 434.268724,312.882568 L434.268724,312.367527 C436.052855,315.060553 437.857182,317.814173 439.681708,320.628386 L439.893784,320.961648 L439.621115,321.244416 L428.280106,332.999477 L427.997339,333.292344 L427.653978,333.080268 L419.211339,327.97025 L419.726381,327.97025 C416.636749,329.835053 413.311715,331.278505 409.839607,332.262261 L410.193066,331.878505 C409.506344,335.201027 408.819623,338.493252 408.173296,341.553203 L408.092505,341.947058 L407.688551,341.947058 L391.348612,342.229826 L390.954757,342.229826 L390.863868,341.84607 C390.05596,338.533647 389.25815,335.251521 388.520934,332.252162 L388.874394,332.605622 C385.369806,331.740045 381.997055,330.408607 378.846236,328.646873 L379.34108,328.646873 L371.080221,334.049758 L370.767156,334.251735 L370.494487,333.989165 L358.759624,322.627958 L358.497054,322.375487 L358.688932,322.072522 L363.819147,313.639982 L363.819147,314.09443 C361.96029,311.004288 360.523586,307.679149 359.547334,304.207656 L359.860398,304.500523 L350.195799,302.480753 L349.882735,302.42016 L349.882735,302.096996 C349.801944,296.370949 349.721153,290.907471 349.640362,285.767156 L349.640362,285.47429 L349.92313,285.413696 L359.517037,283.080862 L359.274665,283.323234 C360.147285,279.83862 361.482069,276.486376 363.243513,273.35567 L363.243513,273.658635 C361.304534,270.62898 359.49684,267.882093 357.860826,265.377578 L357.749739,265.205898 L357.891123,265.064514 L369.323021,253.400342 L369.41391,253.309453 L369.514899,253.380144 L375.73579,257.248004 L377.331409,258.257889 C377.520043,258.357349 377.702187,258.46866 377.876747,258.591151 L377.876747,258.591151 Z" id="Path" fill="#EBEBEB"></path>
                    <path d="M456.425601,224.042985 C458.032925,223.065819 459.765581,222.311604 461.576015,221.801041 L462.636394,216.751616 L471.250713,216.600133 L472.492871,221.649558 C474.31435,222.090726 476.069806,222.76982 477.713977,223.669328 L482.066581,220.821452 L488.267275,226.799971 L485.540585,231.243465 C486.510522,232.853247 487.261106,234.585365 487.772431,236.393879 L492.821856,237.403764 L492.973339,246.018083 L487.923914,247.260241 C487.484327,249.082214 486.805154,250.837875 485.904144,252.481347 L488.75202,256.833951 L482.773501,263.034645 L478.319908,260.338252 C476.710126,261.308188 474.978008,262.058773 473.169494,262.570098 L472.159609,267.670017 L463.54529,267.8215 L462.303132,262.772075 C460.480802,262.33363 458.724994,261.6544 457.082026,260.752305 L452.729422,263.600181 L446.528728,257.621661 L449.225121,253.168069 C448.255185,251.558287 447.5046,249.826169 446.993275,248.017655 L441.893356,246.957276 L441.741873,238.342957 L446.791298,237.100798 C447.234136,235.279843 447.913147,233.5246 448.811068,231.879693 L445.963193,227.527089 L451.941712,221.326395 L456.395305,224.032887 L456.425601,224.042985 Z M461.020578,235.515279 C457.477481,239.187738 457.582048,245.037014 461.254143,248.580488 C464.926239,252.123962 470.775526,252.019994 474.319376,248.348262 C477.863226,244.67653 477.759859,238.827232 474.08849,235.283005 C470.41385,231.743361 464.567107,231.847283 461.020578,235.515279 L461.020578,235.515279 Z" id="Shape" fill="#E0E0E0"></path>
                    <path d="M461.020578,235.515279 C461.505409,234.919131 462.085506,234.407281 462.737382,234.000451 C464.531038,232.837795 466.672928,232.334451 468.796692,232.576514 C471.995259,232.918343 474.794311,234.878442 476.209248,237.767322 C476.62053,238.584174 476.903261,239.459616 477.047453,240.362727 C477.221071,241.299354 477.238134,242.258293 477.097947,243.200504 C476.556315,247.313875 473.393109,250.59181 469.301635,251.279584 C468.358779,251.435915 467.396615,251.435915 466.453759,251.279584 C465.545098,251.167998 464.659295,250.915885 463.828058,250.532269 C462.283861,249.835441 460.955058,248.736825 459.980396,247.351131 C457.8854,244.350616 457.735396,240.403134 459.59664,237.252281 C459.980513,236.586951 460.471904,235.989775 461.050874,235.484982 C460.593951,236.084782 460.169201,236.708422 459.778419,237.35327 C458.789533,239.157494 458.433964,241.241125 458.768534,243.271196 C458.988756,244.660126 459.531818,245.978002 460.354054,247.118858 C461.291016,248.438986 462.563559,249.484913 464.040134,250.148512 C465.665918,250.868987 467.469041,251.090423 469.220844,250.78474 C473.090026,250.138397 476.082411,247.039434 476.593004,243.15001 C476.739591,242.257189 476.739591,241.346437 476.593004,240.453617 C476.458113,239.596765 476.192447,238.765708 475.805294,237.989497 C475.101086,236.542195 474.028334,235.305743 472.694848,234.404405 C471.526685,233.624008 470.191344,233.129309 468.796692,232.96027 C466.756026,232.69974 464.686884,233.129923 462.919162,234.182231 C462.263146,234.592653 461.629392,235.03763 461.020578,235.515279 Z" id="Path" fill="#E0E0E0"></path>
                    <path d="M456.425601,224.032887 C456.325098,223.995037 456.230023,223.944104 456.142833,223.881404 L455.284431,223.396659 L451.931613,221.376889 L452.032601,221.376889 L446.084379,227.607879 L446.084379,227.446298 L448.952452,231.788803 L449.002946,231.859495 L449.002946,231.950385 C448.099389,233.581984 447.420009,235.32799 446.983177,237.141194 L446.983177,237.242182 L446.882188,237.242182 L441.832763,238.49444 L441.984246,238.31266 C442.03474,241.019152 442.095333,243.897324 442.155926,246.926979 L441.984246,246.725002 L447.084165,247.734887 L447.21545,247.734887 L447.21545,247.856074 C447.723343,249.648215 448.470663,251.363655 449.437197,252.955993 L449.507889,253.06708 L449.437197,253.188266 L446.740804,257.641859 L446.740804,257.348992 L452.951597,263.327512 L452.638532,263.327512 L456.991137,260.469537 L457.122422,260.388746 L457.253707,260.459438 C458.878624,261.35446 460.613462,262.033457 462.414219,262.479208 L462.565702,262.479208 L462.565702,262.630691 C462.959557,264.21621 463.383709,265.943114 463.80786,267.680116 L463.555389,267.478139 L472.169708,267.326656 L471.917237,267.538732 C472.250499,265.922916 472.603959,264.185914 472.927122,262.438813 L472.927122,262.28733 L473.078605,262.236836 C474.851609,261.729264 476.54953,260.98897 478.12803,260.035287 L478.12803,260.035287 L478.259315,259.954496 L478.400699,260.035287 L482.844193,262.741778 L482.521029,262.741778 L488.509647,256.541084 L488.509647,256.874347 C487.499762,255.399914 486.590866,253.955779 485.651673,252.511643 L485.570882,252.380358 L485.641574,252.249073 C486.539242,250.625398 487.218379,248.890203 487.661344,247.088561 L487.661344,246.937078 L487.812827,246.937078 L492.862252,245.705019 L492.670374,245.947391 C492.619879,243.008626 492.579484,240.140552 492.52899,237.343171 L492.720868,237.575444 L487.671443,236.504966 L487.530059,236.504966 L487.530059,236.373681 C487.02442,234.582384 486.280559,232.867087 485.318411,231.273762 L485.247719,231.152576 L485.318411,231.03139 L488.024903,226.587896 L488.024903,226.860565 L481.834308,220.861848 L482.086779,220.861848 L477.734175,223.699625 L477.633186,223.760218 L477.532198,223.760218 C475.9055,222.861401 474.166814,222.182227 472.361586,221.740448 L472.250499,221.740448 L472.250499,221.639459 C471.80615,219.801468 471.402196,218.145257 471.028538,216.590034 L471.180021,216.71122 L462.565702,216.822308 L462.686888,216.721319 C462.242539,218.741089 461.889079,220.427597 461.586113,221.821238 L461.586113,221.821238 L461.535619,221.821238 C460.176618,222.196861 458.857516,222.704208 457.597068,223.336066 L456.678072,223.820811 L456.365008,223.972294 L456.647776,223.780415 C456.849753,223.659229 457.14262,223.47745 457.556672,223.255275 C458.811587,222.590295 460.131327,222.055631 461.495224,221.659657 L461.434631,221.72025 L462.444516,216.620331 L462.444516,216.529441 L462.545504,216.529441 L471.159823,216.347662 L471.402196,216.347662 L471.402196,216.468848 C471.785952,218.03417 472.200005,219.690381 472.654453,221.518273 L472.533267,221.386988 C474.372232,221.823582 476.144971,222.502792 477.804866,223.406758 L477.612988,223.406758 L481.955494,220.538685 L482.096878,220.447795 L482.207965,220.558882 L488.418758,226.537401 L488.550043,226.658588 L488.459153,226.81007 L485.76276,231.263663 L485.76276,231.021291 C486.74685,232.650391 487.510903,234.40262 488.035001,236.232297 L487.853222,236.060617 L492.953141,237.120996 L493.145019,237.120996 L493.145019,237.322973 C493.195514,240.120355 493.256107,242.988428 493.306601,245.937292 L493.306601,246.139269 L493.114723,246.139269 L488.065298,247.381428 L488.257176,247.199648 C487.803471,249.048671 487.103777,250.828475 486.176813,252.491446 L486.176813,252.390457 C487.126105,253.824494 488.078763,255.275362 489.034788,256.743061 L489.145875,256.914742 L489.004491,257.066225 L483.025972,263.266919 L482.874489,263.418401 L482.69271,263.307314 L478.249216,260.610921 L478.471391,260.610921 C476.841708,261.591394 475.089515,262.352036 473.260384,262.873063 L473.452262,262.671086 C473.088704,264.418187 472.725145,266.15519 472.442377,267.771006 L472.442377,267.972983 L472.230301,267.972983 L463.626081,268.124465 L463.323116,268.124465 L463.323116,267.922488 L462.091056,262.873063 L462.272835,263.064942 C460.428886,262.605391 458.653175,261.905971 456.991137,260.984578 L457.263806,260.984578 L452.901103,263.832454 L452.739521,263.933443 L452.598137,263.802158 L446.407542,257.81354 L446.276257,257.682255 L446.367147,257.520673 L449.073638,253.077179 L449.073638,253.309453 C448.093904,251.680667 447.336503,249.928116 446.821595,248.098446 L446.983177,248.249929 L441.933752,247.179451 L441.77217,247.179451 L441.77217,247.00777 C441.77217,243.978115 441.68128,241.110042 441.640885,238.40355 L441.640885,238.252067 L441.792368,238.252067 L446.841793,237.030106 L446.710508,237.151293 C447.170703,235.315653 447.873725,233.549609 448.800969,231.899891 L448.800969,232.051373 L445.973292,227.68867 L445.912698,227.597781 L445.98339,227.527089 C448.437411,225.012475 450.46728,222.942211 452.0427,221.356691 L452.0427,221.356691 L452.103293,221.356691 L455.375321,223.376461 L456.223624,223.9117 L456.425601,224.032887 Z" id="Path" fill="#E0E0E0"></path>
                    <path d="M14.6534312,49.2157352 C16.2650201,48.2468184 17.996543,47.4930967 19.8038447,46.9737905 L20.8642239,41.9243656 L29.4785429,41.7728828 L30.7207015,46.8223078 C32.5434994,47.2592509 34.2995036,47.9385562 35.9418069,48.8420777 L40.2944112,45.9841032 L46.495105,51.9727212 L43.7987121,56.426314 C44.7686485,58.0360959 45.519233,59.768214 46.0305579,61.5767275 L51.1304771,62.5866125 L51.2819599,71.2009315 L46.2325349,72.4329912 C45.7915366,74.2577355 45.1124566,76.0165528 44.2127649,77.6641954 L47.0606406,82.0167997 L41.0821215,88.2073947 L36.6285287,85.5110018 C35.0212048,86.4881678 33.2885484,87.242383 31.4781152,87.7529465 L30.417736,92.8023714 L21.803417,92.9538542 L20.5612584,87.9044292 C18.7384605,87.4674862 16.9824563,86.7881808 15.340153,85.8846593 L10.9875487,88.7426338 L4.78685486,82.7540158 L7.48324779,78.3105218 C6.51512408,76.699807 5.76464714,74.9679372 5.25140196,73.1601084 L0.151482749,72.1502234 L0,63.5359044 L5.04942496,62.2937458 C5.49042328,60.4690015 6.16950331,58.7101842 7.06919494,57.0625416 L4.22131927,52.7402338 L10.1998384,46.5496388 L14.6534312,49.2460317 L14.6534312,49.2157352 Z M19.2484079,60.6880287 C16.650692,63.3765043 15.9288508,67.3653514 17.4196362,70.793702 C18.9104215,74.2220527 22.3200774,76.4143579 26.0579389,76.3478685 C29.7958004,76.2813791 33.12533,73.9691966 34.4932432,70.4899952 C35.8611564,67.0107937 34.9979089,63.0501423 32.3062209,60.4557552 C28.6328167,56.9228534 22.7938408,57.0267177 19.2484079,60.6880287 L19.2484079,60.6880287 Z" id="Shape" fill="#E0E0E0"></path>
                    <path d="M117.356715,286.619499 C118.479909,285.939665 119.68904,285.413218 120.951906,285.054177 L121.689122,281.499382 L127.687839,281.398394 L128.55634,284.922892 C129.829726,285.237301 131.055685,285.719534 132.202025,286.356929 L135.231679,284.337159 L139.553987,288.528182 L137.675601,291.628529 C138.348055,292.750664 138.870894,293.955911 139.230824,295.21362 L142.785619,295.960935 L142.886608,301.959652 L139.362109,302.828153 C139.052124,304.09974 138.569639,305.322943 137.928072,306.463739 L139.947842,309.493394 L135.777017,313.805603 L132.67667,311.927217 C131.557027,312.606985 130.35124,313.133456 129.091579,313.492539 L128.344264,317.047334 L122.345547,317.148322 L121.487145,313.623824 C120.213758,313.309415 118.987799,312.827182 117.84146,312.189787 L114.811805,314.209557 L110.499596,310.038732 L112.377982,306.938385 C111.698148,305.815191 111.171701,304.60606 110.81266,303.343195 L107.267964,302.605979 L107.156877,296.607262 L110.681375,295.738761 C110.995833,294.468598 111.478087,293.245984 112.115412,292.103175 L110.095642,289.07352 L114.266467,284.751212 L117.366814,286.639697 L117.356715,286.619499 Z M120.558051,294.617788 C118.742062,296.490672 118.234646,299.273784 119.272834,301.667041 C120.311022,304.060297 122.689905,305.59134 125.29823,305.54497 C127.906555,305.4986 130.229516,303.883968 131.181981,301.455322 C132.134446,299.026677 131.528427,296.263359 129.647015,294.456207 C127.097506,291.991202 123.0353,292.049878 120.558051,294.587492 L120.558051,294.617788 Z" id="Shape" fill="#E0E0E0"></path>
                    <path d="M417.878291,185.990519 C418.824764,185.411611 419.843425,184.960005 420.907946,184.647372 L421.544174,181.617717 L426.694587,181.526827 L427.441902,184.556482 C428.536044,184.824714 429.589062,185.239128 430.572545,185.788542 L433.178049,184.081836 L436.884327,187.656829 L435.268511,190.322926 C435.849683,191.286133 436.301292,192.321778 436.611658,193.403075 L439.641313,194.039302 L439.732202,199.199815 L436.702547,199.937031 C436.436096,201.031738 436.02159,202.084991 435.470488,203.067674 L437.177193,205.673177 L433.6022,209.379455 L431.006796,207.753541 C430.059098,208.327596 429.04064,208.775717 427.977141,209.086589 L427.340913,212.116244 L422.180401,212.207133 L421.443185,209.177478 C420.349922,208.906487 419.297262,208.492214 418.312542,207.945419 L415.707038,209.652124 L411.990662,206.067033 L413.606478,203.400936 C413.030664,202.454154 412.582437,201.435458 412.273429,200.371281 L409.243774,199.735054 L409.152885,194.58464 L412.18254,193.837325 C412.455312,192.744631 412.869495,191.6922 413.414599,190.706682 L411.707894,188.101179 L415.292985,184.394901 L417.959082,186.010717 L417.878291,185.990519 Z M420.625178,192.857737 C419.06873,194.46794 418.636136,196.857464 419.529285,198.911136 C420.422434,200.964809 422.465251,202.277769 424.704367,202.237268 C426.943484,202.196767 428.937483,200.81079 429.755779,198.726161 C430.574075,196.641532 430.055349,194.269215 428.441688,192.716353 C426.2419,190.612637 422.757446,190.675745 420.635277,192.857737 L420.625178,192.857737 Z" id="Shape" fill="#F5F5F5"></path>
                    <path d="M420.635277,192.857737 C420.919025,192.503535 421.260434,192.199681 421.645162,191.958939 C422.711224,191.263855 423.985538,190.960447 425.250451,191.100537 C427.166439,191.301631 428.842797,192.477754 429.683847,194.210983 C430.183503,195.216989 430.369948,196.349733 430.219086,197.462812 C430.056788,198.66183 429.519501,199.778821 428.68406,200.654049 C427.842496,201.522219 426.745666,202.098939 425.553417,202.300162 C424.988122,202.390755 424.412007,202.390755 423.846711,202.300162 C423.30377,202.234449 422.77511,202.080967 422.28139,201.845713 C420.82248,201.198111 419.710401,199.957198 419.225953,198.436304 C418.741506,196.91541 418.930997,195.259911 419.746578,193.88782 C419.973561,193.487467 420.267289,193.128846 420.615079,192.82744 C420.615079,192.82744 420.281817,193.190999 419.847567,193.948413 C419.259562,195.0306 419.046493,196.27705 419.241636,197.493109 C419.371127,198.325005 419.6965,199.114207 420.190928,199.795647 C420.756021,200.577598 421.519486,201.194645 422.402576,201.583143 C422.872052,201.799774 423.373282,201.939573 423.887107,201.997196 C424.422304,202.08289 424.967726,202.08289 425.502923,201.997196 C427.816651,201.602432 429.604774,199.748839 429.91612,197.422417 C430.002856,196.887304 430.002856,196.341714 429.91612,195.806601 C429.831656,195.294364 429.671701,194.797483 429.441474,194.332169 C429.025344,193.464751 428.383519,192.725258 427.583286,192.191213 C426.882697,191.726388 426.084445,191.429203 425.250451,191.322712 C424.026286,191.168695 422.785759,191.428175 421.725953,192.059928 C420.988737,192.514376 420.655475,192.888033 420.635277,192.857737 Z" id="Path" fill="#F5F5F5"></path>
                    <path d="M417.878291,185.990519 L417.706611,185.899629 L417.191569,185.606763 L415.171799,184.415098 L415.232392,184.415098 L411.677597,188.151673 L411.677597,188.050684 L413.394402,190.646089 L413.394402,190.646089 L413.394402,190.696583 C412.856352,191.676029 412.448931,192.721742 412.18254,193.807029 L412.18254,193.867622 L412.121947,193.867622 L409.092292,194.614937 L409.183181,194.503849 C409.183181,196.129764 409.243774,197.856668 409.28417,199.664362 L409.183181,199.543176 L412.212836,200.169304 L412.293627,200.169304 L412.293627,200.239996 C412.600029,201.305118 413.048404,202.324152 413.626675,203.269651 L413.626675,203.340343 L413.626675,203.411035 C413.131832,204.239141 412.61679,205.148037 412.010859,206.077131 L412.010859,205.905451 L415.727236,209.480444 L415.545457,209.480444 L418.15096,207.763639 L418.221652,207.713145 L418.302443,207.763639 C419.274339,208.302606 420.313505,208.710122 421.392691,208.975501 L421.48358,208.975501 L421.48358,209.066391 C421.715854,210.015683 421.978424,211.086161 422.230895,212.096046 L422.079413,211.97486 L427.229826,211.88397 L427.078343,212.005156 C427.28032,211.045766 427.502495,209.985386 427.714571,208.975501 L427.714571,208.884612 L427.805461,208.884612 C428.871642,208.585791 429.891237,208.140568 430.835115,207.561662 L430.835115,207.561662 L430.915906,207.511168 L430.996697,207.561662 L433.662793,209.177478 L433.460816,209.177478 L437.045908,205.461102 L437.045908,205.663079 L435.339203,203.057575 L435.339203,202.976785 L435.339203,202.895994 C435.876041,201.923096 436.283444,200.884218 436.551065,199.805746 L436.551065,199.714856 L436.641954,199.714856 L439.671609,198.967541 L439.560522,199.119024 C439.560522,197.361824 439.530225,195.645019 439.469632,193.96861 L439.590818,194.099895 L436.561163,193.463668 L436.470274,193.463668 L436.470274,193.382877 C436.169754,192.317302 435.72463,191.297934 435.147324,190.353222 L435.147324,190.28253 L435.147324,190.211838 L436.773239,187.555841 L436.773239,187.717422 L433.066961,184.122232 L433.218444,184.122232 L430.612941,185.818839 L430.552348,185.818839 L430.491755,185.818839 C429.518946,185.269485 428.475937,184.855 427.391408,184.586779 L427.330815,184.586779 L427.330815,184.526186 C427.058146,183.425411 426.825872,182.435724 426.593599,181.496531 L426.684488,181.567223 L421.534075,181.637915 L421.604767,181.58742 C421.342197,182.799282 421.130121,183.799069 420.948341,184.617075 L420.948341,184.617075 L420.948341,184.617075 C420.136484,184.843335 419.348458,185.147722 418.595309,185.525972 L418.039873,185.818839 L417.858093,185.909728 L418.029774,185.788542 C418.140861,185.71785 418.32264,185.606763 418.565013,185.475478 C419.317289,185.074527 420.109269,184.752996 420.928144,184.516087 L420.928144,184.516087 C421.099824,183.687981 421.301801,182.688195 421.544174,181.486432 L421.544174,181.425839 L421.604767,181.425839 L426.75518,181.314751 L426.835971,181.314751 L426.835971,181.385443 C427.068244,182.324636 427.320716,183.314324 427.593385,184.415098 L427.512594,184.344406 C428.616584,184.611931 429.679707,185.026311 430.673534,185.576466 L430.552348,185.576466 L433.157851,183.86976 L433.238642,183.809167 L433.309334,183.879859 L437.02571,187.454852 L437.096402,187.525544 L437.096402,187.616434 L435.490685,190.28253 L435.490685,190.141146 C436.081478,191.114999 436.536752,192.164847 436.843931,193.261691 L436.742943,193.160702 L439.772598,193.786831 L439.883685,193.786831 L439.883685,193.897918 C439.883685,195.574328 439.954377,197.291132 439.984674,199.058431 L439.984674,199.179617 L439.863487,199.179617 L436.833832,199.926932 L436.94492,199.815845 C436.668894,200.921857 436.251399,201.987659 435.702761,202.986883 L435.702761,202.825302 L437.409467,205.430805 L437.480159,205.531794 L437.389269,205.622683 L433.814276,209.328961 L433.723387,209.419851 L433.612299,209.359258 L430.956302,207.743442 L431.117883,207.743442 C430.142725,208.331707 429.093229,208.786829 427.997339,209.096688 L428.108426,208.975501 C427.886251,209.985386 427.674175,211.065963 427.472198,212.005156 L427.472198,212.126343 L427.351012,212.126343 L422.1905,212.217232 L422.069314,212.217232 L422.069314,212.096046 L421.332098,209.066391 L421.443185,209.177478 C420.339673,208.903685 419.276927,208.486056 418.282245,207.93532 L418.433728,207.93532 L415.828225,209.642025 L415.727236,209.702619 L415.646445,209.621828 L411.818981,206.198318 L411.73819,206.117527 L411.798783,206.026637 C412.35422,205.097543 412.909657,204.188647 413.414599,203.360541 L413.414599,203.501925 C412.829473,202.52873 412.374512,201.482997 412.061353,200.391479 L412.162342,200.482369 L409.132687,199.836042 L409.031699,199.836042 L409.031699,199.735054 C409.031699,197.92736 409.031699,196.210555 408.950908,194.58464 L408.950908,194.493751 L409.041797,194.493751 L412.071452,193.756535 L411.990662,193.837325 C412.268599,192.736835 412.689605,191.67753 413.242919,190.686484 L413.242919,190.787473 L411.536213,188.181969 L411.536213,188.121376 L411.536213,188.121376 L415.141503,184.435296 L415.141503,184.435296 L415.141503,184.435296 L417.161273,185.657257 C417.373349,185.788542 417.53493,185.899629 417.666215,185.970321 L417.878291,185.990519 Z" id="Path" fill="#F5F5F5"></path>
                </g>
                <g id="freepik--error-504--inject-47" transform="translate(60.631475, 110.239515)">
                    <path d="M327.636988,228.163607 L3.71637677,227.830345 C2.87629068,227.83035 2.07075897,227.495937 1.47767657,226.90096 C0.884594169,226.305982 0.55542059,225.499388 0.55542059,224.659306 L0.55542059,3.42380119 C0.55542059,1.67806222 1.9706378,0.262861168 3.71637677,0.262861168 L324.476048,0.262861168 C326.221787,0.262861168 327.636988,1.67806222 327.636988,3.42380119 L327.636988,228.163607 Z" id="Path" fill="#EBEBEB"></path>
                    <polygon id="Path" fill="#FAFAFA" points="327.303726 228.2155 0 228.2155 0.565535595 17.3212173 327.303726 17.3212173"></polygon>
                    <path d="M121.813544,191.598598 L121.813544,172.795352 L134.910978,172.795352 L134.910978,157.4934 L121.813544,157.4934 L121.813544,106.011407 L95.7483545,106.011407 L59.0496043,162.291469 L59.0496043,172.795352 L102.102555,172.795352 L102.102555,191.598598 L121.813544,191.598598 Z M102.102555,157.4934 L79.7980143,157.4934 L94.8406115,134.670149 C98.2986798,129.223691 100.805779,124.555299 102.36191,120.664972 L102.36191,120.664972 L102.621265,120.664972 L102.102555,134.670149 L102.102555,157.4934 Z M185.87426,191.598598 L185.87426,106.011407 L168.108434,106.011407 C165.947142,109.123669 162.164879,112.171091 156.761648,115.153675 C151.358416,118.136259 146.452281,119.886906 142.043244,120.405617 L142.043244,120.405617 L144.118085,138.819831 C150.94777,137.609507 157.691003,133.978535 164.347785,127.926915 L164.347785,127.926915 L164.347785,191.598598 L185.87426,191.598598 Z M233.206571,192.895374 C244.877551,192.895374 253.846916,189.350854 260.114665,182.261814 C266.382414,175.172774 269.516288,164.193407 269.516288,149.323713 C269.516288,134.799826 266.468865,123.734007 260.37402,116.126257 C254.279174,108.518507 245.525939,104.714632 234.114314,104.714632 C223.567205,104.714632 215.375906,107.28657 209.540415,112.430447 C203.704925,117.574323 200.78718,124.684976 200.78718,133.762406 C200.78718,139.122412 202.019117,143.877255 204.482991,148.026937 C206.946864,152.176619 210.296868,155.375333 214.533002,157.623077 C218.769135,159.870821 223.437528,160.994694 228.538178,160.994694 C233.465926,160.994694 237.831737,160.022112 241.635612,158.076949 C245.439487,156.131785 247.903361,153.343718 249.027233,149.712746 L249.027233,149.712746 L249.416266,149.712746 L249.416266,151.787587 C249.416266,167.954056 244.142712,176.037291 233.595603,176.037291 C230.051083,176.037291 227.392693,175.216 225.620433,173.573417 C223.848173,171.930835 222.57301,169.510187 221.794945,166.311474 L221.794945,166.311474 L201.8246,174.221805 C204.418152,180.619231 208.330092,185.33085 213.56042,188.356659 C218.790748,191.382469 225.339465,192.895374 233.206571,192.895374 Z M233.465926,145.044354 C229.575599,145.044354 226.571402,144.050159 224.453335,142.06177 C222.335268,140.07338 221.276235,137.2637 221.276235,133.632728 C221.276235,130.001756 222.335268,127.192076 224.453335,125.203686 C226.571402,123.215297 229.575599,122.221103 233.465926,122.221103 C237.269801,122.221103 240.252385,123.23691 242.413678,125.268525 C244.57497,127.30014 245.655617,130.088208 245.655617,133.632728 C245.655617,137.177248 244.57497,139.965316 242.413678,141.996931 C240.252385,144.028546 237.269801,145.044354 233.465926,145.044354 Z" id="419" fill="#263238"></path>
                    <polygon id="Path" fill="#263238" points="137.091888 77.6200515 137.091888 80.9324743 124.973268 80.9324743 124.973268 65.7841994 136.859614 65.7841994 136.859614 69.0966222 129.214785 69.0966222 129.214785 71.6516312 135.950718 71.6516312 135.950718 74.8630655 129.214785 74.8630655 129.214785 77.6301504"></polygon>
                    <path d="M146.180853,76.9030332 L143.848018,76.9030332 L143.848018,80.9425732 L139.515612,80.9425732 L139.515612,65.7942983 L146.443423,65.7942983 C150.583951,65.7942983 153.179356,67.9453533 153.179356,71.4092588 C153.254286,73.4599485 152.080714,75.3520342 150.210294,76.1961137 L153.482321,80.952672 L148.887344,80.952672 L146.180853,76.9030332 Z M146.180853,69.1572153 L143.807623,69.1572153 L143.807623,73.5906104 L146.180853,73.5906104 C147.95825,73.5906104 148.846949,72.7726036 148.846949,71.3890611 C148.846949,70.0055187 147.95825,69.1572153 146.180853,69.1572153 L146.180853,69.1572153 Z" id="Shape" fill="#263238"></path>
                    <path d="M162.167332,76.9030332 L159.824399,76.9030332 L159.824399,80.9425732 L155.542486,80.9425732 L155.542486,65.7942983 L162.470298,65.7942983 C166.610826,65.7942983 169.20623,67.9453533 169.20623,71.4092588 C169.281161,73.4599485 168.107589,75.3520342 166.237169,76.1961137 L169.509196,80.952672 L164.914219,80.952672 L162.167332,76.9030332 Z M162.167332,69.1572153 L159.784003,69.1572153 L159.784003,73.5906104 L162.167332,73.5906104 C163.94473,73.5906104 164.833428,72.7726036 164.833428,71.3890611 C164.833428,70.0055187 163.985125,69.1572153 162.207727,69.1572153 L162.167332,69.1572153 Z" id="Shape" fill="#263238"></path>
                    <path d="M170.79175,73.4088311 C170.79175,68.8643487 174.356644,65.5216293 179.214191,65.5216293 C184.071737,65.5216293 187.636631,68.8643487 187.636631,73.4088311 C187.636631,77.9533136 184.061639,81.2859341 179.214191,81.2859341 C174.366743,81.2859341 170.79175,77.9028193 170.79175,73.4088311 Z M183.304225,73.4088311 C183.177628,71.1777169 181.287693,69.4588831 179.05461,69.5439444 C176.821526,69.6290058 175.067824,71.4866309 175.11132,73.7209105 C175.154816,75.9551901 176.979489,77.7431532 179.214191,77.7412377 C180.347015,77.7583906 181.434974,77.2990328 182.212717,76.4752008 C182.990461,75.6513688 183.386494,74.5387939 183.304225,73.4088311 L183.304225,73.4088311 Z" id="Shape" fill="#263238"></path>
                    <path d="M196.513521,76.9030332 L194.180686,76.9030332 L194.180686,80.9425732 L189.888675,80.9425732 L189.888675,65.7942983 L196.816486,65.7942983 C200.957015,65.7942983 203.552419,67.9453533 203.552419,71.4092588 C203.62735,73.4599485 202.453778,75.3520342 200.583357,76.1961137 L203.855384,80.952672 L199.260408,80.952672 L196.513521,76.9030332 Z M196.513521,69.1572153 L194.140291,69.1572153 L194.140291,73.5906104 L196.513521,73.5906104 C198.290918,73.5906104 199.179617,72.7726036 199.179617,71.3890611 C199.179617,70.0055187 198.331314,69.1572153 196.553916,69.1572153 L196.513521,69.1572153 Z" id="Shape" fill="#263238"></path>
                    <path d="M41.3648893,9.0488606 C41.3648893,10.7220928 40.0084665,12.0785156 38.3352343,12.0785156 C36.6620021,12.0785156 35.3055793,10.7220928 35.3055793,9.0488606 C35.3055793,7.37562836 36.6620021,6.01920562 38.3352343,6.01920562 C39.1387488,6.01920562 39.9093533,6.3384005 40.4775239,6.90657102 C41.0456944,7.47474154 41.3648893,8.24534614 41.3648893,9.0488606 L41.3648893,9.0488606 Z" id="Path" fill="#263238"></path>
                    <path d="M22.7931043,9.0488606 C22.7931043,10.7220928 21.4366815,12.0785156 19.7634493,12.0785156 C18.0902171,12.0785156 16.7337943,10.7220928 16.7337943,9.0488606 C16.7337943,7.37562836 18.0902171,6.01920562 19.7634493,6.01920562 C20.5669637,6.01920562 21.3375683,6.3384005 21.9057389,6.90657102 C22.4739094,7.47474154 22.7931043,8.24534614 22.7931043,9.0488606 L22.7931043,9.0488606 Z" id="Path" fill="#263238"></path>
                    <path d="M31.7103887,9.0488606 C31.7103887,10.7220928 30.353966,12.0785156 28.6807338,12.0785156 C27.0075015,12.0785156 25.6510788,10.7220928 25.6510788,9.0488606 C25.6510788,7.37562836 27.0075015,6.01920562 28.6807338,6.01920562 C30.353966,6.01920562 31.7103887,7.37562836 31.7103887,9.0488606 Z" id="Path" fill="#263238"></path>
                    <path d="M327.636988,228.163607 C327.636988,226.416506 327.556197,138.798884 327.424912,0.262861168 L327.636988,0.474937017 L176.315821,0.474937017 L6.86721795,0.474937017 C4.99893071,0.586024366 2.82767798,0.0204887702 1.63601369,1.48482201 C1.23583754,1.91459571 0.969186764,2.45140583 0.868501093,3.02994605 C0.811833401,3.64423928 0.791600272,4.26134971 0.807907994,4.87803558 L0.807907994,8.77619165 C0.807907994,11.311003 0.807907994,13.8256166 0.807907994,16.3503291 C0.807907994,21.3930215 0.807907994,26.4121499 0.807907994,31.4077143 C0.807907994,41.4055757 0.791076577,51.3361115 0.757413744,61.1993216 C0.757413744,80.8988115 0.727117194,100.261673 0.666524095,119.287906 C0.605930995,157.299977 0.545337896,193.777023 0.484744796,228.214102 L0.242372398,227.971729 L327.677383,228.214102 L0.242372398,228.456474 L0,228.456474 L0,228.214102 C0.0504942496,193.777023 0.100988499,157.299977 0.151482749,119.287906 C0.151482749,100.281871 0.181779299,80.9190092 0.242372398,61.1993216 C0.242372398,51.3428441 0.242372398,41.4123083 0.242372398,31.4077143 C0.242372398,26.3582894 0.242372398,21.3795563 0.242372398,16.3503291 C0.242372398,13.8256166 0.242372398,11.3009041 0.242372398,8.77619165 L0.242372398,4.93862868 C0.221583221,4.28808437 0.245202046,3.63687962 0.313064347,2.98955065 C0.434607256,2.31673372 0.746534194,1.69287984 1.21186199,1.19195536 C1.91536939,0.420785586 2.91498086,-0.0128693921 3.95874917,0 L176.315821,0 L327.636988,0 L327.849064,0 L327.849064,0.212366919 C327.727878,138.798884 327.647087,226.426605 327.636988,228.163607 Z" id="Path" stroke="#263238" stroke-width="0.4" fill="#263238"></path>
                </g>
                <g id="freepik--Stopwatch--inject-47" transform="translate(277.807243, 0.000000)">
                    <polygon id="Rectangle" fill="#263238" transform="translate(60.046673, 85.169499) rotate(-58.710000) translate(-60.046673, -85.169499) " points="56.007133 78.8627669 64.0862129 78.8627669 64.0862129 91.4762304 56.007133 91.4762304"></polygon>
                    <path d="M62.309904,76.7217228 L53.6652885,90.9409035 L42.0516111,83.8717085 C43.6155023,78.4467391 46.5998696,73.5378732 50.6962266,69.6525279 L62.309904,76.7217228 Z" id="Path" fill="#455A64"></path>
                    <path d="M55.0690286,88.5575749 C54.9276447,88.7898484 52.0999667,87.3457129 48.7471486,85.3360418 C45.3943304,83.3263706 42.7787283,81.4984788 42.9201122,81.2965018 C43.0614961,81.0945248 45.889174,82.5083638 49.2419922,84.5281338 C52.5948104,86.5479038 55.2407091,88.3354002 55.0690286,88.5575749 Z" id="Path" fill="#263238"></path>
                    <path d="M56.7151411,85.8510831 C56.5636584,86.0732578 53.6854862,84.4877384 50.3528657,82.3366833 C47.0202452,80.1856283 44.3541488,78.2971434 44.4450385,78.1254629 C44.5359281,77.9537825 47.4746935,79.3676215 50.8780059,81.5186765 C54.2813183,83.6697315 56.856525,85.6289084 56.7151411,85.8510831 Z" id="Path" fill="#263238"></path>
                    <path d="M58.9065916,82.2457937 C58.7652077,82.4679684 55.8769366,80.8521524 52.5039207,78.660702 C49.1309049,76.4692515 46.4446108,74.5201735 46.5758958,74.3383942 C46.7071809,74.1566149 49.6055508,75.6512447 53.0290609,77.852794 C56.452571,80.0543433 59.0479755,82.023619 58.9065916,82.2457937 Z" id="Path" fill="#263238"></path>
                    <path d="M60.8859662,78.8828767 C60.7445823,79.1151502 57.9169043,77.6306193 54.574185,75.5805528 C51.2314656,73.5304862 48.6360612,71.6823967 48.7673463,71.460222 C48.8986313,71.2380473 51.7364081,72.7124794 55.0791275,74.7625459 C58.4218468,76.8126124 61.0273501,78.6203066 60.8859662,78.8828767 Z" id="Path" fill="#263238"></path>
                    <polygon id="Rectangle" fill="#263238" transform="translate(155.755315, 55.480610) rotate(28.290000) translate(-155.755315, -55.480610) " points="151.715775 49.1738781 159.794855 49.1738781 159.794855 61.7873417 151.715775 61.7873417"></polygon>
                    <path d="M164.308288,57.2208436 L149.675055,49.3336418 L156.118121,37.3665047 C161.62241,38.6543429 166.68185,41.3915314 170.771552,45.2941018 L164.308288,57.2208436 Z" id="Path" fill="#455A64"></path>
                    <path d="M152.129075,50.6565912 C151.896802,50.535405 153.13896,47.6269362 155.027445,44.1731295 C156.91593,40.7193228 158.541845,38.0229299 158.774118,38.1138196 C159.006392,38.2047092 157.764233,41.1434745 155.875749,44.5972812 C153.987264,48.0510879 152.361349,50.7777774 152.129075,50.6565912 Z" id="Path" fill="#263238"></path>
                    <path d="M154.926457,52.1613198 C154.694183,52.0300347 156.12822,49.1316648 158.097495,45.6273639 C160.066771,42.123063 161.823971,39.42667 161.995652,39.5074608 C162.167332,39.5882516 160.915075,42.6280055 158.965997,46.1020098 C157.016919,49.5760142 155.15873,52.2926048 154.926457,52.1613198 Z" id="Path" fill="#263238"></path>
                    <path d="M158.642833,54.1608921 C158.41056,54.029607 159.874893,51.1312371 161.884564,47.5764419 C163.894235,44.0216468 165.701929,41.3353527 165.924104,41.4363412 C166.146279,41.5373297 164.772835,44.5568858 162.753065,48.0611867 C160.733295,51.5654876 158.875107,54.2921771 158.642833,54.1608921 Z" id="Path" fill="#263238"></path>
                    <path d="M162.09664,55.9584874 C161.864367,55.8373012 163.197415,52.9288324 165.065702,49.4851246 C166.933989,46.0414167 168.650794,43.3450238 168.883067,43.4258146 C169.115341,43.5066054 167.782293,46.4554696 165.914005,49.8991774 C164.045718,53.3428852 162.288518,56.0897724 162.09664,55.9584874 Z" id="Path" fill="#263238"></path>
                    <polygon id="Rectangle" fill="#263238" transform="translate(102.438950, 49.817771) rotate(-18.010000) translate(-102.438950, -49.817771) " points="97.6571447 42.3547212 107.220756 42.3547212 107.220756 57.2808214 97.6571447 57.2808214"></polygon>
                    <path d="M110.935866,43.9105594 L92.2024998,49.9698694 L87.2338656,34.6701117 C92.8271046,31.0177129 99.2945192,28.9258267 105.967232,28.6108018 L110.935866,43.9105594 Z" id="Path" fill="#216DF2"></path>
                    <path d="M106.209605,28.6007029 C106.401483,28.731988 103.058763,32.296882 97.4740994,34.1045761 C91.8894354,35.9122703 87.1025806,35.1144611 87.1833714,34.8821876 C87.2641622,34.649914 91.84904,34.9831761 97.1711339,33.1855808 C102.493228,31.3879855 106.017726,28.3583305 106.209605,28.6007029 Z" id="Path" fill="#263238"></path>
                    <path d="M98.3829959,47.9400005 C98.1305247,48.0308902 96.9691569,45.1527179 95.7875915,41.5373297 C94.606026,37.9219414 93.8587111,34.9023853 94.1111824,34.8215945 C94.3636536,34.7408037 95.5250214,37.6088771 96.7065868,41.2343642 C97.8881523,44.8598513 98.6657637,47.8592097 98.3829959,47.9400005 Z" id="Path" fill="#263238"></path>
                    <path d="M101.978186,46.8695224 C101.715616,46.9604121 100.554249,44.072141 99.3726832,40.436555 C98.1911178,36.8009691 97.433704,33.7713141 97.6861753,33.6905233 C97.9386465,33.6097325 99.1101131,36.4980036 100.291679,40.1335895 C101.473244,43.7691755 102.230658,46.7887316 101.978186,46.8695224 Z" id="Path" fill="#263238"></path>
                    <path d="M105.522883,45.6576604 C105.270412,45.7384512 104.098945,42.8501802 102.91738,39.2145942 C101.735814,35.5790082 100.9784,32.5594521 101.230872,32.4786613 C101.483343,32.3978705 102.654809,35.2760427 103.836375,38.9217275 C105.01794,42.5674124 105.734959,45.5768696 105.522883,45.6576604 Z" id="Path" fill="#263238"></path>
                    <path d="M108.491945,44.6881709 C108.229375,44.7689616 106.987216,41.6585159 105.714761,37.7199644 C104.442306,33.7814129 103.604101,30.5295833 103.856573,30.4487925 C104.109044,30.3680017 105.351202,33.4784474 106.633756,37.4169989 C107.91631,41.3555504 108.764614,44.6073801 108.491945,44.6881709 Z" id="Path" fill="#263238"></path>
                    <path d="M94.9897823,48.9801821 C94.7373111,49.0609729 93.4951526,45.9505271 92.2125986,42.0018768 C90.9300447,38.0532265 90.101939,34.8114956 90.3544102,34.7307048 C90.6068815,34.649914 91.84904,37.7603598 93.131594,41.7090101 C94.4141479,45.6576604 95.2422536,48.8993913 94.9897823,48.9801821 Z" id="Path" fill="#263238"></path>
                    <circle id="Oval" fill="#216DF2" transform="translate(123.784269, 119.098570) rotate(-72.000000) translate(-123.784269, -119.098570) " cx="123.784269" cy="119.09857" r="69.5911748"></circle>
                    <circle id="Oval" fill="#FAFAFA" transform="translate(123.564447, 118.539057) rotate(-87.680000) translate(-123.564447, -118.539057) " cx="123.564447" cy="118.539057" r="58.4420445"></circle>
                    <path d="M179.153598,100.474218 C179.153598,100.474218 179.002115,100.19145 178.759742,99.6057167 C178.51737,99.0199834 178.174009,98.1312846 177.749857,97.03051 C177.527683,96.4548755 177.275211,95.818648 176.992444,95.1319262 C176.709676,94.4452044 176.285524,93.7180872 175.88157,92.9202781 C174.99979,91.0666121 173.987353,89.277974 172.851915,87.5678876 C169.862621,82.8006511 166.168278,78.5138507 161.894663,74.8534356 C149.318072,63.917447 132.666572,58.8789992 116.136774,61.0079123 C113.692589,61.3351101 111.273411,61.8277181 108.895899,62.4823444 C107.694136,62.8257053 106.451977,63.0983743 105.250214,63.4922294 L101.695419,64.8858707 C101.099587,65.1282431 100.473458,65.3302201 99.8877246,65.602889 L98.1406235,66.4915878 C96.9792558,67.08742 95.7774926,67.6428567 94.6262237,68.299282 C89.9393774,71.1025963 85.6322776,74.496686 81.8107832,78.3981319 C80.8513925,79.4080169 79.9727925,80.5087915 79.0436983,81.5691708 C78.1068641,82.6314039 77.2463157,83.7585535 76.4684916,84.9421866 C74.7984172,87.2913996 73.2837254,89.7472919 71.934108,92.2941494 C70.6513526,94.9359542 69.5415101,97.6582731 68.6115864,100.443921 C66.6826819,106.165066 65.6903197,112.160162 65.672821,118.197699 C65.550071,130.717408 69.5218853,142.934284 76.9835329,152.988237 C80.5449738,157.863972 84.8728614,162.130471 89.7989735,165.621899 C94.4832081,169.091872 99.7068677,171.766823 105.260313,173.539397 C106.576166,174.039277 107.926133,174.444267 109.299853,174.751259 C110.673296,175.064323 112.026542,175.437981 113.399986,175.690452 C116.118138,176.151319 118.864778,176.424634 121.62045,176.508459 C124.315427,176.612944 127.014367,176.538723 129.69953,176.286284 C131.01238,176.134801 132.315132,175.872231 133.607784,175.680353 L135.536665,175.367289 C136.172892,175.246103 136.799021,175.044126 137.42515,174.882544 L141.131428,173.872659 C142.353388,173.499002 143.514756,172.98396 144.686223,172.559809 C146.991804,171.705552 149.235709,170.693264 151.401958,169.530154 C166.020976,161.529449 176.526503,147.665387 180.27457,131.427193 C181.573385,125.950376 182.039798,120.309158 181.658112,114.693398 C181.567631,112.643116 181.334797,110.601598 180.961292,108.583594 C180.809809,107.704994 180.70882,106.886988 180.557338,106.149771 C180.405855,105.412555 180.203878,104.766229 180.052395,104.130001 C179.759529,102.978733 179.527255,102.110231 179.365673,101.433609 C179.204092,100.756986 179.173795,100.504514 179.173795,100.504514 C179.173795,100.504514 179.284883,100.80748 179.466662,101.403312 C179.648441,101.999144 179.900912,102.938337 180.234175,104.079507 C180.405855,104.675339 180.587634,105.331765 180.789611,106.099277 C180.991588,106.86679 181.082478,107.6545 181.24406,108.543199 C181.65754,110.564295 181.92083,112.613228 182.03177,114.673201 C182.487452,120.324816 182.071916,126.012894 180.79971,131.53828 C177.136044,148.004067 166.566364,162.0982 151.785714,170.226974 C149.595426,171.42953 147.324484,172.478955 144.989188,173.367717 C143.797524,173.812066 142.615959,174.327107 141.383899,174.710864 L137.627127,175.720749 C136.990899,175.88233 136.36477,176.084307 135.718444,176.215592 L133.759267,176.538755 C132.446417,176.740732 131.123467,177.003302 129.790419,177.154785 C127.072439,177.421701 124.339618,177.506047 121.610351,177.407256 C118.810839,177.328507 116.020192,177.055179 113.258602,176.58925 C111.864961,176.336778 110.491517,175.963121 109.087777,175.650057 C107.681907,175.335482 106.298645,174.927251 104.947248,174.428096 C99.3046593,172.623718 93.9937736,169.911994 89.223339,166.39951 C84.2162467,162.849017 79.8139546,158.514924 76.1857238,153.563872 C68.5986547,143.352584 64.5623439,130.938623 64.6932326,118.217897 C64.7300609,112.082209 65.7529959,105.992336 67.7228876,100.181351 C68.6702759,97.3492546 69.8038177,94.5828728 71.1161011,91.9002942 C72.4870161,89.3150095 74.0253151,86.8220205 75.7211767,84.4372441 C76.5191706,83.2388578 77.3963587,82.0951395 78.3468777,81.013734 C79.2961696,79.9432559 80.1949672,78.8323824 81.1644568,77.8022997 C83.1274562,75.8054859 85.2226551,73.9430868 87.4358426,72.2277346 C89.5914413,70.5509511 91.8514039,69.0128273 94.202072,67.622659 C95.3735386,66.9662338 96.5954995,66.4006982 97.7770649,65.7947672 L99.5544625,64.9060684 C100.150295,64.6233006 100.776423,64.4213236 101.382354,64.1789512 L105.028039,62.7954088 C106.25,62.3813559 107.502257,62.108687 108.724218,61.7855238 C111.139628,61.1370609 113.595788,60.6512272 116.076181,60.3312894 C132.792963,58.1828685 149.626507,63.3256342 162.288518,74.4494816 C166.570705,78.171148 170.252982,82.5312907 173.205375,87.3760095 C174.311193,89.0948912 175.286775,90.8941483 176.123943,92.7586965 C176.507699,93.5666045 176.901554,94.2937217 177.194421,94.9905423 C177.487287,95.6873629 177.699363,96.3336893 177.911439,96.9194226 C178.315393,98.040395 178.628457,98.9391926 178.860731,99.5350248 C179.093004,100.130857 179.153598,100.474218 179.153598,100.474218 Z" id="Path" fill="#263238"></path>
                    <path d="M170.751354,102.251615 C165.701929,103.978519 161.500808,105.079293 161.369523,104.705636 C161.238238,104.331978 165.146493,102.453592 170.115127,100.504514 C175.083761,98.5554363 179.274784,97.4748594 179.48686,98.0504938 C179.698935,98.6261283 175.790681,100.524712 170.751354,102.251615 Z" id="Path" fill="#263238"></path>
                    <path d="M168.580102,140.132401 C163.773049,137.809666 160.016277,135.638413 160.177859,135.284953 C160.33944,134.931494 164.449672,136.294838 169.347614,138.445894 C174.245557,140.596949 178.002329,142.727806 177.739759,143.30344 C177.477188,143.879075 173.397253,142.455137 168.580102,140.132401 Z" id="Path" fill="#263238"></path>
                    <path d="M140.384113,165.551207 C138.606715,160.501782 137.465545,156.330957 137.829104,156.199672 C138.192662,156.068387 140.121543,159.946345 142.121115,164.894781 C144.120687,169.843218 145.261857,173.983746 144.676124,174.246316 C144.090391,174.508887 142.171609,170.570335 140.384113,165.551207 Z" id="Path" fill="#263238"></path>
                    <path d="M102.47303,163.794007 C104.745271,158.966757 106.876129,155.179688 107.239687,155.341269 C107.603246,155.502851 106.229802,159.623182 104.210032,164.541322 C102.190262,169.459462 100.01901,173.24653 99.453474,172.98396 C98.8879384,172.72139 100.210888,168.611158 102.47303,163.794007 Z" id="Path" fill="#263238"></path>
                    <path d="M76.7512594,135.880786 C81.8006843,134.042795 85.931114,132.851131 86.0724979,133.234887 C86.2138818,133.618643 82.3561211,135.557622 77.4278823,137.607689 C72.4996436,139.657755 68.3389174,140.84942 68.096545,140.263686 C67.8541726,139.677953 71.7523287,137.718776 76.7512594,135.880786 Z" id="Path" fill="#263238"></path>
                    <path d="M78.0944064,97.9596042 C82.9418544,100.171252 86.7491208,102.261714 86.5976381,102.625273 C86.4461553,102.988831 82.3056268,101.615388 77.3571904,99.656211 C72.4087539,97.6970341 68.6115864,95.5661767 68.8640576,94.9905423 C69.1165288,94.4149079 73.2469585,95.7883514 78.0944064,97.9596042 Z" id="Path" fill="#263238"></path>
                    <path d="M105.734959,71.9348679 C107.623444,76.9136009 108.855503,81.0743271 108.491945,81.2258099 C108.128386,81.3772926 106.118715,77.5195319 104.018154,72.6215897 C101.917593,67.7236475 100.685534,63.5326248 101.261168,63.3306478 C101.836803,63.1286708 103.826276,66.9460361 105.734959,71.9348679 Z" id="Path" fill="#263238"></path>
                    <path d="M143.65614,72.8538633 C141.494986,77.7215089 139.44492,81.5489731 139.081361,81.3974903 C138.717802,81.2460076 140.000356,77.0953802 141.949434,72.1368449 C143.898512,67.1783096 145.93848,63.3508455 146.524213,63.5932179 C147.109947,63.8355903 145.817294,67.9761188 143.65614,72.8538633 Z" id="Path" fill="#263238"></path>
                    <path d="M169.983842,100.181351 C165.015208,102.130429 160.894877,103.412983 160.713098,103.039326 C160.531318,102.665668 164.399178,100.635799 169.276922,98.4746455 C174.154667,96.3134916 178.295195,95.0410365 178.537568,95.616671 C178.77994,96.1923054 174.942377,98.242372 169.983842,100.181351 Z" id="Path" fill="#263238"></path>
                    <path d="M82.4369119,65.4312086 C81.6607951,66.2236454 80.8379511,66.9689262 79.9727925,67.6630544 C77.7250637,69.6603126 75.6035854,71.795282 73.6206159,74.0556264 C60.2685442,89.0992052 54.3416986,109.324566 57.462456,129.195347 C57.9154575,132.166659 58.549499,135.107532 59.3610398,138.001544 C59.7082845,139.052145 59.9982118,140.120831 60.2295409,141.20288 C60.2295409,141.20288 60.0679593,140.950408 59.8558835,140.425268 C59.6438076,139.900128 59.3206444,139.132615 58.9974812,138.112631 C58.0395213,135.234412 57.3035171,132.287019 56.7959319,129.296335 C53.2363667,109.191941 59.2730995,88.5788899 73.1156734,73.5708816 C75.1566378,71.3295488 77.3681698,69.2496958 79.7304201,67.3499901 C80.5585258,66.6531694 81.2553464,66.1987212 81.7501901,65.8553603 C82.2450337,65.5119994 82.4167142,65.400912 82.4369119,65.4312086 Z" id="Path" fill="#FFFFFF"></path>
                    <path d="M99.7463407,55.8373012 C99.8372303,56.0998713 97.02975,57.4026229 93.5961411,59.0386366 C90.1625321,60.6746503 87.3651507,62.0682916 87.2237668,61.7855238 C87.0823829,61.502756 89.697985,59.7657538 93.1820882,58.1701355 C96.6661914,56.5745172 99.6756487,55.5949288 99.7463407,55.8373012 Z" id="Path" fill="#FFFFFF"></path>
                    <g id="Group" opacity="0.4" transform="translate(90.000950, 77.883091)" fill="#000000">
                        <path d="M0,88.5164195 C0,88.5164195 43.5866363,124.609709 80.6999097,86.7996151 C119.439098,47.3333096 75.5595951,1.43513289e-14 75.5595951,1.43513289e-14 C75.5595951,1.43513289e-14 111.915455,37.2647562 75.8827583,80.9927764 C66.9048807,91.8793366 54.574185,95.8986788 44.8691902,98.0093385 C20.0563159,103.412223 0,88.5164195 0,88.5164195 Z" id="Path"></path>
                    </g>
                    <path d="M129.457157,83.972697 C132.385487,92.0330886 134.790644,100.27404 136.657637,108.644187 C137.439812,111.648893 137.780013,114.751534 137.667522,117.854339 C137.560795,120.967768 136.250233,123.918342 134.011738,126.084901 C131.678904,128.104671 128.02312,128.781294 125.397419,127.094786 L129.457157,83.972697 Z" id="Path" fill="#E0E0E0"></path>
                    <polygon id="Path" fill="#216DF2" points="120.933728 114.552015 130.073187 73.9748356 130.366054 116.339511 124.740994 120.227568"></polygon>
                    <g id="Group" opacity="0.4" transform="translate(126.397206, 73.974836)" fill="#000000">
                        <polygon id="Path" points="3.67598137 0 0 39.6278871 3.96884802 42.3646754"></polygon>
                    </g>
                    <path d="M131.244654,118.116909 C132.409829,121.708385 130.443067,125.564438 126.851665,126.729844 C123.260263,127.89525 119.404084,125.928734 118.238448,122.337406 C117.072813,118.746079 119.039082,114.889774 122.630335,113.723909 C124.355209,113.163945 126.231892,113.312211 127.847438,114.136083 C129.462983,114.959954 130.685021,116.391926 131.244654,118.116909 Z" id="Path" fill="#FAFAFA"></path>
                    <path d="M131.244654,118.116909 C131.163863,118.116909 130.971985,117.561472 130.366054,116.692971 C129.518839,115.470994 128.295304,114.55955 126.88195,114.097566 C123.750657,113.056433 120.339907,114.557488 118.992468,117.56969 C117.645029,120.581893 118.799373,124.125037 121.662607,125.765417 C124.525841,127.405797 128.166236,126.609613 130.083286,123.923747 C130.949532,122.719146 131.402979,121.2667 131.375939,119.783219 C131.375939,118.773334 131.163863,118.137106 131.244654,118.116909 C131.552145,118.609162 131.726168,119.172995 131.749596,119.752922 C131.930314,121.354761 131.536658,122.968751 130.638723,124.307504 C129.27737,126.356782 126.958052,127.562218 124.498622,127.49874 C121.423531,127.424489 118.729926,125.418092 117.778359,122.492991 C116.826793,119.567889 117.824367,116.360713 120.267204,114.491421 C122.224469,113.000812 124.809956,112.619472 127.114224,113.481536 C128.626469,114.037221 129.89302,115.11057 130.689217,116.511191 C131.00875,116.990065 131.2,117.54295 131.244654,118.116909 Z" id="Path" fill="#263238"></path>
                    <path d="M129.588442,118.652148 C130.428966,121.300774 128.971468,124.130774 126.327108,124.984626 C123.682749,125.838477 120.845445,124.39525 119.978286,121.755225 C119.111128,119.115199 120.540047,116.270662 123.175672,115.390219 C124.458407,114.961716 125.859423,115.065688 127.064854,115.678844 C128.270284,116.292 129.179367,117.363086 129.588442,118.652148 Z" id="Path" fill="#455A64"></path>
                    <path d="M87.4358426,0 C87.4358426,0 87.4358426,0.0916496069 87.3651507,0.273428905 L87.1227783,1.0611392 C86.8016814,2.09511156 86.4137416,3.10712829 85.9614105,4.09079417 C83.0595703,10.4083845 78.168039,15.6014243 72.0350965,18.8755105 C69.0875498,20.4417724 65.8999003,21.5065976 62.6027706,22.0263516 C54.7554908,23.2455952 46.734876,21.5112137 40.0924342,17.158706 L40.4559928,16.8355428 C44.3743465,24.7227446 44.3642477,35.3568335 39.5571951,44.1731295 C37.6936568,47.6265201 35.1108084,50.6398432 31.9830577,53.0096232 C23.3059362,59.4529254 11.862134,60.8098828 1.91878148,56.5745172 L2.15105503,56.1806621 C6.99717615,59.739942 10.4221487,64.9042423 11.8156544,70.7533025 C13.5297825,78.2280192 11.7001869,86.0755307 6.8571191,92.0214804 C6.21022155,92.836017 5.49388431,93.5929016 4.71616291,94.2836228 C4.71616291,94.2836228 4.71616291,94.2836228 4.83734911,94.1321401 L5.24130311,93.6978895 C5.60486171,93.3141332 6.11990305,92.6880045 6.7561306,91.9406896 C8.5608251,89.6325169 9.9515121,87.0288228 10.8663625,84.245366 C12.3244748,79.9234876 12.5275701,75.2768075 11.4520958,70.8441921 C10.0347085,65.0900735 6.62050774,60.0260336 1.81779299,56.5543195 L0,55.241469 L2.01976998,56.1604644 C8.26467143,58.8354647 15.2404092,59.2776893 21.7731204,57.4127217 C25.3239252,56.422185 28.6617903,54.7857753 31.6194991,52.5854715 C34.6976589,50.2635583 37.2424816,47.3089469 39.0825492,43.9206583 C43.8088109,35.2659439 43.8290086,24.7934365 40.0015445,17.0577175 L39.5874917,16.2296118 L40.3651031,16.7446531 C46.9186879,21.0472347 54.8334325,22.7704905 62.5825729,21.5820022 C68.6408271,20.6037912 74.2680332,17.8359092 78.7407328,13.6342073 C81.6744891,10.8892042 84.0717087,7.62213628 85.8099278,3.99990453 C86.2748278,3.03359431 86.6861377,2.04240503 87.0419875,1.03084265 L87.3247553,0.253231206 C87.3853484,0.0815507569 87.4257438,-0.00933889234 87.4358426,0 Z" id="Path" fill="#263238"></path>
                    <path d="M144.231775,14.9975521 C143.782956,15.1689155 143.320012,15.3007026 142.848232,15.3914072 C142.298865,15.5433384 141.7383,15.6513992 141.171823,15.7145704 C140.432612,15.8284504 139.687407,15.8992618 138.939977,15.9266463 L137.627127,15.9266463 C137.172678,15.9266463 136.698033,15.876152 136.203189,15.8559543 C135.159382,15.7874953 134.12067,15.6559702 133.092743,15.4620992 C130.736744,14.9938119 128.447306,14.2374495 126.276019,13.2100557 C124.127021,12.1335284 122.116197,10.8008914 120.287401,9.24120763 C119.499869,8.55270839 118.757734,7.81394747 118.065654,7.0295595 C117.742491,6.6660009 117.409229,6.32264001 117.13656,5.95908141 L116.34885,4.94919642 C115.904801,4.34283992 115.50002,3.70868221 115.136988,3.05061263 C114.834957,2.572353 114.574787,2.06890693 114.359376,1.545884 C114.132687,1.12125963 113.94996,0.674592566 113.814039,0.212835806 C113.925126,0.152242706 114.68254,2.09122189 116.651815,4.72702172 L117.449625,5.73690671 C117.722294,6.09036646 118.065654,6.41352966 118.388818,6.7467917 C119.084896,7.50523072 119.826874,8.22022726 120.610565,8.88774789 C122.421874,10.3957927 124.400819,11.6902393 126.508293,12.7455086 C128.638259,13.7532234 130.878514,14.509013 133.183633,14.9975521 C134.184733,15.1980849 135.196165,15.3430568 136.213288,15.4318026 C136.698033,15.4318026 137.16258,15.5226923 137.617028,15.5327911 L138.899582,15.5327911 C142.222103,15.472198 144.211577,14.866267 144.231775,14.9975521 Z" id="Path" fill="#263238"></path>
                    <path d="M232.192757,135.66871 C232.192757,135.66871 232.101868,135.729303 231.920088,135.820193 L231.091983,136.214048 C230.728424,136.375629 230.273976,136.587705 229.758935,136.870473 C229.243893,137.153241 228.627863,137.456206 227.971438,137.880358 C221.464092,141.686168 216.201668,147.29942 212.823163,154.038518 C211.227921,157.244701 210.111887,160.667659 209.51074,164.197961 C208.077604,172.522927 209.418806,181.088172 213.328106,188.576584 L213.580577,189.041132 L213.055437,188.940143 C206.302402,187.658147 199.317803,188.508723 193.069813,191.373966 C190.083564,192.725843 187.324282,194.531299 184.889744,196.726356 C182.561402,198.859618 180.554445,201.318991 178.931423,204.027825 C175.889146,209.059539 174.243729,214.811526 174.164766,220.690927 L174.164766,221.226166 L173.770911,220.862608 C171.319282,218.629792 168.487197,216.854608 165.409063,215.621305 C163.979969,215.046837 162.511958,214.574374 161.016063,214.207466 C159.59134,213.891433 158.147498,213.668784 156.693755,213.540941 C151.781778,213.081171 146.830247,213.772726 142.232202,215.560711 C139.255966,216.698339 136.485945,218.315322 134.031936,220.347566 C133.173534,221.044387 132.618097,221.690713 132.183847,222.07447 L131.709201,222.518819 C131.608212,222.619808 131.547619,222.670302 131.53752,222.660203 C132.297264,221.812236 133.099467,221.003292 133.941046,220.236479 C136.372291,218.139188 139.14161,216.469401 142.131214,215.298141 C146.764908,213.468358 151.761795,212.745624 156.724052,213.187482 C158.197044,213.316658 159.660748,213.535876 161.106953,213.843907 C162.626006,214.210495 164.117546,214.682929 165.570644,215.257746 C168.706132,216.500824 171.593046,218.296594 174.094074,220.559642 L173.69012,220.731323 C173.79161,211.464349 177.720845,202.651897 184.546383,196.382995 C187.0122,194.14349 189.813137,192.303459 192.847638,190.929617 C199.197952,188.021376 206.297454,187.167035 213.156425,188.485695 L212.883756,188.849253 C208.929272,181.266471 207.590822,172.589619 209.07649,164.167664 C209.695177,160.597509 210.8422,157.139421 212.479802,153.907233 C213.891329,151.136359 215.627028,148.54298 217.650413,146.181613 C220.541628,142.816386 223.996494,139.980046 227.860351,137.799567 C229.241914,136.968565 230.691201,136.255745 232.192757,135.66871 Z" id="Path" fill="#263238"></path>
                    <path d="M222.265588,108.916856 C222.138127,108.797504 222.023086,108.665545 221.922227,108.523001 C221.603516,108.137251 221.313252,107.728856 221.053726,107.30104 C218.488475,103.151393 218.078737,98.0202643 219.952951,93.5161102 C221.416258,90.0833473 224.065066,87.2911669 227.416001,85.6491061 L227.416001,86.1136532 C223.229169,85.1140357 219.203967,83.5297923 215.458963,81.4075892 C210.868656,78.8658899 207.069768,75.105445 204.481513,70.5412266 C202.469421,66.7354185 201.606338,62.42702 201.997196,58.1398389 C202.241459,55.2572386 203.199344,52.4807586 204.784479,50.060759 L205.592387,48.9801821 C205.834759,48.6671177 206.08723,48.444943 206.258911,48.242966 C206.439736,48.0400696 206.63553,47.8510271 206.844644,47.6774304 C206.693041,47.9022486 206.52422,48.114963 206.339702,48.313658 C206.17812,48.5257338 205.945846,48.7580074 205.713573,49.0710717 C205.481299,49.3841361 205.238927,49.7678924 204.956159,50.1718464 C203.464761,52.5917227 202.577998,55.3351469 202.370854,58.1701355 C202.040288,62.3689097 202.919951,66.5744694 204.905665,70.2887554 C207.497134,74.771846 211.26988,78.4572594 215.812423,80.9430421 C219.518648,83.0345678 223.494255,84.6078208 227.628077,85.6188096 L228.294601,85.79049 L227.668473,86.0833567 C224.418015,87.6669188 221.837012,90.3553135 220.387202,93.667593 C219.255653,96.2825617 218.904921,99.1690877 219.377317,101.978946 C219.678494,103.816693 220.30792,105.585244 221.235505,107.200052 C221.871733,108.331123 222.295884,108.916856 222.265588,108.916856 Z" id="Path" fill="#263238"></path>
                </g>
            </g>
        </g>
    </g>
</svg>