<?xml version="1.0" encoding="UTF-8"?>
<svg width="520px" height="520px" viewBox="0 0 520 520" version="1.1" xmlns="http://www.w3.org/2000/svg" xmlns:xlink="http://www.w3.org/1999/xlink">
    <title>Group 17</title>
    <g id="Error" stroke="none" stroke-width="1" fill="none" fill-rule="evenodd">
        <g id="Group-17">
            <rect id="Rectangle-Copy-6" fill-opacity="0" fill="#D8D8D8" x="0" y="0" width="520" height="520"></rect>
            <g id="No-data-bro-Copy" transform="translate(5.000000, 17.000000)">
                <g id="freepik--background-simple--inject-122" fill="#F5F5F5" fill-rule="nonzero">
                    <path d="M507.80009,221.423174 C503.082949,178.770002 491.283139,137.585996 477.187375,108.060523 C443.137686,37.1140812 348.280013,-10.3415213 276.813237,1.9331136 C215.852188,12.3910393 186.561385,75.5335303 131.597646,97.4446224 C81.0310058,117.602195 35.5015489,133.162704 11.6653753,186.352788 C-38.8316905,298.704401 84.6071276,421.529737 190.40189,411.95647 C223.797579,408.923355 253.631062,394.34229 287.903389,401.182595 C357.477742,415.068572 380.576428,429.997182 442.024497,402.225228 C502.568099,374.848211 516.051609,296.034629 507.80009,221.423174 Z" id="Path"></path>
                </g>
                <path d="M193.439371,195.208638 C205.649897,195.208638 215.090443,191.760295 221.761008,184.863609 C228.431573,177.966923 231.766856,168.187196 231.766856,155.524428 C231.766856,133.025403 219.66939,121.77589 195.474458,121.77589 C189.143074,121.77589 182.472509,123.132615 175.462762,125.846065 L175.462762,125.846065 L178.345803,101.594603 L228.375043,101.594603 L228.375043,81.2437261 L160.030014,81.2437261 L156.977382,141.787586 L170.883815,145.009808 L173.427675,144.331445 C179.193757,142.86166 185.864322,142.126767 193.439371,142.126767 C197.961788,142.126767 201.466661,143.370432 203.953991,145.857761 C206.44132,148.345091 207.684985,152.330471 207.684985,157.813902 C207.684985,163.297332 206.215199,167.508833 203.275628,170.448404 C200.336057,173.387976 196.096291,174.857761 190.55633,174.857761 C181.398435,174.857761 169.979332,173.783687 156.29902,171.635539 L156.29902,171.635539 L153.75516,188.933785 L159.860423,190.4601 C163.817538,191.590705 169.103113,192.664779 175.717148,193.682323 C182.331184,194.699866 188.238591,195.208638 193.439371,195.208638 Z M287.731768,195.208638 C302.203503,195.208638 313.057304,190.771017 320.293172,181.895773 C327.529039,173.020529 331.146973,158.322674 331.146973,137.802206 C331.146973,117.281738 327.500774,102.386026 320.208377,93.1150712 C312.915979,83.844116 302.090443,79.2086384 287.731768,79.2086384 C273.373094,79.2086384 262.519293,83.844116 255.170365,93.1150712 C247.934497,102.386026 244.316564,117.281738 244.316564,137.802206 C244.316564,158.322674 247.934497,173.020529 255.170365,181.895773 C262.406232,190.771017 273.260033,195.208638 287.731768,195.208638 Z M287.901359,174.857761 C281.004673,174.857761 276.030014,172.087781 272.977382,166.54782 C269.924751,161.007859 268.398435,151.284662 268.398435,137.378229 C268.398435,123.471796 269.896486,113.692069 272.892587,108.039048 C275.888688,102.386026 280.863347,99.5595156 287.816564,99.5595156 C294.76978,99.5595156 299.716174,102.357761 302.655745,107.954252 C305.595316,113.550744 307.065102,123.358736 307.065102,137.378229 C307.065102,151.284662 305.595316,161.007859 302.655745,166.54782 C299.716174,172.087781 294.798045,174.857761 287.901359,174.857761 Z M406.106037,193.173551 L406.106037,81.2437261 L384.737616,81.2437261 L347.766856,105.834369 L358.451067,123.302206 L382.702529,107.699866 L382.702529,193.173551 L406.106037,193.173551 Z" id="501" fill="#263238" fill-rule="nonzero"></path>
                <g id="freepik--file-cabinet--inject-122" transform="translate(4.268963, 133.802482)">
                    <rect id="Rectangle" stroke="#263238" fill="#FFFFFF" fill-rule="nonzero" stroke-linecap="round" stroke-linejoin="round" x="0" y="0" width="129.378402" height="344.183266"></rect>
                    <rect id="Rectangle" stroke="#263238" stroke-linecap="round" stroke-linejoin="round" x="7.52137839" y="11.2998908" width="113.052377" height="82.8955708"></rect>
                    <rect id="Rectangle" fill="#263238" fill-rule="nonzero" x="41.4388738" y="45.2173862" width="45.2173862" height="15.0784031"></rect>
                    <rect id="Rectangle" stroke="#263238" stroke-linecap="round" stroke-linejoin="round" x="7.52137839" y="108.026243" width="113.052377" height="82.8955708"></rect>
                    <rect id="Rectangle" fill="#263238" fill-rule="nonzero" x="41.4388738" y="141.943738" width="45.2173862" height="15.0784031"></rect>
                    <rect id="Rectangle" stroke="#263238" stroke-linecap="round" stroke-linejoin="round" x="7.52137839" y="204.734772" width="113.052377" height="82.8955708"></rect>
                    <rect id="Rectangle" fill="#263238" fill-rule="nonzero" x="41.4388738" y="238.652267" width="45.2173862" height="15.0784031"></rect>
                </g>
                <g id="Group-2" transform="translate(7.755160, 133.941964)">
                    <g id="freepik--Device--inject-122" transform="translate(178.630470, 0.000000)">
                        <polyline id="Path" stroke="#263238" stroke-width="0.75" fill="#FFFFFF" fill-rule="nonzero" stroke-linecap="round" stroke-linejoin="round" points="76.0158266 339.335363 0 169.124075 184.202478 169.124075 312.798005 253.9497 324.510624 261.385722"></polyline>
                        <polygon id="Path" stroke="#263238" stroke-width="0.75" fill="#263238" fill-rule="nonzero" stroke-linecap="round" stroke-linejoin="round" points="57.1589111 332.63385 0 180.477435 0 169.124075 80.8637293 347.266674"></polygon>
                        <polygon id="Path" stroke="#263238" stroke-width="0.75" fill="#FFFFFF" fill-rule="nonzero" stroke-linecap="round" stroke-linejoin="round" points="105.317121 176.164228 183.667783 268.00703 88.5633394 290.161233 34.5234833 187.499765"></polygon>
                        <polygon id="Path" stroke="#263238" stroke-width="0.75" fill="#263238" fill-rule="nonzero" stroke-linecap="round" stroke-linejoin="round" points="88.5633394 290.161233 88.5633394 292.870355 182.045874 273.95997 183.667783 268.00703"></polygon>
                        <polygon id="Path" fill="#263238" fill-rule="nonzero" points="102.358474 209.208388 106.368688 215.125681 116.563542 212.363089 112.321627 206.588381"></polygon>
                        <polygon id="Path" fill="#263238" fill-rule="nonzero" points="140.945641 245.407249 136.097738 238.848322 124.512676 241.967377 129.039762 248.668889"></polygon>
                        <polygon id="Path" fill="#263238" fill-rule="nonzero" points="94.0350531 196.874753 97.0115227 201.294899 106.600389 198.853125 103.588273 194.753795"></polygon>
                        <polygon id="Path" fill="#263238" fill-rule="nonzero" points="112.499859 224.197675 117.989396 232.325041 129.200171 229.491157 123.140292 221.274675"></polygon>
                        <polygon id="Path" fill="#263238" fill-rule="nonzero" points="141.533805 228.011834 131.927116 230.453608 136.739372 236.976889 146.524293 234.339059"></polygon>
                        <polygon id="Path" fill="#263238" fill-rule="nonzero" points="118.96967 233.750895 123.550225 240.559346 135.063994 237.440291 130.233914 230.881364"></polygon>
                        <polygon id="Path" fill="#263238" fill-rule="nonzero" points="83.1807416 199.280881 86.1393881 204.057491 95.3361446 201.704832 92.3240286 197.249039"></polygon>
                        <polygon id="Path" fill="#263238" fill-rule="nonzero" points="107.313316 216.533711 111.555231 222.789644 122.106548 219.866644 117.597286 213.753296"></polygon>
                        <polygon id="Path" fill="#263238" fill-rule="nonzero" points="97.973974 202.70293 101.396023 207.782534 111.27006 205.180351 107.634133 200.243332"></polygon>
                        <polygon id="Path" fill="#263238" fill-rule="nonzero" points="77.2278023 214.163229 74.2335095 208.762808 63.3079053 211.543223 66.3556677 217.03276"></polygon>
                        <polygon id="Path" fill="#263238" fill-rule="nonzero" points="61.5255882 227.227614 69.0291434 225.213596 65.5536249 218.939839 58.1748319 220.882565"></polygon>
                        <polygon id="Path" fill="#263238" fill-rule="nonzero" points="79.9369244 194.040869 82.2717598 197.819381 91.3437542 195.805363 88.9019797 192.205082"></polygon>
                        <polygon id="Path" fill="#263238" fill-rule="nonzero" points="73.4136436 207.283485 70.5262898 202.079119 59.4224539 204.520893 62.4880394 210.0639"></polygon>
                        <polygon id="Path" fill="#263238" fill-rule="nonzero" points="69.1539056 196.233119 71.3639789 200.225509 80.5963817 198.193668 78.2258999 194.379509"></polygon>
                        <polygon id="Path" fill="#263238" fill-rule="nonzero" points="53.6299232 212.327443 60.8661308 210.473833 57.764899 204.89518 50.5465145 206.481442"></polygon>
                        <polygon id="Path" fill="#263238" fill-rule="nonzero" points="56.2855757 198.870948 58.602588 203.04157 69.7064239 200.599796 67.4785275 196.571759"></polygon>
                        <polygon id="Path" fill="#263238" fill-rule="nonzero" points="91.1655224 212.167034 94.9083885 218.209089 104.711133 215.57126 100.700919 209.653967"></polygon>
                        <polygon id="Path" fill="#263238" fill-rule="nonzero" points="116.331841 232.752797 110.860127 224.661077 100.64745 227.477138 105.602291 235.479742"></polygon>
                        <polygon id="Path" fill="#263238" fill-rule="nonzero" points="72.1838447 201.704832 75.0355522 206.873552 84.4818331 204.467424 81.5053635 199.655168"></polygon>
                        <polygon id="Path" fill="#263238" fill-rule="nonzero" points="74.3226253 234.731169 66.6230152 236.852127 70.6154057 244.391328 78.546717 242.37731"></polygon>
                        <polygon id="Path" fill="#263238" fill-rule="nonzero" points="95.799547 219.652766 99.7562911 226.033461 109.897676 223.253047 105.673584 216.97929"></polygon>
                        <polygon id="Path" fill="#263238" fill-rule="nonzero" points="88.6346321 211.168936 85.3729917 205.911101 75.8554181 208.335052 78.8497109 213.753296"></polygon>
                        <polygon id="Path" fill="#263238" fill-rule="nonzero" points="106.511273 267.044579 95.6213153 269.824994 99.5067667 276.8295 110.432371 274.138201"></polygon>
                        <polygon id="Path" fill="#263238" fill-rule="nonzero" points="89.6505529 190.404942 98.9720716 188.497862 93.9637604 181.689411 84.784827 183.20438"></polygon>
                        <polygon id="Path" fill="#263238" fill-rule="nonzero" points="66.6586616 195.092436 62.1493992 186.947246 50.7247462 188.836502 55.4657098 197.391625"></polygon>
                        <polygon id="Path" fill="#263238" fill-rule="nonzero" points="81.4875403 221.845016 78.0476682 215.624729 67.1755335 218.49426 70.651052 224.768016"></polygon>
                        <polygon id="Path" fill="#263238" fill-rule="nonzero" points="109.238218 244.426975 104.853718 237.351175 93.5181811 240.238529 97.5818642 247.581676"></polygon>
                        <polygon id="Path" fill="#263238" fill-rule="nonzero" points="103.96256 235.907499 99.0077179 227.922718 88.3316382 230.863541 92.6983152 238.759206"></polygon>
                        <polygon id="Path" fill="#263238" fill-rule="nonzero" points="121.89267 241.004926 117.294292 234.178651 106.49345 236.923419 110.87795 243.981395"></polygon>
                        <polygon id="Path" fill="#263238" fill-rule="nonzero" points="93.2686567 218.654668 89.5257907 212.59479 79.6517536 215.214796 83.0916257 221.399437"></polygon>
                        <polygon id="Path" fill="#263238" fill-rule="nonzero" points="87.0305466 205.501168 90.2743639 210.723357 99.738468 208.228113 96.2985958 203.130686"></polygon>
                        <polygon id="Path" fill="#263238" fill-rule="nonzero" points="98.1165593 226.496864 94.1598153 220.098345 83.8936684 222.860937 87.5295954 229.419864"></polygon>
                        <polygon id="Path" fill="#263238" fill-rule="nonzero" points="127.40003 249.132292 122.855121 242.430779 111.769109 245.425072 115.9932 252.251347"></polygon>
                        <polygon id="Path" fill="#263238" fill-rule="nonzero" points="120.074707 261.911506 115.244627 254.12278 103.053578 257.473536 107.331139 265.155323"></polygon>
                        <polygon id="Path" fill="#263238" fill-rule="nonzero" points="83.537205 251.378011 79.3665829 243.83881 71.3996252 245.870651 75.4633083 253.570262"></polygon>
                        <polygon id="Path" fill="#263238" fill-rule="nonzero" points="69.8490093 226.675096 62.3098077 228.706937 65.8566188 235.390627 73.5027594 233.287492"></polygon>
                        <polygon id="Path" fill="#263238" fill-rule="nonzero" points="105.691407 265.583079 101.449492 257.901292 90.6486505 260.859939 94.8014494 268.345671"></polygon>
                        <polygon id="Path" fill="#263238" fill-rule="nonzero" points="85.9076868 229.84762 82.289583 223.306516 71.4530947 226.229516 75.1246681 232.841913"></polygon>
                        <polygon id="Path" fill="#263238" fill-rule="nonzero" points="90.6308273 191.848618 93.0547786 195.431076 102.536706 193.327942 100.023639 189.923716"></polygon>
                        <polygon id="Path" fill="#263238" fill-rule="nonzero" points="49.7622949 205.002119 56.9450331 203.415857 54.6280208 199.209588 47.4631058 200.671088"></polygon>
                        <polygon id="Path" fill="#263238" fill-rule="nonzero" points="79.0101194 192.561545 87.9217052 190.743582 83.020333 183.489551 74.286979 184.933228"></polygon>
                        <polygon id="Path" fill="#263238" fill-rule="nonzero" points="68.3340397 194.753795 77.3347413 192.918009 72.5581313 185.218399 63.8426005 186.662076"></polygon>
                        <polygon id="Path" fill="#263238" fill-rule="nonzero" points="64.7515822 217.478339 61.6859967 211.953156 54.4141427 213.806766 57.3906124 219.403242"></polygon>
                        <polygon id="Path" fill="#263238" fill-rule="nonzero" points="100.718742 188.141399 108.774816 186.483844 103.713035 180.085325 95.7460775 181.386417"></polygon>
                        <polygon id="Path" fill="#263238" fill-rule="nonzero" points="53.7903317 197.730265 49.0137217 189.10385 41.9557458 190.280179 46.6788863 199.173942"></polygon>
                        <polygon id="Path" fill="#263238" fill-rule="nonzero" points="93.9994067 270.234927 85.4442844 272.409354 89.1515041 279.396037 97.8848581 277.239433"></polygon>
                        <polygon id="Path" fill="#263238" fill-rule="nonzero" points="134.654061 259.861841 122.605597 262.927427 127.00792 270.038872 139.448494 266.955463"></polygon>
                        <polygon id="Path" fill="#263238" fill-rule="nonzero" points="120.965865 263.355183 108.133182 266.616823 112.072103 273.728269 125.350365 270.448805"></polygon>
                        <polygon id="Path" fill="#263238" fill-rule="nonzero" points="148.912598 256.225914 136.329439 259.434085 141.123872 266.54553 154.152611 263.319536"></polygon>
                        <polygon id="Path" fill="#263238" fill-rule="nonzero" points="161.299702 253.071213 150.6058 255.798158 155.863635 262.909603 166.914001 260.164835"></polygon>
                        <polygon id="Path" fill="#263238" fill-rule="nonzero" points="89.044565 261.305518 80.7567903 263.569061 84.6600648 270.947854 93.1795408 268.773427"></polygon>
                        <polygon id="Path" fill="#263238" fill-rule="nonzero" points="114.353469 252.696926 110.129377 245.870651 98.4017301 249.043176 102.251535 256.012036"></polygon>
                        <polygon id="Path" fill="#263238" fill-rule="nonzero" points="133.69161 258.435987 128.344658 250.540322 116.884359 253.677201 121.714438 261.48375"></polygon>
                        <polygon id="Path" fill="#263238" fill-rule="nonzero" points="100.64745 256.439792 96.7798215 249.470932 85.9611563 252.411755 89.8466077 259.398439"></polygon>
                        <polygon id="Path" fill="#263238" fill-rule="nonzero" points="79.9903939 262.107561 88.2425223 259.844018 84.3570709 252.839511 76.2475279 255.031762"></polygon>
                        <polygon id="Path" fill="#263238" fill-rule="nonzero" points="91.0764066 239.186962 86.7275527 231.30912 75.9267108 234.28559 80.1686256 241.949554"></polygon>
                        <polygon id="Path" fill="#263238" fill-rule="nonzero" points="147.878854 254.817884 141.979385 246.81528 130.002213 250.094743 135.366988 258.008231"></polygon>
                        <polygon id="Path" fill="#263238" fill-rule="nonzero" points="95.9777788 248.009432 91.8962725 240.648462 80.9884915 243.428877 85.1591136 250.950255"></polygon>
                        <polygon id="Path" fill="#263238" fill-rule="nonzero" points="124.81567 220.811272 130.893372 229.045577 140.428769 226.621626 133.869841 218.316028"></polygon>
                        <polygon id="Path" fill="#263238" fill-rule="nonzero" points="112.963261 204.734772 121.411445 202.506875 117.615109 197.712442 109.345157 199.815576"></polygon>
                        <polygon id="Path" fill="#263238" fill-rule="nonzero" points="105.334944 194.379509 108.29359 198.407546 116.527896 196.322235 113.551426 192.561545"></polygon>
                        <polygon id="Path" fill="#263238" fill-rule="nonzero" points="160.194666 251.681005 153.81397 243.571462 143.654763 246.351877 149.572056 254.390127"></polygon>
                        <polygon id="Path" fill="#263238" fill-rule="nonzero" points="113.997005 206.142802 118.256743 211.899686 126.954451 209.547028 122.498658 203.897082"></polygon>
                        <polygon id="Path" fill="#263238" fill-rule="nonzero" points="137.773116 238.384919 142.621019 244.96167 152.726757 242.199078 147.611507 235.729267"></polygon>
                        <polygon id="Path" fill="#263238" fill-rule="nonzero" points="104.265554 192.953655 112.446389 191.153515 109.897676 187.909698 101.788133 189.567253"></polygon>
                        <polygon id="Path" fill="#263238" fill-rule="nonzero" points="123.781926 219.421065 132.782628 216.925821 128.059488 210.937235 119.290487 213.307717"></polygon>
                        <path d="M196.090533,186.430374 L196.090533,201.009729 C194.609828,202.441242 192.978402,203.708137 191.224807,204.788241 C188.533509,206.41015 166.379306,210.135192 166.379306,210.135192 L194.468625,240.951456 C194.468625,240.951456 220.223108,238.135395 227.441492,236.08573 C234.998517,233.911303 233.376608,206.35668 233.376608,206.35668 L196.090533,186.430374 Z" id="Path" stroke="#263238" stroke-width="0.75" fill="#FFFFFF" fill-rule="nonzero" stroke-linecap="round" stroke-linejoin="round"></path>
                        <path d="M196.090533,186.430374 L196.090533,201.009729 C196.090533,201.009729 195.698424,201.401838 195.056789,201.97218 L227.904895,235.943145 C234.927224,232.788444 233.376608,206.41015 233.376608,206.41015 L196.090533,186.430374 Z" id="Path" stroke="#263238" stroke-width="0.75" fill="#263238" fill-rule="nonzero" stroke-linecap="round" stroke-linejoin="round"></path>
                        <polygon id="Path" stroke="#263238" stroke-width="0.75" fill="#FFFFFF" fill-rule="nonzero" stroke-linecap="round" stroke-linejoin="round" points="146.381708 0 146.381708 154.54472 264.175049 247.474737 264.175049 8.6442382"></polygon>
                        <polygon id="Path" stroke="#263238" stroke-width="0.75" fill="#216DF2" fill-rule="nonzero" stroke-linecap="round" stroke-linejoin="round" points="154.491251 8.10954305 154.491251 138.325634 253.374207 199.38782 253.374207 16.7537812"></polygon>
                        <rect id="Rectangle" stroke="#263238" stroke-width="0.75" fill="#263238" fill-rule="nonzero" stroke-linecap="round" stroke-linejoin="round" x="264.175049" y="8.6442382" width="11.8880554" height="238.883968"></rect>
                        <polygon id="Path" stroke="#263238" stroke-width="0.75" fill="#FFFFFF" fill-rule="nonzero" stroke-linecap="round" stroke-linejoin="round" points="160.978885 16.2190861 161.513581 132.390518 244.17745 179.390222 244.17745 35.5394041 187.446295 26.9486354 183.667783 18.910385"></polygon>
                        <polygon id="Path" stroke="#263238" stroke-width="0.75" fill="#FFFFFF" fill-rule="nonzero" stroke-linecap="round" stroke-linejoin="round" points="166.379306 30.2637453 166.379306 129.146701 239.329547 168.054684 239.329547 43.2390142"></polygon>
                        <path d="M204.603558,102.956581 C211.693138,100.576183 214.781144,90.7264472 211.500812,80.9565813 C208.220481,71.1867155 199.814006,65.1963687 192.724426,67.5767673 C185.634845,69.957166 182.546839,79.8069015 185.827171,89.5767673 C189.107503,99.3466332 197.513978,105.33698 204.603558,102.956581 Z" id="Oval" fill="#263238" fill-rule="nonzero"></path>
                        <path d="M200.149672,86.3812463 L204.925267,81.0900353 C205.586064,80.122748 205.55141,78.8405805 204.83933,77.910398 C204.127288,76.8914409 203.010118,76.6827388 202.384012,77.4070577 L197.792567,82.5018433 L193.188845,75.1358883 C192.525909,74.0678248 191.408739,73.7363568 190.733527,74.3992927 C190.002189,75.3026026 189.962037,76.5824474 190.635314,77.5298236 L195.410908,85.2026935 L190.549378,90.4693514 C189.888251,91.4381272 189.927934,92.7228625 190.64759,93.6489886 C190.927796,94.0931148 191.366861,94.4136321 191.87525,94.5451798 C192.325831,94.6568709 192.800877,94.5048562 193.102909,94.1523289 L197.706631,89.0575433 L202.298076,96.4234983 C202.580298,96.9241955 203.047454,97.2943944 203.599395,97.4547321 C204.031631,97.5905859 204.503557,97.4773237 204.827054,97.1600939 C205.55055,96.2524868 205.585605,94.9754946 204.91299,94.029563 L200.149672,86.3812463 Z" id="Path" fill="#FFFFFF" fill-rule="nonzero"></path>
                        <line x1="179.336752" y1="125.771308" x2="220.187461" y2="137.766302" id="Path" stroke="#263238" stroke-width="0.75" stroke-linecap="round" stroke-linejoin="round"></line>
                        <line x1="177.714843" y1="114.417948" x2="230.667486" y2="129.193357" id="Path" stroke="#263238" stroke-width="0.75" stroke-linecap="round" stroke-linejoin="round"></line>
                        <path d="M214.216699,307.039776 C214.216699,307.039776 188.390923,309.428081 178.837703,317.074222 C169.284483,324.720362 176.449398,328.552344 185.521393,330.940649 C194.593387,333.328954 235.248041,329.496972 240.505877,324.239137 C245.763712,318.981301 240.505877,306.077325 214.216699,307.039776 Z" id="Path" stroke="#263238" stroke-width="0.75" fill="#FFFFFF" fill-rule="nonzero" stroke-linecap="round" stroke-linejoin="round"></path>
                        <path d="M240.505877,324.310429 C241.521514,323.296659 242.151811,321.96043 242.288194,320.531917 C230.720956,319.961576 215.553437,323.312332 201.776125,327.661186 C197.124879,329.141122 192.401622,330.384398 187.624527,331.386228 C199.637344,332.829905 235.586681,329.158332 240.505877,324.310429 Z" id="Path" stroke="#263238" stroke-width="0.75" fill="#263238" fill-rule="nonzero" stroke-linecap="round" stroke-linejoin="round"></path>
                        <line x1="122.659067" y1="23.3840011" x2="141.533805" y2="33.2045686" id="Path" stroke="#263238" stroke-linecap="round" stroke-linejoin="round"></line>
                        <line x1="111.822578" y1="17.7518789" x2="117.436877" y2="20.674879" id="Path" stroke="#263238" stroke-linecap="round" stroke-linejoin="round"></line>
                        <line x1="126.811866" y1="72.8611253" x2="133.210384" y2="73.5918753" id="Path" stroke="#263238" stroke-linecap="round" stroke-linejoin="round"></line>
                        <line x1="102.322828" y1="70.027241" x2="119.575658" y2="72.0234362" id="Path" stroke="#263238" stroke-linecap="round" stroke-linejoin="round"></line>
                        <line x1="130.839902" y1="118.755792" x2="109.452096" y2="124.690908" id="Path" stroke="#263238" stroke-linecap="round" stroke-linejoin="round"></line>
                    </g>
                    <g id="Group" transform="translate(0.000000, 33.266674)">
                        <path d="M159.710236,296.80162 C159.710236,296.80162 211.50892,273.925196 239.3589,272.202702 L259.676855,317.087185 L106.217203,317.087185 L159.710236,296.80162 Z" id="Path" stroke="#263238" stroke-width="0.75" fill="#263238" fill-rule="nonzero" stroke-linecap="round" stroke-linejoin="round"></path>
                        <path d="M222.757122,26.3558842 C222.757122,26.3558842 259.221232,69.6602282 266.895638,77.6036285 C274.570045,85.5470289 274.854809,91.3124002 272.377357,94.8712713 C269.899905,98.4301424 251.276299,105.021172 232.083164,117.349101 C212.890028,129.677031 158.329128,161.479103 157.788075,162.589471 C157.247022,163.699839 152.021591,124.153663 152.021591,124.153663 L243.317128,86.6004548 L243.046602,83.8530063 L213.431081,29.0321553 L222.757122,26.3558842 Z" id="Path" fill="#216DF2" fill-rule="nonzero"></path>
                        <g transform="translate(152.092783, 28.491207)" fill-rule="nonzero" id="Path">
                            <path d="M105.761579,61.7820029 L63.4455569,0 L61.4094899,0.597890351 L91.0250102,55.4187413 L91.2955365,58.1661899 L0,95.7193981 C0,95.7193981 0.0996676163,96.4027014 0.242049925,97.5557756 L6.19363044,111.207605 L105.761579,61.7820029 Z" fill="#216DF2"></path>
                            <path d="M105.761579,61.7820029 L63.4455569,0 L61.4094899,0.597890351 L91.0250102,55.4187413 L91.2955365,58.1661899 L0,95.7193981 C0,95.7193981 0.0996676163,96.4027014 0.242049925,97.5557756 L6.19363044,111.207605 L105.761579,61.7820029 Z" fill="#FFFFFF" opacity="0.5"></path>
                        </g>
                        <path d="M222.757122,26.3558842 C222.757122,26.3558842 259.221232,69.6602282 266.895638,77.6036285 C274.570045,85.5470289 274.854809,91.3124002 272.377357,94.8712713 C269.899905,98.4301424 251.276299,105.021172 232.083164,117.349101 C212.890028,129.677031 158.329128,161.479103 157.788075,162.589471 C157.247022,163.699839 152.021591,124.153663 152.021591,124.153663 L243.317128,86.6004548 L243.046602,83.8530063 L213.431081,29.0321553 L222.757122,26.3558842 Z" id="Path" stroke="#263238" stroke-width="0.75" stroke-linecap="round" stroke-linejoin="round"></path>
                        <path d="M193.696893,7.4369252 C193.696893,7.4369252 189.311518,3.59334437 187.118831,7.4369252 C184.926143,11.280506 184.655617,17.5725902 186.022487,18.1277741 C187.389357,18.682958 192.871076,17.8572999 193.696893,16.2059837 C194.522711,14.5546675 193.696893,7.4369252 193.696893,7.4369252 Z" id="Path" stroke="#263238" stroke-width="0.75" fill="#FFB6A6" fill-rule="nonzero" stroke-linecap="round" stroke-linejoin="round"></path>
                        <path d="M201.3713,5.51513479 C201.3713,5.51513479 196.715398,0.589657133 193.696893,2.49721206 C190.678388,4.40476699 191.504206,14.8393772 192.600549,15.6650353 C193.696893,16.4906934 200.274956,14.2414868 201.143488,12.9175868 C202.01202,11.5936867 201.3713,5.51513479 201.3713,5.51513479 Z" id="Path" stroke="#263238" stroke-width="0.75" fill="#FFB6A6" fill-rule="nonzero" stroke-linecap="round" stroke-linejoin="round"></path>
                        <path d="M211.793685,5.78560899 C211.793685,5.78560899 207.678836,0.0914151742 203.848752,0.0914151742 C200.018668,0.0914151742 197.256451,13.8001868 198.637559,14.8963191 C200.018668,15.9924514 209.045706,14.6258449 209.600997,13.8001868 C210.480147,11.1714324 211.212176,8.49576296 211.793685,5.78560899 Z" id="Path" stroke="#263238" stroke-width="0.75" fill="#FFB6A6" fill-rule="nonzero" stroke-linecap="round" stroke-linejoin="round"></path>
                        <path d="M219.809809,15.1098514 C219.809809,13.4727706 218.99823,-0.791184868 214.114516,0.034473236 C209.230803,0.86013134 203.976896,12.3766383 204.247422,14.2699578 C204.517949,16.1632772 219.809809,15.1098514 219.809809,15.1098514 Z" id="Path" stroke="#263238" stroke-width="0.75" fill="#FFB6A6" fill-rule="nonzero" stroke-linecap="round" stroke-linejoin="round"></path>
                        <path d="M243.317128,86.6573967 C243.317128,86.6573967 257.299071,91.8675841 262.510263,91.5828744" id="Path" stroke="#263238" stroke-width="0.75" fill="#FFFFFF" fill-rule="nonzero" stroke-linecap="round" stroke-linejoin="round"></path>
                        <path d="M128.343413,317.457308 C143.236603,314.951862 162.315832,304.716549 167.996886,291.833435 C163.725417,269.49796 158.329128,238.037539 158.329128,218.791164 C158.329128,186.448143 166.872066,168.084368 162.985029,146.190193 C159.097992,124.296018 150.925248,110.017827 142.154497,104.252456 C142.154497,104.252456 128.727846,107.811327 115.016429,120.69444 C101.305013,133.577554 89.2452313,155.727968 84.5466151,176.839191 C79.8479989,197.950415 73.5831773,262.906931 73.5831773,279.904099 C73.5831773,296.901268 72.3586894,318 72.3586894,318 C88.7753697,318 105.19205,318 121.60873,318 C123.865298,318.019967 126.119254,317.838923 128.343413,317.457308 L128.343413,317.457308 Z" id="Path" fill="#216DF2" fill-rule="nonzero"></path>
                        <g transform="translate(72.358689, 104.181278)" fill-rule="nonzero" id="Path">
                            <path d="M95.638197,187.637922 C87.2945937,194.755664 49.7199023,208.57832 44.2381834,209.802571 C38.7564645,211.026823 41.8034459,199.439139 50.3321462,187.86569 C58.8608466,176.292241 39.9667141,192.136335 36.9197327,193.346351 C33.8727513,194.556367 38.1442206,170.797344 38.1442206,159.181188 C38.1442206,147.565033 49.1218966,48.8846539 49.1218966,48.8846539 L69.8385226,11.0894425 L76.957638,6.8187971 C74.9690412,4.17589924 72.5647723,1.87305387 69.8385226,0 C69.8385226,0 56.4118708,3.55887114 42.7004545,16.4419847 C28.9890381,29.3250982 16.8865419,51.5466895 12.1879257,72.6579131 C7.48930945,93.7691367 1.22448786,158.725653 1.22448786,175.722821 C1.22448786,192.71999 0,213.816983 0,213.816983 C16.4166802,213.816983 32.8333605,213.816983 49.2500407,213.816983 C51.4988103,213.816983 53.7431726,213.618092 55.9562474,213.219088 C70.8779134,210.770584 89.9571428,200.535271 95.638197,187.637922 Z" fill="#216DF2"></path>
                            <path d="M95.638197,187.637922 C87.2945937,194.755664 49.7199023,208.57832 44.2381834,209.802571 C38.7564645,211.026823 41.8034459,199.439139 50.3321462,187.86569 C58.8608466,176.292241 39.9667141,192.136335 36.9197327,193.346351 C33.8727513,194.556367 38.1442206,170.797344 38.1442206,159.181188 C38.1442206,147.565033 49.1218966,48.8846539 49.1218966,48.8846539 L69.8385226,11.0894425 L76.957638,6.8187971 C74.9690412,4.17589924 72.5647723,1.87305387 69.8385226,0 C69.8385226,0 56.4118708,3.55887114 42.7004545,16.4419847 C28.9890381,29.3250982 16.8865419,51.5466895 12.1879257,72.6579131 C7.48930945,93.7691367 1.22448786,158.725653 1.22448786,175.722821 C1.22448786,192.71999 0,213.816983 0,213.816983 C16.4166802,213.816983 32.8333605,213.816983 49.2500407,213.816983 C51.4988103,213.816983 53.7431726,213.618092 55.9562474,213.219088 C70.8779134,210.770584 89.9571428,200.535271 95.638197,187.637922 Z" fill="#FFFFFF" opacity="0.5"></path>
                        </g>
                        <path d="M128.343413,317.457308 C143.236603,314.951862 162.315832,304.716549 167.996886,291.833435 C163.725417,269.49796 158.329128,238.037539 158.329128,218.791164 C158.329128,186.448143 166.872066,168.084368 162.985029,146.190193 C159.097992,124.296018 150.925248,110.017827 142.154497,104.252456 C142.154497,104.252456 128.727846,107.811327 115.016429,120.69444 C101.305013,133.577554 89.2452313,155.727968 84.5466151,176.839191 C79.8479989,197.950415 73.5831773,262.906931 73.5831773,279.904099 C73.5831773,296.901268 72.3586894,318 72.3586894,318 C88.7753697,318 105.19205,318 121.60873,318 C123.865298,318.019967 126.119254,317.838923 128.343413,317.457308 L128.343413,317.457308 Z" id="Path" stroke="#263238" stroke-width="0.75" stroke-linecap="round" stroke-linejoin="round"></path>
                        <path d="M141.357156,109.291817 L164.90719,152.169097 L166.174393,175.686117 C166.174393,175.686117 172.738217,158.916716 169.81938,147.969629 C166.900543,137.022541 141.357156,109.291817 141.357156,109.291817 Z" id="Path" stroke="#263238" stroke-width="0.75" fill="#263238" fill-rule="nonzero" stroke-linecap="round" stroke-linejoin="round"></path>
                        <polygon id="Path" stroke="#263238" stroke-width="0.75" fill="#263238" fill-rule="nonzero" stroke-linecap="round" stroke-linejoin="round" points="166.160155 175.700353 159.59633 274.935915 166.900543 295.363836 172.012068 254.49376 167.626692 172.767843"></polygon>
                        <path d="M159.695998,69.1050443 C159.695998,69.1050443 160.521815,79.7958932 161.347633,85.0060805 C162.17345,90.2162678 149.287851,104.793404 149.287851,104.793404 L167.925695,133.02237 L189.040992,116.580385 C189.040992,116.580385 218.941277,114.388121 221.660779,111.911146 C224.380281,109.434172 224.408757,82.3155739 224.408757,82.3155739 L231.527873,78.2015189 C231.527873,78.2015189 224.94981,49.7305498 223.312413,43.3815237 L221.660779,37.0894395 C221.660779,37.0894395 231.257346,33.7868071 229.064659,24.2775034 C226.871971,14.7681997 212.890028,10.0420189 198.908086,12.2058125 C184.926143,14.3696062 181.366585,19.6082645 181.366585,19.6082645 C181.366585,19.6082645 161.618159,19.3377903 150.384195,28.6620327 C139.150231,37.986275 145.99882,52.7769435 149.558377,57.9871308 C152.587371,61.9977875 155.981044,65.7196236 159.695998,69.1050443 L159.695998,69.1050443 Z" id="Path" fill="#FFB6A6" fill-rule="nonzero"></path>
                        <g transform="translate(144.169785, 11.560483)" fill-rule="nonzero" id="Path">
                            <path d="M48.5873853,95.8380148 C43.1056664,89.1331016 48.5873853,63.5377003 52.8588546,50.7399997 C57.1303238,37.9422991 46.7648917,32.4616376 46.7648917,32.4616376 L77.8896645,27.0948599 L77.4625176,25.4862502 C79.5675185,24.6637852 81.4395766,23.3394252 82.91576,21.6284338 L84.5958712,11.7347721 C81.7482251,2.73794584 68.2646204,-1.58964146 54.6955863,0.53144574 C40.7136436,2.72371036 37.1540859,7.9338977 37.1540859,7.9338977 C37.1540859,7.9338977 17.4056596,7.6634235 6.17169543,16.9876659 C-5.06226875,26.3119083 1.78632031,41.1025767 5.34587804,46.312764 C8.36932571,50.3629707 11.763162,54.1231116 15.4834984,57.5445614 C15.4834984,57.5445614 16.3093158,68.2354102 17.1351332,73.4455976 C17.9609506,78.6557849 5.11806635,93.2329211 5.11806635,93.2329211 L23.7559106,121.461887 L44.871207,105.019902 C44.871207,105.019902 67.6523765,103.340115 75.2840682,101.27597 L77.490994,100.350663 C77.490994,100.350663 54.0975807,102.542928 48.5873853,95.8380148 Z" fill="#FFB6A6"></path>
                            <path d="M64.6053951,44.9461575 C64.6053951,44.9461575 64.6053951,44.519093 64.6053951,43.8500252 C64.6053951,41.728938 64.9613508,37.145112 68.5066703,35.8923894 C73.1625718,34.2553086 77.0496089,38.6398379 77.0496089,38.6398379 L77.3201353,43.0243671 C75.9562539,41.3199199 73.7798192,40.4821542 71.6248429,40.8321025 C68.9001358,41.4046167 66.4360555,42.848799 64.6053951,44.9461575 L64.6053951,44.9461575 Z" fill="#263238"></path>
                            <path d="M72.5645661,53.715216 C72.5645661,55.9786581 71.938084,57.829271 71.140743,57.829271 C70.3434021,57.829271 69.71692,55.9786581 69.71692,53.715216 C69.71692,51.451774 70.3291639,49.601161 71.140743,49.601161 C71.9523222,49.601161 72.5645661,51.4375385 72.5645661,53.715216 Z" fill="#263238"></path>
                            <path d="M63.92196,82.4281883 C62.3984693,84.0083271 60.3624022,84.5208046 59.3799643,83.5812626 C58.3975264,82.6417206 58.8389115,80.5775754 60.3624022,78.9974366 C61.885893,77.4172978 63.9077217,76.9048203 64.8901597,77.8443623 C65.8725976,78.7839043 65.4454507,80.8480496 63.92196,82.4281883 Z" fill="#263238"></path>
                        </g>
                        <path d="M159.695998,69.1050443 C159.695998,69.1050443 160.521815,79.7958932 161.347633,85.0060805 C162.17345,90.2162678 149.287851,104.793404 149.287851,104.793404 L167.925695,133.02237 L189.040992,116.580385 C189.040992,116.580385 218.941277,114.388121 221.660779,111.911146 C224.380281,109.434172 224.408757,82.3155739 224.408757,82.3155739 L231.527873,78.2015189 C231.527873,78.2015189 224.94981,49.7305498 223.312413,43.3815237 L221.660779,37.0894395 C221.660779,37.0894395 231.257346,33.7868071 229.064659,24.2775034 C226.871971,14.7681997 212.890028,10.0420189 198.908086,12.2058125 C184.926143,14.3696062 181.366585,19.6082645 181.366585,19.6082645 C181.366585,19.6082645 161.618159,19.3377903 150.384195,28.6620327 C139.150231,37.986275 145.99882,52.7769435 149.558377,57.9871308 C152.587371,61.9977875 155.981044,65.7196236 159.695998,69.1050443 L159.695998,69.1050443 Z" id="Path" stroke="#263238" stroke-width="0.75" stroke-linecap="round" stroke-linejoin="round"></path>
                        <path d="M186.022487,42.2426849 C190.963153,38.954288 221.618064,37.0467331 221.618064,37.0467331 C221.618064,37.0467331 231.214632,33.7441006 229.021944,24.234797 C226.829257,14.7254933 212.847314,9.99931242 198.865371,12.1631061 C184.883428,14.3268997 181.323871,19.565558 181.323871,19.565558 C181.323871,19.565558 161.575444,19.2950838 150.34148,28.6193262 C139.107516,37.9435686 145.956105,52.734237 149.515663,57.9444244 C152.53911,61.994631 155.932947,65.7547719 159.653283,69.1762217 C159.653283,69.1762217 160.108907,75.0412413 160.678436,80.2087222 L169.221374,82.6145191 L178.547416,77.674806 L187.873457,75.4825413 C187.873457,75.4825413 181.010629,70.272354 184.854952,65.3468763 C188.699274,60.4213987 195.81839,58.7700825 196.088916,54.9265017 C196.359442,51.0829208 181.081821,45.5310819 186.022487,42.2426849 Z" id="Path" stroke="#263238" stroke-width="0.75" fill="#263238" fill-rule="nonzero" stroke-linecap="round" stroke-linejoin="round"></path>
                        <path d="M215.951248,26.3131777 C215.951248,26.3131777 212.733408,20.4196871 218.628036,21.4873484 C224.522663,22.5550098 224.522663,32.7476167 219.695903,34.8829394 C214.869143,37.0182621 188.613845,32.2066683 174.133564,36.4915492 C159.653283,40.77643 149.487186,52.5634112 149.487186,52.5634112" id="Path" stroke="#FFFFFF" stroke-linecap="round"></path>
                        <path d="M157.531787,61.6741213 C157.531787,61.6741213 168.794227,52.0366983 177.892457,50.4280885 C186.990686,48.8194788 191.831685,48.8194788 181.65135,54.6987339 C171.471015,60.577989 178.43351,59.5103277 184.86919,57.375005" id="Path" stroke="#FFFFFF" stroke-linecap="round"></path>
                        <path d="M181.081821,82.8138159 C181.081821,82.8138159 179.444424,65.5461731 170.9442,65.0052247 C162.443976,64.4642763 162.714503,76.7922059 165.248908,85.2907902 C167.783313,93.7893745 173.791846,96.5225875 178.67556,92.1380583" id="Path" fill="#FFB6A6" fill-rule="nonzero"></path>
                        <path d="M181.081821,82.8138159 C181.081821,82.8138159 179.444424,65.5461731 170.9442,65.0052247 C162.443976,64.4642763 162.714503,76.7922059 165.248908,85.2907902 C167.783313,93.7893745 173.791846,96.5225875 178.67556,92.1380583" id="Path" stroke="#263238" stroke-width="0.75" stroke-linecap="round" stroke-linejoin="round"></path>
                        <path d="M150.042477,94.3303229 L177.46531,135.997586 L164.850237,152.169097 C159.168974,141.211125 152.855539,130.592532 145.941867,120.367024 C136.615826,107.213436 135.519482,105.021172 135.519482,105.021172 L150.042477,94.3303229 Z" id="Path" fill="#216DF2" fill-rule="nonzero"></path>
                        <g transform="translate(135.519482, 94.330323)" fill-rule="nonzero" id="Path">
                            <path d="M14.5229955,0 L0,10.6908489 C0,10.6908489 0.811579161,12.2994586 6.79163614,20.8834558 L22.1404491,11.5734489 L14.5229955,0 Z" fill="#216DF2"></path>
                            <path d="M14.5229955,0 L0,10.6908489 C0,10.6908489 0.811579161,12.2994586 6.79163614,20.8834558 L22.1404491,11.5734489 L14.5229955,0 Z" fill="#FFFFFF" opacity="0.5"></path>
                        </g>
                        <path d="M150.042477,94.3303229 L177.46531,135.997586 L164.850237,152.169097 C159.168974,141.211125 152.855539,130.592532 145.941867,120.367024 C136.615826,107.213436 135.519482,105.021172 135.519482,105.021172 L150.042477,94.3303229 Z" id="Path" stroke="#263238" stroke-width="0.75" stroke-linecap="round" stroke-linejoin="round"></path>
                        <path d="M220.564435,197.950415 C220.564435,197.950415 224.94981,188.896647 225.775627,183.145511 C226.601445,177.394375 226.871971,174.091743 230.161003,171.35853 C233.450034,168.625317 244.142945,157.649758 245.823057,153.535703 C247.503168,149.421648 248.556797,153.265229 249.382614,156.553626 C250.208432,159.842023 249.923667,162.859945 247.189927,164.781736 C245.263536,166.211006 243.514164,167.864464 241.978734,169.707214 L244.441948,171.629004 C244.441948,171.629004 278.71337,158.74589 282.287166,157.393519 C285.860962,156.041148 289.135755,157.10881 289.406281,159.856258 C289.676808,162.603707 288.594702,162.874181 286.943067,163.699839 C285.291433,164.525497 267.208879,170.817581 264.731427,171.913714 L262.268213,173.009846 L264.190374,174.931636 C264.190374,174.931636 274.057468,174.661162 278.998135,174.390688 C283.938801,174.120214 291.328443,173.294556 292.424786,174.931636 C293.441076,176.453972 293.076927,178.506623 291.598969,179.58664 C290.431274,180.705758 288.81611,181.230061 287.213594,181.010188 C284.75038,181.010188 263.635083,182.647269 263.635083,182.647269 L264.190374,185.665192 C264.190374,185.665192 286.672541,189.224063 287.48412,190.320195 C288.295699,191.416327 288.309938,191.971511 287.48412,193.608592 C286.658303,195.245673 286.060297,195.259908 283.924562,195.259908 C281.788828,195.259908 263.991039,192.51246 263.991039,192.51246 C263.991039,192.51246 272.761789,197.452173 273.858133,198.277831 C274.954477,199.103489 278.784561,199.70138 277.688217,201.566228 C276.591874,203.431076 276.050821,204.028967 274.399186,203.758493 C272.747551,203.488018 260.972534,198.277831 260.972534,198.277831 C260.972534,198.277831 249.183279,199.914912 245.31048,200.199621 C242.459791,200.331733 239.603104,200.236529 236.767542,199.914912 L225.804104,207.032654 L220.564435,197.950415 Z" id="Path" stroke="#263238" stroke-width="0.75" fill="#FFB6A6" fill-rule="nonzero" stroke-linecap="round" stroke-linejoin="round"></path>
                        <path d="M142.709788,185.60825 C142.709788,185.60825 134.750617,152.439571 131.461586,145.037119 C128.172555,137.634667 109.53471,130.801634 100.479195,146.958909 C91.4236806,163.116184 99.6533781,181.494195 102.956648,194.647782 C106.259917,207.80137 127.076211,267.248754 130.094716,274.693912 C133.113221,282.139071 138.637654,280.388106 141.613445,279.633625 C144.589235,278.879145 227.968315,211.644951 227.968315,211.644951 L221.390252,196.854283 L156.691731,230.065668 L142.709788,185.60825 Z" id="Path" fill="#216DF2" fill-rule="nonzero"></path>
                        <g transform="translate(96.369093, 137.084833)" fill-rule="nonzero" id="Path">
                            <path d="M44.0056256,121.451804 C46.117924,115.035045 48.5558212,108.730044 51.3098381,102.561316 C54.3568195,96.4685285 36.687175,116.583268 33.0279496,105.60771 C29.3687243,94.632151 6.21736083,39.7970646 10.4745919,21.5187024 C12.3212127,13.0263619 17.2911184,5.53737607 24.3995817,0.535598172 C17.6079455,-1.07301158 9.2928187,0.635246564 4.11010265,9.88831152 C-4.93117397,26.059822 3.28428526,44.423597 6.58755483,57.5771848 C9.8908244,70.7307725 30.707118,130.178156 33.7256229,137.623314 C36.7441279,145.068473 42.2685615,143.317508 45.2443517,142.563028 C47.4370393,141.965137 92.2305137,106.191364 116.435506,86.788399 L44.0056256,121.451804 Z" fill="#216DF2"></path>
                            <path d="M44.0056256,121.451804 C46.117924,115.035045 48.5558212,108.730044 51.3098381,102.561316 C54.3568195,96.4685285 36.687175,116.583268 33.0279496,105.60771 C29.3687243,94.632151 6.21736083,39.7970646 10.4745919,21.5187024 C12.3212127,13.0263619 17.2911184,5.53737607 24.3995817,0.535598172 C17.6079455,-1.07301158 9.2928187,0.635246564 4.11010265,9.88831152 C-4.93117397,26.059822 3.28428526,44.423597 6.58755483,57.5771848 C9.8908244,70.7307725 30.707118,130.178156 33.7256229,137.623314 C36.7441279,145.068473 42.2685615,143.317508 45.2443517,142.563028 C47.4370393,141.965137 92.2305137,106.191364 116.435506,86.788399 L44.0056256,121.451804 Z" fill="#FFFFFF" opacity="0.5"></path>
                        </g>
                        <path d="M142.709788,185.60825 C142.709788,185.60825 134.750617,152.439571 131.461586,145.037119 C128.172555,137.634667 109.53471,130.801634 100.479195,146.958909 C91.4236806,163.116184 99.6533781,181.494195 102.956648,194.647782 C106.259917,207.80137 127.076211,267.248754 130.094716,274.693912 C133.113221,282.139071 138.637654,280.388106 141.613445,279.633625 C144.589235,278.879145 227.968315,211.644951 227.968315,211.644951 L221.390252,196.854283 L156.691731,230.065668 L142.709788,185.60825 Z" id="Path" stroke="#263238" stroke-width="0.75" stroke-linecap="round" stroke-linejoin="round"></path>
                        <line x1="211.793685" y1="202.334944" x2="219.197565" y2="217.410322" id="Path" stroke="#263238" stroke-width="0.75" fill="#FFFFFF" fill-rule="nonzero" stroke-linecap="round" stroke-linejoin="round"></line>
                        <path d="M37.8736942,126.701815 L0,152.966284 C0,152.966284 18.6663207,172.696665 16.7441595,224.456887 C15.3203365,263.988828 20.5457672,308.873311 28.1347443,317.998256 L68.4574142,317.998256 C68.4574142,317.998256 54.5181861,241.12664 55.5148623,197.08205 C56.297965,163.614426 46.245774,140.382115 37.8736942,126.701815 Z" id="Path" stroke="#263238" stroke-width="0.75" fill="#FFFFFF" fill-rule="nonzero" stroke-linecap="round" stroke-linejoin="round"></path>
                        <path d="M42.4299281,126.701815 L4.55623389,152.966284 C4.55623389,152.966284 23.2225546,172.696665 21.2861552,224.456887 C19.8623321,263.988828 25.0877629,308.873311 32.6767399,317.998256 L73.0136481,317.998256 C73.0136481,317.998256 59.0886582,241.12664 60.0853344,197.08205 C60.8399606,163.614426 50.7877696,140.382115 42.4299281,126.701815 Z" id="Path" stroke="#263238" stroke-width="0.75" fill="#263238" fill-rule="nonzero" stroke-linecap="round" stroke-linejoin="round"></path>
                        <polygon id="Path" stroke="#263238" stroke-width="0.75" fill="#FFFFFF" fill-rule="nonzero" stroke-linecap="round" stroke-linejoin="round" points="37.8736942 126.701815 42.4299281 126.701815 4.55623389 152.966284 0.0142382309 152.966284"></polygon>
                    </g>
                </g>
            </g>
        </g>
    </g>
</svg>