<?xml version="1.0" encoding="UTF-8"?>
<svg width="520px" height="520px" viewBox="0 0 520 520" version="1.1" xmlns="http://www.w3.org/2000/svg" xmlns:xlink="http://www.w3.org/1999/xlink">
    <title>Group 18</title>
    <defs>
        <path d="M58.9147287,10.3248684 C49.6818763,11.5798247 11.1756796,1.9965215 1.62079203,0 L0,8.54582508 C11.002276,12.8633028 46.8897258,28.0511271 58.2918916,28.6821705 L58.9147287,10.3248684 Z" id="path-1"></path>
        <path d="M96.8992248,29.7711158 L65.3190964,5.2364901 C65.0243864,4.99346686 64.7225749,4.76473911 64.4172128,4.53601135 L64.4172128,4.53958522 C59.662795,0.73698628 52.9696825,-0.220811198 46.8517871,0.0400813987 C41.5718624,1.66261892 7.02332967,1.60186311 0.852173468,1.47320374 L0,26.4760066 L24.0170889,29.1456883 L29.1549848,80.620155 L83.7189418,80.620155 L76.2269168,41.2003559 L96.8992248,29.7711158 Z" id="path-3"></path>
        <path d="M17.1668987,0 L17.402818,0.000767234226 C22.9109586,0.0343392497 28.6458624,1.17019007 32.8586377,4.53958154 C25.6593404,18.6896283 5.26577044,14.8047782 0,1.24250209 C2.02253675,1.18043461 3.959993,1.10640478 5.7444057,1.01849175 C5.75276124,1.0178604 5.76108069,1.01745049 5.7693968,1.01704027 C6.42885431,0.984696185 7.0675753,0.950218631 7.68185851,0.913741908 C7.69596878,0.912772059 7.71003675,0.911935423 7.72409184,0.911097734 C8.48291948,0.865972975 9.20427005,0.817646694 9.88153671,0.766070023 C9.95190114,0.760652016 10.0212524,0.755301793 10.0901281,0.74991676 C10.1567688,0.744761301 10.2242111,0.73941761 10.2911842,0.734039956 C10.3407603,0.73000933 10.3895339,0.72605548 10.4380534,0.722083323 C10.6740146,0.702809834 10.9046937,0.682991291 11.1290132,0.662728922 C11.1387412,0.661817411 11.1486389,0.660921595 11.1585241,0.660024911 C11.3971657,0.638405935 11.6285836,0.616246669 11.8523717,0.593571322 C11.864225,0.592349509 11.8757517,0.591178243 11.887258,0.5900056 C12.2317041,0.554916682 12.5577884,0.518588108 12.8642392,0.48098829 C12.8847505,0.47846292 12.9049435,0.475969294 12.9250501,0.473470084 C13.1125985,0.450167074 13.2930395,0.426313141 13.4656,0.401962282 C13.4894801,0.398587874 13.5126574,0.395287486 13.5356899,0.39197799 C13.7067796,0.367401843 13.870525,0.342213841 14.0258791,0.316510057 C14.0379072,0.31451833 14.0497104,0.312554293 14.0614647,0.310587247 C14.3031379,0.270147193 14.5242688,0.22839904 14.7233471,0.185340954 L14.74055,0.181604815 L14.74055,0.181604815 L14.769917,0.175155487 C14.9673757,0.131480148 15.1422562,0.0864669088 15.293212,0.0400777152 C15.835304,0.0169606496 16.3819122,0.00341189267 16.9312877,0.000562706087 L17.1668987,0 L17.1668987,0 Z" id="path-5"></path>
        <path d="M5.95542418,0 L0.264243638,17.4742239 C-0.761450977,20.6244362 1.30774545,23.9387592 4.58783136,24.3918475 L13.6196423,25.640516 L15.4609066,37.9844961 L29.4573643,37.1532397 L20.3685704,0 L5.95542418,0 Z" id="path-7"></path>
        <path d="M0,0 L0,5.48255187 C0,5.48255187 1.79494125,10.8527132 5.78931755,10.8527132 C9.78008229,10.8527132 9.94621367,9.6550513 9.94621367,9.6550513 L10.8527132,0 L0,0 Z" id="path-9"></path>
        <path d="M0,0 C1.75418819,2.62010486 3.458863,10.8175911 8.32885724,10.8527132 C12.240414,10.8527132 12.4031008,9.6550513 12.4031008,9.6550513 L10.6241559,0 L0,0 Z" id="path-11"></path>
    </defs>
    <g id="Error" stroke="none" stroke-width="1" fill="none" fill-rule="evenodd">
        <g id="Group-18">
            <rect id="Rectangle-Copy-8" fill-opacity="0" fill="#D8D8D8" x="0" y="0" width="520" height="520"></rect>
            <g id="Group-319-Copy" transform="translate(5.000000, 63.000000)">
                <g id="Group-6" transform="translate(111.897698, 145.446631)" fill="#A4C4FF">
                    <polyline id="Fill-4" points="67.9968419 245.443166 67.9968419 0 23.1627543 0 23.1627543 169.691195 0 169.691195 0 245.553369 67.9968419 245.553369"></polyline>
                </g>
                <polygon id="Fill-7" fill="#455A64" points="29.2403101 333.635659 140.093023 333.635659 140.093023 139.062016 29.2403101 139.062016"></polygon>
                <polygon id="Fill-8" fill="#263238" points="140.093023 333.635659 187.379845 333.635659 187.379845 139.062016 140.093023 139.062016"></polygon>
                <polygon id="Fill-9" fill="#263238" points="40.8682171 172.395349 128.465116 172.395349 128.465116 153.015504 40.8682171 153.015504"></polygon>
                <path d="M112.96124,163.092337 C113.101939,154.822688 125.22725,154.826349 125.364341,163.092337 C125.22725,171.361986 113.101939,171.361986 112.96124,163.092337 Z" id="Fill-10" fill="#F85C3D"></path>
                <path d="M95.9069767,163.092337 C96.0441073,154.822688 108.172947,154.826349 108.310078,163.092337 C108.172947,171.361986 96.0441073,171.361986 95.9069767,163.092337 Z" id="Fill-11" fill="#F85C3D"></path>
                <polygon id="Fill-12" fill="#455A64" points="54.8217054 170.844961 58.6976744 170.844961 58.6976744 155.341085 54.8217054 155.341085"></polygon>
                <polygon id="Fill-13" fill="#455A64" points="48.620155 170.844961 52.496124 170.844961 52.496124 155.341085 48.620155 155.341085"></polygon>
                <polygon id="Fill-14" fill="#455A64" points="43.1937984 170.844961 47.0697674 170.844961 47.0697674 155.341085 43.1937984 155.341085"></polygon>
                <polygon id="Fill-15" fill="#455A64" points="71.875969 170.844961 75.751938 170.844961 75.751938 155.341085 71.875969 155.341085"></polygon>
                <polygon id="Fill-16" fill="#455A64" points="65.6744186 170.844961 69.5503876 170.844961 69.5503876 155.341085 65.6744186 155.341085"></polygon>
                <polygon id="Fill-17" fill="#455A64" points="60.248062 170.844961 64.124031 170.844961 64.124031 155.341085 60.248062 155.341085"></polygon>
                <polygon id="Fill-18" fill="#455A64" points="88.9302326 170.844961 92.8062016 170.844961 92.8062016 155.341085 88.9302326 155.341085"></polygon>
                <polygon id="Fill-19" fill="#455A64" points="82.7286822 170.844961 86.6046512 170.844961 86.6046512 155.341085 82.7286822 155.341085"></polygon>
                <polygon id="Fill-20" fill="#455A64" points="77.3023256 170.844961 81.1782946 170.844961 81.1782946 155.341085 77.3023256 155.341085"></polygon>
                <polygon id="Fill-21" fill="#EECD76" points="43.1937984 170.844961 47.0697674 170.844961 47.0697674 160.767442 43.1937984 160.767442"></polygon>
                <polygon id="Fill-22" fill="#EECD76" points="48.620155 170.844961 52.496124 170.844961 52.496124 163.868217 48.620155 163.868217"></polygon>
                <polygon id="Fill-23" fill="#EECD76" points="54.8217054 170.844961 58.6976744 170.844961 58.6976744 162.317829 54.8217054 162.317829"></polygon>
                <polygon id="Fill-24" fill="#EECD76" points="60.248062 170.844961 64.124031 170.844961 64.124031 163.868217 60.248062 163.868217"></polygon>
                <polygon id="Fill-25" fill="#EECD76" points="65.6744186 170.844961 69.5503876 170.844961 69.5503876 163.868217 65.6744186 163.868217"></polygon>
                <polygon id="Fill-26" fill="#EECD76" points="71.875969 170.844961 75.751938 170.844961 75.751938 159.992248 71.875969 159.992248"></polygon>
                <polygon id="Fill-27" fill="#EECD76" points="77.3023256 170.844961 81.1782946 170.844961 81.1782946 163.868217 77.3023256 163.868217"></polygon>
                <polygon id="Fill-28" fill="#EECD76" points="82.7286822 170.844961 86.6046512 170.844961 86.6046512 163.868217 82.7286822 163.868217"></polygon>
                <polygon id="Fill-29" fill="#EECD76" points="88.9302326 170.844961 92.8062016 170.844961 92.8062016 163.868217 88.9302326 163.868217"></polygon>
                <polygon id="Fill-30" fill="#263238" points="40.8682171 201.077519 128.465116 201.077519 128.465116 181.697674 40.8682171 181.697674"></polygon>
                <path d="M112.96124,192.549701 C113.101939,184.280052 125.22725,184.283713 125.364341,192.549701 C125.22725,200.81935 113.101939,200.81935 112.96124,192.549701 Z" id="Fill-31" fill="#F85C3D"></path>
                <path d="M95.9069767,192.549701 C96.0441073,184.280052 108.172947,184.283713 108.310078,192.549701 C108.172947,200.81935 96.0441073,200.81935 95.9069767,192.549701 Z" id="Fill-32" fill="#F85C3D"></path>
                <polygon id="Fill-33" fill="#455A64" points="54.8217054 199.527132 58.6976744 199.527132 58.6976744 184.023256 54.8217054 184.023256"></polygon>
                <polygon id="Fill-34" fill="#455A64" points="48.620155 199.527132 52.496124 199.527132 52.496124 184.023256 48.620155 184.023256"></polygon>
                <polygon id="Fill-35" fill="#455A64" points="43.1937984 199.527132 47.0697674 199.527132 47.0697674 184.023256 43.1937984 184.023256"></polygon>
                <polygon id="Fill-36" fill="#455A64" points="71.875969 199.527132 75.751938 199.527132 75.751938 184.023256 71.875969 184.023256"></polygon>
                <polygon id="Fill-37" fill="#455A64" points="65.6744186 199.527132 69.5503876 199.527132 69.5503876 184.023256 65.6744186 184.023256"></polygon>
                <polygon id="Fill-38" fill="#455A64" points="60.248062 199.527132 64.124031 199.527132 64.124031 184.023256 60.248062 184.023256"></polygon>
                <polygon id="Fill-39" fill="#455A64" points="88.9302326 199.527132 92.8062016 199.527132 92.8062016 184.023256 88.9302326 184.023256"></polygon>
                <polygon id="Fill-40" fill="#455A64" points="82.7286822 199.527132 86.6046512 199.527132 86.6046512 184.023256 82.7286822 184.023256"></polygon>
                <polygon id="Fill-41" fill="#455A64" points="77.3023256 199.527132 81.1782946 199.527132 81.1782946 184.023256 77.3023256 184.023256"></polygon>
                <polygon id="Fill-42" fill="#EECD76" points="43.1937984 200.302326 47.0697674 200.302326 47.0697674 197.20155 43.1937984 197.20155"></polygon>
                <polygon id="Fill-43" fill="#EECD76" points="48.620155 199.527132 52.496124 199.527132 52.496124 192.550388 48.620155 192.550388"></polygon>
                <polygon id="Fill-44" fill="#EECD76" points="54.8217054 200.302326 58.6976744 200.302326 58.6976744 191.775194 54.8217054 191.775194"></polygon>
                <polygon id="Fill-45" fill="#EECD76" points="60.248062 199.527132 64.124031 199.527132 64.124031 191 60.248062 191"></polygon>
                <polygon id="Fill-46" fill="#EECD76" points="65.6744186 199.527132 69.5503876 199.527132 69.5503876 192.550388 65.6744186 192.550388"></polygon>
                <polygon id="Fill-47" fill="#EECD76" points="71.875969 199.527132 75.751938 199.527132 75.751938 188.674419 71.875969 188.674419"></polygon>
                <polygon id="Fill-48" fill="#EECD76" points="77.3023256 199.527132 81.1782946 199.527132 81.1782946 192.550388 77.3023256 192.550388"></polygon>
                <polygon id="Fill-49" fill="#EECD76" points="82.7286822 199.527132 86.6046512 199.527132 86.6046512 195.651163 82.7286822 195.651163"></polygon>
                <polygon id="Fill-50" fill="#EECD76" points="88.9302326 199.527132 92.8062016 199.527132 92.8062016 192.550388 88.9302326 192.550388"></polygon>
                <polygon id="Fill-51" fill="#263238" points="40.8682171 230.534884 128.465116 230.534884 128.465116 211.155039 40.8682171 211.155039"></polygon>
                <path d="M112.96124,222.007752 C113.101939,213.739018 125.22725,213.739018 125.364341,222.007752 C125.22725,230.276486 113.101939,230.276486 112.96124,222.007752 Z" id="Fill-52" fill="#F85C3D"></path>
                <path d="M95.9069767,222.007752 C96.0441073,213.739018 108.172947,213.739018 108.310078,222.007752 C108.172947,230.276486 96.0441073,230.276486 95.9069767,222.007752 Z" id="Fill-53" fill="#F85C3D"></path>
                <polygon id="Fill-54" fill="#455A64" points="54.8217054 228.984496 58.6976744 228.984496 58.6976744 213.48062 54.8217054 213.48062"></polygon>
                <polygon id="Fill-55" fill="#455A64" points="48.620155 228.984496 52.496124 228.984496 52.496124 213.48062 48.620155 213.48062"></polygon>
                <polygon id="Fill-56" fill="#455A64" points="43.1937984 228.984496 47.0697674 228.984496 47.0697674 213.48062 43.1937984 213.48062"></polygon>
                <polygon id="Fill-57" fill="#455A64" points="71.875969 228.984496 75.751938 228.984496 75.751938 213.48062 71.875969 213.48062"></polygon>
                <polygon id="Fill-58" fill="#455A64" points="65.6744186 228.984496 69.5503876 228.984496 69.5503876 213.48062 65.6744186 213.48062"></polygon>
                <polygon id="Fill-59" fill="#455A64" points="60.248062 228.984496 64.124031 228.984496 64.124031 213.48062 60.248062 213.48062"></polygon>
                <polygon id="Fill-60" fill="#455A64" points="88.9302326 228.984496 92.8062016 228.984496 92.8062016 213.48062 88.9302326 213.48062"></polygon>
                <polygon id="Fill-61" fill="#455A64" points="82.7286822 228.984496 86.6046512 228.984496 86.6046512 213.48062 82.7286822 213.48062"></polygon>
                <polygon id="Fill-62" fill="#455A64" points="77.3023256 228.984496 81.1782946 228.984496 81.1782946 213.48062 77.3023256 213.48062"></polygon>
                <polygon id="Fill-63" fill="#EECD76" points="43.1937984 228.984496 47.0697674 228.984496 47.0697674 218.906977 43.1937984 218.906977"></polygon>
                <polygon id="Fill-64" fill="#EECD76" points="48.620155 228.984496 52.496124 228.984496 52.496124 222.007752 48.620155 222.007752"></polygon>
                <polygon id="Fill-65" fill="#EECD76" points="54.8217054 228.984496 58.6976744 228.984496 58.6976744 220.457364 54.8217054 220.457364"></polygon>
                <polygon id="Fill-66" fill="#455A64" points="60.248062 228.984496 64.124031 228.984496 64.124031 215.806202 60.248062 215.806202"></polygon>
                <polygon id="Fill-67" fill="#EECD76" points="65.6744186 228.984496 69.5503876 228.984496 69.5503876 222.007752 65.6744186 222.007752"></polygon>
                <polygon id="Fill-68" fill="#EECD76" points="71.875969 228.984496 75.751938 228.984496 75.751938 219.682171 71.875969 219.682171"></polygon>
                <polygon id="Fill-69" fill="#EECD76" points="77.3023256 228.984496 81.1782946 228.984496 81.1782946 222.007752 77.3023256 222.007752"></polygon>
                <polygon id="Fill-70" fill="#EECD76" points="82.7286822 228.984496 86.6046512 228.984496 86.6046512 222.007752 82.7286822 222.007752"></polygon>
                <polygon id="Fill-71" fill="#EECD76" points="88.9302326 228.984496 92.8062016 228.984496 92.8062016 222.007752 88.9302326 222.007752"></polygon>
                <polygon id="Fill-72" fill="#263238" points="40.8682171 259.992248 128.465116 259.992248 128.465116 240.612403 40.8682171 240.612403"></polygon>
                <path d="M112.96124,250.689922 C113.101939,242.421189 125.22725,242.421189 125.364341,250.689922 C125.22725,258.958656 113.101939,258.958656 112.96124,250.689922 Z" id="Fill-73" fill="#F85C3D"></path>
                <path d="M95.9069767,250.689922 C96.0441073,242.421189 108.172947,242.421189 108.310078,250.689922 C108.172947,258.958656 96.0441073,258.958656 95.9069767,250.689922 Z" id="Fill-74" fill="#F85C3D"></path>
                <polygon id="Fill-75" fill="#455A64" points="54.8217054 258.44186 58.6976744 258.44186 58.6976744 242.937984 54.8217054 242.937984"></polygon>
                <polygon id="Fill-76" fill="#455A64" points="48.620155 258.44186 52.496124 258.44186 52.496124 242.937984 48.620155 242.937984"></polygon>
                <polygon id="Fill-77" fill="#455A64" points="43.1937984 258.44186 47.0697674 258.44186 47.0697674 242.937984 43.1937984 242.937984"></polygon>
                <polygon id="Fill-78" fill="#455A64" points="71.875969 258.44186 75.751938 258.44186 75.751938 242.937984 71.875969 242.937984"></polygon>
                <polygon id="Fill-79" fill="#455A64" points="65.6744186 258.44186 69.5503876 258.44186 69.5503876 242.937984 65.6744186 242.937984"></polygon>
                <polygon id="Fill-80" fill="#455A64" points="60.248062 258.44186 64.124031 258.44186 64.124031 242.937984 60.248062 242.937984"></polygon>
                <polygon id="Fill-81" fill="#455A64" points="88.9302326 258.44186 92.8062016 258.44186 92.8062016 242.937984 88.9302326 242.937984"></polygon>
                <polygon id="Fill-82" fill="#455A64" points="82.7286822 258.44186 86.6046512 258.44186 86.6046512 242.937984 82.7286822 242.937984"></polygon>
                <polygon id="Fill-83" fill="#455A64" points="77.3023256 258.44186 81.1782946 258.44186 81.1782946 242.937984 77.3023256 242.937984"></polygon>
                <polygon id="Fill-84" fill="#EECD76" points="43.1937984 258.44186 47.0697674 258.44186 47.0697674 248.364341 43.1937984 248.364341"></polygon>
                <polygon id="Fill-85" fill="#EECD76" points="48.620155 257.666667 52.496124 257.666667 52.496124 254.565891 48.620155 254.565891"></polygon>
                <polygon id="Fill-86" fill="#EECD76" points="54.8217054 258.44186 58.6976744 258.44186 58.6976744 254.565891 54.8217054 254.565891"></polygon>
                <polygon id="Fill-87" fill="#EECD76" points="60.248062 258.44186 64.124031 258.44186 64.124031 251.465116 60.248062 251.465116"></polygon>
                <polygon id="Fill-88" fill="#EECD76" points="65.6744186 258.44186 69.5503876 258.44186 69.5503876 251.465116 65.6744186 251.465116"></polygon>
                <polygon id="Fill-89" fill="#EECD76" points="71.875969 257.666667 75.751938 257.666667 75.751938 246.813953 71.875969 246.813953"></polygon>
                <polygon id="Fill-90" fill="#EECD76" points="77.3023256 257.666667 81.1782946 257.666667 81.1782946 253.790698 77.3023256 253.790698"></polygon>
                <polygon id="Fill-91" fill="#EECD76" points="82.7286822 258.44186 86.6046512 258.44186 86.6046512 251.465116 82.7286822 251.465116"></polygon>
                <polygon id="Fill-92" fill="#EECD76" points="88.9302326 258.44186 92.8062016 258.44186 92.8062016 251.465116 88.9302326 251.465116"></polygon>
                <polygon id="Fill-93" fill="#263238" points="40.8682171 288.674419 128.465116 288.674419 128.465116 269.294574 40.8682171 269.294574"></polygon>
                <path d="M112.96124,280.147287 C113.101939,271.878553 125.22725,271.878553 125.364341,280.147287 C125.22725,288.416021 113.101939,288.416021 112.96124,280.147287 Z" id="Fill-94" fill="#F85C3D"></path>
                <path d="M95.9069767,280.147287 C96.0441073,271.878553 108.172947,271.878553 108.310078,280.147287 C108.172947,288.416021 96.0441073,288.416021 95.9069767,280.147287 Z" id="Fill-95" fill="#455A64"></path>
                <polygon id="Fill-96" fill="#455A64" points="54.8217054 287.124031 58.6976744 287.124031 58.6976744 271.620155 54.8217054 271.620155"></polygon>
                <polygon id="Fill-97" fill="#455A64" points="48.620155 287.124031 52.496124 287.124031 52.496124 271.620155 48.620155 271.620155"></polygon>
                <polygon id="Fill-98" fill="#455A64" points="43.1937984 287.124031 47.0697674 287.124031 47.0697674 271.620155 43.1937984 271.620155"></polygon>
                <polygon id="Fill-99" fill="#455A64" points="71.875969 287.124031 75.751938 287.124031 75.751938 271.620155 71.875969 271.620155"></polygon>
                <polygon id="Fill-100" fill="#455A64" points="65.6744186 287.124031 69.5503876 287.124031 69.5503876 271.620155 65.6744186 271.620155"></polygon>
                <polygon id="Fill-101" fill="#455A64" points="60.248062 287.124031 64.124031 287.124031 64.124031 271.620155 60.248062 271.620155"></polygon>
                <polygon id="Fill-102" fill="#455A64" points="88.9302326 287.124031 92.8062016 287.124031 92.8062016 271.620155 88.9302326 271.620155"></polygon>
                <polygon id="Fill-103" fill="#455A64" points="82.7286822 287.124031 86.6046512 287.124031 86.6046512 271.620155 82.7286822 271.620155"></polygon>
                <polygon id="Fill-104" fill="#455A64" points="77.3023256 287.124031 81.1782946 287.124031 81.1782946 271.620155 77.3023256 271.620155"></polygon>
                <polygon id="Fill-105" fill="#EECD76" points="43.1937984 287.124031 47.0697674 287.124031 47.0697674 277.046512 43.1937984 277.046512"></polygon>
                <polygon id="Fill-106" fill="#EECD76" points="48.620155 287.124031 52.496124 287.124031 52.496124 280.147287 48.620155 280.147287"></polygon>
                <polygon id="Fill-107" fill="#EECD76" points="54.8217054 287.124031 58.6976744 287.124031 58.6976744 278.596899 54.8217054 278.596899"></polygon>
                <polygon id="Fill-108" fill="#EECD76" points="60.248062 287.124031 64.124031 287.124031 64.124031 280.147287 60.248062 280.147287"></polygon>
                <polygon id="Fill-109" fill="#EECD76" points="65.6744186 287.124031 69.5503876 287.124031 69.5503876 280.147287 65.6744186 280.147287"></polygon>
                <polygon id="Fill-110" fill="#EECD76" points="71.875969 287.124031 75.751938 287.124031 75.751938 276.271318 71.875969 276.271318"></polygon>
                <polygon id="Fill-111" fill="#EECD76" points="77.3023256 287.124031 81.1782946 287.124031 81.1782946 280.147287 77.3023256 280.147287"></polygon>
                <polygon id="Fill-112" fill="#EECD76" points="82.7286822 287.124031 86.6046512 287.124031 86.6046512 280.147287 82.7286822 280.147287"></polygon>
                <polygon id="Fill-113" fill="#EECD76" points="88.9302326 287.124031 92.8062016 287.124031 92.8062016 280.147287 88.9302326 280.147287"></polygon>
                <polygon id="Fill-114" fill="#263238" points="40.8682171 300.302326 64.8992248 300.302326 64.8992248 296.426357 40.8682171 296.426357"></polygon>
                <polygon id="Fill-115" fill="#263238" points="40.8682171 308.054264 64.8992248 308.054264 64.8992248 304.178295 40.8682171 304.178295"></polygon>
                <polygon id="Fill-116" fill="#263238" points="40.8682171 315.031008 64.8992248 315.031008 64.8992248 311.155039 40.8682171 311.155039"></polygon>
                <polygon id="Fill-117" fill="#263238" points="72.6511628 300.302326 96.6821705 300.302326 96.6821705 296.426357 72.6511628 296.426357"></polygon>
                <polygon id="Fill-118" fill="#263238" points="72.6511628 308.054264 96.6821705 308.054264 96.6821705 304.178295 72.6511628 304.178295"></polygon>
                <polygon id="Fill-119" fill="#263238" points="72.6511628 315.031008 96.6821705 315.031008 96.6821705 311.155039 72.6511628 311.155039"></polygon>
                <polygon id="Fill-120" fill="#263238" points="104.434109 300.302326 128.465116 300.302326 128.465116 296.426357 104.434109 296.426357"></polygon>
                <polygon id="Fill-121" fill="#263238" points="104.434109 308.054264 128.465116 308.054264 128.465116 304.178295 104.434109 304.178295"></polygon>
                <polygon id="Fill-122" fill="#263238" points="104.434109 315.031008 128.465116 315.031008 128.465116 311.155039 104.434109 311.155039"></polygon>
                <polygon id="Fill-123" fill="#455A64" points="151.72093 156.891473 175.751938 156.891473 175.751938 153.015504 151.72093 153.015504"></polygon>
                <polygon id="Fill-124" fill="#455A64" points="151.72093 163.868217 175.751938 163.868217 175.751938 159.992248 151.72093 159.992248"></polygon>
                <polygon id="Fill-125" fill="#455A64" points="151.72093 171.620155 175.751938 171.620155 175.751938 167.744186 151.72093 167.744186"></polygon>
                <polygon id="Fill-126" fill="#455A64" points="151.72093 186.348837 175.751938 186.348837 175.751938 182.472868 151.72093 182.472868"></polygon>
                <polygon id="Fill-127" fill="#455A64" points="151.72093 193.325581 175.751938 193.325581 175.751938 189.449612 151.72093 189.449612"></polygon>
                <polygon id="Fill-128" fill="#455A64" points="151.72093 200.302326 175.751938 200.302326 175.751938 196.426357 151.72093 196.426357"></polygon>
                <polygon id="Fill-129" fill="#455A64" points="151.72093 215.806202 175.751938 215.806202 175.751938 211.930233 151.72093 211.930233"></polygon>
                <polygon id="Fill-130" fill="#455A64" points="151.72093 222.782946 175.751938 222.782946 175.751938 218.906977 151.72093 218.906977"></polygon>
                <polygon id="Fill-131" fill="#455A64" points="151.72093 229.75969 175.751938 229.75969 175.751938 225.883721 151.72093 225.883721"></polygon>
                <polygon id="Fill-132" fill="#455A64" points="151.72093 244.488372 175.751938 244.488372 175.751938 240.612403 151.72093 240.612403"></polygon>
                <polygon id="Fill-133" fill="#455A64" points="151.72093 252.24031 175.751938 252.24031 175.751938 248.364341 151.72093 248.364341"></polygon>
                <polygon id="Fill-134" fill="#455A64" points="151.72093 259.217054 175.751938 259.217054 175.751938 255.341085 151.72093 255.341085"></polygon>
                <polygon id="Fill-135" fill="#455A64" points="151.72093 273.170543 175.751938 273.170543 175.751938 269.294574 151.72093 269.294574"></polygon>
                <polygon id="Fill-136" fill="#455A64" points="151.72093 280.922481 175.751938 280.922481 175.751938 277.046512 151.72093 277.046512"></polygon>
                <polygon id="Fill-137" fill="#455A64" points="151.72093 287.899225 175.751938 287.899225 175.751938 284.023256 151.72093 284.023256"></polygon>
                <polygon id="Fill-138" fill="#455A64" points="198.232558 333.635659 309.085271 333.635659 309.085271 139.062016 198.232558 139.062016"></polygon>
                <polygon id="Fill-139" fill="#263238" points="309.085271 333.635659 356.372093 333.635659 356.372093 139.062016 309.085271 139.062016"></polygon>
                <polygon id="Fill-140" fill="#263238" points="209.860465 172.395349 297.457364 172.395349 297.457364 153.015504 209.860465 153.015504"></polygon>
                <path d="M281.953488,163.092337 C282.094187,154.822688 294.219498,154.826349 294.356589,163.092337 C294.215891,171.361986 282.090579,171.361986 281.953488,163.092337 Z" id="Fill-141" fill="#F85C3D"></path>
                <path d="M264.899225,163.092337 C265.039923,154.822688 277.165235,154.826349 277.302326,163.092337 C277.165235,171.361986 265.039923,171.361986 264.899225,163.092337 Z" id="Fill-142" fill="#F85C3D"></path>
                <polygon id="Fill-143" fill="#504F79" points="223.03876 170.844961 226.914729 170.844961 226.914729 155.341085 223.03876 155.341085"></polygon>
                <polygon id="Fill-144" fill="#504F79" points="217.612403 170.844961 221.488372 170.844961 221.488372 155.341085 217.612403 155.341085"></polygon>
                <polygon id="Fill-145" fill="#504F79" points="212.186047 170.844961 216.062016 170.844961 216.062016 155.341085 212.186047 155.341085"></polygon>
                <polygon id="Fill-146" fill="#504F79" points="240.093023 170.844961 243.968992 170.844961 243.968992 155.341085 240.093023 155.341085"></polygon>
                <polygon id="Fill-147" fill="#504F79" points="234.666667 170.844961 238.542636 170.844961 238.542636 155.341085 234.666667 155.341085"></polygon>
                <polygon id="Fill-148" fill="#504F79" points="229.24031 170.844961 233.116279 170.844961 233.116279 155.341085 229.24031 155.341085"></polygon>
                <polygon id="Fill-149" fill="#504F79" points="257.922481 170.844961 261.79845 170.844961 261.79845 155.341085 257.922481 155.341085"></polygon>
                <polygon id="Fill-150" fill="#504F79" points="251.72093 170.844961 255.596899 170.844961 255.596899 155.341085 251.72093 155.341085"></polygon>
                <polygon id="Fill-151" fill="#504F79" points="246.294574 170.844961 250.170543 170.844961 250.170543 155.341085 246.294574 155.341085"></polygon>
                <polygon id="Fill-152" fill="#EECD76" points="212.186047 170.844961 216.062016 170.844961 216.062016 160.767442 212.186047 160.767442"></polygon>
                <polygon id="Fill-153" fill="#EECD76" points="217.612403 170.844961 221.488372 170.844961 221.488372 163.868217 217.612403 163.868217"></polygon>
                <polygon id="Fill-154" fill="#EECD76" points="223.03876 170.844961 226.914729 170.844961 226.914729 162.317829 223.03876 162.317829"></polygon>
                <polygon id="Fill-155" fill="#EECD76" points="229.24031 170.844961 233.116279 170.844961 233.116279 163.868217 229.24031 163.868217"></polygon>
                <polygon id="Fill-156" fill="#EECD76" points="234.666667 170.844961 238.542636 170.844961 238.542636 163.868217 234.666667 163.868217"></polygon>
                <polygon id="Fill-157" fill="#EECD76" points="240.093023 170.844961 243.968992 170.844961 243.968992 159.992248 240.093023 159.992248"></polygon>
                <polygon id="Fill-158" fill="#EECD76" points="246.294574 170.844961 250.170543 170.844961 250.170543 163.868217 246.294574 163.868217"></polygon>
                <polygon id="Fill-159" fill="#EECD76" points="251.72093 170.844961 255.596899 170.844961 255.596899 163.868217 251.72093 163.868217"></polygon>
                <polygon id="Fill-160" fill="#EECD76" points="257.922481 170.844961 261.79845 170.844961 261.79845 163.868217 257.922481 163.868217"></polygon>
                <polygon id="Fill-161" fill="#263238" points="209.860465 201.077519 297.457364 201.077519 297.457364 181.697674 209.860465 181.697674"></polygon>
                <path d="M281.953488,192.549701 C282.094187,184.280052 294.219498,184.283713 294.356589,192.549701 C294.215891,200.81935 282.090579,200.81935 281.953488,192.549701 Z" id="Fill-162" fill="#F85C3D"></path>
                <path d="M264.899225,192.549701 C265.039923,184.280052 277.165235,184.283713 277.302326,192.549701 C277.165235,200.81935 265.039923,200.81935 264.899225,192.549701 Z" id="Fill-163" fill="#F85C3D"></path>
                <polygon id="Fill-164" fill="#455A64" points="223.03876 199.527132 226.914729 199.527132 226.914729 184.023256 223.03876 184.023256"></polygon>
                <polygon id="Fill-165" fill="#455A64" points="217.612403 199.527132 221.488372 199.527132 221.488372 184.023256 217.612403 184.023256"></polygon>
                <polygon id="Fill-166" fill="#455A64" points="212.186047 199.527132 216.062016 199.527132 216.062016 184.023256 212.186047 184.023256"></polygon>
                <polygon id="Fill-167" fill="#455A64" points="240.093023 199.527132 243.968992 199.527132 243.968992 184.023256 240.093023 184.023256"></polygon>
                <polygon id="Fill-168" fill="#455A64" points="234.666667 199.527132 238.542636 199.527132 238.542636 184.023256 234.666667 184.023256"></polygon>
                <polygon id="Fill-169" fill="#455A64" points="229.24031 199.527132 233.116279 199.527132 233.116279 184.023256 229.24031 184.023256"></polygon>
                <polygon id="Fill-170" fill="#455A64" points="257.922481 199.527132 261.79845 199.527132 261.79845 184.023256 257.922481 184.023256"></polygon>
                <polygon id="Fill-171" fill="#455A64" points="251.72093 199.527132 255.596899 199.527132 255.596899 184.023256 251.72093 184.023256"></polygon>
                <polygon id="Fill-172" fill="#455A64" points="246.294574 199.527132 250.170543 199.527132 250.170543 184.023256 246.294574 184.023256"></polygon>
                <polygon id="Fill-173" fill="#EECD76" points="212.186047 200.302326 216.062016 200.302326 216.062016 197.20155 212.186047 197.20155"></polygon>
                <polygon id="Fill-174" fill="#EECD76" points="217.612403 199.527132 221.488372 199.527132 221.488372 192.550388 217.612403 192.550388"></polygon>
                <polygon id="Fill-175" fill="#EECD76" points="223.03876 200.302326 226.914729 200.302326 226.914729 191.775194 223.03876 191.775194"></polygon>
                <polygon id="Fill-176" fill="#EECD76" points="229.24031 199.527132 233.116279 199.527132 233.116279 191 229.24031 191"></polygon>
                <polygon id="Fill-177" fill="#EECD76" points="234.666667 199.527132 238.542636 199.527132 238.542636 192.550388 234.666667 192.550388"></polygon>
                <polygon id="Fill-178" fill="#EECD76" points="240.093023 199.527132 243.968992 199.527132 243.968992 188.674419 240.093023 188.674419"></polygon>
                <polygon id="Fill-179" fill="#EECD76" points="246.294574 199.527132 250.170543 199.527132 250.170543 192.550388 246.294574 192.550388"></polygon>
                <polygon id="Fill-180" fill="#EECD76" points="251.72093 199.527132 255.596899 199.527132 255.596899 195.651163 251.72093 195.651163"></polygon>
                <polygon id="Fill-181" fill="#EECD76" points="257.922481 199.527132 261.79845 199.527132 261.79845 192.550388 257.922481 192.550388"></polygon>
                <polygon id="Fill-182" fill="#263238" points="209.860465 230.534884 297.457364 230.534884 297.457364 211.155039 209.860465 211.155039"></polygon>
                <path d="M281.953488,222.007752 C282.094187,213.739018 294.219498,213.739018 294.356589,222.007752 C294.215891,230.276486 282.090579,230.276486 281.953488,222.007752 Z" id="Fill-183" fill="#F85C3D"></path>
                <path d="M264.899225,222.007752 C265.039923,213.739018 277.165235,213.739018 277.302326,222.007752 C277.165235,230.276486 265.039923,230.276486 264.899225,222.007752 Z" id="Fill-184" fill="#F85C3D"></path>
                <polygon id="Fill-185" fill="#455A64" points="223.03876 228.984496 226.914729 228.984496 226.914729 213.48062 223.03876 213.48062"></polygon>
                <polygon id="Fill-186" fill="#455A64" points="217.612403 228.984496 221.488372 228.984496 221.488372 213.48062 217.612403 213.48062"></polygon>
                <polygon id="Fill-187" fill="#455A64" points="212.186047 228.984496 216.062016 228.984496 216.062016 213.48062 212.186047 213.48062"></polygon>
                <polygon id="Fill-188" fill="#455A64" points="240.093023 228.984496 243.968992 228.984496 243.968992 213.48062 240.093023 213.48062"></polygon>
                <polygon id="Fill-189" fill="#455A64" points="234.666667 228.984496 238.542636 228.984496 238.542636 213.48062 234.666667 213.48062"></polygon>
                <polygon id="Fill-190" fill="#455A64" points="229.24031 228.984496 233.116279 228.984496 233.116279 213.48062 229.24031 213.48062"></polygon>
                <polygon id="Fill-191" fill="#455A64" points="257.922481 228.984496 261.79845 228.984496 261.79845 213.48062 257.922481 213.48062"></polygon>
                <polygon id="Fill-192" fill="#455A64" points="251.72093 228.984496 255.596899 228.984496 255.596899 213.48062 251.72093 213.48062"></polygon>
                <polygon id="Fill-193" fill="#455A64" points="246.294574 228.984496 250.170543 228.984496 250.170543 213.48062 246.294574 213.48062"></polygon>
                <polygon id="Fill-194" fill="#EECD76" points="212.186047 228.984496 216.062016 228.984496 216.062016 218.906977 212.186047 218.906977"></polygon>
                <polygon id="Fill-195" fill="#EECD76" points="217.612403 228.984496 221.488372 228.984496 221.488372 222.007752 217.612403 222.007752"></polygon>
                <polygon id="Fill-196" fill="#EECD76" points="223.03876 228.984496 226.914729 228.984496 226.914729 220.457364 223.03876 220.457364"></polygon>
                <polygon id="Fill-197" fill="#455A64" points="229.24031 228.984496 233.116279 228.984496 233.116279 215.806202 229.24031 215.806202"></polygon>
                <polygon id="Fill-198" fill="#EECD76" points="234.666667 228.984496 238.542636 228.984496 238.542636 222.007752 234.666667 222.007752"></polygon>
                <polygon id="Fill-199" fill="#EECD76" points="240.093023 228.984496 243.968992 228.984496 243.968992 219.682171 240.093023 219.682171"></polygon>
                <polygon id="Fill-200" fill="#EECD76" points="246.294574 228.984496 250.170543 228.984496 250.170543 222.007752 246.294574 222.007752"></polygon>
                <polygon id="Fill-201" fill="#EECD76" points="251.72093 228.984496 255.596899 228.984496 255.596899 222.007752 251.72093 222.007752"></polygon>
                <polygon id="Fill-202" fill="#EECD76" points="257.922481 228.984496 261.79845 228.984496 261.79845 222.007752 257.922481 222.007752"></polygon>
                <polygon id="Fill-203" fill="#263238" points="209.860465 259.992248 297.457364 259.992248 297.457364 240.612403 209.860465 240.612403"></polygon>
                <path d="M281.953488,250.689922 C282.094187,242.421189 294.219498,242.421189 294.356589,250.689922 C294.215891,258.958656 282.090579,258.958656 281.953488,250.689922 Z" id="Fill-204" fill="#F85C3D"></path>
                <path d="M264.899225,250.689922 C265.039923,242.421189 277.165235,242.421189 277.302326,250.689922 C277.165235,258.958656 265.039923,258.958656 264.899225,250.689922 Z" id="Fill-205" fill="#F85C3D"></path>
                <polygon id="Fill-206" fill="#455A64" points="223.03876 258.44186 226.914729 258.44186 226.914729 242.937984 223.03876 242.937984"></polygon>
                <polygon id="Fill-207" fill="#455A64" points="217.612403 258.44186 221.488372 258.44186 221.488372 242.937984 217.612403 242.937984"></polygon>
                <polygon id="Fill-208" fill="#455A64" points="212.186047 258.44186 216.062016 258.44186 216.062016 242.937984 212.186047 242.937984"></polygon>
                <polygon id="Fill-209" fill="#455A64" points="240.093023 258.44186 243.968992 258.44186 243.968992 242.937984 240.093023 242.937984"></polygon>
                <polygon id="Fill-210" fill="#455A64" points="234.666667 258.44186 238.542636 258.44186 238.542636 242.937984 234.666667 242.937984"></polygon>
                <polygon id="Fill-211" fill="#455A64" points="229.24031 258.44186 233.116279 258.44186 233.116279 242.937984 229.24031 242.937984"></polygon>
                <polygon id="Fill-212" fill="#455A64" points="257.922481 258.44186 261.79845 258.44186 261.79845 242.937984 257.922481 242.937984"></polygon>
                <polygon id="Fill-213" fill="#455A64" points="251.72093 258.44186 255.596899 258.44186 255.596899 242.937984 251.72093 242.937984"></polygon>
                <polygon id="Fill-214" fill="#455A64" points="246.294574 258.44186 250.170543 258.44186 250.170543 242.937984 246.294574 242.937984"></polygon>
                <polygon id="Fill-215" fill="#EECD76" points="212.186047 258.44186 216.062016 258.44186 216.062016 248.364341 212.186047 248.364341"></polygon>
                <polygon id="Fill-216" fill="#EECD76" points="217.612403 257.666667 221.488372 257.666667 221.488372 254.565891 217.612403 254.565891"></polygon>
                <polygon id="Fill-217" fill="#EECD76" points="223.03876 258.44186 226.914729 258.44186 226.914729 254.565891 223.03876 254.565891"></polygon>
                <polygon id="Fill-218" fill="#EECD76" points="229.24031 258.44186 233.116279 258.44186 233.116279 251.465116 229.24031 251.465116"></polygon>
                <polygon id="Fill-219" fill="#EECD76" points="234.666667 258.44186 238.542636 258.44186 238.542636 251.465116 234.666667 251.465116"></polygon>
                <polygon id="Fill-220" fill="#EECD76" points="240.093023 257.666667 243.968992 257.666667 243.968992 246.813953 240.093023 246.813953"></polygon>
                <polygon id="Fill-221" fill="#EECD76" points="246.294574 257.666667 250.170543 257.666667 250.170543 253.790698 246.294574 253.790698"></polygon>
                <polygon id="Fill-222" fill="#EECD76" points="251.72093 258.44186 255.596899 258.44186 255.596899 251.465116 251.72093 251.465116"></polygon>
                <polygon id="Fill-223" fill="#EECD76" points="257.922481 258.44186 261.79845 258.44186 261.79845 251.465116 257.922481 251.465116"></polygon>
                <polygon id="Fill-224" fill="#263238" points="209.860465 288.674419 297.457364 288.674419 297.457364 269.294574 209.860465 269.294574"></polygon>
                <path d="M281.953488,280.147287 C282.094187,271.878553 294.219498,271.878553 294.356589,280.147287 C294.215891,288.416021 282.090579,288.416021 281.953488,280.147287 Z" id="Fill-225" fill="#F85C3D"></path>
                <path d="M264.899225,280.147287 C265.039923,271.878553 277.165235,271.878553 277.302326,280.147287 C277.165235,288.416021 265.039923,288.416021 264.899225,280.147287 Z" id="Fill-226" fill="#455A64"></path>
                <polygon id="Fill-227" fill="#455A64" points="223.03876 287.124031 226.914729 287.124031 226.914729 271.620155 223.03876 271.620155"></polygon>
                <polygon id="Fill-228" fill="#455A64" points="217.612403 287.124031 221.488372 287.124031 221.488372 271.620155 217.612403 271.620155"></polygon>
                <polygon id="Fill-229" fill="#455A64" points="212.186047 287.124031 216.062016 287.124031 216.062016 271.620155 212.186047 271.620155"></polygon>
                <polygon id="Fill-230" fill="#455A64" points="240.093023 287.124031 243.968992 287.124031 243.968992 271.620155 240.093023 271.620155"></polygon>
                <polygon id="Fill-231" fill="#455A64" points="234.666667 287.124031 238.542636 287.124031 238.542636 271.620155 234.666667 271.620155"></polygon>
                <polygon id="Fill-232" fill="#455A64" points="229.24031 287.124031 233.116279 287.124031 233.116279 271.620155 229.24031 271.620155"></polygon>
                <polygon id="Fill-233" fill="#455A64" points="257.922481 287.124031 261.79845 287.124031 261.79845 271.620155 257.922481 271.620155"></polygon>
                <polygon id="Fill-234" fill="#455A64" points="251.72093 287.124031 255.596899 287.124031 255.596899 271.620155 251.72093 271.620155"></polygon>
                <polygon id="Fill-235" fill="#455A64" points="246.294574 287.124031 250.170543 287.124031 250.170543 271.620155 246.294574 271.620155"></polygon>
                <polygon id="Fill-236" fill="#EECD76" points="212.186047 287.124031 216.062016 287.124031 216.062016 277.046512 212.186047 277.046512"></polygon>
                <polygon id="Fill-237" fill="#EECD76" points="217.612403 287.124031 221.488372 287.124031 221.488372 280.147287 217.612403 280.147287"></polygon>
                <polygon id="Fill-238" fill="#EECD76" points="223.03876 287.124031 226.914729 287.124031 226.914729 278.596899 223.03876 278.596899"></polygon>
                <polygon id="Fill-239" fill="#EECD76" points="229.24031 287.124031 233.116279 287.124031 233.116279 280.147287 229.24031 280.147287"></polygon>
                <polygon id="Fill-240" fill="#EECD76" points="234.666667 287.124031 238.542636 287.124031 238.542636 280.147287 234.666667 280.147287"></polygon>
                <polygon id="Fill-241" fill="#EECD76" points="240.093023 287.124031 243.968992 287.124031 243.968992 276.271318 240.093023 276.271318"></polygon>
                <polygon id="Fill-242" fill="#EECD76" points="246.294574 287.124031 250.170543 287.124031 250.170543 280.147287 246.294574 280.147287"></polygon>
                <polygon id="Fill-243" fill="#EECD76" points="251.72093 287.124031 255.596899 287.124031 255.596899 280.147287 251.72093 280.147287"></polygon>
                <polygon id="Fill-244" fill="#EECD76" points="257.922481 287.124031 261.79845 287.124031 261.79845 280.147287 257.922481 280.147287"></polygon>
                <polygon id="Fill-245" fill="#263238" points="209.860465 300.302326 233.891473 300.302326 233.891473 296.426357 209.860465 296.426357"></polygon>
                <polygon id="Fill-246" fill="#263238" points="209.860465 308.054264 233.891473 308.054264 233.891473 304.178295 209.860465 304.178295"></polygon>
                <polygon id="Fill-247" fill="#263238" points="209.860465 315.031008 233.891473 315.031008 233.891473 311.155039 209.860465 311.155039"></polygon>
                <polygon id="Fill-248" fill="#263238" points="241.643411 300.302326 265.674419 300.302326 265.674419 296.426357 241.643411 296.426357"></polygon>
                <polygon id="Fill-249" fill="#263238" points="241.643411 308.054264 265.674419 308.054264 265.674419 304.178295 241.643411 304.178295"></polygon>
                <polygon id="Fill-250" fill="#263238" points="241.643411 315.031008 265.674419 315.031008 265.674419 311.155039 241.643411 311.155039"></polygon>
                <polygon id="Fill-251" fill="#263238" points="273.426357 300.302326 297.457364 300.302326 297.457364 296.426357 273.426357 296.426357"></polygon>
                <polygon id="Fill-252" fill="#263238" points="273.426357 308.054264 297.457364 308.054264 297.457364 304.178295 273.426357 304.178295"></polygon>
                <polygon id="Fill-253" fill="#263238" points="273.426357 315.031008 297.457364 315.031008 297.457364 311.155039 273.426357 311.155039"></polygon>
                <polygon id="Fill-254" fill="#455A64" points="320.713178 156.891473 344.744186 156.891473 344.744186 153.015504 320.713178 153.015504"></polygon>
                <polygon id="Fill-255" fill="#455A64" points="320.713178 163.868217 344.744186 163.868217 344.744186 159.992248 320.713178 159.992248"></polygon>
                <polygon id="Fill-256" fill="#455A64" points="320.713178 171.620155 344.744186 171.620155 344.744186 167.744186 320.713178 167.744186"></polygon>
                <polygon id="Fill-257" fill="#455A64" points="320.713178 186.348837 344.744186 186.348837 344.744186 182.472868 320.713178 182.472868"></polygon>
                <polygon id="Fill-258" fill="#455A64" points="320.713178 193.325581 344.744186 193.325581 344.744186 189.449612 320.713178 189.449612"></polygon>
                <polygon id="Fill-259" fill="#455A64" points="320.713178 200.302326 344.744186 200.302326 344.744186 196.426357 320.713178 196.426357"></polygon>
                <polygon id="Fill-260" fill="#455A64" points="320.713178 215.806202 344.744186 215.806202 344.744186 211.930233 320.713178 211.930233"></polygon>
                <polygon id="Fill-261" fill="#455A64" points="320.713178 222.782946 344.744186 222.782946 344.744186 218.906977 320.713178 218.906977"></polygon>
                <polygon id="Fill-262" fill="#455A64" points="320.713178 229.75969 344.744186 229.75969 344.744186 225.883721 320.713178 225.883721"></polygon>
                <polygon id="Fill-263" fill="#455A64" points="320.713178 244.488372 344.744186 244.488372 344.744186 240.612403 320.713178 240.612403"></polygon>
                <polygon id="Fill-264" fill="#455A64" points="320.713178 252.24031 344.744186 252.24031 344.744186 248.364341 320.713178 248.364341"></polygon>
                <polygon id="Fill-265" fill="#455A64" points="320.713178 259.217054 344.744186 259.217054 344.744186 255.341085 320.713178 255.341085"></polygon>
                <polygon id="Fill-266" fill="#455A64" points="320.713178 273.170543 344.744186 273.170543 344.744186 269.294574 320.713178 269.294574"></polygon>
                <polygon id="Fill-267" fill="#455A64" points="320.713178 280.922481 344.744186 280.922481 344.744186 277.046512 320.713178 277.046512"></polygon>
                <polygon id="Fill-268" fill="#455A64" points="320.713178 287.899225 344.744186 287.899225 344.744186 284.023256 320.713178 284.023256"></polygon>
                <polygon id="Fill-269" fill="#455A64" points="5.20930233 391 385.054264 391 385.054264 332.860465 5.20930233 332.860465"></polygon>
                <polygon id="Fill-270" fill="#263238" points="285.054264 391 385.054264 391 385.054264 332.860465 285.054264 332.860465"></polygon>
                <polygon id="Fill-271" fill="#38385D" points="29.2403101 333.635659 285.054264 333.635659 285.054264 332.860465 29.2403101 332.860465"></polygon>
                <path d="M433.006074,242.162791 C431.923306,248.921422 416.377595,309.617417 417.691117,314.923957 L419.480347,372.395349 L436.669735,372.395349 L444.955575,316.881433 C444.341414,315.073437 468.769374,245.397965 469.550388,242.162791 L433.006074,242.162791 Z" id="Fill-272" fill="#263238"></path>
                <polygon id="Fill-273" fill="#263238" points="485.453677 242.162791 495.131783 372.395349 477.833375 372.395349 444.744186 242.162791"></polygon>
                <path d="M455.596899,285.030034 L449.612298,261.542636 C449.612298,261.542636 442.505808,294.407253 449.094228,304.178295 L455.596899,285.030034 Z" id="Fill-274" fill="#151515"></path>
                <path d="M403.658915,165.665954 C394.426062,166.92091 355.919866,157.337607 346.364978,155.341085 L344.744186,163.88691 C355.746462,168.204388 391.633912,183.392212 403.036078,184.023256 L403.658915,165.665954 Z" id="Fill-275" fill="#FFB6A6"></path>
                <g id="Group-278" transform="translate(344.744186, 155.341085)">
                    <mask id="mask-2" fill="white">
                        <use xlink:href="#path-1"></use>
                    </mask>
                    <g id="Clip-277"></g>
                    <polygon id="Fill-276" fill="#FF8370" opacity="0.266289121" mask="url(#mask-2)" points="59.1190394 8.72052071 53.8390793 30.9175616 66.2498165 31.0815616 67.4388692 8.72765115"></polygon>
                </g>
                <path d="M499.782946,191.313751 L468.202817,166.779126 C467.908107,166.536103 467.606296,166.307375 467.300934,166.078647 L467.300934,166.082221 C462.546516,162.279622 455.853403,161.321824 449.735508,161.582717 C444.455583,163.205255 409.907051,163.144499 403.735894,163.015839 L402.883721,188.018642 L426.90081,190.688324 L432.042256,242.162791 L486.602663,242.162791 L479.110638,202.742992 L499.782946,191.313751 Z" id="Fill-279" fill="#216DF2"></path>
                <g id="Group-286" transform="translate(402.883721, 161.542636)">
                    <mask id="mask-4" fill="white">
                        <use xlink:href="#path-3"></use>
                    </mask>
                    <g id="Clip-281"></g>
                    <path d="M31.1398388,0.0400813987 C35.8729523,15.3433978 59.3503314,19.5569919 65.4824296,2.03072765 L49.3834525,-1.42520579 L31.1398388,0.0400813987 Z" id="Fill-280" fill="#FFB6A6" mask="url(#mask-4)"></path>
                    <g id="Group-284" mask="url(#mask-4)">
                        <g transform="translate(31.558575, 0.000004)">
                            <mask id="mask-6" fill="white">
                                <use xlink:href="#path-5"></use>
                            </mask>
                            <g id="Clip-283" stroke="none" fill="none"></g>
                            <path d="M1.95669726,0.0400777152 C1.95669726,0.0400777152 5.68140546,12.8881446 21.4395132,13.9817492 C12.8787205,15.8437361 -0.322866771,11.0797658 -3.01076392,0.390317091 L1.95669726,0.0400777152 Z" id="Fill-282" stroke="none" fill="#FF8370" fill-rule="evenodd" opacity="0.233475458" mask="url(#mask-6)"></path>
                        </g>
                    </g>
                    <path d="M0.15268108,22.0872927 C0.15268108,22.0872927 14.8988328,25.0679013 34.1508517,22.0872927 C51.3150457,63.7264659 39.3029505,57.0290313 82.909377,70.5811509 C82.909377,70.5811509 86.0020566,83.0253703 84.7379993,82.6000797 C83.4703912,82.1783629 23.452524,82.3177439 23.452524,82.3177439 L20.8036848,30.1392245 L-1.67949188,26.1793753 L0.15268108,22.0872927 Z" id="Fill-285" fill="#2A62C5" mask="url(#mask-4)"></path>
                </g>
                <path d="M498.880714,221.232558 L442.418605,221.232558 L448.594427,187.25584 C448.855478,185.833328 450.09994,184.79845 451.555389,184.79845 L503.719097,184.79845 C504.648868,184.79845 505.349772,185.634176 505.185274,186.541028 L498.880714,221.232558 Z" id="Fill-287" fill="#263238"></path>
                <path d="M497.441232,224.88798 C496.713282,224.231174 409.733947,226.161172 409.894524,224.204229 C410.112196,223.59121 409.344994,221.179556 410.618906,221.233447 L499.007752,221.233447 C498.686597,222.078874 499.000615,224.985659 497.441232,224.88798 Z" id="Fill-288" fill="#263238"></path>
                <path d="M479.115029,205.332234 C476.656418,212.375093 469.988205,210.08274 472.389051,203.025463 C474.844051,195.982604 481.515874,198.271353 479.115029,205.332234 Z" id="Fill-289" fill="#455A64"></path>
                <path d="M418.476036,259.992248 L341.554971,259.992248 C339.037851,259.992248 336.992248,257.942421 336.992248,255.420104 L336.992248,154.648206 C339.725628,151.227092 337.151784,255.583522 338.006187,255.420104 C338.006187,257.381117 339.597999,258.976216 341.554971,258.976216 L418.476036,258.976216 C420.433009,258.976216 422.024821,257.381117 422.024821,255.420104 L422.024821,223.496806 C422.024821,223.216154 422.251716,222.98879 422.53179,222.98879 C422.811864,222.98879 423.03876,223.216154 423.03876,223.496806 L423.03876,255.420104 C423.03876,257.942421 420.993156,259.992248 418.476036,259.992248 Z" id="Fill-290" fill="#F85C3D"></path>
                <path d="M478.145761,225.562948 C483.028988,221.1276 483.032491,220.974279 490.599039,221.379484 C492.718373,221.616766 489.11025,226.340503 488.192456,226.734756 C487.141547,227.468505 485.789376,228.267963 484.948649,228.205905 C483.410818,228.09274 473.78799,225.562948 474.21536,225.562948 L478.145761,225.562948 Z" id="Fill-291" fill="#FFB6A6"></path>
                <path d="M433.645347,132.085271 L427.954166,149.559495 C426.928472,152.709708 428.997668,156.02403 432.277754,156.477119 L441.309565,157.725787 L443.150829,170.069767 L457.147287,169.238511 L448.058493,132.085271 L433.645347,132.085271 Z" id="Fill-292" fill="#FFB6A6"></path>
                <g id="Group-296" transform="translate(427.689922, 132.085271)">
                    <mask id="mask-8" fill="white">
                        <use xlink:href="#path-7"></use>
                    </mask>
                    <g id="Clip-294"></g>
                    <path d="M0.000697104978,21.7732112 C0.000697104978,21.7732112 7.05590903,23.6069701 15.0442181,20.9990367 C15.0442181,20.9990367 13.2991127,24.0386527 13.7905914,26.4753401 C14.28207,28.9155951 13.7905914,26.4753401 13.7905914,26.4753401 C13.7905914,26.4753401 1.10830483,26.1649568 0.000697104978,21.7732112 Z" id="Fill-293" fill="#FF8370" mask="url(#mask-8)"></path>
                    <path d="M1.38965856,5.79382189 C1.68525805,5.93652687 7.11289206,11.5698057 21.6257586,7.02108466 L5.04013419,-1.87657039 L1.38965856,5.79382189 Z" id="Fill-295" fill="#FF8370" opacity="0.233475458" mask="url(#mask-8)"></path>
                </g>
                <path d="M423.813953,372.395349 L423.813953,377.877901 C423.813953,377.877901 425.608895,383.248062 429.603271,383.248062 C433.594036,383.248062 433.760167,382.0504 433.760167,382.0504 L434.666667,372.395349 L423.813953,372.395349 Z" id="Fill-297" fill="#FFB6A6"></path>
                <g id="Group-300" transform="translate(423.813953, 372.395349)">
                    <mask id="mask-10" fill="white">
                        <use xlink:href="#path-9"></use>
                    </mask>
                    <g id="Clip-299"></g>
                    <path d="M11.5605773,5.01894082 C11.5605773,5.01894082 1.48073624,3.68079075 -1.1990352,1.26088156 L-1.32543951,-1.06068588 L11.748378,-0.783221695 L11.5605773,5.01894082 Z" id="Fill-298" fill="#FF8370" mask="url(#mask-10)"></path>
                </g>
                <path d="M433.771481,381.864352 C433.771481,381.864352 425.594076,384.010481 423.897283,377.046512 L407.877555,384.824404 C405.581893,385.941267 404.216616,388.408586 404.46258,391 L432.50245,390.613113 C436.469953,390.510916 433.767916,384.025081 433.771481,381.864352 Z" id="Fill-301" fill="#263238"></path>
                <path d="M480.403101,372.395349 C482.157289,375.015454 483.861964,383.21294 488.731958,383.248062 C492.643515,383.248062 492.806202,382.0504 492.806202,382.0504 L491.027257,372.395349 L480.403101,372.395349 Z" id="Fill-302" fill="#FFB6A6"></path>
                <g id="Group-305" transform="translate(480.403101, 372.395349)">
                    <mask id="mask-12" fill="white">
                        <use xlink:href="#path-11"></use>
                    </mask>
                    <g id="Clip-304"></g>
                    <path d="M11.7028402,5.01894082 C11.7028402,5.01894082 1.83199492,3.68079075 -0.792214022,1.26088156 L-0.915997462,-1.06068588 L11.886747,-0.783221695 L11.7028402,5.01894082 Z" id="Fill-303" fill="#FF8370" mask="url(#mask-12)"></path>
                </g>
                <path d="M100.845531,118 C109.304765,118 116.8949,116.499949 123.615936,113.499846 C130.336971,110.499743 135.667448,105.941894 139.607365,99.8262995 C143.547283,93.7107051 145.517241,86.1527535 145.517241,77.1524447 C145.517241,70.4599074 144.068742,64.4885486 141.171744,59.2383685 C138.274746,53.9881884 134.132039,49.891894 128.743622,46.9494853 C123.355206,44.0070767 116.95284,42.5358724 109.536525,42.5358724 C104.437808,42.5358724 99.8026113,43.257051 95.630934,44.6994081 C91.4592568,46.1417653 88.2146189,48.1322182 85.8970204,50.6707669 L85.8970204,50.6707669 L85.7232005,50.6707669 C85.9549604,49.8630468 86.2446602,48.4783839 86.5923,46.5167782 L86.5923,46.5167782 L89.1995983,25.0545033 L139.085906,25.0545033 L139.085906,2.03448276 L67.4721125,2.03448276 L60.1716773,66.5943901 L82.7682625,69.8829645 C86.5923,65.3828101 92.675996,63.1327329 101.019351,63.1327329 C106.813347,63.1327329 111.158844,64.5173958 114.055842,67.2867216 C116.95284,70.0560473 118.459279,74.0369532 118.575159,79.229439 C118.575159,84.5373134 117.01078,88.5759135 113.882022,91.3452393 C110.753264,94.1145651 106.465707,95.499228 101.019351,95.499228 C95.2253543,95.499228 90.9377971,94.2299537 88.1566789,91.691405 C85.3755608,89.1528564 83.4056021,85.3450335 82.2468028,80.2679362 L82.2468028,80.2679362 L56,95.1530623 C60.8669568,103.230262 66.9506528,109.057385 74.251088,112.634431 C81.5515233,116.211477 90.4163375,118 100.845531,118 Z M208.077586,118 C239.612069,118 255.37931,98.3333333 255.37931,59 C255.37931,19.6666667 239.612069,0 208.077586,0 C176.543103,0 160.775862,19.6666667 160.775862,59 C160.775862,98.3333333 176.543103,118 208.077586,118 Z M208.077586,94.6034483 C201.801337,94.6034483 197.265321,91.8381319 194.469537,86.3074992 C191.673754,80.7768664 190.275862,71.6743667 190.275862,59 C190.275862,46.3256333 191.673754,37.2231336 194.469537,31.6925008 C197.265321,26.1618681 201.801337,23.3965517 208.077586,23.3965517 C214.353835,23.3965517 218.889851,26.1618681 221.685635,31.6925008 C224.481419,37.2231336 225.87931,46.3256333 225.87931,59 C225.87931,71.6743667 224.481419,80.7768664 221.685635,86.3074992 C218.889851,91.8381319 214.353835,94.6034483 208.077586,94.6034483 Z M360.155172,115.965517 L360.155172,93.2916624 L333.265303,93.2916624 C325.516395,93.2916624 317.825314,93.5224395 310.192061,93.9839938 L310.192061,93.9839938 L310.192061,93.810911 C326.499465,84.4644364 338.672191,75.2910448 346.710238,66.290736 C354.748285,57.2904272 358.767308,47.4247041 358.767308,36.6935666 C358.767308,30.3471951 357.205961,24.4046835 354.083267,18.8660319 C350.960572,13.3273803 346.160875,8.7983788 339.684175,5.27902728 C333.207476,1.75967576 325.169429,0 315.570035,0 C302.385325,0 291.658291,3.40396294 283.388933,10.2118888 C275.119576,17.0198147 270.869242,26.5970664 270.637931,38.9436438 L270.637931,38.9436438 L296.139936,46.7323726 C296.255591,39.1167267 297.845852,33.3184508 300.910719,29.337545 C303.975586,25.3566392 308.22592,23.3661863 313.661721,23.3661863 C318.634902,23.3661863 322.451528,24.7796963 325.111601,27.6067164 C327.771674,30.4337365 329.101711,34.155018 329.101711,38.770561 C329.101711,46.9631498 324.793549,55.7038343 316.177225,64.9926145 C307.560902,74.2813948 293.595518,84.9259907 274.281075,96.9264025 L274.281075,96.9264025 L274.281075,115.965517 L360.155172,115.965517 Z" id="502" fill="#263238" fill-rule="nonzero"></path>
                <path d="M493.462087,381.864352 C493.462087,381.864352 485.284689,384.010481 483.587897,377.046512 L467.568183,384.824404 C465.272524,385.941267 463.903683,388.408586 464.153211,391 L492.189492,390.613113 C496.160556,390.510916 493.458522,384.025081 493.462087,381.864352 Z" id="Fill-306" fill="#263238"></path>
                <path d="M347.844961,155.431327 C346.258555,154.470886 342.886105,149.707952 340.636617,150.871908 C340.565318,151.157541 329.898965,154.602991 330.850808,155.309933 C331.317818,156.252523 332.301746,156.888056 333.367668,156.648839 L339.54574,155.36706 L340.78278,163.097007 L346.076742,163.868217 L347.844961,155.431327 Z" id="Fill-307" fill="#FFB6A6"></path>
                <polygon id="Fill-308" fill="#FF8370" points="333.116279 155.864136 336.058445 163.868217 340.868217 162.911246 339.457213 154.565891"></polygon>
                <path d="M433.358982,133.930857 C433.358982,133.930857 443.980215,137.672103 444.212412,137.672103 C443.551004,140.000546 441.788421,143.684565 444.870302,146.016584 L446.32329,142.346872 C446.32329,142.346872 450.826496,147.114636 446.32329,149.49673 L453.109762,155.341085 C458.467873,148.724159 457.127466,143.040755 456.620855,135.239936 C456.42384,130.042966 451.64622,127.070714 447.220413,125.729445 L430.210256,120.457364 C430.210256,120.457364 424.658648,131.906435 433.358982,133.930857 Z" id="Fill-309" fill="#263238"></path>
                <g id="Group-2" transform="translate(208.054264, 129.457364) rotate(11.000000) translate(-208.054264, -129.457364) translate(134.023256, 58.139535)">
                    <path d="M17.551779,142.344351 C6.68223957,144.642075 -3.18980127,132.908411 0.974133976,122.588185 L42.0171171,9.73725889 C45.4639894,-0.828010381 60.5542611,-3.51247661 67.4125073,5.25474364 L144.596177,97.23509 C152.018844,105.502635 146.797063,119.917569 135.778431,121.473061 L17.551779,142.344351 Z" id="Fill-310" fill="#216DF2"></path>
                    <path d="M49.1558089,12.4863484 C-3.53174805,171.94333 -30.9324039,138.569201 134.380979,114.336961 C139.816348,113.374657 142.171675,106.870195 138.626251,102.632493 L61.3836135,10.3218772 C57.8346371,6.08203698 51.0422018,7.28456058 49.1558089,12.4863484 Z" id="Fill-311" fill="#E6EFFF"></path>
                    <path d="M52.9767442,59.8629273 L67.8981351,57.1860465 L71.3100775,87.6873724 L60.1733442,89.6860465 L52.9767442,59.8629273 Z M63.1445601,94.5383427 C67.1991234,88.7075553 75.9285067,94.8474396 71.9717691,100.692946 C67.8027288,106.403879 59.2232062,100.535243 63.1445601,94.5383427 Z" id="Fill-312" fill="#216DF2"></path>
                </g>
                <path d="M92.4808549,128.984496 L91.2121881,128.984496 C91.1448979,125.117536 94.2911258,125.088641 94.3813932,121.583884 C94.2911258,118.081507 91.1448979,118.049893 91.2121881,114.184802 C91.1448979,110.319201 94.2911258,110.289287 94.3813932,106.78555 C94.2911258,103.280963 91.1448979,103.251049 91.2121881,99.384938 C91.1448979,95.5198473 94.2911258,95.4882331 94.3813932,91.9844961 L95.6500599,91.9844961 C95.7173502,95.8516265 92.5711222,95.8798413 92.4792137,99.384938 C92.5711222,102.888335 95.7173502,102.920119 95.6500599,106.78555 C95.7173502,110.651151 92.5711222,110.680895 92.4792137,114.184802 C92.5711222,117.688879 95.7173502,117.718794 95.6500599,121.583884 C95.7173502,125.448975 92.5711222,125.481269 92.4808549,128.984496 Z" id="Fill-315" fill="#E0E0E0"></path>
                <path d="M101.359251,128.984496 L100.09224,128.984496 C100.023309,125.117536 103.171142,125.088641 103.261408,121.583884 C103.171142,118.081507 100.023309,118.049893 100.09224,114.184802 C100.023309,110.319201 103.171142,110.289287 103.261408,106.78555 C103.171142,103.280963 100.023309,103.251049 100.09224,99.384938 C100.023309,95.5198473 103.171142,95.4882331 103.261408,91.9844961 L104.53006,91.9844961 C104.597349,95.8516265 101.451158,95.8798413 101.359251,99.384938 C101.451158,102.888505 104.597349,102.920119 104.528419,106.78555 C104.597349,110.651151 101.451158,110.680895 101.359251,114.184802 C101.451158,117.688879 104.597349,117.718794 104.528419,121.583884 C104.597349,125.448975 101.451158,125.481269 101.359251,128.984496 Z" id="Fill-316" fill="#E0E0E0"></path>
                <path d="M110.61084,128.984496 L109.342188,128.984496 C109.274899,125.117536 112.42109,125.088641 112.512998,121.583884 C112.42109,118.081507 109.274899,118.049893 109.342188,114.184802 C109.274899,110.319201 112.42109,110.289287 112.512998,106.78555 C112.42109,103.280963 109.274899,103.251049 109.342188,99.384938 C109.274899,95.5198473 112.42109,95.4882331 112.512998,91.9844961 L113.780008,91.9844961 C113.847298,95.8516265 110.701106,95.8798413 110.61084,99.384938 C110.701106,102.888335 113.848939,102.920119 113.780008,106.78555 C113.847298,110.651151 110.701106,110.680895 110.61084,114.184802 C110.701106,117.688879 113.848939,117.718794 113.780008,121.583884 C113.847298,125.448975 110.701106,125.481269 110.61084,128.984496 Z" id="Fill-317" fill="#E0E0E0"></path>
                <path d="M509.952421,392.808484 C509.014818,391.274898 -0.200572982,395.748414 0,391.274898 C-1.25848742,389.72457 515.700331,385.562459 509.952421,392.808484 Z" id="Fill-318" fill="#263238"></path>
            </g>
        </g>
    </g>
</svg>