<?xml version="1.0" encoding="UTF-8"?>
<svg width="520px" height="520px" viewBox="0 0 520 520" version="1.1" xmlns="http://www.w3.org/2000/svg" xmlns:xlink="http://www.w3.org/1999/xlink">
    <title>Group 9</title>
    <g id="Error" stroke="none" stroke-width="1" fill="none" fill-rule="evenodd">
        <g id="Group-9">
            <rect id="Rectangle-Copy-4" fill-opacity="0" fill="#D8D8D8" x="0" y="0" width="520" height="520"></rect>
            <g id="503-Error-Service-Unavailable-bro-Copy" transform="translate(10.000000, 18.000000)">
                <g id="freepik--background-simple--inject-42" transform="translate(4.101068, 46.019436)" fill="#F5F5F5" fill-rule="nonzero">
                    <path d="M0.0180384919,227.880173 C0.0180384919,227.880173 -0.543254454,310.670882 66.2506061,367.548568 C133.044467,424.426253 228.429187,430.764186 305.560192,437.944058 C382.691198,445.12393 443.801967,402.781393 455.33186,336.689149 C466.861753,270.596905 408.557448,249.665355 379.405295,173.399676 C350.253143,97.1339973 354.112032,72.3903333 288.078256,24.2828504 C222.044479,-23.8246325 114.755671,1.99484299 56.0654778,80.1198049 C-2.62471579,158.244767 0.0180384919,227.880173 0.0180384919,227.880173 Z" id="Path"></path>
                    <path d="M0.0180384919,227.880173 C0.0180384919,227.880173 -0.543254454,310.670882 66.2506061,367.548568 C133.044467,424.426253 228.429187,430.764186 305.560192,437.944058 C382.691198,445.12393 443.801967,402.781393 455.33186,336.689149 C466.861753,270.596905 408.557448,249.665355 379.405295,173.399676 C350.253143,97.1339973 354.112032,72.3903333 288.078256,24.2828504 C222.044479,-23.8246325 114.755671,1.99484299 56.0654778,80.1198049 C-2.62471579,158.244767 0.0180384919,227.880173 0.0180384919,227.880173 Z" id="Path"></path>
                </g>
                <g id="freepik--planet-3--inject-42" transform="translate(389.346056, 229.828414)" fill-rule="nonzero">
                    <path d="M9.74788023,33.8977602 C3.29270898,30.5848695 -0.531020849,23.7095094 0.0598614532,16.4779578 C0.650743755,9.2464062 5.53986015,3.08296336 12.4472041,0.861909435 C19.354548,-1.35914449 26.9196739,0.799641242 31.6146363,6.3315314 C36.3095987,11.8634216 37.2096946,19.6788751 33.8951705,26.1332078 C31.7245599,30.3668056 27.9600385,33.5639001 23.4308128,35.0202709 C18.9015871,36.4766418 13.979193,36.0728219 9.74788023,33.8977602 Z" id="Path" fill="#263238"></path>
                    <path d="M26.9725575,8.31215674 L35.6725982,20.5202783 C36.0219823,18.1478624 35.8867303,15.7292379 35.2750157,13.4105677 L26.9725575,8.31215674 Z" id="Path" fill="#216DF2"></path>
                    <path d="M8.73053676,2.57059765 L29.4048269,31.7344436 C31.1216622,30.3079708 32.5538566,28.5702945 33.6262176,26.6126455 L16.2846043,0.0915538046 C13.6126855,0.341673011 11.0310957,1.18888204 8.73053676,2.57059765 L8.73053676,2.57059765 Z" id="Path" fill="#216DF2"></path>
                    <path d="M17.2785606,35.8505919 L8.29787345,22.9876286 L12.9753147,35.1723629 C14.3774406,35.5697386 15.8221817,35.7974423 17.2785606,35.8505919 L17.2785606,35.8505919 Z" id="Path" fill="#216DF2"></path>
                    <path d="M24.5753689,34.5876828 L4.04140194,6.6048907 C3.84261069,6.85045636 3.65551304,7.11940923 3.4684154,7.3766685 L18.3426785,35.8739791 C20.4799303,35.8168959 22.5901413,35.3813927 24.5753689,34.5876828 L24.5753689,34.5876828 Z" id="Path" fill="#216DF2"></path>
                </g>
                <g id="freepik--planet-2--inject-42" transform="translate(188.179095, 405.596833)" fill-rule="nonzero">
                    <path d="M53.17983,55.2601011 C38.6444179,61.8873022 21.4885983,55.4786877 14.8579678,40.9448397 C8.22733731,26.4109917 14.6319038,9.25366049 29.1641868,2.61960093 C43.6964699,-4.01445862 60.8553118,2.38605942 67.4928001,16.9167768 C70.6854626,23.8986405 70.9708262,31.8634914 68.285999,39.0559331 C65.6011717,46.2483747 60.1665299,52.078036 53.17983,55.2601011 L53.17983,55.2601011 Z" id="Path" fill="#263238"></path>
                    <g id="Group" transform="translate(12.223274, 0.004324)" fill="#216DF2">
                        <path d="M55.0122664,41.4456317 L35.2734645,10.4575837 L57.6901015,31.9972005 C57.7485695,31.4008267 57.7953439,30.8278402 57.8187311,30.1963856 L31.2625586,0.0970513891 C28.9919153,-0.0914880154 26.7068117,-0.00510952815 24.4568817,0.354310656 L29.7891647,8.83217286 L20.972188,1.11439485 L20.972188,1.11439485 L27.9883498,13.8136478 L13.8040093,4.29505488 C13.4532012,4.51723334 13.1023931,4.73941179 12.7632786,4.97328386 L39.0855791,34.2072914 L18.200804,18.3156849 L25.626242,30.009288 L14.8096592,22.525382 L43.1315657,54.1682718 C46.5786262,52.2425724 49.5919556,49.627305 51.9836232,46.4855746 L46.2186769,36.8617393 L53.375162,44.4859685 C53.9834259,43.507477 54.5301848,42.4920676 55.0122664,41.4456317 L55.0122664,41.4456317 Z" id="Path"></path>
                        <path d="M37.4601683,56.5888477 L14.8330464,30.4887257 L24.889545,46.0178305 L0.099106547,26.5830623 C-1.1679301,41.9558791 9.85370153,55.6171452 25.1468043,57.6295783 L16.2128915,49.6896219 L30.0815047,57.875144 C32.5857038,57.7614656 35.0652186,57.3292206 37.4601683,56.5888477 L37.4601683,56.5888477 Z" id="Path"></path>
                        <path d="M39.70534,2.12004471 L52.3928993,16.8539845 L49.8203067,11.2293615 L53.9247613,14.3866343 C50.6885341,8.82396514 45.6824947,4.50543288 39.70534,2.12004471 L39.70534,2.12004471 Z" id="Path"></path>
                        <path d="M10.2023796,24.910877 L3.34992819,15.4390586 C1.94206151,18.1212752 0.956018858,21.0044639 0.426527432,23.9870824 L10.2023796,24.910877 Z" id="Path"></path>
                    </g>
                    <path d="M84.1327972,9.71351731 C82.0279486,5.10623771 72.6964534,4.46308955 60.3012342,7.28124788 C61.0887142,7.9731964 61.8345132,8.71118597 62.5347124,9.49133885 C71.796046,7.3631031 78.4029317,7.55020075 79.7710833,10.5203759 C82.1799655,15.7941909 67.1536856,27.838602 46.1987489,37.4156629 C25.2438123,46.9927238 6.32356259,50.5008047 3.90298676,45.2269897 C2.66346484,42.5140738 6.06630332,38.0003431 12.5094786,32.9487065 C12.3618626,31.9216239 12.2720701,30.8870586 12.2405257,29.8499017 C3.24814499,36.8660636 -1.53453865,43.6951277 0.441680259,47.9983737 C3.77435712,55.2951819 25.2204251,52.6758149 48.3854527,42.0697169 C71.5504803,31.463619 87.4654741,17.0103256 84.1327972,9.71351731 Z" id="Path" fill="#263238"></path>
                </g>
                <g id="freepik--planet-1--inject-42" transform="translate(63.323818, 130.500955)" fill-rule="nonzero">
                    <circle id="Oval" fill="#216DF2" cx="28.5674722" cy="28.5674722" r="28.5674722"></circle>
                    <path d="M35.3029876,7.43713153 C37.2203177,5.67909492 39.4332569,4.27373996 41.8397117,3.28590245 C39.5206066,2.06017063 37.0406744,1.16660778 34.4727418,0.631454564 C31.8253209,2.39695404 29.3085756,4.35094888 26.9420614,6.47825608 C16.7218523,15.7629769 19.5049299,14.8391823 4.65405401,20.4053373 C3.28384686,20.9115177 1.96442498,21.5457799 0.713309785,22.299701 C0.24393611,24.3441769 0.00467924169,26.4347328 0,28.5323914 C0.00297223969,32.1368142 0.689429789,35.7079806 2.02299333,39.0566341 C7.3318891,37.4429169 14.3948253,34.8235498 17.6573406,31.5610346 C23.2234956,26.0182668 24.1589839,17.6573406 35.3029876,7.43713153 Z" id="Path" fill="#263238"></path>
                    <path d="M7.81132683,48.1776445 C9.97330099,50.4724012 12.4976701,52.3962944 15.2835392,53.8724292 C20.6041286,50.1538634 23.0831724,46.2014256 30.6606272,42.7635063 C37.3142873,39.7348631 48.2945805,39.0683277 55.1470319,38.9864725 C56.4503304,35.6754177 57.120672,32.1491826 57.1232508,28.5908594 C57.1232508,28.0997281 57.1232508,27.6202904 57.0530892,27.129159 C48.9592836,27.759205 41.0032908,29.5836848 33.4437047,32.5432973 C22.6388155,36.8348496 17.4000813,44.4941596 7.81132683,48.1776445 Z" id="Path" fill="#263238"></path>
                    <path d="M36.2267822,18.5811352 C41.2784187,21.1069535 49.0897456,19.7504955 55.1119511,18.0666167 C53.9562856,15.1600484 52.332814,12.4621624 50.3058803,10.0798858 C42.2606814,11.5883606 29.2340076,15.0847479 36.2267822,18.5811352 Z" id="Path" fill="#263238"></path>
                </g>
                <g id="freepik--Text--inject-42" transform="translate(78.174694, 223.020742)" fill="#263238" fill-rule="nonzero">
                    <path d="M27.7372264,162.985439 L28.3336002,162.003176 C29.9447306,163.493354 32.0678979,164.305769 34.2622569,164.271735 C37.8638866,164.271735 39.4542166,162.704793 39.4542166,160.763655 C39.4542166,155.372904 28.2283577,158.600338 28.2283577,151.981759 C28.2283577,149.432553 30.1811894,147.199075 34.6013714,147.199075 C36.5284146,147.184516 38.415133,147.750939 40.0155096,148.824486 L39.5243783,149.87691 C38.0704091,148.893257 36.3568047,148.364115 34.6013714,148.356742 C31.0932905,148.356742 29.5380413,149.970459 29.5380413,151.958371 C29.5380413,157.349122 40.7639002,154.156769 40.7639002,160.681799 C40.7639002,163.231005 38.7292133,165.441096 34.2856441,165.441096 C31.8651585,165.513629 29.5131871,164.631639 27.7372264,162.985439 L27.7372264,162.985439 Z" id="Path"></path>
                    <path d="M56.117601,158.904372 L44.5877084,158.904372 C44.7254627,161.206018 46.2294277,163.200859 48.4043067,163.966662 C50.5791858,164.732464 53.001211,164.120014 54.5506582,162.412453 L55.2990488,163.266086 C54.025108,164.716837 52.1649701,165.51588 50.2357186,165.441096 C48.3953872,165.534154 46.6005276,164.850305 45.2886907,163.556255 C43.9768538,162.262206 43.2685656,160.476849 43.3364929,158.635419 C43.3364929,155.08341 46.2159653,152.203937 49.7679745,152.203937 C53.3199838,152.203937 56.1994562,155.08341 56.1994562,158.635419 C56.1526818,158.647112 56.117601,158.775742 56.117601,158.904372 Z M44.6110956,157.898722 L54.8897727,157.898722 C54.7588864,155.155569 52.496708,152.998754 49.7504341,152.998754 C47.0041602,152.998754 44.7419819,155.155569 44.6110956,157.898722 Z" id="Shape"></path>
                    <path d="M66.4781333,151.782967 L66.4781333,153.045877 L66.162406,153.045877 C63.1805372,153.045877 61.4148032,155.022095 61.4148032,158.331385 L61.4148032,165.347547 L60.1285068,165.347547 L60.1285068,151.88821 L61.3563351,151.88821 L61.3563351,154.823304 C62.2354389,152.816794 64.2956737,151.593824 66.4781333,151.782967 L66.4781333,151.782967 Z" id="Path"></path>
                    <polygon id="Path" points="81.3991707 151.88821 75.3301908 165.300773 74.0205072 165.300773 67.9866081 151.88821 69.3547596 151.88821 74.6870426 163.885847 80.0894872 151.88821"></polygon>
                    <path d="M83.7846658,147.596658 C83.7846658,147.01542 84.2558522,146.544233 84.83709,146.544233 C85.4087738,146.550694 85.8682068,147.017101 85.8660608,147.588818 C85.8638998,148.160534 85.4009663,148.623467 84.8292501,148.625628 C84.2575339,148.627774 83.7911261,148.168341 83.7846658,147.596658 L83.7846658,147.596658 Z M84.1939419,151.88821 L85.4802382,151.88821 L85.4802382,165.300773 L84.1939419,165.300773 L84.1939419,151.88821 Z" id="Shape"></path>
                    <path d="M89.432676,158.588644 C89.3562444,156.765412 90.0454237,154.993231 91.3335534,153.70066 C92.621683,152.408088 94.3914808,151.712812 96.2149658,151.782967 C98.2192017,151.689788 100.134108,152.618627 101.301683,154.250318 L100.354501,154.951934 C99.3949765,153.634838 97.8434224,152.880975 96.2149658,152.940634 C93.1923316,153.078133 90.8124547,155.568731 90.8124547,158.594491 C90.8124547,161.620251 93.1923316,164.110849 96.2149658,164.248348 C97.8434224,164.308007 99.3949765,163.554145 100.354501,162.237049 L101.301683,162.938665 C100.125826,164.559194 98.2152526,165.48154 96.2149658,165.394321 C94.3924879,165.460909 92.6247968,164.764488 91.3374719,163.472724 C90.0501469,162.18096 89.3598148,160.410882 89.432676,158.588644 Z" id="Path"></path>
                    <path d="M116.246108,158.904372 L104.716215,158.904372 C104.853969,161.206018 106.357935,163.200859 108.532814,163.966662 C110.707693,164.732464 113.129718,164.120014 114.679165,162.412453 L115.427556,163.266086 C114.153615,164.716837 112.293477,165.51588 110.364225,165.441096 C108.522898,165.533918 106.727017,164.850391 105.413385,163.556763 C104.099752,162.263135 103.388748,160.477954 103.453306,158.635419 C103.346679,156.864934 103.977298,155.129227 105.195547,153.840098 C106.413797,152.550968 108.111107,151.823303 109.884788,151.829742 C111.648268,151.816328 113.337891,152.536925 114.548903,153.818913 C115.759916,155.1009 116.383217,156.828784 116.269495,158.588644 C116.269495,158.647112 116.246108,158.775742 116.246108,158.904372 Z M104.739602,157.898722 L115.018279,157.898722 C114.887393,155.155569 112.625215,152.998754 109.878941,152.998754 C107.132667,152.998754 104.870489,155.155569 104.739602,157.898722 Z" id="Shape"></path>
                    <path d="M127.109465,157.66485 L127.109465,147.316011 L128.384068,147.316011 L128.384068,157.618075 C128.384068,162.108419 130.547384,164.213267 134.289337,164.213267 C138.03129,164.213267 140.136139,162.108419 140.136139,157.618075 L140.136139,147.316011 L141.445822,147.316011 L141.445822,157.66485 C141.445822,162.810035 138.697826,165.429402 134.230869,165.429402 C129.763913,165.429402 127.109465,162.810035 127.109465,157.66485 Z" id="Path"></path>
                    <path d="M159.220099,157.466058 L159.220099,165.300773 L157.933803,165.300773 L157.933803,157.559607 C157.933803,154.530964 156.320085,152.882166 153.595476,152.882166 C152.196431,152.786976 150.826095,153.310572 149.84699,154.314435 C148.867885,155.318299 148.378667,156.701281 148.508759,158.097513 L148.508759,165.242305 L147.222462,165.242305 L147.222462,151.88821 L148.461984,151.88821 L148.461984,154.788223 C149.466919,152.810658 151.558123,151.626871 153.77088,151.782967 C157.033395,151.782967 159.220099,153.712412 159.220099,157.466058 Z" id="Path"></path>
                    <path d="M174.187911,156.78783 L174.187911,165.289079 L172.960083,165.289079 L172.960083,162.950358 C171.955703,164.6323 170.083341,165.597949 168.130624,165.441096 C165.125368,165.441096 163.301166,163.909234 163.301166,161.617288 C163.301166,159.594294 164.587463,157.863641 168.306029,157.863641 L172.913308,157.863641 L172.913308,156.78783 C172.913308,154.297092 171.545157,152.964021 168.925789,152.964021 C167.230445,152.944513 165.586888,153.547843 164.306816,154.659594 L163.663668,153.735799 C165.166923,152.478397 167.071423,151.802072 169.031032,151.829742 C172.340322,151.782967 174.187911,153.47854 174.187911,156.78783 Z M172.913308,161.324948 L172.913308,158.810823 L168.341109,158.810823 C165.558032,158.810823 164.587463,159.980183 164.587463,161.512045 C164.587463,163.254392 165.943921,164.330203 168.306029,164.330203 C170.334892,164.461341 172.208803,163.243774 172.913308,161.336641 L172.913308,161.324948 Z" id="Shape"></path>
                    <polygon id="Path" points="189.985969 151.88821 183.928682 165.300773 182.618999 165.300773 176.585099 151.88821 177.941557 151.88821 183.344002 163.885847 188.734753 151.88821"></polygon>
                    <path d="M202.053767,156.78783 L202.053767,165.289079 L200.884407,165.289079 L200.884407,162.950358 C199.882005,164.634404 198.008232,165.600781 196.054949,165.441096 C193.049693,165.441096 191.22549,163.909234 191.22549,161.617288 C191.22549,159.594294 192.511787,157.863641 196.230353,157.863641 L200.837632,157.863641 L200.837632,156.78783 C200.837632,154.297092 199.469481,152.964021 196.850114,152.964021 C195.154769,152.944513 193.511213,153.547843 192.23114,154.659594 L191.587992,153.735799 C193.091247,152.478397 194.995747,151.802072 196.955356,151.829742 C200.206178,151.782967 202.053767,153.47854 202.053767,156.78783 Z M200.779164,161.324948 L200.779164,158.810823 L196.206965,158.810823 C193.435581,158.810823 192.453319,159.980183 192.453319,161.512045 C192.453319,163.254392 193.809777,164.330203 196.171885,164.330203 C198.200748,164.461341 200.074659,163.243774 200.779164,161.336641 L200.779164,161.324948 Z" id="Shape"></path>
                    <path d="M206.941693,147.596658 C206.941693,147.01542 207.412879,146.544233 207.994117,146.544233 C208.365935,146.544233 208.709508,146.742595 208.895417,147.064599 C209.081325,147.386602 209.081325,147.783326 208.895417,148.105329 C208.709508,148.427333 208.365935,148.625695 207.994117,148.625695 C207.71717,148.63199 207.449382,148.52636 207.251312,148.332692 C207.053242,148.139023 206.941621,147.873676 206.941693,147.596658 Z M207.350969,151.88821 L208.637265,151.88821 L208.637265,165.300773 L207.350969,165.300773 L207.350969,151.88821 Z" id="Shape"></path>
                    <polygon id="Path" points="214.051404 146.263587 215.3377 146.263587 215.3377 165.32416 214.051404 165.32416"></polygon>
                    <path d="M230.434141,156.78783 L230.434141,165.289079 L229.264781,165.289079 L229.264781,162.950358 C228.26238,164.634404 226.388607,165.600781 224.435323,165.441096 C221.430067,165.441096 219.605865,163.909234 219.605865,161.617288 C219.605865,159.594294 220.892161,157.863641 224.622421,157.863641 L229.218007,157.863641 L229.218007,156.78783 C229.218007,154.297092 227.849855,152.964021 225.230488,152.964021 C223.535144,152.944513 221.891587,153.547843 220.611515,154.659594 L219.968367,153.735799 C221.471621,152.478397 223.376121,151.802072 225.335731,151.829742 C228.586552,151.782967 230.434141,153.47854 230.434141,156.78783 Z M229.159539,161.324948 L229.159539,158.810823 L224.58734,158.810823 C221.815956,158.810823 220.833693,159.980183 220.833693,161.512045 C220.833693,163.254392 222.190151,164.330203 224.563953,164.330203 C226.588624,164.456006 228.456281,163.239415 229.159539,161.336641 L229.159539,161.324948 Z" id="Shape"></path>
                    <path d="M249.085438,158.588644 C249.170048,160.387604 248.504682,162.14107 247.247951,163.431048 C245.99122,164.721026 244.255721,165.43194 242.455165,165.394321 C240.147374,165.457409 238.008927,164.18799 236.959172,162.131806 L236.959172,165.300773 L235.731344,165.300773 L235.731344,146.263587 L237.01764,146.263587 L237.01764,154.975321 C238.083997,152.974721 240.188866,151.748012 242.455165,151.806355 C244.252503,151.765638 245.986206,152.472294 247.242953,153.757856 C248.4997,155.043417 249.166881,156.792691 249.085438,158.588644 Z M247.799142,158.588644 C247.664999,155.634193 245.184861,153.334064 242.228689,153.422496 C239.272516,153.510927 236.934303,155.955193 236.977002,158.91238 C237.019701,161.869567 239.42751,164.245305 242.385004,164.248348 C243.870897,164.270464 245.298896,163.672861 246.326143,162.599022 C247.35339,161.525183 247.887104,160.072096 247.799142,158.588644 L247.799142,158.588644 Z" id="Shape"></path>
                    <polygon id="Path" points="253.072957 146.263587 254.34756 146.263587 254.34756 165.32416 253.072957 165.32416"></polygon>
                    <path d="M271.046025,158.904372 L259.516132,158.904372 C259.653886,161.206018 261.157852,163.200859 263.332731,163.966662 C265.50761,164.732464 267.929635,164.120014 269.479082,162.412453 L270.227473,163.266086 C268.953532,164.716837 267.093394,165.51588 265.164142,165.441096 C263.323811,165.534154 261.528951,164.850305 260.217114,163.556255 C258.905278,162.262206 258.196989,160.476849 258.264917,158.635419 C258.264917,155.08341 261.144389,152.203937 264.696398,152.203937 C268.248408,152.203937 271.12788,155.08341 271.12788,158.635419 C271.12788,158.647112 271.046025,158.775742 271.046025,158.904372 Z M259.586294,157.95719 L269.876664,157.95719 C269.745778,155.214037 267.4836,153.057222 264.737326,153.057222 C261.991052,153.057222 259.728874,155.214037 259.597987,157.95719 L259.586294,157.95719 Z" id="Shape"></path>
                    <path d="M91.4205885,80.6040057 C91.4205885,100.915794 76.5112447,118.608216 43.745769,118.608216 C27.8541624,118.608216 11.1440037,114.188034 0,106.318239 L10.5242427,86.0064503 C19.2008962,92.554868 31.1634521,96.3202082 43.126008,96.3202082 C56.3865538,96.3202082 64.5837696,90.7540532 64.5837696,81.4225579 C64.5837696,72.40679 58.7369681,66.5132141 37.8755802,66.5132141 L8.52463661,66.5132141 L14.3714381,1.96452531 L84.3225715,1.96452531 L84.3225715,23.2585764 L36.5308159,23.2585764 L34.730001,45.0437589 L44.0848835,45.0437589 C77.9846387,45.0437589 91.4205885,60.2805237 91.4205885,80.6040057 Z M102.225478,59.298261 C102.225478,21.4577616 123.192108,0 151.338611,0 C179.485113,0 200.451743,21.4577616 200.451743,59.298261 C200.451743,97.1387604 179.648823,118.608216 151.338611,118.608216 C123.028398,118.608216 102.225478,97.150454 102.225478,59.298261 Z M173.813716,59.298261 C173.813716,33.256607 164.645931,22.4400242 151.373691,22.4400242 C138.101452,22.4400242 129.155846,33.256607 129.155846,59.298261 C129.155846,85.339915 138.32363,96.1564978 151.373691,96.1564978 C164.423752,96.1564978 173.813716,85.3516086 173.813716,59.298261 Z M296.526386,81.5862684 C296.526386,100.915794 281.617042,118.608216 249.015277,118.608216 C232.95996,118.608216 216.413511,114.188034 205.269508,106.318239 L215.594959,86.0064503 C224.283306,92.554868 236.397879,96.3202082 248.337048,96.3202082 C261.609287,96.3202082 269.794809,90.9177636 269.794809,81.5862684 C269.794809,72.8979213 263.410102,67.4954767 248.337048,67.4954767 L236.234169,67.4954767 L236.234169,49.9550722 L259.831859,23.2468828 L211.011067,23.2468828 L211.011067,1.96452531 L291.287652,1.96452531 L291.287652,19.1658154 L265.398015,48.6453886 C286.037224,51.9312911 296.526386,64.7007056 296.526386,81.5862684 Z" id="Shape"></path>
                </g>
                <g id="freepik--Character--inject-42">
                    <path d="M315.589917,52.142121 L315.589917,52.142121 C314.399526,50.2426663 314.969432,47.7382164 316.864519,46.5408851 L323.494792,42.3428817 C324.409052,41.7637021 325.516367,41.5725763 326.57188,41.8117674 C327.627393,42.0509585 328.544144,42.7007604 329.119415,43.6174844 L329.119415,43.6174844 C329.698595,44.5317442 329.889721,45.6390591 329.65053,46.694572 C329.411339,47.7500849 328.761537,48.6668362 327.844813,49.2421074 L321.226233,53.4167237 C320.310157,53.9964769 319.20105,54.1879107 318.143634,53.9487855 C317.086218,53.7096603 316.167401,53.0596294 315.589917,52.142121 Z" id="Path" stroke="#263238" stroke-width="1.19148457" fill="#FFFFFF" fill-rule="nonzero" stroke-linecap="round" stroke-linejoin="round"></path>
                    <path d="M311.988287,80.7914484 C308.852851,76.3171833 304.953896,72.430104 300.470088,69.3083303 C294.600067,65.8035924 288.523947,62.6561934 282.274842,59.8832862 L278.497808,38.8348007 C282.115756,35.3627216 285.360826,31.5219383 288.180111,27.3750698 C291.594643,21.8673827 290.518832,18.1722042 288.332128,14.3600896 C286.145424,10.547975 283.116781,13.0153252 282.660731,14.7576721 C282.325412,16.5922266 282.1222,18.4484829 282.052663,20.3121335 C282.052663,20.3121335 280.017976,6.27980989 278.836922,3.08745626 C277.655868,-0.104897371 273.153831,2.97052023 273.551414,4.0346381 C273.551414,4.0346381 272.194956,0.0471194684 269.400185,0 C266.605414,-0.0464293559 265.810249,4.67778627 265.810249,4.67778627 C265.810249,4.67778627 262.220312,3.01729464 260.209013,5.09875598 C258.197713,7.18021732 259.156588,12.3955643 259.156588,12.3955643 C259.156588,12.3955643 255.952541,13.5649246 255.46141,18.1137362 C254.970279,22.6625477 255.367861,30.6258914 256.63077,32.8125952 C257.279827,33.8503523 257.846746,34.9372721 258.326343,36.0634168 C256.736013,55.0538282 256.794481,53.8026126 256.326737,61.3800674 C255.999316,66.7123504 259.495703,79.1075696 264.512259,84.2644485 C269.528814,89.4213275 287.478495,98.5306442 287.478495,98.5306442 C287.478495,98.5306442 306.223341,93.7011862 311.988287,80.7914484 Z" id="Path" fill="#FFFFFF" fill-rule="nonzero"></path>
                    <g id="Group" transform="translate(256.375687, 36.133578)" fill-rule="nonzero">
                        <path d="M31.1729699,62.420453 C31.1729699,62.420453 49.8827348,57.5676078 55.6126002,44.65787 C55.6126002,44.65787 55.2384049,44.1082707 54.5718696,43.2312504 L49.7073307,39.1735702 C42.800822,39.7527874 35.9383205,40.7722028 29.1616702,42.2256006 C18.8946867,44.5643212 10.9079558,39.5594591 7.86761904,28.1932769 C4.82728225,16.8270948 2.02081752,0 2.02081752,0 L2.02081752,0 C0.430487508,18.9904113 0.488955523,17.7391958 0.0212114016,25.3166506 C-0.306209483,30.6489336 3.19017782,43.0441528 8.20673353,48.2010317 C13.2232892,53.3579107 31.1729699,62.420453 31.1729699,62.420453 Z" id="Path" fill="#216DF2"></path>
                        <path d="M31.1729699,62.420453 C31.1729699,62.420453 49.8827348,57.5676078 55.6126002,44.65787 C55.6126002,44.65787 55.2384049,44.1082707 54.5718696,43.2312504 L49.7073307,39.1735702 C42.800822,39.7527874 35.9383205,40.7722028 29.1616702,42.2256006 C18.8946867,44.5643212 10.9079558,39.5594591 7.86761904,28.1932769 C4.82728225,16.8270948 2.02081752,0 2.02081752,0 L2.02081752,0 C0.430487508,18.9904113 0.488955523,17.7391958 0.0212114016,25.3166506 C-0.306209483,30.6489336 3.19017782,43.0441528 8.20673353,48.2010317 C13.2232892,53.3579107 31.1729699,62.420453 31.1729699,62.420453 Z" id="Path" fill="#FFFFFF" opacity="0.5"></path>
                    </g>
                    <path d="M311.988287,80.7914484 C308.852851,76.3171833 304.953896,72.430104 300.470088,69.3083303 C294.600067,65.8035924 288.523947,62.6561934 282.274842,59.8832862 L278.497808,38.8348007 C282.115756,35.3627216 285.360826,31.5219383 288.180111,27.3750698 C291.594643,21.8673827 290.518832,18.1722042 288.332128,14.3600896 C286.145424,10.547975 283.116781,13.0153252 282.660731,14.7576721 C282.325412,16.5922266 282.1222,18.4484829 282.052663,20.3121335 C282.052663,20.3121335 280.017976,6.27980989 278.836922,3.08745626 C277.655868,-0.104897371 273.153831,2.97052023 273.551414,4.0346381 C273.551414,4.0346381 272.194956,0.0471194684 269.400185,0 C266.605414,-0.0464293559 265.810249,4.67778627 265.810249,4.67778627 C265.810249,4.67778627 262.220312,3.01729464 260.209013,5.09875598 C258.197713,7.18021732 259.156588,12.3955643 259.156588,12.3955643 C259.156588,12.3955643 255.952541,13.5649246 255.46141,18.1137362 C254.970279,22.6625477 255.367861,30.6258914 256.63077,32.8125952 C257.279827,33.8503523 257.846746,34.9372721 258.326343,36.0634168 C256.736013,55.0538282 256.794481,53.8026126 256.326737,61.3800674 C255.999316,66.7123504 259.495703,79.1075696 264.512259,84.2644485 C269.528814,89.4213275 287.478495,98.5306442 287.478495,98.5306442 C287.478495,98.5306442 306.223341,93.7011862 311.988287,80.7914484 Z" id="Path" stroke="#263238" stroke-width="1.19148457" stroke-linecap="round" stroke-linejoin="round"></path>
                    <path d="M280.813141,51.7094577 L278.474421,38.8464943 C282.092369,35.3744152 285.337439,31.5336319 288.156724,27.3867634 C291.571256,21.8790763 290.495445,18.1838978 288.308741,14.3717832 C286.122037,10.5596686 283.093394,13.0270188 282.637343,14.7693657 C282.302025,16.6039202 282.098813,18.4601765 282.029276,20.3238271 C282.029276,20.3238271 279.994589,6.29150349 278.813535,3.09914986 C277.632481,-0.0932037681 273.130444,2.98221383 273.528027,4.04633171 C273.528027,4.04633171 272.171569,0.0588130714 269.376798,0.011693603 C266.582026,-0.0347357529 265.786861,4.68947987 265.786861,4.68947987 C265.786861,4.68947987 262.196925,3.02898824 260.185626,5.11044958 C258.174326,7.19191092 259.133201,12.4072579 259.133201,12.4072579 C259.133201,12.4072579 255.929154,13.5766182 255.438023,18.1254298 C254.946891,22.6742413 255.344474,30.637585 256.607383,32.8242888 C257.25644,33.8620459 257.823359,34.9489657 258.302955,36.0751104 C257.601339,44.4711174 257.21545,48.9380738 256.969885,51.9082489 L280.813141,51.7094577 Z" id="Path" stroke="#263238" stroke-width="1.19148457" fill="#FFFFFF" fill-rule="nonzero" stroke-linecap="round" stroke-linejoin="round"></path>
                    <path d="M262.150151,81.0837885 C262.582156,81.7887389 263.054587,82.4681032 263.565077,83.1184754 C268.499777,78.9906336 279.6087,69.0861518 284.613562,60.5849024 C283.21033,60.1405455 282.274842,59.8832862 282.274842,59.8832862 C282.274842,59.8832862 271.937697,73.4361721 262.150151,81.0837885 Z" id="Path" stroke="#263238" stroke-width="1.19148457" fill="#FFFFFF" fill-rule="nonzero" stroke-linecap="round" stroke-linejoin="round"></path>
                    <path d="M282.052663,20.2887463 C282.052663,20.2887463 271.002208,19.8794702 269.832848,29.1992718" id="Path" stroke="#263238" stroke-width="1.19148457" stroke-linecap="round" stroke-linejoin="round"></path>
                    <line x1="273.551414" y1="4.0112509" x2="273.925609" y2="15.763322" id="Path" stroke="#263238" stroke-width="1.19148457" stroke-linecap="round" stroke-linejoin="round"></line>
                    <line x1="265.810249" y1="4.70117348" x2="266.570333" y2="15.3306586" id="Path" stroke="#263238" stroke-width="1.19148457" stroke-linecap="round" stroke-linejoin="round"></line>
                    <line x1="259.156588" y1="12.4189515" x2="260.349336" y2="19.0492244" id="Path" stroke="#263238" stroke-width="1.19148457" stroke-linecap="round" stroke-linejoin="round"></line>
                    <path d="M276.147394,15.2137226 C276.147394,15.2137226 263.670319,17.3068776 258.864248,21.387945" id="Path" stroke="#263238" stroke-width="1.19148457" stroke-linecap="round" stroke-linejoin="round"></path>
                    <path d="M273.212299,88.9185026 C277.281673,85.4104216 276.965946,78.3942598 272.487296,73.1438321 C268.172356,68.0921955 261.565471,66.607108 257.449322,69.6357511 C258.840861,75.0148085 261.390067,81.0487077 264.547339,84.2644485 C266.850604,86.3624668 269.362176,88.2196974 272.042939,89.8072164 C272.462745,89.5527051 272.854678,89.2548355 273.212299,88.9185026 L273.212299,88.9185026 Z" id="Path" fill="#216DF2" fill-rule="nonzero"></path>
                    <path d="M273.212299,88.9185026 C277.281673,85.4104216 276.965946,78.3942598 272.487296,73.1438321 C268.172356,68.0921955 261.565471,66.607108 257.449322,69.6357511 C258.840861,75.0148085 261.390067,81.0487077 264.547339,84.2644485 C266.850604,86.3624668 269.362176,88.2196974 272.042939,89.8072164 C272.462745,89.5527051 272.854678,89.2548355 273.212299,88.9185026 L273.212299,88.9185026 Z" id="Path" stroke="#263238" stroke-width="1.19148457" stroke-linecap="round" stroke-linejoin="round"></path>
                    <path d="M265.272343,102.588325 C265.272343,102.588325 260.045302,103.137924 258.396504,104.55285 C256.747706,105.967776 244.20047,116.702503 242.165783,123.063823 C240.131096,129.425143 247.860568,148.462329 256.303349,155.805912 C264.746131,163.149495 275.293761,170.925741 284.251061,169.323717 C293.208361,167.721693 303.498731,153.923242 304.562849,150.169595 C305.626967,146.415949 270.581239,103.395183 270.581239,103.395183 C270.581239,103.395183 268.090501,100.892752 265.272343,102.588325 Z" id="Path" fill="#FFFFFF" fill-rule="nonzero"></path>
                    <g id="Group" transform="translate(241.754872, 101.999006)" fill-rule="nonzero">
                        <path d="M23.5174705,0.589318181 C23.5174705,0.589318181 22.4884335,0.694560608 21.1787499,0.940126272 L22.3481102,2.91634519 C22.3481102,2.91634519 21.2722988,14.0018809 28.8731407,26.5608105 C36.4739827,39.1197402 49.7929966,47.0947775 49.4071077,51.6552826 C49.0212188,56.2157878 50.576468,62.308155 39.1401242,61.5480708 C27.7037804,60.7879866 15.5658205,41.3882992 11.3795106,31.8813999 C9.20450043,26.9350058 7.33352394,19.4277127 5.19359458,13.615992 C3.13021797,15.7805686 1.48141855,18.3052927 0.329055721,21.0648171 C-1.70563121,27.4261372 6.0238404,46.4633229 14.4666218,53.8069056 C22.9094032,61.1504883 33.4570331,68.9267343 42.4143331,67.3247107 C51.371633,65.7226871 61.6620037,51.9242355 62.7261215,48.1705889 C63.7902394,44.4169424 28.7445111,1.39617679 28.7445111,1.39617679 C28.7445111,1.39617679 26.3356289,-1.10625426 23.5174705,0.589318181 Z" id="Path" fill="#216DF2"></path>
                        <path d="M23.5174705,0.589318181 C23.5174705,0.589318181 22.4884335,0.694560608 21.1787499,0.940126272 L22.3481102,2.91634519 C22.3481102,2.91634519 21.2722988,14.0018809 28.8731407,26.5608105 C36.4739827,39.1197402 49.7929966,47.0947775 49.4071077,51.6552826 C49.0212188,56.2157878 50.576468,62.308155 39.1401242,61.5480708 C27.7037804,60.7879866 15.5658205,41.3882992 11.3795106,31.8813999 C9.20450043,26.9350058 7.33352394,19.4277127 5.19359458,13.615992 C3.13021797,15.7805686 1.48141855,18.3052927 0.329055721,21.0648171 C-1.70563121,27.4261372 6.0238404,46.4633229 14.4666218,53.8069056 C22.9094032,61.1504883 33.4570331,68.9267343 42.4143331,67.3247107 C51.371633,65.7226871 61.6620037,51.9242355 62.7261215,48.1705889 C63.7902394,44.4169424 28.7445111,1.39617679 28.7445111,1.39617679 C28.7445111,1.39617679 26.3356289,-1.10625426 23.5174705,0.589318181 Z" id="Path" fill="#FFFFFF" opacity="0.5"></path>
                    </g>
                    <path d="M265.272343,102.588325 C265.272343,102.588325 260.045302,103.137924 258.396504,104.55285 C256.747706,105.967776 244.20047,116.702503 242.165783,123.063823 C240.131096,129.425143 247.860568,148.462329 256.303349,155.805912 C264.746131,163.149495 275.293761,170.925741 284.251061,169.323717 C293.208361,167.721693 303.498731,153.923242 304.562849,150.169595 C305.626967,146.415949 270.581239,103.395183 270.581239,103.395183 C270.581239,103.395183 268.090501,100.892752 265.272343,102.588325 Z" id="Path" stroke="#263238" stroke-width="1.19148457" stroke-linecap="round" stroke-linejoin="round"></path>
                    <path d="M309.918519,77.0845763 C309.918519,77.0845763 304.375751,75.2135998 296.120068,78.7216807 C287.864384,82.2297616 267.213481,94.356028 264.184838,104.915352 C262.185232,111.849658 284.063963,144.229245 297.733785,149.561528 C301.405576,150.988147 304.749947,152.543397 312.268933,146.415949 C319.78792,140.288501 335.550897,123.274308 339.678739,115.778709 C343.806581,108.283109 337.340018,102.693567 335.176702,99.4076645 C333.013385,96.121762 315.718546,74.6055324 309.918519,77.0845763 Z" id="Path" fill="#FFFFFF" fill-rule="nonzero"></path>
                    <g id="Group" transform="translate(275.866747, 76.605139)" fill-rule="nonzero">
                        <path d="M63.8587662,39.0683277 L49.6042641,43.6054457 C49.6042641,43.6054457 34.7767754,61.1458503 29.4561861,65.6712747 C24.1355967,70.196699 7.39035712,59.2047122 1.68387884,53.8724292 L0,52.3054864 C6.81737057,61.56682 15.2952328,70.4071839 21.8670377,72.9797766 C25.538829,74.4063961 28.8831995,75.9616453 36.4021863,69.8341973 C43.921173,63.7067493 59.6841499,46.6925569 63.8119918,39.1969574 C63.8344958,39.1569195 63.850296,39.1134688 63.8587662,39.0683277 L63.8587662,39.0683277 Z" id="Path" fill="#216DF2"></path>
                        <path d="M56.4567155,37.5013849 L64.1277191,38.4953412 C67.5305575,31.3388561 61.449884,25.9831859 59.3099546,22.7791387 C57.1700252,19.5750915 39.8517992,-1.99960612 34.051772,0.479437725 C32.989179,0.181071475 31.8927641,0.0199495709 30.7892568,3.32352188e-14 C23.773095,5.28550857 24.56826,11.3544885 30.9763544,22.2880074 C37.3844489,33.2215262 56.4567155,37.5013849 56.4567155,37.5013849 Z" id="Path" fill="#216DF2"></path>
                        <g opacity="0.5" transform="translate(0.000000, 0.000000)" fill="#FFFFFF" id="Path">
                            <path d="M63.8587662,39.0683277 L49.6042641,43.6054457 C49.6042641,43.6054457 34.7767754,61.1458503 29.4561861,65.6712747 C24.1355967,70.196699 7.39035712,59.2047122 1.68387884,53.8724292 L0,52.3054864 C6.81737057,61.56682 15.2952328,70.4071839 21.8670377,72.9797766 C25.538829,74.4063961 28.8831995,75.9616453 36.4021863,69.8341973 C43.921173,63.7067493 59.6841499,46.6925569 63.8119918,39.1969574 C63.8344958,39.1569195 63.850296,39.1134688 63.8587662,39.0683277 L63.8587662,39.0683277 Z"></path>
                            <path d="M56.4567155,37.5013849 L64.1277191,38.4953412 C67.5305575,31.3388561 61.449884,25.9831859 59.3099546,22.7791387 C57.1700252,19.5750915 39.8517992,-1.99960612 34.051772,0.479437725 C32.989179,0.181071475 31.8927641,0.0199495709 30.7892568,1.66176094e-14 C23.773095,5.28550857 24.56826,11.3544885 30.9763544,22.2880074 C37.3844489,33.2215262 56.4567155,37.5013849 56.4567155,37.5013849 Z"></path>
                        </g>
                    </g>
                    <path d="M309.918519,77.0845763 C309.918519,77.0845763 304.375751,75.2135998 296.120068,78.7216807 C287.864384,82.2297616 267.213481,94.356028 264.184838,104.915352 C262.185232,111.849658 284.063963,144.229245 297.733785,149.561528 C301.405576,150.988147 304.749947,152.543397 312.268933,146.415949 C319.78792,140.288501 335.550897,123.274308 339.678739,115.778709 C343.806581,108.283109 337.340018,102.693567 335.176702,99.4076645 C333.013385,96.121762 315.718546,74.6055324 309.918519,77.0845763 Z" id="Path" stroke="#263238" stroke-width="1.19148457" stroke-linecap="round" stroke-linejoin="round"></path>
                    <path d="M282.973735,92.7876184 L309.034235,92.7876184 C312.287192,92.7876184 314.924235,95.4246612 314.924235,98.6776184 L314.924235,119.19535 C314.924235,122.448307 312.287192,125.08535 309.034235,125.08535 L282.973735,125.08535 C279.720778,125.08535 277.083735,122.448307 277.083735,119.19535 L277.083735,98.6776184 C277.083735,95.4246612 279.720778,92.7876184 282.973735,92.7876184 Z" id="Rectangle" stroke="#263238" stroke-width="1.19148457" fill="#FFFFFF" fill-rule="nonzero" stroke-linecap="round" stroke-linejoin="round" transform="translate(296.003985, 108.936484) rotate(53.910000) translate(-296.003985, -108.936484) "></path>
                    <path d="M495.998824,224.540911 C478.516888,178.935859 434.782812,179.438684 396.205616,179.918121 C382.909989,180.081832 370.35106,180.245542 358.786086,178.748761 C319.764533,173.814061 308.608836,133.705002 308.503593,133.143709 C308.248752,132.180744 307.499534,131.426884 306.538161,131.1661 C305.576789,130.905317 304.549317,131.177229 303.842786,131.87941 C303.136254,132.581592 302.858001,133.607364 303.112842,134.570329 C303.229778,135.014686 315.262496,178.818923 358.072777,184.244755 C370.035332,185.764923 383.377734,185.589519 396.287471,185.414115 C434.876361,184.934677 474.704773,184.431852 490.806865,226.446968 C498.121364,246.199867 494.111585,268.367894 480.34109,284.306916 C468.36684,298.093674 451.376035,303.683216 433.742082,299.637229 C417.102085,295.813421 400.660879,290.5513 384.757579,285.464582 C358.435278,277.045188 331.224264,268.333454 302.341064,265.912878 C252.818656,261.749955 218.369301,285.873859 178.517502,313.786489 C170.49569,319.411112 162.204926,325.211139 153.516579,330.987779 L148.570185,334.285375 C123.908376,350.749968 98.4163211,367.775854 69.5682024,370.851272 C47.1398718,373.189992 24.3373459,362.735911 12.7957597,344.716069 C6.31921223,334.81917 4.08640446,322.736731 6.59815007,311.178815 C8.92423949,301.167555 15.2962898,292.568463 24.1970226,287.429108 C39.1297537,278.530276 65.5105222,275.571794 88.0090144,278.074225 L88.3949033,272.519764 C64.7855188,270.005639 37.23539,273.233074 21.3437835,282.693198 C11.1726618,288.657413 3.88432914,298.523069 1.17231827,309.997762 C-1.71439953,323.051355 0.781081617,336.717487 8.09493126,347.908423 C19.6715983,365.998427 40.6148413,376.931945 62.8443807,376.967026 C65.285616,376.967026 67.725128,376.837337 70.1528826,376.581137 C100.357459,373.365396 127.615248,355.17015 151.645602,339.161608 L156.580303,335.864011 C165.338811,330.01721 173.652963,324.170408 181.698162,318.59256 C220.672941,291.287997 254.32713,267.701999 301.861627,271.701212 C330.113372,274.039932 357.020352,282.681505 383.038619,291.00735 C399.058855,296.129148 415.616997,301.426351 432.479173,305.296933 C452.194587,309.822358 471.161612,303.589667 484.539093,288.200886 C499.707649,270.6706 504.101841,246.260421 495.998824,224.540911 Z" id="Path" stroke="#263238" stroke-width="1.19148457" fill="#FFFFFF" fill-rule="nonzero" stroke-linecap="round" stroke-linejoin="round"></path>
                    <path d="M301.744691,96.8935398 C301.744691,98.9924544 300.043184,100.693961 297.94427,100.693961 C295.845355,100.693961 294.143849,98.9924544 294.143849,96.8935398 C294.143849,94.7946253 295.845355,93.0931188 297.94427,93.0931188 C300.043184,93.0931188 301.744691,94.7946253 301.744691,96.8935398 Z" id="Path" stroke="#263238" stroke-width="1.19148457" fill="#216DF2" fill-rule="nonzero" stroke-linecap="round" stroke-linejoin="round"></path>
                    <path d="M291.430951,105.570193 C291.435662,107.109438 290.511457,108.499532 289.09028,109.090762 C287.669103,109.681992 286.031642,109.357588 284.943226,108.269172 C283.854811,107.180757 283.530407,105.543296 284.121637,104.122119 C284.712867,102.700942 286.102961,101.776737 287.642205,101.781448 C289.734662,101.781448 291.430951,103.477737 291.430951,105.570193 Z" id="Path" stroke="#263238" stroke-width="1.19148457" fill="#216DF2" fill-rule="nonzero" stroke-linecap="round" stroke-linejoin="round"></path>
                    <circle id="Oval" fill="#FFFFFF" fill-rule="nonzero" transform="translate(335.112722, 76.736877) rotate(-16.200000) translate(-335.112722, -76.736877) " cx="335.112722" cy="76.7368771" r="30.988048"></circle>
                    <g id="Group" transform="translate(305.311240, 53.077609)" fill-rule="nonzero">
                        <path d="M53.3462171,3.50808091 C52.2706828,2.24851493 51.0977021,1.0755343 49.8381361,1.66176094e-14 C53.5801982,13.1202885 48.2903768,27.1433994 36.8151611,34.5234009 C25.3399454,41.9034024 10.385941,40.8996078 -6.64704375e-14,32.0521659 C3.43819574,44.259705 13.9705143,53.1382487 26.5837428,54.4617541 C39.1969713,55.7852596 51.3428465,49.2863377 57.2401289,38.05837 C63.1374113,26.8304022 61.5946669,13.1417861 53.3462171,3.50808091 L53.3462171,3.50808091 Z" id="Path" fill="#216DF2"></path>
                        <path d="M53.3462171,3.50808091 C52.2706828,2.24851493 51.0977021,1.0755343 49.8381361,1.66176094e-14 C53.5801982,13.1202885 48.2903768,27.1433994 36.8151611,34.5234009 C25.3399454,41.9034024 10.385941,40.8996078 -6.64704375e-14,32.0521659 C3.43819574,44.259705 13.9705143,53.1382487 26.5837428,54.4617541 C39.1969713,55.7852596 51.3428465,49.2863377 57.2401289,38.05837 C63.1374113,26.8304022 61.5946669,13.1417861 53.3462171,3.50808091 L53.3462171,3.50808091 Z" id="Path" fill="#FFFFFF" opacity="0.5"></path>
                    </g>
                    <circle id="Oval" stroke="#263238" stroke-width="1.19148457" stroke-linecap="round" stroke-linejoin="round" transform="translate(335.112722, 76.736877) rotate(-16.200000) translate(-335.112722, -76.736877) " cx="335.112722" cy="76.7368771" r="30.988048"></circle>
                    <line x1="362.621588" y1="98.1447553" x2="371.64905" y2="90.4269773" id="Path" stroke="#263238" stroke-width="1.19148457" stroke-linecap="round" stroke-linejoin="round"></line>
                    <path d="M374.046238,91.3975464 C374.693785,90.8439982 374.996829,89.9870365 374.841215,89.1494703 C374.685602,88.3119042 374.094973,87.6209798 373.291813,87.3369618 C372.488653,87.0529439 371.59498,87.2189813 370.947434,87.7725295 C369.946413,88.6282408 369.828616,90.1334195 370.684327,91.1344403 C371.540039,92.1354611 373.045218,92.2532577 374.046238,91.3975464 L374.046238,91.3975464 Z" id="Path" fill="#263238" fill-rule="nonzero"></path>
                    <path d="M351.55944,107.499638 L351.55944,107.499638 C350.857694,106.678149 350.511434,105.611318 350.596981,104.534298 C350.682528,103.457279 351.192861,102.458487 352.01549,101.758079 L357.955841,96.6596678 C359.672659,95.2035826 362.243117,95.4073384 363.709093,97.1157183 L363.709093,97.1157183 C364.412224,97.9357264 364.760481,99.001645 364.677131,100.078612 C364.593781,101.15558 364.085664,102.155221 363.264736,102.857277 L357.312692,107.955688 C355.598014,109.418389 353.02226,109.214214 351.55944,107.499638 L351.55944,107.499638 Z" id="Path" stroke="#263238" stroke-width="1.19148457" fill="#FFFFFF" fill-rule="nonzero" stroke-linecap="round" stroke-linejoin="round"></path>
                    <path d="M341.865443,112.609742 C341.865443,112.609742 329.832725,109.358921 325.096816,118.398076 C320.360907,127.437231 325.704883,149.970804 325.704883,149.970804 C325.704883,149.970804 316.911294,164.260387 314.677816,165.815636 C312.444338,167.370885 306.153179,166.692656 299.955569,169.849929 C293.75796,173.007202 295.80434,176.24633 297.453138,177.333835 C299.101936,178.42134 304.153573,175.170519 305.638661,175.287455 C307.123748,175.404391 306.960038,178.082226 301.113236,184.151206 C295.266435,190.220186 292.5886,190.372203 294.260785,193.178667 C295.191958,194.826905 297.088727,195.675709 298.938226,195.271822 C298.512002,196.709306 299.210512,198.241037 300.57533,198.861758 C302.984213,200.031119 304.01325,199.130711 304.01325,199.130711 C304.01325,199.130711 303.779378,202.182742 306.012856,203.11823 C307.76484,203.63376 309.628236,203.63376 311.38022,203.11823 C311.38022,203.11823 313.496762,205.597274 315.636691,205.187998 C317.77662,204.778721 322.652853,198.814984 326.511742,193.73996 C330.370631,188.664936 345.221507,170.621707 351.068308,159.559558 C356.91511,148.49741 354.143726,137.341713 352.950978,130.524342 C351.758231,123.706972 346.355786,114.106523 341.865443,112.609742 Z" id="Path" fill="#FFFFFF" fill-rule="nonzero"></path>
                    <g id="Group" transform="translate(303.998188, 112.539581)" fill-rule="nonzero">
                        <path d="M48.9527907,18.0198423 C47.7834304,11.2024717 42.3575986,1.56694281 37.8672551,0.0701616182 L37.5866086,0 C41.7001984,9.866734 43.3497228,20.5866363 42.3926794,31.2336137 C40.872511,50.6216075 23.0865408,65.9168403 17.6724026,71.5414634 C13.3340759,76.0551942 7.87316327,82.3814334 0.00336842952,87.0588746 C-0.0578316075,88.5149009 0.718963599,89.8776995 2.00297455,90.5669555 C3.75495863,91.082486 5.61835426,91.082486 7.37033834,90.5669555 C7.37033834,90.5669555 9.48688049,93.0459994 11.6268098,92.6367233 C13.7667392,92.2274472 18.6429717,86.2637096 22.5018607,81.1886859 C26.3607497,76.1136622 41.2116255,58.0704327 47.0584271,47.0082842 C52.9052286,35.9461357 50.1455383,24.8372129 48.9527907,18.0198423 Z" id="Path" fill="#216DF2"></path>
                        <path d="M48.9527907,18.0198423 C47.7834304,11.2024717 42.3575986,1.56694281 37.8672551,0.0701616182 L37.5866086,0 C41.7001984,9.866734 43.3497228,20.5866363 42.3926794,31.2336137 C40.872511,50.6216075 23.0865408,65.9168403 17.6724026,71.5414634 C13.3340759,76.0551942 7.87316327,82.3814334 0.00336842952,87.0588746 C-0.0578316075,88.5149009 0.718963599,89.8776995 2.00297455,90.5669555 C3.75495863,91.082486 5.61835426,91.082486 7.37033834,90.5669555 C7.37033834,90.5669555 9.48688049,93.0459994 11.6268098,92.6367233 C13.7667392,92.2274472 18.6429717,86.2637096 22.5018607,81.1886859 C26.3607497,76.1136622 41.2116255,58.0704327 47.0584271,47.0082842 C52.9052286,35.9461357 50.1455383,24.8372129 48.9527907,18.0198423 Z" id="Path" fill="#FFFFFF" opacity="0.5"></path>
                    </g>
                    <path d="M341.865443,112.609742 C341.865443,112.609742 329.832725,109.358921 325.096816,118.398076 C320.360907,127.437231 325.704883,149.970804 325.704883,149.970804 C325.704883,149.970804 316.911294,164.260387 314.677816,165.815636 C312.444338,167.370885 306.153179,166.692656 299.955569,169.849929 C293.75796,173.007202 295.80434,176.24633 297.453138,177.333835 C299.101936,178.42134 304.153573,175.170519 305.638661,175.287455 C307.123748,175.404391 306.960038,178.082226 301.113236,184.151206 C295.266435,190.220186 292.5886,190.372203 294.260785,193.178667 C295.191958,194.826905 297.088727,195.675709 298.938226,195.271822 C298.512002,196.709306 299.210512,198.241037 300.57533,198.861758 C302.984213,200.031119 304.01325,199.130711 304.01325,199.130711 C304.01325,199.130711 303.779378,202.182742 306.012856,203.11823 C307.76484,203.63376 309.628236,203.63376 311.38022,203.11823 C311.38022,203.11823 313.496762,205.597274 315.636691,205.187998 C317.77662,204.778721 322.652853,198.814984 326.511742,193.73996 C330.370631,188.664936 345.221507,170.621707 351.068308,159.559558 C356.91511,148.49741 354.143726,137.341713 352.950978,130.524342 C351.758231,123.706972 346.355786,114.106523 341.865443,112.609742 Z" id="Path" stroke="#263238" stroke-width="1.19148457" stroke-linecap="round" stroke-linejoin="round"></path>
                    <path d="M315.624998,205.223078 C317.764927,204.813802 322.641159,198.850065 326.500048,193.775041 C328.686752,190.910108 334.39323,183.882253 339.994466,176.316492 C336.24082,163.453528 325.131897,159.606333 320.185503,158.542215 C317.952025,161.886586 315.660078,165.090633 314.677816,165.780555 C312.444338,167.335805 306.153179,166.657576 299.955569,169.814848 C293.75796,172.972121 295.80434,176.211249 297.453138,177.298754 C299.101936,178.386259 304.153573,175.135438 305.638661,175.252374 C307.123748,175.36931 306.960038,178.047145 301.113236,184.116125 C295.266435,190.185105 292.5886,190.372203 294.260785,193.178667 C295.191958,194.826905 297.088727,195.675709 298.938226,195.271822 C298.512002,196.709306 299.210512,198.241037 300.57533,198.861758 C302.984213,200.031119 304.01325,199.130711 304.01325,199.130711 C304.01325,199.130711 303.779378,202.182742 306.012856,203.11823 C307.76484,203.63376 309.628236,203.63376 311.38022,203.11823 C311.38022,203.11823 313.485068,205.632354 315.624998,205.223078 Z" id="Path" stroke="#263238" stroke-width="1.19148457" stroke-linecap="round" stroke-linejoin="round"></path>
                    <path d="M298.938226,195.271822 C303.392043,192.960234 307.361521,189.816407 310.631829,186.010489" id="Path" stroke="#263238" stroke-width="1.19148457" stroke-linecap="round" stroke-linejoin="round"></path>
                    <path d="M304.001556,199.130711 C308.682168,196.855732 312.851534,193.653118 316.256452,189.717361" id="Path" stroke="#263238" stroke-width="1.19148457" stroke-linecap="round" stroke-linejoin="round"></path>
                    <path d="M311.368526,203.153311 C311.368526,203.153311 318.104041,198.113368 321.308089,193.950445" id="Path" stroke="#263238" stroke-width="1.19148457" stroke-linecap="round" stroke-linejoin="round"></path>
                    <path d="M353.488884,153.467191 C353.73445,152.578477 353.921547,151.689764 354.085258,150.812743 C344.286019,144.276019 331.937574,146.415949 325.354075,148.322006 C325.56456,149.339349 325.704883,149.935723 325.704883,149.935723 L324.68754,151.572828 C340.42713,147.772407 349.103783,150.613952 353.488884,153.467191 Z" id="Path" stroke="#263238" stroke-width="1.19148457" fill="#FFFFFF" fill-rule="nonzero" stroke-linecap="round" stroke-linejoin="round"></path>
                    <path d="M346.65982,159.442622 C347.530545,160.458494 348.5663,161.320306 349.723544,161.991828 C350.202982,161.161582 350.659032,160.366417 351.068308,159.653107 C354.048641,153.779498 355.236068,147.159186 354.48284,140.615922 C352.000948,140.724782 349.626401,141.658963 347.735631,143.270369 C342.997048,147.451138 342.516766,154.671029 346.65982,159.442622 L346.65982,159.442622 Z" id="Path" stroke="#263238" stroke-width="1.19148457" fill="#216DF2" fill-rule="nonzero" stroke-linecap="round" stroke-linejoin="round"></path>
                    <path d="M235.862931,116.807746 C235.862931,116.807746 240.72747,130.840069 246.983548,131.8808 C253.239625,132.921531 261.939666,122.303739 263.7054,114.340396 C265.471134,106.377052 259.261831,99.9689574 250.281144,91.9705329 C241.300457,83.9721085 228.4258,79.3180545 217.539055,85.3870344 C206.652311,91.4560144 190.561913,108.774241 190.561913,108.774241 C190.561913,108.774241 180.493721,99.922183 175.149744,104.494382 C169.805768,109.066581 176.775155,123.05213 181.698162,128.817076 C186.621169,134.582022 195.601856,143.036497 204.220041,141.025198 C212.838227,139.013898 219.667291,122.841645 225.268527,118.082349 C230.869763,113.323052 234.623409,115.369433 235.862931,116.807746 Z" id="Path" fill="#FFFFFF" fill-rule="nonzero"></path>
                    <g id="Group" transform="translate(177.020721, 100.451219)" fill-rule="nonzero">
                        <path d="M72.8043725,19.7593648 C63.2974732,15.1988596 65.9636147,3.78590307 56.4333283,0.745566277 C46.9030418,-2.29477051 47.6865132,4.17179197 40.062284,16.3448327 C32.4380548,28.5178735 18.382344,27.7460957 8.87544471,24.7057589 C5.86158055,23.73048 2.89927216,22.6025392 -3.32352188e-14,21.3263076 C1.2997504,23.8679767 2.86782978,26.2632179 4.67744121,28.4710991 C9.60044809,34.2360454 18.5460544,42.6086652 27.1525463,40.5973654 C35.7590381,38.5860657 42.5997959,22.4138127 48.2010317,17.6545163 C53.8022676,12.8952198 57.6260758,14.9416004 58.8539041,16.3799135 C58.8539041,16.3799135 63.7184429,30.4122372 69.9745206,31.4529679 C76.2305982,32.4936985 84.9306389,21.875907 86.6963729,13.9125633 C86.9892236,12.6086152 87.064297,11.2651962 86.9185514,9.93673826 L86.4741945,9.84318944 C86.4741945,9.84318944 82.276191,24.3081764 72.8043725,19.7593648 Z" id="Path" fill="#216DF2"></path>
                        <path d="M72.8043725,19.7593648 C63.2974732,15.1988596 65.9636147,3.78590307 56.4333283,0.745566277 C46.9030418,-2.29477051 47.6865132,4.17179197 40.062284,16.3448327 C32.4380548,28.5178735 18.382344,27.7460957 8.87544471,24.7057589 C5.86158055,23.73048 2.89927216,22.6025392 -3.32352188e-14,21.3263076 C1.2997504,23.8679767 2.86782978,26.2632179 4.67744121,28.4710991 C9.60044809,34.2360454 18.5460544,42.6086652 27.1525463,40.5973654 C35.7590381,38.5860657 42.5997959,22.4138127 48.2010317,17.6545163 C53.8022676,12.8952198 57.6260758,14.9416004 58.8539041,16.3799135 C58.8539041,16.3799135 63.7184429,30.4122372 69.9745206,31.4529679 C76.2305982,32.4936985 84.9306389,21.875907 86.6963729,13.9125633 C86.9892236,12.6086152 87.064297,11.2651962 86.9185514,9.93673826 L86.4741945,9.84318944 C86.4741945,9.84318944 82.276191,24.3081764 72.8043725,19.7593648 Z" id="Path" fill="#FFFFFF" opacity="0.5"></path>
                    </g>
                    <path d="M235.862931,116.807746 C235.862931,116.807746 240.72747,130.840069 246.983548,131.8808 C253.239625,132.921531 261.939666,122.303739 263.7054,114.340396 C265.471134,106.377052 259.261831,99.9689574 250.281144,91.9705329 C241.300457,83.9721085 228.4258,79.3180545 217.539055,85.3870344 C206.652311,91.4560144 190.561913,108.774241 190.561913,108.774241 C190.561913,108.774241 180.493721,99.922183 175.149744,104.494382 C169.805768,109.066581 176.775155,123.05213 181.698162,128.817076 C186.621169,134.582022 195.601856,143.036497 204.220041,141.025198 C212.838227,139.013898 219.667291,122.841645 225.268527,118.082349 C230.869763,113.323052 234.623409,115.369433 235.862931,116.807746 Z" id="Path" stroke="#263238" stroke-width="1.19148457" stroke-linecap="round" stroke-linejoin="round"></path>
                    <path d="M205.19061,94.6951425 C197.426058,101.500819 190.596994,108.856096 190.596994,108.856096 C190.596994,108.856096 180.528802,100.004038 175.184825,104.576237 C169.840848,109.148436 176.810236,123.133985 181.733243,128.898931 C186.65625,134.663878 195.601856,143.036497 204.220041,141.025198 C211.984594,139.212689 218.252365,125.823514 223.537874,119.801308 C216.196499,112.401043 210.011395,103.937423 205.19061,94.6951425 L205.19061,94.6951425 Z" id="Path" stroke="#263238" stroke-width="1.19148457" stroke-linecap="round" stroke-linejoin="round"></path>
                    <path d="M231.115328,82.7910546 C230.160365,82.6802149 229.200057,82.6216595 228.238702,82.6156505 C231.095174,93.2861416 231.747694,104.426739 230.156453,115.357739 C231.091066,115.107596 232.069496,115.067661 233.021386,115.240803 C233.664534,106.950038 234.143972,93.2100549 231.115328,82.7910546 Z" id="Path" stroke="#263238" stroke-width="1.19148457" stroke-linecap="round" stroke-linejoin="round"></path>
                    <path d="M237.67544,101.009688 C233.35046,104.68356 226.866478,104.157395 223.190444,99.8342531 C219.51441,95.5111112 220.037333,89.0268668 224.358636,85.3486714 C228.679939,81.6704761 235.164444,82.1901567 238.8448,86.5096203 C240.614527,88.586667 241.485716,91.2821777 241.266368,94.0020936 C241.04702,96.7220094 239.755139,99.243079 237.67544,101.009688 L237.67544,101.009688 Z" id="Path" stroke="#263238" stroke-width="1.19148457" fill="#216DF2" fill-rule="nonzero" stroke-linecap="round" stroke-linejoin="round"></path>
                    <path d="M204.220041,141.025198 C206.267677,140.447314 208.13999,139.370532 209.66926,137.891312 C204.161573,138.803413 193.988139,138.499379 184.738499,127.367069 C175.734424,116.56218 175.582408,108.15448 176.471121,103.734298 C176.012354,103.945539 175.583727,104.216872 175.196519,104.541156 C169.840848,109.113355 176.821929,123.098904 181.744936,128.863851 C186.667943,134.628797 195.601856,143.036497 204.220041,141.025198 Z" id="Path" stroke="#263238" stroke-width="1.19148457" stroke-linecap="round" stroke-linejoin="round"></path>
                    <path d="M264.009434,166.505559 C264.009434,166.505559 278.240549,170.691869 282.719199,166.224912 C287.197849,161.757956 287.864384,148.181683 278.182081,142.42843 C271.165919,138.288895 263.904191,137.750989 252.175507,140.370356 C240.446824,142.989723 229.185884,150.812743 227.817732,163.161188 C226.449581,175.509633 231.208877,198.733129 231.208877,198.733129 C231.208877,198.733129 218.17051,201.785159 218.778577,208.801321 C219.386645,215.817483 234.833894,218.261446 242.376268,217.59491 C249.918642,216.928375 261.95136,214.519493 265.307424,206.345664 C268.663488,198.171836 259.460622,183.215717 258.829168,175.942296 C258.197713,168.668875 262.126764,166.669269 264.009434,166.505559 Z" id="Path" fill="#FFFFFF" fill-rule="nonzero"></path>
                    <g id="Group" transform="translate(219.480193, 150.613952)" fill-rule="nonzero">
                        <path d="M44.5292404,15.8916065 C44.5292404,15.8916065 58.7603553,20.0779164 63.2390052,15.6109601 C66.162406,12.6992529 67.4370087,5.95204395 65.3204666,0 L65.3204666,0 C65.3204666,0 66.4898269,6.09236718 58.0938199,7.61253558 C49.6978129,9.13270397 36.0396846,6.09236718 29.959011,13.6932092 C23.8783374,21.2940511 32.6134589,36.8933176 33.3735431,47.160301 C34.1336273,57.4272845 31.8299875,60.8067358 21.563004,61.9760961 C11.2960205,63.1454564 2.11654215,55.7784865 0,60.2454428 C3.14557922,65.6595811 16.172253,67.5539447 22.919462,66.957571 C30.4735295,66.2910356 42.4945534,63.8821534 45.8506175,55.7083249 C49.2066816,47.5344963 40.003816,32.5783781 39.3723614,25.304957 C38.7409069,18.0315359 42.6465703,16.055317 44.5292404,15.8916065 Z" id="Path" fill="#216DF2"></path>
                        <path d="M44.5292404,15.8916065 C44.5292404,15.8916065 58.7603553,20.0779164 63.2390052,15.6109601 C66.162406,12.6992529 67.4370087,5.95204395 65.3204666,0 L65.3204666,0 C65.3204666,0 66.4898269,6.09236718 58.0938199,7.61253558 C49.6978129,9.13270397 36.0396846,6.09236718 29.959011,13.6932092 C23.8783374,21.2940511 32.6134589,36.8933176 33.3735431,47.160301 C34.1336273,57.4272845 31.8299875,60.8067358 21.563004,61.9760961 C11.2960205,63.1454564 2.11654215,55.7784865 0,60.2454428 C3.14557922,65.6595811 16.172253,67.5539447 22.919462,66.957571 C30.4735295,66.2910356 42.4945534,63.8821534 45.8506175,55.7083249 C49.2066816,47.5344963 40.003816,32.5783781 39.3723614,25.304957 C38.7409069,18.0315359 42.6465703,16.055317 44.5292404,15.8916065 Z" id="Path" fill="#FFFFFF" opacity="0.5"></path>
                    </g>
                    <path d="M264.009434,166.505559 C264.009434,166.505559 278.240549,170.691869 282.719199,166.224912 C287.197849,161.757956 287.864384,148.181683 278.182081,142.42843 C271.165919,138.288895 263.904191,137.750989 252.175507,140.370356 C240.446824,142.989723 229.185884,150.812743 227.817732,163.161188 C226.449581,175.509633 231.208877,198.733129 231.208877,198.733129 C231.208877,198.733129 218.17051,201.785159 218.778577,208.801321 C219.386645,215.817483 234.833894,218.261446 242.376268,217.59491 C249.918642,216.928375 261.95136,214.519493 265.307424,206.345664 C268.663488,198.171836 259.460622,183.215717 258.829168,175.942296 C258.197713,168.668875 262.126764,166.669269 264.009434,166.505559 Z" id="Path" stroke="#263238" stroke-width="1.19148457" stroke-linecap="round" stroke-linejoin="round"></path>
                    <path d="M228.191928,178.678599 C229.220965,188.957277 231.232264,198.779903 231.232264,198.779903 C231.232264,198.779903 218.193897,201.831933 218.801964,208.848095 C219.410032,215.864257 234.857281,218.30822 242.399655,217.641685 C249.942029,216.975149 261.974747,214.566267 265.330811,206.392439 C268.359454,199.013775 261.191275,186.139118 259.273525,178.327791 C248.989662,180.007976 238.511093,180.126244 228.191928,178.678599 L228.191928,178.678599 Z" id="Path" stroke="#263238" stroke-width="1.19148457" stroke-linecap="round" stroke-linejoin="round"></path>
                    <path d="M233.547598,150.684114 C232.905855,151.394194 232.304631,152.139869 231.746783,152.917592 C242.070549,156.798679 251.501801,162.729508 259.472316,170.352754 C259.817901,169.468277 260.352705,168.670062 261.039259,168.014033 C254.713019,162.576508 243.802888,154.203888 233.547598,150.684114 Z" id="Path" stroke="#263238" stroke-width="1.19148457" stroke-linecap="round" stroke-linejoin="round"></path>
                    <circle id="Oval" stroke="#263238" stroke-width="1.19148457" fill="#216DF2" fill-rule="nonzero" stroke-linecap="round" stroke-linejoin="round" transform="translate(241.953213, 156.779287) rotate(-17.460000) translate(-241.953213, -156.779287) " cx="241.953213" cy="156.779287" r="10.2903707"></circle>
                    <path d="M265.330811,206.345664 C266.053059,204.343873 266.262116,202.192995 265.938878,200.089587 C263.483222,205.106142 257.332386,213.209809 242.925867,214.285621 C228.893544,215.338045 221.959237,210.578749 218.895513,207.269459 C218.793182,207.765334 218.761685,208.273215 218.801964,208.777934 C219.421725,215.794096 234.857281,218.238059 242.399655,217.571523 C249.942029,216.904988 261.974747,214.519493 265.330811,206.345664 Z" id="Path" stroke="#263238" stroke-width="1.19148457" stroke-linecap="round" stroke-linejoin="round"></path>
                    <path d="M345.560621,63.6837072 C342.472425,59.6273022 339.670859,55.3604813 337.176308,50.9142927 C326.466661,49.4781338 315.962125,54.7093847 310.655081,64.1218434 C305.348037,73.5343021 306.30864,85.2299638 313.080355,93.6503539 C319.852071,102.070744 331.069394,105.517906 341.401185,102.353544 C351.732976,99.189182 359.095849,90.0513832 359.990527,79.2829736 C354.673763,74.576034 349.839856,69.3504007 345.560621,63.6837072 L345.560621,63.6837072 Z" id="Path" stroke="#263238" stroke-width="1.19148457" fill="#263238" fill-rule="nonzero" stroke-linecap="round" stroke-linejoin="round"></path>
                    <path d="M348.12152,87.667287 C345.627444,90.101584 341.898967,90.7643037 338.718789,89.3385799 C335.538611,87.912856 333.55284,84.688349 333.710932,81.2067937 C333.869025,77.7252384 336.138863,74.6939729 339.435167,73.5623376 C342.731472,72.4307022 346.384541,73.4286082 348.647733,76.0789264 C350.118973,77.6833736 350.890515,79.8077745 350.791768,81.9824118 C350.693021,84.1570492 349.732118,86.202782 348.12152,87.667287 L348.12152,87.667287 Z" id="Path" fill="#FFFFFF" fill-rule="nonzero"></path>
                    <path d="M339.433173,68.0805019 C338.662552,68.7615816 337.555929,68.907405 336.635181,68.4492028 C335.714432,67.9910005 335.163446,67.0202823 335.242064,65.9948332 C335.320682,64.9693842 336.013202,64.0940015 336.993037,63.7815106 C337.972872,63.4690197 339.044333,63.7818296 339.702126,64.572421 C340.581935,65.6201715 340.462416,67.1791121 339.433173,68.0805019 L339.433173,68.0805019 Z" id="Path" fill="#FFFFFF" fill-rule="nonzero"></path>
                    <polygon id="Rectangle" fill="#263238" fill-rule="nonzero" transform="translate(85.405238, 274.799530) rotate(5.620000) translate(-85.405238, -274.799530) " points="81.6340509 269.350311 89.1764249 269.350311 89.1764249 280.248749 81.6340509 280.248749"></polygon>
                </g>
            </g>
        </g>
    </g>
</svg>