<svg width="102" height="99" viewBox="0 0 102 99" fill="none" xmlns="http://www.w3.org/2000/svg">
<g clip-path="url(#clip0_2790_8483)">
<path d="M25.9637 5.72727H5.72736C3.62736 5.72727 1.90918 7.44545 1.90918 9.54545V24.8182H82.091V17.1818C82.091 15.0818 80.3728 13.3636 78.2728 13.3636H40.8546C39.1365 13.3636 37.4183 12.7909 36.0819 11.6455L30.7365 7.44545C29.4001 6.3 27.6819 5.72727 25.9637 5.72727Z" fill="#F19920"/>
<path d="M84 26.7273V74.4546C84 76.5546 82.2818 78.2727 80.1818 78.2727H3.81818C1.71818 78.2727 0 76.5546 0 74.4546V26.7273C0 25.5818 0.763636 24.8182 1.90909 24.8182H82.0909C83.2364 24.8182 84 25.5818 84 26.7273Z" fill="#FFCB5B"/>
<path d="M78.2725 24.8182V19.0909C78.2725 17.9455 77.5089 17.1818 76.3634 17.1818H7.63614C6.49069 17.1818 5.72705 17.9455 5.72705 19.0909V24.8182H78.2725Z" fill="white"/>
<path d="M80.182 37.8V74.4546H5.72745C4.582 74.4546 3.81836 75.2182 3.81836 76.3636C3.81836 77.5091 4.582 78.2727 5.72745 78.2727H80.182C82.282 78.2727 84.0002 76.5546 84.0002 74.4546V28.6364C81.5184 31.1182 80.182 34.3636 80.182 37.8Z" fill="#F7B84E"/>
<path d="M6.491 26.7273C4.77282 26.7273 3.05463 25.9636 1.90918 24.8182H59.1819C58.0365 25.9636 56.3183 26.7273 54.6001 26.7273H6.491Z" fill="#FFDB6F"/>
<path d="M78.2728 24.8182H82.091C81.3274 23.6727 80.1819 22.9091 79.0365 22.9091H78.2728V24.8182ZM5.72736 24.8182H1.90918C2.67282 23.6727 3.81827 22.9091 4.96373 22.9091H5.72736V24.8182Z" fill="#E78825"/>
<path d="M5.72705 22.9091H78.2725V24.8182H5.72705V22.9091Z" fill="#D1D9E1"/>
<path d="M29.5908 45.8182H54.409C54.9817 45.8182 55.3635 46.2 55.3635 46.7727C55.3635 47.3455 54.9817 47.7273 54.409 47.7273H29.5908C29.018 47.7273 28.6362 47.3455 28.6362 46.7727C28.6362 46.2 29.018 45.8182 29.5908 45.8182ZM33.409 51.5455H50.5908C51.1635 51.5455 51.5453 51.9273 51.5453 52.5C51.5453 53.0727 51.1635 53.4545 50.5908 53.4545H33.409C32.8362 53.4545 32.4544 53.0727 32.4544 52.5C32.4544 51.9273 32.8362 51.5455 33.409 51.5455Z" fill="#F19920"/>
</g>
<path d="M99.1752 80.3193C99.8377 79.5645 99.8377 78.4355 99.1752 77.6807L96.834 75.0133C96.4717 74.6005 96.2951 74.0569 96.3457 73.51L96.6719 69.9793C96.7642 68.9801 96.1018 68.0672 95.1234 67.845L91.654 67.0569C91.1193 66.9354 90.6579 66.5998 90.3777 66.1284L88.5629 63.0748C88.05 62.2119 86.9769 61.8628 86.0544 62.2589L82.789 63.6611C82.2851 63.8775 81.7145 63.8775 81.2107 63.6611L77.9452 62.2589C77.0228 61.8628 75.9497 62.2119 75.4368 63.0748L73.6235 66.1257C73.3425 66.5987 72.879 66.9349 72.3421 67.0554L68.8819 67.8318C67.9009 68.0519 67.2357 68.9661 67.3282 69.9672L67.6542 73.4954C67.7046 74.0411 67.5289 74.5835 67.1682 74.996L64.82 77.681C64.1598 78.436 64.1608 79.5632 64.8224 80.3169L67.1658 82.9869C67.528 83.3996 67.7046 83.943 67.6543 84.4898L67.3273 88.0378C67.2353 89.0368 67.8976 89.9494 68.8759 90.1716L72.3457 90.9598C72.8804 91.0812 73.3418 91.4169 73.6219 91.8883L75.4346 94.9381C75.9484 95.8027 77.0244 96.1511 77.9475 95.752L81.2088 94.342C81.7137 94.1237 82.2862 94.123 82.7917 94.34L86.0544 95.7411C86.9769 96.1372 88.05 95.7881 88.5629 94.9252L90.3777 91.8716C90.6579 91.4002 91.1193 91.0646 91.654 90.9431L95.1234 90.155C96.1018 89.9328 96.7642 89.0199 96.6719 88.0207L96.3457 84.49C96.2951 83.9431 96.4717 83.3995 96.834 82.9867L99.1752 80.3193ZM80.0807 85.9191C79.2997 86.7002 78.0333 86.7002 77.2523 85.9191L73.176 81.8428C72.5264 81.1932 72.5264 80.1401 73.176 79.4905C73.8246 78.8419 74.876 78.8408 75.526 79.4883L77.2523 81.2079C78.0338 81.9864 79.298 81.9852 80.078 81.2052L88.4665 72.8167C89.1194 72.1638 90.1784 72.1657 90.829 72.8208C91.4763 73.4727 91.4744 74.5254 90.8248 75.175L80.0807 85.9191Z" fill="#4DB86B"/>
<defs>
<clipPath id="clip0_2790_8483">
<rect width="84" height="84" fill="white"/>
</clipPath>
</defs>
</svg>
