<svg width="500" height="313" viewBox="0 0 500 313" fill="none" xmlns="http://www.w3.org/2000/svg">
<path d="M203.001 82.4553H163.424C156.119 82.4553 150.197 76.5339 150.197 69.2286V50.2418C150.197 42.9369 156.119 37.0156 163.424 37.0156H203.001C210.306 37.0156 216.228 42.9369 216.228 50.2418V69.2286C216.228 76.5339 210.306 82.4553 203.001 82.4553Z" fill="#FECC3F"/>
<path d="M178.039 57.2598H166.484V58.7664H178.039V57.2598Z" fill="white"/>
<path d="M192.805 53.2422H166.484V54.7494H192.805V53.2422Z" fill="white"/>
<path d="M311.599 149.179H287.436C282.976 149.179 279.361 145.564 279.361 141.104V129.512C279.361 125.053 282.976 121.438 287.436 121.438H311.599C316.058 121.438 319.673 125.053 319.673 129.512V141.104C319.673 145.564 316.058 149.179 311.599 149.179Z" fill="#FECC3F"/>
<path d="M312.774 137.281H305.721V138.201H312.774V137.281Z" fill="white"/>
<path d="M312.772 139.732H296.703V140.652H312.772V139.732Z" fill="white"/>
<path d="M328.508 85.8947H314.773C313.168 85.8947 311.867 84.5943 311.867 82.9897C311.867 81.385 313.168 80.084 314.773 80.084H328.508C330.112 80.084 331.413 81.385 331.413 82.9897C331.413 84.5943 330.112 85.8947 328.508 85.8947Z" fill="#FAAB58"/>
<path d="M320.656 89.1055H318.096V91.6662H320.656V89.1055Z" fill="#F26850"/>
<path d="M316.582 89.1055H314.021V91.6662H316.582V89.1055Z" fill="#F26850"/>
<path d="M316.582 92.9043H314.021V95.4656H316.582V92.9043Z" fill="#F26850"/>
<path d="M411.859 97.6248V94.4918C411.859 87.5569 406.238 81.9355 399.303 81.9355H332.557V82.5603H399.303C402.598 82.5603 405.579 83.8951 407.74 86.0546C409.899 88.2148 411.234 91.1962 411.234 94.4918V97.6248H411.859Z" fill="white"/>
<path d="M463.884 168.971H356.508V102.987C356.508 100.099 358.849 97.7578 361.737 97.7578H458.655C461.543 97.7578 463.884 100.099 463.884 102.987V168.971Z" fill="white"/>
<path d="M356.508 106.381H463.884V105.824H356.508" fill="#FECC3F"/>
<path d="M366.523 102.024C366.523 100.795 365.527 99.7988 364.297 99.7988C363.068 99.7988 362.072 100.795 362.072 102.024C362.072 103.253 363.068 104.249 364.297 104.249C365.527 104.249 366.523 103.253 366.523 102.024Z" fill="#FECC3F"/>
<path d="M374.681 102.024C374.681 100.795 373.685 99.7988 372.456 99.7988C371.227 99.7988 370.23 100.795 370.23 102.024C370.23 103.253 371.227 104.249 372.456 104.249C373.685 104.249 374.681 103.253 374.681 102.024Z" fill="#F26850"/>
<path d="M382.842 102.024C382.842 100.795 381.846 99.7988 380.616 99.7988C379.387 99.7988 378.391 100.795 378.391 102.024C378.391 103.253 379.387 104.249 380.616 104.249C381.846 104.249 382.842 103.253 382.842 102.024Z" fill="#3276B1"/>
<path d="M372.703 136.703C372.703 124.105 382.916 113.893 395.513 113.893V124.653C388.937 124.653 383.595 129.922 383.469 136.468C383.453 136.467 383.437 136.467 383.42 136.467C383.357 136.466 383.293 136.465 383.23 136.465C383.186 136.464 383.142 136.464 383.098 136.464C381.541 136.446 380.01 136.434 378.621 136.434H378.614C375.243 136.434 372.713 136.501 372.703 136.702V136.703Z" fill="#FBB56E"/>
<path d="M395.514 159.513V148.753C402.169 148.753 407.565 143.359 407.565 136.703H418.324C418.324 149.301 408.112 159.513 395.514 159.513Z" fill="#FBB56E"/>
<path d="M395.513 159.513C382.916 159.513 372.703 149.301 372.703 136.703V136.702C372.713 136.501 375.243 136.434 378.614 136.434H378.621C380.01 136.434 381.541 136.445 383.098 136.464C383.142 136.464 383.186 136.464 383.23 136.465C383.293 136.465 383.357 136.466 383.42 136.467C383.437 136.467 383.453 136.467 383.469 136.468C383.468 136.546 383.463 136.624 383.463 136.703C383.463 143.358 388.859 148.753 395.513 148.753V159.513Z" fill="#4E87BA"/>
<path d="M418.324 136.703H407.565C407.565 130.048 402.169 124.653 395.514 124.653V113.893C408.112 113.893 418.324 124.105 418.324 136.703Z" fill="#4E87BA"/>
<path d="M395.515 136.704C395.515 136.704 391.917 136.608 388.453 136.565C388.527 132.727 391.659 129.639 395.515 129.639V136.704Z" fill="#324A67"/>
<path d="M395.514 143.769V136.703H402.579C402.579 140.605 399.416 143.769 395.514 143.769Z" fill="#324A67"/>
<path d="M395.514 143.768C391.612 143.768 388.449 140.605 388.449 136.703L388.452 136.564C391.916 136.607 395.514 136.703 395.514 136.703V143.768Z" fill="#324A67"/>
<path d="M402.579 136.704H395.514V129.639C399.416 129.639 402.579 132.802 402.579 136.704Z" fill="#E96D4D"/>
<path d="M441.37 121.449H431.059V122.794H441.37V121.449Z" fill="#FAAB58"/>
<path d="M454.549 125.035H431.059V126.38H454.549V125.035Z" fill="#FAAB58"/>
<path d="M459.618 133.304V133.025H427.505V116.768H459.34V133.304H459.618V133.025V133.304H459.897V116.211H426.947V133.582H459.897V133.304H459.618Z" fill="#FECC3F"/>
<path d="M447.429 150.875H437.117V152.22H447.429V150.875Z" fill="#FAAB58"/>
<path d="M434.026 151.724C434.026 150.427 432.974 149.375 431.677 149.375C430.38 149.375 429.328 150.427 429.328 151.724C429.328 153.022 430.38 154.073 431.677 154.073C432.974 154.073 434.026 153.022 434.026 151.724Z" fill="#3276B1"/>
<path d="M150.527 236.298H43.1504V170.313C43.1504 167.425 45.4911 165.084 48.3794 165.084H145.298C148.186 165.084 150.527 167.425 150.527 170.313V236.298Z" fill="white"/>
<path d="M43.1504 173.708H150.527V173.15H43.1504" fill="#FECC3F"/>
<path d="M53.1638 169.35C53.1638 168.121 52.1677 167.125 50.9386 167.125C49.7096 167.125 48.7129 168.121 48.7129 169.35C48.7129 170.579 49.7096 171.576 50.9386 171.576C52.1677 171.576 53.1638 170.579 53.1638 169.35Z" fill="#FECC3F"/>
<path d="M61.3234 169.35C61.3234 168.121 60.3275 167.125 59.0983 167.125C57.8691 167.125 56.873 168.121 56.873 169.35C56.873 170.579 57.8691 171.576 59.0983 171.576C60.3275 171.576 61.3234 170.579 61.3234 169.35Z" fill="#F26850"/>
<path d="M69.4836 169.35C69.4836 168.121 68.4875 167.125 67.2583 167.125C66.0292 167.125 65.0332 168.121 65.0332 169.35C65.0332 170.579 66.0292 171.576 67.2583 171.576C68.4875 171.576 69.4836 170.579 69.4836 169.35Z" fill="#3276B1"/>
<path d="M82.1567 204.029C82.1567 204.029 73.5352 203.801 65.2363 203.7C65.4131 194.503 72.9179 187.102 82.1567 187.102V204.029Z" fill="#324A67"/>
<path d="M82.1582 220.958V204.029H99.0861C99.0861 213.379 91.5069 220.958 82.1582 220.958Z" fill="#324A67"/>
<path d="M82.157 220.958C72.8075 220.958 65.2285 213.378 65.2285 204.029C65.2285 203.918 65.2348 203.809 65.2366 203.699C73.5355 203.8 82.157 204.029 82.157 204.029V220.958Z" fill="#4E87BA"/>
<path d="M99.0861 204.029H82.1582V187.102C91.5069 187.102 99.0861 194.681 99.0861 204.029Z" fill="#E96D4D"/>
<path d="M128.013 188.775H117.701V190.121H128.013V188.775Z" fill="#FAAB58"/>
<path d="M141.191 192.361H117.701V193.707H141.191V192.361Z" fill="#FAAB58"/>
<path d="M146.261 200.63V200.351H114.147V184.094H145.982V200.63H146.261V200.351V200.63H146.539V183.537H113.59V200.909H146.539V200.63H146.261Z" fill="#FECC3F"/>
<path d="M134.071 218.201H123.76V219.546H134.071V218.201Z" fill="#FAAB58"/>
<path d="M120.669 219.05C120.669 217.753 119.617 216.701 118.32 216.701C117.022 216.701 115.971 217.753 115.971 219.05C115.971 220.347 117.022 221.399 118.32 221.399C119.617 221.399 120.669 220.347 120.669 219.05Z" fill="#F26850"/>
<path d="M103.09 85.1934H88.2947C81.636 85.1934 76.239 90.5911 76.2383 97.2491V165.905H76.8632V97.2491C76.8638 94.0915 78.1423 91.236 80.2119 89.1664C82.2815 87.0974 85.1372 85.8183 88.2947 85.8183H103.09V85.1934Z" fill="white"/>
<path d="M105.996 88.4123H119.73C121.335 88.4123 122.635 87.1119 122.635 85.5072C122.635 83.9026 121.335 82.6016 119.73 82.6016H105.996C104.391 82.6016 103.09 83.9026 103.09 85.5072C103.09 87.1119 104.391 88.4123 105.996 88.4123Z" fill="#F26850"/>
<path d="M116.408 91.6211H113.848V94.1818H116.408V91.6211Z" fill="#FECC3F"/>
<path d="M120.483 91.6211H117.922V94.1818H120.483V91.6211Z" fill="#FECC3F"/>
<path d="M120.483 95.4219H117.922V97.9832H120.483V95.4219Z" fill="#FECC3F"/>
<path d="M187.057 129.555C187.057 129.555 166.45 151.219 162.789 147.709L169.477 135.09C169.505 135.426 183.933 124.12 183.933 124.12C183.933 124.12 186.892 116.693 188.043 116.7C189.171 116.708 186.797 120.934 187.199 121.479C187.602 122.022 194.655 113.043 195.461 114.131C195.894 114.716 191.049 119.473 191.45 120.242C191.658 120.642 197.086 117.229 197.651 117.394C199.227 117.856 191.622 121.462 192.072 121.69C192.522 121.919 198.14 118.435 198.223 119.609C198.274 120.335 193.057 122.87 193.144 123.367C193.231 123.864 196.132 121.943 197.077 122.31C198.023 122.677 193.178 125.082 192.859 125.486C192.541 125.891 189.772 128.445 187.057 129.555Z" fill="#FAAB58"/>
<path d="M157.343 113.764C157.343 113.764 162.359 115.443 163.558 119.248C164.757 123.053 170.111 134.474 170.111 134.474L162.892 147.824C162.892 147.824 142.076 121.243 157.343 113.764Z" fill="#FAAB58"/>
<path d="M156.926 112.516C162.329 111.685 165.316 117.977 170.135 129.594L157.804 139.489C157.804 139.489 140.124 115.102 156.926 112.516Z" fill="white"/>
<path d="M156.992 89.1135C154.415 85.8917 148.44 83.7571 143.524 85.7598L143.442 85.7873C140.305 86.8521 138.146 89.8359 138.269 93.1459C138.349 95.3117 138.889 97.4518 139.811 99.1046C142.015 103.053 146.196 104.726 150.555 104.474C151.475 104.42 152.18 104.708 152.678 105.184L157.743 96.4977C158.353 95.2879 158.495 90.9907 156.992 89.1135Z" fill="#111E37"/>
<path d="M130.293 97.5058C130.293 94.86 132.438 92.7148 135.083 92.7148C137.729 92.7148 139.874 94.86 139.874 97.5058C139.874 100.151 137.729 102.296 135.083 102.296C132.438 102.296 130.293 100.151 130.293 97.5058Z" fill="#111E37"/>
<path d="M144.85 97.7491C144.795 97.919 144.18 96.5975 144.012 96.5367C143.307 96.2819 141.733 95.5501 140.845 97.313C139.946 99.0951 141.348 100.779 142.397 101.219C142.699 101.346 143.675 102.017 143.825 102.309C145.143 104.871 143.405 110.317 143.22 112.399C142.81 116.998 139.078 111.954 139.078 111.954C139.078 111.954 151.523 121.742 153.361 116.273C151.859 113.644 150.924 105.369 152.242 105.863C153.973 106.51 157.61 104.331 158.053 96.4562C156.035 90.603 153.512 89.6951 153.486 89.2383C153.31 93.3275 150.989 96.0525 144.85 97.7491Z" fill="#FAAB58"/>
<path d="M141.457 98.1337C141.457 98.1337 143.4 96.191 143.688 99.8266L141.457 98.1337Z" fill="#F38220"/>
<path d="M150.544 98.5335C151.466 98.8396 151.965 99.8351 151.659 100.757C151.353 101.679 150.358 102.178 149.436 101.872C148.514 101.566 148.014 100.571 148.321 99.6488C148.627 98.7265 149.622 98.2273 150.544 98.5335Z" fill="#F38220"/>
<path d="M157.223 101.616C156.515 101.208 156.166 100.345 156.434 99.5382C156.64 98.9164 157.16 98.487 157.76 98.3672C157.76 98.3672 157.813 100.452 157.223 101.616Z" fill="#F38220"/>
<path d="M154.858 97.7402L154.613 99.6855L155.629 99.6113C155.817 99.5975 155.921 99.3881 155.819 99.23L154.858 97.7402Z" fill="#F38220"/>
<path d="M151.861 95.9088C151.532 96.1361 152.041 95.1132 152.488 94.9964C152.936 94.8795 153.381 95.0976 153.482 95.4844C153.482 95.4844 152.649 95.3614 151.861 95.9088Z" fill="#030404"/>
<path d="M157.264 95.8057C157.589 96.0368 157.091 95.0089 156.645 94.8877C156.198 94.7658 155.751 94.9801 155.646 95.3657C155.646 95.3657 156.48 95.2508 157.264 95.8057Z" fill="#030404"/>
<path d="M152.843 97.7533C152.857 98.0983 153.004 98.3726 153.172 98.3664C153.339 98.3595 153.463 98.0738 153.45 97.7283C153.435 97.3828 153.288 97.1085 153.121 97.1154C152.953 97.1223 152.829 97.4078 152.843 97.7533Z" fill="#030404"/>
<path d="M155.579 97.476C155.592 97.806 155.733 98.0677 155.893 98.0615C156.053 98.0552 156.172 97.7821 156.158 97.4522C156.145 97.123 156.004 96.8604 155.844 96.8673C155.685 96.8736 155.565 97.1461 155.579 97.476Z" fill="#030404"/>
<path d="M151.85 105.844C151.85 105.844 149.412 104.981 147.86 104.311C146.308 103.642 150.15 110.032 151.85 105.844Z" fill="#F38220"/>
<path d="M148.654 257.523L149.87 266.156C149.87 266.156 151.819 271.88 153.63 269.665C155.44 267.448 157.232 266.277 157.232 266.277L157.827 257.303L148.654 257.523Z" fill="#FAA41A"/>
<path d="M119.802 256.861L117.116 265.472C117.116 265.472 115.072 267.265 114.334 267.219C112.991 267.134 112.288 264.818 112.288 264.818L112.066 256.861H119.802Z" fill="#FAA41A"/>
<path d="M157.829 266.232L165.058 272.092C165.428 272.367 165.164 272.83 164.635 272.834L153.964 272.92C153.706 272.923 153.476 272.805 153.39 272.63L152.586 270.979C152.353 270.503 151.89 270.464 151.932 270.969L151.538 272.562C151.559 272.813 149.008 272.745 148.985 272.517C148.845 271.099 149.14 266.467 149.395 265.177C149.431 264.992 149.621 264.844 149.873 264.808H149.874C150.1 264.774 150.332 264.838 150.471 264.972C151.191 265.669 153.494 267.766 154.722 267.341C155.544 267.057 156.609 266.547 156.943 266.254C157.167 266.056 157.582 266.049 157.829 266.232Z" fill="#E45832"/>
<path d="M112.188 264.52L108.083 271.396C107.645 272.064 107.889 272.862 108.681 273.334C109.964 274.098 111.013 275.623 111.821 275.644C113.281 275.685 115.549 274.148 116.871 273.572C117.759 273.185 118.453 272.618 118.344 271.876L117.323 264.979C117.31 264.893 117.16 264.862 117.086 264.93L115.514 266.354C114.999 266.821 113.602 266.758 113.254 266.199C113.007 265.801 112.426 264.514 112.426 264.514C112.373 264.446 112.235 264.449 112.188 264.52Z" fill="#E45832"/>
<path d="M136.562 141.463C133.247 147.322 128.896 153.582 126.992 161.032C124.783 169.671 112.151 243.076 111.109 258.79C113.832 259.446 117.914 259.022 119.634 258.927C125.107 243.243 141.646 185.802 143.993 175.922C144.353 174.403 146.7 174.736 146.517 176.287C145.185 187.569 148.579 229.22 148.579 260.165C150.007 260.892 156.212 260.372 157.861 260.165C159.655 240.813 169.58 166.701 155.212 142.955C148.643 142.049 143.224 141.264 136.562 141.463Z" fill="#123051"/>
<path d="M152.216 111.893C152.861 112.409 158.946 126.767 158.719 131.316C158.489 135.9 160.874 144.64 160.874 144.64C160.874 144.64 153.453 147.427 133.836 144.338C128.992 133.894 126.225 121.588 132.683 115.079C132.683 115.079 141.558 109.495 143.221 109.373C143.221 109.373 149.1 117.884 151.523 117.85C152.626 117.834 152.341 113.52 152.216 111.893Z" fill="white"/>
<path d="M142.242 109.815L142.381 106.352L154.848 109.399L154.017 113.416C154.017 113.416 158.173 122.975 152.909 121.451C147.645 119.928 142.242 109.815 142.242 109.815Z" fill="white"/>
<path d="M134.483 120.682C135.694 126.9 138.209 132.815 139.944 138.899C140.558 141.051 141.145 143.211 141.72 145.375C139.453 145.146 136.844 144.812 133.836 144.338C130.002 136.07 129.776 124.393 133.049 116.654C133.527 117.997 134.005 119.339 134.483 120.682Z" fill="#3D174D"/>
<path d="M159.212 151.374C159.212 151.374 132.165 156.715 130.676 151.867L128.762 136.77L140.581 133.324L141.965 144.102C141.826 144.408 162.611 146.532 162.611 146.532C162.611 146.532 166.82 146.497 169.186 147.635C169.311 147.694 173.966 151.167 175.421 153.245L166.562 153.88C165.631 153.86 159.212 151.374 159.212 151.374Z" fill="#FAAB58"/>
<path d="M137.711 113.897C137.711 113.897 141.962 116.985 141.157 120.893C140.351 124.8 140.857 134.197 140.857 134.197L128.345 137.419C128.345 137.419 120.735 112.998 137.711 113.897Z" fill="white"/>
<path d="M300.238 100.671C300.238 72.8984 277.723 50.3848 249.951 50.3848C222.178 50.3848 199.664 72.8984 199.664 100.671C199.664 128.444 222.178 150.958 249.951 150.958C277.723 150.958 300.238 128.444 300.238 100.671Z" fill="#3276B1"/>
<path d="M300.238 100.671C300.238 72.8984 277.723 50.3848 249.951 50.3848C222.178 50.3848 199.664 72.8984 199.664 100.671" fill="white"/>
<path d="M249.118 100.671H199.662C199.662 72.8984 222.176 50.3848 249.949 50.3848L249.118 100.671Z" fill="#123051"/>
<path d="M306.989 100.672H307.613C307.613 68.8251 281.797 43.0084 249.949 43.0078C218.102 43.0084 192.285 68.8245 192.285 100.672C192.285 132.519 218.102 158.336 249.949 158.337C281.797 158.336 307.613 132.519 307.613 100.672H306.989C306.989 116.424 300.605 130.682 290.282 141.005C279.959 151.327 265.701 157.711 249.949 157.712C234.197 157.711 219.94 151.327 209.616 141.005C199.294 130.682 192.91 116.424 192.91 100.672C192.91 84.9201 199.294 70.6623 209.616 60.3394C219.94 50.017 234.197 43.6333 249.949 43.6327C265.701 43.6333 279.959 50.017 290.282 60.3394C300.605 70.6623 306.989 84.9201 306.989 100.672Z" fill="white"/>
<path d="M265.562 75.4432L284.611 56.3944H362.23C362.359 56.3944 362.464 56.2895 362.464 56.1602C362.464 56.0308 362.359 55.9258 362.23 55.9258H284.417L265.231 75.1113C265.139 75.2032 265.139 75.3512 265.231 75.4432C265.322 75.5344 265.471 75.5344 265.562 75.4432Z" fill="#123051"/>
<path d="M365.184 55.7442C365.184 54.1133 363.861 52.791 362.231 52.791C360.6 52.791 359.277 54.1133 359.277 55.7442C359.277 57.3752 360.6 58.6974 362.231 58.6974C363.861 58.6974 365.184 57.3752 365.184 55.7442Z" fill="#123051"/>
<path d="M246.943 142.812L266.129 161.998H343.942C344.072 161.998 344.176 161.893 344.176 161.764C344.176 161.634 344.072 161.529 343.942 161.529H266.323L247.275 142.481C247.183 142.389 247.035 142.389 246.943 142.481C246.852 142.572 246.852 142.72 246.943 142.812Z" fill="#123051"/>
<path d="M346.897 162.18C346.897 163.811 345.575 165.133 343.943 165.133C342.313 165.133 340.99 163.811 340.99 162.18C340.99 160.549 342.313 159.227 343.943 159.227C345.575 159.227 346.897 160.549 346.897 162.18Z" fill="#123051"/>
<path d="M326.86 157.995H277.366C275.734 157.995 274.412 156.673 274.412 155.041C274.412 153.41 275.734 152.088 277.366 152.088H326.86C328.491 152.088 329.814 153.41 329.814 155.041C329.814 156.673 328.491 157.995 326.86 157.995Z" fill="#E45832"/>
<path d="M322.587 47.4474H286.145C284.944 47.4474 283.971 46.4732 283.971 45.2722C283.971 44.0713 284.944 43.0977 286.145 43.0977H322.587C323.788 43.0977 324.762 44.0713 324.762 45.2722C324.762 46.4732 323.788 47.4474 322.587 47.4474Z" fill="#E45832"/>
<path d="M312.151 38.3033H285.558C284.681 38.3033 283.971 37.5928 283.971 36.716C283.971 35.8393 284.681 35.1289 285.558 35.1289H312.151C313.027 35.1289 313.738 35.8393 313.738 36.716C313.738 37.5928 313.027 38.3033 312.151 38.3033Z" fill="white"/>
<path d="M348.424 256.377L347.447 268.391L330.162 272.064L339.077 263.187L341.229 255.658L348.424 256.377Z" fill="#F79B78"/>
<path d="M339.072 262.133L326.842 272.909L349.984 273.149L348.426 262.253L343.869 266.689L339.072 262.133Z" fill="#E45832"/>
<path d="M336.691 263.647L338.824 265.014L339.001 264.737L336.869 263.369" fill="white"/>
<path d="M334.789 264.542L336.922 265.91L337.099 265.633L334.967 264.266" fill="white"/>
<path d="M369.158 258.683L367.561 268.88L385.506 272.877L375.903 263.819L376.51 258.277L369.158 258.683Z" fill="#F79B78"/>
<path d="M376.724 263.213L387.407 273.422L366.662 273.182L368.256 263.65L371.447 268.009L376.724 263.213Z" fill="#E45832"/>
<path d="M378.71 264.367L376.516 265.633L376.68 265.918L378.874 264.652" fill="white"/>
<path d="M380.569 265.352L378.375 266.617L378.539 266.902L380.733 265.636" fill="white"/>
<path d="M374.926 143.469L354.375 145.453C354.375 145.453 351.454 147.595 348.534 158.694C344.974 172.218 339.643 207.41 337.891 258.136L351.182 258.535L362.068 181.115C362.394 179.986 364.064 180.26 364.012 181.433L367.583 259.404L380.68 258.895C380.68 258.895 384.62 174.072 381.166 160.832C377.91 148.352 374.926 143.469 374.926 143.469Z" fill="#21334E"/>
<path d="M352.262 258.297L352.952 253.888L336.946 253.346L336.674 258.777L352.262 258.297Z" fill="#3276B1"/>
<path d="M367.059 259.312C367.325 259.043 366.516 254.158 366.516 254.158L381.709 253.615L381.639 259.255L367.059 259.312Z" fill="#3276B1"/>
<path d="M331.588 115.712C331.588 115.712 341.342 144.518 346.206 143.108L346.132 128.845C345.952 129.129 337.827 112.992 337.827 112.992C337.827 112.992 335.378 108.942 334.279 108.306C333.565 108.208 332.897 108.68 332.751 109.386L331.521 115.32" fill="#F79B78"/>
<path d="M335.569 115.035L338.081 102.662C338.185 102.147 337.852 101.645 337.337 101.541C336.822 101.436 336.32 101.769 336.216 102.284L333.705 114.657C333.6 115.172 333.933 115.674 334.448 115.778C334.963 115.883 335.465 115.55 335.569 115.035Z" fill="white"/>
<path d="M337.63 112.864C337.63 112.864 337.601 108.746 337.024 108.667C336.446 108.589 333.717 108.796 333.454 109.732C333.192 110.668 335.504 110.62 335.504 110.62C335.504 110.62 334.419 112.542 335.351 113.165C336.284 113.789 337.63 112.864 337.63 112.864Z" fill="#F79B78"/>
<path d="M363.525 103.941C363.525 103.941 355.289 108.922 352.467 111.735C349.644 114.547 346.575 128.819 346.575 128.819L339.726 113.762L330.637 119.934C330.637 119.934 341.275 143.732 345.898 143.876C350.519 144.02 373.571 117.629 363.525 103.941Z" fill="white"/>
<path d="M352.007 88.8028C351.87 93.0139 353.249 97.4174 356.86 99.9169C360.262 102.273 365.03 101.711 368.14 99.0652C373.229 94.7341 371.682 84.7956 366.04 82.4947C365.263 82.1785 363.102 81.9592 362.776 81.3481C358.357 80.597 353.562 82.6128 352.534 85.9715C352.408 86.3827 352.147 87.0201 351.867 87.7374C351.968 88.0535 352.02 88.4073 352.007 88.8028Z" fill="#172E4F"/>
<path d="M364.618 92.0633C364.671 92.2339 364.853 92.3277 365.022 92.2689C365.728 92.0226 367.309 91.3104 368.175 93.0819C369.051 94.872 367.631 96.5367 366.579 96.9641C366.275 97.0873 365.582 97.396 365.451 97.6966C365.047 98.6201 365.271 100.257 365.432 102.338C365.786 106.936 369.764 107.724 369.764 107.724C369.764 107.724 359.507 116.472 357.737 110.988C358.433 109.819 358.013 101.007 356.691 101.484C354.956 102.109 351.527 101.333 351.179 93.4637C350.856 86.1739 355.874 84.976 357.183 84.7704C358.288 84.5967 361.983 83.5807 364.618 92.0633Z" fill="#F79B78"/>
<path d="M353.543 85.294C353.543 85.294 363.412 91.9332 364.85 92.2706C364.85 92.2706 365.712 79.7319 353.543 85.294Z" fill="#172E4F"/>
<path d="M367.555 93.8958C367.555 93.8958 365.638 91.9324 365.307 95.5597L367.555 93.8958Z" fill="#F07545"/>
<path d="M358.476 94.1849C357.551 94.4797 357.041 95.4677 357.335 96.3918C357.63 97.3161 358.618 97.8266 359.542 97.5324C360.466 97.2374 360.977 96.2494 360.683 95.3252C360.388 94.4011 359.4 93.8905 358.476 94.1849Z" fill="#F07545"/>
<path d="M351.766 97.1822C352.478 96.7829 352.837 95.9256 352.579 95.117C352.381 94.4934 351.866 94.0584 351.269 93.9316C351.269 93.9316 351.192 96.0131 351.766 97.1822Z" fill="#F07545"/>
<path d="M354.357 93.6406L354.578 95.5859L353.564 95.4997C353.377 95.4841 353.276 95.2733 353.379 95.1172L354.357 93.6406Z" fill="#F07545"/>
<path d="M357.195 91.5469C357.52 91.778 357.024 90.7507 356.579 90.6284C356.133 90.5058 355.686 90.7189 355.58 91.1038C355.58 91.1038 356.414 90.9907 357.195 91.5469Z" fill="#030404"/>
<path d="M351.796 91.3817C351.467 91.6086 351.977 90.5881 352.425 90.4726C352.872 90.3564 353.316 90.575 353.416 90.9618C353.416 90.9618 352.585 90.8369 351.796 91.3817Z" fill="#030404"/>
<path d="M355.98 93.9155C355.962 94.2605 355.812 94.5324 355.645 94.5235C355.477 94.5148 355.357 94.2279 355.375 93.8837C355.393 93.5388 355.543 93.2663 355.71 93.2756C355.877 93.2845 355.998 93.5706 355.98 93.9155Z" fill="#030404"/>
<path d="M352.97 93.7344C352.953 94.0637 352.809 94.3236 352.65 94.3149C352.49 94.3067 352.375 94.0331 352.392 93.7038C352.409 93.3751 352.553 93.1146 352.712 93.1233C352.872 93.1314 352.987 93.4051 352.97 93.7344Z" fill="#030404"/>
<path d="M357.084 101.47C357.084 101.47 359.529 100.637 361.087 99.9868C362.645 99.3364 358.731 105.672 357.084 101.47Z" fill="#F07545"/>
<path d="M366.312 107.19C366.312 107.19 368.029 106.716 367.741 107.077C367.453 107.438 366.841 107.835 366.229 108.233L366.312 107.19Z" fill="#D41F26"/>
<path d="M357.291 107.317C357.477 107.783 349.746 122.279 349.919 126.824C350.093 131.404 353.127 146.1 352.876 146.785C352.876 146.785 359.911 150.387 379.537 147.537C381.436 130.446 381.967 115.953 375.604 110.573C375.604 110.573 368.717 105.628 367.058 105.486C367.058 105.486 359.769 114.499 357.291 107.317Z" fill="white"/>
<path d="M374.563 108.724C371.696 107.304 368.03 105.57 367.058 105.486C367.058 105.486 365.793 107.047 364.14 108.353C364.201 108.723 364.198 109.124 364.107 109.555C361.415 122.303 359.364 140.126 360.953 153.099C365.006 153.271 377.335 154.728 384.353 153.709C383.459 140.906 383.991 126.625 381.848 117.776C380.892 113.828 378.202 110.528 374.563 108.724Z" fill="#E45832"/>
<path d="M357.495 153.914C356.024 140.893 356.085 122.134 358.676 109.285C358.399 108.891 358.076 107.191 357.862 106.572C358.048 107.038 349.745 122.28 349.918 126.825C350.093 131.405 347.368 153.025 347.117 153.71C347.117 153.71 354.7 153.393 357.495 153.914Z" fill="#E45832"/>
<path d="M350.897 130.508C350.83 130.038 350.759 129.559 350.541 129.138C350.323 128.717 349.927 128.357 349.454 128.315C348.831 128.259 348.289 128.754 347.968 129.292C347.818 129.543 347.697 129.811 347.607 130.089C347.582 130.164 347.568 130.261 347.632 130.306L347.766 130.321C348.73 130.208 349.691 130.694 350.653 130.571" fill="#32445E"/>
<path d="M347.459 131.018L350.92 131.059C351.145 131.062 351.33 130.882 351.333 130.657C351.335 130.432 351.155 130.248 350.93 130.245L347.469 130.203C347.244 130.201 347.06 130.381 347.057 130.606C347.054 130.83 347.234 131.015 347.459 131.018Z" fill="#A9BEE2"/>
<path d="M347.782 135.475L342.55 118.349C342.26 117.4 341.586 116.628 340.702 116.234L329.627 111.292C329.299 111.146 328.957 111.468 329.068 111.819L334.361 128.6C334.646 129.503 335.281 130.243 336.113 130.644L347.211 135.994C347.539 136.151 347.891 135.831 347.782 135.475Z" fill="#FECC3F"/>
<path d="M347.061 136.551L341.829 119.425C341.539 118.476 340.865 117.705 339.981 117.31L328.906 112.368C328.578 112.222 328.236 112.544 328.348 112.895L333.641 129.676C333.926 130.579 334.559 131.319 335.392 131.72L346.491 137.07C346.818 137.227 347.17 136.908 347.061 136.551Z" fill="#3276B1"/>
<path d="M347.015 133.362C347.015 133.362 364.329 153.614 368.164 150.306L362.155 137.37C362.11 137.703 348.002 126.417 348.002 126.417C348.002 126.417 338.384 122.517 338.141 123.763C337.972 124.629 343.903 125.316 343.34 125.309C343.28 125.309 338.111 124.374 337.605 124.868C336.858 125.597 342.907 126.773 342.833 127.182C342.833 127.182 336.789 127.222 336.6 127.826C336.411 128.43 342.631 128.877 342.508 129.057C342.384 129.238 337.327 128.629 338.063 129.089C338.876 129.598 347.015 133.362 347.015 133.362Z" fill="#F79B78"/>
<path d="M344.553 125.551C344.553 125.551 342.259 120.901 343.283 121.459C344.307 122.016 349.554 127.809 349.554 127.809" fill="#F79B78"/>
<path d="M377.803 112.54C376.391 110.414 373.185 110.632 371.994 112.89C370.683 115.378 369.641 119.873 368.891 121.88C367.496 125.612 361.558 136.722 361.558 136.722L349.789 127.467L346.361 135.452C346.361 135.452 363.559 153.281 367.821 151.487C371.619 149.888 385.257 123.763 377.803 112.54Z" fill="white"/>
<path d="M370.367 79.0348C370.367 76.1966 368.066 73.8965 365.228 73.8965C362.391 73.8965 360.09 76.1966 360.09 79.0348C360.09 81.8723 362.391 84.1732 365.228 84.1732C368.066 84.1732 370.367 81.8723 370.367 79.0348Z" fill="#172E4F"/>
<path d="M375.154 60.9685C375.154 59.247 373.758 57.8516 372.037 57.8516C370.315 57.8516 368.92 59.247 368.92 60.9685C368.92 62.6894 370.315 64.0854 372.037 64.0854C373.758 64.0854 375.154 62.6894 375.154 60.9685Z" fill="white"/>
<path d="M405.699 204.972C405.699 203.595 404.583 202.479 403.206 202.479C401.829 202.479 400.713 203.595 400.713 204.972C400.713 206.349 401.829 207.466 403.206 207.466C404.583 207.466 405.699 206.349 405.699 204.972Z" fill="white"/>
<path d="M113.954 49.1241C113.954 47.7469 112.837 46.6309 111.46 46.6309C110.083 46.6309 108.967 47.7469 108.967 49.1241C108.967 50.5014 110.083 51.6181 111.46 51.6181C112.837 51.6181 113.954 50.5014 113.954 49.1241Z" fill="white"/>
<path d="M116.033 152.192C116.033 150.126 114.359 148.451 112.293 148.451C110.227 148.451 108.553 150.126 108.553 152.192C108.553 154.257 110.227 155.932 112.293 155.932C114.359 155.932 116.033 154.257 116.033 152.192Z" fill="white"/>
<path d="M385.127 49.7487H386.376C386.376 46.6487 383.864 44.1367 380.764 44.1367C377.664 44.1367 375.152 46.6487 375.152 49.7487C375.152 52.848 377.664 55.36 380.764 55.3608C383.864 55.36 386.376 52.848 386.376 49.7487H385.127C385.126 50.9554 384.639 52.0419 383.849 52.8332C383.057 53.6235 381.97 54.1103 380.764 54.1109C379.558 54.1103 378.471 53.6235 377.679 52.8332C376.889 52.0419 376.402 50.9554 376.402 49.7487C376.402 48.5421 376.889 47.4554 377.679 46.6637C378.471 45.8738 379.558 45.3864 380.764 45.3864C381.97 45.3864 383.057 45.8738 383.849 46.6637C384.639 47.4554 385.126 48.5421 385.127 49.7487Z" fill="#FECC3F"/>
<path d="M407.571 234.27C407.571 231.86 405.617 229.906 403.207 229.906C400.797 229.906 398.844 231.86 398.844 234.27C398.844 236.681 400.797 238.634 403.207 238.634C405.617 238.634 407.571 236.681 407.571 234.27Z" fill="#FECC3F"/>
<path d="M448.089 199.361H449.339C449.339 197.294 447.664 195.619 445.597 195.619C443.531 195.619 441.856 197.294 441.855 199.361C441.856 201.427 443.531 203.102 445.597 203.103C447.664 203.102 449.339 201.427 449.339 199.361H448.089C448.089 200.051 447.812 200.67 447.359 201.123C446.907 201.575 446.288 201.852 445.597 201.853C444.907 201.852 444.288 201.575 443.835 201.123C443.383 200.67 443.106 200.051 443.105 199.361C443.106 198.67 443.383 198.052 443.835 197.599C444.288 197.147 444.907 196.869 445.597 196.869C446.288 196.869 446.907 197.147 447.359 197.599C447.812 198.052 448.089 198.67 448.089 199.361Z" fill="#FECC3F"/>
<path d="M73.2239 79.2554H74.4737C74.4737 77.189 72.799 75.5143 70.732 75.5137C68.6655 75.5143 66.9908 77.189 66.9902 79.2554C66.9908 81.3225 68.6655 82.9972 70.732 82.9972C72.799 82.9972 74.4737 81.3225 74.4737 79.2554H73.2239C73.2239 79.9459 72.9464 80.5645 72.4941 81.0176C72.0411 81.4693 71.4224 81.7475 70.732 81.7475C70.0421 81.7475 69.4229 81.4693 68.9698 81.0176C68.518 80.5645 68.2405 79.9459 68.2399 79.2554C68.2405 78.5656 68.518 77.9463 68.9698 77.4933C69.4229 77.0414 70.0421 76.7634 70.732 76.7634C71.4224 76.7634 72.0411 77.0414 72.4941 77.4933C72.9464 77.9463 73.2239 78.5656 73.2239 79.2554Z" fill="#FECC3F"/>
<path d="M214.321 233.023C214.321 231.646 213.205 230.529 211.828 230.529C210.451 230.529 209.334 231.646 209.334 233.023C209.334 234.4 210.451 235.516 211.828 235.516C213.205 235.516 214.321 234.4 214.321 233.023Z" fill="#FECC3F"/>
<path d="M100.238 136.607H101.488C101.487 132.474 98.1379 129.125 94.0056 129.125C89.8733 129.125 86.524 132.474 86.5234 136.607C86.524 140.74 89.8733 144.089 94.0056 144.089C98.1379 144.089 101.487 140.74 101.488 136.607H100.238C100.237 138.33 99.5414 139.884 98.4129 141.014C97.2824 142.142 95.7284 142.839 94.0056 142.839C92.2829 142.839 90.7281 142.142 89.5984 141.014C88.4699 139.884 87.7737 138.33 87.7731 136.607C87.7737 134.884 88.4699 133.33 89.5984 132.2C90.7281 131.071 92.2829 130.375 94.0056 130.375C95.7284 130.375 97.2824 131.071 98.4129 132.2C99.5414 133.33 100.237 134.884 100.238 136.607Z" fill="#FECC3F"/>
<path d="M89.64 246.738H90.8897C90.8897 244.671 89.2152 242.997 87.148 242.996C85.0816 242.997 83.407 244.671 83.4062 246.738C83.407 248.805 85.0816 250.48 87.148 250.48C89.2152 250.48 90.8897 248.805 90.8897 246.738H89.64C89.64 247.428 89.362 248.047 88.9101 248.5C88.4572 248.952 87.8385 249.23 87.148 249.23C86.4581 249.23 85.8389 248.952 85.3858 248.5C84.9341 248.047 84.6561 247.428 84.6561 246.738C84.6561 246.048 84.9341 245.429 85.3858 244.976C85.8389 244.524 86.4581 244.247 87.148 244.246C87.8385 244.247 88.4572 244.524 88.9101 244.976C89.362 245.429 89.64 246.048 89.64 246.738Z" fill="#FECC3F"/>
<path d="M345.545 250.909H225.23V176.974C225.23 173.738 227.854 171.115 231.089 171.115H339.686C342.922 171.115 345.545 173.738 345.545 176.974V250.909Z" fill="white"/>
<path d="M225.229 180.779H345.543V180.154H225.229" fill="#FECC3F"/>
<path d="M236.45 175.894C236.45 174.516 235.334 173.4 233.957 173.4C232.58 173.4 231.463 174.516 231.463 175.894C231.463 177.271 232.58 178.388 233.957 178.388C235.334 178.388 236.45 177.271 236.45 175.894Z" fill="#FECC3F"/>
<path d="M245.595 175.894C245.595 174.516 244.478 173.4 243.101 173.4C241.724 173.4 240.607 174.516 240.607 175.894C240.607 177.271 241.724 178.388 243.101 178.388C244.478 178.388 245.595 177.271 245.595 175.894Z" fill="#F26850"/>
<path d="M254.737 175.894C254.737 174.516 253.621 173.4 252.244 173.4C250.867 173.4 249.75 174.516 249.75 175.894C249.75 177.271 250.867 178.388 252.244 178.388C253.621 178.388 254.737 177.271 254.737 175.894Z" fill="#3276B1"/>
<path d="M239.879 195.844V241.456H335.362V240.831H240.504V195.844H239.879Z" fill="#FECC3F"/>
<path d="M240.191 225.765C240.191 225.765 246.287 205.494 255.984 205.817C268.452 206.232 267.621 227.427 275.101 226.596C288.725 225.083 285.075 193.349 299.621 196.674C306.061 198.146 303.835 227.041 310.011 231.583C313.898 234.442 322.411 223.467 326.219 221.194C330.027 218.92 334.116 219.947 334.116 219.947L334.531 240.727L240.191 241.142V225.765Z" fill="#FECC3F"/>
<path d="M295.86 193.348H309.595C311.2 193.348 312.5 192.047 312.5 190.443C312.5 188.838 311.2 187.537 309.595 187.537H295.86C294.255 187.537 292.955 188.838 292.955 190.443C292.955 192.047 294.255 193.348 295.86 193.348Z" fill="#3276B1"/>
<path d="M306.272 196.559H303.711V199.119H306.272V196.559Z" fill="#FECC3F"/>
<path d="M310.348 196.559H307.787V199.119H310.348V196.559Z" fill="#FECC3F"/>
<path d="M310.348 200.359H307.787V202.921H310.348V200.359Z" fill="#FECC3F"/>
<path d="M186.684 159.271V251.117C186.684 261.618 195.196 270.131 205.697 270.132H261.387C271.888 270.131 280.401 261.618 280.401 251.117H279.776C279.776 256.196 277.719 260.792 274.39 264.12C271.061 267.449 266.466 269.506 261.387 269.507H205.697C200.618 269.506 196.023 267.449 192.694 264.12C189.366 260.792 187.309 256.196 187.309 251.117V159.271H186.684Z" fill="white"/>
<path d="M192.397 201.244C192.397 198.261 189.978 195.842 186.994 195.842C184.011 195.842 181.592 198.261 181.592 201.244C181.592 204.228 184.011 206.647 186.994 206.647C189.978 206.647 192.397 204.228 192.397 201.244Z" fill="white"/>
<path d="M195.922 201.245H196.547C196.547 195.971 192.271 191.695 186.997 191.695C181.723 191.695 177.447 195.971 177.447 201.245C177.447 206.519 181.723 210.794 186.997 210.795C192.271 210.794 196.547 206.519 196.547 201.245H195.922C195.922 203.71 194.923 205.939 193.308 207.555C191.692 209.171 189.462 210.169 186.997 210.17C184.532 210.169 182.303 209.171 180.686 207.555C179.071 205.939 178.072 203.71 178.072 201.245C178.072 198.78 179.071 196.55 180.686 194.934C182.303 193.318 184.532 192.32 186.997 192.32C189.462 192.32 191.692 193.318 193.308 194.934C194.923 196.55 195.922 198.78 195.922 201.245Z" fill="white"/>
<path d="M171.946 152.516H147.572V155.374H171.946V152.516Z" fill="#050709"/>
<path d="M147.572 152.516H163.497L162.245 155.374H147.572V152.516Z" fill="white"/>
<path d="M202.412 155.373H163.998L173.27 128.881H211.684L202.412 155.373Z" fill="white"/>
<path d="M190.101 142.871C190.101 141.539 189.021 140.459 187.689 140.459C186.357 140.459 185.277 141.539 185.277 142.871C185.277 144.203 186.357 145.283 187.689 145.283C189.021 145.283 190.101 144.203 190.101 142.871Z" fill="#050709"/>
<path d="M226.227 155.363H140.857V159.198H226.227V155.363Z" fill="#3276B1"/>
</svg>
